<?xml version="1.0" encoding="utf-8"?><svg xmlns="http://www.w3.org/2000/svg" xmlns:xlink="http://www.w3.org/1999/xlink"><symbol viewBox="0 0 25 20" id="city" xmlns="http://www.w3.org/2000/svg"><path d="M24.063 7.5H18.75V.937A.937.937 0 0 0 17.812 0h-5.625a.937.937 0 0 0-.937.938V3.75h-2.5V.625A.625.625 0 0 0 8.125 0H7.5a.625.625 0 0 0-.625.625V3.75h-2.5V.625A.625.625 0 0 0 3.75 0h-.625A.625.625 0 0 0 2.5.625V3.75H.937A.937.937 0 0 0 0 4.688V18.75C0 19.44.56 20 1.25 20h22.5c.69 0 1.25-.56 1.25-1.25V8.437a.937.937 0 0 0-.938-.937zM5 15.781c0 .26-.21.469-.469.469H2.97a.469.469 0 0 1-.469-.469V14.22c0-.26.21-.469.469-.469h1.56c.26 0 .469.21.469.469v1.562zm0-3.75c0 .26-.21.469-.469.469H2.97a.469.469 0 0 1-.469-.469V10.47c0-.26.21-.469.469-.469h1.56c.26 0 .469.21.469.469v1.562zm0-3.75c0 .26-.21.469-.469.469H2.97a.469.469 0 0 1-.469-.469V6.72c0-.26.21-.469.469-.469h1.56c.26 0 .469.21.469.469v1.56zm5 7.5c0 .26-.21.469-.469.469H7.97a.469.469 0 0 1-.469-.469V14.22c0-.26.21-.469.469-.469h1.56c.26 0 .469.21.469.469v1.562zm0-3.75c0 .26-.21.469-.469.469H7.97a.469.469 0 0 1-.469-.469V10.47c0-.26.21-.469.469-.469h1.56c.26 0 .469.21.469.469v1.562zm0-3.75c0 .26-.21.469-.469.469H7.97a.469.469 0 0 1-.469-.469V6.72c0-.26.21-.469.469-.469h1.56c.26 0 .469.21.469.469v1.56zm6.25 3.75c0 .26-.21.469-.469.469H14.22a.469.469 0 0 1-.469-.469V10.47c0-.26.21-.469.469-.469h1.562c.26 0 .469.21.469.469v1.562zm0-3.75c0 .26-.21.469-.469.469H14.22a.469.469 0 0 1-.469-.469V6.72c0-.26.21-.469.469-.469h1.562c.26 0 .469.21.469.469v1.56zm0-3.75c0 .26-.21.469-.469.469H14.22a.469.469 0 0 1-.469-.469V2.97c0-.26.21-.469.469-.469h1.562c.26 0 .469.21.469.469v1.56zm6.25 11.25c0 .26-.21.469-.469.469H20.47a.469.469 0 0 1-.469-.469V14.22c0-.26.21-.469.469-.469h1.562c.26 0 .469.21.469.469v1.562zm0-3.75c0 .26-.21.469-.469.469H20.47a.469.469 0 0 1-.469-.469V10.47c0-.26.21-.469.469-.469h1.562c.26 0 .469.21.469.469v1.562z"/></symbol><symbol viewBox="0 0 25 25" id="email" xmlns="http://www.w3.org/2000/svg"><path d="M4.837 5H21.4c1.563 0 2.35.737 2.35 2.237v10.525c0 1.488-.788 2.238-2.35 2.238H4.837c-1.562 0-2.35-.75-2.35-2.238V7.239c0-1.5.788-2.238 2.35-2.238zm8.276 10.75l8.425-6.912c.3-.25.537-.825.162-1.338-.363-.513-1.025-.525-1.462-.213l-7.125 4.826L6 7.288c-.438-.313-1.1-.3-1.463.212-.375.512-.137 1.088.163 1.338l8.413 6.912z"/></symbol><symbol viewBox="0 0 100 100" id="handUp" xmlns="http://www.w3.org/2000/svg"><path d="M4.167 87.5h16.666v-50H4.167v50zm91.666-45.833c0-4.584-3.75-8.334-8.333-8.334H61.208l3.959-19.041.125-1.334a6.272 6.272 0 0 0-1.834-4.416l-4.416-4.375-27.417 27.458a8.147 8.147 0 0 0-2.458 5.875v41.667c0 4.583 3.75 8.333 8.333 8.333H75a8.277 8.277 0 0 0 7.667-5.083L95.25 53.042A8.233 8.233 0 0 0 95.833 50v-8.333z"/></symbol><symbol viewBox="0 0 100 100" id="money" xmlns="http://www.w3.org/2000/svg"><path d="M0 15h100v60h-3.75c0-8.95-7.3-16.25-16.25-16.25-6.55 0-12.1 3.95-14.7 9.55-1.25-.5-2.6-.8-4.05-.8-4.9 0-9 3.15-10.55 7.5H0V15zm41.85 15.55c-.3.75-.5 1.55-.55 2.35-.05.8-.05 1.65.05 2.5l.1.4c.05.3.1.7.25 1.15.1.5.3 1 .5 1.55.15.55.45 1.1.75 1.65.35.6.75 1.1 1.15 1.55.4.45.9.85 1.55 1.15.6.3 1.25.45 2 .45.7 0 1.35-.15 1.95-.45.6-.3 1.1-.7 1.5-1.1.45-.45.8-1 1.1-1.6.35-.6.6-1.15.8-1.65.2-.5.35-1 .45-1.55.15-.55.2-.9.25-1.1.05-.2.05-.35.05-.45.25-1.45.15-2.8-.2-4.1-.35-1.3-1.05-2.4-2.05-3.3-1.05-.9-2.35-1.35-3.95-1.35-.95 0-1.8.15-2.6.5-.75.35-1.4.8-1.9 1.4-.45.55-.85 1.25-1.2 2zm22.4 30.2v-5.7c0-1.65-.5-3.3-1.45-4.9-.95-1.6-2.25-2.95-3.85-3.95-1.6-1.05-3.3-1.55-5.1-1.55l-6.2 4.2-6.4-4.1c-1.85 0-3.6.5-5.2 1.5-1.55 1-2.8 2.3-3.7 3.85-.9 1.6-1.35 3.25-1.35 4.95v5.7l.9.25c.6.2 1.45.4 2.55.7 1.15.25 2.35.5 3.7.75 1.3.25 2.85.45 4.55.65 1.7.15 3.35.25 4.95.25 1.5 0 3.15-.1 4.9-.25 1.7-.2 3.2-.4 4.45-.65 1.25-.2 2.5-.5 3.8-.8l2.5-.6c.4-.1.7-.2.95-.3zm15.75.5c7.6 0 13.75 6.15 13.75 13.75S87.6 88.75 80 88.75c-3.65 0-6.9-1.5-9.35-3.85a11.175 11.175 0 0 0-3.1-15.45c2.15-4.8 6.85-8.2 12.45-8.2zm-27.5 17.5c0-4.8 3.95-8.75 8.75-8.75S70 73.95 70 78.75s-3.95 8.75-8.75 8.75-8.75-3.95-8.75-8.75z"/></symbol><symbol viewBox="0 0 25 25" id="phone" xmlns="http://www.w3.org/2000/svg"><path d="M21.621 5.62l-2.6-2.598a1.973 1.973 0 0 0-1.399-.58 1.97 1.97 0 0 0-1.401.58L13.423 5.82a1.972 1.972 0 0 0-.581 1.4c0 .529.207 1.027.58 1.4l2.047 2.046a9.616 9.616 0 0 1-1.966 2.835 9.65 9.65 0 0 1-2.834 1.973l-2.046-2.046a1.973 1.973 0 0 0-2.8 0l-2.8 2.795a1.976 1.976 0 0 0-.582 1.402c0 .53.208 1.027.581 1.4l2.596 2.596a3.209 3.209 0 0 0 2.263.938c.178 0 .349-.015.517-.044 3.292-.542 6.556-2.293 9.19-4.925 2.632-2.63 4.38-5.89 4.93-9.192a3.213 3.213 0 0 0-.897-2.778z"/></symbol><symbol viewBox="0 0 25 25" id="site" xmlns="http://www.w3.org/2000/svg"><g clip-path="url(#fa)"><path d="M11.25 0a11.25 11.25 0 1 0 0 22.5 11.25 11.25 0 0 0 0-22.5zm4.325 14.938c0 1.837-1 4.124-5.075 5.874.375-5.212-3.15-4.612-4-6.25a4.062 4.062 0 0 1 2.25-3.187 10.612 10.612 0 0 1-5.225-2.5c.063.588.349 1.13.8 1.512A5.225 5.225 0 0 1 1.9 8.512a9.925 9.925 0 0 1 9.063-7.037c-1.05 1.725-1.875 5.162 0 6.963-1.925.312-3.138-2.188-4.2-1.2-1.413 1.324.412 3.137 4.274 3.85 4.113.737 4.575 1.975 4.538 3.85zm1.675-5c-.4-1.388.775-2.788 2.113-3.926a9.087 9.087 0 0 1 1.05 8.35C19.45 12 17.7 11.463 17.25 9.9v.037z"/></g><defs><clipPath id="fa"><path d="M0 0h25v25H0z"/></clipPath></defs></symbol><symbol viewBox="0 0 100 100" id="smile" xmlns="http://www.w3.org/2000/svg"><path d="M49.958 8.333C26.958 8.333 8.333 27 8.333 50s18.625 41.667 41.625 41.667C73 91.667 91.667 73 91.667 50S73 8.333 49.958 8.333zM50 72.917c-9.708 0-18-6.042-21.333-14.584h6.958c2.917 4.959 8.208 8.334 14.375 8.334s11.5-3.375 14.375-8.334h6.958C68 66.875 59.708 72.917 50 72.917zm14.583-27.084a6.25 6.25 0 1 1 0-12.5 6.25 6.25 0 0 1 0 12.5zm-29.166 0a6.25 6.25 0 1 1 0-12.5 6.25 6.25 0 0 1 0 12.5z"/></symbol><symbol viewBox="0 0 32 32" id="telegram" xmlns="http://www.w3.org/2000/svg"><path d="M27.532 4.134L2.565 14.048c-.811.27-.72 1.443.09 1.713l6.31 1.983 2.523 7.931c.18.631.992.812 1.442.361l3.696-3.425 7.03 5.137a.947.947 0 0 0 1.442-.54l4.867-20.91c.27-1.533-1.081-2.705-2.433-2.164zM12.93 19.276l-.81 4.687-1.803-6.49L27.892 5.937 12.93 19.277z"/></symbol><symbol viewBox="0 0 32 32" id="viber" xmlns="http://www.w3.org/2000/svg"><path d="M26.557 4.726c-.694-.64-3.505-2.679-9.771-2.706 0 0-7.388-.443-10.986 2.86-2.001 2-2.706 4.937-2.783 8.573-.077 3.637-.17 10.45 6.398 12.298h.005l-.005 2.822s-.044 1.142.71 1.372c.908.285 1.444-.585 2.313-1.52a85.638 85.638 0 0 0 1.63-1.843c4.495.378 7.945-.486 8.339-.612.907-.295 6.042-.951 6.873-7.765.864-7.032-.416-11.472-2.723-13.478zm.76 12.965c-.705 5.687-4.866 6.048-5.632 6.294-.328.104-3.363.858-7.174.612 0 0-2.844 3.429-3.73 4.32-.29.29-.606.263-.6-.312 0-.377.021-4.686.021-4.686-.005 0-.005 0 0 0-5.566-1.542-5.238-7.343-5.178-10.378.06-3.035.634-5.523 2.33-7.196 3.045-2.761 9.317-2.351 9.317-2.351 5.298.022 7.835 1.618 8.426 2.154 1.952 1.673 2.947 5.676 2.22 11.543zm-7.6-4.418c.021.47-.684.503-.706.033-.06-1.203-.623-1.788-1.782-1.854-.47-.027-.427-.732.038-.705 1.525.082 2.373.957 2.45 2.526zm1.11.618c.054-2.319-1.395-4.134-4.145-4.336-.465-.033-.416-.738.049-.706 3.171.23 4.861 2.412 4.8 5.058-.005.47-.715.449-.704-.016zm2.57.733c.005.47-.706.475-.706.005-.033-4.456-3.002-6.884-6.605-6.911-.465-.006-.465-.706 0-.706 4.03.027 7.272 2.81 7.31 7.612zm-.618 5.364v.01c-.591 1.04-1.695 2.188-2.833 1.822l-.01-.017c-1.155-.322-3.872-1.722-5.59-3.09a14.297 14.297 0 0 1-2.318-2.318 17.738 17.738 0 0 1-1.684-2.548c-1.165-2.105-1.422-3.045-1.422-3.045-.366-1.138.777-2.242 1.821-2.833h.011c.503-.262.985-.175 1.307.213 0 0 .678.81.968 1.209.273.372.64.968.831 1.301.334.596.126 1.203-.202 1.455l-.656.525c-.334.268-.29.765-.29.765s.973 3.68 4.61 4.61c0 0 .497.043.765-.29l.525-.656c.251-.328.858-.536 1.454-.203.804.454 1.827 1.16 2.505 1.8.382.311.47.787.208 1.29z"/></symbol><symbol viewBox="0 0 28 32" id="whatsap" xmlns="http://www.w3.org/2000/svg"><path d="M23.806 6.069A13.77 13.77 0 0 0 13.994 2C6.344 2 .119 8.225.119 15.875c0 2.444.637 4.831 1.85 6.938L0 30l7.356-1.931a13.833 13.833 0 0 0 6.632 1.687h.006C21.637 29.756 28 23.531 28 15.881c0-3.706-1.575-7.187-4.194-9.812zm-9.812 21.35a11.5 11.5 0 0 1-5.875-1.607l-.419-.25-4.363 1.144L4.5 22.45l-.275-.438a11.494 11.494 0 0 1-1.762-6.137C2.462 9.519 7.637 4.344 14 4.344c3.081 0 5.975 1.2 8.15 3.381 2.175 2.181 3.513 5.075 3.506 8.156 0 6.363-5.306 11.538-11.662 11.538zm6.325-8.638c-.344-.175-2.05-1.012-2.369-1.125-.319-.118-.55-.175-.781.175-.232.35-.894 1.125-1.1 1.363-.2.231-.406.262-.75.087-2.038-1.018-3.375-1.819-4.719-4.125-.356-.612.356-.569 1.019-1.894.112-.23.056-.43-.031-.606-.088-.175-.782-1.881-1.07-2.575-.28-.675-.568-.581-.78-.593-.2-.013-.432-.013-.663-.013-.231 0-.606.088-.925.431-.319.35-1.213 1.188-1.213 2.894 0 1.706 1.244 3.356 1.413 3.587.175.232 2.444 3.732 5.925 5.238 2.2.95 3.062 1.031 4.162.869.67-.1 2.05-.838 2.338-1.65.288-.813.288-1.507.2-1.65-.081-.156-.313-.244-.656-.413z"/></symbol></svg>