<svg xmlns="http://www.w3.org/2000/svg" width="10.979" height="15.063" viewBox="0 0 10.978674 15.062999"><path d="M9.934 5.908H2.222c0-1.202.018-3.146 1.018-4.141.463-.462 1.097-.687 1.937-.687h.017c2.529.01 3.084 1.045 3.37 3.363l.117-.015c.003.025.008.046.01.071l.993-.123C9.352 1.684 8.484.012 5.19 0h-.021C4.033 0 3.117.338 2.447 1.005 1.15 2.298 1.097 4.494 1.095 5.906h-.05C-.015 7.607-.37 10.041.455 11.75c.966 2 2.839 3.313 4.792 3.313h.486c1.752 0 3.826-1.313 4.79-3.313.825-1.707.47-4.141-.59-5.842zm-3.606 4.694v1.041a.828.828 0 0 1-1.656 0v-1.041a1.544 1.544 0 0 1 .828-2.85 1.546 1.546 0 0 1 .828 2.85z" fill="#777"/></svg>