<svg xmlns="http://www.w3.org/2000/svg" width="177.447" height="29.444" viewBox="0 0 177.447 29.444"><path d="M0 7.524V5.256c0-1.137.287-2.112.861-2.927C1.435 1.514 2.159.923 3.032.554 3.905.185 4.863 0 5.906 0c.773 0 1.509.097 2.206.29a6.807 6.807 0 0 1 1.951.888c.603.399 1.081.946 1.433 1.644.352.698.527 1.509.527 2.435v14.291c0 .398-.009.753-.026 1.063-.017.31-.07.7-.158 1.169a5.298 5.298 0 0 1-.369 1.222 5.35 5.35 0 0 1-.703 1.099 3.94 3.94 0 0 1-1.099.949c-.422.246-.961.45-1.617.614-.656.164-1.395.246-2.215.246-.867 0-1.644-.103-2.329-.308-.685-.205-1.242-.475-1.67-.809a4.72 4.72 0 0 1-1.072-1.169 4.495 4.495 0 0 1-.598-1.336A5.595 5.595 0 0 1 0 20.917v-2.338h3.604v1.441c0 1.582.82 2.373 2.461 2.373.457 0 .847-.067 1.169-.202.322-.135.56-.281.712-.439.152-.158.27-.381.352-.668.082-.287.126-.507.132-.659.006-.152.009-.357.009-.615v-5.766H3.974v-3.252h4.465V5.571c0-.621-.237-1.116-.712-1.485s-1.069-.554-1.784-.554c-.727 0-1.298.229-1.714.686-.416.457-.624 1.055-.624 1.793v1.512H0zM15.979.352h3.604v10.811h2.039c.563 0 1.008-.252 1.336-.756.223-.305.387-.694.492-1.169.105-.475.205-1.192.299-2.153l.264-2.268c.094-.879.237-1.629.431-2.25a3.372 3.372 0 0 1 1.011-1.564c.715-.621 1.828-.932 3.34-.932h.545v3.234h-.475c-.305 0-.615.135-.932.404-.199.164-.346.437-.439.817-.093.38-.188.993-.281 1.837l-.246 2.426c-.141 1.266-.311 2.162-.51 2.689-.199.469-.463.82-.791 1.055l3.885 13.025h-3.92l-3.129-11.162h-2.918v11.162H15.98V.352zm24.697 7.172V6.083c0-.633-.158-1.184-.475-1.652-.422-.598-1.043-.896-1.863-.896-.809 0-1.436.275-1.881.826-.41.504-.615 1.33-.615 2.479v12.428c0 .363.006.639.018.826.012.187.053.419.123.694.07.275.182.513.334.712.422.598 1.031.896 1.828.896.914 0 1.588-.287 2.021-.861.34-.48.51-1.166.51-2.057v-.896h3.586v1.037c0 2.004-.504 3.539-1.512 4.605-1.031 1.125-2.602 1.688-4.711 1.688-1.945 0-3.457-.633-4.535-1.898a4.973 4.973 0 0 1-.738-1.116 4.573 4.573 0 0 1-.387-1.274 10.755 10.755 0 0 1-.123-1.055 24.3 24.3 0 0 1-.018-1.09V6.399c0-1.008.126-1.922.378-2.742.252-.82.741-1.547 1.468-2.18A5.333 5.333 0 0 1 35.991.378 6.799 6.799 0 0 1 38.179 0c.785 0 1.579.144 2.382.431.803.287 1.462.683 1.978 1.187.48.48.87 1.087 1.169 1.819.299.732.448 1.521.448 2.364v1.723h-3.48zM47.69.352h11.883v25.207h-3.604V3.604h-4.676v21.955h-3.604V.352zm16.189 25.207V.352h10.688V3.78h-7.084v7.418h6.258v3.234h-6.258v7.699h7.189v3.428H63.879zm14.203 0V.352h5.361c.668 0 1.23.023 1.688.07.458.047 1.008.202 1.652.466a5.152 5.152 0 0 1 1.705 1.134c.738.762 1.228 1.614 1.468 2.558.24.944.36 2.007.36 3.19v.721c0 2.227-.516 3.932-1.547 5.115-1.16 1.324-2.813 1.986-4.957 1.986h-2.127v9.967h-3.603zm3.604-21.955v8.736h1.934c1.043 0 1.846-.311 2.408-.932.082-.094.155-.185.22-.272.065-.087.12-.185.167-.29.047-.105.088-.193.123-.264.035-.071.064-.17.088-.299.024-.129.041-.22.053-.272a1.94 1.94 0 0 0 .026-.308c.005-.153.009-.246.009-.281V7.154c0-.328-.006-.571-.018-.729a10.275 10.275 0 0 0-.088-.703 2.13 2.13 0 0 0-.29-.817 2.811 2.811 0 0 0-.571-.65 2.492 2.492 0 0 0-.932-.466 4.409 4.409 0 0 0-.853-.167 20.147 20.147 0 0 0-1.028-.018h-1.248zM90.563.352h12.533V3.78h-4.465v21.779h-3.604V3.779h-4.465V.352zm44.361 25.207V.352h3.604v21.973h4.5V.352h3.586v21.973h2.232v7.119h-3.41v-3.885h-10.512zm16.26 0V.352h10.688V3.78h-7.084v7.418h6.258v3.234h-6.258v7.699h7.189v3.428h-10.793zM165.387.352h3.604v10.846h4.852V.352h3.604v25.207h-3.604V14.432h-4.852v11.127h-3.604V.352z" fill="#fff"/><path d="M110.974 6.049v13.039l7.031 2.77 7.031-2.752V6.049h-14.062zm9.772 11.631l-3.156 1.221V11.06l-2.217.252V9.531l2.537-1.24h2.836v9.389z" fill="#d90000"/></svg>