<svg xmlns="http://www.w3.org/2000/svg" width="16.997" height="16.821" viewBox="0 0 16.996944 16.82115"><path d="M3.677 1.346L5.34 3.6l-.805.593L2.872 1.94zM.937 3.714l2.376 1.708-.584.812L.353 4.526zm16.06 5.566l-.14.99-2.773-.392.14-.99zm-1.214 4.497l-2.633-1.28.437-.898 2.632 1.28zm-3.618.961c-.214-1.535.313-3.217.832-4.852.693-2.184 1.398-4.426.06-6.046.467-.13.89-.43 1.157-.878A1.96 1.96 0 0 0 10.851.955a1.955 1.955 0 0 0-.22 1.455c-2.29-.461-4.09 1.513-5.708 3.296C3.84 6.9 2.813 8.023 1.743 8.403c-.75-.046-1.325.116-1.598.574-.522.874.418 2.206 1.92 3.51a2.121 2.121 0 0 0 .974 2.292c.71.424 1.566.376 2.221-.038 2.882 1.678 6.25 2.836 7.05 1.494.25-.413.165-.93-.145-1.497zm.86-13.601a.959.959 0 1 1-.986 1.645.959.959 0 0 1 .985-1.645zm-7.36 5.242c2.147-2.37 3.712-3.828 5.815-2.574 1.92 1.146 1.465 2.942.564 5.779-.386 1.215-.802 2.53-.905 3.838-.955-.975-2.315-1.983-3.715-2.818C6.056 9.788 4.561 9.083 3.267 8.7c.842-.613 1.63-1.473 2.397-2.322zm-3.13 5.178C1.368 10.5.881 9.695 1.004 9.49c.062-.106.37-.14.842-.081l.005.019.036-.014c.758.102 1.964.455 3.494 1.213l-.34.422a2.117 2.117 0 0 0-2.508.507zm1.017 2.365a1.126 1.126 0 0 1 1.152-1.933 1.126 1.126 0 0 1-1.152 1.933zm2.425.072a2.123 2.123 0 0 0-.156-2.318l.462-.571c.207.113.413.229.63.357 2.394 1.43 3.751 2.787 4.283 3.586.041.24.104.48.18.72-.393.232-2.437-.092-5.399-1.774z" fill="#fff"/></svg>