<svg xmlns="http://www.w3.org/2000/svg" width="25.819" height="25.968" viewBox="0 0 25.818812 25.968313"><path d="M20.196 10.097C20.196 4.531 15.667 0 10.098 0 4.529 0 0 4.53 0 10.097c0 5.568 4.529 10.098 10.098 10.098 5.569 0 10.098-4.53 10.098-10.098zM10.098 18.57c-4.672 0-8.473-3.801-8.473-8.473 0-4.671 3.801-8.472 8.473-8.472 4.672 0 8.473 3.801 8.473 8.472 0 4.672-3.801 8.473-8.473 8.473zm15.024 3.679L20.159 17.7c-1.183-.991-.791-1.006-2.047.262l-.299.298c-1.222 1.254-1.271.884-.259 2.046l4.546 4.965c.854.853 2.154.935 2.905.182l.298-.299c.754-.753.671-2.052-.181-2.905z" fill="#fe0000"/></svg>