<svg xmlns="http://www.w3.org/2000/svg" width="26.351" height="15.65" viewBox="0 0 26.351435 15.649999"><path d="M25.744 1.06c.185-.611 0-1.06-.87-1.06H21.99c-.732 0-1.07.388-1.254.815 0 0-1.466 3.573-3.543 5.895-.672.671-.978.886-1.344.886-.183 0-.448-.214-.448-.825v-5.71c0-.733-.213-1.06-.823-1.06h-4.53c-.457 0-.733.34-.733.663 0 .695 1.038.854 1.145 2.81v4.245c0 .931-.167 1.099-.534 1.099-.977 0-3.354-3.589-4.765-7.696C4.885.324 4.607.001 3.87.001H.988C.165.001 0 .389 0 .816c0 .763.978 4.55 4.551 9.559 2.382 3.422 5.738 5.275 8.793 5.275 1.832 0 2.059-.412 2.059-1.121v-2.586c0-.822.175-.988.754-.988.428 0 1.16.215 2.87 1.863 1.955 1.955 2.277 2.832 3.377 2.832h2.883c.823 0 1.235-.412.998-1.225-.26-.811-1.193-1.985-2.431-3.378-.673-.794-1.681-1.649-1.986-2.077-.427-.55-.305-.793 0-1.283-.002 0 3.51-4.948 3.876-6.627z" fill="#fff"/></svg>