<?xml version="1.0" encoding="utf-8"?><svg xmlns="http://www.w3.org/2000/svg" xmlns:xlink="http://www.w3.org/1999/xlink"><symbol viewBox="0 0 100 100" id="about1" xmlns="http://www.w3.org/2000/svg"><path d="M98.047 7.814h-8.594v-5.86A1.953 1.953 0 0 0 87.5.001H43.751a1.953 1.953 0 0 0-1.953 1.953v5.86H1.953A1.953 1.953 0 0 0 0 9.766v7.812c0 1.078.874 1.953 1.953 1.953h39.845v1.172c0 .545.224 1.038.585 1.392l13.706 13.707c.285.285.65.471 1.042.54v7.404c0 .688.361 1.324.951 1.676l5.592 3.341v2.08a6.585 6.585 0 0 1-6.577 6.578H21.415a1.953 1.953 0 0 0 0 3.906h35.682c5.78 0 10.483-4.703 10.483-10.483v-2.08l5.591-3.342c.59-.352.952-.989.952-1.676v-7.404a1.95 1.95 0 0 0 1.041-.54l13.718-13.718.004-.005c.35-.353.567-.84.567-1.376v-1.172h8.594A1.953 1.953 0 0 0 100 17.58V9.767a1.953 1.953 0 0 0-1.953-1.953zm-56.249 7.812H3.906V11.72h37.892v3.906zm28.419 27.013l-4.59 2.742-4.59-2.742v-6.264h9.18v6.264zm2.758-10.17H58.279l-9.812-9.812h34.32l-9.813 9.812zM85.547 18.75H45.704v-5.469h22.69a1.953 1.953 0 0 0 0-3.906h-22.69V3.907h39.843v14.844zm10.547-3.125h-6.64V11.72h6.64v3.906z"/><path d="M76.698 9.376h-.029a1.953 1.953 0 0 0 0 3.906h.03a1.953 1.953 0 0 0 0-3.906zM71.4 81.04a1.968 1.968 0 0 0-1.38-.572c-.514 0-1.018.209-1.38.572a1.968 1.968 0 0 0-.573 1.381c0 .514.209 1.018.572 1.38.363.364.867.573 1.381.573s1.017-.209 1.38-.572c.364-.363.573-.867.573-1.38 0-.514-.209-1.018-.572-1.382z"/><path d="M87.5 80.468h-8.594a1.953 1.953 0 0 0 0 3.906h6.64v11.719h-71.09V84.374H61.72a1.953 1.953 0 0 0 0-3.906H12.502a1.953 1.953 0 0 0-1.953 1.953v15.625c0 1.078.874 1.953 1.953 1.953H87.5a1.953 1.953 0 0 0 1.953-1.953V82.42a1.953 1.953 0 0 0-1.953-1.953zm0-15.234H12.502a1.953 1.953 0 0 0-1.953 1.953V75c0 1.078.874 1.953 1.953 1.953H87.5a1.953 1.953 0 0 0 1.953-1.954v-7.812a1.953 1.953 0 0 0-1.953-1.953zm-1.953 7.812H14.455V69.14h71.092v3.906zM13.883 57.994a1.968 1.968 0 0 0-1.381-.572c-.514 0-1.018.209-1.38.572a1.968 1.968 0 0 0-.573 1.38c0 .514.209 1.018.572 1.381.363.364.867.573 1.38.573.515 0 1.019-.209 1.382-.573.363-.363.572-.867.572-1.38 0-.514-.209-1.018-.572-1.381z"/></symbol><symbol viewBox="0 0 100 100" id="about2" xmlns="http://www.w3.org/2000/svg"><path d="M98.047 0H1.953A1.953 1.953 0 0 0 0 1.953v71.875c0 1.079.875 1.953 1.953 1.953h9.496a1.953 1.953 0 0 0 0-3.906H3.906V61.751h92.188v10.124H25.957a1.953 1.953 0 0 0 0 3.906h12.52V88.27h-8.269a1.953 1.953 0 0 0-1.953 1.953v7.825c0 1.079.875 1.953 1.953 1.953h39.584a1.953 1.953 0 0 0 1.953-1.953v-7.825a1.953 1.953 0 0 0-1.953-1.953h-8.66V75.781h36.915A1.953 1.953 0 0 0 100 73.828V1.953A1.953 1.953 0 0 0 98.047 0zM42.383 75.781h14.844V88.27H42.383V75.781zm25.455 16.394v3.919H32.162v-3.919h35.676zM47.791 33.854v12.598c0 .057.004.114.009.17a5.887 5.887 0 0 0-3.579 3.573h-9.777V39.258h3.906v4.256a1.953 1.953 0 0 0 3.906 0v-6.21a1.953 1.953 0 0 0-1.953-1.952h-7.812a1.953 1.953 0 0 0-1.953 1.953v12.89h-1.965a5.887 5.887 0 0 0-3.58-3.573 1.6 1.6 0 0 0 .01-.17V33.854a5.887 5.887 0 0 0 3.57-3.57H44.22a5.887 5.887 0 0 0 3.57 3.57zm0-5.523c0-1.077.876-1.953 1.953-1.953s1.953.876 1.953 1.953a1.955 1.955 0 0 1-1.953 1.953 1.955 1.955 0 0 1-1.953-1.953zM23.05 30.284a1.955 1.955 0 0 1-1.953-1.953c0-1.077.877-1.953 1.953-1.953 1.077 0 1.954.876 1.954 1.953a1.955 1.955 0 0 1-1.954 1.953zm21.172-3.907H28.573a5.85 5.85 0 0 0-.731-1.411l6.852-9.625a5.835 5.835 0 0 0 3.44.049l6.818 9.576a5.85 5.85 0 0 0-.731 1.411zM36.495 11.72a1.955 1.955 0 0 1-1.953-1.953c0-1.077.876-1.954 1.953-1.954s1.953.877 1.953 1.954a1.955 1.955 0 0 1-1.953 1.953zM3.906 57.845V3.906h32.58a5.866 5.866 0 0 0-5.85 5.86c0 1.18.352 2.279.954 3.2l-6.928 9.732a5.844 5.844 0 0 0-1.612-.227 5.866 5.866 0 0 0-5.86 5.86 5.869 5.869 0 0 0 3.906 5.523v12.598c0 .057.004.114.01.17a5.868 5.868 0 0 0-3.916 5.526 5.869 5.869 0 0 0 4.492 5.697H3.906zm17.19-5.697c0-1.077.877-1.953 1.953-1.953 1.077 0 1.954.877 1.954 1.953a1.955 1.955 0 0 1-1.954 1.954 1.955 1.955 0 0 1-1.953-1.954zm3.321 5.697a5.881 5.881 0 0 0 4.156-3.743H44.22a5.882 5.882 0 0 0 4.156 3.743h-23.96zm23.374-5.697c0-1.077.877-1.953 1.953-1.953 1.077 0 1.953.877 1.953 1.953a1.955 1.955 0 0 1-1.953 1.954 1.955 1.955 0 0 1-1.953-1.954zm3.32 5.697a5.868 5.868 0 0 0 4.493-5.697 5.869 5.869 0 0 0-3.915-5.526c.005-.056.008-.113.008-.17V33.854a5.86 5.86 0 0 0 1.934-1.143l5.93 22.13a1.954 1.954 0 0 0 3.267.876l3.796-3.795 5.703 5.703c.082.082.171.155.265.22h-21.48zM68.006 47.78a1.954 1.954 0 0 0-2.762 0l-2.784 2.784-4.669-17.424 17.423 4.669-2.789 2.789c-.763.763-.763 2 0 2.762l5.703 5.703-4.42 4.42-5.702-5.703zm28.089 10.066h-21.27a1.95 1.95 0 0 0 .265-.22l7.181-7.182c.763-.762.763-2 0-2.762l-5.702-5.703 3.8-3.8a1.953 1.953 0 0 0-.876-3.267L55.6 28.51c.002-.06.005-.119.005-.178a5.867 5.867 0 0 0-5.86-5.86c-.559 0-1.099.08-1.611.227l-6.829-9.592a5.823 5.823 0 0 0 1.05-3.34 5.866 5.866 0 0 0-5.851-5.86h59.59v53.94z"/><path d="M20.084 72.447a1.968 1.968 0 0 0-1.38-.572 1.97 1.97 0 0 0-1.382.572 1.969 1.969 0 0 0-.572 1.381c0 .514.209 1.018.572 1.381.364.363.867.572 1.381.572s1.018-.209 1.381-.572.572-.867.572-1.38c0-.514-.209-1.018-.572-1.382zm31.296-7.002a1.967 1.967 0 0 0-1.38-.572c-.514 0-1.018.209-1.38.572a1.968 1.968 0 0 0-.573 1.381c0 .516.209 1.018.572 1.381a1.96 1.96 0 0 0 1.381.572 1.955 1.955 0 0 0 1.953-1.952c0-.514-.209-1.018-.572-1.382z"/></symbol><symbol viewBox="0 0 100 100" id="about3" xmlns="http://www.w3.org/2000/svg"><g clip-path="url(#ca)"><path d="M76.7 14.522l-7.626-4.232a1.953 1.953 0 1 0-1.895 3.415l4.546 2.524-21.74 12.044L28.248 16.23 49.986 4.185l4.767 2.636a1.953 1.953 0 1 0 1.89-3.42L50.93.245a1.952 1.952 0 0 0-1.891 0L23.27 14.522a1.953 1.953 0 0 0-1.006 1.709v28.553c0 .71.386 1.364 1.006 1.708l25.77 14.276a1.953 1.953 0 0 0 1.893 0L76.7 46.49a1.953 1.953 0 0 0 1.007-1.709V16.23c0-.71-.385-1.364-1.005-1.708zM48.033 55.744l-21.86-12.112V19.545l21.86 12.112v24.087zM73.8 43.632L51.938 55.744V31.657L73.8 19.544v24.088z"/><path d="M63.264 7.165a1.965 1.965 0 0 0-1.38-.572 1.97 1.97 0 0 0-1.382.572 1.968 1.968 0 0 0-.572 1.381c0 .514.209 1.018.572 1.381a1.97 1.97 0 0 0 1.381.572c.516 0 1.018-.209 1.381-.572.365-.365.572-.867.572-1.38a1.96 1.96 0 0 0-.572-1.382zm2.193 23.985a6.73 6.73 0 0 0-6.571-.322l-1.538.758a1.953 1.953 0 0 0-1.09 1.752V46.78a1.953 1.953 0 0 0 2.818 1.752l3.387-1.672a11.037 11.037 0 0 0 6.191-9.959 6.73 6.73 0 0 0-3.197-5.751zm-4.722 12.207l-.57.281v-9.086l.449-.221a2.812 2.812 0 0 1 2.781.136 2.813 2.813 0 0 1 1.353 2.434 7.155 7.155 0 0 1-4.013 6.456zm37.25 32.513l-.184-.184a7.55 7.55 0 0 0-9.691-.83l-6.482 4.875c-.267-1.285-.875-2.487-1.793-3.404a5.82 5.82 0 0 0-4.143-1.717H61.07a3.877 3.877 0 0 1-2.759-1.14l-10.39-10.44a11.642 11.642 0 0 0-8.287-3.432H18.998a4.057 4.057 0 0 0-3.91-3.005H4.053A4.057 4.057 0 0 0 0 60.646v8.168a1.953 1.953 0 0 0 3.906 0v-8.168c0-.081.066-.147.147-.147h11.035c.08 0 .146.066.146.147v30.956c0 .08-.066.146-.146.146H4.053a.147.147 0 0 1-.147-.146v-7.424a1.953 1.953 0 0 0-3.906 0v7.424a4.057 4.057 0 0 0 4.052 4.052h11.035a4.057 4.057 0 0 0 3.898-2.958l5.286 3.201A28.362 28.362 0 0 0 38.964 100h32.711c5.54 0 10.962-1.92 15.267-5.408l10.508-8.51a6.89 6.89 0 0 0 2.54-4.987 6.886 6.886 0 0 0-2.005-5.225zm-1.895 5.02a2.94 2.94 0 0 1-1.098 2.156l-10.507 8.511a20.414 20.414 0 0 1-12.81 4.537h-32.71a24.454 24.454 0 0 1-12.67-3.538l-7.155-4.334V63.504h20.495c2.087 0 4.049.812 5.521 2.285l10.39 10.439a7.761 7.761 0 0 0 5.525 2.288h14.62c.515 0 1.018.208 1.382.572.895.895.967 2.37.58 3.304a1.93 1.93 0 0 1-.39.621l-.101.076a2.013 2.013 0 0 0-.16.134 1.22 1.22 0 0 1-.658.168H54.017a6.95 6.95 0 0 1-3.793-1.125L43.96 78.19l-.023-.014a1.953 1.953 0 1 0-2.141 3.266l6.299 4.097a10.836 10.836 0 0 0 5.922 1.757h22.327a5.098 5.098 0 0 0 3.422-1.278l10.657-8.015a3.644 3.644 0 0 1 4.616.444l.184.184c.604.604.912 1.406.867 2.259z"/><path d="M10.967 64.7l-.015-.017a1.953 1.953 0 0 0-2.78 2.746l.016.016c.383.386.886.58 1.39.58a1.953 1.953 0 0 0 1.39-3.326zm-7.633 9.829a1.967 1.967 0 0 0-1.381-.573c-.514 0-1.018.21-1.38.573A1.968 1.968 0 0 0 0 75.909c0 .516.209 1.018.572 1.381a1.96 1.96 0 0 0 1.381.573 1.96 1.96 0 0 0 1.38-.573c.364-.363.573-.867.573-1.38 0-.514-.209-1.018-.572-1.381zm39.308-39.434a4.75 4.75 0 0 0-2.665-4.286l-4.967-2.45a1.953 1.953 0 0 0-1.728 3.503l4.967 2.45c.3.148.487.448.487.783 0 .568-.375.862-.535.962-.161.1-.59.306-1.1.054l-3.001-1.48a1.953 1.953 0 0 0-1.729 3.502l.417.205.004.003 5.457 2.692c.3.148.486.448.486.783 0 .568-.374.862-.535.962-.16.1-.59.306-1.1.054l-3-1.481a1.953 1.953 0 1 0-1.729 3.503l3.001 1.48a5.04 5.04 0 0 0 2.233.525 5.03 5.03 0 0 0 2.658-.763 5.01 5.01 0 0 0 2.379-4.28 4.748 4.748 0 0 0-1.328-3.31 5.009 5.009 0 0 0 1.328-3.411z"/></g><defs><clipPath id="ca"><path d="M0 0h100v100H0z"/></clipPath></defs></symbol><symbol viewBox="0 0 56 56" id="instagram" xmlns="http://www.w3.org/2000/svg"><path d="M39.3 0H16.7C7.53 0 .07 7.46.07 16.63v22.74C.07 48.54 7.53 56 16.7 56h22.6c9.17 0 16.63-7.46 16.63-16.63V16.63C55.93 7.46 48.47 0 39.3 0zm14.399 39.37c0 7.94-6.46 14.399-14.4 14.399H16.7c-7.94 0-14.399-6.46-14.399-14.4V16.63c0-7.94 6.46-14.399 14.4-14.399H39.3c7.94 0 14.399 6.46 14.399 14.4V39.37z"/><path d="M39.3 6.376H16.7c-5.654 0-10.254 4.6-10.254 10.254v22.74c0 5.654 4.6 10.254 10.254 10.254h22.6c5.654 0 10.254-4.6 10.254-10.254V16.63c0-5.654-4.6-10.254-10.254-10.254zm8.023 32.994c0 4.424-3.6 8.023-8.023 8.023H16.7c-4.424 0-8.023-3.6-8.023-8.023V16.63c0-4.424 3.6-8.023 8.023-8.023h22.6c4.424 0 8.023 3.6 8.023 8.023v22.74z"/><path d="M28 13.582c-7.95 0-14.418 6.468-14.418 14.418 0 7.95 6.468 14.418 14.418 14.418 7.95 0 14.418-6.468 14.418-14.418 0-7.95-6.468-14.418-14.418-14.418zm0 26.605c-6.72 0-12.187-5.467-12.187-12.187S21.28 15.813 28 15.813 40.187 21.28 40.187 28 34.72 40.187 28 40.187z"/><path d="M28 19.801c-4.52 0-8.199 3.678-8.199 8.199 0 4.52 3.678 8.199 8.199 8.199 4.52 0 8.199-3.678 8.199-8.2 0-4.52-3.678-8.198-8.199-8.198zm0 14.167A5.974 5.974 0 0 1 22.032 28 5.974 5.974 0 0 1 28 22.032 5.974 5.974 0 0 1 33.968 28 5.974 5.974 0 0 1 28 33.968zM41.615 10.92a3.468 3.468 0 0 0-3.464 3.465 3.468 3.468 0 0 0 3.464 3.464 3.468 3.468 0 0 0 3.465-3.464 3.468 3.468 0 0 0-3.465-3.465zm0 4.698a1.234 1.234 0 0 1 0-2.466 1.234 1.234 0 0 1 0 2.466zm-15.4 35.027H15.73a1.115 1.115 0 1 0 0 2.231h10.486a1.115 1.115 0 1 0 0-2.23zm4.239 0h-.67a1.116 1.116 0 0 0 0 2.231h.67a1.115 1.115 0 1 0 0-2.23z"/></symbol><symbol viewBox="0 0 171 58" id="logo" xmlns="http://www.w3.org/2000/svg"><path d="M143.454 36.71h-.683l3.118-3.117a.8.8 0 0 0-.566-1.367h-5.258a.8.8 0 1 0 0 1.601h3.325l-3.118 3.118a.8.8 0 0 0 .566 1.367h2.616a3.046 3.046 0 0 1 3.043 3.043 3.046 3.046 0 0 1-3.043 3.043 3.046 3.046 0 0 1-3.043-3.043.801.801 0 0 0-1.602 0A4.65 4.65 0 0 0 143.454 46a4.65 4.65 0 0 0 4.644-4.645 4.65 4.65 0 0 0-4.644-4.644zm9.77-4.484h-.121a.801.801 0 0 0 0 1.602h.121a4.17 4.17 0 0 1 4.165 4.165v2.24a4.17 4.17 0 0 1-4.165 4.165h-1.921v-3.283a.801.801 0 0 0-1.602 0v4.084a.8.8 0 0 0 .801.8h2.722a5.773 5.773 0 0 0 5.766-5.766v-2.24a5.773 5.773 0 0 0-5.766-5.767z"/><path d="M151.068 37.666a.806.806 0 0 0-.566-.235.807.807 0 0 0-.566.235.807.807 0 0 0-.235.566c0 .21.086.417.235.566a.807.807 0 0 0 .566.235.806.806 0 0 0 .801-.8.807.807 0 0 0-.235-.567zm19.131-29.462h-9.93V5.802a.8.8 0 0 0-.8-.801h-17.937a.8.8 0 0 0-.801.8v2.403h-9.93a.801.801 0 0 0-.801.8v3.204a.8.8 0 0 0 .801.8h9.93v.481c0 .224.092.426.24.571l5.619 5.62a.803.803 0 0 0 .427.221v3.036a.8.8 0 0 0 .39.687L149.708 25a.79.79 0 0 0-.007.098V35.51a.801.801 0 0 0 1.602 0V25.097a.82.82 0 0 0-.007-.1l2.298-1.373a.8.8 0 0 0 .39-.687V19.9a.803.803 0 0 0 .427-.221l5.624-5.625a.797.797 0 0 0 .234-.566v-.48h9.93a.801.801 0 0 0 .801-.801V9.005a.8.8 0 0 0-.801-.801zm-29.468 3.203h-9.129V9.805h9.129v1.602zm11.651 11.076l-1.881 1.124-1.882-1.124v-2.569h3.763v2.569zm1.131-4.17h-6.025l-4.023-4.023h14.071l-4.023 4.023zm5.155-5.625h-16.336v-2.242h9.303a.801.801 0 0 0 0-1.601h-9.303V6.603h16.336v6.085zm10.731-1.28h-9.13V9.804h9.13v1.602z"/><path d="M155.04 8.844h-.012a.801.801 0 0 0 0 1.602h.012a.801.801 0 0 0 0-1.602zM10.656 25.176c3.2 0 5.648.8 7.344 2.4 1.728 1.6 2.592 4 2.592 7.2 0 3.488-.88 6.064-2.64 7.728-1.76 1.664-4.24 2.496-7.44 2.496H4.416V12.168h13.536l-.336 1.968H6.624v11.04h4.032zm.192 17.904c2.432 0 4.272-.656 5.52-1.968 1.248-1.312 1.872-3.44 1.872-6.384 0-2.624-.64-4.544-1.92-5.76-1.248-1.248-3.12-1.872-5.616-1.872h-4.08V43.08h4.224zm24.23-23.616c2.4 0 4.24 1.072 5.52 3.216 1.311 2.144 1.967 5.36 1.967 9.648 0 4.224-.688 7.488-2.064 9.792-1.376 2.272-3.296 3.408-5.76 3.408-1.28 0-2.416-.32-3.408-.96a8.779 8.779 0 0 1-2.496-2.592V54.36l-2.16.336V19.944h1.872l.144 3.648c1.696-2.752 3.824-4.128 6.384-4.128zm-.625 24.144c3.872 0 5.808-3.76 5.808-11.28 0-3.776-.464-6.544-1.392-8.304-.896-1.792-2.256-2.688-4.08-2.688-1.248 0-2.336.384-3.264 1.152-.928.736-1.824 1.792-2.688 3.168v13.968c1.568 2.656 3.44 3.984 5.616 3.984zm27.404-23.664V45h-2.16V34.392h-5.664L49.185 45h-2.304l5.184-11.136c-2.848-.992-4.272-3.2-4.272-6.624 0-2.368.688-4.176 2.064-5.424 1.376-1.248 3.376-1.872 6-1.872h6zm-2.16 12.672V21.768h-3.888c-1.92-.032-3.376.4-4.368 1.296-.96.864-1.44 2.24-1.44 4.128 0 3.616 1.792 5.424 5.376 5.424h4.32zM82.847 45V32.904H72.43V45h-2.16V19.944h2.16v11.088h10.416V19.944h2.16V45h-2.16zm17.731-25.536c1.12 0 2.128.192 3.024.576.928.384 1.824 1.008 2.688 1.872l-1.104 1.392c-.704-.672-1.424-1.168-2.16-1.488-.704-.32-1.504-.48-2.4-.48-2.016 0-3.616.912-4.8 2.736-1.152 1.824-1.728 4.672-1.728 8.544 0 3.808.56 6.592 1.68 8.352 1.152 1.76 2.752 2.64 4.8 2.64 1.696 0 3.28-.688 4.752-2.064l1.104 1.296c-1.728 1.792-3.68 2.688-5.856 2.688-2.752 0-4.912-1.072-6.48-3.216-1.536-2.176-2.304-5.408-2.304-9.696 0-4.256.784-7.504 2.352-9.744 1.568-2.272 3.712-3.408 6.432-3.408zm24.573.48l-6.48 11.616L126.207 45h-2.304l-7.008-12.432h-3.12V45h-2.16V19.944h2.16v10.848h3.168l6.096-10.848h2.112z"/></symbol><symbol viewBox="0 0 100 100" id="price1" xmlns="http://www.w3.org/2000/svg"><path d="M88.672 0H11.328C5.082 0 0 5.082 0 11.328v77.344C0 94.918 5.082 100 11.328 100h77.344C94.918 100 100 94.918 100 88.672V11.328C100 5.082 94.918 0 88.672 0zm7.422 88.672c0 4.092-3.33 7.422-7.422 7.422H11.328c-4.092 0-7.422-3.33-7.422-7.422V11.328c0-4.092 3.33-7.422 7.422-7.422h77.344c4.092 0 7.422 3.33 7.422 7.422v77.344z"/><path d="M88.88 59.162a1.965 1.965 0 0 0-1.38-.57c-.514 0-1.018.207-1.38.57a1.971 1.971 0 0 0-.573 1.38c0 .517.209 1.02.572 1.384.363.363.867.572 1.381.572s1.018-.209 1.38-.572c.364-.366.573-.867.573-1.383 0-.512-.209-1.016-.572-1.38z"/><path d="M87.5 66.015a1.953 1.953 0 0 0-1.953 1.953v6.737a2.642 2.642 0 0 1-2.639 2.639h-13.69L58.957 59.57a1.953 1.953 0 0 0-1.692-.976h-5.312v-.977c0-1.077.876-1.953 1.953-1.953h3.45a5.866 5.866 0 0 0 5.86-5.86 5.866 5.866 0 0 0-5.86-5.859h-3.45a1.955 1.955 0 0 1-1.953-1.953v-.427l3.6-2.151c.59-.353.952-.99.952-1.677v-4.534h2.87a1.953 1.953 0 0 0 1.953-1.953v-7.422h24.219v29.299a1.953 1.953 0 0 0 3.906 0V17.092a6.552 6.552 0 0 0-6.545-6.545H17.092a6.552 6.552 0 0 0-6.545 6.545v57.613a6.552 6.552 0 0 0 6.545 6.545h65.816a6.552 6.552 0 0 0 6.545-6.545v-6.737a1.953 1.953 0 0 0-1.953-1.953zM61.328 14.453h21.58a2.642 2.642 0 0 1 2.639 2.639v2.83H61.328v-5.469zM50 38.182l-2.599-1.553v-3.426h5.197v3.426L50 38.182zm-7.422-23.729h14.844v14.844H42.578V14.453zm-11.796 62.89h-13.69a2.642 2.642 0 0 1-2.639-2.638V17.092a2.642 2.642 0 0 1 2.639-2.639h21.58v5.469H27.74a1.953 1.953 0 0 0 0 3.906h10.932v7.422c0 1.078.875 1.953 1.953 1.953h2.87v4.534c0 .688.361 1.324.952 1.677l3.6 2.151v.427a5.866 5.866 0 0 0 5.86 5.86h3.45c1.077 0 1.953.876 1.953 1.953a1.955 1.955 0 0 1-1.953 1.953h-3.45a5.866 5.866 0 0 0-5.86 5.86v.976h-5.312c-.698 0-1.343.372-1.692.976L30.782 77.344zm4.51 0l8.57-14.843h12.276l8.57 14.844H35.292z"/><path d="M21.693 20.494a1.967 1.967 0 0 0-1.38-.572c-.514 0-1.018.209-1.381.572a1.969 1.969 0 0 0-.573 1.381c0 .514.21 1.018.573 1.38.363.364.867.573 1.38.573.514 0 1.018-.209 1.381-.572.364-.363.573-.867.573-1.381s-.21-1.018-.573-1.38zm9.953 62.319a5.866 5.866 0 0 0-5.86 5.859c0 3.23 2.629 5.86 5.86 5.86 3.23 0 5.86-2.63 5.86-5.86 0-3.231-2.63-5.86-5.86-5.86zm0 7.812a1.955 1.955 0 0 1-1.953-1.953c0-1.077.876-1.953 1.953-1.953s1.953.876 1.953 1.953a1.955 1.955 0 0 1-1.953 1.953zM50 82.813a5.866 5.866 0 0 0-5.86 5.859c0 3.23 2.63 5.86 5.86 5.86 3.23 0 5.86-2.63 5.86-5.86 0-3.231-2.63-5.86-5.86-5.86zm0 7.812a1.955 1.955 0 0 1-1.953-1.953c0-1.077.876-1.953 1.953-1.953s1.953.876 1.953 1.953A1.955 1.955 0 0 1 50 90.625zm18.354-7.812a5.866 5.866 0 0 0-5.86 5.859c0 3.23 2.63 5.86 5.86 5.86 3.231 0 5.86-2.63 5.86-5.86a5.867 5.867 0 0 0-5.86-5.86zm0 7.812a1.955 1.955 0 0 1-1.953-1.953c0-1.077.876-1.953 1.953-1.953s1.953.876 1.953 1.953a1.955 1.955 0 0 1-1.953 1.953z"/></symbol><symbol viewBox="0 0 100 100" id="price2" xmlns="http://www.w3.org/2000/svg"><path d="M98.047 0H1.953A1.953 1.953 0 0 0 0 1.953v71.875c0 1.079.875 1.953 1.953 1.953h9.496a1.953 1.953 0 0 0 0-3.906H3.906V61.751h92.188v10.124H25.957a1.953 1.953 0 0 0 0 3.906h12.52V88.27h-8.269a1.953 1.953 0 0 0-1.953 1.953v7.825c0 1.079.875 1.953 1.953 1.953h39.584a1.953 1.953 0 0 0 1.953-1.953v-7.825a1.953 1.953 0 0 0-1.953-1.953h-8.66V75.781h36.915A1.953 1.953 0 0 0 100 73.828V1.953A1.953 1.953 0 0 0 98.047 0zM42.383 75.781h14.844V88.27H42.383V75.781zm25.455 16.394v3.919H32.162v-3.919h35.676zm28.256-34.33H3.906V3.906h92.188v53.94z"/><path d="M20.084 72.447a1.968 1.968 0 0 0-1.38-.572 1.97 1.97 0 0 0-1.382.572 1.969 1.969 0 0 0-.572 1.381c0 .514.209 1.018.572 1.381.364.363.867.572 1.381.572s1.018-.209 1.381-.572.572-.867.572-1.38c0-.514-.209-1.018-.572-1.382zm31.296-7.002a1.967 1.967 0 0 0-1.38-.572c-.514 0-1.018.209-1.38.572a1.968 1.968 0 0 0-.573 1.381c0 .516.209 1.018.572 1.383.363.363.867.572 1.381.572s1.018-.209 1.38-.572a1.97 1.97 0 0 0 .573-1.383c0-.513-.209-1.017-.572-1.38zM28.516 16.418a1.953 1.953 0 0 0-1.953 1.954v2.45a1.953 1.953 0 0 0 3.906 0v-2.45a1.953 1.953 0 0 0-1.953-1.954z"/><path d="M48.242 18.359L29.492 7.534a1.953 1.953 0 0 0-1.953 0L8.79 18.359a1.953 1.953 0 0 0-.976 1.691v21.651c0 .698.372 1.343.976 1.691l18.75 10.826a1.952 1.952 0 0 0 1.953 0l18.75-10.826c.605-.349.977-.993.977-1.691v-21.65c0-.698-.373-1.343-.977-1.692zm-21.68 30.784L13.66 41.694a1.953 1.953 0 0 0-1.941-3.363V23.435L24.6 30.88l-.681.393a1.953 1.953 0 1 0 1.953 3.383l.69-.399v14.885zm1.954-24.349a1.953 1.953 0 0 0-1.953 1.953v.756L13.67 20.05l12.9-7.448a1.952 1.952 0 0 0 3.89 0l12.9 7.448-12.892 7.452v-.756a1.953 1.953 0 0 0-1.953-1.953zm16.797 13.537a1.953 1.953 0 0 0-1.942 3.363l-12.902 7.45V34.258l.69.398a1.952 1.952 0 0 0 1.953-3.383l-.682-.393 12.883-7.446V38.33z"/><path d="M40.365 35.462l-2.121-1.225a1.953 1.953 0 1 0-1.953 3.383l2.121 1.225a1.953 1.953 0 0 0 1.953-3.383zm-18.91-.51a1.953 1.953 0 0 0-2.668-.715l-2.121 1.225a1.953 1.953 0 1 0 1.953 3.383l2.121-1.225a1.953 1.953 0 0 0 .715-2.668zm39.092-20.694a1.953 1.953 0 0 0-1.953 1.953v37.535a1.953 1.953 0 0 0 3.906 0V16.211a1.953 1.953 0 0 0-1.953-1.953zm1.381-6.209a1.965 1.965 0 0 0-1.381-.57c-.514 0-1.018.207-1.381.57a1.969 1.969 0 0 0-.572 1.383c0 .513.209 1.017.572 1.38.364.364.867.573 1.38.573.514 0 1.019-.21 1.382-.572.363-.364.572-.868.572-1.381 0-.516-.209-1.018-.572-1.383zm26.519 30.156l-8.203-4.545a1.953 1.953 0 0 0-1.894 0l-8.203 4.545a1.953 1.953 0 0 0-1.006 1.708v9.09c0 .71.385 1.365 1.006 1.709l8.203 4.545a1.953 1.953 0 0 0 1.894 0l8.203-4.545a1.953 1.953 0 0 0 1.006-1.709v-9.09c0-.71-.385-1.364-1.006-1.708zm-15.4 2.859l4.297-2.38v4.623l-4.297 2.381v-4.624zm6.25 10.251l-4.173-2.312 4.173-2.312 4.173 2.312-4.173 2.312zm6.25-5.627l-4.297-2.38v-4.625l4.297 2.38v4.625zm2.9-31.913L80.244 9.23a1.953 1.953 0 0 0-1.894 0l-8.203 4.545a1.953 1.953 0 0 0-1.006 1.708v9.09c0 .71.385 1.365 1.006 1.709l8.203 4.545a1.954 1.954 0 0 0 1.894 0l8.203-4.545a1.953 1.953 0 0 0 1.006-1.709v-9.09c0-.71-.385-1.364-1.006-1.708zM77.344 25.803l-4.297-2.38v-4.625l4.297 2.381v4.624zm1.953-8.008l-4.173-2.312 4.173-2.312 4.173 2.312-4.173 2.313zm6.25 5.628l-4.297 2.38V21.18l4.297-2.38v4.624z"/></symbol><symbol viewBox="0 0 100 100" id="price3" xmlns="http://www.w3.org/2000/svg"><path d="M98.047 78.906H21.094V1.953A1.953 1.953 0 0 0 19.14 0H1.953A1.953 1.953 0 0 0 0 1.953v96.094C0 99.126.874 100 1.953 100h58.79a1.953 1.953 0 1 0 0-3.906h-39.65V82.813h8.334v6.054a1.953 1.953 0 1 0 3.906 0v-6.055h5.404v2.776a1.953 1.953 0 1 0 3.906 0v-2.775h5.404v6.054a1.953 1.953 0 1 0 3.906 0v-6.055h5.404v2.776a1.953 1.953 0 1 0 3.906 0v-2.775h5.404v6.054a1.953 1.953 0 1 0 3.906 0v-6.055h5.404v2.776a1.953 1.953 0 1 0 3.906 0v-2.775h5.404v6.054a1.953 1.953 0 1 0 3.906 0v-6.055h6.9v13.282h-19.53a1.953 1.953 0 1 0 0 3.906h21.484A1.953 1.953 0 0 0 100 98.047V80.859a1.953 1.953 0 0 0-1.953-1.953zm-80.86-68.099h-6.054a1.953 1.953 0 1 0 0 3.906h6.055v5.404h-2.776a1.953 1.953 0 1 0 0 3.906h2.775v5.404h-6.054a1.953 1.953 0 1 0 0 3.906h6.055v5.404h-2.776a1.953 1.953 0 1 0 0 3.906h2.775v5.404h-6.054a1.953 1.953 0 1 0 0 3.906h6.055v5.404h-2.776a1.953 1.953 0 1 0 0 3.906h2.775v5.404h-6.054a1.953 1.953 0 1 0 0 3.906h6.055v5.404h-2.776a1.953 1.953 0 1 0 0 3.906h2.775v5.404h-6.054a1.953 1.953 0 1 0 0 3.906h6.055v6.9H3.905V3.907h13.281v6.901z"/><path d="M70 96.666a1.968 1.968 0 0 0-1.38-.572c-.514 0-1.018.209-1.382.572a1.968 1.968 0 0 0-.572 1.38c0 .514.209 1.018.572 1.382.364.363.868.572 1.381.572.514 0 1.018-.209 1.381-.572.363-.364.572-.867.572-1.381s-.209-1.018-.572-1.381zm-5.937-76.669a1.953 1.953 0 0 0-1.954 1.954v3.061a1.953 1.953 0 1 0 3.907 0v-3.061a1.953 1.953 0 0 0-1.954-1.954z"/><path d="M88.477 22.358L65.039 8.826a1.954 1.954 0 0 0-1.953 0L39.648 22.358a1.953 1.953 0 0 0-.976 1.691v27.063c0 .698.372 1.343.976 1.692l23.438 13.532a1.952 1.952 0 0 0 1.953 0l23.438-13.532c.604-.349.976-.994.976-1.692V24.05c0-.698-.372-1.342-.976-1.691zM62.109 13.9v.643a1.953 1.953 0 1 0 3.907 0V13.9l17.579 10.15-17.58 10.16v-1.79a1.953 1.953 0 1 0-3.906 0v1.79L44.53 24.05 62.11 13.9zm23.438 33.83l-.501-.29a1.953 1.953 0 0 0-1.953 3.383l.5.29-19.53 11.276L44.53 51.113l.501-.29a1.953 1.953 0 1 0-1.953-3.382l-.5.289V27.434l17.566 10.153-1.583.915a1.953 1.953 0 1 0 1.953 3.382l1.594-.92v6.692a1.953 1.953 0 1 0 3.907 0v-6.692l1.594.92a1.952 1.952 0 0 0 1.953-3.383l-1.583-.913 17.567-10.154V47.73z"/><path d="M65.443 53.666a1.968 1.968 0 0 0-1.38-.572c-.514 0-1.018.209-1.381.572a1.968 1.968 0 0 0-.573 1.38c0 .514.21 1.019.573 1.382s.867.572 1.38.572c.514 0 1.018-.209 1.381-.572.364-.363.573-.867.573-1.381s-.21-1.018-.573-1.381zm13.187-9.929l-2.651-1.531a1.953 1.953 0 0 0-1.953 3.383l2.651 1.53a1.952 1.952 0 0 0 1.953-3.383zm-23.816-.817a1.953 1.953 0 0 0-2.668-.715l-2.651 1.531a1.953 1.953 0 1 0 1.953 3.383l2.651-1.53a1.953 1.953 0 0 0 .715-2.669z"/></symbol><symbol viewBox="0 0 56 56" id="telegram" xmlns="http://www.w3.org/2000/svg"><g clip-path="url(#ia)"><path d="M42.139 13.335L19.108 27.52a3.446 3.446 0 0 0-1.5 3.864l2.49 8.75a1.695 1.695 0 0 0 1.769 1.237 1.696 1.696 0 0 0 1.571-1.479l.648-4.797a2.834 2.834 0 0 1 .875-1.69l19.005-17.667a1.51 1.51 0 0 0 .177-2.028 1.513 1.513 0 0 0-2.004-.375zM23.44 31.771a5.07 5.07 0 0 0-1.566 3.025l-.314 2.327-1.808-6.351a1.208 1.208 0 0 1 .526-1.353L37.15 19.028 23.44 31.77z"/><path d="M55.089 4.089a2.573 2.573 0 0 0-2.592-.438L1.649 23.266A2.557 2.557 0 0 0 0 25.682a2.56 2.56 0 0 0 1.675 2.402l11.877 4.433 4.633 14.9a2.572 2.572 0 0 0 4.087 1.23l6.906-5.63a.945.945 0 0 1 1.151-.031l12.456 9.043a2.568 2.568 0 0 0 2.444.319 2.564 2.564 0 0 0 1.592-1.878l9.125-43.893a2.575 2.575 0 0 0-.857-2.488zm-1.327 2.035l-9.125 43.893a.334.334 0 0 1-.213.25.336.336 0 0 1-.327-.043L31.64 41.18a3.173 3.173 0 0 0-3.872.108l-6.907 5.631a.334.334 0 0 1-.316.064.336.336 0 0 1-.23-.229L15.52 31.332a1.116 1.116 0 0 0-.675-.714L2.457 25.994a.325.325 0 0 1-.226-.323c0-.108.038-.252.222-.323L53.3 5.732h.001a.332.332 0 0 1 .346.059c.058.05.151.159.115.333z"/><path d="M46.756 27.578a1.115 1.115 0 0 0-1.327.854l-.17.78a1.116 1.116 0 1 0 2.18.474l.17-.781a1.116 1.116 0 0 0-.853-1.327zm-1.116 5.139a1.115 1.115 0 0 0-1.327.853l-2.566 11.818a1.116 1.116 0 0 0 2.18.474l2.567-11.819a1.116 1.116 0 0 0-.854-1.326z"/></g><defs><clipPath id="ia"><path d="M0 0h56v56H0z"/></clipPath></defs></symbol><symbol viewBox="0 0 56 56" id="twitter" xmlns="http://www.w3.org/2000/svg"><g clip-path="url(#ja)"><path d="M55.538 10.586a1.992 1.992 0 0 0-1.725-.695 12.64 12.64 0 0 0 .658-1.651 1.993 1.993 0 0 0-.653-2.155 1.994 1.994 0 0 0-2.247-.154 19.364 19.364 0 0 1-5.158 2.127 12.789 12.789 0 0 0-8.402-3.185c-6.98 0-12.659 5.678-12.659 12.658 0 .078 0 .156.002.234A28.57 28.57 0 0 1 7.144 7.557a1.984 1.984 0 0 0-3.25.255 12.654 12.654 0 0 0-1.715 6.365c0 1.974.461 3.909 1.328 5.651a1.993 1.993 0 0 0-1.414 1.852l-.002.182c0 3.596 1.561 7.018 4.188 9.399a1.992 1.992 0 0 0-.35 1.856 12.71 12.71 0 0 0 6.748 7.627 19.5 19.5 0 0 1-8.146 1.77c-.775 0-1.554-.046-2.313-.136a1.973 1.973 0 0 0-2.1 1.3 1.974 1.974 0 0 0 .796 2.339 32.242 32.242 0 0 0 17.435 5.11c12.168 0 19.789-5.748 24.038-10.57 5.287-5.997 8.32-13.939 8.32-21.788l-.003-.417a23.574 23.574 0 0 0 4.964-5.388 1.992 1.992 0 0 0-.13-2.378zm-6.633 6.337c-.29.218-.455.563-.444.925.01.306.014.616.014.921 0 7.314-2.829 14.718-7.761 20.314-3.946 4.476-11.03 9.813-22.365 9.813-5.411 0-10.69-1.45-15.331-4.203.503.035 1.009.052 1.513.052a21.65 21.65 0 0 0 11.508-3.285 1.116 1.116 0 0 0-.347-2.034 10.465 10.465 0 0 1-7.504-6.598c.186.028.373.052.56.07a1.117 1.117 0 0 0 .681-2.068 10.502 10.502 0 0 1-5.102-8.688c.436.22.888.412 1.35.571a1.115 1.115 0 0 0 1.214-1.777A10.44 10.44 0 0 1 5.647 9.248c5.195 6.217 12.761 10.178 20.818 10.886a1.116 1.116 0 0 0 1.204-1.253 10.693 10.693 0 0 1-.085-1.35c0-5.75 4.677-10.427 10.427-10.427a10.53 10.53 0 0 1 7.3 2.975c.269.263.652.373 1.02.291a21.571 21.571 0 0 0 5.793-2.186 10.319 10.319 0 0 1-1.892 3.094 1.116 1.116 0 0 0 1.146 1.81c.658-.19 1.31-.413 1.949-.666a21.312 21.312 0 0 1-4.422 4.501z"/><path d="M9.838 15.95c-.235-.175-.47-.355-.697-.536a1.115 1.115 0 1 0-1.389 1.746c.245.195.498.39.752.58a1.114 1.114 0 0 0 1.561-.227 1.116 1.116 0 0 0-.227-1.562zm14.479 5.531a28.54 28.54 0 0 1-11.522-3.598 1.116 1.116 0 1 0-1.102 1.94 30.787 30.787 0 0 0 12.429 3.88 1.116 1.116 0 0 0 .195-2.223z"/></g><defs><clipPath id="ja"><path d="M0 0h56v56H0z"/></clipPath></defs></symbol><symbol viewBox="0 0 56 56" id="vk" xmlns="http://www.w3.org/2000/svg"><g clip-path="url(#ka)"><path d="M53.512 36.715c-1.218-1.46-2.594-2.763-3.925-4.023-.468-.443-.952-.901-1.418-1.356-.627-.612-.934-1.046-.966-1.366-.031-.315.184-.783.68-1.474.74-1.039 1.529-2.08 2.292-3.086.679-.895 1.38-1.82 2.053-2.75l.15-.21c1.313-1.815 2.669-3.693 3.396-5.98.207-.657.423-1.628-.097-2.48-.52-.852-1.484-1.105-2.164-1.22a5.458 5.458 0 0 0-.94-.062l-8.51-.008c-1.471-.024-2.492.673-3.049 2.073-.445 1.119-.97 2.415-1.58 3.645-1.165 2.373-2.646 5.108-4.792 7.386l-.096.101c-.146.156-.384.411-.507.47-.233-.147-.5-.982-.489-1.42v-.032l-.007-9.834c0-.05-.003-.1-.01-.15-.19-1.402-.563-2.808-2.783-3.246a1.112 1.112 0 0 0-.216-.022h-8.852c-1.666 0-2.547.763-3.253 1.59-.204.241-.748.881-.471 1.664.28.791 1.114.95 1.388 1.001.965.183 1.464.728 1.618 1.77.306 2.026.343 4.193.118 6.816-.063.704-.18 1.24-.367 1.685a1.25 1.25 0 0 1-.13.244 1.29 1.29 0 0 1-.24-.135c-.678-.464-1.189-1.185-1.683-1.882-1.973-2.786-3.633-5.863-5.075-9.409-.594-1.453-1.71-2.264-3.141-2.285a212.006 212.006 0 0 0-7.707.003c-1.16.02-1.972.386-2.417 1.085-.445.702-.429 1.596.049 2.658 3.412 7.588 6.51 13.107 10.045 17.897 2.49 3.372 4.995 5.713 7.885 7.367 3.037 1.737 6.462 2.589 10.435 2.589.452 0 .912-.011 1.378-.033 2.451-.112 3.449-1.087 3.558-3.475.06-1.262.2-2.284.688-3.172.136-.249.29-.415.411-.446.13-.032.358.047.612.212.464.302.864.71 1.193 1.07.334.365.67.742.997 1.106a68.089 68.089 0 0 0 2.162 2.345c1.7 1.733 3.66 2.528 5.828 2.361l7.788.004c.025 0 .05-.001.074-.003.899-.06 1.675-.557 2.131-1.364.55-.973.541-2.205-.022-3.297-.588-1.136-1.351-2.113-2.022-2.922zm.102 5.122c-.108.19-.24.224-.308.233l-7.787-.004a.964.964 0 0 0-.093.004c-1.534.128-2.837-.412-4.098-1.697a66.75 66.75 0 0 1-2.092-2.268c-.33-.37-.67-.75-1.013-1.126-.425-.464-.95-.997-1.625-1.435-1.01-.656-1.847-.636-2.372-.504-.518.13-1.256.504-1.822 1.537-.733 1.336-.895 2.778-.96 4.14-.039.833-.18 1.053-.238 1.11-.078.072-.335.201-1.195.24-4.132.195-7.6-.545-10.602-2.263-2.612-1.495-4.9-3.641-7.198-6.755-3.437-4.657-6.461-10.05-9.805-17.487a1.893 1.893 0 0 1-.17-.527 1.9 1.9 0 0 1 .545-.07 210.11 210.11 0 0 1 7.63-.004c.37.005.791.116 1.11.897 1.507 3.704 3.247 6.928 5.32 9.856.551.777 1.237 1.744 2.244 2.433.922.632 1.671.602 2.137.465.466-.136 1.112-.516 1.548-1.547.281-.665.45-1.413.535-2.359.24-2.805.198-5.138-.134-7.339-.234-1.576-1.048-2.715-2.33-3.296.228-.119.484-.168.84-.168h8.737c.492.11.59.24.623.284.141.188.222.633.271.981l.008 9.743c-.02.934.434 3.005 1.98 3.573l.038.013c1.407.46 2.337-.533 2.837-1.067l.09-.095c2.35-2.495 3.934-5.41 5.17-7.93.645-1.301 1.191-2.647 1.653-3.807.23-.582.441-.678.943-.667h.02l8.521.008c.198 0 .405.002.566.03.406.069.573.153.628.188.006.064.004.25-.118.638-.618 1.946-1.813 3.6-3.077 5.35l-.151.209c-.657.909-1.351 1.823-2.022 2.708a131.294 131.294 0 0 0-2.33 3.137c-1.62 2.261-1.478 3.761.544 5.734.477.466.967.93 1.441 1.379 1.343 1.272 2.612 2.474 3.745 3.83.592.715 1.264 1.574 1.754 2.52.256.495.193.942.062 1.175z"/><path d="M8.136 18.554c-.164-.324-.327-.65-.488-.975a1.115 1.115 0 1 0-2 .988c.164.332.33.663.496.993a1.115 1.115 0 1 0 1.992-1.006zm6.996 11.573c-1.829-2.479-3.54-5.17-5.231-8.23a1.116 1.116 0 0 0-1.953 1.08c1.739 3.145 3.502 5.917 5.39 8.475a1.114 1.114 0 0 0 1.56.234c.495-.365.6-1.064.234-1.56z"/></g><defs><clipPath id="ka"><path d="M0 0h56v56H0z"/></clipPath></defs></symbol><symbol viewBox="0 0 55 56" id="youtube" xmlns="http://www.w3.org/2000/svg"><path d="M35.5 25.218l-11.079-5.857a2.772 2.772 0 0 0-2.744.093 2.878 2.878 0 0 0-1.345 2.436v11.754c0 .99.516 1.924 1.349 2.438a2.762 2.762 0 0 0 2.746.088l11.08-5.896a2.848 2.848 0 0 0 1.502-2.53 2.848 2.848 0 0 0-1.509-2.526zm-1.009 3.078l-11.079 5.896a.61.61 0 0 1-.596-.019.625.625 0 0 1-.293-.53V21.89c0-.215.112-.417.292-.529a.601.601 0 0 1 .596-.02l11.08 5.857a.619.619 0 0 1 .327.549.62.62 0 0 1-.327.55z"/><path d="M52.684 11.61C50.545 9.02 46.783 7.964 39.7 7.964H15.301c-7.254 0-11.082 1.125-13.215 3.884C0 14.547 0 18.238 0 23.346v9.309c0 4.195.348 8.482 2.87 11.416 2.328 2.705 6.277 3.965 12.43 3.965h24.4c6.14 0 9.59-.92 11.905-3.176C53.985 42.54 55 38.89 55 32.655v-9.31c0-5.396-.161-9.128-2.316-11.735zm.125 21.045c0 5.568-.813 8.736-2.72 10.593-1.863 1.816-4.873 2.557-10.39 2.557H15.301c-11.217 0-13.11-4.057-13.11-13.15v-9.31c0-4.659 0-8.025 1.617-10.117 1.665-2.154 4.995-3.033 11.493-3.033h24.398c6.36 0 9.636.826 11.309 2.851 1.676 2.028 1.8 5.395 1.8 10.3v9.309z"/><path d="M36.703 42.39h-.986c-.605 0-1.096.5-1.096 1.116 0 .616.491 1.116 1.096 1.116h.986c.605 0 1.096-.5 1.096-1.116 0-.616-.49-1.115-1.096-1.115zm-5.259 0h-17.31c-.606 0-1.096.5-1.096 1.116 0 .616.49 1.116 1.095 1.116h17.311c.605 0 1.096-.5 1.096-1.116 0-.616-.49-1.115-1.096-1.115z"/></symbol></svg>