<?xml version="1.0" encoding="utf-8"?><svg xmlns="http://www.w3.org/2000/svg" xmlns:xlink="http://www.w3.org/1999/xlink"><symbol viewBox="0 0 18 30" id="fb" xmlns="http://www.w3.org/2000/svg"><path d="M8.158 6.79c.777 0 1.407-.63 1.407-1.408a2.57 2.57 0 0 1 2.567-2.566h3.975a1.408 1.408 0 0 0 0-2.816h-3.975A5.388 5.388 0 0 0 6.75 5.382c0 .777.63 1.408 1.408 1.408zm7.648 4.403H1.408a1.408 1.408 0 0 0 0 2.815H6.75v14.584a1.408 1.408 0 0 0 2.816 0V14.008h6.24a1.408 1.408 0 1 0 0-2.815z"/></symbol><symbol viewBox="0 0 30 30" id="github" xmlns="http://www.w3.org/2000/svg"><path d="M15 0C6.756 0 0 6.814 0 15.059 0 23.255 6.694 30 15 30c8.295 0 15-6.735 15-14.941C30 6.815 23.244 0 15 0zm2.637 27.979c-.844.175-1.74.263-2.637.263-.896 0-1.793-.088-2.637-.264v-4.113c0-.984.264-1.336.616-1.81.179-.205.287-.389 1.09-1.6l-1.354-.21c-3.48-.51-4.852-2.321-5.397-3.728-.703-1.88-.334-4.236.932-5.73.193-.229.352-.615.211-1.02-.264-.808-.229-2.091-.053-2.584.932.134 1.89.801 2.69 1.284.368.215.561.158.738.176.642-.134 1.644-.458 3.182-.458.949 0 1.95.141 2.935.422.176-.004.46.146.95-.14.835-.51 1.76-1.154 2.689-1.284.176.493.21 1.776-.053 2.585-.14.404.017.79.211 1.02 1.266 1.493 1.635 3.849.932 5.73-.545 1.406-1.916 3.216-5.397 3.726l-1.353.211c.83 1.252.917 1.402 1.09 1.6.351.474.615.826.615 1.81v4.114zm1.758-.51v-3.604c0-1.002-.212-1.67-.493-2.162 2.672-.72 4.57-2.303 5.414-4.57.897-2.39.493-5.238-1.002-7.207.264-1.178.264-3.059-.369-3.938a1.372 1.372 0 0 0-1.16-.597h-.017c-1.363.073-2.436.76-3.586 1.459a12.142 12.142 0 0 0-6.345 0c-1.212-.73-2.274-1.388-3.675-1.46-.44 0-.826.212-1.107.598-.633.88-.633 2.76-.37 3.938-1.494 1.969-1.898 4.834-1.001 7.207.843 2.267 2.742 3.85 5.414 4.57-.218.382-.39.874-.459 1.54-.54.186-1.008.247-1.443.119-.46-.136-.817-.442-1.128-.965-.698-1.173-1.887-2.13-3.24-2.006l.154 1.751c.627-.057 1.25.606 1.575 1.153.534.9 1.255 1.49 2.141 1.753.658.194 1.26.189 1.907.05v2.37c-5.115-1.792-8.847-6.679-8.847-12.41 0-7.277 5.965-13.3 13.242-13.3 7.277 0 13.242 6.023 13.242 13.3 0 5.731-3.732 10.618-8.848 12.41z"/></symbol><symbol viewBox="0 0 30 30" id="instagram" xmlns="http://www.w3.org/2000/svg"><path d="M21.72 0H8.28C3.714 0 0 3.714 0 8.279V21.72C0 26.286 3.714 30 8.279 30H21.72c4.566 0 8.28-3.714 8.28-8.279V8.28C30 3.714 26.286 0 21.72 0zm5.618 21.721a5.624 5.624 0 0 1-5.617 5.617H8.28a5.623 5.623 0 0 1-5.617-5.617V8.28A5.624 5.624 0 0 1 8.28 2.663h13.44a5.624 5.624 0 0 1 5.617 5.617v13.44z"/><path d="M15 7.27c-4.262 0-7.73 3.468-7.73 7.73 0 4.263 3.468 7.73 7.73 7.73 4.262 0 7.73-3.467 7.73-7.73 0-4.262-3.468-7.73-7.73-7.73zm0 12.798A5.074 5.074 0 0 1 9.932 15 5.074 5.074 0 0 1 15 9.932 5.074 5.074 0 0 1 20.069 15 5.074 5.074 0 0 1 15 20.068zm8.055-15.055a1.96 1.96 0 0 0-1.38.572 1.962 1.962 0 0 0-.573 1.38c0 .513.21 1.017.574 1.38.362.363.866.572 1.379.572a1.97 1.97 0 0 0 1.38-.571c.364-.364.571-.868.571-1.38a1.96 1.96 0 0 0-.571-1.381 1.96 1.96 0 0 0-1.38-.572z"/></symbol><symbol viewBox="0 0 231 82" id="logo" xmlns="http://www.w3.org/2000/svg"><path d="M54.098 14.231a1.16 1.16 0 0 1-.41.69c-.21.167-.44.25-.692.25-.378 0-.682-.114-.913-.344a1.218 1.218 0 0 1-.347-.847c0-.313.032-.616.095-.909.063-.313.094-.616.094-.909 0-1.525-.472-2.894-1.417-4.106-.944-1.212-2.288-2.226-4.03-3.04-1.722-.837-3.821-1.474-6.298-1.913-2.477-.439-5.238-.658-8.282-.658-2.33 0-4.681.156-7.054.47a50.183 50.183 0 0 0-6.801 1.316 35.922 35.922 0 0 0-6.078 2.163c-1.89.857-3.537 1.86-4.944 3.01-1.385 1.128-2.477 2.392-3.275 3.793-.797 1.379-1.196 2.894-1.196 4.545 0 1.275.273 2.403.818 3.385.567.962 1.333 1.808 2.3 2.54.965.71 2.098 1.326 3.4 1.849 1.323.501 2.75.93 4.283 1.285 1.532.334 3.128.617 4.786.846 1.659.21 3.327.387 5.007.533l4.85.408c2.413.209 4.576.428 6.486.658 1.91.23 3.59.523 5.039.878 2.414.606 4.198 1.473 5.353 2.602 1.154 1.128 1.732 2.633 1.732 4.514 0 1.818-.504 3.416-1.512 4.796-1.008 1.379-2.383 2.539-4.125 3.48-1.742.94-3.779 1.65-6.109 2.13-2.33.481-4.828.722-7.494.722-2.898 0-5.448-.199-7.652-.596-2.184-.376-4.02-.794-5.511-1.254-1.47-.48-2.593-.92-3.37-1.316a36.047 36.047 0 0 1-1.26-.659c-.377-.209-.566-.543-.566-1.003 0-.355.126-.637.378-.846.252-.23.525-.345.819-.345.23 0 .44.063.63.188.02 0 .377.188 1.07.564.714.356 1.764.753 3.15 1.192 1.406.438 3.137.836 5.195 1.19 2.057.356 4.45.534 7.18.534 2.708 0 5.1-.22 7.18-.659 2.077-.438 3.82-1.044 5.226-1.818 1.428-.794 2.499-1.713 3.212-2.758.735-1.066 1.102-2.215 1.102-3.448 0-.732-.136-1.359-.409-1.881a3.837 3.837 0 0 0-1.07-1.38 6.202 6.202 0 0 0-1.67-1.003 13.45 13.45 0 0 0-2.078-.69 26.67 26.67 0 0 0-2.582-.532 53.414 53.414 0 0 0-2.803-.376 120.14 120.14 0 0 0-2.928-.282l-2.866-.251-4.849-.408c-3.82-.313-7.159-.794-10.014-1.442-2.834-.668-5.196-1.515-7.085-2.539-1.89-1.045-3.306-2.288-4.251-3.73C.597 21.378.125 19.696.125 17.773c0-1.964.44-3.761 1.323-5.391C2.35 10.73 3.568 9.247 5.1 7.93c1.554-1.316 3.36-2.455 5.417-3.416a41.011 41.011 0 0 1 6.644-2.446A51.325 51.325 0 0 1 24.466.627a56.443 56.443 0 0 1 7.432-.502c3.044 0 5.69.188 7.935.564 2.268.356 4.199.826 5.794 1.41 1.617.565 2.94 1.213 3.968 1.944 1.029.732 1.858 1.453 2.488 2.163 1.49 1.735 2.236 3.71 2.236 5.925 0 .731-.074 1.431-.22 2.1zm4.314 30.124c.315-.627.714-1.4 1.197-2.32.504-.94 1.018-1.88 1.543-2.82.546-.941 1.07-1.83 1.574-2.665.525-.836.966-1.473 1.323-1.912.609-.732 1.238-1.254 1.89-1.568.65-.313 1.248-.47 1.794-.47s1.008.115 1.386.345c.399.23.724.543.976.94.252.377.44.826.567 1.348.126.502.189 1.045.189 1.63 0 .335-.021.774-.063 1.317a62.466 62.466 0 0 1-.095 1.755 66.618 66.618 0 0 1-.094 1.944c-.021.669-.042 1.296-.063 1.88.315-.626.671-1.316 1.07-2.068.4-.773.798-1.536 1.197-2.288.42-.753.819-1.453 1.197-2.1a15.15 15.15 0 0 1 1.039-1.63c.903-1.234 1.742-2.06 2.519-2.477.798-.418 1.5-.627 2.11-.627.713 0 1.301.136 1.763.407.462.251.819.586 1.07 1.004.274.397.463.846.568 1.347.105.502.157.983.157 1.442 0 .71-.052 1.453-.157 2.226-.105.773-.158 1.693-.158 2.759 0 .438.021.877.063 1.316.042.439.126.825.252 1.16.147.334.367.606.661.815.294.209.693.313 1.197.313.546 0 1.081-.136 1.606-.407a7.483 7.483 0 0 0 1.511-1.129c.483-.46.935-.982 1.355-1.567.44-.585.84-1.17 1.196-1.755.357-.586.672-1.14.945-1.662a34.33 34.33 0 0 0 .661-1.379 1.24 1.24 0 0 1 .44-.533c.19-.125.4-.188.63-.188.358 0 .641.136.85.407.232.251.347.523.347.816 0 .146-.031.292-.094.438a51.37 51.37 0 0 0-.504 1.066 21.726 21.726 0 0 1-1.008 1.818c-.42.669-.913 1.38-1.48 2.132a15.81 15.81 0 0 1-1.826 2.1 10.402 10.402 0 0 1-2.173 1.567 5.324 5.324 0 0 1-2.456.596c-.924 0-1.68-.167-2.267-.502a3.884 3.884 0 0 1-1.386-1.285 5.298 5.298 0 0 1-.693-1.88 12.73 12.73 0 0 1-.189-2.226c0-1.024.053-1.965.158-2.821.105-.878.157-1.557.157-2.038 0-.522-.052-.92-.157-1.191-.084-.272-.2-.46-.346-.564-.127-.126-.252-.188-.378-.188a1.903 1.903 0 0 0-.284-.032c-.504 0-1.039.282-1.606.847-.546.543-1.112 1.274-1.7 2.194a48.688 48.688 0 0 0-1.827 3.135L72.708 44.7a63.516 63.516 0 0 1-.913 1.661c-.23.44-.462.784-.692 1.035-.21.25-.42.428-.63.533a1.54 1.54 0 0 1-.693.157c-.546 0-.966-.189-1.26-.565-.272-.376-.409-.867-.409-1.473 0-.314.01-.731.031-1.254.022-.522.043-1.097.064-1.724.02-.627.052-1.275.094-1.944.042-.668.074-1.306.094-1.912.021-.627.042-1.18.063-1.661.021-.48.032-.846.032-1.097 0-.544-.095-.93-.284-1.16-.188-.25-.409-.376-.66-.376-.232 0-.494.084-.788.25-.273.168-.598.492-.976.972-.294.377-.672.93-1.134 1.662a81.56 81.56 0 0 0-1.417 2.382c-.504.878-1.008 1.776-1.511 2.696-.483.92-.903 1.745-1.26 2.476-.44.878-.882 1.474-1.323 1.787-.44.334-.87.502-1.29.502-.61 0-1.06-.178-1.355-.533-.294-.376-.44-.867-.44-1.473 0-.063.01-.44.031-1.129.042-.69.084-1.526.126-2.508.042-1.003.084-2.069.126-3.197a244.3 244.3 0 0 0 .157-3.166c.021-.523 0-1.003-.063-1.442-.063-.439-.147-.7-.252-.784-.168.042-.503.429-1.007 1.16-.483.731-1.102 2.006-1.858 3.824a1.17 1.17 0 0 1-.472.533 1.27 1.27 0 0 1-.662.188c-.357 0-.64-.115-.85-.344a1.284 1.284 0 0 1-.315-.847c0-.146.032-.303.095-.47.944-2.236 1.847-3.877 2.708-4.922.86-1.065 1.7-1.598 2.519-1.598.483 0 .882.115 1.197.345.335.209.598.49.787.846.189.334.325.721.41 1.16.083.439.125.867.125 1.285 0 1.86-.052 3.563-.157 5.11a368.812 368.812 0 0 1-.284 4.67z"/><path d="M116.731 38.4l-.535 1.065a21.739 21.739 0 0 1-1.008 1.818 25.18 25.18 0 0 1-1.417 2.163 14.398 14.398 0 0 1-1.826 2.07 10.404 10.404 0 0 1-2.173 1.566 5.326 5.326 0 0 1-2.456.596c-1.218 0-2.247-.387-3.086-1.16-.819-.773-1.417-1.745-1.795-2.915-.714 1.191-1.564 2.142-2.551 2.852-.987.69-1.973 1.035-2.96 1.035-.777 0-1.48-.136-2.11-.408a4.805 4.805 0 0 1-1.606-1.19 5.964 5.964 0 0 1-1.039-1.819 7.07 7.07 0 0 1-.346-2.257c0-1.63.273-3.061.818-4.294.567-1.254 1.281-2.3 2.142-3.135.86-.836 1.805-1.463 2.834-1.88 1.05-.419 2.057-.628 3.023-.628a5.48 5.48 0 0 1 1.795.282 7.286 7.286 0 0 1 1.385.565c.399.209.704.407.913.595.21.167.326.261.347.282.231.272.346.554.346.847 0 .313-.115.595-.346.846-.231.23-.504.345-.819.345-.336 0-.619-.115-.85-.345a2.755 2.755 0 0 0-.284-.22 2.932 2.932 0 0 0-.598-.376 4.214 4.214 0 0 0-.913-.313 3.927 3.927 0 0 0-1.165-.157c-.65 0-1.344.147-2.078.44-.735.292-1.407.751-2.016 1.378-.609.606-1.123 1.38-1.543 2.32-.399.92-.598 2.017-.598 3.291 0 .398.042.805.126 1.223.084.397.23.763.44 1.097.21.334.494.606.85.815.358.21.799.314 1.323.314.378 0 .809-.126 1.292-.377.503-.25.976-.637 1.417-1.16.461-.522.871-1.18 1.228-1.974.378-.794.64-1.735.787-2.822a1.1 1.1 0 0 1 .409-.72 1.18 1.18 0 0 1 .819-.314c.294 0 .546.115.756.345.231.23.357.491.378.784.021.397.063.96.126 1.692.063.71.199 1.421.409 2.132a5.45 5.45 0 0 0 1.008 1.85c.441.522 1.049.783 1.826.783.504 0 .997-.136 1.48-.407a6.784 6.784 0 0 0 1.449-1.066 12.1 12.1 0 0 0 1.354-1.536c.44-.585.839-1.17 1.196-1.756.357-.585.672-1.15.945-1.692.273-.544.504-1.014.693-1.411.105-.23.252-.408.441-.533a1.27 1.27 0 0 1 .661-.188c.357 0 .64.136.85.407.231.251.346.523.346.816 0 .146-.031.292-.094.438z"/><path d="M117.865 34.262a16.596 16.596 0 0 1-.315 1.598c-.126.48-.252.91-.378 1.285-.105.356-.2.648-.284.878-.084.23-.136.355-.157.376-.21.481-.577.721-1.102.721-.294 0-.567-.104-.819-.313a1.101 1.101 0 0 1-.378-.846.51.51 0 0 1 .063-.283c.042-.062.105-.188.189-.376s.189-.501.315-.94c.126-.439.283-1.118.472-2.038-.356 0-.724-.01-1.102-.031a3.28 3.28 0 0 1-1.039-.22 1.812 1.812 0 0 1-.819-.595c-.21-.272-.315-.648-.315-1.129 0-.355.105-.835.315-1.441a8.92 8.92 0 0 1 .788-1.787 7.045 7.045 0 0 1 1.133-1.505c.42-.439.84-.658 1.26-.658.483 0 .871.177 1.165.533.315.355.556.794.724 1.316.168.502.284 1.035.347 1.599.084.564.126 1.055.126 1.473h1.039c.357-.02.692-.031 1.007-.031 1.197 0 2.11.261 2.74.784.63.522.945 1.379.945 2.57 0 .48-.032.982-.095 1.505a59.278 59.278 0 0 1-.22 1.63 43.345 43.345 0 0 0-.221 1.63 13.875 13.875 0 0 0-.094 1.598c0 .753.105 1.38.315 1.881.21.48.472.867.787 1.16a2.89 2.89 0 0 0 1.008.627 3.5 3.5 0 0 0 .976.157c.903 0 1.753-.293 2.55-.878a12.243 12.243 0 0 0 2.205-2.1 20.116 20.116 0 0 0 1.795-2.633 49.24 49.24 0 0 0 1.354-2.414c.105-.188.252-.334.441-.439.189-.104.388-.157.598-.157.378 0 .672.126.882.377.21.23.314.49.314.783 0 .21-.041.397-.125.564a129.34 129.34 0 0 1-1.701 2.916 20.306 20.306 0 0 1-2.173 3.009 12.451 12.451 0 0 1-2.771 2.382 6.044 6.044 0 0 1-3.338.972 5.306 5.306 0 0 1-2.141-.439 5.046 5.046 0 0 1-1.763-1.191c-.483-.543-.872-1.202-1.166-1.975-.293-.794-.44-1.682-.44-2.664 0-1.045.105-2.08.315-3.104.209-1.044.314-2.037.314-2.978 0-.397-.094-.69-.283-.877-.168-.21-.556-.314-1.165-.314h-.976c-.336 0-.704.01-1.102.032zm-2.11-2.32a6.48 6.48 0 0 0-.032-.564c0-.251-.021-.491-.063-.721a2.286 2.286 0 0 0-.126-.596c-.042-.167-.094-.25-.157-.25s-.147.083-.252.25a7.034 7.034 0 0 0-.283.564c-.105.21-.2.44-.284.69-.084.25-.147.46-.189.627h1.386z"/><path d="M145.544 50.217c3.947-5.12 6.686-9.373 8.219-12.758.105-.23.241-.397.409-.502.189-.125.399-.188.63-.188.357 0 .651.126.882.377a1.111 1.111 0 0 1 .252 1.253c-.924 2.09-2.236 4.42-3.937 6.99-1.7 2.571-3.852 5.476-6.455 8.715 0 1.317.01 2.633.031 3.95.021 1.316.032 2.758.032 4.326a84.38 84.38 0 0 1-.126 4.639 46.227 46.227 0 0 1-.378 4.388 27.165 27.165 0 0 1-.787 3.856c-.315 1.191-.735 2.215-1.26 3.072-.504.878-1.123 1.557-1.858 2.038-.713.501-1.564.752-2.55.752-1.407 0-2.488-.533-3.244-1.599-.755-1.066-1.133-2.58-1.133-4.545 0-1.045.094-2.184.283-3.417.21-1.212.504-2.466.882-3.761a46.328 46.328 0 0 1 1.354-3.95 49.6 49.6 0 0 1 1.795-3.856 40.58 40.58 0 0 1 2.11-3.605 27.021 27.021 0 0 1 2.456-3.134c.021-1.463.031-2.916.031-4.358.021-1.441.053-2.768.095-3.98a6.997 6.997 0 0 1-2.268 1.88c-.86.46-1.721.69-2.582.69a4.891 4.891 0 0 1-2.015-.408 4.656 4.656 0 0 1-1.512-1.19 5.844 5.844 0 0 1-.976-1.819 7.066 7.066 0 0 1-.346-2.257c0-1.63.273-3.061.819-4.294.566-1.254 1.28-2.3 2.141-3.135.861-.836 1.805-1.463 2.834-1.88 1.05-.419 2.057-.628 3.023-.628.651 0 1.249.084 1.795.251a7.258 7.258 0 0 1 1.385.564c.399.21.704.408.914.596.21.188.325.292.346.313.231.251.346.533.346.847 0 .313-.115.595-.346.846-.231.23-.504.345-.819.345-.294 0-.577-.115-.85-.345a19.106 19.106 0 0 0-.346-.25 2.358 2.358 0 0 0-.536-.377 3.074 3.074 0 0 0-.787-.313 3.96 3.96 0 0 0-1.071-.126c-.629 0-1.322.147-2.078.44-.756.27-1.459.71-2.11 1.316-.65.606-1.196 1.39-1.637 2.35-.441.941-.661 2.08-.661 3.418 0 1.003.22 1.818.661 2.445.441.606 1.123.909 2.047.909.441 0 .902-.126 1.385-.377.504-.25.987-.637 1.449-1.16.462-.522.861-1.18 1.196-1.974.357-.794.609-1.735.756-2.822.042-.292.179-.532.41-.72.23-.21.503-.314.818-.314.357 0 .63.126.819.376.21.251.315.533.315.847l-.032.971c-.021.606-.042 1.421-.063 2.445a347.366 347.366 0 0 1-.094 3.574c-.021 1.337-.042 2.758-.063 4.263zm-2.393 6.865a31.754 31.754 0 0 0-2.677 4.42 41.974 41.974 0 0 0-2.047 4.859 37.53 37.53 0 0 0-1.322 4.733c-.294 1.547-.441 2.926-.441 4.138 0 .773.063 1.39.189 1.85.147.459.315.814.504 1.065.21.25.43.418.661.502.252.083.483.125.693.125.65 0 1.217-.261 1.7-.784.483-.522.892-1.222 1.228-2.1.336-.857.609-1.85.819-2.978a36.33 36.33 0 0 0 .472-3.51c.105-1.192.179-2.383.221-3.574.042-1.191.063-2.289.063-3.292v-2.695c0-.899-.021-1.819-.063-2.759z"/><path d="M157.573 43.697a5.053 5.053 0 0 0 1.7 1.473c.693.355 1.543.533 2.551.533 1.029 0 1.963-.24 2.803-.72a9.54 9.54 0 0 0 2.298-1.944 15.454 15.454 0 0 0 1.858-2.665 38.64 38.64 0 0 0 1.48-2.946c.105-.23.252-.397.441-.502.189-.125.399-.188.63-.188.357 0 .64.125.85.376.231.25.347.523.347.815 0 .105-.011.199-.032.282a1.705 1.705 0 0 1-.094.22c-1.449 3.176-3.034 5.569-4.755 7.178-1.701 1.61-3.632 2.435-5.794 2.477-1.386 0-2.583-.272-3.59-.816-1.008-.522-1.837-1.201-2.488-2.037a8.862 8.862 0 0 1-1.448-2.884 11.233 11.233 0 0 1-.473-3.197c0-1.066.126-2.048.378-2.947.273-.898.651-1.682 1.134-2.35a5.675 5.675 0 0 1 1.763-1.568 4.676 4.676 0 0 1 2.267-.564 3.4 3.4 0 0 1 1.417.313c.483.188.914.47 1.291.846a4 4 0 0 1 .914 1.317c.231.522.346 1.118.346 1.787 0 .857-.147 1.661-.441 2.413a7.87 7.87 0 0 1-1.228 2.1 9.89 9.89 0 0 1-1.826 1.787 13.542 13.542 0 0 1-2.299 1.411zm-.945-2.038a7.37 7.37 0 0 0 1.764-1.034 7.193 7.193 0 0 0 1.385-1.38 6.488 6.488 0 0 0 .882-1.567 4.82 4.82 0 0 0 .315-1.692c0-.627-.158-1.097-.472-1.41-.315-.335-.683-.502-1.103-.502-.566 0-1.049.156-1.448.47a3.554 3.554 0 0 0-.976 1.222 6.69 6.69 0 0 0-.567 1.693 10.632 10.632 0 0 0-.158 1.818c0 .376.032.773.095 1.191.084.418.178.815.283 1.191z"/><path d="M188.212 38.462c-.231.48-.524 1.055-.881 1.724a30.988 30.988 0 0 1-1.165 2.038c-.441.71-.935 1.42-1.48 2.131a13.96 13.96 0 0 1-1.795 1.881 8.532 8.532 0 0 1-2.047 1.317 5.089 5.089 0 0 1-2.299.533c-1.26 0-2.341-.387-3.243-1.16-.903-.773-1.669-1.787-2.299-3.04-.63-1.255-1.144-2.676-1.543-4.264a47.675 47.675 0 0 1-.882-4.89 68.373 68.373 0 0 1-.441-4.859 105.024 105.024 0 0 1-.094-4.17c0-1.755.052-3.573.157-5.453.126-1.881.315-3.72.567-5.517.252-1.798.567-3.5.945-5.11.399-1.61.861-3.02 1.385-4.232.546-1.212 1.165-2.173 1.858-2.884.693-.71 1.48-1.065 2.362-1.065.693 0 1.312.167 1.858.501.567.314 1.039.836 1.417 1.567.378.732.672 1.683.882 2.853.21 1.17.314 2.602.314 4.295 0 2.09-.22 4.252-.661 6.488a54.814 54.814 0 0 1-1.795 6.709 69.632 69.632 0 0 1-2.676 6.77 100.71 100.71 0 0 1-3.307 6.552c.525 2.654 1.228 4.744 2.11 6.27.882 1.504 1.942 2.256 3.181 2.256.839 0 1.647-.324 2.424-.972a13.638 13.638 0 0 0 2.142-2.35 22.555 22.555 0 0 0 1.7-2.728c.504-.94.892-1.692 1.165-2.257a1.07 1.07 0 0 1 .441-.47c.189-.125.399-.188.63-.188.357 0 .64.125.85.376.231.25.346.533.346.847 0 .125-.042.292-.126.501zm-15.776-12.601c0 1.337.032 2.622.095 3.855s.146 2.414.251 3.542a71.735 71.735 0 0 0 2.52-5.391 68.731 68.731 0 0 0 2.109-5.8 51.347 51.347 0 0 0 1.449-5.83c.378-1.943.567-3.793.567-5.548 0-2.466-.2-4.232-.599-5.298-.398-1.066-.934-1.598-1.606-1.598-.44 0-.871.303-1.291.909-.398.606-.776 1.431-1.133 2.476s-.682 2.278-.976 3.699a61.299 61.299 0 0 0-.756 4.577c-.189 1.63-.347 3.333-.472 5.11a89.764 89.764 0 0 0-.158 5.297z"/><path d="M200.619 43.697c-.525 0-.986-.042-1.385-.125a9.657 9.657 0 0 1-1.134 1.755 7.493 7.493 0 0 1-1.543 1.38 7.14 7.14 0 0 1-1.921.94c-.714.23-1.49.345-2.33.345-.987 0-1.889-.178-2.708-.533a6.454 6.454 0 0 1-2.141-1.411 6.609 6.609 0 0 1-1.417-2.226c-.336-.877-.504-1.839-.504-2.884 0-1.337.241-2.497.724-3.479.483-1.003 1.039-1.829 1.669-2.476.63-.67 1.26-1.16 1.889-1.474.63-.334 1.102-.501 1.417-.501.357 0 .62.094.788.282.189.188.283.439.283.752 0 .355-.115.627-.346.815-.21.167-.483.335-.819.502a5.672 5.672 0 0 0-1.071.72 5.532 5.532 0 0 0-1.07 1.13 6.552 6.552 0 0 0-.788 1.63c-.21.626-.315 1.326-.315 2.1 0 .69.105 1.337.315 1.943.21.585.515 1.097.914 1.536a4.57 4.57 0 0 0 1.417 1.003c.545.23 1.154.345 1.826.345 1.197 0 2.183-.272 2.96-.815a5.582 5.582 0 0 0 1.826-2.132 8.218 8.218 0 0 1-3.054-2.758c-.798-1.191-1.197-2.529-1.197-4.013 0-1.19.284-2.163.851-2.915.587-.752 1.354-1.128 2.298-1.128.567 0 1.102.136 1.606.407.504.272.945.7 1.323 1.285.399.585.714 1.338.944 2.257.231.92.347 2.017.347 3.292 0 .668-.084 1.369-.252 2.1.126.02.252.031.378.031h.409c.714 0 1.354-.083 1.921-.25a5.038 5.038 0 0 0 1.543-.753 5.15 5.15 0 0 0 1.228-1.285 12.26 12.26 0 0 0 1.071-1.818c.063-.126.199-.24.409-.345.21-.125.42-.188.63-.188.273 0 .525.115.756.345.252.209.378.49.378.846 0 .167-.042.355-.126.564-.084.188-.168.366-.252.533a12.821 12.821 0 0 1-1.26 1.818 7.7 7.7 0 0 1-1.669 1.505 8.407 8.407 0 0 1-2.141 1.003c-.798.25-1.69.366-2.677.345zm-5.384-7.9c0 .398.052.816.157 1.255.105.438.262.877.472 1.316.231.418.504.825.819 1.223.336.376.724.7 1.165.971a9.03 9.03 0 0 0 .095-1.285c0-.564-.042-1.139-.126-1.724a8.513 8.513 0 0 0-.378-1.599c-.147-.501-.336-.898-.567-1.19-.231-.314-.504-.471-.819-.471-.126 0-.294.094-.504.282-.209.188-.314.596-.314 1.223z"/><path d="M219.261 37.27a19.641 19.641 0 0 1-1.354 4.107c-.588 1.254-1.218 2.351-1.889 3.292-.651.94-1.312 1.682-1.984 2.225-.672.544-1.249.836-1.732.878-.546 0-1.155-.272-1.827-.815-.65-.543-1.28-1.296-1.889-2.257-.588-.982-1.081-2.142-1.48-3.48-.399-1.337-.598-2.79-.598-4.357 0-1.379.115-2.424.346-3.134.252-.71.41-1.118.473-1.223.105-.188.241-.334.409-.439a1.28 1.28 0 0 1 .63-.156c.357 0 .64.125.85.376.21.23.315.49.315.783 0 .21-.042.387-.126.533-.021.042-.116.324-.284.847-.167.522-.251 1.306-.251 2.35 0 1.234.125 2.373.377 3.418.252 1.044.557 1.943.914 2.695.356.753.724 1.348 1.102 1.787.399.418.724.627.976.627.168 0 .409-.157.724-.47.336-.314.682-.742 1.039-1.285.378-.544.756-1.192 1.134-1.944.399-.752.756-1.567 1.071-2.445.335-.899.598-1.839.787-2.821a14.8 14.8 0 0 0 .315-3.04c0-.21-.011-.408-.032-.596v-.627c0-.356.105-.648.315-.878.231-.25.525-.376.882-.376.273 0 .514.083.724.25.231.168.378.398.441.69 0-.02.042.146.126.502.084.355.22.815.409 1.379.21.543.462 1.139.756 1.787.315.648.682 1.254 1.102 1.818a6.74 6.74 0 0 0 1.512 1.38c.566.375 1.217.563 1.952.563.399 0 .745-.083 1.039-.25.294-.168.536-.356.724-.565.189-.209.326-.407.41-.595.105-.188.157-.293.157-.314.084-.23.221-.407.41-.533.21-.146.44-.219.692-.219.336 0 .62.125.851.376a1.111 1.111 0 0 1 .252 1.254 6.415 6.415 0 0 1-.567 1.003 4.773 4.773 0 0 1-.913 1.066c-.378.334-.83.616-1.355.846-.503.21-1.07.314-1.7.314a5.483 5.483 0 0 1-2.047-.376 8.316 8.316 0 0 1-1.732-1.003 10.769 10.769 0 0 1-1.385-1.38 11.557 11.557 0 0 1-1.071-1.567z"/></symbol><symbol viewBox="0 0 30 27" id="telegram" xmlns="http://www.w3.org/2000/svg"><path d="M24.15 26.834a1.2 1.2 0 0 1-.666-.204l-7.543-5.117-4.046 2.911a1.19 1.19 0 0 1-1.842-.66l-2.031-7.7L.763 13.29a1.188 1.188 0 0 1-.015-2.213L28.348.094a1.189 1.189 0 0 1 1.628 1.332l-4.659 24.443a1.187 1.187 0 0 1-1.166.965zm-7.547-7.742l6.72 4.558 3.624-19.02-13.092 12.598 2.717 1.843a.65.65 0 0 1 .031.021zM11.01 18.08l.9 3.409 1.938-1.395-2.538-1.722a1.184 1.184 0 0 1-.3-.292zm-6.555-5.921l4.984 1.905c.357.137.627.437.724.806l.632 2.396c.03-.276.154-.536.358-.732L23.628 4.529 4.455 12.158z"/></symbol><symbol viewBox="0 0 30 25" id="twitter" xmlns="http://www.w3.org/2000/svg"><path d="M29.798 3.508a1.133 1.133 0 0 0-1.576-.284l-3.515 2.439a1.13 1.13 0 0 0-.486.98c.01.232.015.45.015.666 0 7.186-5.468 14.619-14.618 14.619a14.56 14.56 0 0 1-5.41-1.04l5.425-1.518a1.132 1.132 0 0 0-.61-2.18L.827 19.482a1.132 1.132 0 0 0-.306 2.044 16.824 16.824 0 0 0 9.097 2.666c6.349 0 10.325-3 12.543-5.515 2.758-3.13 4.34-7.272 4.34-11.367v-.135l3.012-2.09a1.133 1.133 0 0 0 .285-1.577zM2.499 3.155l11.41 5.784a1.13 1.13 0 0 0 1.21-.119 1.13 1.13 0 0 0 .404-1.147 4.408 4.408 0 0 1 4.29-5.409c1.214 0 2.386.507 3.215 1.39.31.331.787.445 1.212.29l3.522-1.28a1.132 1.132 0 0 0-.773-2.127l-2.866 1.04A6.701 6.701 0 0 0 19.813 0a6.676 6.676 0 0 0-6.637 6.029L3.523 1.136a1.132 1.132 0 1 0-1.024 2.02zm-.584 6.78l2.507.692a1.13 1.13 0 0 0 1.393-.79 1.132 1.132 0 0 0-.79-1.393l-2.507-.692a1.132 1.132 0 0 0-.603 2.183zm2.198 3.37a1.132 1.132 0 1 0 .086 2.263l2.5-.095a1.132 1.132 0 0 0-.085-2.263l-2.5.095z"/></symbol><symbol viewBox="0 0 30 22" id="youtube" xmlns="http://www.w3.org/2000/svg"><path d="M24.763 0H5.237A5.243 5.243 0 0 0 0 5.238v11.167a5.243 5.243 0 0 0 5.237 5.238h19.527A5.243 5.243 0 0 0 30 16.405V5.238A5.243 5.243 0 0 0 24.763 0zm3.09 16.405a3.094 3.094 0 0 1-3.09 3.092H5.237a3.094 3.094 0 0 1-3.09-3.092V5.238a3.094 3.094 0 0 1 3.09-3.092h19.527a3.094 3.094 0 0 1 3.09 3.092v11.167z"/><path d="M20.76 9.925l-7.955-5.244a1.073 1.073 0 0 0-1.663.896v10.49a1.074 1.074 0 0 0 1.663.895l7.955-5.245a1.073 1.073 0 0 0 0-1.792zm-7.472 4.148V7.57l4.932 3.25-4.932 3.253z"/></symbol></svg>