<?xml version="1.0" encoding="utf-8"?><svg xmlns="http://www.w3.org/2000/svg" xmlns:xlink="http://www.w3.org/1999/xlink"><symbol viewBox="0 0 30 60" id="facebook" xmlns="http://www.w3.org/2000/svg"><path d="M18.75 20.625v-7.5c0-2.07 1.68-3.75 3.75-3.75h3.75V0h-7.5C12.536 0 7.5 5.036 7.5 11.25v9.375H0V30h7.5v30h11.25V30h7.5L30 20.625H18.75z" fill="#787878"/></symbol><symbol viewBox="0 0 60 60" id="instagram" xmlns="http://www.w3.org/2000/svg"><g fill="#787878"><path d="M41.25 0h-22.5C8.396 0 0 8.396 0 18.75v22.5C0 51.604 8.396 60 18.75 60h22.5C51.604 60 60 51.604 60 41.25v-22.5C60 8.396 51.604 0 41.25 0zm13.125 41.25c0 7.237-5.888 13.125-13.125 13.125h-22.5c-7.238 0-13.125-5.888-13.125-13.125v-22.5c0-7.238 5.887-13.125 13.125-13.125h22.5c7.237 0 13.125 5.887 13.125 13.125v22.5z"/><path d="M30 15c-8.284 0-15 6.716-15 15 0 8.284 6.716 15 15 15 8.284 0 15-6.716 15-15 0-8.284-6.716-15-15-15zm0 24.375c-5.168 0-9.375-4.208-9.375-9.375 0-5.171 4.207-9.375 9.375-9.375 5.167 0 9.375 4.204 9.375 9.375 0 5.167-4.208 9.375-9.375 9.375z"/><circle cx="46.125" cy="13.875" r="1.999"/></g></symbol><symbol viewBox="0 0 127 84" id="logo" xmlns="http://www.w3.org/2000/svg"><path d="M75.964 69.332c2.59-.79 4.76.97 5.28 2.89.73 2.73-1.03 4.709-2.94 5.239-5.36 1.49-7.69-6.51-2.34-8.13zm5.64-48.924c1.33-.71 2.25-1.4 3.08-2.31.42-.46.86-.87 1.22-1.46.22-.36.36-.59.53-.9.08-.17.16-.33.26-.49.15-.24.12-.2.25-.35 4.669 0 9.518.28 14.188.42 5.3.15 5.63 2.77 7.61 6.79 1.61 3.259 3.03 6.359 4.77 9.598 3.429 6.38 5.509 9.959 2.449 16.248l-7.13 14.409c-2.11 4.32-2.46 6.889-7.509 6.869-4.82-.01-9.63.01-14.439 0-.76-2.14-3.09-4.65-5.14-5.38l-.14-43.444zM41.447 6.439c5.49-1.03 6.99 7.28 1.63 8.32-5.51 1.08-7.26-7.27-1.63-8.32zm34.247.43c5.5-1.88 7.77 6.38 2.7 8-5.35 1.719-8.08-6.16-2.7-8zm-42.947 8.49c1.68 3.499 6.27 6.948 11.98 5.559 10.749-2.63 10.669-17.938.12-20.588-2.78-.7-5.46-.24-7.69.96-2.25 1.21-3.17 2.46-4.54 4.62-8.189.22-14.108-1.48-19.348 5.989-1.67 2.39-6.81 13.098-8.63 16.698-1.25 2.48-3.34 5.979-3.99 8.749-1.979 8.449.94 12.628 4.52 19.717 1.85 3.65 6.8 13.999 8.77 16.558 1.53 1.99 4.24 4.14 7.8 4.79 3.179.58 8.759.25 12.228.25l31.608.14c3.28.01 1.94-.23 4.16 2.07 3.44 3.589 8.919 4.289 13.708 1.02.77-.53 1.16-.74 1.74-1.5.38-.51.69-1.36 1.41-1.73h9.7c9.159 0 14.358.87 19.418-9.24 2.15-4.309 4.28-8.508 6.44-12.778 2.27-4.49 4.849-8.239 4.849-14.358 0-6.12-2.6-9.859-4.87-14.348-2.15-4.27-4.27-8.64-6.4-12.829-2.099-4.12-5.019-7.899-10.308-8.909-2.79-.53-15.13-.25-18.939-.28-.56-.73-.66-1.08-1.38-1.84-.59-.62-.88-1-1.64-1.6-1.15-.93-2.64-1.68-4.44-2.04-7.289-1.449-14.028 5.07-12.368 12.74.83 3.819 3.07 5.599 5.68 7.249l-.02 43.404c-.58.56-2.11 1.35-2.89 2.23-.63.72-1.6 2.04-1.99 3.18H25.158c-2.8-.03-4.15-1.38-5.15-3.31-1.89-3.69-3.7-7.429-5.54-11.159-5.999-12.178-6.839-11.858-.3-24.387 8.79-16.858 4.5-15.028 18.58-15.028z" fill="#C3C3C3"/></symbol><symbol viewBox="0 0 60 42" id="youtube" xmlns="http://www.w3.org/2000/svg"><path d="M57.45 3.975C55.822 1.08 54.056.547 50.46.345 46.867.101 37.834 0 30.007 0 22.168 0 13.13.101 9.54.341c-3.589.206-5.359.735-7.001 3.634C.862 6.866 0 11.846 0 20.614v.03c0 8.73.863 13.747 2.539 16.608 1.642 2.895 3.408 3.42 6.997 3.664 3.593.21 12.63.334 20.471.334 7.827 0 16.86-.124 20.457-.33 3.596-.244 5.362-.769 6.99-3.664C59.145 34.395 60 29.378 60 20.648v-.03c0-8.772-.855-13.752-2.55-16.643zm-34.95 27.9v-22.5l18.75 11.25-18.75 11.25z" fill="#787878"/></symbol></svg>