<svg width="29" height="29" viewBox="0 0 29 29" xmlns="http://www.w3.org/2000/svg" xmlns:xlink="http://www.w3.org/1999/xlink"><title>Group</title><desc>Created using Figma</desc><use xlink:href="#a" transform="translate(0 6.03)" fill="#4090CC"/><use xlink:href="#b" transform="translate(2.753)" fill="#B5B5B5"/><defs><path id="a" d="M2.753 0A14.412 14.412 0 0 0 0 8.476a14.41 14.41 0 0 0 2.753 8.477V0z"/><path id="b" d="M11.746 0C6.906 0 2.633 2.38 0 6.024v16.952c2.633 3.643 6.906 6.023 11.746 6.023 8.009 0 14.501-6.492 14.501-14.5C26.247 6.492 19.755 0 11.746 0zm5.136 21.218l-.521.376-4.61-2.423-4.695 2.471-.453-.33.896-5.229-3.775-3.68.199-.561 5.2-.755 2.339-4.736h.579l2.338 4.736 5.227.758.164.568-3.767 3.67.879 5.135z"/></defs></svg>