<svg width="29" height="29" viewBox="0 0 29 29" xmlns="http://www.w3.org/2000/svg" xmlns:xlink="http://www.w3.org/1999/xlink"><title>Group</title><desc>Created using Figma</desc><use xlink:href="#a" transform="translate(0 3)" fill="#4090CC"/><use xlink:href="#b" transform="translate(5.694)" fill="#B5B5B5"/><defs><path id="a" d="M5.694 0C2.238 2.65 0 6.809 0 11.502c0 4.691 2.238 8.851 5.694 11.502V0z"/><path id="b" d="M8.805 0A14.424 14.424 0 0 0 0 2.997v23.004a14.425 14.425 0 0 0 8.805 2.996c8.009 0 14.501-6.491 14.501-14.498C23.306 6.491 16.814 0 8.805 0zm5.136 21.216l-.521.378-4.61-2.423-4.697 2.469-.452-.328.897-5.229-3.775-3.681.197-.561 5.202-.756 2.339-4.736H9.1l2.338 4.736 5.226.758.163.569-3.765 3.67.879 5.134z"/></defs></svg>