<svg width="29" height="30" viewBox="0 0 29 30" xmlns="http://www.w3.org/2000/svg" xmlns:xlink="http://www.w3.org/1999/xlink"><title>Group</title><desc>Created using Figma</desc><use xlink:href="#a" transform="translate(0 1.24)" fill="#4090CC"/><use xlink:href="#b" transform="translate(8.636)" fill="#B5B5B5"/><defs><path id="a" d="M8.636 13.264l-2.159-2.106.197-.561 1.962-.285V0C3.552 2.252 0 7.334 0 13.255c0 5.919 3.552 11.002 8.636 13.256V13.264z"/><path id="b" d="M5.863 0C3.775 0 1.794.45 0 1.245v10.312l3.24-.471L5.579 6.35h.579l2.338 4.736 5.226.758.163.569-3.765 3.67.879 5.134-.521.378-4.61-2.423-4.697 2.469-.452-.328.897-5.229L0 14.51v13.247a14.464 14.464 0 0 0 5.863 1.244c8.009 0 14.501-6.493 14.501-14.5C20.364 6.491 13.872 0 5.863 0z"/></defs></svg>