<svg width="29" height="29" viewBox="0 0 29 29" xmlns="http://www.w3.org/2000/svg" xmlns:xlink="http://www.w3.org/1999/xlink"><title>Group</title><desc>Created using Figma</desc><use xlink:href="#a" transform="translate(11.58)" fill="#B5B5B5"/><use xlink:href="#b" transform="translate(.001 .3)" fill="#4090CC"/><defs><path id="a" d="M2.917 0C1.918 0 .942.102 0 .294v10.834l.295-.042 2.338-4.737h.579l2.339 4.737 5.229.758.163.568-3.768 3.67.88 5.134-.521.379-4.61-2.423-2.923 1.536v7.996c.942.193 1.918.295 2.917.295 8.01 0 14.503-6.492 14.503-14.5C17.42 6.491 10.927 0 2.917 0z"/><path id="b" d="M11.579 20.414l-1.771.932-.453-.327.896-5.23-3.775-3.681.199-.561 4.905-.713V0C4.971 1.35 0 7.197 0 14.206c0 7.008 4.971 12.855 11.58 14.205v-7.997h-.001z"/></defs></svg>