<svg width="30" height="29" viewBox="0 0 30 29" xmlns="http://www.w3.org/2000/svg" xmlns:xlink="http://www.w3.org/1999/xlink"><title>Group</title><desc>Created using Figma</desc><use xlink:href="#a" transform="translate(14.412)" fill="#B5B5B5"/><use xlink:href="#b" fill="#4090CC"/><defs><path id="a" d="M.087 0C.058 0 .029.004 0 .005v6.344h.382l2.337 4.736 5.229.758.162.569-3.766 3.67.879 5.134-.521.378-4.609-2.423-.092.049v9.773c.029.002.058.006.087.006 8.009 0 14.501-6.493 14.501-14.5C14.588 6.491 8.096 0 .087 0z"/><path id="b" d="M0 14.499c0 8.007 6.491 14.5 14.499 14.5l.025-.002v-9.814l-.02-.012-4.695 2.469-.453-.328.896-5.229-3.775-3.681.199-.561 5.201-.756 2.338-4.736h.309V.001L14.499 0C6.491 0 0 6.491 0 14.499z"/></defs></svg>