<svg width="29" height="30" viewBox="0 0 29 30" xmlns="http://www.w3.org/2000/svg" xmlns:xlink="http://www.w3.org/1999/xlink"><title>Group</title><desc>Created using Figma</desc><use xlink:href="#a" transform="translate(17.355 .28)" fill="#B5B5B5"/><use xlink:href="#b" transform="translate(-.001)" fill="#4090CC"/><defs><path id="a" d="M0 0v10.834l5.003.726.163.568-3.766 3.67.879 5.135-.521.377L0 20.386v8.045c6.64-1.326 11.645-7.188 11.645-14.217C11.645 7.185 6.641 1.328 0 0z"/><path id="b" d="M17.356 20.668l-2.852-1.498-4.695 2.469-.453-.329.896-5.229-3.775-3.68.199-.561 5.201-.755 2.338-4.736h.579l2.338 4.736.224.033V.284A14.615 14.615 0 0 0 14.499 0C6.492 0 0 6.491 0 14.498 0 22.507 6.491 29 14.499 29c.978 0 1.933-.101 2.857-.285v-8.047z"/></defs></svg>