<svg width="29" height="29" viewBox="0 0 29 29" xmlns="http://www.w3.org/2000/svg" xmlns:xlink="http://www.w3.org/1999/xlink"><title>Group</title><desc>Created using Figma</desc><use xlink:href="#a" transform="translate(20.299 1.21)" fill="#B5B5B5"/><use xlink:href="#b" fill="#4090CC"/><defs><path id="a" d="M0 0v10.331l2.06.299.163.569L0 13.366v13.205c5.12-2.238 8.701-7.342 8.701-13.285C8.701 7.34 5.12 2.238 0 0z"/><path id="b" d="M20.299 14.58l-1.543 1.503.879 5.134-.521.378-4.61-2.423-4.695 2.469-.453-.328.896-5.229-3.775-3.681.199-.561 5.201-.756 2.338-4.736h.579l2.338 4.736 3.167.459V1.214A14.44 14.44 0 0 0 14.499 0C6.492 0 0 6.491 0 14.5 0 22.507 6.491 29 14.499 29a14.44 14.44 0 0 0 5.8-1.215V14.58z"/></defs></svg>