<svg width="29" height="29" viewBox="0 0 29 29" xmlns="http://www.w3.org/2000/svg" xmlns:xlink="http://www.w3.org/1999/xlink"><title>Group</title><desc>Created using Figma</desc><use xlink:href="#a" transform="translate(23.241 2.95)" fill="#B5B5B5"/><use xlink:href="#b" fill="#4090CC"/><defs><path id="a" d="M0 0v23.098c3.493-2.648 5.759-6.83 5.759-11.551C5.759 6.828 3.493 2.646 0 0z"/><path id="b" d="M23.241 2.951A14.427 14.427 0 0 0 14.499 0C6.492 0 0 6.492 0 14.498 0 22.508 6.491 29 14.499 29c3.288 0 6.31-1.108 8.742-2.951V2.951zm-4.127 18.643l-4.61-2.422-4.695 2.47-.453-.329.896-5.229-3.775-3.681.199-.561 5.201-.756 2.338-4.736h.579l2.338 4.736 5.228.758.163.569-3.766 3.67.879 5.133-.522.378z"/></defs></svg>