<svg width="29" height="29" viewBox="0 0 29 29" xmlns="http://www.w3.org/2000/svg" xmlns:xlink="http://www.w3.org/1999/xlink"><title>Group</title><desc>Created using Figma</desc><use xlink:href="#a" transform="translate(26.184 5.94)" fill="#B5B5B5"/><use xlink:href="#b" transform="translate(-.001)" fill="#4090CC"/><defs><path id="a" d="M0 17.122A14.42 14.42 0 0 0 0 0v17.122z"/><path id="b" d="M26.185 5.939C23.546 2.343 19.302 0 14.499 0 6.492 0 0 6.492 0 14.498 0 22.508 6.491 29 14.499 29c4.802 0 9.046-2.346 11.686-5.939V5.939zm-6.549 15.277l-.521.377-4.61-2.422-4.695 2.47-.453-.329.896-5.229-3.775-3.681.199-.561 5.201-.756 2.338-4.736h.579l2.338 4.736 5.228.758.163.569-3.766 3.67.878 5.134z"/></defs></svg>