<svg width="21" height="21" viewBox="0 0 21 21" xmlns="http://www.w3.org/2000/svg" xmlns:xlink="http://www.w3.org/1999/xlink"><title>b01</title><desc>Created using Figma</desc><use xlink:href="#a" transform="translate(0 4.36)" fill="#9E785C"/><use xlink:href="#b" transform="translate(1.993)" fill="#B5B5B5"/><defs><path id="a" d="M1.993 0a10.446 10.446 0 0 0 0 12.276V0z"/><path id="b" d="M8.506 0C5.001 0 1.907 1.724 0 4.362v12.276c1.907 2.638 5.001 4.36 8.506 4.36 5.8 0 10.501-4.699 10.501-10.5C19.007 4.701 14.306 0 8.506 0zm3.72 15.363l-.377.273-3.339-1.754-3.4 1.788-.328-.238.649-3.786L2.697 8.98l.145-.406 3.766-.547 1.694-3.43h.419l1.693 3.43 3.784.549.119.411-2.728 2.658.637 3.718z"/></defs></svg>