<svg width="21" height="21" viewBox="0 0 21 21" xmlns="http://www.w3.org/2000/svg" xmlns:xlink="http://www.w3.org/1999/xlink"><title>b02</title><desc>Created using Figma</desc><use xlink:href="#a" transform="translate(0 2.17)" fill="#9E785C"/><use xlink:href="#b" transform="translate(4.123)" fill="#B5B5B5"/><defs><path id="a" d="M4.123 0C1.621 1.919 0 4.931 0 8.329c0 3.398 1.621 6.41 4.123 8.33V0z"/><path id="b" d="M6.376 0C3.975 0 1.77.814 0 2.17v16.658a10.45 10.45 0 0 0 6.376 2.17c5.8 0 10.501-4.701 10.501-10.5C16.877 4.7 12.176 0 6.376 0zm3.72 15.363l-.377.273-3.339-1.754-3.401 1.787-.327-.237.649-3.787L.567 8.979l.144-.406 3.767-.547 1.694-3.43h.419l1.693 3.43 3.783.549.118.412-2.726 2.658.637 3.718z"/></defs></svg>