<svg width="21" height="21" viewBox="0 0 21 21" xmlns="http://www.w3.org/2000/svg" xmlns:xlink="http://www.w3.org/1999/xlink"><title>b03</title><desc>Created using Figma</desc><use xlink:href="#a" transform="translate(0 .9)" fill="#9E785C"/><use xlink:href="#b" transform="translate(6.252)" fill="#B5B5B5"/><defs><path id="a" d="M6.253 9.605L4.689 8.08l.144-.406 1.421-.207V0C2.572 1.631 0 5.311 0 9.598c0 4.287 2.572 7.967 6.254 9.599V9.605h-.001z"/><path id="b" d="M4.246 0C2.734 0 1.3.326.001.901v7.467l2.346-.341 1.694-3.43h.419l1.693 3.43 3.783.549.118.412-2.726 2.658.637 3.718-.377.273-3.339-1.754L.848 15.67l-.327-.237.649-3.787L0 10.506v9.592c1.299.575 2.733.9 4.245.9 5.8 0 10.501-4.701 10.501-10.5C14.747 4.7 10.046 0 4.246 0z"/></defs></svg>