<svg width="21" height="21" viewBox="0 0 21 21" xmlns="http://www.w3.org/2000/svg" xmlns:xlink="http://www.w3.org/1999/xlink"><title>b04</title><desc>Created using Figma</desc><use xlink:href="#a" transform="translate(8.385)" fill="#B5B5B5"/><use xlink:href="#b" transform="translate(0 .21)" fill="#9E785C"/><defs><path id="a" d="M2.113 0C1.389 0 .683.074.001.213v7.845l.214-.031 1.692-3.43h.42l1.693 3.43 3.786.549.118.412-2.729 2.658.638 3.718-.378.273-3.339-1.754L0 14.996v5.789c.683.141 1.389.214 2.112.214 5.8 0 10.502-4.702 10.502-10.5C12.615 4.701 7.913 0 2.113 0z"/><path id="b" d="M8.386 14.783l-1.283.674-.328-.236.648-3.788L4.69 8.767l.144-.406 3.553-.516V0C3.6.977 0 5.211 0 10.286c0 5.075 3.6 9.309 8.386 10.287v-5.79z"/></defs></svg>