<svg width="21" height="21" viewBox="0 0 21 21" xmlns="http://www.w3.org/2000/svg" xmlns:xlink="http://www.w3.org/1999/xlink"><title>b05</title><desc>Created using Figma</desc><use xlink:href="#a" transform="translate(10.435)" fill="#B5B5B5"/><use xlink:href="#b" fill="#9E785C"/><defs><path id="a" d="M.064 0L.001.003v4.594h.276l1.693 3.43 3.786.549.117.412-2.727 2.658.637 3.718-.378.273-3.338-1.754-.067.035v7.077l.063.003c5.8 0 10.501-4.701 10.501-10.5C10.565 4.7 5.864 0 .064 0z"/><path id="b" d="M0 10.499c0 5.798 4.701 10.5 10.499 10.5h.018v-7.107l-.014-.008-3.4 1.787-.328-.237.649-3.787L4.69 8.981l.144-.406L8.6 8.028l1.693-3.43h.224V.001L10.499 0C4.701 0 0 4.7 0 10.499z"/></defs></svg>