<svg width="21" height="21" viewBox="0 0 21 21" xmlns="http://www.w3.org/2000/svg" xmlns:xlink="http://www.w3.org/1999/xlink"><title>b06</title><desc>Created using Figma</desc><use xlink:href="#a" transform="translate(12.568 .21)" fill="#B5B5B5"/><use xlink:href="#b" fill="#9E785C"/><defs><path id="a" d="M0 0v7.845l3.623.526.118.411-2.727 2.658.637 3.719-.378.271L0 14.762v5.826c4.808-.961 8.432-5.205 8.432-10.295S4.808.961 0 0z"/><path id="b" d="M12.568 14.968l-2.065-1.085-3.4 1.788-.328-.238.649-3.787L4.69 8.981l.144-.406L8.6 8.028l1.693-3.43h.419l1.693 3.43.163.023V.206A10.604 10.604 0 0 0 10.499 0C4.701 0 0 4.701 0 10.499c0 5.799 4.701 10.5 10.499 10.5.708 0 1.399-.072 2.069-.205v-5.826z"/></defs></svg>