<svg width="21" height="21" viewBox="0 0 21 21" xmlns="http://www.w3.org/2000/svg" xmlns:xlink="http://www.w3.org/1999/xlink"><title>b07</title><desc>Created using Figma</desc><use xlink:href="#a" transform="translate(14.699 .88)" fill="#B5B5B5"/><use xlink:href="#b" fill="#9E785C"/><defs><path id="a" d="M0 0v7.48l1.492.216.118.412L0 9.677v9.563c3.708-1.621 6.301-5.316 6.301-9.621C6.301 5.314 3.708 1.621 0 0z"/><path id="b" d="M14.699 10.556l-1.117 1.089.637 3.718-.378.273-3.338-1.754-3.4 1.787-.328-.237.649-3.787L4.69 8.979l.144-.406L8.6 8.026l1.693-3.43h.419l1.693 3.43 2.294.333V.879a10.45 10.45 0 0 0-4.2-.879C4.701 0 0 4.7 0 10.499c0 5.798 4.701 10.5 10.499 10.5a10.45 10.45 0 0 0 4.2-.879v-9.564z"/></defs></svg>