<svg width="21" height="21" viewBox="0 0 21 21" xmlns="http://www.w3.org/2000/svg" xmlns:xlink="http://www.w3.org/1999/xlink"><title>b08</title><desc>Created using Figma</desc><use xlink:href="#a" transform="translate(16.83 2.14)" fill="#B5B5B5"/><use xlink:href="#b" fill="#9E785C"/><defs><path id="a" d="M0 0v16.725c2.529-1.918 4.17-4.945 4.17-8.363C4.17 4.944 2.529 1.916 0 0z"/><path id="b" d="M16.83 2.137A10.451 10.451 0 0 0 10.499 0C4.701 0 0 4.701 0 10.499 0 16.299 4.701 21 10.499 21c2.38 0 4.569-.803 6.331-2.138V2.137zm-2.989 13.501l-3.338-1.754-3.4 1.787-.328-.238.649-3.786L4.69 8.982l.144-.406L8.6 8.029l1.693-3.43h.419l1.693 3.43 3.786.549.118.412-2.727 2.657.637 3.718-.378.273z"/></defs></svg>