<svg width="21" height="21" viewBox="0 0 21 21" xmlns="http://www.w3.org/2000/svg" xmlns:xlink="http://www.w3.org/1999/xlink"><title>b09</title><desc>Created using Figma</desc><use xlink:href="#a" transform="translate(18.961 4.3)" fill="#B5B5B5"/><use xlink:href="#b" fill="#9E785C"/><defs><path id="a" d="M0 12.398A10.442 10.442 0 0 0 0 0v12.398z"/><path id="b" d="M18.961 4.301C17.05 1.697 13.977 0 10.499 0 4.701 0 0 4.701 0 10.499 0 16.299 4.701 21 10.499 21c3.478 0 6.551-1.698 8.462-4.301V4.301zm-4.742 11.063l-.378.273-3.338-1.754-3.4 1.787-.328-.238.649-3.786L4.69 8.981l.144-.406L8.6 8.028l1.693-3.43h.419l1.693 3.43 3.786.549.118.412-2.727 2.657.637 3.718z"/></defs></svg>