<svg width="29" height="38" viewBox="0 0 29 38" xmlns="http://www.w3.org/2000/svg" xmlns:xlink="http://www.w3.org/1999/xlink"><title>icon-document</title><desc>Created using Figma</desc><use xlink:href="#a" fill="#919191"/><use xlink:href="#b" transform="translate(18.209 27.239)" fill="#919191"/><use xlink:href="#c" transform="translate(5.171 5.086)" fill="#919191"/><use xlink:href="#c" transform="translate(5.171 11.139)" fill="#919191"/><use xlink:href="#c" transform="translate(5.171 17.192)" fill="#919191"/><use xlink:href="#c" transform="translate(5.171 23.246)" fill="#919191"/><use xlink:href="#d" transform="translate(5.171 29.299)" fill="#919191"/><defs><path id="a" d="M19.052 38H.843A.842.842 0 0 1 0 37.16V.84C0 .377.377 0 .843 0h27.314c.466 0 .843.376.843.84v27.24c0 .464-.377.84-.843.84h-8.262v8.24c0 .464-.377.84-.843.84zM1.686 36.319H18.21v-8.24c0-.464.378-.84.843-.84h8.262V1.68H1.686v34.64z"/><path id="b" d="M.843 10.761a.842.842 0 0 1-.596-1.435L9.352.246a.844.844 0 0 1 1.192 0 .84.84 0 0 1 0 1.19l-9.105 9.079a.841.841 0 0 1-.596.246z"/><path id="c" d="M17.928 1.681H.843A.842.842 0 1 1 .843 0h17.085a.842.842 0 1 1 0 1.681z"/><path id="d" d="M9.59 1.681H.842A.842.842 0 1 1 .843 0h8.746a.842.842 0 1 1 0 1.681z"/></defs></svg>