<svg width="398" height="307" viewBox="0 0 398 307" fill="none" xmlns="http://www.w3.org/2000/svg">
<g clip-path="url(#clip0)">
<path d="M12.9 306.7C8.79997 287.4 4.99998 269.3 1.09998 250.8C2.79998 250.1 4.29998 249.4 5.89998 248.8C31.3 238.4 54.8 225 74 205.1C80.4 198.5 86.5 191.7 89.8 183.1C93.7 173.2 93.4 173.8 85 170C76.4 166.1 67.4 162.9 58.4 160C30 150.8 15.2 130.4 11.1 101.7C8.59998 83.6 10.5 65.7 18.2 49C32 18.8 55.8 2.9 88.7 1.3C142 -1.3 174.5 37.5 182.4 75.7C192 122.1 183.1 165.8 158.6 206C135.3 244.3 101.5 270.9 60.8 288.7C45.4 295.5 29.2 300.6 12.9 306.7Z" fill="black"/>
<path d="M225.8 303.8C221.7 285.3 217.9 268 214 250.9C213.5 248.5 214.8 247.9 216.5 247.2C230.8 241.4 244.6 234.7 257.6 226.3C271.2 217.4 283.7 207.1 293.6 194.2C297.3 189.4 300.2 183.9 302.6 178.3C304.9 173 304.4 171.8 299.2 169.5C291.5 166 283.5 163.1 275.5 160.1C271.1 158.4 266.5 157.1 262.1 155.2C244.2 147.2 232.5 133.3 227.1 114.8C219.6 89.5 221.8 64.5 234.6 41.3C248.6 15.7 271.2 2.99998 300.1 1.49998C353.7 -1.30002 386 38.6 393.4 76.4C402.3 121.7 393.6 164.4 369.8 203.7C346.7 241.8 313.3 268.3 272.9 286.1C257.9 292.7 242 297.7 225.8 303.8Z" fill="black"/>
</g>
<defs>
<clipPath id="clip0">
<rect width="397.9" height="306.7" fill="white"/>
</clipPath>
</defs>
</svg>
