<?xml version="1.0" encoding="utf-8"?><svg xmlns="http://www.w3.org/2000/svg" xmlns:xlink="http://www.w3.org/1999/xlink"><symbol viewBox="0 0 74.75 71.52" id="1" xmlns="http://www.w3.org/2000/svg"><defs><style>.acls-1{fill:none;stroke:#231f20;stroke-linecap:round;stroke-linejoin:round;stroke-width:2.5px}</style></defs><g id="aСлой_2" data-name="Слой 2"><g id="aIcons"><rect class="acls-1" x="1.25" y="1.25" width="72.25" height="62.67" rx="9" ry="9"/><path class="acls-1" d="M26.75 65.9c0-1.11-.65-2-1.45-2H15c-.8 0-1.45.89-1.45 2v4.37h13.2zm35.75 0c0-1.11-.65-2-1.45-2H50.7c-.8 0-1.45.89-1.45 2v4.37H62.5z"/><circle class="acls-1" cx="48.73" cy="31.58" r="9.12"/><path class="acls-1" d="M47.48 31.58h3.25M16.29 45.25a3 3 0 0 0-2.82-3.17h-4a3.19 3.19 0 0 0 0 6.34h4a3 3 0 0 0 2.82-3.17zm0-22.79a3 3 0 0 0-2.82-3.17h-4a3 3 0 0 0-2.82 3.17 3 3 0 0 0 2.82 3.17h4a3 3 0 0 0 2.82-3.17z"/><path class="acls-1" d="M57.5 9.76H19.87a9 9 0 0 0-9 9v.53h2.6a3 3 0 0 1 2.82 3.17 3 3 0 0 1-2.82 3.17h-2.6v16.45h2.6a3.19 3.19 0 0 1 0 6.34h-2.36a9 9 0 0 0 8.76 7H57.5a9 9 0 0 0 9-9V18.76a9 9 0 0 0-9-9z"/></g></g></symbol><symbol viewBox="0 0 75 72" id="preimusetva1" xmlns="http://www.w3.org/2000/svg"><g clip-path="url(#ba)" fill-rule="evenodd" clip-rule="evenodd"><path d="M10.3 2.45c-4.3 0-7.75 3.531-7.75 7.75v44.7c0 4.31 3.44 7.75 7.75 7.75h54.3c4.31 0 7.75-3.44 7.75-7.75V10.2c0-4.31-3.44-7.75-7.75-7.75H10.3zM.05 10.2C.05 4.619 4.6-.05 10.3-.05h54.3c5.69 0 10.25 4.56 10.25 10.25v44.7c0 5.69-4.56 10.25-10.25 10.25H10.3C4.61 65.15.05 60.59.05 54.9V10.2z"/><path d="M12.971 63.778c.418-.606 1.114-1.128 2.029-1.128h10.3c.914 0 1.642.472 2.1 1.104.444.613.65 1.383.65 2.146v4.4c0 .69-.56 1.25-1.25 1.25H13.6c-.69 0-1.25-.56-1.25-1.25v-4.4c0-.764.206-1.52.621-2.122zm2.058 1.42c-.085.123-.179.366-.179.702v3.15h10.7V65.9c0-.337-.094-.567-.175-.68a.244.244 0 0 0-.068-.07m-10.278.047a.468.468 0 0 1 .036-.047zm.06-.069l-.006.005c.003-.004.006-.005.006-.005zm33.565-1.396c.443-.584 1.154-1.082 2.046-1.082H61c.891 0 1.603.498 2.046 1.082a3.6 3.6 0 0 1 .704 2.168v4.4c0 .69-.56 1.25-1.25 1.25H49.2c-.69 0-1.25-.56-1.25-1.25v-4.4a3.6 3.6 0 0 1 .704-2.168zm1.992 1.511a1.107 1.107 0 0 0-.196.657v3.15h10.8V65.9c0-.293-.095-.524-.196-.657a.405.405 0 0 0-.09-.093H50.737a.405.405 0 0 0-.091.093zm.105-.1l-.006.002.006-.003zm10.198 0l.006.002a.018.018 0 0 1-.006-.003zM48.7 23.75a7.85 7.85 0 1 0 0 15.7 7.85 7.85 0 0 0 0-15.7zM38.35 31.6c0-5.716 4.634-10.35 10.35-10.35 5.716 0 10.35 4.634 10.35 10.35 0 5.716-4.634 10.35-10.35 10.35-5.716 0-10.35-4.634-10.35-10.35z"/><path d="M46.25 31.6c0-.69.56-1.25 1.25-1.25h3.2a1.25 1.25 0 0 1 0 2.5h-3.2c-.69 0-1.25-.56-1.25-1.25zM9.362 40.758c.046-.005.092-.008.138-.008h4c.026 0 .052 0 .078.002 2.256.142 4.073 2.086 3.974 4.448.098 2.345-1.716 4.35-4.052 4.35h-4a1.25 1.25 0 0 1-.165-.011c-2.06-.275-3.6-1.815-3.874-3.874l-.002-.019a4.398 4.398 0 0 1 3.903-4.888zm5.69 4.517c.06 1.023-.713 1.775-1.552 1.775H9.592c-.899-.149-1.526-.794-1.652-1.706a1.897 1.897 0 0 1 1.637-2.094h3.879c.905.075 1.655.884 1.596 1.877a1.197 1.197 0 0 0-.002.073v.074l.002.001zM9.427 18.052l.073-.002h4c.026 0 .052 0 .078.002 2.256.141 4.072 2.085 3.974 4.446.101 2.305-1.749 4.174-3.897 4.442-.051.007-.103.01-.155.01h-4c-.026 0-.052 0-.078-.002-2.256-.141-4.073-2.086-3.974-4.448-.1-2.331 1.589-4.307 3.979-4.448zm.114 2.498c-.968.073-1.653.851-1.593 1.877.003.049.003.098 0 .146-.059.993.691 1.802 1.596 1.877h3.869c.992-.158 1.692-1.03 1.64-1.872a1.254 1.254 0 0 1 0-.151c.058-.993-.692-1.802-1.598-1.877H9.542z"/><path d="M9.65 18.8c0-5.69 4.56-10.25 10.25-10.25h37.6c5.69 0 10.25 4.56 10.25 10.25v27.7c0 5.69-4.56 10.25-10.25 10.25H19.9c-4.77 0-8.992-3.293-10.02-7.982a1.25 1.25 0 0 1 1.22-1.518h2.308c.899-.149 1.526-.794 1.652-1.705a1.897 1.897 0 0 0-1.637-2.095H10.9c-.69 0-1.25-.56-1.25-1.25V25.7c0-.69.56-1.25 1.25-1.25h2.556c.905-.075 1.655-.884 1.596-1.877a1.24 1.24 0 0 1 0-.146c.06-1.026-.625-1.804-1.593-1.877H10.9c-.69 0-1.25-.56-1.25-1.25v-.5zm2.535-.75H13.5c.024 0 .049 0 .073.002 2.39.14 4.079 2.117 3.979 4.448.099 2.362-1.718 4.306-3.974 4.448a1.27 1.27 0 0 1-.078.002h-1.35v14h1.35c.046 0 .092.003.138.008a4.398 4.398 0 0 1 3.903 4.888l-.002.02c-.274 2.059-1.815 3.599-3.874 3.873-.055.007-.11.011-.165.011h-.671c1.234 2.694 3.99 4.5 7.071 4.5h37.6c4.31 0 7.75-3.44 7.75-7.75V18.8c0-4.31-3.44-7.75-7.75-7.75H19.9a7.708 7.708 0 0 0-7.715 7z"/></g><defs><clipPath id="ba"><path d="M0 0h74.8v71.5H0z"/></clipPath></defs></symbol><symbol viewBox="0 0 82 86" id="preimusetva2" xmlns="http://www.w3.org/2000/svg"><g clip-path="url(#ca)"><path fill-rule="evenodd" clip-rule="evenodd" d="M41.656.204a1.25 1.25 0 0 0-1.513.001L3.68 27.95H3.4c-1.83 0-3.29 1.278-3.446 3.146a1.22 1.22 0 0 0-.004.104v4.1c0 .69.56 1.25 1.25 1.25h9.341c-.06.239-.091.49-.091.75v1c0 1.399.92 2.525 2.1 3.003v24.494c-1.195.487-2.1 1.651-2.1 3.103v1c0 .332.047.648.135.945C9.18 71.218 8.15 72.535 8.15 74v2.85H6.2c-1.83 0-3.25 1.5-3.25 3.35v4.1c0 .69.56 1.25 1.25 1.25h73.5c.69 0 1.25-.56 1.25-1.25v-4.2c0-1.705-1.277-3.25-3.15-3.25h-2.15V74c0-1.1-.546-2.159-1.486-2.758.185-.418.286-.875.286-1.342v-1c0-1.452-.905-2.616-2.1-3.103V41.321c1.231-.473 2.1-1.628 2.1-3.021v-1c0-.26-.032-.511-.091-.75H80.1c.69 0 1.25-.56 1.25-1.25v-4.1c0-.035-.001-.07-.004-.104-.146-1.751-1.438-2.983-3.106-3.131L41.656.205zM50.45 41.3a3.258 3.258 0 0 1-2-3v-1c0-.258.03-.51.087-.75H34.362c.058.24.088.492.088.75v1a3.258 3.258 0 0 1-2 3v24.5c1.188.502 2 1.7 2 3.1v1c0 .288-.04.574-.113.85h14.216a3.519 3.519 0 0 1-.103-.85v-1c0-1.4.812-2.598 2-3.1V41.3zm2.5 24.25h14.9v-23.9h-14.9v23.9zm-1.253 2.5c-.369.001-.747.301-.747.85v1c0 .55.38.85.75.85h17.4c.471 0 .85-.401.85-.85v-1a.862.862 0 0 0-.85-.85H51.697zm-21.747-2.5h-14.9v-23.9h14.9v23.9zm-17 3.35c0-.47.4-.849.847-.85h17.406c.369.001.747.301.747.85v1c0 .49-.418.85-.75.85H13.8a.862.862 0 0 1-.85-.85v-1zM69.1 34.05h9.75v-2.79c-.059-.505-.395-.81-.95-.81H3.4c-.555 0-.891.305-.95.81v2.79H69.1zM50.95 37.3c0-.408.338-.748.747-.75h17.407c.487.002.846.418.846.75v1c0 .37-.3.75-.85.75H51.7c-.41 0-.75-.34-.75-.75v-1zm-38 0c0-.332.359-.748.846-.75h17.407a.756.756 0 0 1 .747.75v1c0 .41-.34.75-.75.75H13.8c-.49 0-.85-.418-.85-.75v-1zm61.135-9.35L40.9 2.77 7.807 27.95h66.278zM41.652 7.102a1.25 1.25 0 0 0-1.504 0l-20.3 15.3a1.25 1.25 0 1 0 1.504 1.996L40.9 9.665l19.148 14.433a1.25 1.25 0 0 0 1.504-1.996l-19.9-15zM40.7 17.05c-1.51 0-2.75 1.24-2.75 2.75s1.24 2.75 2.75 2.75 2.75-1.24 2.75-2.75-1.24-2.75-2.75-2.75zm-5.25 2.75c0-2.89 2.36-5.25 5.25-5.25s5.25 2.36 5.25 5.25-2.36 5.25-5.25 5.25-5.25-2.36-5.25-5.25zm-24.8 57.05h60.5V74c0-.403-.25-.697-.62-.75H11.28c-.333.059-.63.397-.63.75v2.85zm61.75 2.5H6.2c-.37 0-.75.3-.75.85v2.85h71V80.1c0-.495-.323-.75-.65-.75h-3.4zM17.65 51.7v-5.1h2.5v5.1h-2.5zm6.4-5.1v14.3h2.5V46.6h-2.5zm30.9 5.1v-5.1h2.5v5.1h-2.5zm6.4-5.1v14.3h2.5V46.6h-2.5z"/></g><defs><clipPath id="ca"><path d="M0 0h81.4v85.5H0z"/></clipPath></defs></symbol><symbol viewBox="0 0 74 65" id="preimusetva3" xmlns="http://www.w3.org/2000/svg"><g clip-path="url(#da)"><path fill-rule="evenodd" clip-rule="evenodd" d="M26.3-.05c-2.39 0-4.25 1.86-4.25 4.25v6.25H1.3c-.69 0-1.25.56-1.25 1.25V32c0 .134.022.268.064.395L1.3 32a89.672 89.672 0 0 0-1.185.397v.002l.001.003.003.007.005.016a1.647 1.647 0 0 0 .053.13c.03.07.072.158.129.26.112.204.28.464.528.765.416.508 1.052 1.127 2.016 1.794V60.4c0 2.39 1.86 4.25 4.25 4.25h59.7a4.33 4.33 0 0 0 4.35-4.15V35.151c.89-.62 1.478-1.197 1.866-1.686.247-.311.411-.583.519-.8a2.836 2.836 0 0 0 .156-.385l.009-.03.003-.012.005-.018.003-.009v-.004l.001-.002s0-.002-1.212-.305l1.213.303c.025-.099.037-.2.037-.303V11.7c0-.69-.56-1.25-1.25-1.25H51.85V4.2c0-2.39-1.86-4.25-4.25-4.25H26.3zm23.05 10.5V4.2c0-1.01-.74-1.75-1.75-1.75H26.3c-1.01 0-1.75.74-1.75 1.75v6.25h24.8zM4.85 33.6c2.84 2.13 9.05 5.066 22.2 6.06v-.822c-.116-2.094 1.418-4.135 3.667-4.285a1.13 1.13 0 0 1 .083-.003H43c.028 0 .056 0 .083.003 2.16.144 3.908 2.11 3.667 4.322v.785c13.15-.994 19.36-3.93 22.2-6.06.034-.026.07-.05.107-.072 1.143-.686 1.722-1.266 2.002-1.618.092-.116.153-.208.191-.273V12.95H2.55V31.7c.047.073.116.173.216.295.265.322.748.809 1.593 1.382.175.037.343.112.491.223zm24.7 7.5v-2.3c0-.028 0-.055-.003-.083-.058-.877.581-1.598 1.302-1.667h12.103c.794.074 1.408.844 1.309 1.585a1.25 1.25 0 0 0-.011.165V41c0 .227.062.448.176.64l-.075 2.115a1.09 1.09 0 0 0 .002.128c.058.877-.581 1.598-1.302 1.667H30.848c-.794-.074-1.408-.844-1.309-1.585a1.25 1.25 0 0 0 .011-.165v-2.7zM5.35 60.4V37.038c3.85 2.23 10.446 4.402 21.7 5.23v1.457c-.241 2.212 1.508 4.178 3.667 4.322.027.002.055.003.083.003h12.3c.028 0 .056 0 .083-.003 2.24-.15 3.77-2.175 3.668-4.26l.058-1.617c11.28-.825 17.886-3 21.741-5.232v23.518a1.83 1.83 0 0 1-1.85 1.694H7.1c-1.01 0-1.75-.74-1.75-1.75z"/></g><defs><clipPath id="da"><path d="M0 0h73.9v64.7H0z"/></clipPath></defs></symbol><symbol viewBox="0 0 58 75" id="preimusetva4" xmlns="http://www.w3.org/2000/svg"><g clip-path="url(#ea)" fill-rule="evenodd" clip-rule="evenodd"><path d="M34.52.046a1.25 1.25 0 0 1 1.361.267l16.5 16.4a1.25 1.25 0 0 1-.881 2.137H35c-.69 0-1.25-.56-1.25-1.25V1.2c0-.505.304-.96.77-1.154zm1.73 4.159V16.35h12.22L36.25 4.205z"/><path d="M.05 1.2C.05.51.61-.05 1.3-.05H35c.33 0 .647.13.881.363l16.5 16.4c.236.235.369.554.369.887v12.3h-2.5V18.12L34.484 2.45H2.55v63.9H12.6v2.5H1.3c-.69 0-1.25-.56-1.25-1.25V1.2zm52.7 48.9v17.5c0 .69-.56 1.25-1.25 1.25h-18v-2.5h16.75V50.1h2.5zm5.258-16.579a1.25 1.25 0 0 0-1.547-1.524l-7.523 2.122a1.25 1.25 0 0 0-.805.363L20.66 61.955a1.25 1.25 0 0 0-.379.26l-4.596 4.596a1.25 1.25 0 0 0 0 1.768l5.728 5.728a1.25 1.25 0 0 0 1.767 0l4.28-4.28c.138-.061.267-.148.38-.26l27.789-27.79c.243-.243.365-.562.366-.882l2.013-7.574zm-6.576 2.492l2.628 2.629.968-3.644-3.596 1.015zM22.996 63.155L48.992 37.16l3.96 3.96-25.996 25.995-1.102-1.101 14.53-14.53-1.768-1.768-14.53 14.53-1.09-1.09zm-2.08 4.261l1.4-1.399-1.15-1.15-2.83 2.828 3.96 3.96 2.829-2.828-1.042-1.042-1.4 1.399-1.767-1.768zM6.8 11.35h5.6v-2.5H6.8v2.5zm14.5 0h-5.7v-2.5h5.7v2.5zm-10 8.9h18v-2.5h-18v2.5zm35.2 9H6.8v-2.5h39.7v2.5zm-39.7 9.1h31.1v-2.5H6.8v2.5z"/></g><defs><clipPath id="ea"><path d="M0 0h58v74.7H0z"/></clipPath></defs></symbol><symbol viewBox="0 0 72 70" id="preimusetva5" xmlns="http://www.w3.org/2000/svg"><g clip-path="url(#fa)"><path fill-rule="evenodd" clip-rule="evenodd" d="M36.6 2.55c-3.494 0-6.55 3.219-6.55 7.35 0 4.129 3.052 7.346 6.543 7.35h.014c3.5-.004 6.543-3.131 6.543-7.35 0-4.221-3.047-7.35-6.55-7.35zm6.043 14.7c1.858-1.814 3.007-4.45 3.007-7.35 0-5.379-3.953-9.85-9.05-9.85-5.106 0-9.05 4.581-9.05 9.85 0 2.86 1.162 5.518 3.042 7.35H28.9c-.987 0-1.752.596-2.214 1.262-.473.68-.736 1.56-.736 2.488v11.5c0 .69.56 1.25 1.25 1.25h8.15v10.832l-14.2 14.2V56.9c0-.928-.263-1.808-.736-2.488-.462-.666-1.227-1.262-2.214-1.262h-1.557c1.858-1.814 3.007-4.45 3.007-7.35 0-5.378-3.953-9.85-9.05-9.85-5.106 0-9.05 4.581-9.05 9.85 0 2.86 1.162 5.518 3.042 7.35H3c-.987 0-1.752.596-2.214 1.262-.473.68-.736 1.56-.736 2.488v11.5c0 .69.56 1.25 1.25 1.25h18.6c.69 0 1.25-.56 1.25-1.25v-6.082l15.45-15.45 14.25 14.25V68.4c0 .69.56 1.25 1.25 1.25h18.7c.69 0 1.25-.56 1.25-1.25V56.9c0-.201-.048-.392-.132-.56a4.246 4.246 0 0 0-.704-1.928c-.462-.666-1.227-1.262-2.214-1.262h-1.557c1.858-1.814 3.007-4.45 3.007-7.35 0-5.378-3.953-9.85-9.05-9.85-5.106 0-9.05 4.581-9.05 9.85 0 2.86 1.162 5.518 3.042 7.35H53.8c-.987 0-1.752.596-2.214 1.262-.473.68-.736 1.56-.736 2.488v.682l-13-13V33.75h8.05c.69 0 1.25-.56 1.25-1.25V21c0-.928-.263-1.808-.736-2.488-.462-.666-1.227-1.262-2.214-1.262h-1.557zm10.707 42.9l.034-.034-.034-.034V56.9c0-.472.137-.842.29-1.062.093-.135.16-.177.185-.188h15.15c.024.011.092.053.186.188.152.22.289.59.289 1.062 0 .174.036.34.1.49v9.76h-16.2v-7zm8.065-7h-.03c-3.487-.009-6.535-3.224-6.535-7.35 0-4.131 3.056-7.35 6.55-7.35 3.503 0 6.55 3.129 6.55 7.35 0 4.215-3.038 7.341-6.535 7.35zm-50.8 0h-.03c-3.488-.009-6.535-3.224-6.535-7.35 0-4.131 3.056-7.35 6.55-7.35 3.503 0 6.55 3.129 6.55 7.35 0 4.215-3.038 7.341-6.535 7.35zm-.033 2.5H3.025c-.024.011-.092.053-.186.188-.152.22-.289.59-.289 1.062v10.25h16.1V56.9c0-.472-.137-.842-.29-1.062-.093-.135-.16-.177-.185-.188h-7.593zm26.01-35.9h7.583c.024.011.092.053.186.188.152.22.289.59.289 1.062v10.25h-16.2V21c0-.472.137-.842.29-1.062.093-.135.16-.177.185-.188h7.667zm-7.658-.003h-.003.003zm15.232 0h.003-.003zM3.03 55.646a.037.037 0 0 0 .004 0H3.03zm15.134 0h.004a.043.043 0 0 1-.004 0zm35.67 0h-.004.003zm15.134 0h-.004.004z"/></g><defs><clipPath id="fa"><path d="M0 0h72v69.7H0z"/></clipPath></defs></symbol><symbol viewBox="0 0 75 72" id="safe" xmlns="http://www.w3.org/2000/svg"><path fill-rule="evenodd" clip-rule="evenodd" d="M2.5 10.25a7.75 7.75 0 0 1 7.75-7.75H64.5a7.75 7.75 0 0 1 7.75 7.75v44.67a7.75 7.75 0 0 1-7.75 7.75h-3.143c-.1-.013-.202-.02-.307-.02H50.7c-.105 0-.208.007-.307.02H25.607c-.1-.013-.202-.02-.307-.02H15c-.105 0-.208.007-.307.02H10.25a7.75 7.75 0 0 1-7.75-7.75V10.25zm62 54.92h-.817c.044.238.067.483.067.73v4.37c0 .69-.56 1.25-1.25 1.25H49.25c-.69 0-1.25-.56-1.25-1.25V65.9c0-.247.023-.492.067-.73H27.933c.044.238.067.483.067.73v4.37c0 .69-.56 1.25-1.25 1.25h-13.2c-.69 0-1.25-.56-1.25-1.25V65.9c0-.247.022-.492.067-.73H10.25C4.59 65.17 0 60.58 0 54.92V10.25C0 4.59 4.59 0 10.25 0H64.5c5.66 0 10.25 4.59 10.25 10.25v44.67c0 5.66-4.59 10.25-10.25 10.25zm-3.476 0H50.726a.536.536 0 0 0-.04.049c-.09.124-.186.36-.186.681v3.12h10.75V65.9c0-.321-.096-.557-.186-.681a.628.628 0 0 0-.04-.049zm-45.998 0a.536.536 0 0 0-.04.049c-.09.124-.186.36-.186.681v3.12h10.7V65.9c0-.321-.096-.557-.186-.681a.536.536 0 0 0-.04-.049H15.026zM40.86 31.58a7.87 7.87 0 1 1 15.74 0 7.87 7.87 0 0 1-15.74 0zm7.87-10.37c-5.727 0-10.37 4.643-10.37 10.37 0 5.727 4.643 10.37 10.37 10.37 5.727 0 10.37-4.643 10.37-10.37 0-5.727-4.643-10.37-10.37-10.37zm-2.5 10.37c0-.69.56-1.25 1.25-1.25h3.25a1.25 1.25 0 1 1 0 2.5h-3.25c-.69 0-1.25-.56-1.25-1.25zM9.47 40.83c-.047 0-.093.003-.14.008a4.44 4.44 0 0 0 0 8.824c.047.005.093.008.14.008h.694a10.25 10.25 0 0 0 9.704 7H57.5a10.25 10.25 0 0 0 10.25-10.25V18.76A10.25 10.25 0 0 0 57.5 8.51H19.87a10.25 10.25 0 0 0-10.225 9.53H9.47c-.024 0-.049 0-.073.002a4.251 4.251 0 0 0-3.999 4.418 4.25 4.25 0 0 0 4.072 4.42h.15v13.95h-.15zm2.65 0V26.88h1.35c.024 0 .049 0 .073-.002a4.251 4.251 0 0 0 3.998-4.418 4.253 4.253 0 0 0-3.998-4.418 1.267 1.267 0 0 0-.073-.002h-1.317a7.75 7.75 0 0 1 7.717-7.03H57.5a7.75 7.75 0 0 1 7.75 7.75v27.66a7.75 7.75 0 0 1-7.75 7.75H19.872a7.75 7.75 0 0 1-7.023-4.5h.665l.029-.002a4.25 4.25 0 0 0 4-4.12 4.467 4.467 0 0 0 0-.596 4.253 4.253 0 0 0-4.036-4.121l-.037-.001h-1.35zm-1.25 2.5H9.549a1.94 1.94 0 0 0 0 3.84h3.842a1.94 1.94 0 0 0 1.654-1.742c0-.035 0-.07-.003-.105h.01a1.939 1.939 0 0 0 0-.145l-.01-.001.003-.105a1.94 1.94 0 0 0-1.654-1.742H10.87zm0-18.95h2.559a1.75 1.75 0 0 0 1.174-.582 1.75 1.75 0 0 0 .44-1.265 1.27 1.27 0 0 1 0-.146 1.75 1.75 0 0 0-1.614-1.847H9.511a1.75 1.75 0 0 0-1.613 1.847c.003.049.003.097 0 .146A1.75 1.75 0 0 0 9.51 24.38h1.359z"/></symbol></svg>