<?xml version="1.0" encoding="utf-8"?><svg xmlns="http://www.w3.org/2000/svg" xmlns:xlink="http://www.w3.org/1999/xlink"><symbol viewBox="0 0 74.75 71.52" id="1" xmlns="http://www.w3.org/2000/svg"><defs><style>.acls-1{fill:none;stroke:#231f20;stroke-linecap:round;stroke-linejoin:round;stroke-width:2.5px}</style></defs><g id="aСлой_2" data-name="Слой 2"><g id="aIcons"><rect class="acls-1" x="1.25" y="1.25" width="72.25" height="62.67" rx="9" ry="9"/><path class="acls-1" d="M26.75 65.9c0-1.11-.65-2-1.45-2H15c-.8 0-1.45.89-1.45 2v4.37h13.2zm35.75 0c0-1.11-.65-2-1.45-2H50.7c-.8 0-1.45.89-1.45 2v4.37H62.5z"/><circle class="acls-1" cx="48.73" cy="31.58" r="9.12"/><path class="acls-1" d="M47.48 31.58h3.25M16.29 45.25a3 3 0 0 0-2.82-3.17h-4a3.19 3.19 0 0 0 0 6.34h4a3 3 0 0 0 2.82-3.17zm0-22.79a3 3 0 0 0-2.82-3.17h-4a3 3 0 0 0-2.82 3.17 3 3 0 0 0 2.82 3.17h4a3 3 0 0 0 2.82-3.17z"/><path class="acls-1" d="M57.5 9.76H19.87a9 9 0 0 0-9 9v.53h2.6a3 3 0 0 1 2.82 3.17 3 3 0 0 1-2.82 3.17h-2.6v16.45h2.6a3.19 3.19 0 0 1 0 6.34h-2.36a9 9 0 0 0 8.76 7H57.5a9 9 0 0 0 9-9V18.76a9 9 0 0 0-9-9z"/></g></g></symbol><symbol viewBox="0 0 32 23" id="arrow-left" xmlns="http://www.w3.org/2000/svg"><path d="M10.274.333a1.112 1.112 0 0 1 1.587 0 1.12 1.12 0 0 1 0 1.571L3.814 9.951h26.554c.619 0 1.127.492 1.127 1.111s-.508 1.127-1.127 1.127H3.814l8.047 8.032c.429.444.429 1.159 0 1.587a1.112 1.112 0 0 1-1.587 0L.322 11.856a1.12 1.12 0 0 1 0-1.571L10.274.333z"/></symbol><symbol viewBox="0 0 32 23" id="arrow-right" xmlns="http://www.w3.org/2000/svg"><path d="M21.205.333a1.112 1.112 0 0 0-1.587 0 1.12 1.12 0 0 0 0 1.571l8.047 8.047H1.111A1.106 1.106 0 0 0 0 11.063c0 .619.492 1.127 1.111 1.127h26.554l-8.047 8.032c-.429.444-.429 1.159 0 1.587a1.112 1.112 0 0 0 1.587 0l9.952-9.952a1.093 1.093 0 0 0 0-1.571L21.205.333z"/></symbol><symbol viewBox="0 0 58 76" id="calc" xmlns="http://www.w3.org/2000/svg"><path fill-rule="evenodd" clip-rule="evenodd" d="M.75 8C.75 4.01 4.01.75 8 .75h42.3c3.99 0 7.25 3.26 7.25 7.25v12c0 .69-.56 1.25-1.25 1.25H2c-.69 0-1.25-.56-1.25-1.25V8zM8 3.25C5.39 3.25 3.25 5.39 3.25 8v10.75h51.8V8c0-2.61-2.14-4.75-4.75-4.75H8z"/><path fill-rule="evenodd" clip-rule="evenodd" d="M.75 20c0-.69.56-1.25 1.25-1.25h27.2c.69 0 1.25.56 1.25 1.25v24.4c0 .69-.56 1.25-1.25 1.25H2c-.69 0-1.25-.56-1.25-1.25V20zm2.5 1.25v21.9h24.7v-21.9H3.25z"/><path fill-rule="evenodd" clip-rule="evenodd" d="M27.85 20c0-.69.56-1.25 1.25-1.25h27.2c.69 0 1.25.56 1.25 1.25v24.4c0 .69-.56 1.25-1.25 1.25H29.1c-.69 0-1.25-.56-1.25-1.25V20zm2.5 1.25v21.9h24.7v-21.9h-24.7z"/><path fill-rule="evenodd" clip-rule="evenodd" d="M.75 44.5c0-.69.56-1.25 1.25-1.25h27.2c.69 0 1.25.56 1.25 1.25v29.6c0 .69-.56 1.25-1.25 1.25H8c-3.99 0-7.25-3.26-7.25-7.25V44.5zm2.5 1.25V68.1c0 2.61 2.14 4.75 4.75 4.75h19.95v-27.1H3.25z"/><path fill-rule="evenodd" clip-rule="evenodd" d="M27.85 44.5c0-.69.56-1.25 1.25-1.25h27.2c.69 0 1.25.56 1.25 1.25v23.6c0 3.99-3.26 7.25-7.25 7.25H29.1c-.69 0-1.25-.56-1.25-1.25V44.5zm2.5 1.25v27.1H50.3c2.61 0 4.75-2.14 4.75-4.75V45.75h-24.7zM15.5 23.25c.69 0 1.25.56 1.25 1.25V40a1.25 1.25 0 1 1-2.5 0V24.5c0-.69.56-1.25 1.25-1.25z"/><path fill-rule="evenodd" clip-rule="evenodd" d="M6.55 32.3c0-.69.56-1.25 1.25-1.25h15.4a1.25 1.25 0 0 1 0 2.5H7.8c-.69 0-1.25-.56-1.25-1.25zm2.666 21.116a1.25 1.25 0 0 1 1.768 0l10.9 10.9a1.25 1.25 0 0 1-1.768 1.768l-10.9-10.9a1.25 1.25 0 0 1 0-1.768z"/><path fill-rule="evenodd" clip-rule="evenodd" d="M21.884 53.416a1.25 1.25 0 0 1 0 1.768l-10.9 10.9a1.25 1.25 0 0 1-1.768-1.768l10.9-10.9a1.25 1.25 0 0 1 1.768 0zm26.496-.704a1.25 1.25 0 0 1 .008 1.768l-10.8 10.9a1.25 1.25 0 1 1-1.776-1.76l10.8-10.9a1.25 1.25 0 0 1 1.768-.008zM33.75 32.3c0-.69.56-1.25 1.25-1.25h15.4a1.25 1.25 0 1 1 0 2.5H35c-.69 0-1.25-.56-1.25-1.25zm3.75 21.1a1.1 1.1 0 1 0 0 2.2 1.1 1.1 0 0 0 0-2.2zm-3.1 1.1a3.1 3.1 0 1 1 6.2 0 3.1 3.1 0 0 1-6.2 0zm12.7 8.6a1.1 1.1 0 1 0 0 2.2 1.1 1.1 0 0 0 0-2.2zM44 64.2a3.1 3.1 0 1 1 6.2 0 3.1 3.1 0 0 1-6.2 0zM9.1 8.2a1 1 0 0 1 1-1h23.2a1 1 0 1 1 0 2H10.1a1 1 0 0 1-1-1zm8.8 5.3a1 1 0 0 1 1-1h6.5a1 1 0 1 1 0 2h-6.5a1 1 0 0 1-1-1zm10.2 0a1 1 0 0 1 1-1h10.6a1 1 0 1 1 0 2H29.1a1 1 0 0 1-1-1z"/></symbol><symbol viewBox="0 0 118 118" id="calendar" xmlns="http://www.w3.org/2000/svg"><path d="M56.4 44.9H41.9c-.8 0-1.5-.7-1.5-1.5V28.9c0-.8.7-1.5 1.5-1.5h14.4c.8 0 1.5.7 1.5 1.5v14.4c.1.9-.6 1.6-1.4 1.6zm-12.9-3.1h11.4V30.4H43.5v11.4zm5.6-17.5c-1.7 0-3.1-1.4-3.1-3.1V3.1C46 1.4 47.4 0 49.1 0c1.7 0 3.1 1.4 3.1 3.1v18.1c0 1.7-1.4 3.1-3.1 3.1zm46 0c-1.7 0-3.1-1.4-3.1-3.1V3.1C92 1.4 93.4 0 95.1 0c1.7 0 3.1 1.4 3.1 3.1v18.1c-.1 1.7-1.4 3.1-3.1 3.1zm11.7 57.8c-1.7-.1-3-1.5-2.9-3.2.1-1.6 1.3-2.8 2.9-2.9 2.4 0 4.5-2.7 4.5-5.8 0-1.7 1.4-3.1 3.1-3.1 1.7 0 3.1 1.4 3.1 3.1-.1 6.5-4.8 11.9-10.7 11.9zm-77-58c-1.7 0-3.1-1.4-3.1-3.1 0-6.6 4.8-12 10.6-12 1.7.1 3 1.5 2.9 3.2-.1 1.6-1.3 2.8-2.9 2.9-2.4 0-4.5 2.7-4.5 5.8.1 1.8-1.2 3.2-3 3.2.1 0 .1 0 0 0zm84.6 0c-1.7 0-3.1-1.4-3.1-3.1 0-3.2-2.1-5.8-4.5-5.8-1.7.1-3.1-1.2-3.2-2.9-.1-1.7 1.2-3.1 2.9-3.2h.4c5.9 0 10.6 5.4 10.6 12-.1 1.6-1.4 3-3.1 3z"/><path d="M114.4 73.2c-1.7 0-3.1-1.4-3.1-3.1V21c0-1.7 1.4-3.1 3.1-3.1 1.7 0 3.1 1.4 3.1 3.1v49.1c-.1 1.7-1.4 3.1-3.1 3.1zm-7.6 8.9H68.5c-1.7.1-3.1-1.2-3.2-2.9-.1-1.7 1.2-3.1 2.9-3.2h38.7c1.7-.1 3.1 1.2 3.2 2.9.1 1.7-1.2 3.1-2.9 3.2h-.4zm-77-29.4c-1.7 0-3.1-1.4-3.1-3V21c0-1.7 1.4-3.1 3.1-3.1 1.7 0 3.1 1.4 3.1 3.1v28.6c0 1.7-1.4 3.1-3.1 3.1zm77-37.5H37.4c-1.7.1-3.1-1.2-3.2-2.9-.1-1.7 1.2-3.1 2.9-3.2h69.8c1.7-.1 3.1 1.2 3.2 2.9.1 1.7-1.2 3.1-2.9 3.2h-.4zM79.3 44.9H64.9c-.9 0-1.5-.7-1.5-1.5V28.9c0-.8.7-1.5 1.5-1.5h14.4c.8 0 1.5.7 1.5 1.5v14.4c.1.9-.6 1.6-1.5 1.6zm-12.9-3.1h11.4V30.4H66.4v11.4zm12.9 27.7H64.9c-.9 0-1.5-.7-1.5-1.5V53.5c0-.8.7-1.5 1.5-1.5h14.4c.8 0 1.5.7 1.5 1.5v14.4c.1.9-.6 1.6-1.5 1.6zm-12.9-3.1h11.4V55H66.4v11.4zm35.9-21.5H87.8c-.8 0-1.5-.7-1.5-1.5V28.9c0-.8.7-1.5 1.5-1.5h14.4c.8 0 1.5.7 1.5 1.5v14.4c.1.9-.6 1.6-1.4 1.6zm-12.9-3.1h11.4V30.4H89.4v11.4zm12.9 27.7H87.8c-.8 0-1.5-.7-1.5-1.5V53.5c0-.8.7-1.5 1.5-1.5h14.4c.8 0 1.5.7 1.5 1.5v14.4c.1.9-.6 1.6-1.4 1.6zm-12.9-3.1h11.4V55H89.4v11.4z"/><path d="M35.8 117.6C16 117.6 0 101.6 0 81.8 0 62 16 46 35.8 46c18.6 0 34.1 14.3 35.7 32.8.1 1 .1 2 .1 3 0 19.8-16 35.8-35.8 35.8zm0-65.5c-16.4 0-29.7 13.3-29.7 29.7s13.3 29.7 29.7 29.7 29.7-13.3 29.7-29.7c0-.8 0-1.7-.1-2.5C64 64 51.2 52.2 35.8 52.1z"/><path d="M35.8 85.6c5 0 5-7.7 0-7.7s-4.9 7.7 0 7.7z"/><path d="M35.8 87.2c-2.8.1-5.2-2.2-5.2-5v-.3c0-1.3.4-2.6 1.3-3.6 2-2.2 5.3-2.3 7.5-.4 1.1 1 1.8 2.5 1.7 4 0 1.3-.5 2.6-1.3 3.6-1 1.1-2.5 1.7-4 1.7zm0-7.7c-.6 0-1.2.2-1.6.7-.4.5-.6 1-.6 1.6-.1 1.2.8 2.2 2 2.3h.2c.6 0 1.2-.2 1.6-.7.4-.5.6-1 .6-1.6.1-1.2-.8-2.2-2-2.3h-.2z"/><path d="M36.651 69.598l-2.295 11.778 3.042.593 2.296-11.778-3.043-.593z"/><path d="M35.8 83.2h-.3c-.8-.2-1.4-1-1.2-1.8l2.3-11.8c.2-.8 1-1.3 1.8-1.1.8.2 1.3.9 1.2 1.7L37.3 82c-.1.7-.8 1.2-1.5 1.2z"/><path d="M55.2 80.3H35.8v3.1h19.4v-3.1z"/><path d="M55.2 83.3H35.8c-.8 0-1.5-.7-1.5-1.5s.7-1.5 1.5-1.5h19.4c.8 0 1.5.7 1.5 1.5s-.6 1.5-1.5 1.5z"/></symbol><symbol viewBox="0 0 60 27" id="car" xmlns="http://www.w3.org/2000/svg"><path fill-rule="evenodd" clip-rule="evenodd" d="M26.93.306c3.402-.32 6.8.744 9.452 2.972l.002.001 6.284 5.302 13.355 4.155.014.005c1.803.6 3.113 2.385 3.113 4.311v4a.75.75 0 0 1-.75.75h-4.9a.75.75 0 1 1 0-1.5h4.15v-3.25c0-1.27-.886-2.485-2.08-2.886L42.077 9.968a.75.75 0 0 1-.26-.143l-6.4-5.398v-.001a11.328 11.328 0 0 0-8.344-2.627L10.94 3.46l-5.305 8.392a.727.727 0 0 1-.034.05c-.493.656-.75 1.494-.75 2.35v4.8a.75.75 0 1 1-1.5 0v-4.8c0-1.136.337-2.287 1.031-3.226L9.867 2.35a.75.75 0 0 1 .557-.345L26.93.306z"/><path fill-rule="evenodd" clip-rule="evenodd" d="M20.05 21.052a.75.75 0 0 1 .75-.75h23.9a.75.75 0 0 1 0 1.5H20.8a.75.75 0 0 1-.75-.75zM.262 19.619a.75.75 0 0 1 .871-.605l7.2 1.3a.75.75 0 1 1-.266 1.476l-7.2-1.3a.75.75 0 0 1-.605-.871z"/><path fill-rule="evenodd" clip-rule="evenodd" d="M12.5 17.502a3.55 3.55 0 1 0 0 7.1 3.55 3.55 0 0 0 0-7.1zm-5.05 3.55a5.05 5.05 0 1 1 10.1 0 5.05 5.05 0 0 1-10.1 0zM49 17.502a3.55 3.55 0 1 0 0 7.1 3.55 3.55 0 0 0 0-7.1zm-5.05 3.55a5.05 5.05 0 1 1 10.1 0 5.05 5.05 0 0 1-10.1 0zM26.108.408a.75.75 0 0 1 .836.652l1.2 9.7a.71.71 0 0 1 .006.092v10.2a.75.75 0 1 1-1.5 0V10.9l-1.194-9.655a.75.75 0 0 1 .652-.836z"/><path fill-rule="evenodd" clip-rule="evenodd" d="M7.981 1.029A.75.75 0 0 1 9.024.833l1.9 1.3a.75.75 0 0 1 .163.152l.013.017.042.052.162.2a70.822 70.822 0 0 0 2.5 2.905c.73.798 1.495 1.584 2.168 2.17.336.295.634.525.88.68.124.078.223.13.298.162a.59.59 0 0 0 .092.031H42.3a.75.75 0 0 1 0 1.5H17.2l-.047-.001c-.397-.025-.786-.224-1.1-.422a8.937 8.937 0 0 1-1.068-.82c-.734-.64-1.544-1.474-2.288-2.288a68.517 68.517 0 0 1-2.712-3.163L8.177 2.071A.75.75 0 0 1 7.98 1.03z"/></symbol><symbol viewBox="0 0 72 58" id="check" xmlns="http://www.w3.org/2000/svg"><path d="M71.3 7.8L64 .6c-.8-.8-2-.8-2.8 0L23.9 37.8 10.6 24.5c-.8-.8-2-.8-2.8 0L.6 31.7c-.4.5-.6 1-.6 1.5s.2 1 .6 1.4l21.9 21.9c.8.8 2 .8 2.8 0l45.9-45.9c.4-.4.6-.9.6-1.4.1-.5-.2-1-.5-1.4z"/></symbol><symbol viewBox="0 0 74 77" id="document" xmlns="http://www.w3.org/2000/svg"><path fill-rule="evenodd" clip-rule="evenodd" d="M.75 2C.75 1.31 1.31.75 2 .75h40c.331 0 .65.132.884.366l14.4 14.4c.234.235.366.553.366.884V75c0 .69-.56 1.25-1.25 1.25H2c-.69 0-1.25-.56-1.25-1.25V2zm2.5 1.25v70.5h51.9V16.918L41.482 3.25H3.25z"/><path fill-rule="evenodd" clip-rule="evenodd" d="M41.522.845a1.25 1.25 0 0 1 1.362.271l14.4 14.4a1.25 1.25 0 0 1-.884 2.134H42c-.69 0-1.25-.56-1.25-1.25V2c0-.506.305-.961.772-1.155zm1.728 4.173V15.15h10.132L43.25 5.018zM15.052 9.45c.048 0 .096 0 .144.004 3.239.249 5.755 2.98 5.655 6.246.098 3.224-2.384 6.121-5.703 6.25a1.283 1.283 0 0 1-.096 0c-3.267-.127-5.915-2.98-5.703-6.274-.086-3.215 2.392-6.098 5.703-6.225zm.025 2.503c-1.832.11-3.302 1.768-3.228 3.699.002.048.001.096-.003.144-.143 1.86 1.367 3.553 3.254 3.653 1.842-.099 3.325-1.761 3.25-3.7a1.283 1.283 0 0 1 0-.097c.074-1.89-1.364-3.515-3.273-3.7z"/><path fill-rule="evenodd" clip-rule="evenodd" d="M8.995 20.386c.347-.485.937-.936 1.705-.936h8.8c.849 0 1.449.51 1.78 1.029.325.512.47 1.13.47 1.721v6.6c0 .69-.56 1.25-1.25 1.25H9.7c-.69 0-1.25-.56-1.25-1.25v-6.6c0-.675.187-1.313.545-1.814zm1.987 1.564a.898.898 0 0 0-.032.25v5.35h8.3V22.2c0-.096-.012-.18-.03-.25h-8.238zM46 39.75H16.9v-2.5H46v2.5zm0 9H10.6v-2.5H46v2.5zm0 9.2H10.6v-2.5H46v2.5zm0 9.2H10.6v-2.5H46v2.5zM62.75 15.1c0-.69.56-1.25 1.25-1.25h8.7c.69 0 1.25.56 1.25 1.25v43.7c0 .69-.56 1.25-1.25 1.25H64c-.69 0-1.25-.56-1.25-1.25V15.1zm2.5 1.25v41.2h6.2v-41.2h-6.2z"/><path fill-rule="evenodd" clip-rule="evenodd" d="M62.75 58.8c0-.69.56-1.25 1.25-1.25h8.7c.69 0 1.25.56 1.25 1.25v16.4c0 .69-.56 1.25-1.25 1.25H64c-.69 0-1.25-.56-1.25-1.25V58.8zm2.5 1.25v13.9h6.2v-13.9h-6.2z"/><path fill-rule="evenodd" clip-rule="evenodd" d="M67.4 67.9v-31h2v31h-2zm1-63.65c.69 0 1.25.56 1.25 1.25v9.6a1.25 1.25 0 1 1-2.5 0V5.5c0-.69.56-1.25 1.25-1.25zm-32.5 26.4h-5.8v-2.5h5.8v2.5zm10.1 0h-5.7v-2.5H46v2.5z"/></symbol><symbol viewBox="0 0 75 76" id="kids" xmlns="http://www.w3.org/2000/svg"><path fill-rule="evenodd" clip-rule="evenodd" d="M14.6 32.55c-4.99 0-9.35 4.614-9.35 10.55 0 5.944 4.267 10.55 9.35 10.55 5.097 0 9.45-4.622 9.45-10.55 0-5.92-4.446-10.55-9.45-10.55zM2.75 43.1c0-7.064 5.24-13.05 11.85-13.05 6.596 0 11.95 5.97 11.95 13.05 0 7.072-5.247 13.05-11.95 13.05-6.717 0-11.85-5.994-11.85-13.05z"/><path fill-rule="evenodd" clip-rule="evenodd" d="M1.626 55.19c.574-.854 1.496-1.54 2.674-1.54H25c1.178 0 2.1.686 2.674 1.54.484.717.774 1.614.854 2.57.078.164.122.347.122.54v15.6c0 .69-.56 1.25-1.25 1.25H2c-.69 0-1.25-.56-1.25-1.25V58.3c0-1.156.302-2.26.876-3.11zm24.524 3.6c-.064-.15-.1-.316-.1-.49 0-.744-.198-1.34-.45-1.714-.25-.372-.478-.436-.6-.436H4.3c-.122 0-.35.064-.6.436-.252.373-.45.97-.45 1.714v14.35h22.9V58.79z"/><path fill-rule="evenodd" clip-rule="evenodd" d="M9.295 25.068C13.245 10.726 26.337.75 41.2.75c.69 0 1.25.56 1.25 1.25v63.7c0 .69-.56 1.25-1.25 1.25-3.327 0-6.756-.52-9.984-1.56l.768-2.38c2.57.83 5.29 1.301 7.966 1.414V3.275c-13.217.54-24.705 9.602-28.245 22.457l-2.41-.664z"/><path fill-rule="evenodd" clip-rule="evenodd" d="M40.722 30.145a1.25 1.25 0 0 1 1.362.271l23.7 23.7c.47.47.49 1.224.047 1.718A33.071 33.071 0 0 1 41.2 66.85c-.69 0-1.25-.56-1.25-1.25V31.3c0-.506.305-.961.772-1.155zm1.728 4.173v30.006a30.572 30.572 0 0 0 20.713-9.293L42.45 34.318z"/><path fill-rule="evenodd" clip-rule="evenodd" d="M56.345 47.222a1.25 1.25 0 0 1 1.155-.772h12.4a1.25 1.25 0 0 1 1.126 1.792 32.33 32.33 0 0 1-5.201 7.699 1.25 1.25 0 0 1-1.809.043l-7.4-7.4a1.25 1.25 0 0 1-.27-1.362zm4.173 1.728l4.319 4.319a29.924 29.924 0 0 0 2.996-4.319h-7.315zM39.95 29.7c0-.69.56-1.25 1.25-1.25h31.5c.617 0 1.142.45 1.236 1.06.21 1.369.314 2.833.314 4.29 0 1.752-.103 3.428-.419 5.217A1.25 1.25 0 0 1 72.6 40.05H48.7a1.25 1.25 0 0 1-.884-.366l-7.5-7.5a1.25 1.25 0 0 1-.366-.884v-1.6zm2.668 1.25l6.6 6.6h22.31c.162-1.241.222-2.458.222-3.75 0-.966-.05-1.928-.148-2.85H42.618z"/><path fill-rule="evenodd" clip-rule="evenodd" d="M47.547 38.318a1.25 1.25 0 0 1 1.153-.768h24a1.25 1.25 0 0 1 1.234 1.449c-.521 3.232-1.56 6.342-2.9 9.227a1.25 1.25 0 0 1-1.134.724H57.5a1.25 1.25 0 0 1-.889-.371l-8.8-8.9a1.25 1.25 0 0 1-.264-1.36zm4.147 1.732l6.328 6.4h11.071c.903-2.054 1.628-4.2 2.1-6.4h-19.5zM39.95 21.2c0-.69.56-1.25 1.25-1.25h29.1c.494 0 .942.29 1.142.742a32.954 32.954 0 0 1 2.496 8.837A1.25 1.25 0 0 1 72.7 30.95H41.2c-.69 0-1.25-.56-1.25-1.25v-8.5zm2.5 1.25v6h28.782a30.408 30.408 0 0 0-1.757-6H42.45zM39.95 2c0-.69.56-1.25 1.25-1.25 8.632 0 16.941 3.431 23.169 9.451a1.25 1.25 0 0 1-.869 2.149H41.2c-.69 0-1.25-.56-1.25-1.25V2zm2.5 1.276V9.85h17.714C55.082 5.87 48.886 3.544 42.45 3.276z"/><path fill-rule="evenodd" clip-rule="evenodd" d="M39.95 11.2c0-.69.56-1.25 1.25-1.25h22.3c.324 0 .635.126.868.35 3.027 2.923 5.415 6.46 7.173 10.39a1.25 1.25 0 0 1-1.141 1.76H41.2c-.69 0-1.25-.56-1.25-1.25v-10zm2.5 1.25v7.5h25.961c-1.45-2.805-3.26-5.335-5.422-7.5H42.45z"/></symbol><symbol viewBox="0 0 77 74" id="map" xmlns="http://www.w3.org/2000/svg"><path fill-rule="evenodd" clip-rule="evenodd" d="M.75 26.806c0-.69.56-1.25 1.25-1.25h6.7v2.5H3.25v23.2h38.5v-23.2H33.7v-2.5H43c.69 0 1.25.56 1.25 1.25v25.7c0 .69-.56 1.25-1.25 1.25H2c-.69 0-1.25-.56-1.25-1.25v-25.7z"/><path fill-rule="evenodd" clip-rule="evenodd" d="M41.75 26.806c0-.69.56-1.25 1.25-1.25h31.8c.69 0 1.25.56 1.25 1.25v25.7c0 .69-.56 1.25-1.25 1.25H43c-.69 0-1.25-.56-1.25-1.25v-25.7zm2.5 1.25v23.2h29.3v-23.2h-29.3z"/><path fill-rule="evenodd" clip-rule="evenodd" d="M58.25 52.506c0-.69.56-1.25 1.25-1.25h15.3c.69 0 1.25.56 1.25 1.25v19.6c0 .69-.56 1.25-1.25 1.25H59.5c-.69 0-1.25-.56-1.25-1.25v-19.6zm2.5 1.25v17.1h12.8v-17.1h-12.8zm-60-1.25c0-.69.56-1.25 1.25-1.25h24.1a1.25 1.25 0 0 1 1.015 1.98l-14.1 19.6a1.25 1.25 0 0 1-1.015.52H2c-.69 0-1.25-.56-1.25-1.25v-19.6zm2.5 1.25v17.1h8.11l12.3-17.1H3.25z"/><path fill-rule="evenodd" clip-rule="evenodd" d="M25.085 51.776a1.25 1.25 0 0 1 1.015-.52h33.4c.69 0 1.25.56 1.25 1.25v19.6c0 .69-.56 1.25-1.25 1.25H12a1.25 1.25 0 0 1-1.015-1.98l14.1-19.6zm1.656 1.98l-12.302 17.1H58.25v-17.1H26.74zM20.56.757c6.893-.223 12.667 5.222 12.89 12.109v.04c0 .332-.073.725-.157 1.095-.09.396-.22.866-.377 1.39a86.001 86.001 0 0 1-1.288 3.86c-1.057 2.976-2.462 6.662-3.864 10.247a908.761 908.761 0 0 1-5.482 13.676l-.126.307L21 43.006l-1.155.478-.127-.309a813.622 813.622 0 0 1-1.641-4.007 937.869 937.869 0 0 1-3.89-9.704c-1.414-3.591-2.832-7.28-3.898-10.252a87.625 87.625 0 0 1-1.3-3.845c-.158-.52-.288-.986-.38-1.377-.084-.362-.159-.754-.159-1.084v-.021C8.562 6.3 13.912.978 20.558.757h.002zM21 43.006l-1.155.478a1.25 1.25 0 0 0 2.311-.003L21 43.006zm-.003-3.298a956.265 956.265 0 0 0 4.439-11.12c1.398-3.577 2.793-7.235 3.836-10.174.522-1.47.952-2.749 1.25-3.741.148-.497.26-.909.334-1.23.036-.16.061-.288.077-.387a1.95 1.95 0 0 0 .017-.141c-.195-5.499-4.814-9.837-10.309-9.66-5.346.179-9.592 4.446-9.69 9.653 0 .01.003.051.016.133.015.096.04.222.077.38.074.316.187.724.337 1.218.3.986.734 2.26 1.261 3.73 1.053 2.934 2.46 6.595 3.871 10.179a938.391 938.391 0 0 0 4.484 11.16z"/><path fill-rule="evenodd" clip-rule="evenodd" d="M20.752 7.157l.048-.001c3.255 0 5.95 2.525 5.95 5.85 0 3.299-2.558 5.824-5.802 5.949-3.379.13-5.874-2.603-5.997-5.801l-.001-.048c0-3.299 2.558-5.824 5.802-5.95zm.072 2.499c-1.936.086-3.362 1.544-3.374 3.426.088 1.99 1.588 3.445 3.402 3.375 1.956-.075 3.398-1.55 3.398-3.451 0-1.867-1.493-3.338-3.426-3.35z"/></symbol><symbol viewBox="0 0 94 58" id="money" xmlns="http://www.w3.org/2000/svg"><path fill-rule="evenodd" clip-rule="evenodd" d="M.75 2C.75 1.31 1.31.75 2 .75h72.3c.69 0 1.25.56 1.25 1.25v37c0 .69-.56 1.25-1.25 1.25H2c-.69 0-1.25-.56-1.25-1.25V2zm2.5 1.25v34.5h69.8V3.25H3.25z"/><path fill-rule="evenodd" clip-rule="evenodd" d="M7.35 8.7c0-.69.56-1.25 1.25-1.25h5.9a1.25 1.25 0 1 1 0 2.5H9.85v3.75a1.25 1.25 0 1 1-2.5 0v-5zm52.5 0c0-.69.56-1.25 1.25-1.25H67c.69 0 1.25.56 1.25 1.25v5a1.25 1.25 0 1 1-2.5 0V9.95H61.1c-.69 0-1.25-.56-1.25-1.25zM67 26.15c.69 0 1.25.56 1.25 1.25v5c0 .69-.56 1.25-1.25 1.25h-5.9a1.25 1.25 0 0 1 0-2.5h4.65V27.4c0-.69.56-1.25 1.25-1.25zm-58.4 0c.69 0 1.25.56 1.25 1.25v3.75h4.65a1.25 1.25 0 1 1 0 2.5H8.6c-.69 0-1.25-.56-1.25-1.25v-5c0-.69.56-1.25 1.25-1.25zm29.5-13.7a8.05 8.05 0 1 0 0 16.1 8.05 8.05 0 0 0 0-16.1zM27.55 20.5c0-5.827 4.723-10.55 10.55-10.55 5.827 0 10.55 4.723 10.55 10.55 0 5.827-4.723 10.55-10.55 10.55-5.827 0-10.55-4.723-10.55-10.55z"/><path fill-rule="evenodd" clip-rule="evenodd" d="M83 .75c.69 0 1.25.56 1.25 1.25v44.5c0 .69-.56 1.25-1.25 1.25H11.5a1.25 1.25 0 1 1 0-2.5h70.25V2c0-.69.56-1.25 1.25-1.25z"/><path fill-rule="evenodd" clip-rule="evenodd" d="M92.5 9.95c.69 0 1.25.56 1.25 1.25V56c0 .69-.56 1.25-1.25 1.25h-72a1.25 1.25 0 1 1 0-2.5h70.75V11.2c0-.69.56-1.25 1.25-1.25z"/></symbol><symbol viewBox="0 0 460 258" id="pdf" xmlns="http://www.w3.org/2000/svg"><path fill-rule="evenodd" clip-rule="evenodd" d="M108.7 5a5 5 0 0 1 5-5h99.5a5 5 0 0 1 0 10h-99.5a5 5 0 0 1-5-5z"/><path fill-rule="evenodd" clip-rule="evenodd" d="M208.2 5a5 5 0 0 1 5-5c9.961 0 18.1 8.139 18.1 18.1a5 5 0 0 1-10 0c0-4.439-3.661-8.1-8.1-8.1a5 5 0 0 1-5-5z"/><path fill-rule="evenodd" clip-rule="evenodd" d="M226.3 13.1a5 5 0 0 1 5 5v182.6a5 5 0 0 1-10 0V18.1a5 5 0 0 1 5-5z"/><path fill-rule="evenodd" clip-rule="evenodd" d="M226.3 195.7a5 5 0 0 1 5 5c0 9.961-8.139 18.1-18.1 18.1a5 5 0 0 1 0-10c4.439 0 8.1-3.661 8.1-8.1a5 5 0 0 1 5-5z"/><path fill-rule="evenodd" clip-rule="evenodd" d="M65 213.8a5 5 0 0 1 5-5h143.2a5 5 0 0 1 0 10H70a5 5 0 0 1-5-5z"/><path fill-rule="evenodd" clip-rule="evenodd" d="M56.9 195.7a5 5 0 0 1 5 5c0 4.439 3.661 8.1 8.1 8.1a5 5 0 0 1 0 10c-9.961 0-18.1-8.139-18.1-18.1a5 5 0 0 1 5-5z"/><path fill-rule="evenodd" clip-rule="evenodd" d="M117.372 1.606a5 5 0 0 1-.278 7.066L61.9 59.687V200.7a5 5 0 0 1-10 0V57.5a5 5 0 0 1 1.606-3.672l56.8-52.5a5 5 0 0 1 7.066.278z"/><path fill-rule="evenodd" clip-rule="evenodd" d="M116.3 0a5 5 0 0 1 5 5v47.3a5 5 0 0 1-10 0V5a5 5 0 0 1 5-5z"/><path fill-rule="evenodd" clip-rule="evenodd" d="M116.432 47.302a5 5 0 0 1 4.866 5.13c-.17 6.458-5.408 11.696-11.866 11.866a5 5 0 1 1-.264-9.996c1.142-.03 2.104-.992 2.134-2.133a5 5 0 0 1 5.13-4.867z"/><path fill-rule="evenodd" clip-rule="evenodd" d="M51.9 59.3a5 5 0 0 1 5-5h52.4a5 5 0 0 1 0 10H56.9a5 5 0 0 1-5-5zm202.9 64.8a5 5 0 0 1 5-5h175.9a5 5 0 0 1 0 10H259.8a5 5 0 0 1-5-5z"/><path fill-rule="evenodd" clip-rule="evenodd" d="M430.7 124.1a5 5 0 0 1 5-5 24.248 24.248 0 0 1 24.3 24.3 5 5 0 0 1-10 0c0-7.939-6.361-14.3-14.3-14.3a5 5 0 0 1-5-5z"/><path fill-rule="evenodd" clip-rule="evenodd" d="M455 138.4a5 5 0 0 1 5 5v90a5 5 0 0 1-10 0v-90a5 5 0 0 1 5-5z"/><path fill-rule="evenodd" clip-rule="evenodd" d="M455 228.4a5 5 0 0 1 5 5c0 13.328-10.805 24.3-24.2 24.3a5 5 0 0 1 0-10c7.805 0 14.2-6.428 14.2-14.3a5 5 0 0 1 5-5z"/><path fill-rule="evenodd" clip-rule="evenodd" d="M19.3 252.7a5 5 0 0 1 5-5h411.4a5 5 0 0 1 0 10H24.3a5 5 0 0 1-5-5z"/><path fill-rule="evenodd" clip-rule="evenodd" d="M5 228.4a5 5 0 0 1 5 5c0 7.855 6.378 14.3 14.3 14.3a5 5 0 0 1 0 10C10.822 257.7 0 246.745 0 233.4a5 5 0 0 1 5-5z"/><path fill-rule="evenodd" clip-rule="evenodd" d="M5 138.4a5 5 0 0 1 5 5v90a5 5 0 0 1-10 0v-90a5 5 0 0 1 5-5z"/><path fill-rule="evenodd" clip-rule="evenodd" d="M24.3 129.1c-7.939 0-14.3 6.361-14.3 14.3a5 5 0 0 1-10 0 24.248 24.248 0 0 1 24.3-24.3 5 5 0 0 1 0 10z"/><path d="M299.2 164c4.1 3.4 6.2 8.7 6.2 15.9 0 7.2-2.1 12.4-6.3 15.7-4.2 3.3-10.6 5-19.3 5h-10.5v17.3h-10v-59.1h20.3c9 0 15.5 1.8 19.6 5.2zm-7 24.4c2-2.1 3-5.2 3-9.3 0-4.1-1.3-7-3.8-8.7-2.5-1.7-6.5-2.5-12-2.5h-10.1v23.7h11.6c5.5 0 9.2-1.1 11.3-3.2zm69.7-21.8c5.7 5.1 8.5 12.3 8.5 21.5s-2.8 16.4-8.3 21.8c-5.5 5.4-14 8-25.4 8h-19.6v-59.1h20.3c10.6 0 18.8 2.6 24.5 7.8zm-1.6 21.7c0-13.5-7.8-20.3-23.3-20.3h-10v40.5h11.1c7.1 0 12.6-1.7 16.5-5.1 3.9-3.4 5.8-8.4 5.7-15.1zm32.9-20.2v16.3h26.2v9.2h-26.2v24.3h-9.9v-59.1h39.3v9.3h-29.4z"/><path fill-rule="evenodd" clip-rule="evenodd" d="M143.4 60.7a5 5 0 0 1 5 5v116.8a5 5 0 0 1-10 0V65.7a5 5 0 0 1 5-5z"/><path fill-rule="evenodd" clip-rule="evenodd" d="M183.831 141.96a5 5 0 0 1 .009 7.071l-36.9 37a5 5 0 0 1-7.08-7.062l36.9-37a5 5 0 0 1 7.071-.009z"/><path fill-rule="evenodd" clip-rule="evenodd" d="M99.365 138.464a5.002 5.002 0 0 1 7.071 0l40.5 40.5a5.002 5.002 0 0 1 0 7.072 5.002 5.002 0 0 1-7.072 0l-40.5-40.5a5.001 5.001 0 0 1 0-7.072z"/></symbol><symbol viewBox="0 0 42 42" id="plus" xmlns="http://www.w3.org/2000/svg"><path d="M42 20H22V0h-2v20H0v2h20v20h2V22h20v-2z"/></symbol><symbol viewBox="0 0 75 72" id="preimusetva1" xmlns="http://www.w3.org/2000/svg"><g clip-path="url(#na)" fill-rule="evenodd" clip-rule="evenodd"><path d="M10.3 2.45c-4.3 0-7.75 3.531-7.75 7.75v44.7c0 4.31 3.44 7.75 7.75 7.75h54.3c4.31 0 7.75-3.44 7.75-7.75V10.2c0-4.31-3.44-7.75-7.75-7.75H10.3zM.05 10.2C.05 4.619 4.6-.05 10.3-.05h54.3c5.69 0 10.25 4.56 10.25 10.25v44.7c0 5.69-4.56 10.25-10.25 10.25H10.3C4.61 65.15.05 60.59.05 54.9V10.2z"/><path d="M12.971 63.778c.418-.606 1.114-1.128 2.029-1.128h10.3c.914 0 1.642.472 2.1 1.104.444.613.65 1.383.65 2.146v4.4c0 .69-.56 1.25-1.25 1.25H13.6c-.69 0-1.25-.56-1.25-1.25v-4.4c0-.764.206-1.52.621-2.122zm2.058 1.42c-.085.123-.179.366-.179.702v3.15h10.7V65.9c0-.337-.094-.567-.175-.68a.244.244 0 0 0-.068-.07m-10.278.047a.468.468 0 0 1 .036-.047zm.06-.069l-.006.005c.003-.004.006-.005.006-.005zm33.565-1.396c.443-.584 1.154-1.082 2.046-1.082H61c.891 0 1.603.498 2.046 1.082a3.6 3.6 0 0 1 .704 2.168v4.4c0 .69-.56 1.25-1.25 1.25H49.2c-.69 0-1.25-.56-1.25-1.25v-4.4a3.6 3.6 0 0 1 .704-2.168zm1.992 1.511a1.107 1.107 0 0 0-.196.657v3.15h10.8V65.9c0-.293-.095-.524-.196-.657a.405.405 0 0 0-.09-.093H50.737a.405.405 0 0 0-.091.093zm.105-.1l-.006.002.006-.003zm10.198 0l.006.002a.018.018 0 0 1-.006-.003zM48.7 23.75a7.85 7.85 0 1 0 0 15.7 7.85 7.85 0 0 0 0-15.7zM38.35 31.6c0-5.716 4.634-10.35 10.35-10.35 5.716 0 10.35 4.634 10.35 10.35 0 5.716-4.634 10.35-10.35 10.35-5.716 0-10.35-4.634-10.35-10.35z"/><path d="M46.25 31.6c0-.69.56-1.25 1.25-1.25h3.2a1.25 1.25 0 0 1 0 2.5h-3.2c-.69 0-1.25-.56-1.25-1.25zM9.362 40.758c.046-.005.092-.008.138-.008h4c.026 0 .052 0 .078.002 2.256.142 4.073 2.086 3.974 4.448.098 2.345-1.716 4.35-4.052 4.35h-4a1.25 1.25 0 0 1-.165-.011c-2.06-.275-3.6-1.815-3.874-3.874l-.002-.019a4.398 4.398 0 0 1 3.903-4.888zm5.69 4.517c.06 1.023-.713 1.775-1.552 1.775H9.592c-.899-.149-1.526-.794-1.652-1.706a1.897 1.897 0 0 1 1.637-2.094h3.879c.905.075 1.655.884 1.596 1.877a1.197 1.197 0 0 0-.002.073v.074l.002.001zM9.427 18.052l.073-.002h4c.026 0 .052 0 .078.002 2.256.141 4.072 2.085 3.974 4.446.101 2.305-1.749 4.174-3.897 4.442-.051.007-.103.01-.155.01h-4c-.026 0-.052 0-.078-.002-2.256-.141-4.073-2.086-3.974-4.448-.1-2.331 1.589-4.307 3.979-4.448zm.114 2.498c-.968.073-1.653.851-1.593 1.877.003.049.003.098 0 .146-.059.993.691 1.802 1.596 1.877h3.869c.992-.158 1.692-1.03 1.64-1.872a1.254 1.254 0 0 1 0-.151c.058-.993-.692-1.802-1.598-1.877H9.542z"/><path d="M9.65 18.8c0-5.69 4.56-10.25 10.25-10.25h37.6c5.69 0 10.25 4.56 10.25 10.25v27.7c0 5.69-4.56 10.25-10.25 10.25H19.9c-4.77 0-8.992-3.293-10.02-7.982a1.25 1.25 0 0 1 1.22-1.518h2.308c.899-.149 1.526-.794 1.652-1.705a1.897 1.897 0 0 0-1.637-2.095H10.9c-.69 0-1.25-.56-1.25-1.25V25.7c0-.69.56-1.25 1.25-1.25h2.556c.905-.075 1.655-.884 1.596-1.877a1.24 1.24 0 0 1 0-.146c.06-1.026-.625-1.804-1.593-1.877H10.9c-.69 0-1.25-.56-1.25-1.25v-.5zm2.535-.75H13.5c.024 0 .049 0 .073.002 2.39.14 4.079 2.117 3.979 4.448.099 2.362-1.718 4.306-3.974 4.448a1.27 1.27 0 0 1-.078.002h-1.35v14h1.35c.046 0 .092.003.138.008a4.398 4.398 0 0 1 3.903 4.888l-.002.02c-.274 2.059-1.815 3.599-3.874 3.873-.055.007-.11.011-.165.011h-.671c1.234 2.694 3.99 4.5 7.071 4.5h37.6c4.31 0 7.75-3.44 7.75-7.75V18.8c0-4.31-3.44-7.75-7.75-7.75H19.9a7.708 7.708 0 0 0-7.715 7z"/></g><defs><clipPath id="na"><path d="M0 0h74.8v71.5H0z"/></clipPath></defs></symbol><symbol viewBox="0 0 82 86" id="preimusetva2" xmlns="http://www.w3.org/2000/svg"><g clip-path="url(#oa)"><path fill-rule="evenodd" clip-rule="evenodd" d="M41.656.204a1.25 1.25 0 0 0-1.513.001L3.68 27.95H3.4c-1.83 0-3.29 1.278-3.446 3.146a1.22 1.22 0 0 0-.004.104v4.1c0 .69.56 1.25 1.25 1.25h9.341c-.06.239-.091.49-.091.75v1c0 1.399.92 2.525 2.1 3.003v24.494c-1.195.487-2.1 1.651-2.1 3.103v1c0 .332.047.648.135.945C9.18 71.218 8.15 72.535 8.15 74v2.85H6.2c-1.83 0-3.25 1.5-3.25 3.35v4.1c0 .69.56 1.25 1.25 1.25h73.5c.69 0 1.25-.56 1.25-1.25v-4.2c0-1.705-1.277-3.25-3.15-3.25h-2.15V74c0-1.1-.546-2.159-1.486-2.758.185-.418.286-.875.286-1.342v-1c0-1.452-.905-2.616-2.1-3.103V41.321c1.231-.473 2.1-1.628 2.1-3.021v-1c0-.26-.032-.511-.091-.75H80.1c.69 0 1.25-.56 1.25-1.25v-4.1c0-.035-.001-.07-.004-.104-.146-1.751-1.438-2.983-3.106-3.131L41.656.205zM50.45 41.3a3.258 3.258 0 0 1-2-3v-1c0-.258.03-.51.087-.75H34.362c.058.24.088.492.088.75v1a3.258 3.258 0 0 1-2 3v24.5c1.188.502 2 1.7 2 3.1v1c0 .288-.04.574-.113.85h14.216a3.519 3.519 0 0 1-.103-.85v-1c0-1.4.812-2.598 2-3.1V41.3zm2.5 24.25h14.9v-23.9h-14.9v23.9zm-1.253 2.5c-.369.001-.747.301-.747.85v1c0 .55.38.85.75.85h17.4c.471 0 .85-.401.85-.85v-1a.862.862 0 0 0-.85-.85H51.697zm-21.747-2.5h-14.9v-23.9h14.9v23.9zm-17 3.35c0-.47.4-.849.847-.85h17.406c.369.001.747.301.747.85v1c0 .49-.418.85-.75.85H13.8a.862.862 0 0 1-.85-.85v-1zM69.1 34.05h9.75v-2.79c-.059-.505-.395-.81-.95-.81H3.4c-.555 0-.891.305-.95.81v2.79H69.1zM50.95 37.3c0-.408.338-.748.747-.75h17.407c.487.002.846.418.846.75v1c0 .37-.3.75-.85.75H51.7c-.41 0-.75-.34-.75-.75v-1zm-38 0c0-.332.359-.748.846-.75h17.407a.756.756 0 0 1 .747.75v1c0 .41-.34.75-.75.75H13.8c-.49 0-.85-.418-.85-.75v-1zm61.135-9.35L40.9 2.77 7.807 27.95h66.278zM41.652 7.102a1.25 1.25 0 0 0-1.504 0l-20.3 15.3a1.25 1.25 0 1 0 1.504 1.996L40.9 9.665l19.148 14.433a1.25 1.25 0 0 0 1.504-1.996l-19.9-15zM40.7 17.05c-1.51 0-2.75 1.24-2.75 2.75s1.24 2.75 2.75 2.75 2.75-1.24 2.75-2.75-1.24-2.75-2.75-2.75zm-5.25 2.75c0-2.89 2.36-5.25 5.25-5.25s5.25 2.36 5.25 5.25-2.36 5.25-5.25 5.25-5.25-2.36-5.25-5.25zm-24.8 57.05h60.5V74c0-.403-.25-.697-.62-.75H11.28c-.333.059-.63.397-.63.75v2.85zm61.75 2.5H6.2c-.37 0-.75.3-.75.85v2.85h71V80.1c0-.495-.323-.75-.65-.75h-3.4zM17.65 51.7v-5.1h2.5v5.1h-2.5zm6.4-5.1v14.3h2.5V46.6h-2.5zm30.9 5.1v-5.1h2.5v5.1h-2.5zm6.4-5.1v14.3h2.5V46.6h-2.5z"/></g><defs><clipPath id="oa"><path d="M0 0h81.4v85.5H0z"/></clipPath></defs></symbol><symbol viewBox="0 0 74 65" id="preimusetva3" xmlns="http://www.w3.org/2000/svg"><g clip-path="url(#pa)"><path fill-rule="evenodd" clip-rule="evenodd" d="M26.3-.05c-2.39 0-4.25 1.86-4.25 4.25v6.25H1.3c-.69 0-1.25.56-1.25 1.25V32c0 .134.022.268.064.395L1.3 32a89.672 89.672 0 0 0-1.185.397v.002l.001.003.003.007.005.016a1.647 1.647 0 0 0 .053.13c.03.07.072.158.129.26.112.204.28.464.528.765.416.508 1.052 1.127 2.016 1.794V60.4c0 2.39 1.86 4.25 4.25 4.25h59.7a4.33 4.33 0 0 0 4.35-4.15V35.151c.89-.62 1.478-1.197 1.866-1.686.247-.311.411-.583.519-.8a2.836 2.836 0 0 0 .156-.385l.009-.03.003-.012.005-.018.003-.009v-.004l.001-.002s0-.002-1.212-.305l1.213.303c.025-.099.037-.2.037-.303V11.7c0-.69-.56-1.25-1.25-1.25H51.85V4.2c0-2.39-1.86-4.25-4.25-4.25H26.3zm23.05 10.5V4.2c0-1.01-.74-1.75-1.75-1.75H26.3c-1.01 0-1.75.74-1.75 1.75v6.25h24.8zM4.85 33.6c2.84 2.13 9.05 5.066 22.2 6.06v-.822c-.116-2.094 1.418-4.135 3.667-4.285a1.13 1.13 0 0 1 .083-.003H43c.028 0 .056 0 .083.003 2.16.144 3.908 2.11 3.667 4.322v.785c13.15-.994 19.36-3.93 22.2-6.06.034-.026.07-.05.107-.072 1.143-.686 1.722-1.266 2.002-1.618.092-.116.153-.208.191-.273V12.95H2.55V31.7c.047.073.116.173.216.295.265.322.748.809 1.593 1.382.175.037.343.112.491.223zm24.7 7.5v-2.3c0-.028 0-.055-.003-.083-.058-.877.581-1.598 1.302-1.667h12.103c.794.074 1.408.844 1.309 1.585a1.25 1.25 0 0 0-.011.165V41c0 .227.062.448.176.64l-.075 2.115a1.09 1.09 0 0 0 .002.128c.058.877-.581 1.598-1.302 1.667H30.848c-.794-.074-1.408-.844-1.309-1.585a1.25 1.25 0 0 0 .011-.165v-2.7zM5.35 60.4V37.038c3.85 2.23 10.446 4.402 21.7 5.23v1.457c-.241 2.212 1.508 4.178 3.667 4.322.027.002.055.003.083.003h12.3c.028 0 .056 0 .083-.003 2.24-.15 3.77-2.175 3.668-4.26l.058-1.617c11.28-.825 17.886-3 21.741-5.232v23.518a1.83 1.83 0 0 1-1.85 1.694H7.1c-1.01 0-1.75-.74-1.75-1.75z"/></g><defs><clipPath id="pa"><path d="M0 0h73.9v64.7H0z"/></clipPath></defs></symbol><symbol viewBox="0 0 58 75" id="preimusetva4" xmlns="http://www.w3.org/2000/svg"><g clip-path="url(#qa)" fill-rule="evenodd" clip-rule="evenodd"><path d="M34.52.046a1.25 1.25 0 0 1 1.361.267l16.5 16.4a1.25 1.25 0 0 1-.881 2.137H35c-.69 0-1.25-.56-1.25-1.25V1.2c0-.505.304-.96.77-1.154zm1.73 4.159V16.35h12.22L36.25 4.205z"/><path d="M.05 1.2C.05.51.61-.05 1.3-.05H35c.33 0 .647.13.881.363l16.5 16.4c.236.235.369.554.369.887v12.3h-2.5V18.12L34.484 2.45H2.55v63.9H12.6v2.5H1.3c-.69 0-1.25-.56-1.25-1.25V1.2zm52.7 48.9v17.5c0 .69-.56 1.25-1.25 1.25h-18v-2.5h16.75V50.1h2.5zm5.258-16.579a1.25 1.25 0 0 0-1.547-1.524l-7.523 2.122a1.25 1.25 0 0 0-.805.363L20.66 61.955a1.25 1.25 0 0 0-.379.26l-4.596 4.596a1.25 1.25 0 0 0 0 1.768l5.728 5.728a1.25 1.25 0 0 0 1.767 0l4.28-4.28c.138-.061.267-.148.38-.26l27.789-27.79c.243-.243.365-.562.366-.882l2.013-7.574zm-6.576 2.492l2.628 2.629.968-3.644-3.596 1.015zM22.996 63.155L48.992 37.16l3.96 3.96-25.996 25.995-1.102-1.101 14.53-14.53-1.768-1.768-14.53 14.53-1.09-1.09zm-2.08 4.261l1.4-1.399-1.15-1.15-2.83 2.828 3.96 3.96 2.829-2.828-1.042-1.042-1.4 1.399-1.767-1.768zM6.8 11.35h5.6v-2.5H6.8v2.5zm14.5 0h-5.7v-2.5h5.7v2.5zm-10 8.9h18v-2.5h-18v2.5zm35.2 9H6.8v-2.5h39.7v2.5zm-39.7 9.1h31.1v-2.5H6.8v2.5z"/></g><defs><clipPath id="qa"><path d="M0 0h58v74.7H0z"/></clipPath></defs></symbol><symbol viewBox="0 0 72 70" id="preimusetva5" xmlns="http://www.w3.org/2000/svg"><g clip-path="url(#ra)"><path fill-rule="evenodd" clip-rule="evenodd" d="M36.6 2.55c-3.494 0-6.55 3.219-6.55 7.35 0 4.129 3.052 7.346 6.543 7.35h.014c3.5-.004 6.543-3.131 6.543-7.35 0-4.221-3.047-7.35-6.55-7.35zm6.043 14.7c1.858-1.814 3.007-4.45 3.007-7.35 0-5.379-3.953-9.85-9.05-9.85-5.106 0-9.05 4.581-9.05 9.85 0 2.86 1.162 5.518 3.042 7.35H28.9c-.987 0-1.752.596-2.214 1.262-.473.68-.736 1.56-.736 2.488v11.5c0 .69.56 1.25 1.25 1.25h8.15v10.832l-14.2 14.2V56.9c0-.928-.263-1.808-.736-2.488-.462-.666-1.227-1.262-2.214-1.262h-1.557c1.858-1.814 3.007-4.45 3.007-7.35 0-5.378-3.953-9.85-9.05-9.85-5.106 0-9.05 4.581-9.05 9.85 0 2.86 1.162 5.518 3.042 7.35H3c-.987 0-1.752.596-2.214 1.262-.473.68-.736 1.56-.736 2.488v11.5c0 .69.56 1.25 1.25 1.25h18.6c.69 0 1.25-.56 1.25-1.25v-6.082l15.45-15.45 14.25 14.25V68.4c0 .69.56 1.25 1.25 1.25h18.7c.69 0 1.25-.56 1.25-1.25V56.9c0-.201-.048-.392-.132-.56a4.246 4.246 0 0 0-.704-1.928c-.462-.666-1.227-1.262-2.214-1.262h-1.557c1.858-1.814 3.007-4.45 3.007-7.35 0-5.378-3.953-9.85-9.05-9.85-5.106 0-9.05 4.581-9.05 9.85 0 2.86 1.162 5.518 3.042 7.35H53.8c-.987 0-1.752.596-2.214 1.262-.473.68-.736 1.56-.736 2.488v.682l-13-13V33.75h8.05c.69 0 1.25-.56 1.25-1.25V21c0-.928-.263-1.808-.736-2.488-.462-.666-1.227-1.262-2.214-1.262h-1.557zm10.707 42.9l.034-.034-.034-.034V56.9c0-.472.137-.842.29-1.062.093-.135.16-.177.185-.188h15.15c.024.011.092.053.186.188.152.22.289.59.289 1.062 0 .174.036.34.1.49v9.76h-16.2v-7zm8.065-7h-.03c-3.487-.009-6.535-3.224-6.535-7.35 0-4.131 3.056-7.35 6.55-7.35 3.503 0 6.55 3.129 6.55 7.35 0 4.215-3.038 7.341-6.535 7.35zm-50.8 0h-.03c-3.488-.009-6.535-3.224-6.535-7.35 0-4.131 3.056-7.35 6.55-7.35 3.503 0 6.55 3.129 6.55 7.35 0 4.215-3.038 7.341-6.535 7.35zm-.033 2.5H3.025c-.024.011-.092.053-.186.188-.152.22-.289.59-.289 1.062v10.25h16.1V56.9c0-.472-.137-.842-.29-1.062-.093-.135-.16-.177-.185-.188h-7.593zm26.01-35.9h7.583c.024.011.092.053.186.188.152.22.289.59.289 1.062v10.25h-16.2V21c0-.472.137-.842.29-1.062.093-.135.16-.177.185-.188h7.667zm-7.658-.003h-.003.003zm15.232 0h.003-.003zM3.03 55.646a.037.037 0 0 0 .004 0H3.03zm15.134 0h.004a.043.043 0 0 1-.004 0zm35.67 0h-.004.003zm15.134 0h-.004.004z"/></g><defs><clipPath id="ra"><path d="M0 0h72v69.7H0z"/></clipPath></defs></symbol><symbol viewBox="0 0 75 72" id="safe" xmlns="http://www.w3.org/2000/svg"><path fill-rule="evenodd" clip-rule="evenodd" d="M2.5 10.25a7.75 7.75 0 0 1 7.75-7.75H64.5a7.75 7.75 0 0 1 7.75 7.75v44.67a7.75 7.75 0 0 1-7.75 7.75h-3.143c-.1-.013-.202-.02-.307-.02H50.7c-.105 0-.208.007-.307.02H25.607c-.1-.013-.202-.02-.307-.02H15c-.105 0-.208.007-.307.02H10.25a7.75 7.75 0 0 1-7.75-7.75V10.25zm62 54.92h-.817c.044.238.067.483.067.73v4.37c0 .69-.56 1.25-1.25 1.25H49.25c-.69 0-1.25-.56-1.25-1.25V65.9c0-.247.023-.492.067-.73H27.933c.044.238.067.483.067.73v4.37c0 .69-.56 1.25-1.25 1.25h-13.2c-.69 0-1.25-.56-1.25-1.25V65.9c0-.247.022-.492.067-.73H10.25C4.59 65.17 0 60.58 0 54.92V10.25C0 4.59 4.59 0 10.25 0H64.5c5.66 0 10.25 4.59 10.25 10.25v44.67c0 5.66-4.59 10.25-10.25 10.25zm-3.476 0H50.726a.536.536 0 0 0-.04.049c-.09.124-.186.36-.186.681v3.12h10.75V65.9c0-.321-.096-.557-.186-.681a.628.628 0 0 0-.04-.049zm-45.998 0a.536.536 0 0 0-.04.049c-.09.124-.186.36-.186.681v3.12h10.7V65.9c0-.321-.096-.557-.186-.681a.536.536 0 0 0-.04-.049H15.026zM40.86 31.58a7.87 7.87 0 1 1 15.74 0 7.87 7.87 0 0 1-15.74 0zm7.87-10.37c-5.727 0-10.37 4.643-10.37 10.37 0 5.727 4.643 10.37 10.37 10.37 5.727 0 10.37-4.643 10.37-10.37 0-5.727-4.643-10.37-10.37-10.37zm-2.5 10.37c0-.69.56-1.25 1.25-1.25h3.25a1.25 1.25 0 1 1 0 2.5h-3.25c-.69 0-1.25-.56-1.25-1.25zM9.47 40.83c-.047 0-.093.003-.14.008a4.44 4.44 0 0 0 0 8.824c.047.005.093.008.14.008h.694a10.25 10.25 0 0 0 9.704 7H57.5a10.25 10.25 0 0 0 10.25-10.25V18.76A10.25 10.25 0 0 0 57.5 8.51H19.87a10.25 10.25 0 0 0-10.225 9.53H9.47c-.024 0-.049 0-.073.002a4.251 4.251 0 0 0-3.999 4.418 4.25 4.25 0 0 0 4.072 4.42h.15v13.95h-.15zm2.65 0V26.88h1.35c.024 0 .049 0 .073-.002a4.251 4.251 0 0 0 3.998-4.418 4.253 4.253 0 0 0-3.998-4.418 1.267 1.267 0 0 0-.073-.002h-1.317a7.75 7.75 0 0 1 7.717-7.03H57.5a7.75 7.75 0 0 1 7.75 7.75v27.66a7.75 7.75 0 0 1-7.75 7.75H19.872a7.75 7.75 0 0 1-7.023-4.5h.665l.029-.002a4.25 4.25 0 0 0 4-4.12 4.467 4.467 0 0 0 0-.596 4.253 4.253 0 0 0-4.036-4.121l-.037-.001h-1.35zm-1.25 2.5H9.549a1.94 1.94 0 0 0 0 3.84h3.842a1.94 1.94 0 0 0 1.654-1.742c0-.035 0-.07-.003-.105h.01a1.939 1.939 0 0 0 0-.145l-.01-.001.003-.105a1.94 1.94 0 0 0-1.654-1.742H10.87zm0-18.95h2.559a1.75 1.75 0 0 0 1.174-.582 1.75 1.75 0 0 0 .44-1.265 1.27 1.27 0 0 1 0-.146 1.75 1.75 0 0 0-1.614-1.847H9.511a1.75 1.75 0 0 0-1.613 1.847c.003.049.003.097 0 .146A1.75 1.75 0 0 0 9.51 24.38h1.359z"/></symbol><symbol viewBox="0 0 76 70" id="time" xmlns="http://www.w3.org/2000/svg"><path fill-rule="evenodd" clip-rule="evenodd" d="M.75 8.9C.75 7.11 2.21 5.65 4 5.65h59.6c1.81 0 3.192 1.458 3.345 3.137.003.037.005.075.005.113v11c0 .69-.56 1.25-1.25 1.25H2c-.69 0-1.25-.56-1.25-1.25v-11zM4 8.15c-.41 0-.75.34-.75.75v9.75h61.2V8.968c-.067-.496-.471-.818-.85-.818H4z"/><path fill-rule="evenodd" clip-rule="evenodd" d="M.75 19.9c0-.69.56-1.25 1.25-1.25h63.6c.69 0 1.25.56 1.25 1.25v7.5h-2.5v-6.25H3.25V59.5c0 .41.34.75.75.75h30.8v2.5H4c-1.79 0-3.25-1.46-3.25-3.25V19.9zM15.8.75c.69 0 1.25.56 1.25 1.25v9.5a1.25 1.25 0 0 1-2.5 0V2c0-.69.56-1.25 1.25-1.25zm17.8 0c.69 0 1.25.56 1.25 1.25v9.5a1.25 1.25 0 0 1-2.5 0V2c0-.69.56-1.25 1.25-1.25zm18.2 0c.69 0 1.25.56 1.25 1.25v9.5a1.25 1.25 0 0 1-2.5 0V2c0-.69.56-1.25 1.25-1.25z"/><path fill-rule="evenodd" clip-rule="evenodd" d="M56 33.05c-9.472 0-17.15 7.678-17.15 17.15 0 9.472 7.678 17.15 17.15 17.15 9.472 0 17.15-7.678 17.15-17.15 0-9.472-7.678-17.15-17.15-17.15zM36.35 50.2c0-10.852 8.798-19.65 19.65-19.65 10.852 0 19.65 8.798 19.65 19.65 0 10.852-8.798 19.65-19.65 19.65-10.852 0-19.65-8.798-19.65-19.65z"/><path fill-rule="evenodd" clip-rule="evenodd" d="M54.75 37v-5.2h2.5V37h-2.5zM42.8 51.45h-5.2v-2.5h5.2v2.5zm26.8-2.5h4.9v2.5h-4.9v-2.5zM57.25 63.5v5.1h-2.5v-5.1h2.5zm-2.336-12.92l6.1-10.7 2.172 1.24-5.618 9.853 6.898 6.626-1.732 1.803-7.6-7.3a1.25 1.25 0 0 1-.22-1.521zM15.8 27.25H7.6v-2.5h8.2v2.5zm6.3 5.8H7.6v-2.5h14.5v2.5z"/></symbol><symbol viewBox="0 0 82 61" id="wallet" xmlns="http://www.w3.org/2000/svg"><path fill-rule="evenodd" clip-rule="evenodd" d="M48.318 3.25H7.4c-1.131 0-1.897.28-2.429.634-.54.36-.915.848-1.178 1.375a5.388 5.388 0 0 0-.476 1.503 5.378 5.378 0 0 0-.066.62l-.001.023v8.245H.75V7.4H2 .75v-.035a3.904 3.904 0 0 1 .014-.285c.013-.18.038-.431.087-.728a7.884 7.884 0 0 1 .706-2.21c.412-.823 1.049-1.684 2.028-2.337C4.572 1.146 5.83.75 7.4.75h40.914a4.246 4.246 0 0 1 .298.008c.19.01.455.03.768.075a8.56 8.56 0 0 1 2.34.668c.87.398 1.79 1.025 2.492 2.01.71.997 1.138 2.282 1.138 3.89v6.05h-2.5V7.4c0-1.143-.297-1.909-.675-2.44-.386-.543-.915-.922-1.494-1.186a6.063 6.063 0 0 0-1.649-.467 6.2 6.2 0 0 0-.685-.058h-.03zM54.35 30.2c0-1.79 1.46-3.25 3.25-3.25h21c1.79 0 3.25 1.46 3.25 3.25v11c0 1.79-1.46 3.25-3.25 3.25h-21c-1.79 0-3.25-1.46-3.25-3.25v-11zm3.25-.75c-.41 0-.75.34-.75.75v11c0 .41.34.75.75.75h21c.41 0 .75-.34.75-.75v-11c0-.41-.34-.75-.75-.75h-21z"/><path fill-rule="evenodd" clip-rule="evenodd" d="M.75 15.3c0-2.39 1.86-4.25 4.25-4.25h66.4c2.39 0 4.25 1.86 4.25 4.25v12.9c0 .69-.56 1.25-1.25 1.25H57.6c-.41 0-.75.34-.75.75v11c0 .41.34.75.75.75h16.9c.69 0 1.25.56 1.25 1.25v12.9c0 2.39-1.86 4.25-4.25 4.25H5c-2.39 0-4.25-1.86-4.25-4.25V15.3zM5 13.55c-1.01 0-1.75.74-1.75 1.75v40.8c0 1.01.74 1.75 1.75 1.75h66.5c1.01 0 1.75-.74 1.75-1.75V44.45H57.6c-1.79 0-3.25-1.46-3.25-3.25v-11c0-1.79 1.46-3.25 3.25-3.25h15.55V15.3c0-1.01-.74-1.75-1.75-1.75H5z"/><path fill-rule="evenodd" clip-rule="evenodd" d="M69.1 35.5c0-1.593-1.285-2.87-2.752-2.801A2.798 2.798 0 0 0 63.5 35.5c0 1.548 1.252 2.8 2.8 2.8 1.548 0 2.8-1.252 2.8-2.8zm-2.824-4.8c2.721-.115 4.824 2.201 4.824 4.8 0 2.652-2.148 4.8-4.8 4.8a4.798 4.798 0 0 1-4.8-4.8 4.798 4.798 0 0 1 4.776-4.8z"/></symbol></svg>