<?xml version="1.0" encoding="utf-8"?><svg xmlns="http://www.w3.org/2000/svg" xmlns:xlink="http://www.w3.org/1999/xlink"><symbol viewBox="0 0 100 100" fill="none" id="advantages1" xmlns="http://www.w3.org/2000/svg"><g clip-path="url(#aaa)" fill="#F00"><path fill-rule="evenodd" clip-rule="evenodd" d="M-.17 6.752h26.046v23.814H-.172V6.752zm2 2v19.814h22.045V8.752H1.83zm63.837 59.682h26.046v23.814H65.667V68.434zm2 2v19.814h22.046V70.434H67.667z"/><path fill-rule="evenodd" clip-rule="evenodd" d="M23.876 12.469h52.58v11.974h-52.58V12.47zm2 2v7.974h48.58V14.47h-48.58zm-19.911-2.15H19.74v12.726H5.965V12.32zm2 2v8.726h9.775V14.32H7.965zm70.969 7.628h20.905v19.12H78.934v-19.12zm2 2v15.12h16.905v-15.12H80.934z"/><path fill-rule="evenodd" clip-rule="evenodd" d="M89.386 28.31c-2.106 0-3.643 1.527-3.643 3.212 0 1.685 1.537 3.212 3.643 3.212 2.107 0 3.644-1.527 3.644-3.212 0-1.685-1.537-3.212-3.644-3.212zm-5.643 3.212c0-2.968 2.62-5.212 5.643-5.212 3.023 0 5.644 2.244 5.644 5.212 0 2.968-2.62 5.212-5.644 5.212-3.022 0-5.643-2.244-5.643-5.212zm-5.144 41.125l10.39 14.787H68.413L78.6 72.647zm.016 3.502l-6.396 9.285h12.92l-6.524-9.285zM18.237 29.717h2v55.717h46.595v2H18.237V29.717z"/><path fill-rule="evenodd" clip-rule="evenodd" d="M19.237 74h47.595v2H19.237v-2zm57.219-21.115v17.3h-2v-17.3h2zm0-19.407v11.584h-2V33.478h2zM100 44.858H89.22v-2H100v2zm0 3.912H89.386v-2H100v2z"/><path d="M15.423 32.726H3.317v5.762h12.106v-5.762zm67.662 24.371h-3.151v2.919h3.15v-2.919zm0 5.115h-3.151v2.919h3.15v-2.919zm0-10.079h-3.151v2.918h3.15v-2.918zm0-4.965h-3.151v2.919h3.15v-2.919zm-5.639 0h-3.15v2.919h3.15v-2.919zM68.16 27.31v2.858h3.216V27.31H68.16zm5.472 0v2.858h3.217V27.31h-3.217zm-11.112 0v2.858h3.218V27.31h-3.217zm-5.472 0v2.858h3.217V27.31h-3.217zm-23.218 0v2.858h3.218V27.31h-3.217zm-5.638.15v2.859h3.218V27.46h-3.218z"/><path fill-rule="evenodd" clip-rule="evenodd" d="M47.098 79.46c-1.19 0-1.985.854-1.985 1.708s.795 1.708 1.985 1.708 1.985-.854 1.985-1.708-.795-1.708-1.985-1.708zm-3.985 1.708c0-2.137 1.878-3.708 3.985-3.708s3.985 1.57 3.985 3.708c0 2.137-1.878 3.708-3.985 3.708s-3.985-1.57-3.985-3.708zm-.985-52.354v7.823h-2v-7.823h2z"/><path fill-rule="evenodd" clip-rule="evenodd" d="M36.31 34.369l1.344-1.481 3.487 3.163 3.476-3.026 1.313 1.508-4.816 4.194-4.804-4.358zm17.758-5.555v7.823h-2v-7.823h2z"/><path fill-rule="evenodd" clip-rule="evenodd" d="M48.25 34.369l1.344-1.481 3.474 3.151 3.308-3 1.344 1.48-4.652 4.22-4.818-4.37zm24.387 15.304h-8.624v-2h8.624v2z"/><path fill-rule="evenodd" clip-rule="evenodd" d="M66.658 44.17l1.344 1.482-3.33 3.02 3.164 2.87-1.344 1.482-4.796-4.351 4.962-4.502z"/><path d="M53.068 16.93H40.464v3.474h12.604V16.93zM33.763 48.696h1.23l1.226 3.735 1.362-3.735h1.139v4.667h-.791v-3.758l-1.38 3.758h-.708l-1.305-3.938v3.938h-.773v-4.667zm8.881-1.776h.791v2.228a1.63 1.63 0 0 1 .54-.417 1.45 1.45 0 0 1 .633-.14c.554 0 .992.23 1.314.694.326.46.488 1.04.488 1.74 0 .73-.174 1.32-.523 1.771-.348.448-.782.672-1.3.672-.17 0-.343-.026-.52-.079-.175-.053-.386-.196-.632-.43v2.192h-.791V52.96c-.158.17-.334.297-.527.382-.19.085-.397.127-.62.127-.49 0-.917-.214-1.283-.641-.366-.43-.55-1.046-.55-1.846 0-.677.166-1.244.497-1.7.331-.46.776-.69 1.336-.69.234 0 .447.046.637.14.19.09.36.23.51.417V46.92zm.787 4.127c0 .703.096 1.176.29 1.42.193.24.435.36.725.36.322 0 .596-.148.822-.444.228-.299.342-.762.342-1.389 0-.592-.105-1.032-.316-1.323-.208-.29-.476-.435-.804-.435a.868.868 0 0 0-.796.453c-.175.302-.263.754-.263 1.358zm-2.962-.088c0 .66.11 1.134.33 1.424.222.29.497.435.825.435.343 0 .6-.144.77-.43.17-.29.254-.724.254-1.301 0-.616-.089-1.077-.268-1.385a.876.876 0 0 0-.808-.461c-.325 0-.59.15-.796.452-.205.3-.307.721-.307 1.266zm6.574.071c0-.865.24-1.505.72-1.921.402-.346.891-.519 1.468-.519.642 0 1.166.211 1.574.633.407.42.61 1 .61 1.74 0 .601-.09 1.074-.272 1.42a1.9 1.9 0 0 1-.787.8c-.342.19-.717.285-1.125.285-.653 0-1.182-.21-1.586-.628-.401-.419-.602-1.023-.602-1.81zm.813 0c0 .597.13 1.045.391 1.344.26.296.589.444.984.444.393 0 .72-.15.98-.448.261-.3.392-.755.392-1.367 0-.577-.132-1.014-.396-1.31a1.242 1.242 0 0 0-.976-.448c-.395 0-.723.148-.984.444-.26.296-.391.743-.391 1.34z"/></g><defs><clipPath id="aaa"><path fill="#fff" d="M0 0h100v100H0z"/></clipPath></defs></symbol><symbol viewBox="0 0 100 100" fill="none" id="advantages2" xmlns="http://www.w3.org/2000/svg"><path fill-rule="evenodd" clip-rule="evenodd" d="M6.867 38.264h12.45v2H8.866v49.917h77.45V40.264H61.295v-2h27.02v53.917H6.867V38.264z" fill="#F00"/><path fill-rule="evenodd" clip-rule="evenodd" d="M12.592 62.83h26.806v25.34H12.592V62.83zm2 2v21.34h22.806V64.83H14.592zm67.173 0H58.174v-2h23.591v2zm0 5.405H58.174v-2h23.591v2zm0 10.645H58.174v-2h23.591v2zm0 4.75H58.174v-2h23.591v2zm-1-40.944h-8.887v-2h10.887v8.861h-2v-6.861zm0 13.412v-2.784h2v2.784h-2zM6.867 10.75h19.041v2H8.868v20.782h-2V10.75zm79.449 2H59.735v-2h28.581v23.928h-2V12.75z" fill="#F00"/><path fill-rule="evenodd" clip-rule="evenodd" d="M91.993 31.639l-4.677 4.415-4.502-4.252 1.373-1.454 3.13 2.955 3.303-3.119 1.373 1.454zM26.059 11.957l-3.786-3.575 1.373-1.454 5.23 4.938-.673.727-.734-.68.734.68-.042.045-.117.126a150.249 150.249 0 0 1-1.7 1.79c-.468.483-.952.973-1.335 1.334-.188.177-.37.342-.522.462-.07.055-.171.131-.283.192-.05.027-.162.086-.31.118-.11.024-.552.102-.927-.253l1.373-1.454a.974.974 0 0 0-.875-.246.842.842 0 0 0-.22.08c-.02.01-.031.019-.031.019l.033-.025a6.63 6.63 0 0 0 .39-.347c.348-.33.807-.793 1.271-1.272.414-.427.824-.858 1.15-1.205zm-6.916 14.058h-5.551v-2h5.55v2z" fill="#F00"/><path fill-rule="evenodd" clip-rule="evenodd" d="M15.367 27.636v-5.077h2v5.077h-2zm53.041-7.844h-5.55v-2h5.55v2z" fill="#F00"/><path fill-rule="evenodd" clip-rule="evenodd" d="M64.633 21.412v-5.077h2v5.077h-2zm13.49 11.154H72.57v-2h5.552v2z" fill="#F00"/><path fill-rule="evenodd" clip-rule="evenodd" d="M74.347 34.187V29.11h2v5.077h-2zM17.32 68.071h15.66v15.44l-5.684-5.367-3.99 3.767-5.752-5.431 5.03-3.44-5.263-4.969zm5.032 2l3.41 3.22-5.03 3.439 2.574 2.43 3.99-3.766 3.684 3.477v-8.8h-8.628zm19.903-8.551h6.898v2h-4.898v7.008h7.54v-6.206h2v8.206h-11.54V61.52z" fill="#F00"/><path fill-rule="evenodd" clip-rule="evenodd" d="M55.615 63.196l-6.258 6.831-3.514-3.525 1.416-1.412 2.037 2.043 4.844-5.288 1.475 1.35zm-13.36 13.883h6.898v2h-4.898v7.172h7.54v-6.207h2v8.207h-11.54V77.079z" fill="#F00"/><path fill-rule="evenodd" clip-rule="evenodd" d="M55.615 78.754l-6.237 6.809-3.514-3.318 1.373-1.454 2.038 1.924 4.865-5.312 1.475 1.351zM39.224 49.09v8.517h-2V49.09h2z" fill="#F00"/><path fill-rule="evenodd" clip-rule="evenodd" d="M31.218 14.986c-2.814 2.26-4.657 5.074-4.657 7.573v7.146l-4.474 4.224-.001.001a4.064 4.064 0 0 0-.931 1.327c-.19.437-.296.9-.315 1.37h5.027v8.724l-.001.028c-.01.186.019.374.088.553.067.174.17.337.308.48l.838.791c.153.132.335.237.537.306.207.07.428.102.65.091h14.845c.222.011.444-.02.65-.091.202-.07.384-.174.537-.306l4.495-4.244 1.373 1.454-4.523 4.27-.013.012c-.355.313-.77.551-1.22.706a3.75 3.75 0 0 1-1.37.198h-14.7a3.744 3.744 0 0 1-1.372-.198 3.636 3.636 0 0 1-1.22-.706l-.013-.011-.893-.844-.013-.013a3.437 3.437 0 0 1-.762-1.177 3.334 3.334 0 0 1-.22-1.351v-6.673h-3.163c-.477 0-.946-.178-1.3-.512a1.797 1.797 0 0 1-.567-1.304 5.83 5.83 0 0 1 .483-2.349 6.066 6.066 0 0 1 1.389-1.981l.003-.003 3.85-3.634v-6.284c0-3.398 2.406-6.725 5.404-9.133 3.02-2.426 6.92-4.15 10.34-4.15h5.725c1.806 0 3.688.692 5.45 1.742 1.773 1.057 3.494 2.515 5 4.148 1.505 1.634 2.817 3.467 3.758 5.292.933 1.81 1.537 3.682 1.537 5.376v.822a26.401 26.401 0 0 1-2.164 10.383 24.4 24.4 0 0 0-2 9.597v11.135h-2V46.63a26.4 26.4 0 0 1 2.163-10.383 24.404 24.404 0 0 0 2-9.596v-.818c0-1.254-.459-2.8-1.314-4.46-.849-1.646-2.052-3.334-3.451-4.852-1.4-1.52-2.975-2.846-4.553-3.785-1.588-.947-3.11-1.462-4.426-1.462h-5.725c-2.825 0-6.297 1.47-9.088 3.71zM18.837 36.81v-.003h1l-1 .006v-.003z" fill="#F00"/><path fill-rule="evenodd" clip-rule="evenodd" d="M42.908 17.335c-5.347 0-9.582 4.079-9.582 8.99 0 4.913 4.235 8.991 9.582 8.991s9.582-4.079 9.582-8.99c0-4.912-4.235-8.99-9.582-8.99zm-11.582 8.99c0-6.123 5.24-10.99 11.582-10.99 6.341 0 11.582 4.867 11.582 10.99 0 6.124-5.24 10.991-11.582 10.991-6.341 0-11.582-4.867-11.582-10.99z" fill="#F00"/><path fill-rule="evenodd" clip-rule="evenodd" d="M41.908 26.326v-7.534h2v7.534h-2zm0 6.224v-3.44h2v3.44h-2z" fill="#F00"/></symbol><symbol viewBox="0 0 100 100" fill="none" id="advantages3" xmlns="http://www.w3.org/2000/svg"><path fill-rule="evenodd" clip-rule="evenodd" d="M6.938 6.938h85.124v85.03H6.938V6.938zm2 2v81.03h81.124V8.938H8.938z" fill="#F00"/><path fill-rule="evenodd" clip-rule="evenodd" d="M13.13 23.45h17.011v10.444h-17.01V23.45zm2 2v6.444h13.011V25.45h-13.01zm-2 37.967h17.011v10.444h-17.01V63.417zm2 2v6.444h13.011v-6.444h-13.01z" fill="#F00"/><path fill-rule="evenodd" clip-rule="evenodd" d="M20.636 64.417V32.894h2v31.523h-2z" fill="#F00"/><path fill-rule="evenodd" clip-rule="evenodd" d="M20.636 15.007h62.607V82.68H20.636v-9.82h2v7.82h58.607V17.007H22.636v8.006h-2V15.007z" fill="#F00"/><path fill-rule="evenodd" clip-rule="evenodd" d="M50.907 32.018c-9.5 0-17.2 7.7-17.2 17.2s7.7 17.201 17.2 17.201 17.201-7.7 17.201-17.2-7.701-17.201-17.2-17.201zm-19.2 17.2c0-10.604 8.596-19.2 19.2-19.2 10.605 0 19.201 8.596 19.201 19.2 0 10.605-8.597 19.201-19.2 19.201-10.605 0-19.202-8.596-19.202-19.2z" fill="#F00"/><path fill-rule="evenodd" clip-rule="evenodd" d="M50.907 45.528a3.691 3.691 0 1 0 0 7.382 3.691 3.691 0 0 0 0-7.382zm-5.69 3.69a5.69 5.69 0 1 1 11.381 0 5.69 5.69 0 0 1-11.382 0z" fill="#F00"/><path fill-rule="evenodd" clip-rule="evenodd" d="M49.907 44.528V30.08h2v14.448h-2zm0 22.892V53.91h2v13.51h-2zM32.706 48.218h13.51v2h-13.51v-2zm36.402 2h-13.51v-2h13.51v2zm7.881 23.642h-8.631v-2h8.631v2z" fill="#F00"/></symbol><symbol viewBox="0 0 100 100" fill="none" id="advantages4" xmlns="http://www.w3.org/2000/svg"><path fill-rule="evenodd" clip-rule="evenodd" d="M46.803 7.016h52.371V65.66H46.802V7.016zm2 2V63.66h48.371V9.016H48.802z" fill="#F00"/><path fill-rule="evenodd" clip-rule="evenodd" d="M98.174 17.398H47.802v-2h50.372v2zm0 38.402H47.802v-2h50.372v2z" fill="#F00"/><path fill-rule="evenodd" clip-rule="evenodd" d="M.825 24.846H42.9v2H2.825v53.928h80.489V64.706h2v18.068H.825V24.846z" fill="#F00"/><path fill-rule="evenodd" clip-rule="evenodd" d="M72.988 74.088H1.825v-2h71.163v2zm11.326 0h-5.916v-2h5.916v2zm-36.511 3.047h-10.48v-2h10.48v2zm-2.367-7.925H1.826v-2h43.61v2z" fill="#F00"/><path fill-rule="evenodd" clip-rule="evenodd" d="M4.713 53.8h8.762v14.41h-2V55.8H6.713v12.41h-2V53.8zm12.677-4.267h8.762v18.678h-2V51.533h-4.761v16.678h-2V49.533zm12.171-6.095h8.762V68.21h-2V45.438H31.56V68.21h-2V43.438zM19.42 85.803h48.483v8.477H19.42v-8.477zm2 2v4.477h44.483v-4.477H21.42z" fill="#F00"/><path fill-rule="evenodd" clip-rule="evenodd" d="M34.24 86.105l4.902-5.03 1.432 1.397-4.902 5.029-1.432-1.396zm16.113 1.255l-3.38-5.028 1.66-1.116 3.38 5.029-1.66 1.116zm41.553-9.091v9.534H72.988v-2h16.918v-7.534h2zm0-7.772v3.81h-2v-3.81h2z" fill="#F00"/><path d="M92.934 20.817H78.398v4.008h14.537v-4.008zM9.263 46.876c1.96 0 3.55-1.433 3.55-3.2 0-1.768-1.59-3.2-3.55-3.2-1.96 0-3.55 1.432-3.55 3.2 0 1.767 1.59 3.2 3.55 3.2zm12.508-12.039c1.868 0 3.381-1.365 3.381-3.048s-1.513-3.048-3.38-3.048c-1.868 0-3.381 1.365-3.381 3.048s1.513 3.048 3.38 3.048zm13.016 5.791c1.774 0 3.212-1.297 3.212-2.896s-1.438-2.895-3.212-2.895c-1.774 0-3.212 1.296-3.212 2.895 0 1.6 1.438 2.896 3.212 2.896z" fill="#F00"/><path fill-rule="evenodd" clip-rule="evenodd" d="M29.42 17.918a6.55 6.55 0 0 1 .549 4.653c-.398 1.565-1.36 2.943-2.705 3.929l-1.182-1.613c.996-.73 1.672-1.723 1.948-2.809a4.551 4.551 0 0 0-.385-3.239l1.775-.921zm-12.423-2.002c1.462-1.318 3.424-2.043 5.45-2.043v2c-1.559 0-3.036.56-4.11 1.529-1.072.965-1.65 2.251-1.65 3.567v.027l-.002.027a4.03 4.03 0 0 0 .483 2.127 4.674 4.674 0 0 0 1.596 1.703l-1.085 1.68a6.672 6.672 0 0 1-2.273-2.438 6.032 6.032 0 0 1-.72-3.152c.008-1.908.853-3.712 2.311-5.027zM22.46 30.28l12.784 6.563-.914 1.779-11.556-5.933-10.475 9.444-1.34-1.486 11.5-10.367z" fill="#F00"/><path fill-rule="evenodd" clip-rule="evenodd" d="M18.574 5.644h8.93v5.127l1.238 1.116 5.395-2.127 5.036 4.334-3.747 3.379 1.583 2.344h4.356v6.029h-2v-4.03h-3.42l-3.15-4.665 3.353-3.022-2.4-2.066-5.425 2.14-2.819-2.542V7.644h-4.93v5.503l-3.316 1.15-5.006-3.058-2.205 1.989 3.549 3.478-1.175 4.236-6.553 1.034v3.87h-2v-5.579l6.97-1.1.515-1.859-4.226-4.141 4.894-4.412 5.474 3.343 1.079-.374v-6.08zm40.902 24.343c2.106-1.269 4.573-1.941 7.09-1.941h1v10.668h11.832v1c0 2.332-.768 4.601-2.191 6.522-1.422 1.918-3.432 3.399-5.764 4.27a14.037 14.037 0 0 1-7.363.654c-2.47-.443-4.751-1.538-6.551-3.16-1.801-1.624-3.041-3.706-3.545-5.99a10.696 10.696 0 0 1 .74-6.796c.985-2.143 2.645-3.957 4.752-5.227zm6.09 9.282v-9.182c-1.81.15-3.55.704-5.058 1.613-1.785 1.075-3.16 2.593-3.966 4.349a8.696 8.696 0 0 0-.605 5.53c.348 1.58 1.134 3.06 2.291 4.305l7.337-6.615zm-5.83 7.947l6.53-5.886 4.407 7.328a12.04 12.04 0 0 1-6.24.534 11.445 11.445 0 0 1-4.696-1.976zm12.757.588a10.353 10.353 0 0 0 3.107-2.76 9.028 9.028 0 0 0 1.74-4.33h-9.112l4.265 7.09z" fill="#F00"/><path fill-rule="evenodd" clip-rule="evenodd" d="M69.491 25.613l-1.56-1.406v13.611h13.495v-1c0-3.008-1.327-5.87-3.648-7.962-2.224-2.006-5.19-3.154-8.287-3.243zm.44 2.025v8.18h9.434c-.251-2.045-1.267-3.982-2.926-5.477-1.736-1.565-4.045-2.526-6.507-2.703z" fill="#F00"/></symbol><symbol viewBox="0 0 100 100" fill="none" id="advantages5" xmlns="http://www.w3.org/2000/svg"><path fill-rule="evenodd" clip-rule="evenodd" d="M6.087 6.669h85.204v15.609h-2V8.668H8.087v73.687h21.707v2H6.087V6.668z" fill="#F00"/><path fill-rule="evenodd" clip-rule="evenodd" d="M90.29 17.294H7.088v-2h83.204v2z" fill="#F00"/><path fill-rule="evenodd" clip-rule="evenodd" d="M70.152 16.294V7.669h2v8.625h-2zm9.408 0V7.669h2v8.625h-2zm9.73 66.06v-52.86h2v54.86H67.099v-2H89.29zm4.866 1V62.057h2v21.297h-2zm2-34.85v7.92h-2v-7.92h2zM2.844.86H14.71v2H4.844v13.434h-2V.86zm0 27.05v-4.4h2v4.4h-2zm23.057-1.112H20.55v-2h5.352v2z" fill="#F00"/><path fill-rule="evenodd" clip-rule="evenodd" d="M22.306 28.438v-5.28h2v5.28h-2zM19.9 60.065h-5.19v-2h5.19v2z" fill="#F00"/><path fill-rule="evenodd" clip-rule="evenodd" d="M16.305 61.88v-5.456h2v5.457h-2zM80.56 32.079h-5.353v-2h5.352v2z" fill="#F00"/><path fill-rule="evenodd" clip-rule="evenodd" d="M76.802 33.895v-5.457h2v5.457h-2zM59.961 10.893h7.136v2h-7.136v-2zm-6.163 0h3.73v2h-3.73v-2zm-7.785 0h3.893v2h-3.893v-2zM62.88 24.158H33.85v-2h29.03v2zm2.758 9.152H30.605v-2h35.033v2z" fill="#F00"/><path fill-rule="evenodd" clip-rule="evenodd" d="M32.849 32.31h2v6.041h5.974v2h-7.974v-8.04zm29.681 6.041v-6.04h2v8.04h-7.002v-2h5.001zm-17.139 0v-6.04h-2v8.04h3.568v3.457h-3.568v6.576h4.541v2.752h-5.19v20.366L33.614 85.03l8.257 14.11h14.366l6.342-14.53-8.592-10.758V32.31h-2v42.241l8.276 10.363-5.335 12.225h-11.91L36.03 85.2l8.712-11.002V55.136h5.19v-6.752h-4.54v-2.576h3.567V38.35h-3.568z" fill="#F00"/><path fill-rule="evenodd" clip-rule="evenodd" d="M34.232 60.472l3.446 7.658 5.503-3.733 1.123 1.656-7.473 5.068-3.366-7.479L17.93 76.04l-1.247-1.564 17.55-14.004zm50.065-15.614L63.05 63.341l-5.667-7.556-2.917 2.616-1.335-1.489 4.543-4.073 5.686 7.582 19.625-17.072 1.312 1.509z" fill="#F00"/><path fill-rule="evenodd" clip-rule="evenodd" d="M82.641 45.104h-5.325v-2h7.325v8.568h-2v-6.568zm-34.033 35.73c-2.328 0-4.352 2.075-4.352 4.809s2.024 4.808 4.352 4.808c2.328 0 4.352-2.074 4.352-4.808s-2.024-4.809-4.352-4.809zm-6.352 4.809c0-3.682 2.768-6.809 6.352-6.809 3.584 0 6.352 3.127 6.352 6.809 0 3.681-2.768 6.808-6.352 6.808-3.584 0-6.352-3.127-6.352-6.808z" fill="#F00"/></symbol><symbol viewBox="0 0 100 100" fill="none" id="advantages6" xmlns="http://www.w3.org/2000/svg"><g clip-path="url(#afa)" fill-rule="evenodd" clip-rule="evenodd" fill="#F00"><path d="M1.99 44.577h23.364v2H3.99v51.077h89.635V46.577H72.458v-2h23.167v55.077H1.99V44.577z"/><path d="M9.51 63.038h6.542v2h-4.541v7.039h7.895V67.5h2v6.577H9.511V63.039z"/><path d="M24.062 63.804l-8.02 7.581-3.853-3.745 1.393-1.434 2.48 2.409 6.626-6.265 1.374 1.454zM9.51 80.154h6.542v2h-4.541V89h7.895v-4.577h2V91H9.511V80.154z"/><path d="M24.062 80.727l-8.02 7.581-3.853-3.745 1.393-1.434 2.48 2.409 6.626-6.265 1.374 1.454zm50.761-17.689h6.542v2h-4.542v7.039h8.094V67.5h2v6.577H74.823V63.039z"/><path d="M89.384 63.794l-7.822 7.6L77.7 67.64l1.394-1.434 2.47 2.4 6.428-6.246 1.393 1.434zm-14.561 16.36h6.542v2h-4.542V89h8.094v-4.577h2V91H74.823V80.154z"/><path d="M89.384 80.717l-7.822 7.6-3.863-3.754 1.394-1.434 2.47 2.4 6.428-6.246 1.393 1.434zM27.333 53.885H2.99v-2h24.343v2zm-17.416-3.27h-3.76v-2h3.76v2zm9.896 0h-7.72v-2h7.72v2zm61.354 0h-3.76v-2h3.76v2zm9.896 0h-7.72v-2h7.72v2zm-20.583 1.27h24.145v2H70.48v-2zM49.117 53.81l6.028 5.857-1.394 1.435-4.66-4.528-4.845 4.54-1.367-1.46 6.238-5.844zm-.025-12.14l6.25 6.074-1.393 1.435-4.832-4.696-4.845 4.876-1.419-1.41 6.239-6.278z"/><path d="M29.055 7.3C34.53 2.571 41.593-.037 48.906-.037c7.314 0 14.378 2.608 19.851 7.335 5.474 4.728 8.978 11.25 9.838 18.33.86 7.08-.984 14.218-5.178 20.06-4.193 5.84-10.441 9.976-17.555 11.631l-.476.11-1.61-1.302-4.882-4.914-6.412 6.23-.532-.124c-7.114-1.655-13.362-5.791-17.555-11.631-4.194-5.842-6.038-12.98-5.178-20.06.86-7.08 4.364-13.602 9.838-18.33zm19.851-5.336c-6.84 0-13.438 2.44-18.543 6.849-5.105 4.409-8.361 10.48-9.16 17.057-.8 6.577.912 13.214 4.817 18.652 3.8 5.295 9.425 9.097 15.856 10.722l7.043-6.843 6.2 6.24.762.617c6.454-1.617 12.1-5.426 15.912-10.736 3.904-5.438 5.616-12.075 4.817-18.652-.8-6.578-4.056-12.648-9.16-17.057-5.105-4.41-11.704-6.849-18.544-6.849z"/><path d="M48.51 15.23c-4.612 0-8.301 3.627-8.301 8.04 0 4.412 3.69 8.038 8.302 8.038s8.302-3.626 8.302-8.039c0-4.412-3.69-8.038-8.302-8.038zm-10.3 8.04c0-5.572 4.64-10.04 10.302-10.04s10.302 4.468 10.302 10.04c0 5.57-4.64 10.038-10.302 10.038-5.663 0-10.303-4.468-10.303-10.039z"/><path d="M45.552 31.346v3.885h-8.907L30.708 41v9.385h-2v-10.23l7.126-6.924h7.718v-1.885h2z"/><path d="M53.865 31.154v3.5l-5.157 5.01-4.853-4.716 1.394-1.434 3.46 3.36 3.156-3.066v-2.654h2z"/><path d="M61.374 35.23h-8.51v-2h9.304l7.134 6.723v9.855h-2v-8.992l-5.928-5.585zM29.906 19.462c-2.535 0-4.541 1.99-4.541 4.384 0 2.395 2.006 4.385 4.541 4.385 2.536 0 4.542-1.99 4.542-4.385 0-2.395-2.006-4.384-4.542-4.384zm-6.541 4.384c0-3.553 2.956-6.384 6.541-6.384 3.586 0 6.542 2.831 6.542 6.384 0 3.553-2.956 6.385-6.542 6.385-3.585 0-6.541-2.832-6.541-6.385z"/><path d="M26.73 31.115v-2.269h2v4.27h-8.72v-2h6.72z"/><path d="M33.281 28.846v3.884l-3.177 3.087-3.072-2.984 1.394-1.435 1.678 1.63 1.177-1.143v-3.039h2z"/><path d="M37.785 33.308H32.28v-2h6.372l2.275 2.432-1.46 1.366-1.683-1.798zm29.132-13.846c-2.536 0-4.542 1.99-4.542 4.384 0 2.395 2.006 4.385 4.542 4.385 2.535 0 4.541-1.99 4.541-4.385 0-2.395-2.006-4.384-4.541-4.384zm-6.542 4.384c0-3.553 2.956-6.384 6.542-6.384 3.585 0 6.541 2.831 6.541 6.384 0 3.553-2.956 6.385-6.541 6.385-3.586 0-6.542-2.832-6.542-6.385z"/><path d="M63.938 31.115v-2.269h2v4.27h-8.34l-1.894 1.672-1.324-1.499 2.46-2.174h7.097z"/><path d="M70.292 28.846v3.884l-3.208 3.117-2.874-3.045 1.455-1.373 1.48 1.57 1.147-1.114v-3.039h2z"/><path d="M74.823 33.308h-5.531v-2h6.343l2.468 2.398-1.393 1.434-1.887-1.832zm-57-18.7v-.377h2v.778l-.078.185A32.009 32.009 0 0 0 17.25 27.69v.388h-2v-.383a34.007 34.007 0 0 1 2.573-13.086zm1.975-4.046a21.769 21.769 0 0 1 2.904-3.225l1.346 1.48a19.77 19.77 0 0 0-2.638 2.928l-1.612-1.183zm58.41 1.264a34.254 34.254 0 0 1 4.736 12.43l.014.083v.853h-2v-.684a32.263 32.263 0 0 0-4.593-11.855l-.157-.246v-.676h1.604l.24-.153.096.153h.06v.095zm5.142 16.918a21.06 21.06 0 0 1-.831 4.24l-1.913-.584a19.03 19.03 0 0 0 .752-3.837l1.992.181z"/></g><defs><clipPath id="afa"><path fill="#fff" d="M0 0h100v100H0z"/></clipPath></defs></symbol><symbol viewBox="0 0 100 100" fill="none" id="advantages7" xmlns="http://www.w3.org/2000/svg"><path fill-rule="evenodd" clip-rule="evenodd" d="M75.74 48.843l13.793 6.683-29.215 15.88-9.387-4.209v30.145L22.724 80.13V61.175h2v17.831L48.931 93.78V65.09L75.74 48.844zM52.08 65.52l8.153 3.656L85.157 55.63l-9.31-4.512L52.078 65.52z" fill="#F00"/><path fill-rule="evenodd" clip-rule="evenodd" d="M59.852 41.084l16.38 7.997-.878 1.797-16.379-7.996.877-1.797zm-21.974.034l1.003 1.73-13.146 7.622 26.462 15.34-12.162 4.949L12.91 55.593l24.968-14.475zM23.74 51.626l-6.789 3.936 23.22 12.982 7.493-3.049-23.924-13.87zm53.053 10.189v19.45L50.43 96.427l-.997-1.733 25.36-14.586V61.815h2zM88.38 32.507h8.758v38.145h-12.38v-2h10.38V34.506h-6.759v-2z" fill="#F00"/><path fill-rule="evenodd" clip-rule="evenodd" d="M87.888 28.761l1.328 1.495-3.315 2.947 3.33 3.09-1.36 1.465-4.944-4.587 4.96-4.41zM1.862 32.507h8.759v2H3.862v34.145h10.552v2H1.862V32.506z" fill="#F00"/><path fill-rule="evenodd" clip-rule="evenodd" d="M13.099 33.203l-3.315-2.947 1.329-1.495 4.96 4.41-4.945 4.587-1.36-1.466 3.33-3.09zM51.598 16.42a13.306 13.306 0 0 0-6.452 1.41c-1.97.998-3.604 2.465-4.736 4.239a10.798 10.798 0 0 0-1.72 5.807 11.949 11.949 0 0 0 2.222 6.139c1.318 1.846 3.144 3.347 5.3 4.341l.581.268V51.54h8.862V38.598l.615-.257c2.05-.855 3.802-2.203 5.08-3.893s2.035-3.66 2.201-5.704a10.706 10.706 0 0 0-1.251-5.936c-.988-1.843-2.499-3.416-4.383-4.543a13.195 13.195 0 0 0-6.319-1.844zm-7.355-.374a15.306 15.306 0 0 1 7.423-1.624c2.583.088 5.098.82 7.279 2.127 2.181 1.306 3.952 3.14 5.118 5.315a12.706 12.706 0 0 1 1.482 7.042c-.198 2.432-1.099 4.763-2.6 6.748-1.367 1.81-3.187 3.27-5.29 4.26V53.54H44.793V39.89c-2.21-1.13-4.103-2.743-5.509-4.713-1.528-2.142-2.425-4.626-2.592-7.203l-.002-.032v-.031c-.005-2.44.7-4.83 2.034-6.919 1.333-2.087 3.242-3.793 5.519-4.946z" fill="#F00"/><path fill-rule="evenodd" clip-rule="evenodd" d="M56.655 49.06H45.793v-2h10.862v2zm-4.517-6.637h4.517v2H45.793v-2h4.345v-8.437h2v8.437z" fill="#F00"/><path fill-rule="evenodd" clip-rule="evenodd" d="M51.138 26.19c-2.186 0-3.828 1.627-3.828 3.478 0 1.852 1.642 3.479 3.828 3.479s3.828-1.627 3.828-3.479c0-1.851-1.642-3.478-3.828-3.478zm-5.828 3.478c0-3.095 2.681-5.478 5.828-5.478 3.146 0 5.828 2.383 5.828 5.478 0 3.095-2.682 5.479-5.828 5.479-3.146 0-5.828-2.384-5.828-5.479zm-14.846 5.293l8.276-2.878.657 1.888-8.276 2.88-.657-1.89zM27 25.47h10.69v2H27v-2zm5.886-11.836l8.448 5.438-1.082 1.681-8.449-5.437 1.083-1.682zm16.562-2.678V2h2v8.956h-2zm-5.36 2.182L37.537 7.22l1.34-1.484 6.552 5.917-1.34 1.485zm11.37-1.955l5.862-5.438 1.36 1.466-5.862 5.438-1.36-1.466z" fill="#F00"/><path fill-rule="evenodd" clip-rule="evenodd" d="M29.414 9.557c-1.615 0-2.793 1.197-2.793 2.519 0 1.321 1.178 2.518 2.793 2.518 1.614 0 2.793-1.197 2.793-2.518 0-1.322-1.179-2.519-2.793-2.519zm-4.793 2.519c0-2.565 2.218-4.519 4.793-4.519s4.793 1.954 4.793 4.519c0 2.565-2.218 4.518-4.793 4.518s-4.793-1.953-4.793-4.518zm-1.414 11.075c-1.71 0-2.966 1.27-2.966 2.679 0 1.41 1.256 2.678 2.966 2.678 1.71 0 2.965-1.268 2.965-2.678s-1.255-2.678-2.965-2.678zm-4.966 2.679c0-2.653 2.296-4.678 4.966-4.678 2.67 0 4.965 2.025 4.965 4.678s-2.295 4.678-4.965 4.678-4.966-2.025-4.966-4.678zM27 34.986c-1.9 0-3.31 1.412-3.31 2.999 0 1.586 1.41 2.998 3.31 2.998 1.9 0 3.31-1.412 3.31-2.998 0-1.587-1.41-2.998-3.31-2.998zm-5.31 2.999c0-2.83 2.45-4.998 5.31-4.998 2.86 0 5.31 2.168 5.31 4.998s-2.45 4.998-5.31 4.998c-2.86 0-5.31-2.168-5.31-4.998zm50.313-1.14l-8.793-3.198.684-1.88 8.793 3.199-.684 1.88zm4.107-9.375l-11.724-.32.055-2 11.724.32-.054 2zm-4.776-12.154l-8.448 5.437-1.083-1.681 8.449-5.438 1.082 1.682z" fill="#F00"/><path fill-rule="evenodd" clip-rule="evenodd" d="M73.897 9.557c-1.615 0-2.794 1.197-2.794 2.519 0 1.321 1.179 2.518 2.794 2.518 1.614 0 2.793-1.197 2.793-2.518 0-1.322-1.179-2.519-2.793-2.519zm-4.794 2.519c0-2.565 2.219-4.519 4.794-4.519 2.575 0 4.793 1.954 4.793 4.519 0 2.565-2.218 4.518-4.793 4.518s-4.794-1.953-4.794-4.518zm11 11.075c-1.71 0-2.965 1.27-2.965 2.679 0 1.41 1.256 2.678 2.965 2.678 1.71 0 2.966-1.268 2.966-2.678s-1.256-2.678-2.966-2.678zm-4.965 2.679c0-2.653 2.295-4.678 4.965-4.678s4.966 2.025 4.966 4.678-2.295 4.678-4.966 4.678c-2.67 0-4.965-2.025-4.965-4.678zm1.172 9.156c-1.9 0-3.31 1.412-3.31 2.999 0 1.586 1.41 2.998 3.31 2.998 1.9 0 3.31-1.412 3.31-2.998 0-1.587-1.41-2.998-3.31-2.998zm-5.31 3c0-2.83 2.45-4.998 5.31-4.998 2.861 0 5.31 2.168 5.31 4.998s-2.449 4.998-5.31 4.998c-2.86 0-5.31-2.168-5.31-4.998z" fill="#F00"/></symbol><symbol viewBox="0 0 175 110" fill="none" id="algorithm1" xmlns="http://www.w3.org/2000/svg"><path d="M68.797 93.693a14.654 14.654 0 0 1-1.746-5.904c-.13-2.37.297-4.737 1.247-6.91.998-2.261 1.995-4.648 3.866-4.9 1.87-.25 4.24 2.262 4.987 4.398.749 2.136.375 2.764.5 6.156.124 3.392 0 3.14.623 3.894a3.86 3.86 0 0 0 1.604 1.01c.61.197 1.258.238 1.887.12a4.97 4.97 0 0 0 1.889-.905 5.014 5.014 0 0 0 1.353-1.607 6.812 6.812 0 0 0 .998-5.15c-.25-.754-.624-2.388-1.746-2.639-1.122-.251-3.242 1.257-3.616 3.015a4.683 4.683 0 0 0 1.122 3.644 9.746 9.746 0 0 0 2.924 2.56 9.677 9.677 0 0 0 3.685 1.208c5.237.503 8.853-4.145 9.103-4.397" stroke="#F00" stroke-width="2" stroke-miterlimit="10"/><path d="M51.135 8.325L37.75 37.245l18.364 8.627L69.5 16.952 51.135 8.326zm15.832 31.432l-4.512 5.534c-1.311 1.608-1.1 3.967.473 5.268 1.573 1.302 3.91 1.053 5.222-.555l4.511-5.534c1.312-1.608 1.1-3.967-.473-5.269-1.572-1.3-3.91-1.052-5.221.556zm16.728 14.997l-1.9 2.33a3.536 3.536 0 0 0 .482 4.95l.3.248a3.474 3.474 0 0 0 4.913-.486l1.9-2.33a3.536 3.536 0 0 0-.482-4.95l-.299-.248a3.474 3.474 0 0 0-4.914.486zm-8.819-12.678l-6.648 8.154c-1.311 1.609-1.1 3.967.473 5.269 1.573 1.301 3.91 1.052 5.222-.556l6.648-8.155c1.311-1.608 1.1-3.967-.473-5.268-1.572-1.302-3.91-1.053-5.222.556zm6.876 3.318l-6.648 8.154c-1.312 1.608-1.1 3.967.472 5.269 1.573 1.301 3.91 1.052 5.222-.556l6.648-8.155c1.312-1.608 1.1-3.967-.472-5.268-1.573-1.302-3.91-1.053-5.222.556z" stroke="#F00" stroke-width="3" stroke-miterlimit="10"/><path d="M87.875 61.407l2.12 2.764a3.844 3.844 0 0 0 5.362.754 3.884 3.884 0 0 0 1.531-2.605 3.921 3.921 0 0 0-.783-2.923l-6.36-8.04m4.365 5.402l2.12 2.764a3.845 3.845 0 0 0 5.362.754 3.919 3.919 0 0 0 .748-5.528l-6.36-8.04" stroke="#F00" stroke-width="3" stroke-miterlimit="10"/><path d="M100.594 52.613l2.12 2.764a3.845 3.845 0 0 0 5.362.754 3.918 3.918 0 0 0 .748-5.528l-6.359-8.04" stroke="#F00" stroke-width="3" stroke-miterlimit="10"/><path d="M106.579 47.84l2.12 2.763a3.845 3.845 0 0 0 5.362.754 3.9 3.9 0 0 0 1.531-2.605 3.908 3.908 0 0 0-.783-2.923l-6.359-8.04-4.364-5.025a19.265 19.265 0 0 0-3.741-3.392l-6.11-4.146a4.958 4.958 0 0 0-3.616-.754l-3.118.503a4.977 4.977 0 0 0-2.787 1.505 5.041 5.041 0 0 0-1.328 2.892l-.374 2.89a6.675 6.675 0 0 1-2.12 4.145 6.582 6.582 0 0 1-4.489 1.759h-.623a2.48 2.48 0 0 1-1.91-.864 2.52 2.52 0 0 1-.584-2.026l1.995-11.934a5.673 5.673 0 0 1 1.057-2.456 5.62 5.62 0 0 1 2.06-1.69l9.228-4.648a5.578 5.578 0 0 1 2.494-.628c.682.002 1.358.13 1.995.376l12.22 4.649h2.494m-40.152 4.397l4.863 2.135a4.338 4.338 0 0 0 3.367 0m-5.362-8.542h12.968" stroke="#F00" stroke-width="3" stroke-miterlimit="10"/><path d="M99.472 16.935h6.733l10.973 25.628v50.88a6.178 6.178 0 0 1-1.789 4.352 6.088 6.088 0 0 1-4.321 1.803H67.051a6.07 6.07 0 0 1-2.338-.469 6.106 6.106 0 0 1-1.982-1.334 6.195 6.195 0 0 1-1.79-4.353V45.703" stroke="#F00" stroke-width="3" stroke-miterlimit="10"/><path d="M106.081 16.935a3.393 3.393 0 0 1-.365-1.32 3.402 3.402 0 0 1 .882-2.53c.31-.339.686-.61 1.104-.799l14.215-6.407a3.342 3.342 0 0 1 2.507-.066 3.375 3.375 0 0 1 1.857 1.7l11.721 25.879a3.402 3.402 0 0 1 .123 2.6 3.39 3.39 0 0 1-1.744 1.922L121.667 44.7a3.343 3.343 0 0 1-2.507.065 3.378 3.378 0 0 1-1.857-1.699v-.377" stroke="#F00" stroke-width="3" stroke-miterlimit="10"/><path d="M116.43 23.844c2.411 0 4.365-1.969 4.365-4.397s-1.954-4.397-4.365-4.397c-2.41 0-4.364 1.969-4.364 4.397s1.954 4.397 4.364 4.397z" stroke="#F00" stroke-width="2" stroke-miterlimit="10"/><path d="M112.191 42.688l3.865-2.512m-58.98 3.769l4.863 2.01m65.215 4.774l-1.87 4.397v45.351c0 1.033.407 2.024 1.132 2.754a3.848 3.848 0 0 0 2.733 1.141c1.025 0 2.008-.41 2.733-1.141a3.91 3.91 0 0 0 1.133-2.754V55l-1.871-4.271a2.11 2.11 0 0 0-1.995-1.256c-.418-.013-.831.1-1.186.323a2.13 2.13 0 0 0-.809.933zm-1.995 44.723h7.856m-7.856-38.944h7.856" stroke="#F00" stroke-width="3" stroke-miterlimit="10"/><path d="M123.787 73.09v2.513a62.922 62.922 0 0 1-.623 8.92l-1.497 10.301a2.91 2.91 0 0 0 .873 2.513 2.859 2.859 0 0 0 1.995.88h.749" stroke="#F00" stroke-width="2" stroke-miterlimit="10"/></symbol><symbol viewBox="0 0 175 110" fill="none" id="algorithm2" xmlns="http://www.w3.org/2000/svg"><path d="M55.636 98.873v-16.23c.1-3.409 1.546-6.64 4.023-8.99a12.997 12.997 0 0 1 9.206-3.564h3.562a3.444 3.444 0 0 0 3.052-1.775l1.272-2.536h1.272l8.523 7.988a1.147 1.147 0 0 0 1.526 0l8.777-8.242h1.654l1.017 1.902a3.432 3.432 0 0 0 3.053 1.776h2.417c8.014 0 14.501 6.086 14.501 13.694v15.977m-16.154-51.101a2.654 2.654 0 0 1 .127 2.79C99.648 58.17 95.069 60.96 87.182 60.96c-7.886 0-12.593-3.931-16.918-11.92a5.487 5.487 0 0 1-3.905-1.507 5.453 5.453 0 0 1-1.692-3.818v-4.692a2.528 2.528 0 0 1 .79-1.84 2.545 2.545 0 0 1 1.882-.696 5.354 5.354 0 0 0 3.18-1.014l4.325-3.297.89-.761 3.689-4.565 3.689 1.902a48.287 48.287 0 0 1 18.062 15.85l2.163 3.17z" stroke="#F00" stroke-width="3" stroke-miterlimit="10"/><path d="M73.444 69.963l14.12 22.697 14.882-23.205" stroke="#F00" stroke-width="3" stroke-miterlimit="10"/><path d="M87.564 81.628c1.053 0 1.908-.795 1.908-1.775 0-.98-.855-1.775-1.908-1.775-1.054 0-1.908.794-1.908 1.775 0 .98.854 1.775 1.907 1.775z" stroke="#F00" stroke-width="2" stroke-miterlimit="10"/><path d="M72.3 70.09l-4.453-7.736a31.261 31.261 0 0 1-3.307-8.495l-.763-3.17a58.527 58.527 0 0 1-.127-25.487 12.534 12.534 0 0 1 2.046-4.576 12.577 12.577 0 0 1 3.678-3.413l2.671-1.648a2.932 2.932 0 0 1 3.053 0 .766.766 0 0 0 .89-.127 13.757 13.757 0 0 1 6.87-3.17l3.306-.507a21.178 21.178 0 0 1 9.413.76 19.835 19.835 0 0 1 10.685 7.99l1.018 1.52a27.587 27.587 0 0 1 4.325 11.666l.636 4.946c.35 3.129.222 6.292-.382 9.383l-1.526 8.622a38.575 38.575 0 0 1-2.163 7.482l-2.162 5.325m-27.984-3.677V58.55m18.698 7.101v-6.974" stroke="#F00" stroke-width="3" stroke-miterlimit="10"/></symbol><symbol viewBox="0 0 175 110" fill="none" id="algorithm3" xmlns="http://www.w3.org/2000/svg"><path d="M63.047 53.403h3.759v26.233h-3.758a13.371 13.371 0 0 1-9.394-3.841 13.033 13.033 0 0 1-3.891-9.275c0-3.479 1.4-6.815 3.89-9.275a13.371 13.371 0 0 1 9.395-3.842zm-2.971 26.233V59.185m52.964 20.451h-3.758V53.403h3.758a13.37 13.37 0 0 1 9.393 3.842 13.03 13.03 0 0 1 3.891 9.275 13.03 13.03 0 0 1-3.891 9.275 13.37 13.37 0 0 1-9.393 3.841zm2.884 0V59.185m-18.966-42.37H79.13c-2.365 0-4.283 1.874-4.283 4.185 0 2.312 1.918 4.186 4.283 4.186h17.83c2.365 0 4.282-1.874 4.282-4.186 0-2.311-1.917-4.185-4.283-4.185zm-14.945 0v8.37m6.293-8.37v8.37M60.076 53.49V42.356a23.261 23.261 0 0 1 4.029-13.095 23.712 23.712 0 0 1 10.741-8.65" stroke="#F00" stroke-width="3" stroke-miterlimit="10"/><path d="M116.011 53.404V42.272a23.261 23.261 0 0 0-4.028-13.095 23.717 23.717 0 0 0-10.742-8.65M89.879 82.14h-7.342c-3.089 0-5.593 2.47-5.593 5.518 0 3.048 2.504 5.519 5.593 5.519h7.342c3.09 0 5.594-2.47 5.594-5.519 0-3.047-2.505-5.518-5.594-5.518z" stroke="#F00" stroke-width="3" stroke-miterlimit="10"/><path d="M95.385 87.662h8.216a7.398 7.398 0 0 0 4.807-1.813l.961-.776a7.258 7.258 0 0 0 1.862-2.448 7.172 7.172 0 0 0 .673-2.989" stroke="#F00" stroke-width="3" stroke-miterlimit="10"/></symbol><symbol viewBox="0 0 175 110" fill="none" id="algorithm4" xmlns="http://www.w3.org/2000/svg"><path d="M95.564 63.916h1.803c2.39 0 4.756.483 6.962 1.42a18.109 18.109 0 0 1 5.895 4.043 18.574 18.574 0 0 1 3.924 6.045 18.888 18.888 0 0 1 1.351 7.12v14.944H59.501V82.545a18.878 18.878 0 0 1 1.351-7.121 18.562 18.562 0 0 1 3.924-6.045 18.114 18.114 0 0 1 5.895-4.043 17.797 17.797 0 0 1 6.962-1.42L87.65 68.01l7.914-4.094zm-22.64 16.786v16.786m29.552-16.786v16.786M87.55 11.512c2.526 0 5.027.508 7.36 1.496a19.21 19.21 0 0 1 6.24 4.26 19.694 19.694 0 0 1 4.17 6.375 20.034 20.034 0 0 1 1.464 7.52v9.212a19.62 19.62 0 0 1-1.443 7.388 19.271 19.271 0 0 1-4.109 6.255 18.804 18.804 0 0 1-6.144 4.164 18.483 18.483 0 0 1-7.237 1.436h-.802a18.49 18.49 0 0 1-7.2-1.504 18.82 18.82 0 0 1-6.088-4.205 19.281 19.281 0 0 1-4.05-6.264 19.609 19.609 0 0 1-1.395-7.372V31.06c.027-5.194 2.065-10.166 5.669-13.83 3.604-3.663 8.481-5.72 13.565-5.72z" stroke="#F00" stroke-width="3" stroke-miterlimit="10"/><path d="M68.717 44.367l5.21-9.416c.205-.392.373-.803.5-1.229l1.302-4.81a.723.723 0 0 1 .159-.312.7.7 0 0 1 .626-.232.694.694 0 0 1 .317.134l9.617 6.756a.591.591 0 0 0 .64-.018.611.611 0 0 0 .262-.596l-1.102-7.37a.418.418 0 0 1 .174-.398.395.395 0 0 1 .427-.011l6.21 3.275a24.18 24.18 0 0 1 3.607 2.354 24.611 24.611 0 0 1 6.411 7.472l3.306 4.81M95.664 64.019v-6.141m-17.731 6.141V57.16m7.413 10.953h-.701a2.094 2.094 0 0 0-1.368.804c-.336.44-.493.995-.435 1.55v1.228c-.058.555.099 1.11.435 1.55.337.44.827.728 1.368.804h5.81a2.095 2.095 0 0 0 1.368-.804c.336-.44.492-.995.435-1.55v-1.228a2.183 2.183 0 0 0-.435-1.55 2.094 2.094 0 0 0-1.368-.804h-5.109zm.401 5.937l-4.408 9.723a6.891 6.891 0 0 0-.347 4.705 6.746 6.746 0 0 0 2.751 3.79l3.907 2.559h.701l3.907-2.559a6.745 6.745 0 0 0 2.752-3.79 6.89 6.89 0 0 0-.348-4.705l-4.407-9.724" stroke="#F00" stroke-width="3" stroke-miterlimit="10"/></symbol><symbol viewBox="0 0 175 110" fill="none" id="algorithm5" xmlns="http://www.w3.org/2000/svg"><path d="M108.566 78.574l6.035 9.989a4.28 4.28 0 0 1 .473 3.218 4.267 4.267 0 0 1-1.926 2.617 27.157 27.157 0 0 1-20.654 3.282 27.218 27.218 0 0 1-9.676-4.494 27.341 27.341 0 0 1-7.22-7.878L53.582 48.832a27.499 27.499 0 0 1-3.269-20.742 27.44 27.44 0 0 1 4.477-9.717 27.312 27.312 0 0 1 7.844-7.25 4.23 4.23 0 0 1 3.206-.475 4.248 4.248 0 0 1 2.606 1.933l7.376 12.01a7.209 7.209 0 0 1 .906 4.973 7.19 7.19 0 0 1-2.583 4.342l-3.017 2.469a6.081 6.081 0 0 0-1.341 8.08l19.557 30.527a6.037 6.037 0 0 0 3.502 2.582 6.012 6.012 0 0 0 4.32-.45l2.013-1.01a7.125 7.125 0 0 1 5.174-.608 7.153 7.153 0 0 1 4.213 3.078z" stroke="#F00" stroke-width="3" stroke-miterlimit="10"/><path d="M113.955 63.966a12.906 12.906 0 0 0 5.522-3.23l2.347-2.289a10.368 10.368 0 0 0 3.175-7.403 10.297 10.297 0 0 0-1.38-5.25l-.967-1.615a17.69 17.69 0 0 1-2.347-8.884 17.64 17.64 0 0 1 .415-3.5l.69-3.095a.265.265 0 0 0-.081-.19.28.28 0 0 0-.195-.08l-4.418 2.558a9.487 9.487 0 0 0-3.866 4.442l-.414.942a.539.539 0 0 1-.346.333.569.569 0 0 1-.482-.063l-1.243-.808a11.355 11.355 0 0 1-4.141-5.115 11.043 11.043 0 0 1-.829-4.038V14.836a.66.66 0 0 0-.049-.458.687.687 0 0 0-.34-.32.71.71 0 0 0-.472-.032.685.685 0 0 0-.381.271l-4.556 4.173a12.497 12.497 0 0 0-2.772 4.08 12.244 12.244 0 0 0-.956 4.804 12.81 12.81 0 0 0 1.933 6.865 11.365 11.365 0 0 1 1.795 6.057c.005.373-.065.744-.207 1.09a2.822 2.822 0 0 1-.622.929h-.138c-.27.269-.592.482-.947.628a2.963 2.963 0 0 1-2.247 0 2.905 2.905 0 0 1-.947-.628 2.823 2.823 0 0 1-.622-.929 2.766 2.766 0 0 1-.207-1.09v-5.654a.294.294 0 0 0 .017-.23.304.304 0 0 0-.155-.173.316.316 0 0 0-.236-.017.307.307 0 0 0-.178.151l-1.243 1.212a12.904 12.904 0 0 0-2.867 4.201A12.641 12.641 0 0 0 88 44.718v3.23a14.664 14.664 0 0 0 2.255 7.722 15.178 15.178 0 0 0 6.028 5.47l2.761 1.48a12.977 12.977 0 0 0 6.765 1.346h8.146z" stroke="#F00" stroke-width="3" stroke-miterlimit="10"/></symbol><symbol viewBox="0 0 175 110" fill="none" id="algorithm6" xmlns="http://www.w3.org/2000/svg"><path d="M133.551 74.882H84.046m-24.753-.154h-3.558a6.969 6.969 0 0 1-4.796-1.853 6.947 6.947 0 0 1-2.165-4.941V42.456L64.399 27.94a15.796 15.796 0 0 1 10.674-4.169h37.129a15.793 15.793 0 0 1 11.138 4.632l14.078 14.052h23.67a8.362 8.362 0 0 1 5.879 2.47l2.784 2.78a8.336 8.336 0 0 1 2.476 5.867v14.515a6.79 6.79 0 0 1-2.012 4.787 6.812 6.812 0 0 1-4.795 2.007h-6.343m-26.919-32.425h5.26m-88.644 0h74.566m-61.726 0l18.719-18.684M97.35 42.456V23.772" stroke="#F00" stroke-width="3" stroke-miterlimit="10"/><path d="M123.959 43.228v-.772a8.017 8.017 0 0 1 .464-2.625v-.618a.93.93 0 0 1 .929-.617h3.558a2.638 2.638 0 0 1 2.011.926 5.394 5.394 0 0 1 1.237 3.397 5.393 5.393 0 0 1-1.237 3.397v.309a2.636 2.636 0 0 1-2.011.926h-3.249a.93.93 0 0 1-.774-.617l-.309-.618a8.026 8.026 0 0 1-.619-3.088z" stroke="#F00" stroke-width="2" stroke-miterlimit="10"/><path d="M162.016 42.456v8.03a6.17 6.17 0 0 0 1.857 4.323 6.192 6.192 0 0 0 4.331 1.853h4.023" stroke="#F00" stroke-width="3" stroke-miterlimit="10"/><path d="M78.631 47.706h-7.735v3.613h7.735v-3.613zm31.869 0h-7.735v3.613h7.735v-3.613z" stroke="#F00" stroke-width="2" stroke-miterlimit="10"/><path d="M48.774 49.25h6.188v11.272h-6.188M71.67 85.228c6.835 0 12.376-5.53 12.376-12.353 0-6.822-5.541-12.353-12.377-12.353-6.835 0-12.376 5.53-12.376 12.353 0 6.822 5.541 12.353 12.376 12.353z" stroke="#F00" stroke-width="3" stroke-miterlimit="10"/><path d="M71.67 79.052c3.417 0 6.188-2.766 6.188-6.177 0-3.411-2.771-6.176-6.189-6.176-3.417 0-6.188 2.765-6.188 6.176s2.77 6.177 6.188 6.177zm74.721 6.176c6.835 0 12.376-5.53 12.376-12.353 0-6.822-5.541-12.353-12.376-12.353-6.835 0-12.376 5.53-12.376 12.353 0 6.822 5.541 12.353 12.376 12.353z" stroke="#F00" stroke-width="3" stroke-miterlimit="10"/><path d="M146.391 79.052a6.183 6.183 0 0 0 6.188-6.177c0-3.411-2.77-6.176-6.188-6.176-3.417 0-6.188 2.765-6.188 6.176s2.771 6.177 6.188 6.177zM82.499 66.699h53.063m-74.722 0H48.774m108.446 0h15.007M24 67h15.006M2 61h37M2 55h37M8 49h31m-15-6h15" stroke="#F00" stroke-width="3" stroke-miterlimit="10"/></symbol><symbol viewBox="0 0 175 110" fill="none" id="algorithm7" xmlns="http://www.w3.org/2000/svg"><path d="M58.201 60.32h-2.587l-1.37 6.501-7.458-6.35H33.24a5.65 5.65 0 0 1-3.982-1.638 5.575 5.575 0 0 1-1.65-3.955V39.76c0-1.484.594-2.907 1.65-3.956a5.65 5.65 0 0 1 3.982-1.638h24.961a5.65 5.65 0 0 1 3.982 1.638 5.575 5.575 0 0 1 1.65 3.956v15.118a5.577 5.577 0 0 1-1.703 3.858 5.651 5.651 0 0 1-3.929 1.585zM36.589 43.237h18.264m-18.264 8.617h9.284m46.878 11.641h1.674c2.332-.02 4.644.42 6.803 1.292a17.668 17.668 0 0 1 5.78 3.791 17.512 17.512 0 0 1 3.866 5.708 17.434 17.434 0 0 1 1.359 6.747v14.211h-54.64V81.033c0-2.303.456-4.584 1.343-6.712a17.528 17.528 0 0 1 3.828-5.689 17.662 17.662 0 0 1 5.727-3.802 17.757 17.757 0 0 1 6.757-1.335l9.893 9.827 7.61-9.827zM70.834 79.37v15.874M99.448 79.37v15.874m-19.33-81.488h9.589c1.819 0 3.62.356 5.3 1.047a13.858 13.858 0 0 1 4.493 2.982 13.746 13.746 0 0 1 3.003 4.464 13.679 13.679 0 0 1 1.054 5.265v13.153c0 4.905-1.951 9.612-5.43 13.096a18.783 18.783 0 0 1-13.138 5.5c-4.966 0-9.727-1.96-13.238-5.447a18.533 18.533 0 0 1-5.483-13.15V27.515c0-3.65 1.459-7.148 4.056-9.729a13.897 13.897 0 0 1 9.794-4.03z" stroke="#F00" stroke-width="3" stroke-miterlimit="10"/><path d="M66.725 45.504l4.87-9.524.457-1.21 1.217-4.535a.754.754 0 0 1 .427-.471.763.763 0 0 1 .639.017l9.284 6.501a.612.612 0 0 0 .866-.273.601.601 0 0 0 .047-.331l-1.065-6.955a.45.45 0 0 1 .387-.475.46.46 0 0 1 .222.021l6.088 3.175 3.5 2.117a23.482 23.482 0 0 1 6.24 7.105l2.74 4.838M75.4 63.495v-6.803m17.503 6.803V57.6m13.546 10.43a16.674 16.674 0 0 1 7.762-2.116l3.957 3.931a4.576 4.576 0 0 0 3.528 1.314 4.59 4.59 0 0 0 3.322-1.768l2.739-3.477h1.37c1.799 0 3.58.352 5.242 1.036a13.702 13.702 0 0 1 4.444 2.95 13.593 13.593 0 0 1 2.969 4.414 13.516 13.516 0 0 1 1.043 5.207v10.885h-30.44m20.547-12.246v12.246m-18.721-24.492v-5.291m13.546 5.291V61.38" stroke="#F00" stroke-width="3" stroke-miterlimit="10"/><path d="M141.607 74.532l.609-.303a8.822 8.822 0 0 0 2.892-2.267l1.37-1.663a6.88 6.88 0 0 1-4.262-1.361h-.304a6.81 6.81 0 0 1-2.435-3.175 8.724 8.724 0 0 1-1.066-3.326c0-1.814.761-2.268 1.37-4.082a25.293 25.293 0 0 0 1.218-5.291l.304-2.873c.31-2.62.208-5.273-.304-7.861v-.605a23.967 23.967 0 0 0-3.805-8.92 11.682 11.682 0 0 0-3.197-3.175h-.304a11.164 11.164 0 0 0-6.088-1.814h-1.218a17.616 17.616 0 0 1-9.741 0h-1.369l-2.283.454-1.979.604a5.929 5.929 0 0 0-3.501 2.873 27.14 27.14 0 0 0-1.978 4.686 27.022 27.022 0 0 0-1.218 7.862v2.117c.015.96-.036 1.92-.152 2.872v.605a40.379 40.379 0 0 0-.304 8.164c.182 2.97.693 5.91 1.522 8.768v.303" stroke="#F00" stroke-width="3" stroke-miterlimit="10"/><path d="M134.911 46.714h-3.044a13.288 13.288 0 0 1-9.285-3.78l-2.435-2.419-2.435 2.42a13.287 13.287 0 0 1-9.284 3.779h-.609a.603.603 0 0 0-.609.605v1.36a14.31 14.31 0 0 0 4.235 10.156 14.509 14.509 0 0 0 10.224 4.207c3.835 0 7.513-1.513 10.224-4.207a14.312 14.312 0 0 0 4.235-10.156v-.907a1.042 1.042 0 0 0-.364-.807 1.068 1.068 0 0 0-.853-.251z" stroke="#F00" stroke-width="3" stroke-miterlimit="10"/></symbol><symbol viewBox="0 0 175 110" fill="none" id="algorithm8" xmlns="http://www.w3.org/2000/svg"><path d="M66.1 95.4c10.825 0 19.6-8.775 19.6-19.6 0-10.825-8.775-19.6-19.6-19.6-10.825 0-19.6 8.775-19.6 19.6 0 10.825 8.775 19.6 19.6 19.6z" stroke="#F00" stroke-width="3" stroke-miterlimit="10"/><path d="M66.1 88.8c7.18 0 13-5.82 13-13s-5.82-13-13-13-13 5.82-13 13 5.82 13 13 13zm15.6 4.1a19.6 19.6 0 1 0 .5-34.4m3.5 29.1a13 13 0 1 0 .4-23.7m-29-9.5v-8.1a3.8 3.8 0 0 1 3.8-3.8H71a3.8 3.8 0 0 1 3.8 3.7c.1 3.4.1 8-.1 8.2m-11.8-12v-2.2a3 3 0 0 1 3.1-2.8 3 3 0 0 1 3.1 2.8v2.2m9.346-19.653l-4.879 4.88a3.5 3.5 0 0 0 0 4.95l.043.042a3.5 3.5 0 0 0 4.95 0l4.878-4.88a3.5 3.5 0 0 0 0-4.949l-.042-.043a3.5 3.5 0 0 0-4.95 0zm40.515.437l-6.003-3.45a3.512 3.512 0 0 0-4.795 1.295l-.03.052a3.512 3.512 0 0 0 1.295 4.795l6.003 3.45a3.512 3.512 0 0 0 4.795-1.295l.03-.052a3.511 3.511 0 0 0-1.295-4.795zM127.8 41v-6.9a3.5 3.5 0 0 0-3.5-3.5h-.06a3.5 3.5 0 0 0-3.5 3.5V41a3.5 3.5 0 0 0 3.5 3.5h.06a3.5 3.5 0 0 0 3.5-3.5zM98.5 14.5h-6.9a3.5 3.5 0 0 0-3.5 3.5v.06a3.5 3.5 0 0 0 3.5 3.5h6.9a3.5 3.5 0 0 0 3.5-3.5V18a3.5 3.5 0 0 0-3.5-3.5zM68 38l5.5-5.5m10-9.8l4.6-4m14-.7l5.6.7m11.8 7.2l3.7 4.9M66 47.2V52" stroke="#F00" stroke-width="3" stroke-miterlimit="10"/><path d="M100.1 53.5l5.7-5.8a3.802 3.802 0 0 1 5.4-.1l7.2 7.1a3.801 3.801 0 0 1 .1 5.3c-2.4 2.5-5.6 5.8-5.8 5.8" stroke="#F00" stroke-width="3" stroke-miterlimit="10"/><path d="M112.6 49l1.6-1.6a3 3 0 0 1 4.2.2 3 3 0 0 1 .2 4.2l-1.6 1.5m-5.5 1.3l-3.3 3.4m14.2-13.9l-3.7 3.7" stroke="#F00" stroke-width="3" stroke-miterlimit="10"/></symbol><symbol viewBox="0 0 175 110" fill="none" id="algorithm9" xmlns="http://www.w3.org/2000/svg"><path d="M72.603 34.799V26.43c0-3.17 1.393-6.21 3.871-8.452 2.479-2.242 5.84-3.501 9.345-3.501h33.436c3.505 0 6.867 1.26 9.345 3.501 2.479 2.242 3.871 5.282 3.871 8.452v55.942c0 3.17-1.392 6.21-3.871 8.452-2.478 2.242-5.84 3.501-9.345 3.501h-8.986M97.317 41.014h22.203M97.317 51.533h22.203m-46.917-22.83h59.736m0 47.574h-17.313M55.687 65.4h-8.061c-2.19 0-3.965 1.605-3.965 3.585v22.867c0 1.98 1.775 3.586 3.965 3.586h8.061c2.19 0 3.965-1.605 3.965-3.586V68.985c0-1.98-1.775-3.586-3.965-3.586z" stroke="#F00" stroke-width="3" stroke-miterlimit="10"/><path d="M59.784 71.615c3.96-.778 7.506-2.761 10.044-5.618l.397-.478c2.55-2.84 3.95-6.383 3.965-10.04V44.241c0-1.458.64-2.857 1.78-3.888 1.14-1.031 2.686-1.61 4.299-1.61h1.321a6.64 6.64 0 0 1 2.327.418 6.158 6.158 0 0 1 1.972 1.192 5.497 5.497 0 0 1 1.318 1.784c.305.667.463 1.382.463 2.104v17.093c0 .761.334 1.49.929 2.029a3.35 3.35 0 0 0 2.242.84h12.556a5.058 5.058 0 0 1 1.784.299c.567.205 1.083.51 1.519.896.428.395.765.862.992 1.375.227.513.339 1.061.33 1.614v1.315c-.011 1.169-.534 2.286-1.454 3.108v2.51c0 .665-.292 1.304-.813 1.775a2.93 2.93 0 0 1-1.962.735v5.379a1.94 1.94 0 0 1-.658 1.437 2.372 2.372 0 0 1-1.589.595v2.51a5.903 5.903 0 0 1-.505 2.507 6.418 6.418 0 0 1-1.538 2.135 7.218 7.218 0 0 1-2.331 1.43 7.795 7.795 0 0 1-2.762.502H70.093" stroke="#F00" stroke-width="3" stroke-miterlimit="10"/></symbol><symbol viewBox="0 0 86 84" fill="none" id="command1" xmlns="http://www.w3.org/2000/svg"><path d="M42.894 22.117h1.121c4.53 0 8.876 1.886 12.09 5.247 3.214 3.36 5.034 7.923 5.063 12.692v30.566H25.853V40.056c.03-4.748 1.834-9.293 5.024-12.65 3.19-3.358 7.506-5.258 12.017-5.289z" stroke="#F00" stroke-width="3" stroke-miterlimit="10"/><path d="M43.006 64.957V30.143c3.865.008 7.57 1.619 10.315 4.484 1.982 2.058 3.11 4.858 3.139 7.79v22.422l-13.454.118zm29.15 5.665h-57.29v9.89h57.29v-9.89zm-52.245-31.51H5m18.05-11.92l-12.444-8.025m20.853 0L23.05 4.179m30.27 14.988l8.41-14.988M42.894 18.34V.876m21.974 38.236H79.78m-18.051-11.92l12.444-8.025" stroke="#F00" stroke-width="3" stroke-miterlimit="10"/></symbol><symbol viewBox="0 0 86 84" fill="none" id="command2" xmlns="http://www.w3.org/2000/svg"><path d="M58.774 28.024H26.569c-3.914 0-7.087 2.495-7.087 5.574V76.14c0 3.079 3.173 5.574 7.087 5.574h32.205c3.914 0 7.087-2.495 7.087-5.574V33.598c0-3.079-3.173-5.574-7.087-5.574z" stroke="#F00" stroke-width="3" stroke-miterlimit="10"/><path d="M41.264 24.007h-8.963v4.033h8.963v-4.033zm16.572 0h-8.963v4.033h8.963v-4.033zM23.13 28.68V3.103c0-.218.11-.426.305-.58a1.2 1.2 0 0 1 .737-.24h4.377a1.2 1.2 0 0 1 .738.24.743.743 0 0 1 .305.58v24.92m-.105 5.739h24.91c1.105 0 2.165.345 2.947.96s1.221 1.449 1.221 2.319v6.148H25.32V37.04c0-.87.439-1.704 1.22-2.319.782-.615 1.843-.96 2.948-.96zm-2.084 25.329h28.66m-30.744 6.23h33.246M28.967 71.96h24.387" stroke="#F00" stroke-width="3" stroke-miterlimit="10"/></symbol><symbol viewBox="0 0 86 84" fill="none" id="command3" xmlns="http://www.w3.org/2000/svg"><path d="M55.516 47.135L42.712 63.869 30.045 47.135c-4.28 0-8.386 1.899-11.413 5.28-3.027 3.38-4.727 7.966-4.727 12.747v16.583h57.683V65.162c0-4.768-1.691-9.342-4.703-12.72-3.013-3.38-7.1-5.287-11.37-5.307zm-1.431-27.537l.75 2.89c.456 1.73.685 3.523.68 5.325v1.522a14.93 14.93 0 0 1-.916 5.186 13.748 13.748 0 0 1-2.625 4.398l-1.839 2.054a12.123 12.123 0 0 1-3.938 2.931 11.029 11.029 0 0 1-9.286 0 12.123 12.123 0 0 1-3.938-2.931l-1.907-2.13a13.745 13.745 0 0 1-2.624-4.399 14.926 14.926 0 0 1-.917-5.185 20.483 20.483 0 0 1 1.566-7.911l.75-1.674" stroke="#F00" stroke-width="3" stroke-miterlimit="10"/><path d="M54.086 19.598l-1.567 1.674c-2.248 2.427-5.25 3.79-8.377 3.803h-4.29a11.029 11.029 0 0 1-4.643-1.024 12.125 12.125 0 0 1-3.938-2.932l-1.362-1.521h-.953c-1.463 0-2.867-.65-3.901-1.805-1.035-1.155-1.616-2.722-1.616-4.356 0-1.459.257-2.903.757-4.25a11.272 11.272 0 0 1 2.155-3.603 9.948 9.948 0 0 1 3.226-2.408 9.047 9.047 0 0 1 3.805-.845h16.89a9.05 9.05 0 0 1 3.805.845 9.948 9.948 0 0 1 3.226 2.408 11.272 11.272 0 0 1 2.155 3.603c.5 1.347.757 2.791.757 4.25 0 1.634-.581 3.2-1.616 4.356-1.034 1.156-2.438 1.805-3.9 1.805h-.954l-1.362 1.521a12.125 12.125 0 0 1-3.938 2.932 11.029 11.029 0 0 1-4.643 1.024h-4.29c-3.127-.014-6.129-1.377-8.377-3.803l-1.567-1.674" stroke="#F00" stroke-width="3" stroke-miterlimit="10"/><path d="M44.892 7.732h-6.538v5.005h6.538V7.732z" stroke="#F00" stroke-width="3" stroke-miterlimit="10"/></symbol><symbol viewBox="0 0 86 84" fill="none" id="command4" xmlns="http://www.w3.org/2000/svg"><path d="M49.252 47.135l-5.993 16.734-5.857-16.734c-8.922 0-22.951 8.063-22.951 18.027v16.583h57.683V65.162c0-9.964-14.029-18.028-22.882-18.028zm5.38-27.537l.749 2.89c.456 1.73.685 3.523.68 5.325v1.522a14.93 14.93 0 0 1-.916 5.186 13.748 13.748 0 0 1-2.625 4.398l-1.838 2.054a12.123 12.123 0 0 1-3.939 2.931 11.027 11.027 0 0 1-9.286 0 12.123 12.123 0 0 1-3.937-2.931l-1.907-2.13a13.746 13.746 0 0 1-2.625-4.399 14.927 14.927 0 0 1-.917-5.185 20.483 20.483 0 0 1 1.567-7.911l.749-1.674m28.263-5.249H25.688c-1.279 0-2.316 1.15-2.316 2.568 0 1.418 1.037 2.567 2.316 2.567H58.65c1.279 0 2.315-1.15 2.315-2.567 0-1.418-1.037-2.567-2.315-2.567z" stroke="#F00" stroke-width="3" stroke-miterlimit="10"/><path d="M37.334 2.255h9.125c2.168 0 4.246.962 5.78 2.673 1.532 1.712 2.393 4.034 2.393 6.455v3.043h-25.47v-3.043c0-2.421.86-4.743 2.393-6.455 1.532-1.711 3.611-2.673 5.779-2.673zm-4.087 23.657v2.358c0 .323.115.632.32.86.204.229.48.357.77.357h4.971c.29 0 .566-.128.77-.357.205-.228.32-.537.32-.86v-2.74a1.29 1.29 0 0 0-.32-.86 1.035 1.035 0 0 0-.77-.357h-4.971c-.29 0-.566.128-.77.357a1.29 1.29 0 0 0-.32.86v.38zm0 0H28.48m22.814 0v2.358c0 .323-.114.632-.319.86a1.035 1.035 0 0 1-.77.357h-4.972c-.289 0-.566-.128-.77-.357a1.293 1.293 0 0 1-.32-.86v-2.74c0-.322.115-.632.32-.86.204-.229.481-.357.77-.357h4.972c.289 0 .566.128.77.357.205.228.32.538.32.86v.38zm0 0h4.768" stroke="#F00" stroke-width="3" stroke-miterlimit="10"/><path d="M40.33 26.368a6.066 6.066 0 0 1 3.746-.076h.136" stroke="#F00" stroke-width="3" stroke-miterlimit="10"/></symbol><symbol viewBox="0 0 86 84" fill="none" id="command5" xmlns="http://www.w3.org/2000/svg"><path d="M55.54 41.648l-12.803 5.544-12.667-5.456c-2.12 0-4.219.54-6.177 1.587-1.958 1.048-3.738 2.585-5.236 4.521-1.5 1.937-2.688 4.236-3.5 6.766a26.234 26.234 0 0 0-1.228 7.98v19.095h57.683V62.503c0-5.516-1.69-10.807-4.703-14.716-3.012-3.908-7.1-6.116-11.369-6.14zm-13.348-3.432c7.673 0 13.893-8.037 13.893-17.95 0-9.915-6.22-17.952-13.893-17.952-7.673 0-13.893 8.037-13.893 17.951s6.22 17.951 13.893 17.951z" stroke="#F00" stroke-width="3" stroke-miterlimit="10"/><path d="M28.503 23.081c1.464.318 2.966.136 4.359-.528l2.247-1.056c1.653-.772 3.08-2.186 4.087-4.047l4.426-5.72 2.52 2.376c1.294 1.232 1.43 2.2 2.928 2.904a13.541 13.541 0 0 0 5.721 1.232h1.226M44.916 49.303h-3.814c-.714 0-1.294.749-1.294 1.672v.07c0 .924.58 1.673 1.294 1.673h3.814c.715 0 1.294-.749 1.294-1.672v-.07c0-.924-.58-1.672-1.294-1.672z" stroke="#F00" stroke-width="3" stroke-miterlimit="10"/><path d="M44.712 75.262l-1.703 2.463-1.702-2.463V54.67h3.405v20.59z" stroke="#F00" stroke-width="2" stroke-miterlimit="10"/></symbol><symbol viewBox="0 0 86 84" fill="none" id="command6" xmlns="http://www.w3.org/2000/svg"><path d="M44.11 2.54l27.236 8.556v24.756c0 20.022-9.687 37.717-27.236 45.526a3.74 3.74 0 0 1-1.509.332 3.743 3.743 0 0 1-1.509-.332c-17.549-7.81-27.236-25.504-27.236-45.526V11.096l27.236-8.557 1.588-.249 1.43.25z" stroke="#F00" stroke-width="3" stroke-miterlimit="10"/><path d="M43.713 10.93l21.44 6.729v19.44c0 15.784-7.624 29.657-21.44 35.805a2.977 2.977 0 0 1-2.382 0c-13.817-6.148-21.44-20.021-21.44-35.805V17.742l21.44-6.73 1.19-.165 1.192.083zM24.972 26.216H61.42" stroke="#F00" stroke-width="3" stroke-miterlimit="10"/><path d="M56.18 48.646H30.134v6.995H56.18v-6.995zm-14.611-22.43v22.43m3.414-22.513V48.48m-1.826-22.514c2.061 0 3.732-1.748 3.732-3.904 0-2.157-1.671-3.905-3.732-3.905s-3.732 1.748-3.732 3.905c0 2.156 1.67 3.904 3.732 3.904zm-12.07 17.446c3.158 0 5.717-2.678 5.717-5.981 0-3.304-2.56-5.982-5.717-5.982-3.158 0-5.717 2.678-5.717 5.982 0 3.303 2.56 5.981 5.717 5.981zm-2.382-11.464v-5.732m4.685 5.732v-5.732m22.313 17.196c3.158 0 5.717-2.678 5.717-5.981 0-3.304-2.56-5.982-5.717-5.982-3.157 0-5.717 2.678-5.717 5.982 0 3.303 2.56 5.981 5.717 5.981zm-2.382-11.464v-5.732m4.685 5.732v-5.732M25.37 37.43h11.434m13.182 0H61.42" stroke="#F00" stroke-width="3" stroke-miterlimit="10"/></symbol><symbol viewBox="0 0 86 84" fill="none" id="command7" xmlns="http://www.w3.org/2000/svg"><path d="M7.47 67.805h48.802v13.762H8.062a4.762 4.762 0 0 1-2.207-.552 5.88 5.88 0 0 1-1.87-1.572c-1.082-1.36-1.69-3.205-1.69-5.129 0-1.726.545-3.382 1.516-4.603.97-1.22 2.287-1.906 3.66-1.906z" stroke="#F00" stroke-width="3" stroke-miterlimit="10"/><path d="M2.295 74.314V11.359c.002-1.949.613-3.818 1.7-5.207l3.032-3.813h49.245v24.085l2.662-3.348v-2.232c0-.665.21-1.304.584-1.775.375-.47.883-.735 1.412-.735h2.144l9.317 11.717v2.417c0 .666-.21 1.305-.585 1.776-.374.47-.882.735-1.411.735h-2.736l-4.806 6.044 20.85 26.224v5.207h-4.657L58.194 46.231l-4.954 6.323v2.325c0 .863-.272 1.691-.758 2.301-.485.61-1.143.954-1.83.954h-1.848l-8.8-10.787v-2.604c0-.863.273-1.691.759-2.301.485-.61 1.143-.954 1.83-.954h1.848l11.83-15.064m-11.83 15.064l8.725 10.973m5.768-29.385l8.65 11.903M7.027 2.34v65.465m49.245 0V48.649M14.495 14.8h35.27m-35.27 9.113h25.658M14.495 43.906h15.38m-15.38 9.392h21.148m-21.148-19.9h1.997m2.07 0h1.996m2.145 0h1.996m3.623 0h1.923" stroke="#F00" stroke-width="3" stroke-miterlimit="10"/></symbol><symbol viewBox="0 0 100 100" fill="none" id="debt1" xmlns="http://www.w3.org/2000/svg"><g clip-path="url(#axa)" stroke="#F00" stroke-width="3.5" stroke-miterlimit="10"><path d="M2.07 35.178L18.614 2.372l5.614 3.952c4.006 2.745 8.591 3.581 13 2.372l8.864-2.372h4.136c3.2.048 6.343 1.133 9.16 3.162l10.636 7.51c.687.448 1.283 1.111 1.736 1.934a7.59 7.59 0 0 1 .867 2.79 8.362 8.362 0 0 1-.2 3.01c-.247.967-.666 1.84-1.22 2.543h-.296c-1.17 1.534-2.556 2.743-4.078 3.557-1.52.814-3.148 1.217-4.786 1.186-2.289.026-4.538-.794-6.5-2.372l-5.614-4.347c-.633-.524-1.373-.767-2.116-.696-.742.07-1.45.452-2.02 1.09l-19.5 19.368c-2.814 2.823-6.235 4.348-9.751 4.348-3.652-.026-7.19-1.697-10.046-4.743l-4.136-5.929c-.357-.45-.582-1.054-.636-1.706a3.517 3.517 0 0 1 .34-1.851z"/><path d="M64.116 11.858l18.318-8.696c1.586-.671 3.294-.608 4.85.182 1.554.789 2.865 2.257 3.718 4.166l5.614 13.043c.588 1.457.893 3.088.887 4.744V39.92c-.027 2.51-.766 4.912-2.069 6.72l-4.431 6.323M15.956 54.94v7.51c.033 1.773.56 3.464 1.477 4.744.92 1.117 2.103 1.769 3.345 1.84 1.24.073 2.462-.439 3.45-1.445l22.16-23.715M21.865 69.17l1.182 5.929c.161 1.183.571 2.28 1.182 3.162l1.477 1.976c.455.643 1.005 1.151 1.616 1.492.61.34 1.268.505 1.93.484h.295c1.092-.054 2.136-.613 2.955-1.58l21.273-22.135M31.32 82.213v1.977a9.299 9.299 0 0 0 .352 2.768 7.741 7.741 0 0 0 1.125 2.37l1.182 1.581c.884 1.177 2.048 1.9 3.29 2.045 1.243.144 2.483-.3 3.506-1.254l18.023-18.578M43.433 90.119l4.432 5.928c.673.954 1.577 1.556 2.55 1.701.975.145 1.956-.178 2.768-.91l9.455-8.3"/><path d="M70.91 92.095l22.456-27.668c.385-.48.691-1.062.901-1.708a6.65 6.65 0 0 0 .318-2.047 6.65 6.65 0 0 0-.318-2.047 5.404 5.404 0 0 0-.901-1.708l-5.319-7.115a4.073 4.073 0 0 0-1.276-1.205 3.034 3.034 0 0 0-1.53-.425c-.527 0-1.047.144-1.53.425-.483.28-.918.69-1.277 1.205l-2.068 2.767h-2.364c-1.49 0-2.917.791-3.97 2.2-1.053 1.408-1.644 3.318-1.644 5.31v2.372h-.59c-1.49 0-2.918.79-3.97 2.2-1.053 1.408-1.645 3.318-1.645 5.31v4.743c-1.489 0-2.916.79-3.97 2.2-1.052 1.407-1.643 3.318-1.643 5.31a12.28 12.28 0 0 0 .61 3.896c.408 1.227 1.005 2.323 1.753 3.218l2.364 3.162c.38.49.83.871 1.324 1.118.494.247 1.02.356 1.547.319a3.114 3.114 0 0 0 1.514-.534 4.27 4.27 0 0 0 1.229-1.298zm-4.726-17.787l3.841 5.139m2.658-17.392l4.727 6.72m3.25-16.601l4.433 5.929"/></g><defs><clipPath id="axa"><path fill="#fff" d="M0 0h100v100H0z"/></clipPath></defs></symbol><symbol viewBox="0 0 100 100" fill="none" id="debt2" xmlns="http://www.w3.org/2000/svg"><path d="M71.644 2.691H6.557V98.3h56.055l8.72-9.867v-40.83" stroke="#F00" stroke-width="3" stroke-miterlimit="10"/><path d="M62.612 98.299V88.09h8.72m22.111-64.984c-.301-4.438-1.802-8.678-4.312-12.183-2.51-3.504-5.917-6.115-9.788-7.5a18.893 18.893 0 0 0-11.952-.28c-3.921 1.202-7.427 3.65-10.073 7.034M92.82 31.612l.623-3.063M54.827 14.94c-2.56 5.279-3.096 11.453-1.49 17.163 1.606 5.711 5.222 10.491 10.054 13.288 4.832 2.798 10.483 3.384 15.71 1.629s9.602-5.706 12.162-10.985" stroke="#F00" stroke-width="3" stroke-miterlimit="10"/><path d="M64.17 13.239c-2.17 1.863-3.787 4.384-4.65 7.248a16.667 16.667 0 0 0-.201 8.848c.731 2.907 2.232 5.513 4.314 7.492 2.082 1.978 4.652 3.242 7.388 3.63m-2.179-29.94l-1.869.68m7.474 29.261a13.23 13.23 0 0 0 5.256-1.751 14.435 14.435 0 0 0 4.243-3.816 15.898 15.898 0 0 0 2.583-5.3c.535-1.934.715-3.964.53-5.975a16.44 16.44 0 0 0-1.602-5.742 15.178 15.178 0 0 0-3.493-4.636 13.74 13.74 0 0 0-4.85-2.822 12.95 12.95 0 0 0-5.47-.58" stroke="#F00" stroke-width="3" stroke-miterlimit="10"/><path d="M72.267 33.993c4.128 0 7.474-3.656 7.474-8.165 0-4.51-3.346-8.166-7.474-8.166s-7.474 3.656-7.474 8.166 3.346 8.165 7.474 8.165zM41.436 9.836H12.162V47.74h29.274V9.836zM10.918 53.387h30.519m-30.519 6.465h30.519m-30.519 6.804h56.99m-56.99 6.465h56.99m-56.99 6.464h56.99" stroke="#F00" stroke-width="3" stroke-miterlimit="10"/></symbol><symbol viewBox="0 0 100 100" fill="none" id="debt3" xmlns="http://www.w3.org/2000/svg"><g clip-path="url(#aza)" stroke="#F00" stroke-width="3" stroke-miterlimit="10"><path d="M88.706 1.326H11.293v97.321h77.412V1.327z"/><path d="M82.233 27.586h-63.69v46.42h63.69v-46.42zm-63.69 51.459h29.515M19.58 15.12h60.323m-61.36 71.352h2.072m28.22 0H23.72m2.332-23.077v-2.122m0-28.913v25.73m-7.509 33.687h29.515m34.176-12.732L52.46 78.78m29.773 7.692h-2.33m-28.221 0h25.114m5.438 5.305H52.46"/><path d="M50.388 53.846c5.72 0 10.356-4.75 10.356-10.61 0-5.86-4.637-10.61-10.356-10.61-5.72 0-10.356 4.75-10.356 10.61 0 5.86 4.636 10.61 10.356 10.61z"/><path d="M34.077 73.74V62.865a9.4 9.4 0 0 1 2.654-6.565 8.953 8.953 0 0 1 6.408-2.72H56.86c2.404 0 4.709.979 6.408 2.72a9.4 9.4 0 0 1 2.654 6.565V73.74m-24.854.265v-9.018m18.382 9.018v-9.018"/></g><defs><clipPath id="aza"><path fill="#fff" d="M0 0h100v100H0z"/></clipPath></defs></symbol><symbol viewBox="0 0 100 100" fill="none" id="debt4" xmlns="http://www.w3.org/2000/svg"><g clip-path="url(#baa)" stroke="#F00" stroke-width="3" stroke-miterlimit="10"><path d="M39.465 39.583c6.095 0 11.037-6.156 11.037-13.75 0-7.593-4.942-13.75-11.037-13.75-6.096 0-11.037 6.156-11.037 13.75s4.941 13.75 11.037 13.75zM21.74 66.667V52.083c0-3.315 1.056-6.494 2.938-8.838 1.881-2.345 4.434-3.662 7.095-3.662h14.715c2.661 0 5.213 1.317 7.095 3.662 1.882 2.344 2.939 5.523 2.939 8.838v14.584m-27.425 0V55m20.067 11.667V55M8.028 66.667h56.856m-39.8 0L21.406 91.25h33.11l-4.014-24.583m-12.374 0V91.25m-12.041-5.833h6.689m9.03-4.584h6.689m-21.07-4.166h6.69m7.691-5h5.351M0 97.917h17.726m15.05 0H69.23m4.349 0h7.023M78.26 25c0 .995-.317 1.948-.881 2.652-.565.703-1.33 1.098-2.129 1.098H62.877l-4.682 5c-.67 0 0-5-.67-5.833a3.554 3.554 0 0 1-.945-1.262A4.454 4.454 0 0 1 56.187 25V12.917c0-.493.078-.98.229-1.435a3.9 3.9 0 0 1 .653-1.217c.279-.348.61-.624.976-.813a2.504 2.504 0 0 1 1.152-.285h6.689"/><path d="M88.628 28.75l-5.016-4.583h-15.72c-.886 0-1.737-.44-2.364-1.22-.628-.782-.98-1.842-.98-2.947V5.833c0-1.105.352-2.164.98-2.946.627-.781 1.477-1.22 2.364-1.22h19.064c.887 0 1.738.439 2.365 1.22.627.782.98 1.841.98 2.946V20c-.013 1.1-.374 2.147-1.004 2.917-1.003.833 0 5.833-.669 5.833zM69.9 10.833h12.375m3.679 58.334c4.617 0 8.36-4.664 8.36-10.417s-3.743-10.417-8.36-10.417c-4.618 0-8.362 4.664-8.362 10.417s3.744 10.417 8.362 10.417z"/><path d="M72.91 88.75V77.917c0-2.431.774-4.763 2.154-6.482 1.38-1.72 3.252-2.685 5.203-2.685h11.037c1.951 0 3.823.966 5.203 2.685 1.38 1.719 2.155 4.05 2.155 6.482V88.75m-20.067 0V80m14.717 8.75V80"/></g><defs><clipPath id="baa"><path fill="#fff" d="M0 0h100v100H0z"/></clipPath></defs></symbol><symbol viewBox="0 0 100 100" fill="none" id="safety01" xmlns="http://www.w3.org/2000/svg"><path d="M76.1 91.2H18.7A9.2 9.2 0 0 1 9.5 82V12.7a9.2 9.2 0 0 1 9.2-9.2h55.2a9.2 9.2 0 0 1 9.2 9.2v34.6" stroke="#F00" stroke-width="3" stroke-miterlimit="10"/><path d="M69.1 78.8c8.781 0 15.9-7.119 15.9-15.9S77.881 47 69.1 47s-15.9 7.119-15.9 15.9 7.119 15.9 15.9 15.9z" stroke="#F00" stroke-width="3" stroke-miterlimit="10"/><path d="M74.735 80.527l7.274-4.2 6.3 10.912a4.1 4.1 0 0 1-1.5 5.601l-.174.1a4.1 4.1 0 0 1-5.6-1.5l-6.3-10.913zM76.1 83l7.4-4.2M55.2 45.6H27.3a1.4 1.4 0 1 1 0-2.8H64l-6.6 2.5a6.2 6.2 0 0 1-2.2.3zm-2.3 4.7H27.3a1.399 1.399 0 0 0-1.4 1.4 1.4 1.4 0 0 0 1.4 1.4H50a1.9 1.9 0 0 0 1.6-.8l1.3-2zm-4.3 10.4H27.3a1.4 1.4 0 1 1 0-2.8h21.9l-.6 2.8zM63.4 83h-12c-.5 0-.9-.6-.9-1.4 0-.8.4-1.4.9-1.4h6.7l5.3 2.8zM48.5 65.3h-2.4a1.4 1.4 0 0 0 0 2.8h3l-.6-2.8zM37.1 27.4c3.48 0 6.3-2.91 6.3-6.5s-2.82-6.5-6.3-6.5-6.3 2.91-6.3 6.5 2.82 6.5 6.3 6.5z" stroke="#F00" stroke-width="2" stroke-miterlimit="10"/><path d="M47.3 36.9a1.2 1.2 0 0 0 1-1.4c-.7-4.6-5.5-8.2-11.3-8.2-5.8 0-10.6 3-11.3 7.6a2.3 2.3 0 0 0 1.2 2h.1a41.2 41.2 0 0 0 20 0h.3z" stroke="#F00" stroke-width="2" stroke-miterlimit="10"/><path d="M37.6 36.7a.602.602 0 0 1-.9 0l-1.4-1.6a1.3 1.3 0 0 1-.2-1.3l1.2-2.3-.7-1.8a.112.112 0 1 1 .1-.2h2.9a.2.2 0 0 1 .1.2l-.7 1.8 1.3 2.2a1.3 1.3 0 0 1-.2 1.4l-1.5 1.6z" stroke="#F00" stroke-miterlimit="10"/></symbol><symbol viewBox="0 0 100 100" fill="none" id="safety02" xmlns="http://www.w3.org/2000/svg"><path d="M15.367 39.938v51.468m8.785-35.809v8.086m7.895-4.108V41.35a8.507 8.507 0 0 1 2.292-5.776l6.493-6.802a17.402 17.402 0 0 0 4.711-11.937V8.107c0-.919-.362-1.8-1.007-2.45a3.424 3.424 0 0 0-2.43-1.015c-.912 0-1.787.365-2.431 1.015a3.48 3.48 0 0 0-1.007 2.45v9.37a5.817 5.817 0 0 1-1.656 4.107 5.726 5.726 0 0 1-1.872 1.244 5.693 5.693 0 0 1-2.202.424h-3.183m-12.479-.898l-2.419 2.439a15.77 15.77 0 0 0-2.42 3.08l-.254.513A17.82 17.82 0 0 0 9.637 37.5v9.883c0 1.532.603 3.001 1.678 4.084a5.707 5.707 0 0 0 4.051 1.692" stroke="#F00" stroke-width="2.5" stroke-miterlimit="10"/><path d="M24.152 25.306c5.415 0 9.804-4.425 9.804-9.883 0-5.458-4.39-9.883-9.804-9.883-5.415 0-9.804 4.425-9.804 9.883 0 5.458 4.39 9.883 9.804 9.883zm60.481 14.632v42.099m-8.785-26.44v26.44m-8.022 0V41.35a8.508 8.508 0 0 0-2.292-5.776l-6.494-6.93a17.402 17.402 0 0 1-4.71-11.937v-8.6c0-.919.361-1.8 1.006-2.45a3.424 3.424 0 0 1 2.431-1.015c.912 0 1.786.365 2.431 1.015a3.48 3.48 0 0 1 1.007 2.45v9.37a5.817 5.817 0 0 0 1.655 4.107 5.726 5.726 0 0 0 1.872 1.244c.7.286 1.448.43 2.203.424h3.31m12.479-.898l2.419 2.439c.93.92 1.743 1.956 2.42 3.08l.254.513a17.82 17.82 0 0 1 2.546 9.113v9.883a5.8 5.8 0 0 1-1.678 4.084 5.707 5.707 0 0 1-4.051 1.692" stroke="#F00" stroke-width="2.5" stroke-miterlimit="10"/><path d="M75.848 25.306c5.415 0 9.804-4.425 9.804-9.883 0-5.458-4.39-9.883-9.804-9.883-5.415 0-9.805 4.425-9.805 9.883 0 5.458 4.39 9.883 9.805 9.883z" stroke="#F00" stroke-width="2.5" stroke-miterlimit="10"/><path d="M37.776 80.368a13.584 13.584 0 0 0 4.774 5.937 13.425 13.425 0 0 0 7.195 2.406h24.066a12.68 12.68 0 0 0 9.003-3.76 12.887 12.887 0 0 0 3.73-9.075V46.74c0-3.404-1.342-6.668-3.73-9.075a12.682 12.682 0 0 0-9.003-3.76H49.618a12.682 12.682 0 0 0-9.004 3.76 12.887 12.887 0 0 0-3.729 9.075v14.632" fill="#fff"/><path d="M37.776 80.368a13.584 13.584 0 0 0 4.774 5.937 13.425 13.425 0 0 0 7.195 2.406h24.066a12.68 12.68 0 0 0 9.003-3.76 12.887 12.887 0 0 0 3.73-9.075V46.74c0-3.404-1.342-6.668-3.73-9.075a12.682 12.682 0 0 0-9.003-3.76H49.618a12.682 12.682 0 0 0-9.004 3.76 12.887 12.887 0 0 0-3.729 9.075v14.632m8.531-15.017h16.298m2.292 31.831h11.715M45.416 50.72h19.609m-19.609 4.363h22.537m-20.5 4.236h26.103M46.18 63.683h27.376M13.711 92.048a4.066 4.066 0 0 0 2.437-1.36 4.126 4.126 0 0 0 1.001-2.619V77.288a16.913 16.913 0 0 1 2.549-8.94 16.725 16.725 0 0 1 6.873-6.206l4.33-2.053a4.172 4.172 0 0 1 4.583.77l1.274 1.283" stroke="#F00" stroke-width="2.5" stroke-miterlimit="10"/><path d="M27.08 70.1l9.932-8.343 4.712-3.978a3.673 3.673 0 0 1 4.965.256 3.738 3.738 0 0 1 1.019 2.567c0 .956-.365 1.875-1.019 2.567l-5.347 5.52a12.854 12.854 0 0 0-2.847 4.75 12.932 12.932 0 0 0-.591 5.517 3.879 3.879 0 0 1-.278 2.007c-.269.632-.7 1.18-1.25 1.587l-2.42 1.797a8.99 8.99 0 0 1-5.347 1.669H27.08m6.113 8.599l4.965-5.904" stroke="#F00" stroke-width="2.5" stroke-miterlimit="10"/></symbol><symbol viewBox="0 0 100 100" fill="none" id="safety03" xmlns="http://www.w3.org/2000/svg"><path d="M44.4 65.4a2.3 2.3 0 0 0 1.4-2.1V63a2.4 2.4 0 0 0-.7-1.8 8.398 8.398 0 0 1-2.4-6c0-4.3 3-7.8 6.7-7.8h.3c3.7 0 6.7 3.5 6.7 7.8a8.402 8.402 0 0 1-2.4 6 2.4 2.4 0 0 0-.7 1.8v.3a2.3 2.3 0 0 0 1.4 2.1m-43.2-2.1a1.899 1.899 0 0 1 1.2-1.8l4.8-2a2.2 2.2 0 0 0 1.4-2v-.3a2.3 2.3 0 0 0-.7-1.7 8 8 0 0 1-2.3-5.7c0-4.1 2.9-7.5 6.4-7.5h.3c3.5 0 6.4 3.4 6.4 7.5a8.002 8.002 0 0 1-2.3 5.7 2.3 2.3 0 0 0-.7 1.7v.3c0 .9 2.2 2 3 2.4m1.9-22.5v-.2a1.7 1.7 0 0 0-.5-1.2 5.9 5.9 0 0 1-1.7-4.2c0-3 2.1-5.5 4.7-5.5h.2c2.6 0 4.7 2.4 4.7 5.5a5.9 5.9 0 0 1-1.7 4.2 1.7 1.7 0 0 0-.5 1.2v.2a1.6 1.6 0 0 0 1 1.4l3.5 1.5m-21-15.8l3.5-1.5a1.6 1.6 0 0 0 1-1.4v-.2a1.6 1.6 0 0 0-.5-1.2 5.8 5.8 0 0 1-1.7-4.2c0-3 2.1-5.5 4.7-5.5h.2c2.6 0 4.7 2.4 4.7 5.5a5.801 5.801 0 0 1-1.7 4.2 1.6 1.6 0 0 0-.5 1.2.5.5 0 0 0 .2.4l2 1.5m47.8 1.2L75.8 23a1.6 1.6 0 0 1-1-1.4v-.2a1.6 1.6 0 0 1 .5-1.2A5.8 5.8 0 0 0 77 16c0-3-2.1-5.5-4.7-5.5h-.2c-2.6 0-4.7 2.4-4.7 5.5a5.8 5.8 0 0 0 1.7 4.2 1.6 1.6 0 0 1 .5 1.2.5.5 0 0 1-.2.4l-2 1.5m.2 14.1v-.2a1.7 1.7 0 0 1 .5-1.2 5.9 5.9 0 0 0 1.7-4.2c0-3-2.1-5.5-4.7-5.5h-.2c-2.6 0-4.7 2.4-4.7 5.5a5.9 5.9 0 0 0 1.7 4.2c.32.318.499.75.5 1.2v.2a1.6 1.6 0 0 1-1 1.4l-3.5 1.5m14.5 19.2a2.2 2.2 0 0 0 1.4-2v-.3a2.3 2.3 0 0 0-.7-1.7 8 8 0 0 1-2.3-5.7c0-4.1 2.9-7.5 6.4-7.5h.3c3.5 0 6.4 3.4 6.4 7.5a8 8 0 0 1-2.3 5.7 2.3 2.3 0 0 0-.7 1.7v.3a2.2 2.2 0 0 0 1.4 2l4.8 2a1.9 1.9 0 0 1 1.2 1.8M43.1 29a1.1 1.1 0 0 1 .7-1l2.8-1.2a1.3 1.3 0 0 0 .8-1.2v-.2a1.301 1.301 0 0 0-.4-1 4.7 4.7 0 0 1-1.3-3.4c0-2.4 1.7-4.4 3.8-4.4h.2c2.1 0 3.8 2 3.8 4.4a4.7 4.7 0 0 1-1.3 3.4 1.3 1.3 0 0 0-.4 1v.2a1.3 1.3 0 0 0 .8 1.2l2.8 1.2a1.1 1.1 0 0 1 .7 1" stroke="#F00" stroke-width="3" stroke-miterlimit="10"/><path d="M50.3 72.7c8.781 0 15.9-7.119 15.9-15.9s-7.119-15.9-15.9-15.9-15.9 7.119-15.9 15.9 7.119 15.9 15.9 15.9z" stroke="#F00" stroke-width="3" stroke-miterlimit="10"/><path d="M55.948 74.475l7.275-4.2 6.3 10.912a4.1 4.1 0 0 1-1.501 5.601l-.173.1a4.1 4.1 0 0 1-5.6-1.5l-6.3-10.913zM57.3 76.9l7.3-4.1" stroke="#F00" stroke-width="2" stroke-miterlimit="10"/></symbol><symbol viewBox="0 0 100 100" fill="none" id="safety04" xmlns="http://www.w3.org/2000/svg"><path d="M49.326 92.563a25.264 25.264 0 0 1-17.904-7.45 25.49 25.49 0 0 1-7.417-17.983v-2.97h-.522a7.032 7.032 0 0 1-4.984-2.074 7.095 7.095 0 0 1-2.064-5.006v-3.146c0-.765.303-1.499.841-2.04a2.865 2.865 0 0 1 2.03-.844h1.654l-1.306-2.797a19.912 19.912 0 0 1-1.914-8.565v-5.331a22.343 22.343 0 0 1 5.57-14.77A37.76 37.76 0 0 1 38.187 9.271a23.5 23.5 0 0 1 3.829-1.136c.972-.393 2-.629 3.045-.699a23.257 23.257 0 0 1 15.054 5.419 6.856 6.856 0 0 0 4.35 1.573h4.612a13.2 13.2 0 0 1 9.352 3.89 13.315 13.315 0 0 1 3.874 9.394v13.81a6.402 6.402 0 0 1-.87 3.233l-3.307 6.38" stroke="#F00" stroke-width="3" stroke-miterlimit="10"/><path d="M78.127 51.049h1.654c.761 0 1.491.304 2.03.845a2.89 2.89 0 0 1 .84 2.039v3.059a7.096 7.096 0 0 1-2.063 5.006 7.032 7.032 0 0 1-4.984 2.073h-.522v2.972a25.49 25.49 0 0 1-7.416 17.983 25.264 25.264 0 0 1-17.905 7.45h-.435M17.914 42.92l7.657 1.661c2.313.54 4.675.833 7.049.874h.087l10.354.962a59.82 59.82 0 0 0 15.401-.525l8.44-1.398a35.872 35.872 0 0 0 4.438-.262l10.79-1.311" stroke="#F00" stroke-width="3" stroke-miterlimit="10"/><path d="M25.398 43.882a11.72 11.72 0 0 1 2.556-4.211 11.657 11.657 0 0 1 4.056-2.78l4.003-1.661 15.401-3.409a9.377 9.377 0 0 0 3.377-1.502 9.42 9.42 0 0 0 2.54-2.693l3.394-5.419 1.13 4.633a11.104 11.104 0 0 0 3.917 6.03l4.785 3.758a8.048 8.048 0 0 1 2.959 5.157l.26 1.922M20.96 51.049c2.088 1.048 3.045 1.136 4.176 3.233l1.393 2.71a30.758 30.758 0 0 0 5.481 7.516l2.698 2.71a3.654 3.654 0 0 0 2.61 1.048H42.8a3.643 3.643 0 0 0 2.088-.699l4.35-3.059h.61l4.35 3.06a3.643 3.643 0 0 0 2.089.698h5.482a3.64 3.64 0 0 0 2.61-1.049l2.698-2.709a30.755 30.755 0 0 0 5.481-7.516l1.393-2.71c1.044-2.097 2.088-2.184 4.176-3.233" stroke="#F00" stroke-width="3" stroke-miterlimit="10"/><path d="M33.316 51.835l4.09.612.521.175 4.786 2.185a1.48 1.48 0 0 1 .928 1.08 1.493 1.493 0 0 1-.406 1.367l-1.218 1.311a1.652 1.652 0 0 1-1.218.524h-3.22a2.344 2.344 0 0 1-1.653-.699l-.957-.961a7.177 7.177 0 0 1-2.002-3.758l-.26-1.311a.439.439 0 0 1 .36-.568.433.433 0 0 1 .248.043zm32.804 0l-4.09.612-.522.175-4.786 2.185a1.48 1.48 0 0 0-.928 1.08 1.492 1.492 0 0 0 .406 1.367l1.218 1.311a1.652 1.652 0 0 0 1.218.524h3.22a2.344 2.344 0 0 0 1.653-.699l.957-.961a7.176 7.176 0 0 0 2.001-3.758l.261-1.311a.439.439 0 0 0-.36-.568.433.433 0 0 0-.249.043z" stroke="#F00" stroke-width="3" stroke-miterlimit="10"/></symbol><symbol viewBox="0 0 100 100" fill="none" id="safety05" xmlns="http://www.w3.org/2000/svg"><path d="M45.4 83H23.6v8.68h21.8V83zM26 83a14.3 14.3 0 0 0-4.2-10.1L10.2 61.3a9.1 9.1 0 0 1-2.7-6.5V38.6a1.3 1.3 0 0 1 1.3-1.3 4.2 4.2 0 0 1 4.2 4.2v11.4a5.5 5.5 0 0 0 1.6 3.9l5.2 5.2a7.9 7.9 0 0 0 5.6 2.3h6.9a.6.6 0 0 0 .4-1l-6.9-6.9a5.298 5.298 0 0 1 0-7.5 1.1 1.1 0 0 1 1.6 0l14.4 14.6a12.3 12.3 0 0 1 3.6 8.7V83m30.4 0H54v8.68h21.8V83zm-2.4 0a14.3 14.3 0 0 1 4.2-10.1l11.6-11.6a9.1 9.1 0 0 0 2.7-6.5V38.6a1.3 1.3 0 0 0-1.3-1.3 4.2 4.2 0 0 0-4.2 4.2v11.4a5.501 5.501 0 0 1-1.6 3.9L79.6 62a7.9 7.9 0 0 1-5.6 2.3h-6.9a.6.6 0 0 1-.4-1l6.9-6.9a5.3 5.3 0 0 0 0-7.5 1.098 1.098 0 0 0-1.6 0L57.5 63.4a12.3 12.3 0 0 0-3.6 8.7v10.8m-4.1-27c13.641 0 24.7-11.059 24.7-24.7S63.441 6.5 49.8 6.5c-13.642 0-24.7 11.059-24.7 24.7s11.058 24.7 24.7 24.7z" stroke="#F00" stroke-width="3" stroke-miterlimit="10"/><path d="M46.7 20.6V33h8.5v-1.9h-6.3V20.6h-2.2z" stroke="#F00" stroke-width="3" stroke-miterlimit="10"/></symbol><symbol viewBox="0 0 100 100" fill="none" id="safety06" xmlns="http://www.w3.org/2000/svg"><path d="M59.727 68.984l14.678 4.485a14.955 14.955 0 0 1 7.548 5.374 14.634 14.634 0 0 1 2.869 8.737l-4.924 4.953H20.712l-4.924-4.86c-.01-3.139.995-6.2 2.869-8.737a14.955 14.955 0 0 1 7.548-5.373l13.447-4.205" stroke="#F00" stroke-width="3" stroke-miterlimit="10"/><path d="M34.16 92.533v-6.168h30.87v6.168M39.84 64.498v8.504c0 1.562.63 3.059 1.748 4.163a6.007 6.007 0 0 0 4.219 1.724h7.954c.784 0 1.56-.152 2.283-.448a5.97 5.97 0 0 0 1.936-1.276 5.882 5.882 0 0 0 1.293-1.91c.3-.714.454-1.48.454-2.253v-8.317" stroke="#F00" stroke-width="3" stroke-miterlimit="10"/><path d="M39.84 70.666l2.179.934a19.059 19.059 0 0 0 7.67 1.589 19.063 19.063 0 0 0 7.197-1.402l2.841-1.121M37.379 34.969l-3.125 5.233v12.709c0 3.924 1.573 7.69 4.376 10.473a15.158 15.158 0 0 0 10.586 4.385m13.258-32.8l3.125 5.233v12.709c0 3.94-1.587 7.72-4.41 10.506a15.16 15.16 0 0 1-10.647 4.352h-1.326" stroke="#F00" stroke-width="3" stroke-miterlimit="10"/><path d="M37.663 62.443H25.73v-2.337a45.922 45.922 0 0 1 3.977-18.69l1.989-4.485m30.588 25.512h11.932v-2.337a45.922 45.922 0 0 0-3.977-18.69l-1.989-4.485" stroke="#F00" stroke-width="3" stroke-miterlimit="10"/><path d="M74.216 57.864c7.576-3.271 12.31-8.037 12.31-13.363 0-9.906-16.571-17.942-37.026-17.942-20.454 0-37.026 8.036-37.026 17.942 0 5.513 5.113 10.466 13.257 13.736" stroke="#F00" stroke-width="3" stroke-miterlimit="10"/><path d="M71.375 44.22a3.716 3.716 0 0 0 1.136-2.523c0-4.392-10.037-7.943-22.443-7.943-12.405 0-22.443 3.551-22.443 7.943.016.867.353 1.698.947 2.336m12.595-17.568l2.272-14.858a6.146 6.146 0 0 1 2.099-3.738 6.3 6.3 0 0 1 4.057-1.495 6.297 6.297 0 0 1 4.112 1.565 6.142 6.142 0 0 1 2.043 3.855l1.705 14.578" stroke="#F00" stroke-width="3" stroke-miterlimit="10"/><path d="M54.992 20.391H43.63v3.738h11.363V20.39zM45.239 8.15c-10.985 0-18.845 8.503-18.845 19.063.008 1.034.103 2.065.284 3.083M54.045 8.15c10.985 0 18.845 8.503 18.845 19.063a18.447 18.447 0 0 1-.284 3.083" stroke="#F00" stroke-width="3" stroke-miterlimit="10"/></symbol><symbol viewBox="0 0 100 100" fill="none" id="safety07" xmlns="http://www.w3.org/2000/svg"><path d="M79.42 7.426H20.58c-2.848 0-5.157 2.326-5.157 5.195v73.715c0 2.87 2.309 5.196 5.157 5.196h58.84c2.848 0 5.157-2.326 5.157-5.196V12.621c0-2.87-2.309-5.195-5.157-5.195zm-43.37 10.22h27.14m-36.354 12.18H61.75m-34.914 7.41H61.75M26.836 44.73H61.75m-34.914 7.41H61.75" stroke="#F00" stroke-width="3" stroke-miterlimit="10"/><path d="M27.428 82.802c1.183-.852 2.79-2.215 4.65-3.833 3.635-3.151 4.31-4.259 4.65-4.855.337-.596 2.282-4.173 1.098-6.558s-6.932-3.832-9.722-1.703c-2.79 2.129-2.114 8.772 0 12.35.423.68 3.043 5.28 7.609 5.791 7.27.767 13.949-9.369 12.258-12.946-.676-1.363-2.79-2.3-4.396-1.874-1.606.426-2.959 2.47-3.382 3.407-2.451 5.11.677 11.157 1.522 12.605m2.621-.256h1.775m32.231-29.686a2.482 2.482 0 0 0-.434-3.465 2.44 2.44 0 0 0-3.44.438L55.462 76.9a2.482 2.482 0 0 0 .434 3.466 2.44 2.44 0 0 0 3.44-.438l19.006-24.685zm-.528-3.529l1.775-2.3M54.396 82.46l1.776-2.384" stroke="#F00" stroke-width="3" stroke-miterlimit="10"/></symbol><symbol viewBox="0 0 100 100" fill="none" id="safety08" xmlns="http://www.w3.org/2000/svg"><path d="M80.3 82.2H19.5c-5.5 0-9-4.5-9-10l-3-30.3a4.4 4.4 0 0 1 4.4-4.4h75a4.4 4.4 0 0 1 4.4 4.4l-3 30.3c0 5.5-2.5 10-8 10z" stroke="#F00" stroke-width="3" stroke-miterlimit="10"/><path d="M12 34.1V23a3.8 3.8 0 0 1 3.8-3.7h14.6l7 7 15.4-4.6 15.4-4.6a11 11 0 0 1 8.3.8 11.001 11.001 0 0 1 5.4 6.8l.4 1.4h.2a4.5 4.5 0 0 1 4.5 4.5v3.5h-5.5l-2.6-8.3a8.2 8.2 0 0 0-10.2-5.4L24.2 34l-12.2.1zm41.1 25.5v2.7a2.302 2.302 0 0 1-.8 1.8l-.2.2a3.8 3.8 0 0 1-4.8 0h-.1a2.3 2.3 0 0 1-.8-1.8v-3.6a9.5 9.5 0 0 1-3.6-7.6c0-4.7 3-8.6 6.8-8.6s6.8 3.8 6.8 8.6a9.3 9.3 0 0 1-3.1 7.2l-.2 1.1z" stroke="#F00" stroke-width="2" stroke-miterlimit="10"/><path d="M45.349 60h-.24c-1.355 0-2.654.708-3.613 1.967-.958 1.26-1.496 2.968-1.496 4.749v5.142c0 1.364.412 2.672 1.146 3.636.733.964 1.728 1.506 2.766 1.506h11.176c1.038 0 2.033-.542 2.766-1.506.734-.964 1.146-2.272 1.146-3.636v-5.142c0-1.781-.538-3.49-1.496-4.749-.96-1.26-2.259-1.967-3.614-1.967v1.679a7.013 7.013 0 0 1-.482 2.609c-.32.805-.785 1.494-1.354 2.008-.498.427-1.083.646-1.677.63h-1.676c-.568.002-1.124-.217-1.597-.63-.57-.514-1.035-1.203-1.355-2.008a7.015 7.015 0 0 1-.481-2.609l.08-1.679z" stroke="#F00" stroke-width="2" stroke-miterlimit="10"/></symbol><symbol viewBox="0 0 100 100" fill="none" id="safety09" xmlns="http://www.w3.org/2000/svg"><path d="M47.1 43.8l2.5-8.7 3.4 8.7h9.7l-8.3 5.6 3.4 9.1-8.2-6.2-7 5.6 2.6-8.4-6.8-5.5 8.7-.2z" stroke="#F00" stroke-width="3" stroke-miterlimit="10"/><path d="M49.5 92.5l-1.8-1.8a23.3 23.3 0 0 0-10.5-6.3 37.998 37.998 0 0 1-10.9-5 24.2 24.2 0 0 1-8-8.9 20.4 20.4 0 0 1-2.2-12.3 50.601 50.601 0 0 1 2.4-9.8l3.5-9.8a18.9 18.9 0 0 0-4.2-14.3l-2.3-2.8 13-12.8a18 18 0 0 0 11.3 4 18 18 0 0 0 8.8-2.3l.8-.5" stroke="#F00" stroke-width="3" stroke-miterlimit="10"/><path d="M49.5 85.3l-1.4-1.6a18.6 18.6 0 0 0-8.5-5.5 29.801 29.801 0 0 1-8.8-4.4 20.5 20.5 0 0 1-6.4-7.7 18.7 18.7 0 0 1-1.7-10.6 46.191 46.191 0 0 1 2-8.5l2.8-8.4c.5-4.4.3-10.9-2.4-14.3l-1.8-2.4 6.4-6.1 3.2 1.4a16.901 16.901 0 0 0 6.8 1.4c2.34.009 4.655-.468 6.8-1.4l3.2-1.4" stroke="#F00" stroke-width="3" stroke-miterlimit="10"/><path d="M49 92.5l1.8-1.8a23.3 23.3 0 0 1 10.5-6.3 37.998 37.998 0 0 0 10.9-5 24.2 24.2 0 0 0 8-8.9 20.4 20.4 0 0 0 2.2-12.3 50.601 50.601 0 0 0-2.4-9.8l-3.5-9.8a18.9 18.9 0 0 1 4.2-14.3l2.3-2.8L70 8.7a18 18 0 0 1-11.3 4 18 18 0 0 1-8.8-2.3l-.8-.5" stroke="#F00" stroke-width="3" stroke-miterlimit="10"/><path d="M49.1 85.3l1.4-1.6a18.6 18.6 0 0 1 8.5-5.5 29.801 29.801 0 0 0 8.8-4.4 20.5 20.5 0 0 0 6.4-7.7 18.7 18.7 0 0 0 1.7-10.6 46.191 46.191 0 0 0-2-8.5l-2.8-8.4c-.5-4.4-.3-10.9 2.4-14.3l1.8-2.4-6.4-6.1-3.2 1.4a16.901 16.901 0 0 1-6.8 1.4 16.902 16.902 0 0 1-6.8-1.4l-3.2-1.4" stroke="#F00" stroke-width="3" stroke-miterlimit="10"/><path d="M50.6 67.4c10.66 0 19.3-8.64 19.3-19.3 0-10.659-8.64-19.3-19.3-19.3-10.659 0-19.3 8.641-19.3 19.3 0 10.66 8.641 19.3 19.3 19.3z" stroke="#F00" stroke-width="3" stroke-miterlimit="10"/><path d="M50.6 62.7c8.063 0 14.6-6.537 14.6-14.6 0-8.063-6.537-14.6-14.6-14.6-8.063 0-14.6 6.537-14.6 14.6 0 8.063 6.537 14.6 14.6 14.6zM36.4 77.1L41 64.9m1.8 14.7l4.8-12.4M55 29.3l4.1-10.6M61.3 32l6-15.3" stroke="#F00" stroke-width="3" stroke-miterlimit="10"/></symbol><symbol viewBox="0 0 100 100" fill="none" id="safety10" xmlns="http://www.w3.org/2000/svg"><path d="M50.213 34.357v3.783c0-.398.159-.778.441-1.06a1.51 1.51 0 0 1 1.065-.438h3.25a3.345 3.345 0 0 1 2.433.969 3.308 3.308 0 0 1 .974 2.42v1.419c0-.544.217-1.065.604-1.45.386-.384.91-.6 1.457-.6h3.17c.924 0 1.811.366 2.465 1.016a3.458 3.458 0 0 1 1.022 2.452v3.073c0-.815.325-1.596.905-2.173a3.1 3.1 0 0 1 2.186-.9h1.664c1.282 0 2.511.506 3.418 1.408a4.794 4.794 0 0 1 1.416 3.4v23.957a14.93 14.93 0 0 1-4.41 10.587 15.1 15.1 0 0 1-10.648 4.386H49.817c-8.321 0-13.314-6.541-15.058-14.973a34.834 34.834 0 0 0-3.249-6.62 14.452 14.452 0 0 0-4.042-4.413 6.314 6.314 0 0 1-1.928-2.248 6.276 6.276 0 0 1-.687-2.875m13.869-33.02v-3.389c0-1.505.601-2.948 1.671-4.012a5.722 5.722 0 0 1 4.035-1.662c1.513 0 2.965.598 4.035 1.662a5.658 5.658 0 0 1 1.671 4.012v3.389" stroke="#F00" stroke-width="3" stroke-miterlimit="10"/><path d="M24.932 55.398a7.798 7.798 0 0 1 2.326-5.545 7.852 7.852 0 0 1 2.573-1.686 7.885 7.885 0 0 1 3.026-.57h3.091c.736 0 1.441.29 1.962.807a2.75 2.75 0 0 1 .812 1.95V34.358" stroke="#F00" stroke-width="3" stroke-miterlimit="10"/><path d="M52.432 22.536H35.156V34.75h17.276V22.536z" stroke="#F00" stroke-width="3" stroke-miterlimit="10"/><path d="M27.627 16.546v6.62c0 .69.275 1.351.766 1.84.49.487 1.155.76 1.849.76h4.993v5.36H30.48a8.026 8.026 0 0 1-5.627-2.364 7.937 7.937 0 0 1-2.378-5.596v-6.62h5.152z" stroke="#F00" stroke-width="3" stroke-miterlimit="10"/></symbol><symbol viewBox="0 0 100 100" fill="none" id="safety11" xmlns="http://www.w3.org/2000/svg"><path d="M26.075 20.487h10.017c2.992 0 5.862 1.19 7.978 3.308a11.3 11.3 0 0 1 3.304 7.985v.974a16.666 16.666 0 0 1-4.837 11.835A16.63 16.63 0 0 1 30.743 49.5a15.156 15.156 0 0 1-10.763-4.483 15.189 15.189 0 0 1-4.409-10.803V31.1a10.62 10.62 0 0 1 3.07-7.47 10.596 10.596 0 0 1 7.434-3.142z" stroke="#F00" stroke-width="3" stroke-miterlimit="10"/><path d="M15.766 28.665h-3.113v-5.939h7.003M70.327 49.5a16.623 16.623 0 0 1-11.76-4.876 16.658 16.658 0 0 1-4.871-11.773v-.973a11.305 11.305 0 0 1 3.27-8.049 11.28 11.28 0 0 1 8.012-3.342h10.017c2.812 0 5.508 1.118 7.496 3.108a10.618 10.618 0 0 1 3.105 7.504v3.116c0 4.028-1.598 7.89-4.444 10.74a15.164 15.164 0 0 1-10.728 4.448l-.097.097z" stroke="#F00" stroke-width="3" stroke-miterlimit="10"/><path d="M85.304 28.665h3.21v-5.939h-7.1m-38.708 0h15.658M47.471 32.852a4.28 4.28 0 0 1 4.726-.957 4.28 4.28 0 0 1 1.402.957h.097m-3.307 35.341l2.626.487c1.298.222 2.57.58 3.793 1.07h.097a35.3 35.3 0 0 1 9.531 5.842 19.63 19.63 0 0 0 10.407 3.019 9.824 9.824 0 0 0 5.738-1.85l1.167-.78a9.827 9.827 0 0 0 2.14-2.141l.389-.487a9.84 9.84 0 0 0 1.945-5.841 9.839 9.839 0 0 0-2.626-6.718l-.195-.292a9.822 9.822 0 0 0-4.279-2.727.798.798 0 1 0-.972 1.266l1.07 1.655a3.13 3.13 0 0 1 .486 1.753v2.434a3.118 3.118 0 0 1-.778 2.044 3.112 3.112 0 0 1-2.334 1.071h-1.265a3.108 3.108 0 0 1-2.723-1.46l-2.529-4.09a16.64 16.64 0 0 0-4.084-4.575l-2.237-1.655a16.429 16.429 0 0 0-6.03-2.921 10.592 10.592 0 0 0-2.529-.292 8.55 8.55 0 0 0-6.419 2.92l-.389.488-.584.778-.583-.779-.389-.486a8.56 8.56 0 0 0-6.419-2.921c-.852-.005-1.7.093-2.529.292a16.43 16.43 0 0 0-6.03 2.92l-2.236 1.656a16.642 16.642 0 0 0-4.085 4.576l-2.529 4.089a3.113 3.113 0 0 1-2.723 1.46h-1.265a3.11 3.11 0 0 1-2.334-1.07 3.118 3.118 0 0 1-.778-2.045v-2.629c-.015-.62.154-1.23.486-1.752l1.07-1.656a.799.799 0 0 0-.972-1.265 9.821 9.821 0 0 0-4.28 2.726l-.194.292a9.838 9.838 0 0 0-2.626 6.718 9.84 9.84 0 0 0 1.945 5.841l.39.487a9.83 9.83 0 0 0 2.139 2.142l1.167.779a9.816 9.816 0 0 0 5.738 1.85 19.63 19.63 0 0 0 10.407-3.018 35.293 35.293 0 0 1 9.53-5.842h.098a18.664 18.664 0 0 1 3.793-1.07l2.626-.488 1.167.195z" stroke="#F00" stroke-width="3" stroke-miterlimit="10"/></symbol><symbol viewBox="0 0 100 100" fill="none" id="safety12" xmlns="http://www.w3.org/2000/svg"><path d="M34.908 14.817L9.806 39.92a4.5 4.5 0 0 0 0 6.364l1.16 1.16a4.5 4.5 0 0 0 6.364 0l25.102-25.102a4.5 4.5 0 0 0 0-6.364l-1.16-1.16a4.5 4.5 0 0 0-6.364 0zm23.315 7.48l25.102 25.102a4.5 4.5 0 0 0 6.364 0l1.16-1.16a4.5 4.5 0 0 0 0-6.363L65.745 14.773a4.5 4.5 0 0 0-6.364 0l-1.16 1.16a4.5 4.5 0 0 0 0 6.364zM53.9 60l13.2 13.2a4.2 4.2 0 0 1 0 5.9H67a4.3 4.3 0 0 1-6 0L47.8 65.9l14.8 14.8a2.6 2.6 0 0 1 0 3.7 8.1 8.1 0 0 1-11.5 0L38.5 71.9l-2.8-3.1-18.4-21.3M60 53.9l13.2 13.2a4.2 4.2 0 0 1 0 5.9 4.3 4.3 0 0 1-6 0L53.9 59.9m-12-37l8.6 8.6" stroke="#F00" stroke-width="3" stroke-miterlimit="10"/><path d="M26.7 58.4l-1.8 1.8a8.6 8.6 0 0 0 0 12.1l10.8 10.8a8.6 8.6 0 0 0 12.1 0l1-1m-16-16.7l-7.4 7.4m13.1-1l-7 7.1m12.3-1.8L36.9 84m23.8-59.1l-23.4 16a5.5 5.5 0 0 0-1.4 7.6 5.8 5.8 0 0 0 7 2.1l2.8-1.2c2.9-1.2 3.5-3.1 4.6-6.2l1.8 1.3a6 6 0 0 0 4.8 2.3h.6a6 6 0 0 0 5-2.8l17.3 17.3a4.2 4.2 0 0 1 0 5.9h-.1a4.3 4.3 0 0 1-6 0L60.5 54" stroke="#F00" stroke-width="3" stroke-miterlimit="10"/><path d="M77.5 59a13.8 13.8 0 0 0 5.8-10.9v-.7" stroke="#F00" stroke-width="3" stroke-miterlimit="10"/></symbol><symbol viewBox="0 0 100 100" fill="none" id="threat1" xmlns="http://www.w3.org/2000/svg"><path d="M31.939 87.977c-3.679-5.36-5.978-9.22-6.621-12.651-.644-3.43-1.84-9.756.735-13.187 2.575-3.43 10.208-.965 11.771-4.824 1.564-3.86-1.103-7.826-2.758-7.826-1.656 0-.92.857-1.84 1.394-.92.535-5.241-.751-6.62-1.609-2.46-2.052-4.449-4.776-5.795-7.933a6.063 6.063 0 0 1-.268-4.21 5.473 5.473 0 0 1 .96-1.843c.427-.53.943-.951 1.516-1.237 2.299-.965 3.494 1.5 4.782.75 1.287-.75.367-2.68 1.563-4.824 1.195-2.144 4.874-3.538 7.173-3.216.552.107 2.207.321 5.701 3.216 2.925 2.323 5.477 5.226 7.541 8.576 2.402 3.948 4.063 8.441 4.874 13.187.828 4.932-.368 4.717.276 9.97.827 6.079 2.806 11.866 5.794 16.94 1.839 3.43 2.85 5.038 4.138 6.218 1.287 1.179 1.931 1.393 2.299 2.68.368 1.286-.552 3.752-1.38 4.824a5.235 5.235 0 0 1-1.98 1.493 4.55 4.55 0 0 1-2.342.33c-1.655-.215-2.758-1.501-4.598-4.181-3.862-5.575-5.793-8.363-6.713-11.472-1.655-5.36-1.011-8.684-3.218-9.97-2.208-1.287-1.472-.215-3.403-.215-6.254.215-8.736-2.465-9.84-1.072-1.103 1.394.828 7.076 3.219 10.4 1.187 1.376 2.125 3.017 2.758 4.824.368 1.286.92 3.109.276 4.503-.643 1.393-5.977 3.86-8 .965z" stroke="#F21616" stroke-width="3" stroke-miterlimit="10"/><path d="M20.995 41.877l-8.276.322 9.288 9.327-.092-7.934m-1.839-25.515c-.736-.322-1.38.643-1.84.536a1.023 1.023 0 0 1-.47-.224 1.247 1.247 0 0 1-.335-.445 1.469 1.469 0 0 1-.022-1.153c.184-.644 1.471-1.394 1.563-2.252.092-.858-.276-2.252.092-3.43.342-1.076.95-2.01 1.747-2.681 1.748-1.715 4.782-2.359 10.668-2.359 2.943 0 4.138 5.575 3.495 6.326-.644.75-1.38.107-1.564.429-.184.321 1.288 1.5 1.84 3.109.551 1.608-1.012 5.574-1.38 6.325a8.946 8.946 0 0 1-2.354 2.687 7.537 7.537 0 0 1-3.072 1.387c-2.85.536-6.253-.858-7.357-3.43-1.103-2.574-.092-4.504-1.011-4.825zm22.806 6.003c.184-1.608 5.61-2.465 16.461-3.966a63.296 63.296 0 0 1 8.828-.75c4.322-.108 6.805-.108 9.748 1.179 2.455.888 4.666 2.515 6.41 4.718 1.744 2.202 2.959 4.9 3.522 7.825.81 3.838.81 7.848 0 11.686-.723 4.067-2.062 7.952-3.954 11.47-1.656 3.324-3.219 6.433-6.438 9.114-2.03 1.929-4.483 3.155-7.08 3.538-.92.107-5.978.643-9.105-3.324-3.126-3.967-2.483-9.649-2.299-11.257.184-1.608.736-2.68.736-4.931-.11-2.668-.738-5.27-1.84-7.612-1.291-3.117-2.998-5.975-5.057-8.47-5.61-6.754-10.208-7.397-9.932-9.22z" stroke="#F21616" stroke-width="3" stroke-miterlimit="10"/><path d="M69.605 46.964c-1.072-.048-1.952-.304-2.64-.768a4.818 4.818 0 0 1-1.584-1.848l.864-.528a4.6 4.6 0 0 0 1.272 1.464c.56.416 1.256.648 2.088.696v-7.32c-.656-.24-1.232-.48-1.728-.72a4.972 4.972 0 0 1-1.248-.888c-.32-.336-.56-.72-.72-1.152-.16-.432-.24-.944-.24-1.536 0-1.2.328-2.2.984-3 .672-.8 1.656-1.24 2.952-1.32v-2.016h.672v2.016c1.008.048 1.816.28 2.424.696.624.416 1.08.904 1.368 1.464l-.888.6a3.465 3.465 0 0 0-1.128-1.224c-.448-.32-1.04-.504-1.776-.552v6.792c.688.192 1.288.416 1.8.672.528.24.96.544 1.296.912.352.352.608.784.768 1.296.176.496.264 1.088.264 1.776 0 1.328-.336 2.392-1.008 3.192-.672.8-1.712 1.232-3.12 1.296v2.52h-.672v-2.52zm3.72-4.464c0-.576-.072-1.056-.216-1.44a2.5 2.5 0 0 0-.624-.96 3.037 3.037 0 0 0-.96-.672 16.332 16.332 0 0 0-1.248-.528v7.08c1.04-.064 1.808-.408 2.304-1.032.496-.64.744-1.456.744-2.448zm-6.6-8.136c0 .448.064.84.192 1.176.144.32.336.608.576.864.24.24.536.456.888.648.352.176.76.352 1.224.528v-6.552c-.912.064-1.624.408-2.136 1.032-.496.624-.744 1.392-.744 2.304z" fill="#F00"/><path d="M20.076 18.077l13.426-5.36" stroke="#F00" stroke-width="3" stroke-miterlimit="10"/></symbol><symbol viewBox="0 0 100 100" fill="none" id="threat2" xmlns="http://www.w3.org/2000/svg"><path d="M4.771 62.218c1.781 0 3.225-1.798 3.225-4.016s-1.444-4.016-3.225-4.016c-1.78 0-3.224 1.798-3.224 4.016s1.444 4.016 3.224 4.016zM64.89 16.7c1.78 0 3.224-1.798 3.224-4.016S66.67 8.668 64.89 8.668c-1.78 0-3.224 1.798-3.224 4.016S63.11 16.7 64.89 16.7zm29.483 48.79c1.78 0 3.225-1.797 3.225-4.015 0-2.219-1.444-4.017-3.225-4.017-1.781 0-3.225 1.798-3.225 4.017 0 2.218 1.444 4.016 3.225 4.016z" stroke="#F00" stroke-width="3" stroke-miterlimit="10"/><path d="M28.15 85.424c-1.496-1.488.116-3.422-.805-9.223-.922-5.801-1.728-11.008-4.492-14.28-5.183-5.802-13.82-1.19-14.857-4.909-1.036-3.719.806-3.273 1.958-4.909 1.671-2.385 3.717-4.282 6-5.565 2.285-1.282 4.754-1.92 7.244-1.872 8.984.297 14.627 10.56 16.47 8.478 1.842-2.082.115-2.826-.23-5.355-.776-7.112.233-14.358 2.878-20.676 5.068-12.049 18.197-16.81 19.464-14.578 1.267 2.232.115.744-.576 2.826-1.843 5.802-3.455 9.074-4.261 11.157-1.515 4.225-2.074 8.918-1.612 13.536.46 4.76 2.073 10.86 4.03 11.008 1.958.149 1.728-3.124 4.031-5.95 2.304-2.826 8.292-4.165 10.02-4.165 10.941-.149 19.348 15.767 18.082 18.296-1.267 2.529-.922.595-2.189.744a11.76 11.76 0 0 1-4.376-.595c-2.08-.32-4.19.09-6.104 1.19-2.069 1.083-3.836 2.95-5.067 5.355-.807 1.636-1.152 3.273-1.613 10.413-.46 7.14.115 8.33-.576 9.074-5.297 5.206-13.474 5.057-21.767 4.908-8.292-.148-16.353.298-21.651-4.908z" stroke="#F00" stroke-width="3" stroke-miterlimit="10"/><path d="M28.15 85.424l4.953-1.042a83.176 83.176 0 0 1 33.399 0l5.183 1.041M27.345 76.2l17.39-2.528a35.213 35.213 0 0 1 10.365 0l17.16 2.678" stroke="#F00" stroke-width="3" stroke-miterlimit="10"/></symbol><symbol viewBox="0 0 100 100" fill="none" id="threat3" xmlns="http://www.w3.org/2000/svg"><path d="M27.35 38.945c7.514 0 13.605-6.739 13.605-15.052 0-8.312-6.091-15.051-13.605-15.051S13.744 15.58 13.744 23.893c0 8.313 6.092 15.052 13.606 15.052zm-1.826 5.875h6.305c2.42 0 4.742 1.063 6.453 2.956 1.712 1.894 2.673 4.461 2.673 7.139v35.243H16.4V54.915c0-2.678.961-5.245 2.673-7.139 1.711-1.893 4.032-2.957 6.453-2.957z" stroke="#F00" stroke-width="3" stroke-miterlimit="10"/><path d="M40.79 54.915h3.152a5.48 5.48 0 0 0 2.343-.522 5.993 5.993 0 0 0 1.97-1.497l7.799-8.627c.839-.92 1.972-1.435 3.152-1.435 1.181 0 2.314.515 3.153 1.435.83.928 1.297 2.181 1.297 3.487s-.466 2.56-1.297 3.488l-11.78 13.032a5.994 5.994 0 0 1-1.971 1.497 5.48 5.48 0 0 1-2.343.523h-5.476m4.148-40.934v11.564m5.641-11.564l34.678-9.545v29.92l-34.678-8.81V25.361zm7.301 13.4v4.222" stroke="#F00" stroke-width="3" stroke-miterlimit="10"/><path d="M68.996 41.699v4.038h-5.807" stroke="#F00" stroke-width="3" stroke-miterlimit="10"/></symbol><symbol viewBox="0 0 100 100" fill="none" id="threat4" xmlns="http://www.w3.org/2000/svg"><path d="M32.342 49.886L80.76 9.004l13.29 10.49v4.937h-6.645v4.937h-5.127v8.639h-6.265v7.25h-5.127v6.171H66.52v5.091h-6.076v8.485h-6.645v7.251H50v5.091l-3.228 2.468-14.43-29.928zm-6.076 4.319L8.987 68.244c-1.82 1.5-2.84 3.523-2.84 5.63 0 2.108 1.02 4.13 2.84 5.632l10.633 8.639a9.24 9.24 0 0 0 2.913 1.602 10.73 10.73 0 0 0 3.448.563 10.73 10.73 0 0 0 3.448-.563 9.252 9.252 0 0 0 2.913-1.602l5.886-4.782-11.962-29.158z" stroke="#F00" stroke-width="3" stroke-miterlimit="10"/><path d="M23.608 65.004l-6.836 6.788c-.724.777-1.115 1.725-1.115 2.7 0 .975.391 1.922 1.115 2.7l4.177 4.165a2.95 2.95 0 0 0 1.081.757c.43.179.905.272 1.388.272.482 0 .958-.093 1.387-.272.43-.179.8-.439 1.081-.757l2.279-2.314-4.557-14.039z" stroke="#F00" stroke-width="3" stroke-miterlimit="10"/></symbol><symbol viewBox="0 0 100 100" fill="none" id="threat5" xmlns="http://www.w3.org/2000/svg"><path d="M7.498 82.58l8.725-3.212a3.954 3.954 0 0 0 1.755-1.187 3.13 3.13 0 0 0 .737-1.81v-.429a3.006 3.006 0 0 0-.305-1.398 3.465 3.465 0 0 0-.94-1.171c-1.374-1.178-2.456-2.581-3.184-4.126a10.893 10.893 0 0 1-1.054-4.867c0-6.423 5.234-11.775 11.715-11.775h.499c6.48 0 11.715 5.138 11.715 11.775a10.893 10.893 0 0 1-1.054 4.867c-.728 1.545-1.81 2.948-3.183 4.126-.406.33-.726.728-.941 1.17a3.007 3.007 0 0 0-.306 1.4c0 .165.045.33.132.478.086.148.212.278.367.377l4.985 3.212m54.34 2.57l-8.724-3.212a3.954 3.954 0 0 1-1.755-1.187 3.13 3.13 0 0 1-.738-1.81v-.429a3 3 0 0 1 .306-1.398c.215-.443.535-.842.94-1.171 1.373-1.178 2.456-2.581 3.184-4.126a10.89 10.89 0 0 0 1.054-4.867c0-6.423-5.234-11.775-11.715-11.775h-.499c-6.48 0-11.715 5.138-11.715 11.775a10.892 10.892 0 0 0 1.054 4.867c.728 1.545 1.81 2.948 3.183 4.126.406.33.726.728.94 1.17a3 3 0 0 1 .307 1.4.95.95 0 0 1-.132.478 1.128 1.128 0 0 1-.367.377l-4.985 3.212" stroke="#F00" stroke-width="3" stroke-miterlimit="10"/><path d="M33.672 92.214a2.14 2.14 0 0 1 .495-1.297c.31-.381.745-.675 1.25-.844l6.979-2.57a3.182 3.182 0 0 0 1.45-1.025 2.51 2.51 0 0 0 .544-1.543v-.429a2.435 2.435 0 0 0-.228-1.163 2.804 2.804 0 0 0-.77-.978 10.002 10.002 0 0 1-2.473-3.36 8.8 8.8 0 0 1-.767-3.92c0-5.138 4.238-9.42 9.473-9.42h.249c5.234 0 9.472 4.282 9.472 9.42a8.798 8.798 0 0 1-.766 3.92 10.002 10.002 0 0 1-2.474 3.36 2.805 2.805 0 0 0-.77.978 2.43 2.43 0 0 0-.227 1.163v.428c0 .55.189 1.087.544 1.544.355.458.86.814 1.45 1.026l6.98 2.57c.504.168.939.462 1.249.843.31.38.483.832.495 1.297M48.13 42.113h3.24c4.486 0 8.973-3.64 12.214-6.423l1.246-1.07c1.594-1.381 2.855-3.019 3.71-4.82a12.973 12.973 0 0 0 1.275-5.672 12.974 12.974 0 0 0-1.275-5.672c-.855-1.8-2.116-3.438-3.71-4.819l-.997-.856c-1.608-1.37-3.514-2.452-5.61-3.187a19.693 19.693 0 0 0-6.604-1.095h-3.24a19.694 19.694 0 0 0-6.605 1.095c-2.096.735-4.002 1.818-5.61 3.187l-.997.856c-1.594 1.381-2.855 3.019-3.71 4.819a12.972 12.972 0 0 0-1.275 5.672c.019 1.96.491 3.897 1.39 5.698.899 1.801 2.206 3.43 3.845 4.794l.997.856c2.742 2.784 7.228 6.637 11.715 6.637zm-6.98 5.353h16.7m-12.712 5.139h8.724" stroke="#F00" stroke-width="3" stroke-miterlimit="10"/><path d="M47.88 32.479h4.487v-3.854l6.48-5.567-8.724-7.708-8.475 7.28 6.232 5.352v4.497z" stroke="#F00" stroke-width="3" stroke-miterlimit="10"/></symbol><symbol viewBox="0 0 100 100" fill="none" id="threat6" xmlns="http://www.w3.org/2000/svg"><path d="M7 91.012h85m-76.622 0V81.72h69.31v9.29M72.35 81.72l-2.133-48.43H30.154l-1.828 48.43M7 47.523h12.643m-6.398-32.616l9.75 10.872M49.5 7l-.152 16.407m35.34-8.5l-7.92 10.872m2.284 21.744H92m-35.493-6.918l2.742 34.197" stroke="#F00" stroke-width="3" stroke-miterlimit="10"/></symbol><symbol viewBox="0 0 100 100" fill="none" id="threat7" xmlns="http://www.w3.org/2000/svg"><path d="M7.806 74.667V37.13h5.484c.982.018 1.951-.269 2.823-.835.873-.566 1.62-1.394 2.177-2.41l1.613-2.841c1.393-2.49 3.193-4.574 5.28-6.114 2.086-1.54 4.41-2.5 6.817-2.814l3.87-.406 2.904-.609 16.29-5.884c.446-.13.909-.125 1.352.013a2.75 2.75 0 0 1 1.2.781c.347.376.617.85.79 1.381a4.51 4.51 0 0 1 .207 1.68l-.323 3.247a4.2 4.2 0 0 1-.618 1.873c-.342.54-.8.945-1.317 1.17L42.16 30.841a.646.646 0 0 0-.13.258.76.76 0 0 0-.014.305.683.683 0 0 0 .106.276.505.505 0 0 0 .2.175h43.87c1.327 0 2.598.663 3.536 1.842.938 1.18 1.465 2.78 1.465 4.448 0 1.668-.527 3.268-1.465 4.447-.938 1.18-2.21 1.843-3.535 1.843H60.71l2.903 2.434c.508.416.923.989 1.206 1.664.282.675.422 1.43.407 2.192v3.246a5.334 5.334 0 0 1-.595 2.578c-.404.763-.985 1.35-1.663 1.683l-1.13.609c-.232.075-.443.23-.609.447a1.79 1.79 0 0 0-.33.785c-.051.295-.035.601.046.886.08.284.222.534.41.722l.806 1.015c.355.415.638.918.832 1.476a5.46 5.46 0 0 1 .297 1.77c-.005.966-.26 1.903-.725 2.672-.466.768-1.117 1.325-1.855 1.589l-2.904 1.217a1.21 1.21 0 0 0-.541.342c-.157.166-.28.377-.358.615A2.002 2.002 0 0 0 57 73.855c.374.795.543 1.717.484 2.638v2.84c-.042 1.149-.434 2.233-1.095 3.026-.66.794-1.54 1.236-2.454 1.235H26.677c-3.125-.023-6.125-1.547-8.387-4.26-2.302-2.763-5.367-4.29-8.548-4.261l-1.936-.406z" stroke="#F00" stroke-width="3" stroke-miterlimit="10"/></symbol></svg>