<?xml version="1.0"?><svg width="552" height="711.9491" xmlns="http://www.w3.org/2000/svg">

 <metadata id="metadata7">image/svg+xml</metadata>
 <g>
  <title>Layer 1</title>
  <g id="layer1"/>
  <path fill="#000000" stroke-width="8.01" id="path3783" d="m268.4375,22.5c-6.989044,0 -12.625,5.635969 -12.625,12.625l0,9c-2.294022,-2.400459 -5.495865,-3.90625 -9.09375,-3.90625l-94.65625,0c-6.989029,0 -12.59375,5.635971 -12.59375,12.625l0,7.8125c0,6.989029 5.604721,12.625 12.59375,12.625l94.65625,0c3.597885,0 6.799728,-1.505791 9.09375,-3.90625l0,36.65625c-11.192673,3.260536 -19.34375,13.539368 -19.34375,25.8125l0,40.375l-15.125,0c-14.909943,0 -26.9375,11.996307 -26.9375,26.90625l0,23.5625l-85.1875,0c-25.493202,0 -46.381519,19.029694 -49.28125,43.71875l-0.34375,0l0,121.65625l-9.34375,0c-15.375881,0 -27.75,12.374115 -27.75,27.75c0,15.375885 1.75,15.78125 1.75,15.78125l195.15625,0c0,0 1.75,-0.405365 1.75,-15.78125c0,-15.375885 -12.873322,-31.636139 -27.75,-27.75l-7.65625,0l0,-66.15625l291.90625,0l0,67.28125c0,14.909943 11.996307,26.9375 26.90625,26.9375c1.048065,0 2.077576,-0.071991 3.09375,-0.1875l0,0.1875l21.84375,0l0,-282.59375l-21.84375,0l0,0.1875c-1.01712,-0.115677 -2.044678,-0.1875 -3.09375,-0.1875c-14.909943,0 -22.34552,12.710968 -26.90625,26.90625l0,62.25l-135.21875,0l0,-23.5625c0,-14.909943 -11.996307,-26.90625 -26.90625,-26.90625l-15.15625,0l0,-40.375c0,-12.283592 -8.136322,-22.561211 -19.34375,-25.8125l0,-36.8125c2.301819,2.493912 5.604187,4.0625 9.28125,4.0625l94.625,0c6.989044,0 12.625,-5.635971 12.625,-12.625l0,-7.8125c0,-6.989029 -5.635956,-12.625 -12.625,-12.625l-94.625,0c-3.677063,0 -6.979431,1.568588 -9.28125,4.0625l0,-9.15625c0,-6.989031 -5.604706,-12.625 -12.59375,-12.625z"/>
  <path fill="#0066ff" stroke-width="8.01" id="rect2985" d="m122.21875,456.3125c-21.42778,94.726135 -73.967991,104.201172 -72.75,164.15625c1.014832,49.954895 37.332138,68.490234 68.96875,68.96875c34.947311,0.528564 67.642258,-16.961304 67.3125,-69.09375c-0.305145,-48.242432 -47.707062,-69.514038 -63.53125,-164.03125zm-6.75,37.78125c0,0 -10.117363,39.865479 -14.875,45.8125c-4.757629,5.947021 -11.875,17.84375 -11.875,17.84375l-4.78125,-2.96875c0,0 17.838982,-25.58136 20.8125,-33.3125c2.973534,-7.73114 10.71875,-27.375 10.71875,-27.375zm-43.28125,75.40625l7.8125,1.875c0,0 -3.219193,8.345215 -4.4375,12.40625c-2.523117,8.4104 0,44.59375 0,44.59375l-16,1.65625c0,0 -1.65625,-1.681946 -1.65625,-19.34375c0,-17.661804 14.28125,-41.1875 14.28125,-41.1875z"/>
  <text transform="matrix(1.45427, 0, 0, 2.1186, 19.8627, -490.186)" xml:space="preserve" text-anchor="middle" font-family="Arial" font-size="24" id="svg_3" y="463.050903" x="220" stroke-width="0" stroke="#000000" fill="#00007f">BOB BEER PLUMBING</text>
  <text transform="matrix(2.11466, 0, 0, 1.31988, -386.821, -162.364)" xml:space="preserve" text-anchor="middle" font-family="Arial" font-size="24" id="svg_4" y="525.050903" x="339.837337" stroke-width="0" stroke="#000000" fill="#00007f">&amp;</text>
  <text transform="matrix(1.49042, 0, 0, 1.49446, -73.9965, -270.233)" xml:space="preserve" text-anchor="middle" font-family="Arial" font-size="24" id="svg_5" y="572.050903" x="282" stroke-width="0" stroke="#000000" fill="#00007f">HOME SERVICES</text>
 </g>
</svg>