<?xml version="1.0" encoding="UTF-8" standalone="no"?>
<!-- Created with Inkscape (http://www.inkscape.org/) -->

<svg
   xmlns:osb="http://www.openswatchbook.org/uri/2009/osb"
   xmlns:dc="http://purl.org/dc/elements/1.1/"
   xmlns:cc="http://creativecommons.org/ns#"
   xmlns:rdf="http://www.w3.org/1999/02/22-rdf-syntax-ns#"
   xmlns:svg="http://www.w3.org/2000/svg"
   xmlns="http://www.w3.org/2000/svg"
   xmlns:xlink="http://www.w3.org/1999/xlink"
   xmlns:sodipodi="http://sodipodi.sourceforge.net/DTD/sodipodi-0.dtd"
   xmlns:inkscape="http://www.inkscape.org/namespaces/inkscape"
   width="318.89764"
   height="177.16534"
   id="svg3061"
   version="1.1"
   inkscape:version="0.48.3.1 r9886"
   sodipodi:docname="vizitka-qr-kriv.svg">
  <defs
     id="defs3063">
    <linearGradient
       y2="523.84879"
       x2="-104.53665"
       y1="523.84879"
       x1="-200.4429"
       gradientUnits="userSpaceOnUse"
       id="linearGradient5856"
       xlink:href="#linearGradient5690"
       inkscape:collect="always" />
    <linearGradient
       y2="523.84879"
       x2="-104.53665"
       y1="523.84879"
       x1="-200.4429"
       gradientUnits="userSpaceOnUse"
       id="linearGradient5852"
       xlink:href="#linearGradient5690"
       inkscape:collect="always" />
    <linearGradient
       y2="523.84879"
       x2="-104.53665"
       y1="523.84879"
       x1="-200.4429"
       gradientUnits="userSpaceOnUse"
       id="linearGradient5848"
       xlink:href="#linearGradient5690"
       inkscape:collect="always" />
    <linearGradient
       gradientTransform="translate(-590,28)"
       y2="476.689"
       x2="446.42856"
       y1="409.50504"
       x1="446.42856"
       gradientUnits="userSpaceOnUse"
       id="linearGradient4044"
       xlink:href="#linearGradient4010"
       inkscape:collect="always" />
    <linearGradient
       id="linearGradient3145">
      <stop
         id="stop3147"
         offset="0"
         style="stop-color:#9b9b9b;stop-opacity:1;" />
      <stop
         id="stop3149"
         offset="1"
         style="stop-color:#e6e6e6;stop-opacity:1;" />
    </linearGradient>
    <linearGradient
       id="linearGradient4010"
       inkscape:collect="always">
      <stop
         id="stop4012"
         offset="0"
         style="stop-color:#cccccc;stop-opacity:1;" />
      <stop
         id="stop4014"
         offset="1"
         style="stop-color:#cccccc;stop-opacity:0.129" />
    </linearGradient>
    <linearGradient
       osb:paint="solid"
       id="linearGradient5690">
      <stop
         id="stop5692"
         offset="0"
         style="stop-color:#333333;stop-opacity:1;" />
    </linearGradient>
    <linearGradient
       id="linearGradient5690-6"
       osb:paint="solid">
      <stop
         style="stop-color:#333333;stop-opacity:1;"
         offset="0"
         id="stop5692-4" />
    </linearGradient>
    <linearGradient
       inkscape:collect="always"
       id="linearGradient4010-2">
      <stop
         style="stop-color:#cccccc;stop-opacity:1;"
         offset="0"
         id="stop4012-9" />
      <stop
         style="stop-color:#cccccc;stop-opacity:0.129"
         offset="1"
         id="stop4014-6" />
    </linearGradient>
    <linearGradient
       id="linearGradient3145-4">
      <stop
         style="stop-color:#9b9b9b;stop-opacity:1;"
         offset="0"
         id="stop3147-8" />
      <stop
         style="stop-color:#e6e6e6;stop-opacity:1;"
         offset="1"
         id="stop3149-3" />
    </linearGradient>
    <linearGradient
       inkscape:collect="always"
       xlink:href="#linearGradient4010-2"
       id="linearGradient4044-0"
       gradientUnits="userSpaceOnUse"
       x1="446.42856"
       y1="409.50504"
       x2="446.42856"
       y2="476.689"
       gradientTransform="translate(-590,28)" />
    <linearGradient
       inkscape:collect="always"
       xlink:href="#linearGradient5690-6"
       id="linearGradient5848-8"
       gradientUnits="userSpaceOnUse"
       x1="-200.4429"
       y1="523.84879"
       x2="-104.53665"
       y2="523.84879" />
    <linearGradient
       inkscape:collect="always"
       xlink:href="#linearGradient5690-6"
       id="linearGradient5852-0"
       gradientUnits="userSpaceOnUse"
       x1="-200.4429"
       y1="523.84879"
       x2="-104.53665"
       y2="523.84879" />
    <linearGradient
       inkscape:collect="always"
       xlink:href="#linearGradient5690-6"
       id="linearGradient5856-5"
       gradientUnits="userSpaceOnUse"
       x1="-200.4429"
       y1="523.84879"
       x2="-104.53665"
       y2="523.84879" />
    <filter
       inkscape:collect="always"
       id="filter5544">
      <feGaussianBlur
         inkscape:collect="always"
         stdDeviation="2.480315"
         id="feGaussianBlur5546" />
    </filter>
  </defs>
  <sodipodi:namedview
     id="base"
     pagecolor="#ffffff"
     bordercolor="#666666"
     borderopacity="1.0"
     inkscape:pageopacity="0.0"
     inkscape:pageshadow="2"
     inkscape:zoom="0.80822304"
     inkscape:cx="-3.6221388"
     inkscape:cy="101.14118"
     inkscape:document-units="px"
     inkscape:current-layer="text4408"
     showgrid="false"
     width="318.9px"
     units="mm"
     inkscape:window-width="1920"
     inkscape:window-height="1033"
     inkscape:window-x="0"
     inkscape:window-y="25"
     inkscape:window-maximized="1" />
  <metadata
     id="metadata3066">
    <rdf:RDF>
      <cc:Work
         rdf:about="">
        <dc:format>image/svg+xml</dc:format>
        <dc:type
           rdf:resource="http://purl.org/dc/dcmitype/StillImage" />
        <dc:title></dc:title>
      </cc:Work>
    </rdf:RDF>
  </metadata>
  <g
     inkscape:label="Layer 1"
     inkscape:groupmode="layer"
     id="layer1"
     transform="translate(0,-875.19688)"
     style="display:inline"
     sodipodi:insensitive="true">
    <rect
       style="color:#000000;fill:#ffffff;fill-opacity:1;fill-rule:nonzero;stroke:none;stroke-width:2;marker:none;visibility:visible;display:inline;overflow:visible;enable-background:accumulate"
       id="rect3069"
       width="318.89764"
       height="177.16536"
       x="0"
       y="875.1969"
       rx="0"
       ry="0" />
  </g>
  <g
     inkscape:groupmode="layer"
     id="layer2"
     inkscape:label="оформление">
    <text
       xml:space="preserve"
       style="font-size:24px;font-style:normal;font-variant:normal;font-weight:bold;font-stretch:normal;line-height:125%;letter-spacing:0px;word-spacing:0px;fill:#000000;fill-opacity:1;stroke:none;font-family:Arial;-inkscape-font-specification:Arial Bold"
       x="44.446712"
       y="23.622158"
       id="text3017"
       sodipodi:linespacing="125%"><tspan
         sodipodi:role="line"
         id="tspan3019"
         x="44.446712"
         y="23.622158" /></text>
    <flowRoot
       xml:space="preserve"
       id="flowRoot4355"
       style="fill:black;stroke:none;stroke-opacity:1;stroke-width:1px;stroke-linejoin:miter;stroke-linecap:butt;fill-opacity:1;font-family:Arial;font-style:normal;font-weight:bold;font-size:24px;line-height:125%;letter-spacing:0px;word-spacing:0px;-inkscape-font-specification:Arial Bold;font-stretch:normal;font-variant:normal"><flowRegion
         id="flowRegion4357"><rect
           id="rect4359"
           width="435.37573"
           height="230.81985"
           x="-509.11688"
           y="48.370895" /></flowRegion><flowPara
         id="flowPara4361"></flowPara></flowRoot>    <g
       transform="scale(0.99656485,1.003447)"
       style="font-size:16.55466842999999955px;font-style:normal;font-variant:normal;font-weight:bold;font-stretch:normal;text-align:center;line-height:80.00000119000000609%;letter-spacing:0px;word-spacing:0px;writing-mode:lr-tb;text-anchor:middle;fill:#999999;fill-opacity:1;stroke:none;font-family:Kurier;-inkscape-font-specification:Kurier Bold"
       id="text4408">
      <path
         style="fill:#000000"
         d="m 6.5420727,152.88202 0,-10.80984 10.8844903,0 10.88449,0 0,10.80984 0,10.80984 -10.88449,0 -10.8844903,0 0,-10.80984 z m 18.6591303,0 0,-7.72132 -7.77464,0 -7.7746403,0 0,7.72132 0,7.72131 7.7746403,0 7.77464,0 0,-7.72131 z m -12.43942,0 0,-4.63279 4.66478,0 4.66478,0 0,4.63279 0,4.63279 -4.66478,0 -4.66478,0 0,-4.63279 z m 18.65913,9.26557 c 0,-1.0295 0.5183,-1.54426 1.55492,-1.54426 1.03662,0 1.55493,-0.51475 1.55493,-1.54426 0,-1.02951 -0.51831,-1.54426 -1.55493,-1.54426 -1.42535,0 -1.55492,-0.51476 -1.55492,-6.17705 0,-5.6623 0.12957,-6.17706 1.55492,-6.17706 1.03662,0 1.55493,0.51476 1.55493,1.54427 0,1.28688 0.51831,1.54426 3.10985,1.54426 2.59155,0 3.10986,-0.25738 3.10986,-1.54426 0,-1.02951 -0.51831,-1.54427 -1.55493,-1.54427 -1.03662,0 -1.55493,-0.51475 -1.55493,-1.54426 0,-1.28689 -0.5183,-1.54426 -3.10985,-1.54426 -2.59155,0 -3.10985,-0.25738 -3.10985,-1.54426 0,-1.02951 0.5183,-1.54427 1.55492,-1.54427 1.03662,0 1.55493,-0.51475 1.55493,-1.54426 0,-1.28689 -0.51831,-1.54426 -3.10985,-1.54426 -2.59155,0 -3.10986,0.25737 -3.10986,1.54426 0,1.02951 -0.51831,1.54426 -1.55493,1.54426 -1.03661,0 -1.55492,-0.51475 -1.55492,-1.54426 0,-1.02951 0.51831,-1.54426 1.55492,-1.54426 1.03662,0 1.55493,-0.51476 1.55493,-1.54427 0,-1.28688 -0.51831,-1.54426 -3.10985,-1.54426 l -3.10986,0 0,-6.17705 c 0,-5.66229 0.12958,-6.17705 1.55493,-6.17705 1.03662,0 1.55493,-0.51476 1.55493,-1.54426 0,-1.02951 0.51831,-1.54427 1.55492,-1.54427 1.03662,0 1.55493,-0.51475 1.55493,-1.54426 0,-1.02951 -0.51831,-1.54426 -1.55493,-1.54426 -1.03661,0 -1.55492,-0.51476 -1.55492,-1.54427 0,-1.0295 -0.51831,-1.54426 -1.55493,-1.54426 -1.03662,0 -1.55493,0.51476 -1.55493,1.54426 0,1.37268 -0.51831,1.54427 -4.66478,1.54427 l -4.66478,0 0,3.08852 c 0,2.57377 0.25915,3.08853 1.55492,3.08853 1.03662,0 1.55493,-0.51476 1.55493,-1.54426 0,-1.02951 0.51831,-1.54427 1.55493,-1.54427 1.38216,0 1.55493,0.51476 1.55493,4.63279 0,4.11803 -0.17277,4.63279 -1.55493,4.63279 -1.03662,0 -1.55493,0.51476 -1.55493,1.54426 0,1.02951 -0.51831,1.54427 -1.55493,1.54427 -1.03661,0 -1.55492,0.51475 -1.55492,1.54426 0,1.28689 0.51831,1.54426 3.10985,1.54426 2.59155,0 3.10986,0.25738 3.10986,1.54426 0,1.02951 -0.51831,1.54427 -1.55493,1.54427 -1.03662,0 -1.55493,0.51475 -1.55493,1.54426 0,1.37268 -0.51831,1.54426 -4.66478,1.54426 -4.1464703,0 -4.6647803,-0.17158 -4.6647803,-1.54426 0,-1.02951 0.51831,-1.54426 1.55492,-1.54426 1.29578,0 1.55493,-0.51476 1.55493,-3.08853 0,-2.57377 -0.25915,-3.08852 -1.55493,-3.08852 -1.42535,0 -1.55492,-0.51476 -1.55492,-6.17706 0,-5.66229 0.12957,-6.17705 1.55492,-6.17705 1.03662,0 1.55493,-0.51475 1.55493,-1.54426 0,-1.02951 0.5183103,-1.54426 1.5549303,-1.54426 1.03662,0 1.55493,-0.51476 1.55493,-1.54427 0,-1.0295 -0.51831,-1.54426 -1.55493,-1.54426 -1.4253503,0 -1.5549303,-0.51475 -1.5549303,-6.17705 0,-5.66229 -0.12958,-6.17705 -1.55493,-6.17705 -1.38215,0 -1.55492,-0.51476 -1.55492,-4.63279 0,-4.11803 0.17277,-4.632787 1.55492,-4.632787 1.03662,0 1.55493,-0.514757 1.55493,-1.544263 0,-1.029506 0.5183103,-1.544263 1.5549303,-1.544263 1.03662,0 1.55493,-0.514757 1.55493,-1.544263 0,-1.029506 -0.51831,-1.544262 -1.55493,-1.544262 -1.2957703,0 -1.5549303,-0.514757 -1.5549303,-3.088526 0,-2.573769 -0.25915,-3.088526 -1.55493,-3.088526 -1.03661,0 -1.55492,-0.514754 -1.55492,-1.544262 0,-1.029509 0.51831,-1.544263 1.55492,-1.544263 1.03662,0 1.55493,0.514754 1.55493,1.544263 0,1.286885 0.5183103,1.544262 3.1098603,1.544262 2.59154,0 3.10985,-0.257377 3.10985,-1.544262 0,-1.029509 -0.51831,-1.544263 -1.55493,-1.544263 -1.03661,0 -1.55492,-0.514755 -1.55492,-1.544263 0,-1.029508 -0.51831,-1.544263 -1.55493,-1.544263 -1.03662,0 -1.5549303,-0.514754 -1.5549303,-1.544263 0,-1.029508 -0.51831,-1.544262 -1.55493,-1.544262 -1.03661,0 -1.55492,-0.514755 -1.55492,-1.544263 0,-1.029509 0.51831,-1.544263 1.55492,-1.544263 1.03662,0 1.55493,-0.514755 1.55493,-1.544263 0,-1.029508 -0.51831,-1.544263 -1.55493,-1.544263 -1.03661,0 -1.55492,-0.514754 -1.55492,-1.544263 0,-1.029508 0.51831,-1.544262 1.55492,-1.544262 1.03662,0 1.55493,0.514754 1.55493,1.544262 0,1.029509 0.5183103,1.544263 1.5549303,1.544263 1.03662,0 1.55493,0.514755 1.55493,1.544263 0,1.029508 -0.51831,1.544263 -1.55493,1.544263 -1.03662,0 -1.5549303,0.514754 -1.5549303,1.544263 0,1.286886 0.5183103,1.544263 3.1098603,1.544263 2.59154,0 3.10985,-0.257377 3.10985,-1.544263 0,-1.029509 0.51831,-1.544263 1.55493,-1.544263 1.03662,0 1.55493,-0.514755 1.55493,-1.544263 0,-1.029508 -0.51831,-1.544263 -1.55493,-1.544263 -1.38216,0 -1.55493,-0.514754 -1.55493,-4.632788 0,-4.118034 -0.17277,-4.632789 -1.55493,-4.632789 -1.03661,0 -1.55492,-0.514754 -1.55492,-1.544262 0,-1.029509 -0.51831,-1.544263 -1.55493,-1.544263 -1.03662,0 -1.5549303,0.514754 -1.5549303,1.544263 0,1.029508 -0.51831,1.544262 -1.55493,1.544262 -1.38215,0 -1.55492,-0.514754 -1.55492,-4.632788 l 0,-4.632788 4.6647803,0 c 4.14647,0 4.66478,-0.171585 4.66478,-1.544263 0,-1.029508 -0.51831,-1.544263 -1.55493,-1.544263 -1.03661,0 -1.55492,-0.514755 -1.55492,-1.544263 0,-1.441312 0.51831,-1.544263 7.77463,-1.544263 7.25633,0 7.77464,0.102951 7.77464,1.544263 0,1.286886 0.51831,1.544263 3.10986,1.544263 2.59154,0 3.10985,-0.257377 3.10985,-1.544263 0,-1.029508 -0.51831,-1.544263 -1.55493,-1.544263 -1.46854,0 -1.55492,-0.514754 -1.55492,-9.265576 l 0,-9.265577 3.10985,0 c 2.59155,0 3.10985,-0.257377 3.10985,-1.544263 0,-1.029508 -0.5183,-1.544263 -1.55492,-1.544263 -1.03662,0 -1.55493,-0.514754 -1.55493,-1.544263 0,-1.029508 0.51831,-1.544263 1.55493,-1.544263 1.03662,0 1.55492,0.514755 1.55492,1.544263 0,1.029509 0.51831,1.544263 1.55493,1.544263 1.03662,0 1.55493,0.514755 1.55493,1.544263 0,1.029508 -0.51831,1.544263 -1.55493,1.544263 -1.03662,0 -1.55493,0.514754 -1.55493,1.544262 0,1.029509 0.51831,1.544263 1.55493,1.544263 1.03662,0 1.55493,0.514755 1.55493,1.544263 0,1.286886 -0.51831,1.544263 -3.10986,1.544263 -2.59154,0 -3.10985,0.257377 -3.10985,1.544263 0,1.286886 0.51831,1.544263 3.10985,1.544263 l 3.10986,0 0,4.632788 0,4.632788 3.10985,0 c 2.59155,0 3.10986,-0.257377 3.10986,-1.544262 0,-1.029509 -0.51831,-1.544263 -1.55493,-1.544263 -1.03662,0 -1.55493,-0.514755 -1.55493,-1.544263 0,-1.029508 0.51831,-1.544263 1.55493,-1.544263 1.03662,0 1.55493,-0.514754 1.55493,-1.544263 0,-1.029508 -0.51831,-1.544262 -1.55493,-1.544262 -1.42535,0 -1.55493,-0.514755 -1.55493,-6.177052 0,-5.662296 0.12958,-6.177051 1.55493,-6.177051 1.03662,0 1.55493,-0.514754 1.55493,-1.544263 0,-1.029508 0.51831,-1.544263 1.55493,-1.544263 1.03661,0 1.55492,0.514755 1.55492,1.544263 0,1.029509 0.51831,1.544263 1.55493,1.544263 1.03662,0 1.55493,0.514755 1.55493,1.544263 0,1.286886 -0.51831,1.544263 -3.10986,1.544263 -2.59154,0 -3.10985,0.257377 -3.10985,1.544262 0,1.029509 0.51831,1.544263 1.55493,1.544263 1.03661,0 1.55492,0.514755 1.55492,1.544263 0,1.286886 0.51831,1.544263 3.10986,1.544263 l 3.10985,0 0,-6.177051 0,-6.177052 6.21971,0 c 5.7014,0 6.21971,0.128689 6.21971,1.544263 0,1.029509 -0.51831,1.544263 -1.55493,1.544263 -1.03661,0 -1.55492,0.514755 -1.55492,1.544263 0,1.029508 -0.51831,1.544263 -1.55493,1.544263 -1.03662,0 -1.55493,0.514754 -1.55493,1.544262 0,1.029509 -0.51831,1.544263 -1.55492,1.544263 -1.03662,0 -1.55493,0.514755 -1.55493,1.544263 0,1.029508 -0.51831,1.544263 -1.55493,1.544263 -1.03662,0 -1.55493,0.514754 -1.55493,1.544263 0,1.286886 0.51831,1.544263 3.10986,1.544263 2.59154,0 3.10985,0.257376 3.10985,1.544262 0,1.029509 0.51831,1.544263 1.55493,1.544263 1.03662,0 1.55493,0.514755 1.55493,1.544263 0,1.029508 0.51831,1.544263 1.55492,1.544263 1.29578,0 1.55493,-0.514755 1.55493,-3.088526 0,-2.573771 -0.25915,-3.088525 -1.55493,-3.088525 -1.03661,0 -1.55492,-0.514755 -1.55492,-1.544263 0,-1.286886 0.51831,-1.544263 3.10985,-1.544263 2.59155,0 3.10986,0.257377 3.10986,1.544263 0,1.029508 0.51831,1.544263 1.55492,1.544263 1.03662,0 1.55493,-0.514755 1.55493,-1.544263 0,-1.029509 0.51831,-1.544263 1.55493,-1.544263 1.03661,0 1.55493,-0.514755 1.55493,-1.544263 0,-1.029508 0.51831,-1.544263 1.55492,-1.544263 1.38216,0 1.55493,-0.514754 1.55493,-4.632788 l 0,-4.632789 9.32957,0 c 8.81125,0 9.32956,0.08579 9.32956,1.544263 0,1.286886 0.518307,1.544263 3.109857,1.544263 2.59154,0 3.10985,-0.257377 3.10985,-1.544263 0,-1.029508 0.51831,-1.544263 1.55493,-1.544263 1.03661,0 1.55493,0.514755 1.55493,1.544263 0,1.029509 0.51831,1.544263 1.55492,1.544263 1.03662,0 1.55493,-0.514754 1.55493,-1.544263 0,-1.029508 0.51831,-1.544263 1.55493,-1.544263 1.03661,0 1.55492,0.514755 1.55492,1.544263 0,1.029509 0.51832,1.544263 1.55493,1.544263 1.29578,0 1.55493,0.514755 1.55493,3.088526 0,3.088525 0,3.088525 3.10985,3.088525 2.59155,0 3.10986,0.257377 3.10986,1.544263 0,1.029508 -0.51831,1.544263 -1.55493,1.544263 -1.03661,0 -1.55493,0.514754 -1.55493,1.544263 0,1.029508 -0.51831,1.544263 -1.55492,1.544263 -1.29578,0 -1.55493,-0.514755 -1.55493,-3.088526 0,-2.573771 -0.25915,-3.088526 -1.55493,-3.088526 -1.29577,0 -1.55493,-0.514754 -1.55493,-3.088525 0,-2.573771 -0.25915,-3.088526 -1.55492,-3.088526 -1.29578,0 -1.55493,0.514755 -1.55493,3.088526 0,2.573771 -0.25915,3.088525 -1.55493,3.088525 -1.03661,0 -1.55492,-0.514754 -1.55492,-1.544263 0,-1.372678 -0.51832,-1.544262 -4.66479,-1.544262 -4.14647,0 -4.664777,-0.171585 -4.664777,-1.544263 0,-1.029508 -0.51831,-1.544263 -1.55493,-1.544263 -1.29577,0 -1.55492,0.514755 -1.55492,3.088526 0,2.573771 -0.25916,3.088525 -1.55493,3.088525 -1.38216,0 -1.55493,0.514755 -1.55493,4.632789 0,4.118034 0.17277,4.632788 1.55493,4.632788 1.29577,0 1.55493,-0.514754 1.55493,-3.088525 0,-2.573772 0.25915,-3.088526 1.55492,-3.088526 1.03662,0 1.55493,-0.514755 1.55493,-1.544263 0,-1.286886 0.518307,-1.544263 3.109857,-1.544263 2.59154,0 3.10985,0.257377 3.10985,1.544263 0,1.029508 0.51831,1.544263 1.55493,1.544263 1.03661,0 1.55493,0.514754 1.55493,1.544263 0,1.029508 -0.51832,1.544263 -1.55493,1.544263 -1.03662,0 -1.55493,-0.514755 -1.55493,-1.544263 0,-1.286886 -0.51831,-1.544263 -3.10985,-1.544263 -2.59155,0 -3.109857,0.257377 -3.109857,1.544263 0,1.029508 0.518307,1.544263 1.554927,1.544263 1.29577,0 1.55493,0.514754 1.55493,3.088525 0,2.573771 0.25915,3.088526 1.55492,3.088526 1.03662,0 1.55493,-0.514755 1.55493,-1.544263 0,-1.029508 0.51831,-1.544263 1.55493,-1.544263 1.03661,0 1.55493,0.514755 1.55493,1.544263 0,1.029508 0.51831,1.544263 1.55492,1.544263 1.03662,0 1.55493,-0.514755 1.55493,-1.544263 0,-1.029508 0.51831,-1.544263 1.55493,-1.544263 1.03661,0 1.55492,0.514755 1.55492,1.544263 0,1.029508 -0.51831,1.544263 -1.55492,1.544263 -1.03662,0 -1.55493,0.514754 -1.55493,1.544263 0,1.029508 0.51831,1.544262 1.55493,1.544262 1.03661,0 1.55492,0.514755 1.55492,1.544263 0,1.415574 0.51832,1.544263 6.21971,1.544263 5.7014,0 6.21971,0.128689 6.21971,1.544263 0,1.286886 0.51832,1.544263 3.10986,1.544263 2.59154,0 3.10985,-0.257377 3.10985,-1.544263 0,-1.029508 0.51831,-1.544263 1.55493,-1.544263 1.03662,0 1.55493,-0.514755 1.55493,-1.544263 0,-1.441312 0.51831,-1.544263 7.77463,-1.544263 l 7.77464,0 0,4.632789 c 0,4.118034 0.17277,4.632788 1.55493,4.632788 1.29577,0 1.55493,-0.514754 1.55493,-3.088525 0,-2.573771 0.25915,-3.088526 1.55492,-3.088526 1.46855,0 1.55493,0.514755 1.55493,9.265577 l 0,9.265577 -4.66478,0 c -4.14647,0 -4.66478,0.171584 -4.66478,1.544262 0,1.029509 0.51831,1.544263 1.55492,1.544263 1.03662,0 1.55493,0.514755 1.55493,1.544263 0,1.286886 -0.51831,1.544263 -3.10985,1.544263 -3.10986,0 -3.10986,0 -3.10986,-3.088526 l 0,-3.088525 -4.66478,0 c -4.14647,0 -4.66478,0.171584 -4.66478,1.544262 0,1.286886 0.51831,1.544263 3.10985,1.544263 2.59155,0 3.10986,0.257377 3.10986,1.544263 0,1.029508 -0.51831,1.544263 -1.55493,1.544263 -1.03662,0 -1.55493,0.514754 -1.55493,1.544263 0,1.029508 0.51831,1.544263 1.55493,1.544263 1.03662,0 1.55493,0.514754 1.55493,1.544262 0,1.029509 0.51831,1.544263 1.55492,1.544263 1.03662,0 1.55493,0.514755 1.55493,1.544263 0,1.029508 0.51831,1.544263 1.55493,1.544263 1.03662,0 1.55493,0.514754 1.55493,1.544263 0,1.286885 0.51831,1.544262 3.10985,1.544262 2.59154,0 3.10986,-0.257377 3.10986,-1.544262 0,-1.029509 -0.51832,-1.544263 -1.55493,-1.544263 -1.29578,0 -1.55493,-0.514755 -1.55493,-3.088526 0,-3.088525 0,-3.088525 3.10986,-3.088525 l 3.10985,0 0,4.632788 c 0,4.118034 -0.17277,4.632788 -1.55493,4.632788 -1.03661,0 -1.55492,0.514757 -1.55492,1.544263 0,1.029506 -0.51832,1.544263 -1.55493,1.544263 -1.03662,0 -1.55493,0.514757 -1.55493,1.544263 0,1.286888 -0.51831,1.544263 -3.10985,1.544263 -3.10986,0 -3.10986,0 -3.10986,3.088525 0,3.088526 0,3.088526 3.10986,3.088526 3.10985,0 3.10985,0 3.10985,3.088525 0,3.088522 0,3.088522 3.10986,3.088522 l 3.10985,0 0,9.26558 c 0,8.75082 -0.0864,9.26558 -1.55493,9.26558 -1.03661,0 -1.55492,-0.51476 -1.55492,-1.54427 0,-1.0295 -0.51832,-1.54426 -1.55493,-1.54426 -1.03662,0 -1.55493,0.51476 -1.55493,1.54426 0,1.02951 -0.51831,1.54427 -1.55493,1.54427 -1.03661,0 -1.55492,-0.51476 -1.55492,-1.54427 0,-1.0295 0.51831,-1.54426 1.55492,-1.54426 1.03662,0 1.55493,-0.51475 1.55493,-1.54426 0,-1.28689 -0.51831,-1.54426 -3.10985,-1.54426 -2.59155,0 -3.10986,-0.25738 -3.10986,-1.54427 0,-1.0295 0.51831,-1.54426 1.55493,-1.54426 1.03662,0 1.55493,-0.51476 1.55493,-1.54426 0,-1.02951 0.51831,-1.54426 1.55492,-1.54426 1.03662,0 1.55493,0.51475 1.55493,1.54426 0,1.0295 0.51831,1.54426 1.55493,1.54426 1.29577,0 1.55493,-0.51476 1.55493,-3.08852 0,-2.57377 -0.25916,-3.08853 -1.55493,-3.08853 -1.03662,0 -1.55493,-0.51476 -1.55493,-1.54426 0,-1.28689 -0.51831,-1.54427 -3.10985,-1.54427 -2.59155,0 -3.10986,0.25738 -3.10986,1.54427 0,1.28688 -0.51831,1.54426 -3.10985,1.54426 -3.10986,0 -3.10986,0 -3.10986,3.08853 0,2.57376 0.25915,3.08852 1.55493,3.08852 1.29578,0 1.55493,0.51476 1.55493,3.08853 0,2.57377 -0.25915,3.08852 -1.55493,3.08852 -1.03662,0 -1.55493,0.51476 -1.55493,1.54426 0,1.02951 0.51831,1.54427 1.55493,1.54427 1.46854,0 1.55493,0.51475 1.55493,9.26557 0,8.75082 0.0864,9.26558 1.55492,9.26558 1.03662,0 1.55493,-0.51476 1.55493,-1.54426 0,-1.02951 0.51831,-1.54426 1.55493,-1.54426 1.03662,0 1.55493,0.51475 1.55493,1.54426 0,1.0295 -0.51831,1.54426 -1.55493,1.54426 -1.03662,0 -1.55493,0.51476 -1.55493,1.54426 0,1.02951 0.51831,1.54427 1.55493,1.54427 1.03662,0 1.55493,0.51475 1.55493,1.54426 0,1.02951 -0.51831,1.54426 -1.55493,1.54426 -1.03662,0 -1.55493,0.51476 -1.55493,1.54427 0,1.0295 0.51831,1.54426 1.55493,1.54426 1.03662,0 1.55493,0.51476 1.55493,1.54426 0,1.02951 -0.51831,1.54426 -1.55493,1.54426 -1.03662,0 -1.55493,0.51476 -1.55493,1.54427 0,1.0295 0.51831,1.54426 1.55493,1.54426 1.29577,0 1.55493,0.51476 1.55493,3.08853 0,2.57376 0.25915,3.08852 1.55492,3.08852 1.03662,0 1.55493,0.51476 1.55493,1.54426 0,1.28689 -0.51831,1.54427 -3.10985,1.54427 -3.10986,0 -3.10986,0 -3.10986,-3.08853 l 0,-3.08852 -7.77463,0 c -7.25633,0 -7.77464,0.10294 -7.77464,1.54426 0,1.0295 -0.51831,1.54426 -1.55493,1.54426 -1.03661,0 -1.55493,0.51476 -1.55493,1.54426 0,1.28689 0.51832,1.54427 3.10986,1.54427 2.59154,0 3.10985,-0.25738 3.10985,-1.54427 0,-1.0295 0.51831,-1.54426 1.55493,-1.54426 1.03662,0 1.55493,0.51476 1.55493,1.54426 0,1.02951 0.51831,1.54427 1.55493,1.54427 1.03661,0 1.55492,-0.51476 1.55492,-1.54427 0,-1.0295 0.51831,-1.54426 1.55493,-1.54426 1.29578,0 1.55493,0.51476 1.55493,3.08853 0,2.57377 0.25915,3.08852 1.55492,3.08852 1.03662,0 1.55493,0.51476 1.55493,1.54426 0,1.02951 -0.51831,1.54427 -1.55493,1.54427 -1.03661,0 -1.55492,-0.51476 -1.55492,-1.54427 0,-1.28688 -0.51831,-1.54426 -3.10986,-1.54426 -2.59154,0 -3.10985,0.25738 -3.10985,1.54426 0,1.28689 -0.51831,1.54427 -3.10986,1.54427 -2.59154,0 -3.10985,-0.25738 -3.10985,-1.54427 0,-1.0295 -0.51831,-1.54426 -1.55493,-1.54426 -1.03661,0 -1.55493,-0.51475 -1.55493,-1.54426 0,-1.28689 -0.51831,-1.54426 -3.10985,-1.54426 -2.59154,0 -3.10986,0.25737 -3.10986,1.54426 0,1.02951 0.51832,1.54426 1.55493,1.54426 1.03662,0 1.55493,0.51476 1.55493,1.54426 0,1.37268 -0.51831,1.54427 -4.66478,1.54427 l -4.66479,0 0,-4.63279 c 0,-4.11803 0.17277,-4.63279 1.55493,-4.63279 1.03662,0 1.55493,0.51476 1.55493,1.54426 0,1.02951 0.51831,1.54427 1.55493,1.54427 1.03661,0 1.55492,-0.51476 1.55492,-1.54427 0,-1.28688 0.51832,-1.54426 3.10986,-1.54426 2.59154,0 3.10985,-0.25737 3.10985,-1.54426 0,-1.02951 -0.51831,-1.54426 -1.55492,-1.54426 -1.03662,0 -1.55493,-0.51476 -1.55493,-1.54427 0,-1.0295 0.51831,-1.54426 1.55493,-1.54426 1.03661,0 1.55492,-0.51476 1.55492,-1.54426 0,-1.02951 0.51832,-1.54427 1.55493,-1.54427 1.29578,0 1.55493,-0.51475 1.55493,-3.08852 0,-2.57377 -0.25915,-3.08853 -1.55493,-3.08853 -1.03661,0 -1.55493,0.51476 -1.55493,1.54427 0,1.0295 -0.51831,1.54426 -1.55492,1.54426 -1.03662,0 -1.55493,0.51476 -1.55493,1.54426 0,1.28689 -0.51831,1.54426 -3.10986,1.54426 -2.59154,0 -3.10985,0.25738 -3.10985,1.54427 0,1.0295 0.51831,1.54426 1.55493,1.54426 1.03661,0 1.55492,0.51476 1.55492,1.54426 0,1.02951 -0.51831,1.54427 -1.55492,1.54427 -1.03662,0 -1.55493,-0.51476 -1.55493,-1.54427 0,-1.0295 -0.51831,-1.54426 -1.55493,-1.54426 -1.03661,0 -1.55493,0.51476 -1.55493,1.54426 0,1.02951 -0.51831,1.54427 -1.55492,1.54427 -1.38216,0 -1.55493,0.51475 -1.55493,4.63278 0,4.11804 -0.17277,4.63279 -1.55493,4.63279 -1.38216,0 -1.55492,-0.51475 -1.55492,-4.63279 0,-4.11803 -0.17277,-4.63278 -1.55493,-4.63278 -1.03662,0 -1.55493,-0.51476 -1.55493,-1.54427 0,-1.0295 -0.51831,-1.54426 -1.55493,-1.54426 -1.29577,0 -1.55492,0.51476 -1.55492,3.08853 0,2.57376 -0.25916,3.08852 -1.55493,3.08852 -1.03662,0 -1.554927,0.51476 -1.554927,1.54426 0,1.28689 0.518307,1.54427 3.109857,1.54427 2.59154,0 3.10985,0.25737 3.10985,1.54426 0,1.02951 -0.51831,1.54426 -1.55493,1.54426 -1.03661,0 -1.55492,0.51476 -1.55492,1.54426 0,1.28689 -0.51832,1.54427 -3.109857,1.54427 -2.59154,0 -3.10985,-0.25738 -3.10985,-1.54427 0,-1.0295 0.51831,-1.54426 1.55492,-1.54426 1.03662,0 1.55493,-0.51475 1.55493,-1.54426 0,-1.02951 -0.51831,-1.54426 -1.55493,-1.54426 -1.29577,0 -1.55492,-0.51476 -1.55492,-3.08853 0,-2.57377 -0.25916,-3.08852 -1.55493,-3.08852 -1.29578,0 -1.55493,0.51475 -1.55493,3.08852 0,2.57377 -0.25915,3.08853 -1.55493,3.08853 -1.03661,0 -1.55492,0.51475 -1.55492,1.54426 0,1.02951 0.51831,1.54426 1.55492,1.54426 1.03662,0 1.55493,0.51476 1.55493,1.54426 0,1.02951 -0.51831,1.54427 -1.55493,1.54427 -1.03661,0 -1.55492,-0.51476 -1.55492,-1.54427 0,-1.28688 -0.51832,-1.54426 -3.10986,-1.54426 -2.59154,0 -3.10985,0.25738 -3.10985,1.54426 0,1.02951 -0.51832,1.54427 -1.55493,1.54427 -1.29578,0 -1.55493,-0.51476 -1.55493,-3.08853 0,-3.08852 0,-3.08852 3.10986,-3.08852 2.59154,0 3.10985,-0.25738 3.10985,-1.54427 0,-1.41557 -0.51831,-1.54426 -6.21971,-1.54426 -5.7014,0 -6.21971,-0.12869 -6.21971,-1.54426 0,-1.02951 -0.51831,-1.54426 -1.55493,-1.54426 -1.03661,0 -1.55492,-0.51476 -1.55492,-1.54427 0,-1.0295 -0.51831,-1.54426 -1.55493,-1.54426 -1.03662,0 -1.55493,0.51476 -1.55493,1.54426 0,1.28689 -0.51831,1.54427 -3.10985,1.54427 -2.59155,0 -3.10986,-0.25738 -3.10986,-1.54427 0,-1.0295 0.51831,-1.54426 1.55493,-1.54426 1.45127,0 1.55493,-0.51476 1.55493,-7.72131 0,-7.20656 -0.10366,-7.72132 -1.55493,-7.72132 -1.03662,0 -1.55493,-0.51476 -1.55493,-1.54426 0,-1.02951 0.51831,-1.54426 1.55493,-1.54426 1.42535,0 1.55493,-0.51476 1.55493,-6.17706 0,-5.66229 -0.12958,-6.17705 -1.55493,-6.17705 -1.03662,0 -1.55493,0.51476 -1.55493,1.54427 0,1.0295 -0.51831,1.54426 -1.55492,1.54426 -1.03662,0 -1.55493,-0.51476 -1.55493,-1.54426 0,-1.02951 0.51831,-1.54427 1.55493,-1.54427 1.03661,0 1.55492,-0.51475 1.55492,-1.54426 0,-1.28689 0.51831,-1.54426 3.10986,-1.54426 2.59154,0 3.10985,-0.25738 3.10985,-1.54427 0,-1.28688 -0.51831,-1.54426 -3.10985,-1.54426 -2.59155,0 -3.10986,-0.25737 -3.10986,-1.54426 0,-1.02951 -0.51831,-1.54426 -1.55492,-1.54426 -1.29578,0 -1.55493,0.51475 -1.55493,3.08852 0,2.57377 -0.25916,3.08853 -1.55493,3.08853 -1.38216,0 -1.55493,-0.51476 -1.55493,-4.63279 0,-4.11803 -0.17277,-4.63279 -1.55492,-4.63279 -1.03662,0 -1.55493,-0.51476 -1.55493,-1.54426 0,-1.37268 -0.51831,-1.54426 -4.66478,-1.54426 -4.14648,0 -4.66479,-0.17159 -4.66479,-1.54427 0,-1.0295 -0.51831,-1.54426 -1.55492,-1.54426 -1.03662,0 -1.55493,-0.51476 -1.55493,-1.54426 0,-1.02951 0.51831,-1.54427 1.55493,-1.54427 1.03661,0 1.55492,0.51476 1.55492,1.54427 0,1.28688 0.51831,1.54426 3.10986,1.54426 2.59154,0 3.10985,-0.25738 3.10985,-1.54426 0,-1.02951 0.51831,-1.54427 1.55493,-1.54427 1.03662,0 1.55493,-0.51475 1.55493,-1.54426 0,-1.286887 -0.51831,-1.544262 -3.10986,-1.544262 -2.59154,0 -3.10985,-0.257374 -3.10985,-1.544262 0,-1.029506 -0.51831,-1.544263 -1.55493,-1.544263 -1.03662,0 -1.55493,0.514757 -1.55493,1.544263 0,1.286888 -0.51831,1.544262 -3.10985,1.544262 -2.59155,0 -3.10986,-0.257374 -3.10986,-1.544262 0,-1.029506 -0.5183,-1.544263 -1.55492,-1.544263 -1.29578,0 -1.55493,0.514757 -1.55493,3.088525 0,2.573772 0.25915,3.088522 1.55493,3.088522 1.29577,0 1.55492,0.51476 1.55492,3.08853 0,2.57377 -0.25915,3.08853 -1.55492,3.08853 -1.03662,0 -1.55493,-0.51476 -1.55493,-1.54427 0,-1.0295 -0.51831,-1.54426 -1.55493,-1.54426 -1.03662,0 -1.55492,0.51476 -1.55492,1.54426 0,1.41557 -0.51831,1.54427 -6.21971,1.54427 l -6.21971,0 0,3.08852 c 0,2.57377 0.25915,3.08853 1.55492,3.08853 1.03662,0 1.55493,-0.51476 1.55493,-1.54427 0,-1.41557 0.51831,-1.54426 6.21971,-1.54426 5.7014,0 6.21971,0.12869 6.21971,1.54426 0,1.02951 -0.51831,1.54427 -1.55493,1.54427 -1.03662,0 -1.55492,0.51475 -1.55492,1.54426 0,1.02951 -0.51831,1.54426 -1.55493,1.54426 -1.03662,0 -1.55493,0.51476 -1.55493,1.54426 0,1.37268 0.51831,1.54427 4.66478,1.54427 l 4.66478,0 0,-3.08853 c 0,-2.57377 0.25916,-3.08852 1.55493,-3.08852 1.03662,0 1.55493,-0.51476 1.55493,-1.54427 0,-1.28688 0.51831,-1.54426 3.10985,-1.54426 3.10986,0 3.10986,0 3.10986,3.08853 0,2.57377 0.25915,3.08852 1.55493,3.08852 1.03661,0 1.55492,-0.51475 1.55492,-1.54426 0,-1.02951 0.51831,-1.54426 1.55493,-1.54426 1.03662,0 1.55493,0.51475 1.55493,1.54426 0,1.02951 -0.51831,1.54426 -1.55493,1.54426 -1.03662,0 -1.55493,0.51476 -1.55493,1.54426 0,1.02951 0.51831,1.54427 1.55493,1.54427 1.03662,0 1.55493,0.51475 1.55493,1.54426 0,1.02951 0.51831,1.54426 1.55493,1.54426 1.03661,0 1.55492,0.51476 1.55492,1.54427 0,1.28688 -0.51831,1.54426 -3.10985,1.54426 l -3.10986,0 0,4.63279 c 0,4.11803 0.17277,4.63279 1.55493,4.63279 1.03662,0 1.55493,0.51475 1.55493,1.54426 0,1.0295 -0.51831,1.54426 -1.55493,1.54426 -1.03662,0 -1.55493,-0.51476 -1.55493,-1.54426 0,-1.28689 -0.51831,-1.54426 -3.10985,-1.54426 -3.10986,0 -3.10986,0 -3.10986,3.08852 0,2.57377 -0.25915,3.08853 -1.55492,3.08853 -1.38216,0 -1.55493,0.51475 -1.55493,4.63279 0,4.11803 0.17277,4.63278 1.55493,4.63278 1.03661,0 1.55492,-0.51475 1.55492,-1.54426 0,-1.0295 0.51831,-1.54426 1.55493,-1.54426 1.29577,0 1.55493,-0.51476 1.55493,-3.08853 0,-3.08852 0,-3.08852 3.10985,-3.08852 2.59155,0 3.10986,0.25737 3.10986,1.54426 0,1.02951 -0.51831,1.54426 -1.55493,1.54426 -1.29577,0 -1.55493,0.51476 -1.55493,3.08853 0,2.57377 0.25916,3.08852 1.55493,3.08852 1.03662,0 1.55493,-0.51475 1.55493,-1.54426 0,-1.0295 0.51831,-1.54426 1.55493,-1.54426 1.42535,0 1.55492,0.51476 1.55492,6.17705 0,5.66229 0.12958,6.17705 1.55493,6.17705 1.03662,0 1.55493,0.51476 1.55493,1.54426 0,1.28689 0.51831,1.54427 3.10985,1.54427 2.59155,0 3.10986,-0.25738 3.10986,-1.54427 0,-1.0295 0.51831,-1.54426 1.55492,-1.54426 1.03662,0 1.55493,0.51476 1.55493,1.54426 0,1.02951 -0.51831,1.54427 -1.55493,1.54427 -1.03661,0 -1.55492,0.51475 -1.55492,1.54426 0,1.02951 -0.51831,1.54426 -1.55493,1.54426 -1.03662,0 -1.55493,0.51476 -1.55493,1.54426 0,1.02951 -0.51831,1.54427 -1.55492,1.54427 -1.29578,0 -1.55493,-0.51476 -1.55493,-3.08853 0,-2.57377 -0.25916,-3.08852 -1.55493,-3.08852 -1.29577,0 -1.55493,0.51475 -1.55493,3.08852 0,3.08853 0,3.08853 -3.10985,3.08853 -2.59155,0 -3.10986,-0.25738 -3.10986,-1.54427 0,-1.0295 -0.51831,-1.54426 -1.55492,-1.54426 -1.03662,0 -1.55493,0.51476 -1.55493,1.54426 0,1.02951 -0.51831,1.54427 -1.55493,1.54427 -1.03662,0 -1.55493,-0.51476 -1.55493,-1.54427 0,-1.28688 -0.51831,-1.54426 -3.10985,-1.54426 -2.59155,0 -3.10986,0.25738 -3.10986,1.54426 0,1.28689 -0.5183,1.54427 -3.10985,1.54427 -2.59155,0 -3.10985,-0.25738 -3.10985,-1.54427 z m 15.54927,-4.63278 0,-3.08853 -4.66478,0 c -4.14648,0 -4.66479,-0.17158 -4.66479,-1.54426 0,-1.02951 -0.5183,-1.54426 -1.55492,-1.54426 -1.29578,0 -1.55493,0.51475 -1.55493,3.08852 l 0,3.08853 4.66478,0 c 4.14647,0 4.66478,0.17158 4.66478,1.54426 0,1.02951 0.51831,1.54426 1.55493,1.54426 1.29577,0 1.55493,-0.51475 1.55493,-3.08852 z m 90.185787,1.54426 c 0,-1.02951 -0.51831,-1.54426 -1.55493,-1.54426 -1.03662,0 -1.55493,0.51475 -1.55493,1.54426 0,1.02951 0.51831,1.54426 1.55493,1.54426 1.03662,0 1.55493,-0.51475 1.55493,-1.54426 z m -80.856227,-3.08853 c 0,-1.0295 -0.51831,-1.54426 -1.55492,-1.54426 -1.03662,0 -1.55493,-0.51476 -1.55493,-1.54426 0,-1.02951 -0.51831,-1.54426 -1.55493,-1.54426 -1.03662,0 -1.55493,0.51475 -1.55493,1.54426 0,1.0295 0.51831,1.54426 1.55493,1.54426 1.03662,0 1.55493,0.51476 1.55493,1.54426 0,1.02951 0.51831,1.54427 1.55493,1.54427 1.03661,0 1.55492,-0.51476 1.55492,-1.54427 z m -9.32956,-6.17705 c 0,-1.0295 0.51831,-1.54426 1.55493,-1.54426 1.03661,0 1.55492,-0.51476 1.55492,-1.54426 0,-1.28689 -0.51831,-1.54427 -3.10985,-1.54427 -2.59155,0 -3.10986,0.25738 -3.10986,1.54427 0,1.0295 -0.51831,1.54426 -1.55492,1.54426 -1.03662,0 -1.55493,0.51476 -1.55493,1.54426 0,1.28689 0.51831,1.54427 3.10985,1.54427 2.59155,0 3.10986,-0.25738 3.10986,-1.54427 z m 52.86753,0 c 0,-1.0295 0.518307,-1.54426 1.554927,-1.54426 1.03661,0 1.55493,-0.51476 1.55493,-1.54426 0,-1.37268 0.51831,-1.54427 4.66478,-1.54427 4.14647,0 4.66478,0.17159 4.66478,1.54427 0,1.0295 0.51831,1.54426 1.55493,1.54426 1.03661,0 1.55492,-0.51476 1.55492,-1.54426 0,-1.02951 0.51832,-1.54427 1.55493,-1.54427 1.03662,0 1.55493,-0.51475 1.55493,-1.54426 0,-1.28689 -0.51831,-1.54426 -3.10986,-1.54426 -2.59154,0 -3.10985,-0.25738 -3.10985,-1.54426 0,-1.44132 0.51831,-1.54427 7.77464,-1.54427 l 7.77463,0 0,-3.08852 0,-3.08853 4.66479,0 c 4.14647,0 4.66478,0.17158 4.66478,1.54426 0,1.28689 0.51831,1.54427 3.10985,1.54427 2.59155,0 3.10986,-0.25738 3.10986,-1.54427 0,-1.28688 -0.51831,-1.54426 -3.10986,-1.54426 -2.59154,0 -3.10985,-0.25737 -3.10985,-1.54426 0,-1.02951 -0.51831,-1.54426 -1.55493,-1.54426 -1.29577,0 -1.55493,-0.51476 -1.55493,-3.08853 0,-2.57377 0.25916,-3.08853 1.55493,-3.08853 1.03662,0 1.55493,-0.51475 1.55493,-1.54426 0,-1.0295 -0.51831,-1.54426 -1.55493,-1.54426 -1.03662,0 -1.55493,0.51476 -1.55493,1.54426 0,1.28689 -0.51831,1.54426 -3.10985,1.54426 -2.59154,0 -3.10986,0.25738 -3.10986,1.54427 0,1.0295 -0.51831,1.54426 -1.55492,1.54426 -1.29578,0 -1.55493,-0.51476 -1.55493,-3.08853 0,-2.57376 0.25915,-3.08852 1.55493,-3.08852 1.03661,0 1.55492,-0.51476 1.55492,-1.54426 0,-1.02951 0.51832,-1.54427 1.55493,-1.54427 1.03662,0 1.55493,-0.51475 1.55493,-1.54426 0,-1.28689 -0.51831,-1.54426 -3.10986,-1.54426 -2.59154,0 -3.10985,0.25737 -3.10985,1.54426 0,1.02951 -0.51831,1.54426 -1.55493,1.54426 -1.03661,0 -1.55493,-0.51475 -1.55493,-1.54426 0,-1.28689 -0.51831,-1.54426 -3.10985,-1.54426 -2.59154,0 -3.10986,0.25737 -3.10986,1.54426 0,1.02951 -0.51831,1.54426 -1.55492,1.54426 -1.03662,0 -1.55493,-0.51475 -1.55493,-1.54426 0,-1.02951 -0.51831,-1.54426 -1.55493,-1.54426 -1.03661,0 -1.55492,0.51475 -1.55492,1.54426 0,1.02951 0.51831,1.54426 1.55492,1.54426 1.38216,0 1.55493,0.51476 1.55493,4.63279 0,4.11803 -0.17277,4.63279 -1.55493,4.63279 -1.29577,0 -1.55492,-0.51476 -1.55492,-3.08853 0,-2.57376 -0.25916,-3.08852 -1.55493,-3.08852 -1.29578,0 -1.55493,0.51476 -1.55493,3.08852 0,3.08853 0,3.08853 -3.10985,3.08853 -2.59155,0 -3.109857,0.25737 -3.109857,1.54426 0,1.02951 0.518307,1.54427 1.554927,1.54427 1.38216,0 1.55493,0.51475 1.55493,4.63278 0,4.11804 -0.17277,4.63279 -1.55493,4.63279 -1.29578,0 -1.554927,-0.51475 -1.554927,-3.08852 0,-2.57377 -0.25915,-3.08853 -1.55493,-3.08853 -1.38216,0 -1.55492,-0.51476 -1.55492,-4.63279 0,-4.11803 -0.17277,-4.63279 -1.55493,-4.63279 -1.29578,0 -1.55493,-0.51475 -1.55493,-3.08852 0,-2.57377 -0.25915,-3.08853 -1.55493,-3.08853 -1.03661,0 -1.55492,0.51476 -1.55492,1.54427 0,1.0295 -0.51832,1.54426 -1.55493,1.54426 -1.03662,0 -1.55493,0.51476 -1.55493,1.54426 0,1.02951 0.51831,1.54426 1.55493,1.54426 1.03661,0 1.55493,0.51476 1.55493,1.54427 0,1.0295 0.51831,1.54426 1.55492,1.54426 1.03662,0 1.55493,0.51476 1.55493,1.54426 0,1.37268 -0.51831,1.54427 -4.66478,1.54427 l -4.66478,0 0,-6.17706 c 0,-5.66229 0.12958,-6.17705 1.55492,-6.17705 1.03662,0 1.55493,-0.51475 1.55493,-1.54426 0,-1.28689 0.51831,-1.54426 3.10986,-1.54426 2.59154,0 3.10985,-0.25738 3.10985,-1.54427 0,-1.0295 0.51831,-1.54426 1.55493,-1.54426 1.03661,0 1.55493,0.51476 1.55493,1.54426 0,1.02951 0.51831,1.54427 1.55492,1.54427 1.03662,0 1.55493,0.51475 1.55493,1.54426 0,1.02951 -0.51831,1.54426 -1.55493,1.54426 -1.03661,0 -1.55492,0.51476 -1.55492,1.54427 0,1.0295 0.51831,1.54426 1.55492,1.54426 1.03662,0 1.55493,0.51476 1.55493,1.54426 0,1.02951 0.518307,1.54426 1.554927,1.54426 1.03661,0 1.55493,-0.51475 1.55493,-1.54426 0,-1.0295 -0.51832,-1.54426 -1.55493,-1.54426 -1.03662,0 -1.554927,-0.51476 -1.554927,-1.54426 0,-1.28689 0.518307,-1.54427 3.109857,-1.54427 2.59154,0 3.10985,-0.25737 3.10985,-1.54426 0,-1.02951 -0.51831,-1.54426 -1.55493,-1.54426 -1.03661,0 -1.55492,-0.51476 -1.55492,-1.54427 0,-1.37267 0.51831,-1.54426 4.66478,-1.54426 l 4.66478,0 0,-3.08852 c 0,-2.57377 0.25915,-3.08853 1.55493,-3.08853 1.29577,0 1.55492,0.51476 1.55492,3.08853 0,2.57377 0.25916,3.08852 1.55493,3.08852 1.03662,0 1.55493,-0.51475 1.55493,-1.54426 0,-1.02951 0.51831,-1.54426 1.55493,-1.54426 1.03661,0 1.55492,0.51475 1.55492,1.54426 0,1.44131 0.51832,1.54426 7.77464,1.54426 7.25633,0 7.77464,-0.10295 7.77464,-1.54426 0,-1.44132 -0.51831,-1.54426 -7.77464,-1.54426 -7.25632,0 -7.77464,-0.10295 -7.77464,-1.54427 0,-1.28688 0.51832,-1.54426 3.10986,-1.54426 2.59154,0 3.10985,-0.25737 3.10985,-1.54426 0,-1.02951 -0.51831,-1.54426 -1.55492,-1.54426 -1.03662,0 -1.55493,-0.51476 -1.55493,-1.54427 0,-1.28689 0.51831,-1.54426 3.10985,-1.54426 2.59155,0 3.10986,0.25737 3.10986,1.54426 0,1.02951 0.51831,1.54427 1.55493,1.54427 1.03661,0 1.55492,-0.51476 1.55492,-1.54427 0,-1.28689 0.51831,-1.54426 3.10986,-1.54426 2.59154,0 3.10985,-0.25738 3.10985,-1.54426 0,-1.37268 -0.51831,-1.54427 -4.66478,-1.54427 -4.14647,0 -4.66478,-0.17158 -4.66478,-1.54426 0,-1.029505 -0.51831,-1.544262 -1.55493,-1.544262 -1.03661,0 -1.55493,0.514757 -1.55493,1.544262 0,1.02951 -0.51831,1.54426 -1.55492,1.54426 -1.03662,0 -1.55493,0.51476 -1.55493,1.54427 0,1.28688 -0.51831,1.54426 -3.10986,1.54426 -2.59154,0 -3.10985,0.25737 -3.10985,1.54426 0,1.02951 -0.51831,1.54427 -1.55493,1.54427 -1.29577,0 -1.55493,-0.51476 -1.55493,-3.08853 0,-2.57377 0.25916,-3.08853 1.55493,-3.08853 1.03662,0 1.55493,-0.51475 1.55493,-1.54426 0,-1.029505 -0.51831,-1.544262 -1.55493,-1.544262 -1.03661,0 -1.55493,0.514757 -1.55493,1.544262 0,1.02951 -0.51831,1.54426 -1.55492,1.54426 -1.03662,0 -1.55493,-0.51475 -1.55493,-1.54426 0,-1.029505 -0.51831,-1.544262 -1.55493,-1.544262 -1.29577,0 -1.55492,-0.514756 -1.55492,-3.088525 0,-2.573769 -0.25916,-3.088526 -1.55493,-3.088526 -1.03662,0 -1.55493,-0.514757 -1.55493,-1.544263 0,-1.286888 0.51831,-1.544262 3.10986,-1.544262 3.10985,0 3.10985,0 3.10985,3.088525 0,2.573769 0.25915,3.088526 1.55493,3.088526 1.29577,0 1.55492,-0.514757 1.55492,-3.088526 0,-2.573769 0.25916,-3.088525 1.55493,-3.088525 1.38216,0 1.55493,-0.514757 1.55493,-4.632789 0,-4.118034 0.17277,-4.632788 1.55493,-4.632788 1.42534,0 1.55492,0.514754 1.55492,6.177051 0,5.662294 -0.12958,6.177051 -1.55492,6.177051 -1.03662,0 -1.55493,0.514757 -1.55493,1.544263 0,1.029506 0.51831,1.544263 1.55493,1.544263 1.03661,0 1.55492,0.514757 1.55492,1.544263 0,1.029506 0.51832,1.544262 1.55493,1.544262 1.03662,0 1.55493,-0.514756 1.55493,-1.544262 0,-1.029506 0.51831,-1.544263 1.55493,-1.544263 1.29577,0 1.55492,-0.514757 1.55492,-3.088526 0,-2.573769 0.25916,-3.088525 1.55493,-3.088525 1.03662,0 1.55493,-0.514757 1.55493,-1.544263 0,-1.286888 0.51831,-1.544263 3.10985,-1.544263 2.59155,0 3.10986,-0.257375 3.10986,-1.544263 0,-1.029506 0.51831,-1.544263 1.55493,-1.544263 1.03661,0 1.55492,0.514757 1.55492,1.544263 0,1.029506 0.51831,1.544263 1.55493,1.544263 1.03662,0 1.55493,-0.514757 1.55493,-1.544263 0,-1.029506 0.51831,-1.544263 1.55492,-1.544263 1.03662,0 1.55493,-0.514754 1.55493,-1.544262 0,-1.286886 -0.51831,-1.544263 -3.10985,-1.544263 -2.59155,0 -3.10986,-0.257377 -3.10986,-1.544263 0,-1.029508 -0.51831,-1.544263 -1.55492,-1.544263 -1.03662,0 -1.55493,-0.514754 -1.55493,-1.544263 0,-1.286886 -0.51831,-1.544262 -3.10986,-1.544262 -3.10985,0 -3.10985,0 -3.10985,3.088525 0,2.573771 -0.25915,3.088526 -1.55493,3.088526 -1.38216,0 -1.55493,-0.514755 -1.55493,-4.632789 0,-4.118034 0.17277,-4.632788 1.55493,-4.632788 1.03662,0 1.55493,-0.514755 1.55493,-1.544263 0,-1.029508 -0.51831,-1.544263 -1.55493,-1.544263 -1.03661,0 -1.55493,-0.514754 -1.55493,-1.544263 0,-1.286885 0.51832,-1.544262 3.10986,-1.544262 3.10985,0 3.10985,0 3.10985,-3.088526 0,-3.088526 0,-3.088526 3.10986,-3.088526 2.59154,0 3.10985,0.257377 3.10985,1.544263 0,1.372678 0.51831,1.544263 4.66478,1.544263 4.14648,0 4.66479,-0.171585 4.66479,-1.544263 0,-1.029508 0.51831,-1.544263 1.55492,-1.544263 1.03662,0 1.55493,0.514755 1.55493,1.544263 0,1.029509 0.51831,1.544263 1.55493,1.544263 1.29577,0 1.55493,-0.514754 1.55493,-3.088526 0,-2.573771 -0.25916,-3.088525 -1.55493,-3.088525 -1.03662,0 -1.55493,-0.514755 -1.55493,-1.544263 0,-1.029508 -0.51831,-1.544263 -1.55493,-1.544263 -1.29577,0 -1.55492,0.514755 -1.55492,3.088526 0,2.573771 -0.25916,3.088525 -1.55493,3.088525 -1.03662,0 -1.55493,-0.514754 -1.55493,-1.544262 0,-1.286886 -0.51831,-1.544263 -3.10985,-1.544263 -2.59155,0 -3.10986,-0.257377 -3.10986,-1.544263 0,-1.029508 0.51831,-1.544263 1.55493,-1.544263 1.29578,0 1.55493,-0.514754 1.55493,-3.088525 0,-2.573771 -0.25915,-3.088526 -1.55493,-3.088526 -1.29578,0 -1.55493,0.514755 -1.55493,3.088526 0,2.573771 -0.25915,3.088525 -1.55492,3.088525 -1.03662,0 -1.55493,-0.514754 -1.55493,-1.544263 0,-1.029508 -0.51831,-1.544262 -1.55493,-1.544262 -1.38216,0 -1.55493,0.514754 -1.55493,4.632788 0,4.118034 -0.17276,4.632788 -1.55492,4.632788 -1.03662,0 -1.55493,-0.514754 -1.55493,-1.544262 0,-1.029509 -0.51831,-1.544263 -1.55493,-1.544263 -1.29577,0 -1.55493,-0.514755 -1.55493,-3.088526 0,-2.573771 -0.25915,-3.088525 -1.55492,-3.088525 -1.03662,0 -1.55493,0.514754 -1.55493,1.544262 0,1.286886 -0.51831,1.544263 -3.10986,1.544263 -2.59154,0 -3.10985,-0.257377 -3.10985,-1.544263 0,-1.286886 -0.51831,-1.544262 -3.10986,-1.544262 -2.59154,0 -3.10985,-0.257377 -3.10985,-1.544263 0,-1.286886 -0.51831,-1.544263 -3.10985,-1.544263 -2.59155,0 -3.10986,0.257377 -3.10986,1.544263 0,1.029508 0.51831,1.544263 1.55493,1.544263 1.29577,0 1.55493,0.514754 1.55493,3.088525 0,3.088526 0,3.088526 3.10985,3.088526 2.59154,0 3.10985,0.257377 3.10985,1.544263 0,1.029508 -0.51831,1.544262 -1.55492,1.544262 -1.03662,0 -1.55493,0.514755 -1.55493,1.544263 0,1.029509 -0.51831,1.544263 -1.55493,1.544263 -1.03661,0 -1.55492,-0.514754 -1.55492,-1.544263 0,-1.029508 -0.51832,-1.544263 -1.55493,-1.544263 -1.03662,0 -1.55493,-0.514754 -1.55493,-1.544262 0,-1.029509 -0.51831,-1.544263 -1.55493,-1.544263 -1.03661,0 -1.55492,-0.514755 -1.55492,-1.544263 0,-1.029508 -0.51832,-1.544263 -1.55493,-1.544263 -1.03662,0 -1.554927,-0.514754 -1.554927,-1.544263 0,-1.029508 0.518307,-1.544262 1.554927,-1.544262 1.03661,0 1.55493,-0.514755 1.55493,-1.544263 0,-1.372678 -0.51832,-1.544263 -4.664787,-1.544263 -4.14647,0 -4.66478,-0.171585 -4.66478,-1.544263 0,-1.286886 0.51831,-1.544263 3.10986,-1.544263 3.10985,0 3.10985,0 3.10985,-3.088525 0,-2.573771 -0.25915,-3.088526 -1.55493,-3.088526 -1.03661,0 -1.55492,0.514755 -1.55492,1.544263 0,1.029508 -0.51832,1.544263 -1.55493,1.544263 -1.03662,0 -1.55493,-0.514755 -1.55493,-1.544263 0,-1.029508 -0.51831,-1.544263 -1.55493,-1.544263 -1.38216,0 -1.55492,0.514755 -1.55492,4.632789 l 0,4.632788 -7.77464,0 c -7.25633,0 -7.77464,0.102951 -7.77464,1.544263 0,1.029508 -0.51831,1.544263 -1.55493,1.544263 -1.03661,0 -1.55492,-0.514755 -1.55492,-1.544263 0,-1.029508 -0.51831,-1.544263 -1.55493,-1.544263 -1.29577,0 -1.55493,0.514755 -1.55493,3.088526 0,2.573771 0.25916,3.088525 1.55493,3.088525 1.03662,0 1.55493,0.514755 1.55493,1.544263 0,1.029508 -0.51831,1.544263 -1.55493,1.544263 -1.03662,0 -1.55493,0.514754 -1.55493,1.544263 0,1.029508 -0.51831,1.544262 -1.55493,1.544262 -1.03661,0 -1.55492,-0.514754 -1.55492,-1.544262 0,-1.029509 -0.51831,-1.544263 -1.55493,-1.544263 -1.03662,0 -1.55493,0.514754 -1.55493,1.544263 0,1.372678 -0.51831,1.544262 -4.66478,1.544262 -4.14647,0 -4.66478,-0.171584 -4.66478,-1.544262 0,-1.372679 -0.51831,-1.544263 -4.66478,-1.544263 l -4.66479,0 0,-3.088526 c 0,-2.573771 0.25916,-3.088525 1.55493,-3.088525 1.03662,0 1.55493,0.514754 1.55493,1.544262 0,1.029509 0.51831,1.544263 1.55493,1.544263 1.03661,0 1.55492,-0.514754 1.55492,-1.544263 0,-1.029508 0.51831,-1.544262 1.55493,-1.544262 1.03662,0 1.55493,0.514754 1.55493,1.544262 0,1.029509 0.51831,1.544263 1.55493,1.544263 1.03661,0 1.55492,0.514755 1.55492,1.544263 0,1.029508 0.51831,1.544263 1.55493,1.544263 1.03662,0 1.55493,-0.514755 1.55493,-1.544263 0,-1.029508 0.51831,-1.544263 1.55493,-1.544263 1.03661,0 1.55492,-0.514754 1.55492,-1.544263 0,-1.029508 0.51831,-1.544262 1.55493,-1.544262 1.03662,0 1.55493,-0.514755 1.55493,-1.544263 0,-1.415574 -0.51831,-1.544263 -6.21971,-1.544263 l -6.21971,0 0,-3.088526 c 0,-2.573771 0.25915,-3.088525 1.55493,-3.088525 1.03661,0 1.55492,-0.514755 1.55492,-1.544263 0,-1.029508 -0.51831,-1.544263 -1.55492,-1.544263 -1.03662,0 -1.55493,-0.514754 -1.55493,-1.544263 0,-1.029508 -0.51831,-1.544262 -1.55493,-1.544262 -1.03662,0 -1.55493,0.514754 -1.55493,1.544262 0,1.029509 -0.51831,1.544263 -1.55492,1.544263 -1.03662,0 -1.55493,0.514755 -1.55493,1.544263 0,1.029508 0.51831,1.544263 1.55493,1.544263 1.03661,0 1.55492,0.514754 1.55492,1.544263 0,1.029508 -0.51831,1.544262 -1.55492,1.544262 -1.03662,0 -1.55493,0.514755 -1.55493,1.544263 0,1.286886 -0.51831,1.544263 -3.10986,1.544263 -3.10985,0 -3.10985,0 -3.10985,3.088526 0,2.573771 -0.25915,3.088525 -1.55493,3.088525 -1.29577,0 -1.55493,-0.514754 -1.55493,-3.088525 0,-2.573771 -0.25915,-3.088526 -1.55492,-3.088526 -1.03662,0 -1.55493,0.514755 -1.55493,1.544263 0,1.029508 -0.51831,1.544263 -1.55493,1.544263 -1.03662,0 -1.55492,0.514754 -1.55492,1.544262 0,1.286886 0.5183,1.544263 3.10985,1.544263 2.59155,0 3.10985,0.257377 3.10985,1.544263 0,1.286886 -0.5183,1.544263 -3.10985,1.544263 -2.59155,0 -3.10985,0.257377 -3.10985,1.544263 0,1.372678 -0.51831,1.544262 -4.66479,1.544262 -4.14647,0 -4.66478,0.171585 -4.66478,1.544263 0,1.372678 0.51831,1.544263 4.66478,1.544263 4.14648,0 4.66479,-0.171585 4.66479,-1.544263 0,-1.286886 0.5183,-1.544263 3.10985,-1.544263 2.59155,0 3.10985,0.257377 3.10985,1.544263 0,1.029509 -0.5183,1.544263 -1.55492,1.544263 -1.03662,0 -1.55493,0.514755 -1.55493,1.544263 0,1.029508 0.51831,1.544263 1.55493,1.544263 1.03662,0 1.55492,0.514754 1.55492,1.544262 0,1.286886 -0.5183,1.544263 -3.10985,1.544263 l -3.10985,0 0,6.177052 c 0,5.662296 -0.12958,6.177051 -1.55493,6.177051 -1.03662,0 -1.55493,-0.514755 -1.55493,-1.544263 0,-1.029508 -0.51831,-1.544263 -1.55493,-1.544263 -1.03661,0 -1.55492,-0.514754 -1.55492,-1.544263 0,-1.029508 0.51831,-1.544262 1.55492,-1.544262 1.03662,0 1.55493,-0.514755 1.55493,-1.544263 0,-1.029509 -0.51831,-1.544263 -1.55493,-1.544263 -1.03661,0 -1.55492,-0.514755 -1.55492,-1.544263 0,-1.029508 0.51831,-1.544263 1.55492,-1.544263 1.03662,0 1.55493,-0.514754 1.55493,-1.544263 0,-1.029508 -0.51831,-1.544262 -1.55493,-1.544262 -1.03661,0 -1.55492,0.514754 -1.55492,1.544262 0,1.029509 -0.51831,1.544263 -1.55493,1.544263 -1.03662,0 -1.55493,0.514755 -1.55493,1.544263 0,1.029508 -0.51831,1.544263 -1.55493,1.544263 -1.03661,0 -1.55492,0.514754 -1.55492,1.544263 0,1.029508 0.51831,1.544263 1.55492,1.544263 1.03662,0 1.55493,0.514754 1.55493,1.544262 0,1.286886 -0.51831,1.544263 -3.10985,1.544263 -2.59155,0 -3.10986,0.257377 -3.10986,1.544263 0,1.029508 0.51831,1.544263 1.55493,1.544263 1.03662,0 1.55493,0.514754 1.55493,1.544263 0,1.029508 -0.51831,1.544262 -1.55493,1.544262 -1.03662,0 -1.55493,0.514757 -1.55493,1.544263 0,1.029506 -0.51831,1.544263 -1.55493,1.544263 -1.03661,0 -1.55492,0.514757 -1.55492,1.544263 0,1.029506 0.51831,1.544263 1.55492,1.544263 1.03662,0 1.55493,-0.514757 1.55493,-1.544263 0,-1.441315 0.51831,-1.544263 7.77464,-1.544263 7.25633,0 7.77464,-0.102948 7.77464,-1.544263 0,-1.37268 0.5183,-1.544263 4.66478,-1.544263 l 4.66478,0 0,3.088526 c 0,2.573769 -0.25915,3.088526 -1.55493,3.088526 -1.03662,0 -1.55493,0.514756 -1.55493,1.544262 0,1.029506 0.51831,1.544263 1.55493,1.544263 1.03662,0 1.55493,-0.514757 1.55493,-1.544263 0,-1.029506 0.51831,-1.544262 1.55493,-1.544262 1.03661,0 1.55492,0.514756 1.55492,1.544262 0,1.029506 0.51831,1.544263 1.55493,1.544263 1.29577,0 1.55493,-0.514757 1.55493,-3.088525 0,-2.573769 0.25915,-3.088526 1.55493,-3.088526 1.03661,0 1.55492,0.514757 1.55492,1.544263 0,1.029506 0.51831,1.544263 1.55493,1.544263 1.03662,0 1.55493,0.514756 1.55493,1.544262 0,1.029506 -0.51831,1.544263 -1.55493,1.544263 -1.03662,0 -1.55493,0.514757 -1.55493,1.544263 0,1.286888 0.51831,1.544263 3.10986,1.544263 3.10985,0 3.10985,0 3.10985,-3.088526 0,-2.573769 -0.25915,-3.088525 -1.55492,-3.088525 -1.03662,0 -1.55493,-0.514757 -1.55493,-1.544263 0,-1.029506 0.51831,-1.544263 1.55493,-1.544263 1.03661,0 1.55492,-0.514757 1.55492,-1.544263 0,-1.029506 -0.51831,-1.544263 -1.55492,-1.544263 -1.03662,0 -1.55493,0.514757 -1.55493,1.544263 0,1.029506 -0.51831,1.544263 -1.55493,1.544263 -1.03662,0 -1.55493,-0.514757 -1.55493,-1.544263 0,-1.029506 -0.51831,-1.544263 -1.55492,-1.544263 -1.03662,0 -1.55493,-0.514754 -1.55493,-1.544262 0,-1.029509 0.51831,-1.544263 1.55493,-1.544263 1.29577,0 1.55492,-0.514755 1.55492,-3.088526 0,-3.088525 0,-3.088525 3.10986,-3.088525 3.10985,0 3.10985,0 3.10985,3.088525 0,2.573771 0.25916,3.088526 1.55493,3.088526 1.29577,0 1.55493,0.514754 1.55493,3.088525 0,2.573769 0.25915,3.088526 1.55493,3.088526 1.29577,0 1.55492,0.514757 1.55492,3.088526 0,2.573768 -0.25915,3.088525 -1.55492,3.088525 -1.03662,0 -1.55493,0.514757 -1.55493,1.544263 0,1.029506 0.51831,1.544263 1.55493,1.544263 1.03661,0 1.55492,-0.514757 1.55492,-1.544263 0,-1.37268 0.51831,-1.544263 4.66478,-1.544263 l 4.66479,0 0,3.088526 c 0,2.573769 -0.25916,3.088525 -1.55493,3.088525 -1.03662,0 -1.55493,-0.514756 -1.55493,-1.544262 0,-1.029506 -0.51831,-1.544263 -1.55493,-1.544263 -1.03661,0 -1.55492,0.514757 -1.55492,1.544263 0,1.029506 -0.51831,1.544262 -1.55493,1.544262 -1.03662,0 -1.55493,0.514757 -1.55493,1.544262 0,1.02951 0.51831,1.54426 1.55493,1.54426 1.03662,0 1.55493,0.51476 1.55493,1.54427 0,1.28688 -0.51831,1.54426 -3.10986,1.54426 -3.10985,0 -3.10985,0 -3.10985,-3.08853 0,-2.573765 -0.25916,-3.088522 -1.55493,-3.088522 -1.29577,0 -1.55493,0.514757 -1.55493,3.088522 0,2.57377 0.25916,3.08853 1.55493,3.08853 1.29577,0 1.55493,0.51476 1.55493,3.08853 0,2.57376 0.25915,3.08852 1.55493,3.08852 1.03661,0 1.55492,-0.51476 1.55492,-1.54426 0,-1.41557 0.51831,-1.54426 6.21971,-1.54426 5.7014,0 6.21971,0.12869 6.21971,1.54426 0,1.0295 -0.51831,1.54426 -1.55493,1.54426 -1.38216,0 -1.55492,0.51476 -1.55492,4.63279 0,4.11803 -0.17277,4.63279 -1.55493,4.63279 -1.42535,0 -1.55493,0.51475 -1.55493,6.17705 0,5.66229 0.12958,6.17705 1.55493,6.17705 1.03662,0 1.55493,0.51476 1.55493,1.54426 0,1.02951 -0.51831,1.54427 -1.55493,1.54427 -1.03662,0 -1.55493,0.51475 -1.55493,1.54426 0,1.37268 0.51831,1.54426 4.66478,1.54426 4.14647,0 4.66479,0.17158 4.66479,1.54426 0,1.02951 0.51831,1.54427 1.55492,1.54427 1.29578,0 1.55493,-0.51476 1.55493,-3.08853 0,-2.57377 0.25915,-3.08852 1.55493,-3.08852 1.29577,0 1.55493,0.51475 1.55493,3.08852 0,2.57377 0.25915,3.08853 1.55492,3.08853 1.03662,0 1.55493,-0.51476 1.55493,-1.54427 0,-1.0295 0.51831,-1.54426 1.55493,-1.54426 1.29577,0 1.55493,0.51476 1.55493,3.08853 0,2.57377 0.25915,3.08852 1.55492,3.08852 1.29578,0 1.55493,0.51476 1.55493,3.08853 0,2.57377 -0.25915,3.08852 -1.55493,3.08852 -1.03661,0 -1.55492,0.51476 -1.55492,1.54427 0,1.0295 0.51831,1.54426 1.55492,1.54426 1.03662,0 1.55493,-0.51476 1.55493,-1.54426 0,-1.02951 0.51831,-1.54427 1.55493,-1.54427 1.29577,0 1.55493,0.51476 1.55493,3.08853 0,2.57377 0.25915,3.08853 1.55492,3.08853 1.03662,0 1.55493,-0.51476 1.55493,-1.54427 z m -3.10985,-6.17705 c 0,-1.0295 0.51831,-1.54426 1.55492,-1.54426 1.03662,0 1.55493,0.51476 1.55493,1.54426 0,1.02951 -0.51831,1.54426 -1.55493,1.54426 -1.03661,0 -1.55492,-0.51475 -1.55492,-1.54426 z m 6.219707,-3.08852 c 0,-1.02951 0.51831,-1.54427 1.55492,-1.54427 1.03662,0 1.55493,-0.51475 1.55493,-1.54426 0,-1.02951 0.51831,-1.54426 1.55493,-1.54426 1.03661,0 1.55493,0.51475 1.55493,1.54426 0,1.02951 -0.51832,1.54426 -1.55493,1.54426 -1.03662,0 -1.55493,0.51476 -1.55493,1.54427 0,1.0295 -0.51831,1.54426 -1.55493,1.54426 -1.03661,0 -1.55492,-0.51476 -1.55492,-1.54426 z m -9.329567,-3.08853 c 0,-1.02951 0.51831,-1.54426 1.55493,-1.54426 1.03661,0 1.55493,0.51475 1.55493,1.54426 0,1.02951 -0.51832,1.54426 -1.55493,1.54426 -1.03662,0 -1.55493,-0.51475 -1.55493,-1.54426 z m 24.878837,-3.08853 c 0,-1.0295 -0.51831,-1.54426 -1.55493,-1.54426 -1.03661,0 -1.55493,-0.51476 -1.55493,-1.54426 0,-1.02951 -0.51831,-1.54426 -1.55492,-1.54426 -1.03662,0 -1.55493,-0.51476 -1.55493,-1.54427 0,-1.28689 0.51831,-1.54426 3.10985,-1.54426 2.59155,0 3.10986,-0.25737 3.10986,-1.54426 0,-1.02951 -0.51831,-1.54427 -1.55493,-1.54427 -1.03661,0 -1.55493,-0.51475 -1.55493,-1.54426 0,-1.0295 0.51832,-1.54426 1.55493,-1.54426 1.03662,0 1.55493,-0.51476 1.55493,-1.54426 0,-1.02951 0.51831,-1.54427 1.55493,-1.54427 1.03661,0 1.55492,0.51476 1.55492,1.54427 0,1.0295 -0.51831,1.54426 -1.55492,1.54426 -1.03662,0 -1.55493,0.51476 -1.55493,1.54426 0,1.02951 0.51831,1.54426 1.55493,1.54426 1.03661,0 1.55492,0.51476 1.55492,1.54427 0,1.0295 0.51832,1.54426 1.55493,1.54426 1.03662,0 1.55493,0.51476 1.55493,1.54426 0,1.02951 -0.51831,1.54427 -1.55493,1.54427 -1.29577,0 -1.55493,0.51475 -1.55493,3.08852 0,2.57377 -0.25915,3.08853 -1.55492,3.08853 -1.03662,0 -1.55493,-0.51476 -1.55493,-1.54427 z m 3.10985,-6.17705 c 0,-1.0295 -0.51831,-1.54426 -1.55492,-1.54426 -1.03662,0 -1.55493,0.51476 -1.55493,1.54426 0,1.02951 0.51831,1.54427 1.55493,1.54427 1.03661,0 1.55492,-0.51476 1.55492,-1.54427 z m -15.54927,1.54427 c 0,-2.57377 0.25915,-3.08853 1.55493,-3.08853 1.29577,0 1.55493,0.51476 1.55493,3.08853 0,2.57376 -0.25916,3.08852 -1.55493,3.08852 -1.29578,0 -1.55493,-0.51476 -1.55493,-3.08852 z m -34.208397,-7.72132 0,-4.63279 3.10985,0 c 2.59154,0 3.10986,-0.25737 3.10986,-1.54426 0,-1.02951 -0.51832,-1.54426 -1.55493,-1.54426 -1.38216,0 -1.55493,-0.51476 -1.55493,-4.63279 l 0,-4.63279 3.10986,0 c 2.59154,0 3.10985,-0.25737 3.10985,-1.54426 0,-1.28689 -0.51831,-1.54426 -3.10985,-1.54426 -3.10986,0 -3.10986,0 -3.10986,-3.08853 0,-2.57377 -0.25915,-3.08853 -1.55493,-3.08853 -1.03661,0 -1.55492,-0.51475 -1.55492,-1.54426 0,-1.029505 0.51831,-1.544262 1.55492,-1.544262 1.38216,0 1.55493,-0.514756 1.55493,-4.632788 0,-4.118032 -0.17277,-4.632788 -1.55493,-4.632788 -1.03661,0 -1.55492,-0.514757 -1.55492,-1.544263 0,-1.029506 -0.51831,-1.544263 -1.55493,-1.544263 -1.03662,0 -1.55493,-0.514757 -1.55493,-1.544263 0,-1.029506 -0.51831,-1.544263 -1.55493,-1.544263 -1.03661,0 -1.55492,0.514757 -1.55492,1.544263 0,1.029506 -0.51831,1.544263 -1.55493,1.544263 -1.03662,0 -1.55493,-0.514757 -1.55493,-1.544263 0,-1.029506 0.51831,-1.544263 1.55493,-1.544263 1.03662,0 1.55493,-0.514754 1.55493,-1.544262 0,-1.029509 0.51831,-1.544263 1.55492,-1.544263 1.03662,0 1.55493,-0.514755 1.55493,-1.544263 0,-1.029508 0.51831,-1.544263 1.55493,-1.544263 1.38216,0 1.55493,0.514755 1.55493,4.632789 l 0,4.632788 4.66478,0 c 4.14647,0 4.66478,-0.171583 4.66478,-1.544263 0,-1.029506 -0.51831,-1.544263 -1.55493,-1.544263 -1.03661,0 -1.55492,-0.514754 -1.55492,-1.544262 0,-1.029509 -0.51832,-1.544263 -1.55493,-1.544263 -1.03662,0 -1.55493,-0.514755 -1.55493,-1.544263 0,-1.029508 0.51831,-1.544263 1.55493,-1.544263 1.42535,0 1.55493,-0.514754 1.55493,-6.177051 0,-5.662297 0.12958,-6.177051 1.55492,-6.177051 1.03662,0 1.55493,-0.514755 1.55493,-1.544263 0,-1.029508 -0.51831,-1.544263 -1.55493,-1.544263 -1.03661,0 -1.55492,-0.514754 -1.55492,-1.544263 0,-1.029508 -0.51832,-1.544263 -1.55493,-1.544263 -1.03662,0 -1.55493,0.514755 -1.55493,1.544263 0,1.029509 -0.51831,1.544263 -1.55493,1.544263 -1.29577,0 -1.55492,-0.514754 -1.55492,-3.088526 l 0,-3.088525 7.77463,0 c 7.25633,0 7.77464,0.10295 7.77464,1.544263 0,1.029508 0.51831,1.544262 1.55493,1.544262 1.03661,0 1.55493,-0.514754 1.55493,-1.544262 0,-1.029509 0.51831,-1.544263 1.55492,-1.544263 1.29578,0 1.55493,-0.514755 1.55493,-3.088526 0,-2.573771 0.25915,-3.088525 1.55493,-3.088525 1.03661,0 1.55493,0.514754 1.55493,1.544262 0,1.029509 0.51831,1.544263 1.55492,1.544263 1.03662,0 1.55493,0.514755 1.55493,1.544263 0,1.029508 0.518307,1.544263 1.554927,1.544263 1.29577,0 1.55493,0.514754 1.55493,3.088525 0,2.573772 -0.25916,3.088526 -1.55493,3.088526 -1.03662,0 -1.554927,0.514755 -1.554927,1.544263 0,1.286886 0.518307,1.544263 3.109857,1.544263 2.59154,0 3.10985,0.257377 3.10985,1.544262 0,1.029509 -0.51831,1.544263 -1.55493,1.544263 -1.03661,0 -1.55492,0.514755 -1.55492,1.544263 0,1.029508 0.51831,1.544263 1.55492,1.544263 1.03662,0 1.55493,0.514754 1.55493,1.544263 0,1.029508 -0.51831,1.544263 -1.55493,1.544263 -1.03661,0 -1.55492,0.514754 -1.55492,1.544262 0,1.029509 0.51831,1.544263 1.55492,1.544263 1.42535,0 1.55493,0.514755 1.55493,6.177051 0,5.662295 -0.12958,6.177052 -1.55493,6.177052 -1.29577,0 -1.55492,0.514756 -1.55492,3.088525 0,2.573769 -0.25916,3.088526 -1.55493,3.088526 -1.03662,0 -1.554927,0.514757 -1.554927,1.544263 0,1.029506 0.518307,1.544262 1.554927,1.544262 1.03661,0 1.55493,0.514757 1.55493,1.544262 0,1.02951 0.51831,1.54426 1.55492,1.54426 1.03662,0 1.55493,0.51476 1.55493,1.54427 0,1.28688 0.51831,1.54426 3.10986,1.54426 3.10985,0 3.10985,0 3.10985,3.08853 0,2.57376 -0.25915,3.08852 -1.55493,3.08852 -1.03661,0 -1.55492,-0.51476 -1.55492,-1.54426 0,-1.02951 -0.51832,-1.54426 -1.55493,-1.54426 -1.03662,0 -1.55493,0.51475 -1.55493,1.54426 0,1.37268 -0.51831,1.54426 -4.66478,1.54426 -4.146467,0 -4.664777,0.17158 -4.664777,1.54426 0,1.02951 0.51831,1.54427 1.55492,1.54427 1.03662,0 1.55493,0.51475 1.55493,1.54426 0,1.02951 -0.51831,1.54426 -1.55493,1.54426 -1.03661,0 -1.55492,-0.51475 -1.55492,-1.54426 0,-1.02951 -0.51832,-1.54426 -1.55493,-1.54426 -1.03662,0 -1.55493,0.51475 -1.55493,1.54426 0,1.02951 -0.51831,1.54426 -1.55493,1.54426 -1.03661,0 -1.55492,-0.51475 -1.55492,-1.54426 0,-1.02951 -0.51832,-1.54426 -1.55493,-1.54426 -1.03662,0 -1.55493,0.51475 -1.55493,1.54426 0,1.28689 -0.51831,1.54426 -3.10985,1.54426 -2.59155,0 -3.10986,0.25738 -3.10986,1.54426 0,1.02951 0.51831,1.54427 1.55493,1.54427 1.03661,0 1.55493,0.51475 1.55493,1.54426 0,1.02951 -0.51832,1.54426 -1.55493,1.54426 -1.38216,0 -1.55493,0.51476 -1.55493,4.63279 0,4.11803 -0.17277,4.63279 -1.55493,4.63279 -1.29577,0 -1.55492,-0.51476 -1.55492,-3.08853 0,-2.57376 -0.25916,-3.08852 -1.55493,-3.08852 -1.29578,0 -1.55493,0.51476 -1.55493,3.08852 0,2.57377 -0.25915,3.08853 -1.55493,3.08853 -1.38216,0 -1.55492,-0.51476 -1.55492,-4.63279 z m 9.32956,-12.3541 c 0,-1.02951 -0.51831,-1.54426 -1.55493,-1.54426 -1.03661,0 -1.55492,0.51475 -1.55492,1.54426 0,1.02951 0.51831,1.54426 1.55492,1.54426 1.03662,0 1.55493,-0.51475 1.55493,-1.54426 z m 15.54928,-6.17705 c 0,-1.28689 0.51831,-1.54426 3.10985,-1.54426 3.109857,0 3.109857,0 3.109857,-3.08853 0,-3.08853 0,-3.08853 -3.109857,-3.08853 -3.10985,0 -3.10985,0 -3.10985,-3.088522 0,-2.573768 -0.25916,-3.088525 -1.55493,-3.088525 -1.29578,0 -1.55493,0.514757 -1.55493,3.088525 0,3.088522 0,3.088522 -3.10985,3.088522 -2.59155,0 -3.10986,0.25738 -3.10986,1.54427 0,1.0295 -0.51831,1.54426 -1.55493,1.54426 -1.03661,0 -1.55492,0.51476 -1.55492,1.54426 0,1.02951 0.51831,1.54427 1.55492,1.54427 1.03662,0 1.55493,-0.51476 1.55493,-1.54427 0,-1.0295 0.51831,-1.54426 1.55493,-1.54426 1.03661,0 1.55493,0.51476 1.55493,1.54426 0,1.02951 0.51831,1.54427 1.55492,1.54427 1.03662,0 1.55493,0.51475 1.55493,1.54426 0,1.0295 0.51831,1.54426 1.55493,1.54426 1.03661,0 1.55493,-0.51476 1.55493,-1.54426 z m -3.10986,-3.08853 c 0,-1.0295 0.51831,-1.54426 1.55493,-1.54426 1.03661,0 1.55493,0.51476 1.55493,1.54426 0,1.02951 -0.51832,1.54427 -1.55493,1.54427 -1.03662,0 -1.55493,-0.51476 -1.55493,-1.54427 z m -6.21971,-12.3541 0,-4.632788 -4.66478,0 -4.66478,0 0,4.632788 0,4.632788 4.66478,0 4.66478,0 0,-4.632788 z m -6.21971,0 c 0,-1.029506 0.51831,-1.544263 1.55493,-1.544263 1.03661,0 1.55493,0.514757 1.55493,1.544263 0,1.029506 -0.51832,1.544263 -1.55493,1.544263 -1.03662,0 -1.55493,-0.514757 -1.55493,-1.544263 z m 12.43942,-3.088526 c 0,-1.029506 0.51831,-1.544262 1.55493,-1.544262 1.03661,0 1.55493,0.514756 1.55493,1.544262 0,1.029506 0.51831,1.544263 1.55492,1.544263 1.03662,0 1.55493,-0.514757 1.55493,-1.544263 0,-1.029506 0.518307,-1.544262 1.554927,-1.544262 1.29577,0 1.55493,-0.514757 1.55493,-3.088526 0,-2.573769 -0.25916,-3.088526 -1.55493,-3.088526 -1.29578,0 -1.554927,-0.514754 -1.554927,-3.088525 0,-2.573771 -0.25915,-3.088526 -1.55493,-3.088526 -1.03661,0 -1.55492,-0.514754 -1.55492,-1.544263 0,-1.029508 0.51831,-1.544262 1.55492,-1.544262 1.03662,0 1.55493,-0.514755 1.55493,-1.544263 0,-1.029509 -0.51831,-1.544263 -1.55493,-1.544263 -1.03661,0 -1.55492,-0.514755 -1.55492,-1.544263 0,-1.029508 0.51831,-1.544263 1.55492,-1.544263 1.03662,0 1.55493,-0.514754 1.55493,-1.544263 0,-1.029508 -0.51831,-1.544262 -1.55493,-1.544262 -1.03661,0 -1.55492,-0.514755 -1.55492,-1.544263 0,-1.029508 0.51831,-1.544263 1.55492,-1.544263 1.29578,0 1.55493,-0.514754 1.55493,-3.088526 0,-2.573771 -0.25915,-3.088525 -1.55493,-3.088525 -1.03661,0 -1.55492,0.514754 -1.55492,1.544263 0,1.029508 -0.51832,1.544262 -1.55493,1.544262 -1.29578,0 -1.55493,0.514755 -1.55493,3.088526 0,2.573771 -0.25915,3.088526 -1.55493,3.088526 -1.03661,0 -1.55492,-0.514755 -1.55492,-1.544263 0,-1.029508 -0.51832,-1.544263 -1.55493,-1.544263 -1.03662,0 -1.55493,-0.514754 -1.55493,-1.544263 0,-1.286886 -0.51831,-1.544263 -3.10985,-1.544263 -2.59155,0 -3.10986,0.257377 -3.10986,1.544263 0,1.029509 0.51831,1.544263 1.55493,1.544263 1.29577,0 1.55493,0.514755 1.55493,3.088526 0,2.573771 -0.25916,3.088525 -1.55493,3.088525 -1.03662,0 -1.55493,0.514755 -1.55493,1.544263 0,1.029508 0.51831,1.544263 1.55493,1.544263 1.38216,0 1.55493,0.514754 1.55493,4.632788 0,4.118034 -0.17277,4.632789 -1.55493,4.632789 -1.03662,0 -1.55493,0.514754 -1.55493,1.544263 0,1.029508 0.51831,1.544262 1.55493,1.544262 1.03661,0 1.55493,0.514757 1.55493,1.544263 0,1.286888 0.51831,1.544263 3.10985,1.544263 3.10986,0 3.10986,0 3.10986,3.088526 0,2.573768 0.25915,3.088525 1.55492,3.088525 1.03662,0 1.55493,-0.514757 1.55493,-1.544263 z m 3.10986,-3.088525 c 0,-1.029506 0.51831,-1.544263 1.55492,-1.544263 1.03662,0 1.55493,0.514757 1.55493,1.544263 0,1.029506 -0.51831,1.544263 -1.55493,1.544263 -1.03661,0 -1.55492,-0.514757 -1.55492,-1.544263 z m -6.21971,-3.088526 c 0,-1.029506 0.51831,-1.544263 1.55492,-1.544263 1.03662,0 1.55493,0.514757 1.55493,1.544263 0,1.029506 -0.51831,1.544263 -1.55493,1.544263 -1.03661,0 -1.55492,-0.514757 -1.55492,-1.544263 z m -6.21971,-3.088525 c 0,-1.029509 0.51831,-1.544263 1.55492,-1.544263 1.03662,0 1.55493,0.514754 1.55493,1.544263 0,1.029508 -0.51831,1.544262 -1.55493,1.544262 -1.03661,0 -1.55492,-0.514754 -1.55492,-1.544262 z m 9.32956,-3.088526 c 0,-1.286886 -0.51831,-1.544263 -3.10985,-1.544263 -2.59155,0 -3.10986,-0.257377 -3.10986,-1.544263 0,-1.286886 0.51831,-1.544262 3.10986,-1.544262 2.59154,0 3.10985,0.257376 3.10985,1.544262 0,1.029509 0.51831,1.544263 1.55493,1.544263 1.03661,0 1.55493,0.514755 1.55493,1.544263 0,1.029508 -0.51832,1.544263 -1.55493,1.544263 -1.03662,0 -1.55493,-0.514755 -1.55493,-1.544263 z m -6.21971,-10.80984 c 0,-2.573771 0.25915,-3.088525 1.55493,-3.088525 1.03661,0 1.55493,0.514754 1.55493,1.544262 0,1.029509 0.51831,1.544263 1.55492,1.544263 1.03662,0 1.55493,0.514755 1.55493,1.544263 0,1.286886 -0.51831,1.544263 -3.10985,1.544263 -3.10986,0 -3.10986,0 -3.10986,-3.088526 z m 24.878837,20.075417 c 0,-1.029506 -0.51831,-1.544263 -1.55493,-1.544263 -1.38216,0 -1.55492,-0.514757 -1.55492,-4.632788 0,-4.118034 0.17276,-4.632789 1.55492,-4.632789 1.29578,0 1.55493,0.514755 1.55493,3.088526 0,2.573771 0.25915,3.088525 1.55493,3.088525 1.29577,0 1.55492,0.514757 1.55492,3.088526 0,2.573769 -0.25915,3.088526 -1.55492,3.088526 -1.03662,0 -1.55493,-0.514757 -1.55493,-1.544263 z M 43.860323,78.757403 c 0,-1.029506 -0.51831,-1.544263 -1.55492,-1.544263 -1.03662,0 -1.55493,-0.514754 -1.55493,-1.544262 0,-1.029509 0.51831,-1.544263 1.55493,-1.544263 1.03661,0 1.55492,-0.514755 1.55492,-1.544263 0,-1.029508 -0.51831,-1.544263 -1.55492,-1.544263 -1.03662,0 -1.55493,-0.514754 -1.55493,-1.544263 0,-1.029508 0.51831,-1.544262 1.55493,-1.544262 1.29577,0 1.55492,-0.514755 1.55492,-3.088526 0,-2.573771 0.25916,-3.088526 1.55493,-3.088526 1.38216,0 1.55493,-0.514754 1.55493,-4.632788 0,-4.118034 0.17277,-4.632789 1.55493,-4.632789 1.45126,0 1.55492,0.514755 1.55492,7.721314 0,7.20656 -0.10366,7.721315 -1.55492,7.721315 -1.29578,0 -1.55493,0.514754 -1.55493,3.088525 0,2.573771 -0.25916,3.088526 -1.55493,3.088526 -1.03662,0 -1.55493,0.514754 -1.55493,1.544263 0,1.029508 0.51831,1.544262 1.55493,1.544262 1.03662,0 1.55493,0.514757 1.55493,1.544263 0,1.029506 -0.51831,1.544263 -1.55493,1.544263 -1.03662,0 -1.55493,-0.514757 -1.55493,-1.544263 z m -18.65912,-3.088525 c 0,-1.029509 0.51831,-1.544263 1.55492,-1.544263 1.03662,0 1.55493,0.514754 1.55493,1.544263 0,1.029508 -0.51831,1.544262 -1.55493,1.544262 -1.03661,0 -1.55492,-0.514754 -1.55492,-1.544262 z m 34.2084,-4.632789 c 0,-2.573771 -0.25916,-3.088525 -1.55493,-3.088525 -1.03662,0 -1.55493,-0.514755 -1.55493,-1.544263 0,-1.029509 0.51831,-1.544263 1.55493,-1.544263 1.03662,0 1.55493,-0.514755 1.55493,-1.544263 0,-1.286886 -0.51831,-1.544263 -3.10986,-1.544263 -3.10985,0 -3.10985,0 -3.10985,-3.088525 0,-2.573771 0.25915,-3.088526 1.55493,-3.088526 1.03661,0 1.55492,0.514755 1.55492,1.544263 0,1.029508 0.51831,1.544263 1.55493,1.544263 1.03662,0 1.55493,0.514754 1.55493,1.544262 0,1.029509 0.51831,1.544263 1.55493,1.544263 1.38215,0 1.55492,-0.514754 1.55492,-4.632788 0,-4.118034 0.17277,-4.632789 1.55493,-4.632789 1.03662,0 1.55493,0.514755 1.55493,1.544263 0,1.029509 0.51831,1.544263 1.55492,1.544263 1.03662,0 1.55493,0.514755 1.55493,1.544263 0,1.029508 -0.51831,1.544263 -1.55493,1.544263 -1.03661,0 -1.55492,0.514754 -1.55492,1.544262 0,1.029509 -0.51831,1.544263 -1.55493,1.544263 -1.42535,0 -1.55493,0.514755 -1.55493,6.177052 0,5.662296 -0.12957,6.177051 -1.55492,6.177051 -1.29578,0 -1.55493,-0.514755 -1.55493,-3.088526 z m 55.977377,0 c 0,-2.573771 0.25916,-3.088525 1.55493,-3.088525 1.45127,0 1.55493,-0.514755 1.55493,-7.721315 0,-7.206559 0.10366,-7.721314 1.55493,-7.721314 1.03661,0 1.55492,0.514755 1.55492,1.544263 0,1.286886 0.51832,1.544263 3.10986,1.544263 2.59154,0 3.10985,-0.257377 3.10985,-1.544263 0,-1.029508 -0.51831,-1.544263 -1.55492,-1.544263 -1.03662,0 -1.55493,-0.514754 -1.55493,-1.544262 0,-1.029509 0.51831,-1.544263 1.55493,-1.544263 1.03661,0 1.55492,0.514754 1.55492,1.544263 0,1.029508 0.51832,1.544262 1.55493,1.544262 1.03662,0 1.55493,0.514755 1.55493,1.544263 0,1.029509 -0.51831,1.544263 -1.55493,1.544263 -1.03661,0 -1.55493,0.514755 -1.55493,1.544263 0,1.029508 -0.51831,1.544263 -1.55492,1.544263 -1.03662,0 -1.55493,0.514754 -1.55493,1.544262 0,1.029509 0.51831,1.544263 1.55493,1.544263 1.03661,0 1.55492,0.514755 1.55492,1.544263 0,1.029508 -0.51831,1.544263 -1.55492,1.544263 -1.03662,0 -1.55493,0.514754 -1.55493,1.544263 0,1.029508 -0.51831,1.544263 -1.55493,1.544263 -1.03661,0 -1.55493,0.514754 -1.55493,1.544262 0,1.029509 0.51832,1.544263 1.55493,1.544263 1.03662,0 1.55493,0.514755 1.55493,1.544263 0,1.029508 -0.51831,1.544263 -1.55493,1.544263 -1.03661,0 -1.55493,-0.514755 -1.55493,-1.544263 0,-1.029508 -0.51831,-1.544263 -1.55492,-1.544263 -1.03662,0 -1.55493,0.514755 -1.55493,1.544263 0,1.029508 -0.51831,1.544263 -1.55493,1.544263 -1.29577,0 -1.55493,-0.514755 -1.55493,-3.088526 z m 9.32957,-7.721314 c 0,-1.029508 -0.51831,-1.544263 -1.55493,-1.544263 -1.03661,0 -1.55493,0.514755 -1.55493,1.544263 0,1.029508 0.51832,1.544263 1.55493,1.544263 1.03662,0 1.55493,-0.514755 1.55493,-1.544263 z m -90.185787,4.632789 c 0,-2.573772 0.25915,-3.088526 1.55493,-3.088526 1.03662,0 1.55492,-0.514755 1.55492,-1.544263 0,-1.029508 0.51831,-1.544263 1.55493,-1.544263 1.03662,0 1.55493,0.514755 1.55493,1.544263 0,1.029508 -0.51831,1.544263 -1.55493,1.544263 -1.29577,0 -1.55493,0.514754 -1.55493,3.088526 0,2.573771 -0.25915,3.088525 -1.55492,3.088525 -1.29578,0 -1.55493,-0.514754 -1.55493,-3.088525 z m -12.43942,-1.544263 c 0,-1.029509 0.51831,-1.544263 1.55493,-1.544263 1.03662,0 1.55493,0.514754 1.55493,1.544263 0,1.029508 -0.51831,1.544263 -1.55493,1.544263 -1.03662,0 -1.55493,-0.514755 -1.55493,-1.544263 z m 87.075937,0 c 0,-1.029509 0.51831,-1.544263 1.55492,-1.544263 1.03662,0 1.55493,0.514754 1.55493,1.544263 0,1.029508 -0.51831,1.544263 -1.55493,1.544263 -1.03661,0 -1.55492,-0.514755 -1.55492,-1.544263 z M 68.739163,63.314775 c 0,-1.029508 0.51831,-1.544263 1.55493,-1.544263 1.03662,0 1.55493,-0.514754 1.55493,-1.544263 0,-1.029508 0.51831,-1.544262 1.55492,-1.544262 1.03662,0 1.55493,0.514754 1.55493,1.544262 0,1.029509 -0.51831,1.544263 -1.55493,1.544263 -1.03661,0 -1.55492,0.514755 -1.55492,1.544263 0,1.029508 -0.51831,1.544263 -1.55493,1.544263 -1.03662,0 -1.55493,-0.514755 -1.55493,-1.544263 z m 40.428117,-3.088526 c 0,-1.029508 0.51831,-1.544262 1.55492,-1.544262 1.03662,0 1.55493,-0.514755 1.55493,-1.544263 0,-1.029508 0.51831,-1.544263 1.55493,-1.544263 1.03661,0 1.55492,0.514755 1.55492,1.544263 0,1.029508 -0.51831,1.544263 -1.55492,1.544263 -1.03662,0 -1.55493,0.514754 -1.55493,1.544262 0,1.029509 -0.51831,1.544263 -1.55493,1.544263 -1.03661,0 -1.55492,-0.514754 -1.55492,-1.544263 z M 40.750473,54.049198 c 0,-1.029508 -0.51831,-1.544263 -1.55493,-1.544263 -1.03662,0 -1.55493,-0.514754 -1.55493,-1.544262 0,-1.029509 0.51831,-1.544263 1.55493,-1.544263 1.03662,0 1.55493,0.514754 1.55493,1.544263 0,1.029508 0.51831,1.544262 1.55493,1.544262 1.03661,0 1.55492,0.514755 1.55492,1.544263 0,1.029509 -0.51831,1.544263 -1.55492,1.544263 -1.03662,0 -1.55493,-0.514754 -1.55493,-1.544263 z m 15.54927,-9.265577 c 0,-1.029508 0.51831,-1.544262 1.55493,-1.544262 1.03662,0 1.55493,0.514754 1.55493,1.544262 0,1.029509 -0.51831,1.544263 -1.55493,1.544263 -1.03662,0 -1.55493,-0.514754 -1.55493,-1.544263 z m 21.76899,0 c 0,-1.029508 0.51831,-1.544262 1.55492,-1.544262 1.03662,0 1.55493,0.514754 1.55493,1.544262 0,1.029509 -0.51831,1.544263 -1.55493,1.544263 -1.03661,0 -1.55492,-0.514754 -1.55492,-1.544263 z m 6.21971,0 c 0,-1.286886 0.51831,-1.544262 3.10985,-1.544262 2.59154,0 3.10986,0.257376 3.10986,1.544262 0,1.286886 -0.51832,1.544263 -3.10986,1.544263 -2.59154,0 -3.10985,-0.257377 -3.10985,-1.544263 z M 50.080033,32.429519 c 0,-1.029508 0.51831,-1.544263 1.55493,-1.544263 1.03662,0 1.55493,0.514755 1.55493,1.544263 0,1.029508 -0.51831,1.544263 -1.55493,1.544263 -1.03662,0 -1.55493,-0.514755 -1.55493,-1.544263 z m 24.87884,114.275451 c 0,-1.02951 -0.51831,-1.54427 -1.55493,-1.54427 -1.03661,0 -1.55492,-0.51475 -1.55492,-1.54426 0,-1.0295 -0.51831,-1.54426 -1.55493,-1.54426 -1.03662,0 -1.55493,0.51476 -1.55493,1.54426 0,1.02951 0.51831,1.54426 1.55493,1.54426 1.03662,0 1.55493,0.51476 1.55493,1.54427 0,1.0295 0.51831,1.54426 1.55492,1.54426 1.03662,0 1.55493,-0.51476 1.55493,-1.54426 z m 12.43942,-3.08853 0,-4.63279 -4.66478,0 -4.66478,0 0,4.63279 0,4.63279 4.66478,0 4.66478,0 0,-4.63279 z m -6.21971,0 c 0,-1.0295 0.51831,-1.54426 1.55493,-1.54426 1.03661,0 1.55493,0.51476 1.55493,1.54426 0,1.02951 -0.51832,1.54426 -1.55493,1.54426 -1.03662,0 -1.55493,-0.51475 -1.55493,-1.54426 z m 62.197097,0 0,-4.63279 -4.66478,0 -4.66479,0 0,4.63279 0,4.63279 4.66479,0 4.66478,0 0,-4.63279 z m -6.21971,0 c 0,-1.0295 0.51831,-1.54426 1.55493,-1.54426 1.03661,0 1.55492,0.51476 1.55492,1.54426 0,1.02951 -0.51831,1.54426 -1.55492,1.54426 -1.03662,0 -1.55493,-0.51475 -1.55493,-1.54426 z m -65.306947,-6.17705 c 0,-1.02951 -0.51831,-1.54426 -1.55493,-1.54426 -1.03662,0 -1.55493,0.51475 -1.55493,1.54426 0,1.02951 0.51831,1.54426 1.55493,1.54426 1.03662,0 1.55493,-0.51475 1.55493,-1.54426 z m -34.20841,-3.08853 c 0,-1.0295 -0.5183,-1.54426 -1.55492,-1.54426 -1.03662,0 -1.55493,0.51476 -1.55493,1.54426 0,1.02951 0.51831,1.54427 1.55493,1.54427 1.03662,0 1.55492,-0.51476 1.55492,-1.54427 z m -24.87883,-6.17705 c 0,-1.0295 0.51831,-1.54426 1.55492,-1.54426 1.03662,0 1.55493,-0.51476 1.55493,-1.54426 0,-1.02951 -0.51831,-1.54427 -1.55493,-1.54427 -1.03661,0 -1.55492,0.51476 -1.55492,1.54427 0,1.0295 -0.51831,1.54426 -1.55493,1.54426 -1.03662,0 -1.5549303,0.51476 -1.5549303,1.54426 0,1.02951 0.5183103,1.54427 1.5549303,1.54427 1.03662,0 1.55493,-0.51476 1.55493,-1.54427 z m 15.54927,0 c 0,-1.28689 0.51831,-1.54426 3.10986,-1.54426 2.59154,0 3.10985,0.25737 3.10985,1.54426 0,1.02951 0.51831,1.54427 1.55493,1.54427 1.03662,0 1.55492,-0.51476 1.55492,-1.54427 0,-1.0295 -0.5183,-1.54426 -1.55492,-1.54426 -1.03662,0 -1.55493,-0.51476 -1.55493,-1.54426 0,-1.28689 -0.51831,-1.54427 -3.10985,-1.54427 -2.59155,0 -3.10986,-0.25737 -3.10986,-1.54426 0,-1.0295 0.51831,-1.54426 1.55493,-1.54426 1.03662,0 1.55493,-0.51476 1.55493,-1.54426 0,-1.02951 -0.51831,-1.54427 -1.55493,-1.54427 -1.03662,0 -1.55493,0.51476 -1.55493,1.54427 0,1.0295 -0.51831,1.54426 -1.55493,1.54426 -1.03661,0 -1.55492,0.51476 -1.55492,1.54426 0,1.02951 0.51831,1.54426 1.55492,1.54426 1.03662,0 1.55493,0.51476 1.55493,1.54427 0,1.0295 -0.51831,1.54426 -1.55493,1.54426 -1.03661,0 -1.55492,0.51476 -1.55492,1.54426 0,1.02951 0.51831,1.54427 1.55492,1.54427 1.03662,0 1.55493,-0.51476 1.55493,-1.54427 z m 15.54927,-1.54426 c 0,-2.57377 0.25916,-3.08853 1.55493,-3.08853 1.03662,0 1.55493,-0.51475 1.55493,-1.54426 0,-1.0295 0.51831,-1.54426 1.55493,-1.54426 1.29577,0 1.55492,-0.51476 1.55492,-3.08853 0,-3.08852 0,-3.08852 -3.10985,-3.08852 -3.10986,0 -3.10986,0 -3.10986,-3.08853 0,-2.57377 -0.25915,-3.08852 -1.55492,-3.08852 -1.29578,0 -1.55493,0.51475 -1.55493,3.08852 0,2.57377 -0.25915,3.08853 -1.55493,3.08853 -1.03662,0 -1.55493,0.51475 -1.55493,1.54426 0,1.02951 0.51831,1.54426 1.55493,1.54426 1.03662,0 1.55493,-0.51475 1.55493,-1.54426 0,-1.02951 0.51831,-1.54426 1.55493,-1.54426 1.29577,0 1.55492,0.51475 1.55492,3.08852 0,2.57377 -0.25915,3.08853 -1.55492,3.08853 -1.38216,0 -1.55493,0.51476 -1.55493,4.63279 0,4.11803 0.17277,4.63279 1.55493,4.63279 1.29577,0 1.55492,-0.51476 1.55492,-3.08853 z m 96.405497,-10.80984 c 0,-1.28689 -0.51831,-1.54426 -3.10985,-1.54426 -2.59155,0 -3.10986,0.25737 -3.10986,1.54426 0,1.28689 0.51831,1.54426 3.10986,1.54426 2.59154,0 3.10985,-0.25737 3.10985,-1.54426 z M 18.981493,109.64266 c 0,-1.02951 -0.51831,-1.54426 -1.55493,-1.54426 -1.03662,0 -1.55493,-0.51476 -1.55493,-1.54427 0,-1.0295 -0.51831,-1.54426 -1.55493,-1.54426 -1.03661,0 -1.55492,0.51476 -1.55492,1.54426 0,1.02951 0.51831,1.54427 1.55492,1.54427 1.03662,0 1.55493,0.51475 1.55493,1.54426 0,1.02951 0.51831,1.54426 1.55493,1.54426 1.03662,0 1.55493,-0.51475 1.55493,-1.54426 z m 9.32956,0 c 0,-1.02951 -0.51831,-1.54426 -1.55493,-1.54426 -1.03661,0 -1.55492,0.51475 -1.55492,1.54426 0,1.02951 0.51831,1.54426 1.55492,1.54426 1.03662,0 1.55493,-0.51475 1.55493,-1.54426 z m 40.42811,-3.08853 c 0,-1.0295 -0.51831,-1.54426 -1.55493,-1.54426 -1.03661,0 -1.55492,0.51476 -1.55492,1.54426 0,1.02951 0.51831,1.54427 1.55492,1.54427 1.03662,0 1.55493,-0.51476 1.55493,-1.54427 z m -49.75767,-6.17705 c 0,-1.41557 0.51831,-1.54426 6.21971,-1.54426 5.7014,0 6.21971,-0.12869 6.21971,-1.54426 0,-1.41558 -0.51831,-1.54427 -6.21971,-1.54427 -5.7014,0 -6.21971,-0.12869 -6.21971,-1.54426 0,-1.029505 -0.51831,-1.544262 -1.55493,-1.544262 -1.03662,0 -1.55493,0.514757 -1.55493,1.544262 0,1.02951 -0.51831,1.54426 -1.55493,1.54426 -1.29577,0 -1.55492,-0.51475 -1.55492,-3.088522 0,-2.573768 -0.25916,-3.088525 -1.55493,-3.088525 -1.3821603,0 -1.5549303,0.514757 -1.5549303,4.632787 0,4.11803 0.17277,4.63279 1.5549303,4.63279 1.03662,0 1.55493,0.51476 1.55493,1.54426 0,1.28689 0.51831,1.54427 3.10985,1.54427 2.59155,0 3.10986,-0.25738 3.10986,-1.54427 z m -3.10986,-3.08852 c 0,-1.02951 0.51831,-1.54427 1.55493,-1.54427 1.03662,0 1.55493,0.51476 1.55493,1.54427 0,1.0295 -0.51831,1.54426 -1.55493,1.54426 -1.03662,0 -1.55493,-0.51476 -1.55493,-1.54426 z m 15.54928,-9.26558 0,-4.632788 -4.66479,0 -4.66478,0 0,4.632788 0,4.632788 4.66478,0 4.66479,0 0,-4.632788 z m -6.21971,0 c 0,-1.029506 0.51831,-1.544263 1.55492,-1.544263 1.03662,0 1.55493,0.514757 1.55493,1.544263 0,1.029506 -0.51831,1.544263 -1.55493,1.544263 -1.03661,0 -1.55492,-0.514757 -1.55492,-1.544263 z m 118.174477,0 0,-4.632788 -4.66478,0 -4.66479,0 0,4.632788 0,4.632788 4.66479,0 4.66478,0 0,-4.632788 z m -6.21971,0 c 0,-1.029506 0.51831,-1.544263 1.55493,-1.544263 1.03661,0 1.55492,0.514757 1.55492,1.544263 0,1.029506 -0.51831,1.544263 -1.55492,1.544263 -1.03662,0 -1.55493,-0.514757 -1.55493,-1.544263 z m 0,-24.708205 c 0,-1.029508 -0.51831,-1.544263 -1.55493,-1.544263 -1.03662,0 -1.55493,0.514755 -1.55493,1.544263 0,1.029508 0.51831,1.544263 1.55493,1.544263 1.03662,0 1.55493,-0.514755 1.55493,-1.544263 z M 18.981493,47.872147 c 0,-1.029508 -0.51831,-1.544263 -1.55493,-1.544263 -1.03662,0 -1.55493,0.514755 -1.55493,1.544263 0,1.029508 0.51831,1.544263 1.55493,1.544263 1.03662,0 1.55493,-0.514755 1.55493,-1.544263 z m 9.32956,0 c 0,-1.029508 -0.51831,-1.544263 -1.55493,-1.544263 -1.03661,0 -1.55492,-0.514754 -1.55492,-1.544263 0,-1.029508 0.51831,-1.544262 1.55492,-1.544262 1.03662,0 1.55493,-0.514755 1.55493,-1.544263 0,-1.029508 -0.51831,-1.544263 -1.55493,-1.544263 -1.03661,0 -1.55492,0.514755 -1.55492,1.544263 0,1.029508 -0.51831,1.544263 -1.55493,1.544263 -1.29577,0 -1.55493,0.514754 -1.55493,3.088525 0,3.088526 0,3.088526 3.10986,3.088526 2.59154,0 3.10985,-0.257377 3.10985,-1.544263 z m 37.31826,-12.354102 c 0,-1.029509 -0.51831,-1.544263 -1.55493,-1.544263 -1.03662,0 -1.55493,-0.514755 -1.55493,-1.544263 0,-1.029508 -0.51831,-1.544263 -1.55492,-1.544263 -1.03662,0 -1.55493,0.514755 -1.55493,1.544263 0,1.029508 0.51831,1.544263 1.55493,1.544263 1.03661,0 1.55492,0.514754 1.55492,1.544263 0,1.029508 0.51831,1.544262 1.55493,1.544262 1.03662,0 1.55493,-0.514754 1.55493,-1.544262 z m 21.76898,-3.088526 0,-4.632788 -4.66478,0 -4.66478,0 0,4.632788 0,4.632788 4.66478,0 4.66478,0 0,-4.632788 z m -6.21971,0 c 0,-1.029508 0.51831,-1.544263 1.55493,-1.544263 1.03661,0 1.55493,0.514755 1.55493,1.544263 0,1.029508 -0.51832,1.544263 -1.55493,1.544263 -1.03662,0 -1.55493,-0.514755 -1.55493,-1.544263 z m 27.988697,3.088526 c 0,-1.029509 -0.51832,-1.544263 -1.55493,-1.544263 -1.03662,0 -1.55493,0.514754 -1.55493,1.544263 0,1.029508 0.51831,1.544262 1.55493,1.544262 1.03661,0 1.55493,-0.514754 1.55493,-1.544262 z M 37.640613,32.429519 c 0,-1.029508 -0.5183,-1.544263 -1.55492,-1.544263 -1.03662,0 -1.55493,0.514755 -1.55493,1.544263 0,1.029508 0.51831,1.544263 1.55493,1.544263 1.03662,0 1.55492,-0.514755 1.55492,-1.544263 z m 37.31826,0 c 0,-1.029508 -0.51831,-1.544263 -1.55493,-1.544263 -1.03661,0 -1.55492,0.514755 -1.55492,1.544263 0,1.029508 0.51831,1.544263 1.55492,1.544263 1.03662,0 1.55493,-0.514755 1.55493,-1.544263 z m 9.32957,-9.265577 c 0,-1.029508 -0.51832,-1.544263 -1.55493,-1.544263 -1.03662,0 -1.55493,0.514755 -1.55493,1.544263 0,1.029508 0.51831,1.544263 1.55493,1.544263 1.03661,0 1.55493,-0.514755 1.55493,-1.544263 z m 6.21971,0 c 0,-1.029508 0.51831,-1.544263 1.55492,-1.544263 1.29578,0 1.55493,-0.514754 1.55493,-3.088525 l 0,-3.088526 -4.66478,0 c -4.14647,0 -4.66478,0.171585 -4.66478,1.544263 0,1.286886 0.51831,1.544263 3.10985,1.544263 2.59154,0 3.10986,0.257377 3.10986,1.544262 0,1.029509 -0.51832,1.544263 -1.55493,1.544263 -1.03662,0 -1.55493,0.514755 -1.55493,1.544263 0,1.029508 0.51831,1.544263 1.55493,1.544263 1.03661,0 1.55493,-0.514755 1.55493,-1.544263 z M 68.739163,162.14759 c 0,-1.0295 0.51831,-1.54426 1.55493,-1.54426 1.03662,0 1.55493,-0.51475 1.55493,-1.54426 0,-1.02951 0.51831,-1.54426 1.55492,-1.54426 1.03662,0 1.55493,0.51475 1.55493,1.54426 0,1.02951 -0.51831,1.54426 -1.55493,1.54426 -1.03661,0 -1.55492,0.51476 -1.55492,1.54426 0,1.02951 -0.51831,1.54427 -1.55493,1.54427 -1.03662,0 -1.55493,-0.51476 -1.55493,-1.54427 z m 80.856227,0 c 0,-1.28688 0.51831,-1.54426 3.10985,-1.54426 2.59154,0 3.10986,-0.25737 3.10986,-1.54426 0,-1.02951 0.51831,-1.54426 1.55492,-1.54426 1.29578,0 1.55493,0.51475 1.55493,3.08852 l 0,3.08853 -4.66478,0 c -4.14647,0 -4.66478,-0.17159 -4.66478,-1.54427 z m 6.21971,-9.26557 c 0,-1.02951 0.51831,-1.54426 1.55492,-1.54426 1.03662,0 1.55493,0.51475 1.55493,1.54426 0,1.0295 -0.51831,1.54426 -1.55493,1.54426 -1.03661,0 -1.55492,-0.51476 -1.55492,-1.54426 z m 0,-6.17705 c 0,-1.02951 -0.51832,-1.54427 -1.55493,-1.54427 -1.29578,0 -1.55493,-0.51475 -1.55493,-3.08852 0,-3.08853 0,-3.08853 3.10986,-3.08853 2.59154,0 3.10985,0.25738 3.10985,1.54427 0,1.0295 -0.51831,1.54426 -1.55493,1.54426 -1.03661,0 -1.55492,0.51476 -1.55492,1.54426 0,1.02951 0.51831,1.54426 1.55492,1.54426 1.03662,0 1.55493,0.51476 1.55493,1.54427 0,1.0295 -0.51831,1.54426 -1.55493,1.54426 -1.03661,0 -1.55492,-0.51476 -1.55492,-1.54426 z m -96.405497,-6.17705 c 0,-1.02951 0.51831,-1.54427 1.55493,-1.54427 1.03661,0 1.55492,0.51476 1.55492,1.54427 0,1.0295 -0.51831,1.54426 -1.55492,1.54426 -1.03662,0 -1.55493,-0.51476 -1.55493,-1.54426 z m -3.10986,-6.17706 c 0,-1.0295 0.51831,-1.54426 1.55493,-1.54426 1.03662,0 1.55493,0.51476 1.55493,1.54426 0,1.02951 -0.51831,1.54427 -1.55493,1.54427 -1.03662,0 -1.55493,-0.51476 -1.55493,-1.54427 z m 99.515357,0 c 0,-1.0295 -0.51832,-1.54426 -1.55493,-1.54426 -1.29578,0 -1.55493,-0.51476 -1.55493,-3.08852 0,-2.57377 0.25915,-3.08853 1.55493,-3.08853 1.03661,0 1.55493,-0.51476 1.55493,-1.54426 0,-1.02951 -0.51832,-1.54427 -1.55493,-1.54427 -1.03662,0 -1.55493,-0.51475 -1.55493,-1.54426 0,-1.0295 -0.51831,-1.54426 -1.55493,-1.54426 -1.03661,0 -1.55492,-0.51476 -1.55492,-1.54426 0,-1.37268 0.51831,-1.54427 4.66478,-1.54427 4.14647,0 4.66478,0.17159 4.66478,1.54427 0,1.0295 -0.51831,1.54426 -1.55493,1.54426 -1.03661,0 -1.55492,0.51476 -1.55492,1.54426 0,1.02951 0.51831,1.54426 1.55492,1.54426 1.29578,0 1.55493,0.51476 1.55493,3.08853 0,2.57377 -0.25915,3.08853 -1.55493,3.08853 -1.03661,0 -1.55492,0.51475 -1.55492,1.54426 0,1.0295 0.51831,1.54426 1.55492,1.54426 1.03662,0 1.55493,0.51476 1.55493,1.54426 0,1.02951 -0.51831,1.54427 -1.55493,1.54427 -1.03661,0 -1.55492,-0.51476 -1.55492,-1.54427 z m -9.32957,-9.26557 c 0,-1.02951 0.51831,-1.54427 1.55493,-1.54427 1.03662,0 1.55493,0.51476 1.55493,1.54427 0,1.0295 -0.51831,1.54426 -1.55493,1.54426 -1.03662,0 -1.55493,-0.51476 -1.55493,-1.54426 z m 9.32957,-37.06231 c 0,-4.118032 0.17276,-4.632788 1.55492,-4.632788 1.38216,0 1.55493,0.514756 1.55493,4.632788 0,4.118032 -0.17277,4.632788 -1.55493,4.632788 -1.38216,0 -1.55492,-0.514756 -1.55492,-4.632788 z m 0,-24.708205 c 0,-1.029508 0.51831,-1.544263 1.55492,-1.544263 1.03662,0 1.55493,0.514755 1.55493,1.544263 0,1.029508 -0.51831,1.544263 -1.55493,1.544263 -1.03661,0 -1.55492,-0.514755 -1.55492,-1.544263 z M 6.5420727,38.60657 c 0,-1.029508 0.51831,-1.544263 1.55492,-1.544263 1.03662,0 1.55493,0.514755 1.55493,1.544263 0,1.029508 -0.51831,1.544263 -1.55493,1.544263 -1.03661,0 -1.55492,-0.514755 -1.55492,-1.544263 z M 118.49684,33.973782 c 0,-2.573771 0.25915,-3.088526 1.55493,-3.088526 1.03661,0 1.55492,0.514755 1.55492,1.544263 0,1.029508 0.51832,1.544263 1.55493,1.544263 1.29578,0 1.55493,-0.514755 1.55493,-3.088526 0,-2.573771 0.25915,-3.088525 1.55493,-3.088525 1.29577,0 1.55492,0.514754 1.55492,3.088525 0,2.573771 0.25916,3.088526 1.55493,3.088526 1.03662,0 1.55493,-0.514755 1.55493,-1.544263 0,-1.029508 0.51831,-1.544263 1.55493,-1.544263 1.03661,0 1.55492,0.514755 1.55492,1.544263 0,1.029508 -0.51831,1.544263 -1.55492,1.544263 -1.03662,0 -1.55493,0.514754 -1.55493,1.544263 0,1.415574 -0.51831,1.544262 -6.21971,1.544262 l -6.21971,0 0,-3.088525 z M 6.5420727,23.163942 l 0,-10.80984 10.8844903,0 10.88449,0 0,10.80984 0,10.80984 -10.88449,0 -10.8844903,0 0,-10.80984 z m 18.6591303,0 0,-7.721314 -7.77464,0 -7.7746403,0 0,7.721314 0,7.721314 7.7746403,0 7.77464,0 0,-7.721314 z m -12.43942,0 0,-4.632788 4.66478,0 4.66478,0 0,4.632788 0,4.632789 -4.66478,0 -4.66478,0 0,-4.632789 z m 124.394187,0 0,-10.80984 10.88449,0 10.88449,0 0,10.80984 0,10.80984 -10.88449,0 -10.88449,0 0,-10.80984 z m 18.65913,0 0,-7.721314 -7.77464,0 -7.77464,0 0,7.721314 0,7.721314 7.77464,0 7.77464,0 0,-7.721314 z m -12.43942,0 0,-4.632788 4.66478,0 4.66478,0 0,4.632788 0,4.632789 -4.66478,0 -4.66478,0 0,-4.632789 z m -31.09855,3.088526 c 0,-1.029509 0.51831,-1.544263 1.55493,-1.544263 1.03661,0 1.55492,0.514754 1.55492,1.544263 0,1.029508 -0.51831,1.544263 -1.55492,1.544263 -1.03662,0 -1.55493,-0.514755 -1.55493,-1.544263 z m 15.54927,-4.632789 c 0,-2.573771 -0.25915,-3.088525 -1.55492,-3.088525 -1.03662,0 -1.55493,-0.514755 -1.55493,-1.544263 0,-1.029508 -0.51831,-1.544263 -1.55493,-1.544263 -1.03661,0 -1.55493,-0.514754 -1.55493,-1.544263 0,-1.029508 0.51832,-1.544263 1.55493,-1.544263 1.03662,0 1.55493,0.514755 1.55493,1.544263 0,1.286886 0.51831,1.544263 3.10985,1.544263 2.59155,0 3.10986,-0.257377 3.10986,-1.544263 0,-1.029508 0.51831,-1.544263 1.55493,-1.544263 1.38216,0 1.55492,0.514755 1.55492,4.632789 0,4.118034 -0.17276,4.632788 -1.55492,4.632788 -1.03662,0 -1.55493,0.514755 -1.55493,1.544263 0,1.029508 -0.51831,1.544263 -1.55493,1.544263 -1.29577,0 -1.55493,-0.514755 -1.55493,-3.088526 z M 68.739163,20.075416 c 0,-1.286885 0.51831,-1.544262 3.10986,-1.544262 2.59154,0 3.10985,-0.257377 3.10985,-1.544263 0,-1.029508 -0.51831,-1.544263 -1.55493,-1.544263 -1.03661,0 -1.55492,-0.514754 -1.55492,-1.544263 0,-1.286886 0.51831,-1.544263 3.10985,-1.544263 3.10986,0 3.10986,0 3.10986,3.088526 0,2.573771 -0.25916,3.088526 -1.55493,3.088526 -1.03662,0 -1.55493,0.514754 -1.55493,1.544262 0,1.286886 -0.51831,1.544263 -3.10985,1.544263 -2.59155,0 -3.10986,-0.257377 -3.10986,-1.544263 z"
         id="path4792"
         inkscape:connector-curvature="0" />
    </g>
  </g>
</svg>
