<?xml version="1.0" encoding="UTF-8" standalone="no"?>
<!-- Created with Inkscape (http://www.inkscape.org/) -->

<svg
   xmlns:osb="http://www.openswatchbook.org/uri/2009/osb"
   xmlns:dc="http://purl.org/dc/elements/1.1/"
   xmlns:cc="http://creativecommons.org/ns#"
   xmlns:rdf="http://www.w3.org/1999/02/22-rdf-syntax-ns#"
   xmlns:svg="http://www.w3.org/2000/svg"
   xmlns="http://www.w3.org/2000/svg"
   xmlns:xlink="http://www.w3.org/1999/xlink"
   xmlns:sodipodi="http://sodipodi.sourceforge.net/DTD/sodipodi-0.dtd"
   xmlns:inkscape="http://www.inkscape.org/namespaces/inkscape"
   width="318.89764"
   height="177.16534"
   id="svg3061"
   version="1.1"
   inkscape:version="0.48.3.1 r9886"
   sodipodi:docname="vizitka-qr-kriv.svg">
  <defs
     id="defs3063">
    <linearGradient
       y2="523.84879"
       x2="-104.53665"
       y1="523.84879"
       x1="-200.4429"
       gradientUnits="userSpaceOnUse"
       id="linearGradient5856"
       xlink:href="#linearGradient5690"
       inkscape:collect="always" />
    <linearGradient
       y2="523.84879"
       x2="-104.53665"
       y1="523.84879"
       x1="-200.4429"
       gradientUnits="userSpaceOnUse"
       id="linearGradient5852"
       xlink:href="#linearGradient5690"
       inkscape:collect="always" />
    <linearGradient
       y2="523.84879"
       x2="-104.53665"
       y1="523.84879"
       x1="-200.4429"
       gradientUnits="userSpaceOnUse"
       id="linearGradient5848"
       xlink:href="#linearGradient5690"
       inkscape:collect="always" />
    <linearGradient
       gradientTransform="translate(-590,28)"
       y2="476.689"
       x2="446.42856"
       y1="409.50504"
       x1="446.42856"
       gradientUnits="userSpaceOnUse"
       id="linearGradient4044"
       xlink:href="#linearGradient4010"
       inkscape:collect="always" />
    <linearGradient
       id="linearGradient3145">
      <stop
         id="stop3147"
         offset="0"
         style="stop-color:#9b9b9b;stop-opacity:1;" />
      <stop
         id="stop3149"
         offset="1"
         style="stop-color:#e6e6e6;stop-opacity:1;" />
    </linearGradient>
    <linearGradient
       id="linearGradient4010"
       inkscape:collect="always">
      <stop
         id="stop4012"
         offset="0"
         style="stop-color:#cccccc;stop-opacity:1;" />
      <stop
         id="stop4014"
         offset="1"
         style="stop-color:#cccccc;stop-opacity:0.129" />
    </linearGradient>
    <linearGradient
       id="linearGradient4072"
       inkscape:collect="always">
      <stop
         id="stop4074"
         offset="0"
         style="stop-color:#00ffff;stop-opacity:1;" />
      <stop
         id="stop4076"
         offset="1"
         style="stop-color:#00ffff;stop-opacity:0;" />
    </linearGradient>
    <linearGradient
       osb:paint="solid"
       id="linearGradient5690">
      <stop
         id="stop5692"
         offset="0"
         style="stop-color:#333333;stop-opacity:1;" />
    </linearGradient>
    <linearGradient
       inkscape:collect="always"
       xlink:href="#linearGradient3145"
       id="linearGradient3105"
       gradientUnits="userSpaceOnUse"
       gradientTransform="translate(0,-2)"
       x1="372.85715"
       y1="685.2193"
       x2="372.85715"
       y2="307.806" />
    <linearGradient
       inkscape:collect="always"
       xlink:href="#linearGradient4072"
       id="linearGradient3107"
       gradientUnits="userSpaceOnUse"
       x1="452.54834"
       y1="672.03973"
       x2="496.49289"
       y2="672.03973" />
    <linearGradient
       id="linearGradient5690-6"
       osb:paint="solid">
      <stop
         style="stop-color:#333333;stop-opacity:1;"
         offset="0"
         id="stop5692-4" />
    </linearGradient>
    <linearGradient
       inkscape:collect="always"
       id="linearGradient4010-2">
      <stop
         style="stop-color:#cccccc;stop-opacity:1;"
         offset="0"
         id="stop4012-9" />
      <stop
         style="stop-color:#cccccc;stop-opacity:0.129"
         offset="1"
         id="stop4014-6" />
    </linearGradient>
    <linearGradient
       id="linearGradient3145-4">
      <stop
         style="stop-color:#9b9b9b;stop-opacity:1;"
         offset="0"
         id="stop3147-8" />
      <stop
         style="stop-color:#e6e6e6;stop-opacity:1;"
         offset="1"
         id="stop3149-3" />
    </linearGradient>
    <linearGradient
       inkscape:collect="always"
       xlink:href="#linearGradient4010-2"
       id="linearGradient4044-0"
       gradientUnits="userSpaceOnUse"
       x1="446.42856"
       y1="409.50504"
       x2="446.42856"
       y2="476.689"
       gradientTransform="translate(-590,28)" />
    <linearGradient
       inkscape:collect="always"
       xlink:href="#linearGradient5690-6"
       id="linearGradient5848-8"
       gradientUnits="userSpaceOnUse"
       x1="-200.4429"
       y1="523.84879"
       x2="-104.53665"
       y2="523.84879" />
    <linearGradient
       inkscape:collect="always"
       xlink:href="#linearGradient5690-6"
       id="linearGradient5852-0"
       gradientUnits="userSpaceOnUse"
       x1="-200.4429"
       y1="523.84879"
       x2="-104.53665"
       y2="523.84879" />
    <linearGradient
       inkscape:collect="always"
       xlink:href="#linearGradient5690-6"
       id="linearGradient5856-5"
       gradientUnits="userSpaceOnUse"
       x1="-200.4429"
       y1="523.84879"
       x2="-104.53665"
       y2="523.84879" />
  </defs>
  <sodipodi:namedview
     id="base"
     pagecolor="#ffffff"
     bordercolor="#666666"
     borderopacity="1.0"
     inkscape:pageopacity="0.0"
     inkscape:pageshadow="2"
     inkscape:zoom="3.2328922"
     inkscape:cx="112.62882"
     inkscape:cy="92.7411"
     inkscape:document-units="px"
     inkscape:current-layer="text4408"
     showgrid="false"
     width="318.9px"
     units="mm"
     inkscape:window-width="1920"
     inkscape:window-height="1033"
     inkscape:window-x="0"
     inkscape:window-y="25"
     inkscape:window-maximized="1" />
  <metadata
     id="metadata3066">
    <rdf:RDF>
      <cc:Work
         rdf:about="">
        <dc:format>image/svg+xml</dc:format>
        <dc:type
           rdf:resource="http://purl.org/dc/dcmitype/StillImage" />
        <dc:title />
      </cc:Work>
    </rdf:RDF>
  </metadata>
  <g
     inkscape:label="Layer 1"
     inkscape:groupmode="layer"
     id="layer1"
     transform="translate(0,-875.19688)"
     style="display:inline"
     sodipodi:insensitive="true">
    <rect
       style="color:#000000;fill:#ffffff;fill-opacity:1;fill-rule:nonzero;stroke:none;stroke-width:2;marker:none;visibility:visible;display:inline;overflow:visible;enable-background:accumulate"
       id="rect3069"
       width="318.89764"
       height="177.16536"
       x="0"
       y="875.1969"
       rx="0"
       ry="0" />
  </g>
  <g
     inkscape:groupmode="layer"
     id="layer2"
     inkscape:label="оформление">
    <text
       xml:space="preserve"
       style="font-size:24px;font-style:normal;font-variant:normal;font-weight:bold;font-stretch:normal;line-height:125%;letter-spacing:0px;word-spacing:0px;fill:#000000;fill-opacity:1;stroke:none;font-family:Arial;-inkscape-font-specification:Arial Bold"
       x="44.446712"
       y="23.622158"
       id="text3017"
       sodipodi:linespacing="125%"><tspan
         sodipodi:role="line"
         id="tspan3019"
         x="44.446712"
         y="23.622158" /></text>
    <flowRoot
       xml:space="preserve"
       id="flowRoot4355"
       style="fill:black;stroke:none;stroke-opacity:1;stroke-width:1px;stroke-linejoin:miter;stroke-linecap:butt;fill-opacity:1;font-family:Arial;font-style:normal;font-weight:bold;font-size:24px;line-height:125%;letter-spacing:0px;word-spacing:0px;-inkscape-font-specification:Arial Bold;font-stretch:normal;font-variant:normal"><flowRegion
         id="flowRegion4357"><rect
           id="rect4359"
           width="435.37573"
           height="230.81985"
           x="-509.11688"
           y="48.370895" /></flowRegion><flowPara
         id="flowPara4361" /></flowRoot>    <g
       transform="scale(0.99656485,1.003447)"
       style="font-size:16.55466842999999955px;font-style:normal;font-variant:normal;font-weight:bold;font-stretch:normal;text-align:center;line-height:80.00000119000000609%;letter-spacing:0px;word-spacing:0px;writing-mode:lr-tb;text-anchor:middle;fill:#999999;fill-opacity:1;stroke:none;font-family:Kurier;-inkscape-font-specification:Kurier Bold"
       id="text4408">
      <path
         style="fill:#000000"
         d="m 5.6566677,154.29414 0,-10.79091 10.8654323,0 10.865432,0 0,10.79091 0,10.79091 -10.865432,0 -10.8654323,0 0,-10.79091 z m 18.6264553,0 0,-7.7078 -7.761023,0 -7.7610223,0 0,7.7078 0,7.70779 7.7610223,0 7.761023,0 0,-7.70779 z m -12.417636,0 0,-4.62468 4.656613,0 4.656614,0 0,4.62468 0,4.62467 -4.656614,0 -4.656613,0 0,-4.62467 z m 18.626456,9.24935 c 0,-1.0277 0.5174,-1.54156 1.5522,-1.54156 1.03481,0 1.55221,-0.51385 1.55221,-1.54156 0,-1.0277 -0.5174,-1.54156 -1.55221,-1.54156 -1.0348,0 -1.5522,-0.51385 -1.5522,-1.54156 0,-1.0277 0.5174,-1.54155 1.5522,-1.54155 1.03481,0 1.55221,-0.51386 1.55221,-1.54156 0,-1.02771 -0.5174,-1.54156 -1.55221,-1.54156 -1.0348,0 -1.5522,-0.51386 -1.5522,-1.54156 0,-1.28464 0.5174,-1.54156 3.10441,-1.54156 3.10441,0 3.10441,0 3.10441,3.08312 0,2.56926 -0.2587,3.08312 -1.55221,3.08312 -1.0348,0 -1.5522,0.51385 -1.5522,1.54155 0,1.28464 0.5174,1.54156 3.10441,1.54156 2.587,0 3.10441,0.25693 3.10441,1.54156 0,1.02771 -0.51741,1.54156 -1.55221,1.54156 -1.0348,0 -1.5522,0.51386 -1.5522,1.54156 0,1.28463 -0.5174,1.54156 -3.10441,1.54156 -2.58701,0 -3.10441,-0.25693 -3.10441,-1.54156 z m 12.41764,-1.54156 c 0,-3.08312 0,-3.08312 3.1044,-3.08312 2.58701,0 3.10441,-0.25692 3.10441,-1.54156 0,-1.28463 -0.5174,-1.54155 -3.10441,-1.54155 -2.587,0 -3.1044,-0.25693 -3.1044,-1.54156 0,-1.02771 -0.51741,-1.54156 -1.55221,-1.54156 -1.2935,0 -1.5522,-0.51386 -1.5522,-3.08312 0,-3.08312 0,-3.08312 -3.10441,-3.08312 -2.58701,0 -3.10441,-0.25692 -3.10441,-1.54156 0,-1.0277 -0.5174,-1.54155 -1.55221,-1.54155 -1.0348,0 -1.5522,-0.51386 -1.5522,-1.54156 0,-1.28464 -0.5174,-1.54156 -3.104411,-1.54156 -2.587007,0 -3.104409,-0.25693 -3.104409,-1.54156 0,-1.0277 0.517402,-1.54156 1.552205,-1.54156 1.034802,0 1.552204,-0.51386 1.552204,-1.54156 0,-1.28463 -0.517402,-1.54156 -3.104409,-1.54156 -2.587007,0 -3.104409,-0.25692 -3.104409,-1.54156 0,-1.28463 0.517402,-1.54155 3.104409,-1.54155 2.587007,0 3.104409,0.25692 3.104409,1.54155 0,1.28464 0.517401,1.54156 3.104411,1.54156 2.58701,0 3.10441,-0.25692 3.10441,-1.54156 0,-1.0277 -0.5174,-1.54155 -1.55221,-1.54155 -1.0348,0 -1.5522,-0.51386 -1.5522,-1.54156 0,-1.28464 0.5174,-1.54156 3.10441,-1.54156 2.58701,0 3.10441,-0.25693 3.10441,-1.54156 0,-1.0277 -0.5174,-1.54156 -1.55221,-1.54156 -1.0348,0 -1.5522,-0.51386 -1.5522,-1.54156 0,-1.0277 0.5174,-1.54156 1.5522,-1.54156 1.03481,0 1.55221,0.51386 1.55221,1.54156 0,1.0277 0.5174,1.54156 1.5522,1.54156 1.42286,0 1.55221,-0.51386 1.55221,-6.16623 l 0,-6.16624 3.10441,0 c 3.1044,0 3.1044,0 3.1044,-3.08312 0,-2.56926 0.2587,-3.08311 1.55221,-3.08311 1.0348,0 1.5522,-0.51386 1.5522,-1.54156 0,-1.02771 0.51741,-1.54156 1.55221,-1.54156 1.0348,0 1.5522,0.51385 1.5522,1.54156 0,1.28463 0.5174,1.54156 3.10441,1.54156 2.58701,0 3.10441,0.25692 3.10441,1.54155 0,1.28464 0.5174,1.54156 3.10441,1.54156 2.58701,0 3.10441,0.25693 3.10441,1.54156 0,1.0277 0.5174,1.54156 1.5522,1.54156 1.03481,0 1.55221,-0.51386 1.55221,-1.54156 0,-1.0277 0.5174,-1.54156 1.5522,-1.54156 1.03481,0 1.55221,-0.51385 1.55221,-1.54156 0,-1.0277 -0.5174,-1.54155 -1.55221,-1.54155 -1.2935,0 -1.5522,-0.51386 -1.5522,-3.08312 l 0,-3.08312 -9.31323,0 -9.31323,0 0,-3.083116 c 0,-2.569264 -0.2587,-3.083119 -1.5522,-3.083119 -1.0348,0 -1.55221,-0.513856 -1.55221,-1.541559 0,-1.027703 -0.5174,-1.541559 -1.5522,-1.541559 -1.2935,0 -1.5522,-0.513855 -1.5522,-3.083117 0,-2.569262 -0.25871,-3.083118 -1.55221,-3.083118 -1.2935,0 -1.5522,0.513856 -1.5522,3.083118 0,2.569262 -0.2587,3.083117 -1.55221,3.083117 -1.0348,0 -1.5522,0.513856 -1.5522,1.541559 0,1.284635 0.5174,1.541559 3.10441,1.541559 2.587,0 3.10441,0.256924 3.10441,1.541559 0,1.0277 0.5174,1.54156 1.5522,1.54156 1.0348,0 1.5522,0.51385 1.5522,1.54156 0,1.027698 -0.5174,1.541556 -1.5522,1.541556 -1.0348,0 -1.5522,0.51385 -1.5522,1.54156 0,1.0277 -0.51741,1.54156 -1.55221,1.54156 -1.0348,0 -1.5522,0.51385 -1.5522,1.54156 0,1.0277 0.5174,1.54156 1.5522,1.54156 1.0348,0 1.55221,0.51385 1.55221,1.54155 0,1.02771 -0.51741,1.54156 -1.55221,1.54156 -1.0348,0 -1.5522,-0.51385 -1.5522,-1.54156 0,-1.28463 -0.51741,-1.54155 -3.10441,-1.54155 -3.10441,0 -3.10441,0 -3.10441,3.08311 0,2.56926 0.2587,3.08312 1.5522,3.08312 1.03481,0 1.55221,0.51386 1.55221,1.54156 0,1.28463 -0.5174,1.54156 -3.10441,1.54156 -2.58701,0 -3.10441,0.25692 -3.10441,1.54156 0,1.0277 -0.5174,1.54156 -1.55221,1.54156 -1.0348,0 -1.552201,0.51385 -1.552201,1.54155 0,1.02771 0.517401,1.54156 1.552201,1.54156 1.03481,0 1.55221,0.51386 1.55221,1.54156 0,1.0277 -0.5174,1.54156 -1.55221,1.54156 -1.0348,0 -1.552201,0.51386 -1.552201,1.54156 0,1.0277 -0.517402,1.54156 -1.552204,1.54156 -1.034803,0 -1.552205,-0.51386 -1.552205,-1.54156 0,-1.0277 0.517402,-1.54156 1.552205,-1.54156 1.034802,0 1.552204,-0.51386 1.552204,-1.54156 0,-1.37027 -0.517402,-1.54156 -4.656613,-1.54156 -4.139212,0 -4.656614,0.17129 -4.656614,1.54156 0,1.0277 -0.517402,1.54156 -1.552205,1.54156 -1.034802,0 -1.552204,-0.51386 -1.552204,-1.54156 0,-1.0277 -0.517402,-1.54156 -1.552205,-1.54156 -1.293504,0 -1.552204,0.51386 -1.552204,3.08312 0,2.56926 0.2587,3.08312 1.552204,3.08312 1.034803,0 1.552205,0.51385 1.552205,1.54156 0,1.0277 -0.517402,1.54156 -1.552205,1.54156 -1.034803,0 -1.552204,0.51385 -1.552204,1.54155 0,1.28464 0.517401,1.54156 3.104409,1.54156 2.587007,0 3.104409,0.25693 3.104409,1.54156 0,1.0277 -0.517402,1.54156 -1.552205,1.54156 -1.034802,0 -1.552204,0.51386 -1.552204,1.54156 0,1.37028 -0.517402,1.54156 -4.656614,1.54156 -4.1392123,0 -4.6566143,-0.17128 -4.6566143,-1.54156 0,-1.0277 0.517402,-1.54156 1.552205,-1.54156 1.448724,0 1.552205,-0.51386 1.552205,-7.70779 0,-7.19394 -0.103481,-7.7078 -1.552205,-7.7078 -1.293504,0 -1.552205,-0.51385 -1.552205,-3.08311 0,-2.56927 0.258701,-3.08312 1.552205,-3.08312 1.034803,0 1.552205,-0.51386 1.552205,-1.54156 0,-1.0277 -0.517402,-1.54156 -1.552205,-1.54156 -1.034803,0 -1.552205,-0.51386 -1.552205,-1.54156 0,-1.0277 0.517402,-1.54156 1.552205,-1.54156 1.293504,0 1.552205,-0.51385 1.552205,-3.08311 0,-2.56927 -0.258701,-3.08312 -1.552205,-3.08312 -1.293504,0 -1.552205,-0.51386 -1.552205,-3.08312 0,-2.569266 0.258701,-3.083116 1.552205,-3.083116 1.034803,0 1.552205,-0.51386 1.552205,-1.54156 0,-1.027704 -0.517402,-1.541559 -1.552205,-1.541559 -1.293504,0 -1.552205,-0.513856 -1.552205,-3.083118 0,-3.083117 0,-3.083117 3.10441,-3.083117 2.5870073,0 3.1044093,0.256924 3.1044093,1.541559 0,1.284634 0.517401,1.541558 3.104409,1.541558 2.587007,0 3.104409,-0.256924 3.104409,-1.541558 0,-1.027704 -0.517402,-1.541559 -1.552205,-1.541559 -1.034802,0 -1.552204,-0.513856 -1.552204,-1.541559 0,-1.284635 -0.517402,-1.541559 -3.104409,-1.541559 -3.1044093,0 -3.1044093,0 -3.1044093,-3.083117 0,-2.569262 -0.258701,-3.083118 -1.552205,-3.083118 -1.293504,0 -1.552205,-0.513853 -1.552205,-3.083117 0,-2.569265 0.258701,-3.083118 1.552205,-3.083118 1.034803,0 1.552205,0.513853 1.552205,1.541559 0,1.284632 0.517401,1.541559 3.1044093,1.541559 2.587007,0 3.104409,0.256926 3.104409,1.541558 0,1.027706 0.517402,1.541559 1.552204,1.541559 1.034803,0 1.552205,-0.513853 1.552205,-1.541559 0,-1.027705 0.517402,-1.541558 1.552204,-1.541558 1.034803,0 1.552205,0.513853 1.552205,1.541558 0,1.027706 0.517402,1.541559 1.552205,1.541559 1.034802,0 1.552204,-0.513853 1.552204,-1.541559 0,-1.027705 0.517402,-1.541558 1.552205,-1.541558 1.034802,0 1.552204,-0.513854 1.552204,-1.541559 0,-1.027706 -0.517402,-1.541559 -1.552204,-1.541559 -1.034803,0 -1.552205,-0.513853 -1.552205,-1.541559 0,-1.027705 0.517402,-1.541558 1.552205,-1.541558 1.034802,0 1.552204,-0.513854 1.552204,-1.541559 0,-1.284633 -0.517402,-1.541559 -3.104409,-1.541559 -3.104409,0 -3.104409,0 -3.104409,-3.083118 0,-2.569264 -0.2587,-3.083117 -1.552205,-3.083117 -1.379737,0 -1.552204,0.513853 -1.552204,4.624676 0,4.110823 0.172467,4.624677 1.552204,4.624677 1.034803,0 1.552205,0.513853 1.552205,1.541558 0,1.027706 -0.517402,1.541559 -1.552205,1.541559 -1.034802,0 -1.552204,-0.513853 -1.552204,-1.541559 0,-1.027705 -0.517402,-1.541558 -1.552205,-1.541558 -1.379737,0 -1.552204,-0.513854 -1.552204,-4.624677 0,-4.110823 -0.172467,-4.624676 -1.552205,-4.624676 -1.293504,0 -1.552204,-0.513853 -1.552204,-3.083118 0,-2.569264 0.2587,-3.083117 1.552204,-3.083117 1.293504,0 1.552205,0.513853 1.552205,3.083117 0,2.569265 0.2587,3.083118 1.552204,3.083118 1.379738,0 1.552205,-0.513853 1.552205,-4.624676 l 0,-4.624677 -3.104409,0 -3.104409,0 0,-6.166235 c 0,-5.652382 0.12935,-6.166235 1.552204,-6.166235 1.379738,0 1.552205,0.513853 1.552205,4.624676 l 0,4.624677 3.104409,0 c 2.587007,0 3.104409,-0.256926 3.104409,-1.541559 0,-1.027706 -0.517402,-1.541559 -1.552205,-1.541559 -1.293504,0 -1.552204,-0.513853 -1.552204,-3.083117 0,-2.569265 0.2587,-3.083118 1.552204,-3.083118 1.034803,0 1.552205,0.513853 1.552205,1.541559 0,1.027705 0.517402,1.541559 1.552205,1.541559 1.034802,0 1.552204,-0.513854 1.552204,-1.541559 0,-1.027706 0.517402,-1.541559 1.552205,-1.541559 1.034802,0 1.552204,0.513853 1.552204,1.541559 0,1.027705 -0.517402,1.541559 -1.552204,1.541559 -1.034803,0 -1.552205,0.513853 -1.552205,1.541558 0,1.027706 0.517402,1.541559 1.552205,1.541559 1.034802,0 1.552204,0.513853 1.552204,1.541559 0,1.027706 -0.517402,1.541559 -1.552204,1.541559 -1.034803,0 -1.552205,0.513853 -1.552205,1.541558 0,1.284633 0.517402,1.541559 3.104409,1.541559 2.587011,0 3.104411,0.256926 3.104411,1.541559 0,1.370275 0.5174,1.541559 4.65661,1.541559 4.13921,0 4.65662,0.171284 4.65662,1.541559 0,1.027705 0.5174,1.541558 1.5522,1.541558 1.2935,0 1.55221,-0.513853 1.55221,-3.083117 0,-2.569265 -0.25871,-3.083118 -1.55221,-3.083118 -1.0348,0 -1.5522,-0.513853 -1.5522,-1.541559 0,-1.027705 -0.51741,-1.541558 -1.55221,-1.541558 -1.0348,0 -1.5522,0.513853 -1.5522,1.541558 0,1.027706 -0.5174,1.541559 -1.55221,1.541559 -1.0348,0 -1.5522,-0.513853 -1.5522,-1.541559 0,-1.027705 -0.5174,-1.541558 -1.55221,-1.541558 -1.2935,0 -1.5522,-0.513853 -1.5522,-3.083118 0,-2.569264 0.2587,-3.083117 1.5522,-3.083117 1.03481,0 1.55221,-0.513854 1.55221,-1.541559 0,-1.284633 0.5174,-1.541559 3.10441,-1.541559 2.587,0 3.10441,0.256926 3.10441,1.541559 0,1.284632 -0.51741,1.541559 -3.10441,1.541559 -2.58701,0 -3.10441,0.256926 -3.10441,1.541558 0,1.370275 0.5174,1.541559 4.65661,1.541559 4.13921,0 4.65662,-0.171284 4.65662,-1.541559 0,-1.027705 0.5174,-1.541558 1.5522,-1.541558 1.0348,0 1.5522,-0.513854 1.5522,-1.541559 0,-1.027706 -0.5174,-1.541559 -1.5522,-1.541559 -1.2935,0 -1.5522,-0.513853 -1.5522,-3.083117 0,-2.569265 0.2587,-3.083118 1.5522,-3.083118 1.0348,0 1.5522,-0.513853 1.5522,-1.541559 0,-1.438788 -0.5174,-1.541559 -7.76102,-1.541559 -7.24362,0 -7.76102,-0.10277 -7.76102,-1.541558 0,-1.027706 0.5174,-1.541559 1.5522,-1.541559 1.29351,0 1.55221,-0.513853 1.55221,-3.083118 0,-2.569264 -0.2587,-3.083117 -1.55221,-3.083117 -1.0348,0 -1.5522,-0.513853 -1.5522,-1.541559 0,-1.027706 0.5174,-1.541559 1.5522,-1.541559 1.03481,0 1.55221,-0.513853 1.55221,-1.541558 0,-1.027706 0.5174,-1.541559 1.5522,-1.541559 1.03481,0 1.55221,0.513853 1.55221,1.541559 0,1.027705 0.5174,1.541558 1.5522,1.541558 1.0348,0 1.55221,-0.513853 1.55221,-1.541558 0,-1.027706 0.5174,-1.541559 1.5522,-1.541559 1.0348,0 1.55221,0.513853 1.55221,1.541559 0,1.027705 -0.51741,1.541558 -1.55221,1.541558 -1.0348,0 -1.5522,0.513853 -1.5522,1.541559 0,1.284633 0.5174,1.541559 3.10441,1.541559 3.1044,0 3.1044,0 3.1044,-3.083118 0,-2.569264 0.2587,-3.083117 1.55221,-3.083117 1.2935,0 1.5522,0.513853 1.5522,3.083117 0,2.569265 0.2587,3.083118 1.55221,3.083118 1.0348,0 1.5522,-0.513853 1.5522,-1.541559 0,-1.027706 0.5174,-1.541559 1.55221,-1.541559 1.0348,0 1.5522,-0.513853 1.5522,-1.541558 0,-1.284633 0.5174,-1.541559 3.10441,-1.541559 2.58701,0 3.10441,0.256926 3.10441,1.541559 0,1.027705 -0.5174,1.541558 -1.5522,1.541558 -1.03481,0 -1.55221,0.513853 -1.55221,1.541559 0,1.284633 0.5174,1.541559 3.10441,1.541559 2.58701,0 3.10441,0.256926 3.10441,1.541559 0,1.027705 0.5174,1.541558 1.5522,1.541558 1.37974,0 1.55221,-0.513853 1.55221,-4.624676 0,-4.110823 0.17247,-4.624676 1.5522,-4.624676 1.37974,0 1.55221,0.513853 1.55221,4.624676 0,4.110823 0.17246,4.624676 1.5522,4.624676 1.29351,0 1.55221,-0.513853 1.55221,-3.083117 0,-3.083118 0,-3.083118 3.10441,-3.083118 2.587,0 3.1044,-0.256926 3.1044,-1.541558 0,-1.284633 0.51741,-1.541559 3.10441,-1.541559 3.10441,0 3.10441,0 3.10441,3.083117 0,3.083118 0,3.083118 3.10441,3.083118 2.58701,0 3.10441,-0.256926 3.10441,-1.541559 0,-1.027706 0.5174,-1.541559 1.55221,-1.541559 1.0348,0 1.5522,-0.513853 1.5522,-1.541558 0,-1.284633 0.5174,-1.541559 3.10441,-1.541559 2.586997,0 3.104407,0.256926 3.104407,1.541559 0,1.027705 0.5174,1.541558 1.5522,1.541558 1.37974,0 1.55221,0.513853 1.55221,4.624677 l 0,4.624676 -3.10441,0 c -2.587007,0 -3.104407,0.256926 -3.104407,1.541559 0,1.027705 -0.51741,1.541558 -1.55221,1.541558 -1.2935,0 -1.5522,0.513854 -1.5522,3.083118 0,2.569264 0.2587,3.083118 1.5522,3.083118 1.0348,0 1.55221,-0.513854 1.55221,-1.541559 0,-1.027706 0.5174,-1.541559 1.552197,-1.541559 1.0348,0 1.55221,0.513853 1.55221,1.541559 0,1.027705 0.5174,1.541559 1.5522,1.541559 1.0348,0 1.55221,-0.513854 1.55221,-1.541559 0,-1.027706 0.5174,-1.541559 1.5522,-1.541559 1.0348,0 1.55221,0.513853 1.55221,1.541559 0,1.027705 0.5174,1.541559 1.5522,1.541559 1.0348,0 1.55221,-0.513854 1.55221,-1.541559 0,-1.027706 0.5174,-1.541559 1.5522,-1.541559 1.29351,0 1.5522,-0.513853 1.5522,-3.083118 0,-2.569264 -0.25869,-3.083117 -1.5522,-3.083117 -1.0348,0 -1.5522,0.513853 -1.5522,1.541559 0,1.027705 -0.51741,1.541558 -1.55221,1.541558 -1.29351,0 -1.5522,-0.513853 -1.5522,-3.083117 0,-2.569264 0.25869,-3.083118 1.5522,-3.083118 1.0348,0 1.55221,-0.513853 1.55221,-1.541558 0,-1.027706 -0.51741,-1.541559 -1.55221,-1.541559 -1.29351,0 -1.5522,-0.513853 -1.5522,-3.083118 0,-3.083117 0,-3.083117 3.10441,-3.083117 2.587,0 3.1044,0.256926 3.1044,1.541559 0,1.027705 -0.5174,1.541558 -1.5522,1.541558 -1.0348,0 -1.5522,0.513853 -1.5522,1.541559 0,1.284633 0.5174,1.541559 3.1044,1.541559 2.58701,0 3.10441,-0.256926 3.10441,-1.541559 0,-1.027706 0.51741,-1.541559 1.55221,-1.541559 1.0348,0 1.5522,-0.513853 1.5522,-1.541558 0,-1.027706 0.51741,-1.541559 1.55221,-1.541559 1.0348,0 1.5522,0.513853 1.5522,1.541559 0,1.284632 0.51741,1.541558 3.10441,1.541558 2.58701,0 3.10441,-0.256926 3.10441,-1.541558 0,-1.027706 0.5174,-1.541559 1.5522,-1.541559 1.37974,0 1.55221,0.513853 1.55221,4.624676 0,4.110823 -0.17247,4.624676 -1.55221,4.624676 -1.0348,0 -1.5522,0.513854 -1.5522,1.541559 0,1.027706 -0.5174,1.541559 -1.5522,1.541559 -1.29351,0 -1.55221,-0.513853 -1.55221,-3.083118 l 0,-3.083117 -4.65661,0 -4.65662,0 0,4.624676 0,4.624676 4.65662,0 4.65661,0 0,3.083118 c 0,2.569264 0.2587,3.083118 1.55221,3.083118 1.0348,0 1.5522,-0.513854 1.5522,-1.541559 0,-1.027706 0.5174,-1.541559 1.5522,-1.541559 1.03481,0 1.55221,0.513853 1.55221,1.541559 0,1.027705 -0.5174,1.541559 -1.55221,1.541559 -1.0348,0 -1.5522,0.513853 -1.5522,1.541558 0,1.370275 -0.5174,1.541559 -4.65661,1.541559 -4.13921,0 -4.65662,0.171284 -4.65662,1.541559 0,1.027705 -0.5174,1.541559 -1.5522,1.541559 -1.37974,0 -1.55221,-0.513854 -1.55221,-4.624677 0,-4.110823 -0.17246,-4.624676 -1.5522,-4.624676 -1.29351,0 -1.55221,0.513853 -1.55221,3.083118 0,3.083117 0,3.083117 -3.1044,3.083117 -2.58701,0 -3.10441,-0.256926 -3.10441,-1.541559 0,-1.027705 -0.51741,-1.541558 -1.55221,-1.541558 -1.0348,0 -1.5522,0.513853 -1.5522,1.541558 0,1.027706 -0.51741,1.541559 -1.55221,1.541559 -1.37974,0 -1.5522,0.513853 -1.5522,4.624676 0,4.110824 0.17246,4.624677 1.5522,4.624677 1.0348,0 1.55221,-0.513853 1.55221,-1.541559 0,-1.284633 0.5174,-1.541559 3.10441,-1.541559 2.587,0 3.10441,-0.256926 3.10441,-1.541559 0,-1.027705 0.5174,-1.541558 1.5522,-1.541558 1.0348,0 1.5522,0.513853 1.5522,1.541558 0,1.413096 0.51741,1.541559 6.20882,1.541559 5.69142,0 6.20882,-0.128463 6.20882,-1.541559 0,-1.027705 0.51741,-1.541558 1.55221,-1.541558 1.0348,0 1.5522,0.513853 1.5522,1.541558 0,1.027706 -0.5174,1.541559 -1.5522,1.541559 -1.29351,0 -1.55221,0.513853 -1.55221,3.083118 l 0,3.083117 -6.20882,0 c -5.69141,0 -6.20882,-0.128463 -6.20882,-1.541559 0,-1.370274 -0.5174,-1.541558 -4.65661,-1.541558 -4.13921,0 -4.65661,0.171284 -4.65661,1.541558 0,1.027706 -0.51741,1.541559 -1.55221,1.541559 -1.0348,0 -1.5522,0.513853 -1.5522,1.541559 0,1.027706 -0.51741,1.541559 -1.55221,1.541559 -1.293497,0 -1.552197,0.513853 -1.552197,3.083117 0,3.083118 0,3.083118 -3.10441,3.083118 -2.58701,0 -3.10441,-0.256926 -3.10441,-1.541559 0,-1.027705 -0.5174,-1.541559 -1.5522,-1.541559 -1.0348,0 -1.55221,-0.513853 -1.55221,-1.541558 0,-1.027706 -0.5174,-1.541559 -1.5522,-1.541559 -1.0348,0 -1.55221,0.513853 -1.55221,1.541559 0,1.370274 -0.5174,1.541558 -4.65661,1.541558 -4.13921,0 -4.65661,0.171284 -4.65661,1.541559 0,1.027706 -0.51741,1.541559 -1.55221,1.541559 -1.0348,0 -1.5522,0.513853 -1.5522,1.541559 0,1.284632 0.5174,1.541558 3.10441,1.541558 2.587,0 3.1044,0.256927 3.1044,1.541559 0,1.027706 -0.5174,1.541559 -1.5522,1.541559 -1.0348,0 -1.5522,0.513853 -1.5522,1.541559 0,1.027705 -0.51741,1.541559 -1.55221,1.541559 -1.0348,0 -1.5522,0.513853 -1.5522,1.541558 0,1.027706 0.5174,1.541559 1.5522,1.541559 1.0348,0 1.55221,0.513853 1.55221,1.541559 0,1.027705 0.5174,1.541559 1.5522,1.541559 1.29351,0 1.5522,0.513853 1.5522,3.083117 0,2.569262 0.2587,3.083118 1.55221,3.083118 1.37974,0 1.5522,-0.513856 1.5522,-4.624677 0,-4.110823 -0.17246,-4.624676 -1.5522,-4.624676 -1.0348,0 -1.55221,-0.513853 -1.55221,-1.541559 0,-1.370274 0.51741,-1.541558 4.65662,-1.541558 4.13921,0 4.65661,0.171284 4.65661,1.541558 0,1.027706 0.51741,1.541559 1.55221,1.541559 1.0348,0 1.5522,-0.513853 1.5522,-1.541559 0,-1.027705 0.5174,-1.541558 1.55221,-1.541558 1.0348,0 1.5522,-0.513854 1.5522,-1.541559 0,-1.027706 -0.5174,-1.541559 -1.5522,-1.541559 -1.03481,0 -1.55221,-0.513853 -1.55221,-1.541559 0,-1.027705 0.5174,-1.541559 1.55221,-1.541559 1.0348,0 1.5522,0.513854 1.5522,1.541559 0,1.027706 0.5174,1.541559 1.5522,1.541559 1.0348,0 1.55221,-0.513853 1.55221,-1.541559 0,-1.370274 0.5174,-1.541559 4.656607,-1.541559 4.13921,0 4.65662,0.171285 4.65662,1.541559 0,1.027706 0.5174,1.541559 1.5522,1.541559 1.0348,0 1.55221,-0.513853 1.55221,-1.541559 0,-1.027705 0.5174,-1.541559 1.5522,-1.541559 1.0348,0 1.5522,-0.513853 1.5522,-1.541558 0,-1.027706 0.51741,-1.541559 1.55221,-1.541559 1.0348,0 1.5522,-0.513853 1.5522,-1.541559 0,-1.027705 -0.5174,-1.541559 -1.5522,-1.541559 -1.0348,0 -1.55221,-0.513853 -1.55221,-1.541558 0,-1.027706 0.51741,-1.541559 1.55221,-1.541559 1.0348,0 1.5522,0.513853 1.5522,1.541559 0,1.370274 0.51741,1.541558 4.65662,1.541558 4.13921,0 4.65661,-0.171284 4.65661,-1.541558 0,-1.027706 0.51741,-1.541559 1.55221,-1.541559 1.2935,0 1.5522,-0.513853 1.5522,-3.083118 l 0,-3.083117 4.65661,0 c 4.13921,0 4.65662,0.171284 4.65662,1.541558 0,1.027706 0.5174,1.541559 1.5522,1.541559 1.0348,0 1.55221,0.513853 1.55221,1.541559 0,1.027706 -0.51741,1.541559 -1.55221,1.541559 -1.0348,0 -1.5522,-0.513853 -1.5522,-1.541559 0,-1.284633 -0.51741,-1.541559 -3.10441,-1.541559 -2.58701,0 -3.10441,0.256926 -3.10441,1.541559 0,1.027706 -0.5174,1.541559 -1.55221,1.541559 -1.0348,0 -1.5522,0.513853 -1.5522,1.541559 0,1.027705 -0.5174,1.541558 -1.5522,1.541558 -1.0348,0 -1.55221,0.513854 -1.55221,1.541559 0,1.284633 0.51741,1.541559 3.10441,1.541559 2.58701,0 3.10441,-0.256926 3.10441,-1.541559 0,-1.370275 0.5174,-1.541559 4.65661,-1.541559 4.13921,0 4.65662,0.171284 4.65662,1.541559 0,1.284633 -0.51741,1.541559 -3.10441,1.541559 -2.58701,0 -3.10441,0.256926 -3.10441,1.541559 0,1.284632 0.5174,1.541558 3.10441,1.541558 2.587,0 3.10441,0.256927 3.10441,1.541559 0,1.027706 -0.51741,1.541559 -1.55221,1.541559 -1.0348,0 -1.5522,0.513853 -1.5522,1.541559 0,1.027705 0.5174,1.541559 1.5522,1.541559 1.0348,0 1.55221,0.513853 1.55221,1.541558 0,1.027706 0.5174,1.541559 1.5522,1.541559 1.0348,0 1.55221,-0.513853 1.55221,-1.541559 0,-1.284632 0.5174,-1.541558 3.10441,-1.541558 2.587,0 3.1044,-0.256927 3.1044,-1.541559 0,-1.027706 0.51741,-1.541559 1.55221,-1.541559 1.0348,0 1.5522,-0.513853 1.5522,-1.541559 0,-1.027705 -0.5174,-1.541559 -1.5522,-1.541559 -1.0348,0 -1.55221,-0.513853 -1.55221,-1.541558 0,-1.284633 -0.5174,-1.541559 -3.1044,-1.541559 l -3.10441,0 0,-4.624676 c 0,-4.110824 0.17246,-4.624677 1.5522,-4.624677 1.0348,0 1.55221,-0.513853 1.55221,-1.541559 0,-1.027705 -0.51741,-1.541558 -1.55221,-1.541558 -1.0348,0 -1.5522,-0.513853 -1.5522,-1.541559 0,-1.370275 0.5174,-1.541559 4.65661,-1.541559 4.13921,0 4.65661,0.171284 4.65661,1.541559 0,1.027706 -0.5174,1.541559 -1.5522,1.541559 -1.29351,0 -1.55221,0.513853 -1.55221,3.083117 0,2.569265 0.2587,3.083118 1.55221,3.083118 1.0348,0 1.5522,-0.513853 1.5522,-1.541559 0,-1.027706 0.51741,-1.541559 1.55221,-1.541559 1.0348,0 1.5522,0.513853 1.5522,1.541559 0,1.027706 -0.5174,1.541559 -1.5522,1.541559 -1.0348,0 -1.55221,0.513853 -1.55221,1.541559 0,1.027705 0.51741,1.541558 1.55221,1.541558 1.48753,0 1.5522,0.513854 1.5522,12.332471 0,11.818614 -0.0647,12.33247 -1.5522,12.33247 -1.37974,0 -1.55221,-0.513856 -1.55221,-4.624677 l 0,-4.624676 -4.65661,0 -4.65661,0 0,3.083118 c 0,2.569264 0.25869,3.083117 1.5522,3.083117 1.0348,0 1.55221,-0.513853 1.55221,-1.541559 0,-1.027705 0.5174,-1.541558 1.5522,-1.541558 1.0348,0 1.5522,0.513853 1.5522,1.541558 0,1.027706 -0.5174,1.541559 -1.5522,1.541559 -1.0348,0 -1.5522,0.513856 -1.5522,1.541559 0,1.027703 0.5174,1.541559 1.5522,1.541559 1.0348,0 1.5522,0.513855 1.5522,1.541558 0,1.027704 0.51741,1.541559 1.55221,1.541559 1.0348,0 1.5522,0.513856 1.5522,1.541559 0,1.027703 0.51741,1.541559 1.55221,1.541559 1.0348,0 1.5522,0.513855 1.5522,1.541559 0,1.027703 -0.5174,1.541558 -1.5522,1.541558 -1.0348,0 -1.55221,0.513856 -1.55221,1.541559 0,1.027703 -0.5174,1.541559 -1.5522,1.541559 -1.37974,0 -1.55221,0.513855 -1.55221,4.624679 0,4.110816 0.17247,4.624676 1.55221,4.624676 1.0348,0 1.5522,-0.51386 1.5522,-1.54156 0,-1.02771 0.51741,-1.54156 1.55221,-1.54156 1.0348,0 1.5522,0.51385 1.5522,1.54156 0,1.0277 -0.5174,1.54156 -1.5522,1.54156 -1.0348,0 -1.55221,0.51385 -1.55221,1.54156 0,1.0277 0.51741,1.54156 1.55221,1.54156 1.0348,0 1.5522,0.51385 1.5522,1.54155 0,1.28464 -0.5174,1.54156 -3.10441,1.54156 -2.587,0 -3.10441,-0.25692 -3.10441,-1.54156 0,-1.0277 -0.5174,-1.54155 -1.5522,-1.54155 -1.29351,0 -1.5522,-0.51386 -1.5522,-3.08312 0,-3.08312 0,-3.08312 -3.10441,-3.08312 -2.58701,0 -3.10441,-0.25693 -3.10441,-1.541556 0,-1.02771 -0.51741,-1.54156 -1.55221,-1.54156 -1.0348,0 -1.5522,0.51385 -1.5522,1.54156 0,1.027698 -0.51741,1.541556 -1.55221,1.541556 -1.0348,0 -1.5522,0.51385 -1.5522,1.54156 0,1.0277 -0.51741,1.54156 -1.55221,1.54156 -1.0348,0 -1.5522,-0.51386 -1.5522,-1.54156 0,-1.02771 -0.5174,-1.54156 -1.55221,-1.54156 -1.2935,0 -1.5522,-0.513858 -1.5522,-3.083116 0,-2.569264 -0.2587,-3.083119 -1.5522,-3.083119 -1.0348,0 -1.55221,0.513855 -1.55221,1.541559 0,1.0277 -0.5174,1.54156 -1.5522,1.54156 -1.0348,0 -1.55221,-0.51386 -1.55221,-1.54156 0,-1.027704 0.51741,-1.541559 1.55221,-1.541559 1.0348,0 1.5522,-0.513856 1.5522,-1.541559 0,-1.027703 -0.5174,-1.541559 -1.5522,-1.541559 -1.0348,0 -1.55221,-0.513855 -1.55221,-1.541558 0,-1.027704 0.51741,-1.541559 1.55221,-1.541559 1.0348,0 1.5522,-0.513856 1.5522,-1.541559 0,-1.027703 -0.5174,-1.541559 -1.5522,-1.541559 -1.0348,0 -1.55221,-0.513855 -1.55221,-1.541559 0,-1.370276 -0.5174,-1.541558 -4.65661,-1.541558 -4.13921,0 -4.65662,0.171282 -4.65662,1.541558 0,1.027704 0.51741,1.541559 1.55221,1.541559 1.0348,0 1.5522,0.513856 1.5522,1.541559 0,1.027703 0.51741,1.541559 1.55221,1.541559 1.0348,0 1.5522,0.513855 1.5522,1.541559 0,1.027703 -0.5174,1.541558 -1.5522,1.541558 -1.29351,0 -1.55221,0.513856 -1.55221,3.083118 0,2.569259 -0.25869,3.083119 -1.5522,3.083119 -1.0348,0 -1.55221,0.51385 -1.55221,1.54156 0,1.027698 0.51741,1.541556 1.55221,1.541556 1.0348,0 1.5522,0.51385 1.5522,1.54156 0,1.0277 0.51741,1.54156 1.55221,1.54156 1.0348,0 1.5522,0.51385 1.5522,1.54156 0,1.28463 -0.5174,1.54156 -3.10441,1.54156 -2.587,0 -3.10441,-0.25693 -3.10441,-1.54156 0,-1.02771 -0.5174,-1.54156 -1.5522,-1.54156 -1.29351,0 -1.5522,0.51385 -1.5522,3.08312 0,3.08311 0,3.08311 3.1044,3.08311 2.58701,0 3.10441,0.25693 3.10441,1.54156 0,1.0277 0.51741,1.54156 1.55221,1.54156 1.0348,0 1.5522,-0.51386 1.5522,-1.54156 0,-1.0277 0.51741,-1.54156 1.55221,-1.54156 1.0348,0 1.5522,-0.51385 1.5522,-1.54156 0,-1.0277 0.51741,-1.54155 1.55221,-1.54155 1.0348,0 1.5522,-0.51386 1.5522,-1.54156 0,-1.02771 -0.5174,-1.54156 -1.5522,-1.54156 -1.0348,0 -1.55221,-0.51386 -1.55221,-1.54156 0,-1.02771 0.51741,-1.54156 1.55221,-1.54156 1.0348,0 1.5522,0.51385 1.5522,1.54156 0,1.0277 0.51741,1.54156 1.55221,1.54156 1.0348,0 1.5522,0.51385 1.5522,1.54156 0,1.0277 -0.5174,1.54156 -1.5522,1.54156 -1.0348,0 -1.55221,0.51385 -1.55221,1.54155 0,1.02771 -0.5174,1.54156 -1.5522,1.54156 -1.0348,0 -1.55221,0.51386 -1.55221,1.54156 0,1.0277 -0.5174,1.54156 -1.5522,1.54156 -1.29351,0 -1.55221,0.51386 -1.55221,3.08312 0,2.56926 0.2587,3.08312 1.55221,3.08312 1.0348,0 1.5522,0.51385 1.5522,1.54155 0,1.28464 0.51741,1.54156 3.10441,1.54156 2.58701,0 3.10441,-0.25692 3.10441,-1.54156 0,-1.0277 -0.5174,-1.54155 -1.5522,-1.54155 -1.29351,0 -1.55221,-0.51386 -1.55221,-3.08312 l 0,-3.08312 4.65661,0 c 4.13921,0 4.65662,-0.17128 4.65662,-1.54156 0,-1.0277 -0.51741,-1.54156 -1.55221,-1.54156 -1.0348,0 -1.5522,-0.51385 -1.5522,-1.54156 0,-1.41309 0.5174,-1.54155 6.20882,-1.54155 5.69141,0 6.20882,0.12846 6.20882,1.54155 0,1.28464 -0.51741,1.54156 -3.10441,1.54156 -2.58701,0 -3.10441,0.25693 -3.10441,1.54156 0,1.0277 0.5174,1.54156 1.5522,1.54156 1.0348,0 1.55221,0.51386 1.55221,1.54156 0,1.0277 0.5174,1.54156 1.5522,1.54156 1.0348,0 1.55221,-0.51386 1.55221,-1.54156 0,-1.0277 0.5174,-1.54156 1.5522,-1.54156 1.0348,0 1.55221,0.51386 1.55221,1.54156 0,1.0277 -0.51741,1.54156 -1.55221,1.54156 -1.0348,0 -1.5522,0.51385 -1.5522,1.54156 0,1.0277 0.5174,1.54156 1.5522,1.54156 1.0348,0 1.55221,0.51385 1.55221,1.54155 0,1.28464 -0.51741,1.54156 -3.10441,1.54156 -3.10441,0 -3.10441,0 -3.10441,3.08312 0,3.08312 0,3.08312 3.10441,3.08312 2.587,0 3.10441,-0.25693 3.10441,-1.54156 0,-1.28464 0.5174,-1.54156 3.1044,-1.54156 2.58701,0 3.10441,-0.25692 3.10441,-1.54156 0,-1.0277 -0.5174,-1.54156 -1.5522,-1.54156 -1.0348,0 -1.55221,-0.51385 -1.55221,-1.54156 0,-1.0277 0.51741,-1.54155 1.55221,-1.54155 1.0348,0 1.5522,-0.51386 1.5522,-1.54156 0,-1.02771 0.51741,-1.54156 1.55221,-1.54156 1.37974,0 1.5522,0.51385 1.5522,4.62467 0,4.11082 -0.17246,4.62468 -1.5522,4.62468 -1.0348,0 -1.55221,0.51386 -1.55221,1.54156 0,1.28463 -0.5174,1.54156 -3.10441,1.54156 -2.587,0 -3.1044,0.25692 -3.1044,1.54156 0,1.28463 0.5174,1.54156 3.1044,1.54156 2.58701,0 3.10441,0.25692 3.10441,1.54155 0,1.02771 0.51741,1.54156 1.55221,1.54156 1.2935,0 1.5522,0.51386 1.5522,3.08312 0,2.56926 -0.2587,3.08312 -1.5522,3.08312 -1.0348,0 -1.55221,-0.51386 -1.55221,-1.54156 0,-1.0277 -0.5174,-1.54156 -1.5522,-1.54156 -1.0348,0 -1.55221,0.51386 -1.55221,1.54156 0,1.28463 -0.5174,1.54156 -3.1044,1.54156 -2.58701,0 -3.10441,0.25692 -3.10441,1.54156 0,1.37027 0.5174,1.54156 4.65661,1.54156 4.13921,0 4.65661,0.17128 4.65661,1.54155 0,1.02771 0.51741,1.54156 1.55221,1.54156 1.0348,0 1.5522,0.51386 1.5522,1.54156 0,1.28464 -0.5174,1.54156 -3.10441,1.54156 -2.587,0 -3.10441,0.25692 -3.10441,1.54156 0,1.0277 0.51741,1.54156 1.55221,1.54156 1.0348,0 1.5522,0.51385 1.5522,1.54156 0,1.0277 -0.5174,1.54156 -1.5522,1.54156 -1.0348,0 -1.55221,0.51385 -1.55221,1.54155 0,1.02771 0.51741,1.54156 1.55221,1.54156 1.0348,0 1.5522,0.51386 1.5522,1.54156 0,1.02771 0.51741,1.54156 1.55221,1.54156 1.0348,0 1.5522,0.51386 1.5522,1.54156 0,1.28463 -0.5174,1.54156 -3.10441,1.54156 -3.10441,0 -3.10441,0 -3.10441,-3.08312 0,-2.56926 -0.25869,-3.08312 -1.5522,-3.08312 -1.0348,0 -1.5522,-0.51385 -1.5522,-1.54156 0,-1.0277 0.5174,-1.54155 1.5522,-1.54155 1.0348,0 1.5522,-0.51386 1.5522,-1.54156 0,-1.37028 -0.5174,-1.54156 -4.65661,-1.54156 -4.13921,0 -4.65661,0.17128 -4.65661,1.54156 0,1.0277 0.5174,1.54156 1.5522,1.54156 1.0348,0 1.55221,0.51385 1.55221,1.54155 0,1.28464 -0.51741,1.54156 -3.10441,1.54156 -3.10441,0 -3.10441,0 -3.10441,3.08312 l 0,3.08312 -4.65662,0 -4.65661,0 0,-3.08312 c 0,-3.08312 0,-3.08312 -3.10441,-3.08312 -2.587,0 -3.10441,-0.25692 -3.10441,-1.54156 0,-1.0277 0.51741,-1.54155 1.55221,-1.54155 1.0348,0 1.5522,-0.51386 1.5522,-1.54156 0,-1.28464 -0.5174,-1.54156 -3.10441,-1.54156 -2.587,0 -3.10441,0.25692 -3.10441,1.54156 0,1.0277 -0.5174,1.54156 -1.5522,1.54156 -1.29351,0 -1.55221,0.51385 -1.55221,3.08311 l 0,3.08312 4.65662,0 c 4.13921,0 4.65661,0.17128 4.65661,1.54156 0,1.37028 -0.5174,1.54156 -4.65661,1.54156 -4.13921,0 -4.65662,-0.17128 -4.65662,-1.54156 0,-1.0277 -0.5174,-1.54156 -1.5522,-1.54156 -1.37974,0 -1.55221,-0.51385 -1.55221,-4.62468 0,-4.11082 0.17247,-4.62467 1.55221,-4.62467 1.29351,0 1.5522,-0.51386 1.5522,-3.08312 0,-3.08312 0,-3.08312 -3.10441,-3.08312 -2.587,0 -3.1044,0.25693 -3.1044,1.54156 0,1.28464 -0.51741,1.54156 -3.10441,1.54156 -3.10441,0 -3.10441,0 -3.10441,-3.08312 0,-2.56926 -0.2587,-3.08311 -1.55221,-3.08311 -1.0348,0 -1.5522,0.51385 -1.5522,1.54155 0,1.28464 -0.51741,1.54156 -3.104407,1.54156 -2.58701,0 -3.10441,0.25693 -3.10441,1.54156 0,1.28464 0.5174,1.54156 3.10441,1.54156 2.586997,0 3.104407,0.25692 3.104407,1.54156 0,1.0277 0.5174,1.54156 1.5522,1.54156 1.0348,0 1.55221,0.51385 1.55221,1.54156 0,1.0277 0.5174,1.54156 1.5522,1.54156 1.0348,0 1.55221,-0.51386 1.55221,-1.54156 0,-1.02771 0.5174,-1.54156 1.5522,-1.54156 1.29351,0 1.55221,0.51385 1.55221,3.08312 0,3.08311 0,3.08311 -3.10441,3.08311 -2.58701,0 -3.10441,0.25693 -3.10441,1.54156 0,1.02771 0.5174,1.54156 1.5522,1.54156 1.0348,0 1.55221,0.51386 1.55221,1.54156 0,1.43879 -0.51741,1.54156 -7.76103,1.54156 -7.243617,0 -7.761017,-0.10277 -7.761017,-1.54156 0,-1.0277 0.5174,-1.54156 1.55221,-1.54156 1.0348,0 1.5522,-0.51385 1.5522,-1.54156 0,-1.0277 -0.5174,-1.54156 -1.5522,-1.54156 -1.03481,0 -1.55221,-0.51385 -1.55221,-1.54156 0,-1.28463 -0.5174,-1.54155 -3.10441,-1.54155 -2.587,0 -3.10441,-0.25693 -3.10441,-1.54156 0,-1.37028 -0.5174,-1.54156 -4.65661,-1.54156 l -4.65661,0 0,3.08312 c 0,2.56926 0.25869,3.08311 1.5522,3.08311 1.0348,0 1.5522,0.51386 1.5522,1.54156 0,1.02771 0.51741,1.54156 1.55221,1.54156 1.0348,0 1.5522,0.51386 1.5522,1.54156 0,1.0277 -0.5174,1.54156 -1.5522,1.54156 -1.0348,0 -1.55221,-0.51386 -1.55221,-1.54156 0,-1.0277 -0.5174,-1.54156 -1.5522,-1.54156 -1.0348,0 -1.5522,0.51386 -1.5522,1.54156 0,1.28463 -0.51741,1.54156 -3.10441,1.54156 -3.10441,0 -3.10441,0 -3.10441,-3.08312 0,-2.56926 -0.2587,-3.08312 -1.55221,-3.08312 -1.2935,0 -1.5522,0.51386 -1.5522,3.08312 0,2.56926 -0.2587,3.08312 -1.55221,3.08312 -1.2935,0 -1.5522,-0.51386 -1.5522,-3.08312 0,-2.56926 -0.2587,-3.08312 -1.55221,-3.08312 -1.0348,0 -1.5522,0.51386 -1.5522,1.54156 0,1.28464 -0.5174,1.54156 -3.10441,1.54156 -2.58701,0 -3.10441,0.25692 -3.10441,1.54156 0,1.0277 -0.5174,1.54156 -1.5522,1.54156 -1.03481,0 -1.55221,-0.51386 -1.55221,-1.54156 0,-1.0277 -0.5174,-1.54156 -1.5522,-1.54156 -1.0348,0 -1.55221,0.51386 -1.55221,1.54156 0,1.28463 -0.5174,1.54156 -3.10441,1.54156 -3.1044,0 -3.1044,0 -3.1044,-3.08312 z m 12.41763,-1.54156 c 0,-1.0277 0.5174,-1.54156 1.55221,-1.54156 1.0348,0 1.5522,-0.51385 1.5522,-1.54156 0,-1.0277 -0.5174,-1.54155 -1.5522,-1.54155 -1.03481,0 -1.55221,-0.51386 -1.55221,-1.54156 0,-1.02771 0.5174,-1.54156 1.55221,-1.54156 1.0348,0 1.5522,-0.51386 1.5522,-1.54156 0,-1.0277 -0.5174,-1.54156 -1.5522,-1.54156 -1.03481,0 -1.55221,-0.51385 -1.55221,-1.54156 0,-1.0277 0.5174,-1.54156 1.55221,-1.54156 1.0348,0 1.5522,-0.51385 1.5522,-1.54156 0,-1.0277 0.5174,-1.54155 1.55221,-1.54155 1.0348,0 1.5522,-0.51386 1.5522,-1.54156 0,-1.02771 0.5174,-1.54156 1.5522,-1.54156 1.03481,0 1.55221,0.51385 1.55221,1.54156 0,1.0277 0.5174,1.54156 1.5522,1.54156 1.03481,0 1.55221,-0.51386 1.55221,-1.54156 0,-1.02771 -0.5174,-1.54156 -1.55221,-1.54156 -1.0348,0 -1.5522,-0.51386 -1.5522,-1.54156 0,-1.0277 0.5174,-1.54156 1.5522,-1.54156 1.03481,0 1.55221,-0.51386 1.55221,-1.54156 0,-1.28463 -0.5174,-1.54156 -3.10441,-1.54156 -2.58701,0 -3.10441,-0.25692 -3.10441,-1.54156 0,-1.28463 0.5174,-1.54155 3.10441,-1.54155 2.58701,0 3.10441,-0.25693 3.10441,-1.54156 0,-1.02771 -0.5174,-1.54156 -1.55221,-1.54156 -1.2935,0 -1.5522,-0.51386 -1.5522,-3.08312 0,-2.56926 0.2587,-3.08312 1.5522,-3.08312 1.03481,0 1.55221,0.51386 1.55221,1.54156 0,1.0277 0.5174,1.54156 1.5522,1.54156 1.29351,0 1.55221,0.51386 1.55221,3.08312 0,3.08312 0,3.08312 3.10441,3.08312 2.587,0 3.10441,-0.25693 3.10441,-1.54156 0,-1.02771 0.5174,-1.54156 1.5522,-1.54156 1.37974,0 1.5522,-0.51386 1.5522,-4.62468 l 0,-4.62467 3.10441,0 c 2.58701,0 3.10441,0.25692 3.10441,1.54155 0,1.02771 -0.5174,1.54156 -1.5522,1.54156 -1.29351,0 -1.55221,0.51386 -1.55221,3.08312 0,2.56926 0.2587,3.08312 1.55221,3.08312 1.0348,0 1.5522,-0.51386 1.5522,-1.54156 0,-1.0277 0.51741,-1.54156 1.55221,-1.54156 1.37974,0 1.5522,0.51386 1.5522,4.62468 0,4.11082 -0.17246,4.62467 -1.5522,4.62467 -1.0348,0 -1.55221,0.51386 -1.55221,1.54156 0,1.0277 0.51741,1.54156 1.55221,1.54156 1.0348,0 1.5522,0.51386 1.5522,1.54156 0,1.0277 0.51741,1.54156 1.55221,1.54156 1.0348,0 1.5522,0.51385 1.5522,1.54156 0,1.0277 -0.5174,1.54156 -1.5522,1.54156 -1.37974,0 -1.55221,0.51385 -1.55221,4.62467 0,4.11082 0.17247,4.62468 1.55221,4.62468 1.0348,0 1.5522,0.51385 1.5522,1.54156 0,1.0277 0.5174,1.54156 1.55221,1.54156 1.2935,0 1.5522,-0.51386 1.5522,-3.08312 0,-2.56926 -0.2587,-3.08312 -1.5522,-3.08312 -1.29351,0 -1.55221,-0.51385 -1.55221,-3.08312 0,-3.08311 0,-3.08311 3.10441,-3.08311 2.587,0 3.10441,-0.25693 3.10441,-1.54156 0,-1.28464 0.5174,-1.54156 3.104407,-1.54156 2.587,0 3.10441,0.25692 3.10441,1.54156 0,1.28463 0.5174,1.54156 3.10441,1.54156 l 3.10441,0 0,-4.62468 c 0,-4.11082 -0.17247,-4.62468 -1.55221,-4.62468 -1.0348,0 -1.5522,0.51386 -1.5522,1.54156 0,1.0277 -0.51741,1.54156 -1.55221,1.54156 -1.0348,0 -1.5522,-0.51386 -1.5522,-1.54156 0,-1.28463 -0.51741,-1.54156 -3.10441,-1.54156 -2.587007,0 -3.104407,0.25693 -3.104407,1.54156 0,1.28464 -0.51741,1.54156 -3.10441,1.54156 -2.58701,0 -3.10441,-0.25692 -3.10441,-1.54156 0,-1.0277 0.5174,-1.54156 1.55221,-1.54156 1.0348,0 1.5522,-0.51385 1.5522,-1.54156 0,-1.0277 0.5174,-1.54155 1.5522,-1.54155 1.0348,0 1.55221,-0.51386 1.55221,-1.54156 0,-1.02771 0.5174,-1.54156 1.552197,-1.54156 1.0348,0 1.55221,0.51385 1.55221,1.54156 0,1.37027 0.5174,1.54156 4.65661,1.54156 4.13921,0 4.65662,-0.17129 4.65662,-1.54156 0,-1.28464 0.5174,-1.54156 3.1044,-1.54156 l 3.10441,0 0,4.62467 c 0,4.11082 0.17247,4.62468 1.55221,4.62468 1.0348,0 1.5522,-0.51386 1.5522,-1.54156 0,-1.0277 0.51741,-1.54156 1.55221,-1.54156 1.0348,0 1.5522,-0.51385 1.5522,-1.54156 0,-1.0277 0.51741,-1.54155 1.55221,-1.54155 1.0348,0 1.5522,0.51385 1.5522,1.54155 0,1.02771 0.51741,1.54156 1.55221,1.54156 1.0348,0 1.5522,-0.51385 1.5522,-1.54156 0,-1.0277 0.5174,-1.54155 1.5522,-1.54155 1.37974,0 1.55221,-0.51386 1.55221,-4.62468 0,-4.11082 -0.17247,-4.62468 -1.55221,-4.62468 -1.37973,0 -1.5522,0.51386 -1.5522,4.62468 0,4.11082 -0.17247,4.62468 -1.5522,4.62468 -1.29351,0 -1.55221,-0.51386 -1.55221,-3.08312 0,-3.08312 0,-3.08312 -3.10441,-3.08312 -2.587,0 -3.10441,0.25692 -3.10441,1.54156 0,1.0277 -0.5174,1.54156 -1.5522,1.54156 -1.29351,0 -1.55221,-0.51386 -1.55221,-3.08312 0,-2.56926 0.2587,-3.08312 1.55221,-3.08312 1.0348,0 1.5522,-0.51385 1.5522,-1.54156 0,-1.28463 -0.5174,-1.54155 -3.10441,-1.54155 -3.10441,0 -3.10441,0 -3.10441,-3.08312 0,-3.08312 0,-3.08312 -3.1044,-3.08312 -3.10441,0 -3.10441,0 -3.10441,-3.08312 0,-2.56926 -0.2587,-3.08311 -1.55221,-3.08311 -1.0348,0 -1.5522,-0.51386 -1.5522,-1.54156 0,-1.02771 0.5174,-1.54156 1.5522,-1.54156 1.29351,0 1.55221,-0.51386 1.55221,-3.08312 0,-2.569266 -0.2587,-3.083116 -1.55221,-3.083116 -1.0348,0 -1.5522,-0.51386 -1.5522,-1.54156 0,-1.027704 0.5174,-1.541559 1.5522,-1.541559 1.0348,0 1.55221,-0.513856 1.55221,-1.541559 0,-1.027703 0.5174,-1.541559 1.5522,-1.541559 1.0348,0 1.55221,-0.513855 1.55221,-1.541558 0,-1.027704 0.5174,-1.541559 1.5522,-1.541559 1.0348,0 1.5522,-0.513856 1.5522,-1.541559 0,-1.027703 -0.5174,-1.541559 -1.5522,-1.541559 -1.0348,0 -1.5522,-0.513855 -1.5522,-1.541559 0,-1.027703 -0.51741,-1.541558 -1.55221,-1.541558 -1.0348,0 -1.5522,-0.513856 -1.5522,-1.541559 0,-1.027703 -0.51741,-1.541559 -1.55221,-1.541559 -1.37974,0 -1.5522,-0.513853 -1.5522,-4.624676 0,-4.110823 0.17246,-4.624676 1.5522,-4.624676 1.0348,0 1.55221,-0.513854 1.55221,-1.541559 0,-1.370275 -0.51741,-1.541559 -4.65662,-1.541559 -4.139207,0 -4.656607,0.171284 -4.656607,1.541559 0,1.027705 -0.51741,1.541559 -1.55221,1.541559 -1.0348,0 -1.5522,0.513853 -1.5522,1.541558 0,1.027706 -0.5174,1.541559 -1.5522,1.541559 -1.03481,0 -1.55221,0.513853 -1.55221,1.541559 0,1.027705 -0.5174,1.541559 -1.5522,1.541559 -1.0348,0 -1.55221,-0.513854 -1.55221,-1.541559 0,-1.027706 -0.5174,-1.541559 -1.5522,-1.541559 -1.0348,0 -1.55221,0.513853 -1.55221,1.541559 0,1.027705 0.51741,1.541559 1.55221,1.541559 1.0348,0 1.5522,0.513853 1.5522,1.541558 0,1.027706 -0.5174,1.541559 -1.5522,1.541559 -1.0348,0 -1.55221,0.513856 -1.55221,1.541559 0,1.027703 0.51741,1.541559 1.55221,1.541559 1.2935,0 1.5522,0.513855 1.5522,3.083117 0,2.569262 0.2587,3.083118 1.55221,3.083118 1.0348,0 1.5522,0.513855 1.5522,1.541559 0,1.027703 -0.5174,1.541558 -1.5522,1.541558 -1.0348,0 -1.55221,0.513856 -1.55221,1.541559 0,1.284635 0.51741,1.541559 3.10441,1.541559 2.58701,0 3.10441,0.256924 3.10441,1.541559 0,1.43879 -0.5174,1.54156 -7.76102,1.54156 -7.24362,0 -7.76103,0.10277 -7.76103,1.54156 0,1.027698 0.51741,1.541556 1.55221,1.541556 1.0348,0 1.5522,0.51385 1.5522,1.54156 0,1.0277 -0.5174,1.54156 -1.5522,1.54156 -1.0348,0 -1.55221,0.51385 -1.55221,1.54156 0,1.28463 0.51741,1.54156 3.10441,1.54156 2.58701,0 3.10441,0.25692 3.10441,1.54155 0,1.28464 -0.5174,1.54156 -3.10441,1.54156 l -3.10441,0 0,4.62468 c 0,4.11082 -0.17246,4.62468 -1.5522,4.62468 -1.29351,0 -1.5522,-0.51386 -1.5522,-3.08312 0,-2.56926 -0.2587,-3.08312 -1.55221,-3.08312 -1.0348,0 -1.5522,-0.51386 -1.5522,-1.54156 0,-1.0277 0.5174,-1.54156 1.5522,-1.54156 1.37974,0 1.55221,-0.51385 1.55221,-4.62467 l 0,-4.62468 -3.10441,0 c -2.58701,0 -3.10441,-0.25693 -3.10441,-1.541556 0,-1.02771 0.5174,-1.54156 1.5522,-1.54156 1.29351,0 1.55221,-0.51386 1.55221,-3.083119 0,-2.569262 -0.2587,-3.083118 -1.55221,-3.083118 -1.2935,0 -1.5522,-0.513855 -1.5522,-3.083117 0,-2.569262 0.2587,-3.083118 1.5522,-3.083118 1.0348,0 1.55221,-0.513855 1.55221,-1.541559 0,-1.027703 0.5174,-1.541558 1.5522,-1.541558 1.0348,0 1.55221,-0.513856 1.55221,-1.541559 0,-1.027703 -0.51741,-1.541559 -1.55221,-1.541559 -1.0348,0 -1.5522,0.513856 -1.5522,1.541559 0,1.027703 -0.51741,1.541559 -1.55221,1.541559 -1.0348,0 -1.5522,0.513855 -1.5522,1.541558 0,1.027704 -0.5174,1.541559 -1.55221,1.541559 -1.2935,0 -1.5522,0.513856 -1.5522,3.083118 0,2.569262 0.2587,3.083117 1.5522,3.083117 1.29351,0 1.55221,0.513856 1.55221,3.083118 0,2.569259 -0.2587,3.083119 -1.55221,3.083119 -1.0348,0 -1.5522,-0.51386 -1.5522,-1.54156 0,-1.027704 -0.5174,-1.541559 -1.55221,-1.541559 -1.0348,0 -1.5522,0.513855 -1.5522,1.541559 0,1.0277 0.5174,1.54156 1.5522,1.54156 1.03481,0 1.55221,0.51385 1.55221,1.54156 0,1.027698 0.5174,1.541556 1.5522,1.541556 1.03481,0 1.55221,0.51385 1.55221,1.54156 0,1.0277 0.5174,1.54156 1.5522,1.54156 1.29351,0 1.55221,0.51385 1.55221,3.08312 0,2.56926 -0.2587,3.08311 -1.55221,3.08311 -1.0348,0 -1.5522,0.51386 -1.5522,1.54156 0,1.0277 -0.5174,1.54156 -1.55221,1.54156 -1.2935,0 -1.5522,0.51386 -1.5522,3.08312 0,3.08312 0,3.08312 -3.10441,3.08312 -2.58701,0 -3.10441,-0.25693 -3.10441,-1.54156 0,-1.02771 0.5174,-1.54156 1.5522,-1.54156 1.03481,0 1.55221,-0.51386 1.55221,-1.54156 0,-1.28464 -0.5174,-1.54156 -3.10441,-1.54156 -2.58701,0 -3.10441,-0.25692 -3.10441,-1.54156 0,-1.0277 -0.5174,-1.54156 -1.5522,-1.54156 -1.37974,0 -1.55221,0.51386 -1.55221,4.62468 0,4.11082 -0.17247,4.62468 -1.5522,4.62468 -1.03481,0 -1.55221,0.51385 -1.55221,1.54155 0,1.02771 -0.5174,1.54156 -1.5522,1.54156 -1.29351,0 -1.55221,-0.51385 -1.55221,-3.08311 0,-2.56927 0.2587,-3.08312 1.55221,-3.08312 1.0348,0 1.5522,-0.51386 1.5522,-1.54156 0,-1.28464 -0.5174,-1.54156 -3.10441,-1.54156 l -3.10441,0 0,4.62468 c 0,4.11082 -0.17246,4.62467 -1.5522,4.62467 -1.0348,0 -1.5522,0.51386 -1.5522,1.54156 0,1.0277 -0.51741,1.54156 -1.55221,1.54156 -1.0348,0 -1.5522,0.51386 -1.5522,1.54156 0,1.0277 -0.51741,1.54156 -1.55221,1.54156 -1.2935,0 -1.5522,0.51385 -1.5522,3.08312 0,2.56926 -0.2587,3.08311 -1.55221,3.08311 -1.2935,0 -1.5522,0.51386 -1.5522,3.08312 0,2.56926 0.2587,3.08312 1.5522,3.08312 1.03481,0 1.55221,0.51385 1.55221,1.54156 0,1.28463 0.5174,1.54156 3.10441,1.54156 2.587,0 3.10441,0.25692 3.10441,1.54155 0,1.02771 0.5174,1.54156 1.5522,1.54156 1.2935,0 1.5522,0.51386 1.5522,3.08312 0,2.56926 0.2587,3.08312 1.55221,3.08312 1.0348,0 1.5522,0.51385 1.5522,1.54156 0,1.28463 0.51741,1.54156 3.10441,1.54156 2.58701,0 3.10441,0.25692 3.10441,1.54155 0,1.02771 -0.5174,1.54156 -1.5522,1.54156 -1.03481,0 -1.55221,0.51386 -1.55221,1.54156 0,1.02771 0.5174,1.54156 1.55221,1.54156 1.0348,0 1.5522,-0.51385 1.5522,-1.54156 z m -6.20882,-12.33247 c 0,-1.0277 -0.5174,-1.54156 -1.5522,-1.54156 -1.0348,0 -1.55221,-0.51385 -1.55221,-1.54156 0,-1.0277 0.51741,-1.54155 1.55221,-1.54155 1.0348,0 1.5522,-0.51386 1.5522,-1.54156 0,-1.02771 0.51741,-1.54156 1.55221,-1.54156 1.2935,0 1.5522,-0.51386 1.5522,-3.08312 0,-2.56926 -0.2587,-3.08312 -1.5522,-3.08312 -1.0348,0 -1.55221,0.51386 -1.55221,1.54156 0,1.0277 -0.5174,1.54156 -1.5522,1.54156 -1.0348,0 -1.55221,0.51386 -1.55221,1.54156 0,1.0277 -0.5174,1.54156 -1.5522,1.54156 -1.2935,0 -1.5522,-0.51386 -1.5522,-3.08312 0,-2.56926 -0.25871,-3.08312 -1.55221,-3.08312 -1.0348,0 -1.5522,-0.51385 -1.5522,-1.54156 0,-1.37027 0.5174,-1.54155 4.65661,-1.54155 4.13921,0 4.65661,-0.17129 4.65661,-1.54156 0,-1.28464 -0.5174,-1.54156 -3.10441,-1.54156 -2.587,0 -3.1044,-0.25693 -3.1044,-1.54156 0,-1.28464 0.5174,-1.54156 3.1044,-1.54156 2.58701,0 3.10441,0.25692 3.10441,1.54156 0,1.0277 0.51741,1.54156 1.55221,1.54156 1.0348,0 1.5522,-0.51386 1.5522,-1.54156 0,-1.28464 0.5174,-1.54156 3.10441,-1.54156 2.58701,0 3.10441,-0.25692 3.10441,-1.54156 0,-1.0277 -0.5174,-1.54156 -1.5522,-1.54156 -1.03481,0 -1.55221,-0.51385 -1.55221,-1.54156 0,-1.0277 0.5174,-1.54155 1.55221,-1.54155 1.0348,0 1.5522,0.51385 1.5522,1.54155 0,1.02771 0.5174,1.54156 1.55221,1.54156 1.2935,0 1.5522,0.51386 1.5522,3.08312 0,2.56926 -0.2587,3.08312 -1.5522,3.08312 -1.03481,0 -1.55221,0.51385 -1.55221,1.54156 0,1.0277 -0.5174,1.54156 -1.5522,1.54156 -1.29351,0 -1.55221,0.51385 -1.55221,3.08311 0,2.56926 0.2587,3.08312 1.55221,3.08312 1.0348,0 1.5522,-0.51386 1.5522,-1.54156 0,-1.0277 0.5174,-1.54156 1.55221,-1.54156 1.0348,0 1.5522,0.51386 1.5522,1.54156 0,1.0277 -0.5174,1.54156 -1.5522,1.54156 -1.29351,0 -1.55221,0.51386 -1.55221,3.08312 0,2.56926 -0.2587,3.08312 -1.5522,3.08312 -1.03481,0 -1.55221,-0.51386 -1.55221,-1.54156 0,-1.02771 -0.5174,-1.54156 -1.5522,-1.54156 -1.03481,0 -1.55221,0.51385 -1.55221,1.54156 0,1.0277 -0.5174,1.54156 -1.5522,1.54156 -1.0348,0 -1.55221,0.51385 -1.55221,1.54155 0,1.02771 0.51741,1.54156 1.55221,1.54156 1.0348,0 1.5522,0.51386 1.5522,1.54156 0,1.02771 -0.5174,1.54156 -1.5522,1.54156 -1.0348,0 -1.55221,-0.51385 -1.55221,-1.54156 z m 6.20882,-18.4987 c 0,-1.02771 -0.5174,-1.54156 -1.5522,-1.54156 -1.03481,0 -1.55221,0.51385 -1.55221,1.54156 0,1.0277 0.5174,1.54156 1.55221,1.54156 1.0348,0 1.5522,-0.51386 1.5522,-1.54156 z m -18.62645,9.24935 c 0,-1.0277 0.5174,-1.54156 1.5522,-1.54156 1.0348,0 1.55221,0.51386 1.55221,1.54156 0,1.0277 -0.51741,1.54156 -1.55221,1.54156 -1.0348,0 -1.5522,-0.51386 -1.5522,-1.54156 z m 37.25291,-12.33247 c 0,-1.0277 -0.51741,-1.54156 -1.55221,-1.54156 -1.0348,0 -1.5522,-0.51386 -1.5522,-1.54156 0,-1.0277 -0.5174,-1.54156 -1.55221,-1.54156 -1.0348,0 -1.5522,-0.51385 -1.5522,-1.54156 0,-1.0277 0.5174,-1.54155 1.5522,-1.54155 1.03481,0 1.55221,0.51385 1.55221,1.54155 0,1.02771 0.5174,1.54156 1.5522,1.54156 1.0348,0 1.55221,0.51386 1.55221,1.54156 0,1.0277 0.5174,1.54156 1.5522,1.54156 1.0348,0 1.55221,0.51386 1.55221,1.54156 0,1.0277 -0.51741,1.54156 -1.55221,1.54156 -1.0348,0 -1.5522,-0.51386 -1.5522,-1.54156 z m 18.62645,-1.54156 c 0,-2.56926 -0.2587,-3.08312 -1.5522,-3.08312 -1.44873,0 -1.55221,-0.51385 -1.55221,-7.70779 0,-7.19394 -0.10348,-7.70779 -1.5522,-7.70779 -1.0348,0 -1.55221,-0.51386 -1.55221,-1.54156 0,-1.02771 0.51741,-1.54156 1.55221,-1.54156 1.0348,0 1.5522,-0.51386 1.5522,-1.54156 0,-1.02771 0.51741,-1.54156 1.55221,-1.54156 1.0348,0 1.5522,0.51385 1.5522,1.54156 0,1.28463 0.5174,1.54156 3.10441,1.54156 2.587,0 3.10441,-0.25693 3.10441,-1.54156 0,-1.28464 0.5174,-1.54156 3.104407,-1.54156 2.587,0 3.10441,0.25692 3.10441,1.54156 0,1.28463 -0.51741,1.54156 -3.10441,1.54156 -3.104407,0 -3.104407,0 -3.104407,3.08312 0,3.08311 0,3.08311 3.104407,3.08311 2.587,0 3.10441,0.25693 3.10441,1.54156 0,1.0277 0.5174,1.54156 1.5522,1.54156 1.29351,0 1.55221,0.51386 1.55221,3.08312 0,3.08312 0,3.08312 3.10441,3.08312 2.587,0 3.1044,0.25692 3.1044,1.54155 0,1.02771 -0.5174,1.54156 -1.5522,1.54156 -1.29351,0 -1.5522,0.51386 -1.5522,3.08312 0,3.08312 0,3.08312 -3.10441,3.08312 l -3.10441,0 0,-6.16624 c 0,-5.65238 -0.12936,-6.16623 -1.55221,-6.16623 -1.37974,0 -1.5522,0.51385 -1.5522,4.62467 l 0,4.62468 -3.104407,0 c -2.58701,0 -3.10441,0.25692 -3.10441,1.54156 0,1.0277 -0.5174,1.54156 -1.5522,1.54156 -1.29351,0 -1.55221,-0.51386 -1.55221,-3.08312 z m 6.20882,-6.16623 c 0,-2.56927 0.2587,-3.08312 1.552197,-3.08312 1.0348,0 1.55221,-0.51386 1.55221,-1.54156 0,-1.0277 -0.51741,-1.54156 -1.55221,-1.54156 -1.034797,0 -1.552197,-0.51386 -1.552197,-1.54156 0,-1.0277 -0.51741,-1.54156 -1.55221,-1.54156 -1.0348,0 -1.5522,-0.51385 -1.5522,-1.54156 0,-1.0277 -0.5174,-1.54155 -1.5522,-1.54155 -1.37974,0 -1.55221,0.51385 -1.55221,4.62467 0,4.11082 0.17247,4.62468 1.55221,4.62468 1.0348,0 1.5522,0.51385 1.5522,1.54156 0,1.0277 -0.5174,1.54156 -1.5522,1.54156 -1.03481,0 -1.55221,0.51385 -1.55221,1.54155 0,1.28464 0.5174,1.54156 3.10441,1.54156 3.10441,0 3.10441,0 3.10441,-3.08311 z m -27.93968,-4.62468 c 0,-1.0277 0.5174,-1.54156 1.5522,-1.54156 1.0348,0 1.55221,0.51386 1.55221,1.54156 0,1.0277 -0.51741,1.54156 -1.55221,1.54156 -1.0348,0 -1.5522,-0.51386 -1.5522,-1.54156 z m 12.41763,0 c 0,-1.0277 0.51741,-1.54156 1.55221,-1.54156 1.0348,0 1.5522,0.51386 1.5522,1.54156 0,1.0277 -0.5174,1.54156 -1.5522,1.54156 -1.0348,0 -1.55221,-0.51386 -1.55221,-1.54156 z m 15.52205,-18.498706 c 0,-1.027704 -0.51741,-1.541559 -1.55221,-1.541559 -1.44872,0 -1.5522,-0.513856 -1.5522,-7.707794 0,-7.193938 -0.10348,-7.707794 -1.5522,-7.707794 -1.03481,0 -1.55221,-0.513853 -1.55221,-1.541559 0,-1.027705 0.5174,-1.541558 1.55221,-1.541558 1.0348,0 1.5522,-0.513854 1.5522,-1.541559 0,-1.027706 0.5174,-1.541559 1.5522,-1.541559 1.0348,0 1.55221,-0.513853 1.55221,-1.541559 0,-1.027705 0.5174,-1.541558 1.552197,-1.541558 1.0348,0 1.55221,0.513853 1.55221,1.541558 0,1.027706 -0.51741,1.541559 -1.55221,1.541559 -1.034797,0 -1.552197,0.513853 -1.552197,1.541559 0,1.027705 0.5174,1.541559 1.552197,1.541559 1.0348,0 1.55221,0.513853 1.55221,1.541558 0,1.027706 0.5174,1.541559 1.5522,1.541559 1.0348,0 1.55221,0.513856 1.55221,1.541559 0,1.027703 0.5174,1.541559 1.5522,1.541559 1.0348,0 1.55221,0.513855 1.55221,1.541558 0,1.027704 0.5174,1.541559 1.5522,1.541559 1.0348,0 1.55221,0.513856 1.55221,1.541559 0,1.027703 -0.51741,1.541559 -1.55221,1.541559 -1.0348,0 -1.5522,-0.513856 -1.5522,-1.541559 0,-1.027703 -0.51741,-1.541559 -1.55221,-1.541559 -1.0348,0 -1.5522,-0.513855 -1.5522,-1.541559 0,-1.284634 -0.51741,-1.541558 -3.10441,-1.541558 -3.104407,0 -3.104407,0 -3.104407,3.083117 0,3.083118 0,3.083118 3.104407,3.083118 3.10441,0 3.10441,0 3.10441,3.083117 0,2.569262 -0.2587,3.083118 -1.55221,3.083118 -1.0348,0 -1.5522,0.513855 -1.5522,1.541559 0,1.0277 -0.51741,1.54156 -1.55221,1.54156 -1.034797,0 -1.552197,-0.51386 -1.552197,-1.54156 z m 0,-18.498706 c 0,-1.027705 -0.51741,-1.541558 -1.55221,-1.541558 -1.0348,0 -1.5522,0.513853 -1.5522,1.541558 0,1.027706 0.5174,1.541559 1.5522,1.541559 1.0348,0 1.55221,-0.513853 1.55221,-1.541559 z m -21.73086,83.244172 c 0,-1.0277 -0.51741,-1.54156 -1.55221,-1.54156 -1.0348,0 -1.5522,0.51386 -1.5522,1.54156 0,1.02771 0.5174,1.54156 1.5522,1.54156 1.0348,0 1.55221,-0.51385 1.55221,-1.54156 z m 24.835267,0 c 0,-1.0277 0.5174,-1.54156 1.5522,-1.54156 1.0348,0 1.55221,-0.51385 1.55221,-1.54156 0,-1.0277 -0.51741,-1.54155 -1.55221,-1.54155 -1.0348,0 -1.5522,-0.51386 -1.5522,-1.54156 0,-1.02771 -0.51741,-1.54156 -1.55221,-1.54156 -1.379737,0 -1.552197,0.51385 -1.552197,4.62467 0,4.11083 0.17246,4.62468 1.552197,4.62468 1.0348,0 1.55221,-0.51385 1.55221,-1.54156 z m 34.1485,-1.54156 c 0,-2.56926 -0.2587,-3.08311 -1.55221,-3.08311 -1.2935,0 -1.5522,0.51385 -1.5522,3.08311 0,2.56927 0.2587,3.08312 1.5522,3.08312 1.29351,0 1.55221,-0.51385 1.55221,-3.08312 z m -71.401407,-6.16623 c 0,-3.08312 0,-3.08312 3.10441,-3.08312 2.58701,0 3.10441,0.25692 3.10441,1.54156 0,1.0277 -0.5174,1.54156 -1.55221,1.54156 -1.0348,0 -1.5522,0.51385 -1.5522,1.54156 0,1.28463 0.5174,1.54156 3.10441,1.54156 l 3.10441,0 0,-6.16624 c 0,-5.65238 -0.12936,-6.16623 -1.55221,-6.16623 -1.0348,0 -1.5522,0.51385 -1.5522,1.54155 0,1.37028 -0.5174,1.54156 -4.65662,1.54156 l -4.65661,0 0,4.62468 c 0,4.11082 0.17247,4.62468 1.5522,4.62468 1.29351,0 1.55221,-0.51386 1.55221,-3.08312 z m 65.192587,-1.54156 c 0,-1.0277 -0.5174,-1.54156 -1.5522,-1.54156 -1.0348,0 -1.55221,-0.51385 -1.55221,-1.54156 0,-1.28463 -0.5174,-1.54156 -3.10441,-1.54156 -2.587,0 -3.10441,0.25693 -3.10441,1.54156 0,1.28464 0.51741,1.54156 3.10441,1.54156 2.58701,0 3.10441,0.25692 3.10441,1.54156 0,1.0277 0.51741,1.54156 1.55221,1.54156 1.0348,0 1.5522,-0.51386 1.5522,-1.54156 z m -43.461727,-6.16624 0,-4.62467 -4.65661,0 -4.65661,0 0,4.62467 0,4.62468 4.65661,0 4.65661,0 0,-4.62468 z m -6.20882,0 c 0,-1.0277 0.51741,-1.54155 1.55221,-1.54155 1.0348,0 1.5522,0.51385 1.5522,1.54155 0,1.02771 -0.5174,1.54156 -1.5522,1.54156 -1.0348,0 -1.55221,-0.51385 -1.55221,-1.54156 z m 62.088187,0 0,-4.62467 -4.65662,0 -4.65661,0 0,4.62467 0,4.62468 4.65661,0 4.65662,0 0,-4.62468 z m -6.20882,0 c 0,-1.0277 0.5174,-1.54155 1.5522,-1.54155 1.0348,0 1.55221,0.51385 1.55221,1.54155 0,1.02771 -0.51741,1.54156 -1.55221,1.54156 -1.0348,0 -1.5522,-0.51385 -1.5522,-1.54156 z m 12.41764,3.08312 c 0,-1.0277 -0.51741,-1.54156 -1.55221,-1.54156 -1.0348,0 -1.5522,0.51386 -1.5522,1.54156 0,1.02771 0.5174,1.54156 1.5522,1.54156 1.0348,0 1.55221,-0.51385 1.55221,-1.54156 z m -18.62646,-7.70779 c 0,-2.56926 -0.2587,-3.08312 -1.5522,-3.08312 -1.0348,0 -1.55221,0.51386 -1.55221,1.54156 0,1.37028 -0.5174,1.54156 -4.65661,1.54156 -4.13921,0 -4.65662,0.17128 -4.65662,1.54156 0,1.41309 0.51741,1.54156 6.20882,1.54156 l 6.20882,0 0,-3.08312 z m -55.879357,-1.54156 c 0,-1.0277 -0.51741,-1.54156 -1.55221,-1.54156 -1.0348,0 -1.5522,0.51386 -1.5522,1.54156 0,1.0277 0.5174,1.54156 1.5522,1.54156 1.0348,0 1.55221,-0.51386 1.55221,-1.54156 z m 9.31322,-3.08312 c 0,-1.0277 -0.5174,-1.54156 -1.5522,-1.54156 -1.0348,0 -1.55221,0.51386 -1.55221,1.54156 0,1.0277 0.51741,1.54156 1.55221,1.54156 1.0348,0 1.5522,-0.51386 1.5522,-1.54156 z m 55.879367,0 c 0,-1.0277 0.5174,-1.54156 1.5522,-1.54156 1.0348,0 1.55221,0.51386 1.55221,1.54156 0,1.28464 0.5174,1.54156 3.10441,1.54156 3.10441,0 3.10441,0 3.10441,-3.08312 0,-2.56926 -0.2587,-3.08311 -1.55221,-3.08311 -1.0348,0 -1.5522,0.51385 -1.5522,1.54155 0,1.02771 -0.51741,1.54156 -1.55221,1.54156 -1.0348,0 -1.5522,-0.51385 -1.5522,-1.54156 0,-1.0277 -0.51741,-1.54155 -1.55221,-1.54155 -1.0348,0 -1.5522,-0.51386 -1.5522,-1.54156 0,-1.02771 -0.51741,-1.54156 -1.55221,-1.54156 -1.2935,0 -1.5522,0.51385 -1.5522,3.08312 0,2.56926 -0.2587,3.08311 -1.55221,3.08311 -1.0348,0 -1.5522,0.51386 -1.5522,1.54156 0,1.28464 0.5174,1.54156 3.10441,1.54156 2.587,0 3.10441,-0.25692 3.10441,-1.54156 z m 0,-12.33247 c 0,-1.0277 0.5174,-1.54156 1.5522,-1.54156 1.0348,0 1.55221,-0.51385 1.55221,-1.54156 0,-1.0277 -0.51741,-1.54155 -1.55221,-1.54155 -1.0348,0 -1.5522,0.51385 -1.5522,1.54155 0,1.02771 -0.51741,1.54156 -1.55221,1.54156 -1.0348,0 -1.5522,0.51386 -1.5522,1.54156 0,1.0277 0.5174,1.54156 1.5522,1.54156 1.0348,0 1.55221,-0.51386 1.55221,-1.54156 z M 18.074305,117.29673 c 0,-1.02771 0.517402,-1.54156 1.552204,-1.54156 1.034803,0 1.552205,0.51385 1.552205,1.54156 0,1.28463 0.517402,1.54156 3.104409,1.54156 2.587007,0 3.104409,-0.25693 3.104409,-1.54156 0,-1.28464 -0.517402,-1.54156 -3.104409,-1.54156 -2.587007,0 -3.104409,-0.25693 -3.104409,-1.54156 0,-1.37028 0.517402,-1.54156 4.656614,-1.54156 4.139215,0 4.656615,-0.17128 4.656615,-1.54156 0,-1.37027 -0.5174,-1.54156 -4.656615,-1.54156 -4.139212,0 -4.656614,0.17129 -4.656614,1.54156 0,1.0277 -0.517402,1.54156 -1.552205,1.54156 -1.034802,0 -1.552204,0.51386 -1.552204,1.54156 0,1.0277 -0.517402,1.54156 -1.552205,1.54156 -1.034802,0 -1.552204,0.51385 -1.552204,1.54156 0,1.0277 0.517402,1.54156 1.552204,1.54156 1.034803,0 1.552205,-0.51386 1.552205,-1.54156 z m 114.863135,0 c 0,-1.02771 -0.5174,-1.54156 -1.55221,-1.54156 -1.0348,0 -1.5522,0.51385 -1.5522,1.54156 0,1.0277 0.5174,1.54156 1.5522,1.54156 1.03481,0 1.55221,-0.51386 1.55221,-1.54156 z M 14.969896,108.04737 c 0,-4.11082 -0.172467,-4.62467 -1.552205,-4.62467 -1.034803,0 -1.552204,-0.51386 -1.552204,-1.54156 0,-1.02771 -0.517402,-1.54156 -1.552205,-1.54156 -1.0348033,0 -1.5522043,0.51385 -1.5522043,1.54156 0,1.0277 0.517401,1.54156 1.5522043,1.54156 1.293504,0 1.552205,0.51385 1.552205,3.08312 0,2.56926 -0.258701,3.08311 -1.552205,3.08311 -1.0348033,0 -1.5522043,0.51386 -1.5522043,1.54156 0,1.28464 0.517401,1.54156 3.1044093,1.54156 l 3.104409,0 0,-4.62468 z m 18.626457,-3.08311 c 0,-1.28464 0.5174,-1.54156 3.10441,-1.54156 2.587,0 3.10441,-0.25693 3.10441,-1.54156 0,-1.02771 0.5174,-1.54156 1.5522,-1.54156 1.0348,0 1.55221,-0.513858 1.55221,-1.541556 0,-1.02771 -0.51741,-1.54156 -1.55221,-1.54156 -1.0348,0 -1.5522,0.51385 -1.5522,1.54156 0,1.027698 -0.51741,1.541556 -1.55221,1.541556 -1.2935,0 -1.5522,-0.513858 -1.5522,-3.083116 0,-2.569264 -0.2587,-3.083119 -1.55221,-3.083119 -1.2935,0 -1.5522,0.513855 -1.5522,3.083119 0,2.569258 -0.2587,3.083116 -1.55221,3.083116 -1.0348,0 -1.5522,0.51385 -1.5522,1.54156 0,1.28463 -0.5174,1.54156 -3.104411,1.54156 -2.587007,0 -3.104409,-0.25693 -3.104409,-1.54156 0,-1.02771 0.517402,-1.54156 1.552205,-1.54156 1.034802,0 1.552204,-0.513858 1.552204,-1.541556 0,-1.02771 -0.517402,-1.54156 -1.552204,-1.54156 -1.034803,0 -1.552205,0.51385 -1.552205,1.54156 0,1.027698 -0.517402,1.541556 -1.552204,1.541556 -1.034803,0 -1.552205,-0.513858 -1.552205,-1.541556 0,-1.28464 -0.517402,-1.54156 -3.104409,-1.54156 -2.587007,0 -3.104409,0.25692 -3.104409,1.54156 0,1.027698 0.517402,1.541556 1.552204,1.541556 1.034803,0 1.552205,0.51385 1.552205,1.54156 0,1.0277 0.517402,1.54156 1.552204,1.54156 1.034803,0 1.552205,0.51385 1.552205,1.54156 0,1.41309 0.517402,1.54156 6.208818,1.54156 5.691421,0 6.208821,-0.12847 6.208821,-1.54156 z M 136.04185,98.798024 c 0,-1.02771 -0.51741,-1.54156 -1.55221,-1.54156 -1.0348,0 -1.5522,0.51385 -1.5522,1.54156 0,1.027698 0.5174,1.541556 1.5522,1.541556 1.0348,0 1.55221,-0.513858 1.55221,-1.541556 z m -80.714637,-3.08312 c 0,-1.027704 0.5174,-1.541559 1.55221,-1.541559 1.0348,0 1.5522,-0.513856 1.5522,-1.541559 0,-1.284635 -0.5174,-1.541559 -3.10441,-1.541559 -2.58701,0 -3.10441,-0.256924 -3.10441,-1.541558 0,-1.284635 0.5174,-1.541559 3.10441,-1.541559 2.58701,0 3.10441,-0.256924 3.10441,-1.541559 0,-1.027703 0.5174,-1.541559 1.55221,-1.541559 1.2935,0 1.5522,0.513856 1.5522,3.083118 0,2.569262 0.2587,3.083117 1.5522,3.083117 1.29351,0 1.55221,-0.513855 1.55221,-3.083117 0,-2.569262 -0.2587,-3.083118 -1.55221,-3.083118 -1.0348,0 -1.5522,-0.513855 -1.5522,-1.541559 0,-1.027703 0.5174,-1.541558 1.5522,-1.541558 1.03481,0 1.55221,-0.513856 1.55221,-1.541559 0,-1.027703 0.5174,-1.541559 1.5522,-1.541559 1.03481,0 1.55221,-0.513853 1.55221,-1.541559 0,-1.027705 -0.5174,-1.541558 -1.55221,-1.541558 -1.0348,0 -1.5522,0.513853 -1.5522,1.541558 0,1.284633 -0.5174,1.541559 -3.10441,1.541559 -2.58701,0 -3.10441,0.256924 -3.10441,1.541559 0,1.027703 -0.5174,1.541559 -1.5522,1.541559 -1.29351,0 -1.55221,-0.513856 -1.55221,-3.083118 0,-2.569264 0.2587,-3.083117 1.55221,-3.083117 1.0348,0 1.5522,-0.513854 1.5522,-1.541559 0,-1.027706 0.5174,-1.541559 1.55221,-1.541559 1.0348,0 1.5522,-0.513853 1.5522,-1.541559 0,-1.027705 0.5174,-1.541558 1.5522,-1.541558 1.03481,0 1.55221,0.513853 1.55221,1.541558 0,1.284633 0.5174,1.541559 3.10441,1.541559 2.58701,0 3.10441,0.256926 3.10441,1.541559 0,1.027705 0.5174,1.541559 1.5522,1.541559 1.0348,0 1.55221,-0.513854 1.55221,-1.541559 0,-1.027706 -0.51741,-1.541559 -1.55221,-1.541559 -1.42285,0 -1.5522,-0.513853 -1.5522,-6.166235 0,-5.652382 -0.12935,-6.166235 -1.55221,-6.166235 -1.0348,0 -1.5522,0.513853 -1.5522,1.541559 0,1.027705 -0.5174,1.541558 -1.55221,1.541558 -1.0348,0 -1.5522,0.513854 -1.5522,1.541559 0,1.370275 -0.5174,1.541559 -4.65661,1.541559 -4.13922,0 -4.65662,0.171284 -4.65662,1.541559 0,1.027705 0.5174,1.541559 1.55221,1.541559 1.0348,0 1.5522,0.513853 1.5522,1.541558 0,1.027706 -0.5174,1.541559 -1.5522,1.541559 -1.03481,0 -1.55221,0.513853 -1.55221,1.541559 0,1.027705 -0.5174,1.541559 -1.5522,1.541559 -1.29351,0 -1.55221,0.513853 -1.55221,3.083117 0,2.569262 0.2587,3.083118 1.55221,3.083118 1.0348,0 1.5522,0.513855 1.5522,1.541558 0,1.284635 -0.5174,1.541559 -3.10441,1.541559 -3.10441,0 -3.10441,0 -3.10441,-3.083117 0,-2.569262 -0.2587,-3.083118 -1.5522,-3.083118 -1.29351,0 -1.55221,-0.513853 -1.55221,-3.083117 l 0,-3.083118 -6.20881,0 -6.20882,0 0,3.083118 c 0,2.569264 -0.2587,3.083117 -1.55221,3.083117 -1.0348,0 -1.5522,0.513856 -1.5522,1.541559 0,1.284635 0.5174,1.541559 3.10441,1.541559 2.58701,0 3.10441,0.256924 3.10441,1.541558 0,1.027704 -0.5174,1.541559 -1.55221,1.541559 -1.2935,0 -1.5522,0.513856 -1.5522,3.083118 0,2.569262 0.2587,3.083117 1.5522,3.083117 1.29351,0 1.55221,-0.513855 1.55221,-3.083117 0,-2.569262 0.2587,-3.083118 1.5522,-3.083118 1.0348,0 1.55221,-0.513855 1.55221,-1.541559 0,-1.027703 -0.51741,-1.541558 -1.55221,-1.541558 -1.2935,0 -1.5522,-0.513856 -1.5522,-3.083118 0,-2.569264 0.2587,-3.083117 1.5522,-3.083117 1.0348,0 1.55221,0.513853 1.55221,1.541558 0,1.284633 0.5174,1.541559 3.10441,1.541559 2.587,0 3.1044,0.256924 3.1044,1.541559 0,1.027703 -0.5174,1.541559 -1.5522,1.541559 -1.0348,0 -1.5522,0.513855 -1.5522,1.541558 0,1.284635 0.5174,1.541559 3.1044,1.541559 3.10441,0 3.10441,0 3.10441,3.083118 0,2.569262 0.2587,3.083117 1.55221,3.083117 1.2935,0 1.5522,0.513856 1.5522,3.083118 0,2.569259 0.2587,3.083119 1.55221,3.083119 1.0348,0 1.5522,-0.51386 1.5522,-1.54156 z m 9.31323,-27.748058 c 0,-1.027706 0.5174,-1.541559 1.5522,-1.541559 1.03481,0 1.55221,0.513853 1.55221,1.541559 0,1.027705 -0.5174,1.541559 -1.55221,1.541559 -1.0348,0 -1.5522,-0.513854 -1.5522,-1.541559 z m 49.670537,27.748058 c 0,-1.027704 -0.5174,-1.541559 -1.5522,-1.541559 -1.0348,0 -1.5522,0.513855 -1.5522,1.541559 0,1.0277 0.5174,1.54156 1.5522,1.54156 1.0348,0 1.5522,-0.51386 1.5522,-1.54156 z m -83.819037,-6.166235 0,-4.624677 -4.656615,0 -4.656614,0 0,4.624677 0,4.624676 4.656614,0 4.656615,0 0,-4.624676 z m -6.20882,0 c 0,-1.027704 0.517402,-1.541559 1.552205,-1.541559 1.034802,0 1.552204,0.513855 1.552204,1.541559 0,1.027703 -0.517402,1.541558 -1.552204,1.541558 -1.034803,0 -1.552205,-0.513855 -1.552205,-1.541558 z m 62.08818,0 0,-4.624677 -4.65661,0 -4.65661,0 0,4.624677 0,4.624676 4.65661,0 4.65661,0 0,-4.624676 z m -6.20882,0 c 0,-1.027704 0.51741,-1.541559 1.55221,-1.541559 1.0348,0 1.5522,0.513855 1.5522,1.541559 0,1.027703 -0.5174,1.541558 -1.5522,1.541558 -1.0348,0 -1.55221,-0.513855 -1.55221,-1.541558 z m 62.088187,0 0,-4.624677 -4.65662,0 -4.65661,0 0,4.624677 0,4.624676 4.65661,0 4.65662,0 0,-4.624676 z m -6.20882,0 c 0,-1.027704 0.5174,-1.541559 1.5522,-1.541559 1.0348,0 1.55221,0.513855 1.55221,1.541559 0,1.027703 -0.51741,1.541558 -1.55221,1.541558 -1.0348,0 -1.5522,-0.513855 -1.5522,-1.541558 z m 15.52204,3.083117 c 0,-1.027703 0.51741,-1.541559 1.55221,-1.541559 1.0348,0 1.5522,-0.513855 1.5522,-1.541558 0,-1.284635 -0.5174,-1.541559 -3.10441,-1.541559 -3.1044,0 -3.1044,0 -3.1044,3.083117 0,2.569262 0.25869,3.083118 1.5522,3.083118 1.0348,0 1.5522,-0.513856 1.5522,-1.541559 z m -21.73086,-3.083117 c 0,-1.027704 -0.5174,-1.541559 -1.5522,-1.541559 -1.0348,0 -1.55221,0.513855 -1.55221,1.541559 0,1.027703 0.51741,1.541558 1.55221,1.541558 1.0348,0 1.5522,-0.513855 1.5522,-1.541558 z m 18.62646,-6.166236 c 0,-1.027703 -0.51741,-1.541558 -1.55221,-1.541558 -1.0348,0 -1.5522,0.513855 -1.5522,1.541558 0,1.027704 0.5174,1.541559 1.5522,1.541559 1.0348,0 1.55221,-0.513855 1.55221,-1.541559 z M 21.178714,80.299316 c 0,-1.027703 -0.517402,-1.541559 -1.552205,-1.541559 -1.034802,0 -1.552204,0.513856 -1.552204,1.541559 0,1.027703 0.517402,1.541559 1.552204,1.541559 1.034803,0 1.552205,-0.513856 1.552205,-1.541559 z m 6.208818,0 c 0,-1.027703 -0.517402,-1.541559 -1.552204,-1.541559 -1.034803,0 -1.552205,0.513856 -1.552205,1.541559 0,1.027703 0.517402,1.541559 1.552205,1.541559 1.034802,0 1.552204,-0.513856 1.552204,-1.541559 z m 105.549908,0 c 0,-1.027703 0.5174,-1.541559 1.5522,-1.541559 1.0348,0 1.55221,-0.513853 1.55221,-1.541559 0,-1.027705 0.5174,-1.541558 1.5522,-1.541558 1.0348,0 1.55221,0.513853 1.55221,1.541558 0,1.027706 0.5174,1.541559 1.5522,1.541559 1.29351,0 1.55221,-0.513853 1.55221,-3.083117 0,-2.569265 -0.2587,-3.083118 -1.55221,-3.083118 -1.0348,0 -1.5522,-0.513853 -1.5522,-1.541559 0,-1.027705 -0.51741,-1.541558 -1.55221,-1.541558 -1.2935,0 -1.5522,0.513853 -1.5522,3.083117 0,2.569264 -0.2587,3.083118 -1.55221,3.083118 -1.0348,0 -1.5522,-0.513854 -1.5522,-1.541559 0,-1.027706 -0.5174,-1.541559 -1.55221,-1.541559 -1.0348,0 -1.5522,-0.513853 -1.5522,-1.541559 0,-1.027705 0.5174,-1.541558 1.5522,-1.541558 1.03481,0 1.55221,-0.513854 1.55221,-1.541559 0,-1.027706 0.5174,-1.541559 1.5522,-1.541559 1.0348,0 1.55221,-0.513853 1.55221,-1.541559 0,-1.027705 -0.51741,-1.541559 -1.55221,-1.541559 -1.0348,0 -1.5522,0.513854 -1.5522,1.541559 0,1.027706 -0.5174,1.541559 -1.55221,1.541559 -1.0348,0 -1.5522,-0.513853 -1.5522,-1.541559 0,-1.284632 -0.5174,-1.541559 -3.10441,-1.541559 -2.587,0 -3.10441,-0.256926 -3.10441,-1.541558 0,-1.284633 -0.5174,-1.541559 -3.10441,-1.541559 -2.587,0 -3.10441,0.256926 -3.10441,1.541559 0,1.027705 0.51741,1.541558 1.55221,1.541558 1.0348,0 1.5522,0.513854 1.5522,1.541559 0,1.370275 -0.5174,1.541559 -4.65661,1.541559 l -4.65661,0 0,4.624676 c 0,4.110823 0.17246,4.624677 1.5522,4.624677 1.0348,0 1.5522,0.513853 1.5522,1.541558 0,1.027706 0.51741,1.541559 1.55221,1.541559 1.0348,0 1.5522,-0.513853 1.5522,-1.541559 0,-1.027705 -0.5174,-1.541558 -1.5522,-1.541558 -1.29351,0 -1.55221,-0.513854 -1.55221,-3.083118 l 0,-3.083117 4.65662,0 c 4.13921,0 4.65661,0.171284 4.65661,1.541558 0,1.027706 -0.5174,1.541559 -1.5522,1.541559 -1.29351,0 -1.55221,0.513853 -1.55221,3.083118 0,2.569264 0.2587,3.083117 1.55221,3.083117 1.0348,0 1.5522,0.513856 1.5522,1.541559 0,1.370276 0.51741,1.541559 4.65662,1.541559 4.13921,0 4.65661,-0.171283 4.65661,-1.541559 z m -9.31323,-3.083118 c 0,-1.027705 0.51741,-1.541558 1.55221,-1.541558 1.0348,0 1.5522,-0.513854 1.5522,-1.541559 0,-1.027706 0.51741,-1.541559 1.55221,-1.541559 1.0348,0 1.5522,0.513853 1.5522,1.541559 0,1.027705 0.5174,1.541559 1.5522,1.541559 1.03481,0 1.55221,0.513853 1.55221,1.541558 0,1.370275 -0.5174,1.541559 -4.65661,1.541559 -4.13921,0 -4.65662,-0.171284 -4.65662,-1.541559 z m 3.10441,-9.249352 c 0,-1.027706 0.51741,-1.541559 1.55221,-1.541559 1.0348,0 1.5522,0.513853 1.5522,1.541559 0,1.027705 -0.5174,1.541559 -1.5522,1.541559 -1.0348,0 -1.55221,-0.513854 -1.55221,-1.541559 z m -96.236677,3.083117 c 0,-1.413095 0.5174,-1.541558 6.20882,-1.541558 5.69141,0 6.20882,-0.128464 6.20882,-1.541559 0,-1.027706 0.5174,-1.541559 1.5522,-1.541559 1.0348,0 1.5522,0.513853 1.5522,1.541559 0,1.027705 0.51741,1.541559 1.55221,1.541559 1.0348,0 1.5522,0.513853 1.5522,1.541558 0,1.027706 0.51741,1.541559 1.55221,1.541559 1.0348,0 1.5522,-0.513853 1.5522,-1.541559 0,-1.027705 -0.5174,-1.541558 -1.5522,-1.541558 -1.29351,0 -1.55221,-0.513854 -1.55221,-3.083118 0,-2.569264 -0.2587,-3.083118 -1.5522,-3.083118 -1.0348,0 -1.55221,-0.513853 -1.55221,-1.541558 0,-1.027706 0.51741,-1.541559 1.55221,-1.541559 1.0348,0 1.5522,-0.513853 1.5522,-1.541559 0,-1.027705 0.51741,-1.541559 1.55221,-1.541559 1.0348,0 1.5522,-0.513853 1.5522,-1.541558 0,-1.027706 -0.5174,-1.541559 -1.5522,-1.541559 -1.0348,0 -1.55221,-0.513853 -1.55221,-1.541559 0,-1.027706 0.51741,-1.541559 1.55221,-1.541559 1.0348,0 1.5522,-0.513853 1.5522,-1.541559 0,-1.027705 0.5174,-1.541558 1.55221,-1.541558 1.0348,0 1.5522,0.513853 1.5522,1.541558 0,1.413096 0.5174,1.541559 6.20882,1.541559 5.69142,0 6.20882,-0.128463 6.20882,-1.541559 0,-1.027705 0.5174,-1.541558 1.5522,-1.541558 1.03481,0 1.55221,0.513853 1.55221,1.541558 0,1.027706 0.5174,1.541559 1.5522,1.541559 1.29351,0 1.55221,0.513853 1.55221,3.083118 0,2.569264 0.25869,3.083117 1.5522,3.083117 1.37974,0 1.55221,-0.513853 1.55221,-4.624676 0,-4.110823 -0.17247,-4.624676 -1.55221,-4.624676 -1.0348,0 -1.5522,-0.513853 -1.5522,-1.541559 0,-1.027706 -0.51741,-1.541559 -1.55221,-1.541559 -1.2935,0 -1.5522,-0.513853 -1.5522,-3.083117 0,-2.569265 0.2587,-3.083118 1.5522,-3.083118 1.29351,0 1.55221,-0.513853 1.55221,-3.083117 0,-2.569265 -0.2587,-3.083118 -1.55221,-3.083118 -1.2935,0 -1.5522,0.513853 -1.5522,3.083118 0,2.569264 -0.2587,3.083117 -1.55221,3.083117 -1.2935,0 -1.5522,-0.513853 -1.5522,-3.083117 0,-2.569265 -0.2587,-3.083118 -1.55221,-3.083118 -1.0348,0 -1.5522,0.513853 -1.5522,1.541559 0,1.027705 -0.5174,1.541559 -1.55221,1.541559 -1.37973,0 -1.5522,-0.513854 -1.5522,-4.624677 0,-4.110823 0.17247,-4.624676 1.5522,-4.624676 1.03481,0 1.55221,-0.513853 1.55221,-1.541559 0,-1.027705 -0.5174,-1.541559 -1.55221,-1.541559 -1.0348,0 -1.5522,0.513854 -1.5522,1.541559 0,1.027706 -0.5174,1.541559 -1.5522,1.541559 -1.03481,0 -1.55221,0.513853 -1.55221,1.541559 0,1.027705 -0.5174,1.541558 -1.5522,1.541558 -1.03481,0 -1.55221,-0.513853 -1.55221,-1.541558 0,-1.027706 -0.5174,-1.541559 -1.5522,-1.541559 -1.03481,0 -1.55221,-0.513853 -1.55221,-1.541559 0,-1.027705 -0.5174,-1.541559 -1.5522,-1.541559 -1.0348,0 -1.55221,-0.513853 -1.55221,-1.541558 0,-1.027706 -0.5174,-1.541559 -1.5522,-1.541559 -1.0348,0 -1.55221,0.513853 -1.55221,1.541559 0,1.370274 -0.5174,1.541558 -4.65661,1.541558 -4.13921,0 -4.65661,0.171285 -4.65661,1.541559 0,1.370275 0.5174,1.541559 4.65661,1.541559 4.13921,0 4.65661,0.171284 4.65661,1.541559 0,1.027705 0.51741,1.541558 1.55221,1.541558 1.0348,0 1.5522,0.513854 1.5522,1.541559 0,1.027706 -0.5174,1.541559 -1.5522,1.541559 -1.29351,0 -1.55221,0.513853 -1.55221,3.083118 l 0,3.083117 4.65662,0 c 4.13921,0 4.65661,0.171284 4.65661,1.541559 0,1.027705 0.5174,1.541559 1.55221,1.541559 1.2935,0 1.5522,0.513853 1.5522,3.083117 0,2.569265 -0.2587,3.083118 -1.5522,3.083118 -1.03481,0 -1.55221,-0.513853 -1.55221,-1.541559 0,-1.027706 -0.5174,-1.541559 -1.5522,-1.541559 -1.03481,0 -1.55221,-0.513853 -1.55221,-1.541559 0,-1.027705 -0.5174,-1.541558 -1.5522,-1.541558 -1.0348,0 -1.55221,0.513853 -1.55221,1.541558 0,1.027706 -0.5174,1.541559 -1.5522,1.541559 -1.0348,0 -1.55221,0.513853 -1.55221,1.541559 0,1.027706 -0.5174,1.541559 -1.5522,1.541559 -1.0348,0 -1.5522,0.513853 -1.5522,1.541558 0,1.027706 0.5174,1.541559 1.5522,1.541559 1.0348,0 1.5522,0.513853 1.5522,1.541559 0,1.027706 0.51741,1.541559 1.55221,1.541559 1.0348,0 1.5522,0.513853 1.5522,1.541559 0,1.284632 -0.5174,1.541558 -3.10441,1.541558 -2.587,0 -3.1044,0.256927 -3.1044,1.541559 0,1.027706 -0.51741,1.541559 -1.55221,1.541559 -1.2935,0 -1.5522,0.513853 -1.5522,3.083117 0,2.569265 -0.2587,3.083118 -1.55221,3.083118 -1.0348,0 -1.5522,-0.513853 -1.5522,-1.541559 0,-1.027705 -0.5174,-1.541559 -1.55221,-1.541559 -1.0348,0 -1.5522,-0.513853 -1.5522,-1.541558 0,-1.027706 0.5174,-1.541559 1.5522,-1.541559 1.03481,0 1.55221,-0.513853 1.55221,-1.541559 0,-1.284632 -0.5174,-1.541559 -3.10441,-1.541559 -2.58701,0 -3.10441,-0.256926 -3.10441,-1.541558 0,-1.370275 -0.5174,-1.541559 -4.656615,-1.541559 -4.139212,0 -4.656614,0.171284 -4.656614,1.541559 0,1.284632 0.517402,1.541558 3.104409,1.541558 2.587007,0 3.104409,0.256927 3.104409,1.541559 0,1.027706 -0.517402,1.541559 -1.552204,1.541559 -1.034803,0 -1.552205,0.513853 -1.552205,1.541559 0,1.027705 0.517402,1.541558 1.552205,1.541558 1.034802,0 1.552204,-0.513853 1.552204,-1.541558 0,-1.027706 0.517401,-1.541559 1.552201,-1.541559 1.37974,0 1.55221,0.513853 1.55221,4.624676 0,4.110823 -0.17247,4.624677 -1.55221,4.624677 -1.0348,0 -1.552201,0.513853 -1.552201,1.541558 0,1.027706 0.517401,1.541559 1.552201,1.541559 1.03481,0 1.55221,-0.513853 1.55221,-1.541559 z m 18.62645,-24.66494 c 0,-1.027706 0.51741,-1.541559 1.55221,-1.541559 1.0348,0 1.5522,0.513853 1.5522,1.541559 0,1.027706 -0.5174,1.541559 -1.5522,1.541559 -1.0348,0 -1.55221,-0.513853 -1.55221,-1.541559 z m 12.41764,0 c 0,-1.027706 0.5174,-1.541559 1.5522,-1.541559 1.03481,0 1.55221,-0.513853 1.55221,-1.541559 0,-1.027705 -0.5174,-1.541558 -1.55221,-1.541558 -1.0348,0 -1.5522,-0.513854 -1.5522,-1.541559 0,-1.284633 -0.5174,-1.541559 -3.10441,-1.541559 -3.10441,0 -3.10441,0 -3.10441,-3.083117 0,-2.569265 -0.2587,-3.083118 -1.5522,-3.083118 -1.03481,0 -1.55221,0.513853 -1.55221,1.541559 0,1.027705 -0.5174,1.541559 -1.5522,1.541559 -1.0348,0 -1.55221,-0.513854 -1.55221,-1.541559 0,-1.027706 0.51741,-1.541559 1.55221,-1.541559 1.0348,0 1.5522,-0.513853 1.5522,-1.541559 0,-1.027705 -0.5174,-1.541559 -1.5522,-1.541559 -1.0348,0 -1.55221,-0.513853 -1.55221,-1.541558 0,-1.027706 -0.5174,-1.541559 -1.5522,-1.541559 -1.0348,0 -1.55221,-0.513853 -1.55221,-1.541559 0,-1.027705 0.51741,-1.541559 1.55221,-1.541559 1.0348,0 1.5522,0.513854 1.5522,1.541559 0,1.027706 0.51741,1.541559 1.55221,1.541559 1.0348,0 1.5522,0.513853 1.5522,1.541559 0,1.027705 0.5174,1.541558 1.55221,1.541558 1.0348,0 1.5522,0.513854 1.5522,1.541559 0,1.027706 0.5174,1.541559 1.55221,1.541559 1.0348,0 1.5522,0.513853 1.5522,1.541559 0,1.027705 0.5174,1.541559 1.55221,1.541559 1.0348,0 1.5522,0.513853 1.5522,1.541558 0,1.027706 0.5174,1.541559 1.5522,1.541559 1.03481,0 1.55221,0.513853 1.55221,1.541559 0,1.027705 0.5174,1.541559 1.5522,1.541559 1.29351,0 1.55221,0.513853 1.55221,3.083117 0,3.083118 0,3.083118 -3.10441,3.083118 -2.58701,0 -3.10441,-0.256926 -3.10441,-1.541559 z m 0,15.415588 c 0,-1.027706 -0.5174,-1.541559 -1.5522,-1.541559 -1.03481,0 -1.55221,-0.513853 -1.55221,-1.541559 0,-1.027705 0.5174,-1.541559 1.55221,-1.541559 1.0348,0 1.5522,-0.513853 1.5522,-1.541558 0,-1.027706 -0.5174,-1.541559 -1.5522,-1.541559 -1.03481,0 -1.55221,0.513853 -1.55221,1.541559 0,1.027705 -0.5174,1.541558 -1.5522,1.541558 -1.03481,0 -1.55221,0.513854 -1.55221,1.541559 0,1.027706 0.5174,1.541559 1.55221,1.541559 1.0348,0 1.5522,0.513853 1.5522,1.541559 0,1.027705 0.5174,1.541558 1.55221,1.541558 1.0348,0 1.5522,-0.513853 1.5522,-1.541558 z m 9.31323,-6.166235 c 0,-1.027706 -0.5174,-1.541559 -1.55221,-1.541559 -1.0348,0 -1.5522,0.513853 -1.5522,1.541559 0,1.027705 0.5174,1.541558 1.5522,1.541558 1.03481,0 1.55221,-0.513853 1.55221,-1.541558 z m 24.83527,0 c 0,-1.027706 0.5174,-1.541559 1.5522,-1.541559 1.0348,0 1.55221,-0.513853 1.55221,-1.541559 0,-1.284633 -0.51741,-1.541559 -3.10441,-1.541559 -3.10441,0 -3.10441,0 -3.10441,-3.083117 0,-3.083118 0,-3.083118 3.10441,-3.083118 2.587,0 3.10441,-0.256926 3.10441,-1.541559 0,-1.027705 -0.51741,-1.541558 -1.55221,-1.541558 -1.2935,0 -1.5522,-0.513854 -1.5522,-3.083118 0,-2.569264 -0.2587,-3.083117 -1.5522,-3.083117 -1.03481,0 -1.55221,-0.513854 -1.55221,-1.541559 0,-1.027706 -0.5174,-1.541559 -1.5522,-1.541559 -1.0348,0 -1.55221,0.513853 -1.55221,1.541559 0,1.027705 0.51741,1.541559 1.55221,1.541559 1.0348,0 1.5522,0.513853 1.5522,1.541558 0,1.027706 -0.5174,1.541559 -1.5522,1.541559 -1.0348,0 -1.55221,0.513853 -1.55221,1.541559 0,1.027705 -0.5174,1.541559 -1.5522,1.541559 -1.37974,0 -1.55221,0.513853 -1.55221,4.624676 0,4.110823 -0.17246,4.624676 -1.5522,4.624676 -1.0348,0 -1.55221,0.513853 -1.55221,1.541559 0,1.027706 0.51741,1.541559 1.55221,1.541559 1.0348,0 1.5522,-0.513853 1.5522,-1.541559 0,-1.027706 0.51741,-1.541559 1.55221,-1.541559 1.0348,0 1.5522,0.513853 1.5522,1.541559 0,1.027706 0.51741,1.541559 1.55221,1.541559 1.0348,0 1.5522,0.513853 1.5522,1.541559 0,1.027705 0.5174,1.541558 1.55221,1.541558 1.0348,0 1.5522,-0.513853 1.5522,-1.541558 z m 55.879357,0 c 0,-1.027706 -0.5174,-1.541559 -1.5522,-1.541559 -1.0348,0 -1.5522,0.513853 -1.5522,1.541559 0,1.027705 0.5174,1.541558 1.5522,1.541558 1.0348,0 1.5522,-0.513853 1.5522,-1.541558 z M 83.266893,46.385023 c 0,-1.027706 -0.5174,-1.541559 -1.5522,-1.541559 -1.0348,0 -1.55221,0.513853 -1.55221,1.541559 0,1.027706 0.51741,1.541559 1.55221,1.541559 1.0348,0 1.5522,-0.513853 1.5522,-1.541559 z m 3.10441,-12.33247 0,-4.624677 -4.65661,0 -4.65661,0 0,4.624677 0,4.624676 4.65661,0 4.65661,0 0,-4.624676 z m -6.20882,0 c 0,-1.027706 0.51741,-1.541559 1.55221,-1.541559 1.0348,0 1.5522,0.513853 1.5522,1.541559 0,1.027705 -0.5174,1.541559 -1.5522,1.541559 -1.0348,0 -1.55221,-0.513854 -1.55221,-1.541559 z m 21.730867,3.083117 c 0,-1.027705 -0.51741,-1.541558 -1.55221,-1.541558 -1.034797,0 -1.552197,0.513853 -1.552197,1.541558 0,1.027706 0.5174,1.541559 1.552197,1.541559 1.0348,0 1.55221,-0.513853 1.55221,-1.541559 z m 21.73086,-3.083117 c 0,-1.027706 -0.5174,-1.541559 -1.5522,-1.541559 -1.0348,0 -1.55221,0.513853 -1.55221,1.541559 0,1.027705 0.51741,1.541559 1.55221,1.541559 1.0348,0 1.5522,-0.513854 1.5522,-1.541559 z M 70.849263,26.344759 c 0,-2.569264 -0.2587,-3.083118 -1.55221,-3.083118 -1.2935,0 -1.5522,0.513854 -1.5522,3.083118 0,2.569264 0.2587,3.083117 1.5522,3.083117 1.29351,0 1.55221,-0.513853 1.55221,-3.083117 z m 24.83527,1.541559 c 0,-1.027706 0.5174,-1.541559 1.5522,-1.541559 1.0348,0 1.55221,-0.513853 1.55221,-1.541559 0,-1.027705 0.5174,-1.541559 1.552197,-1.541559 1.29351,0 1.55221,-0.513853 1.55221,-3.083117 0,-2.569265 -0.2587,-3.083118 -1.55221,-3.083118 -1.293497,0 -1.552197,0.513853 -1.552197,3.083118 l 0,3.083117 -4.65661,0 -4.65662,0 0,3.083118 c 0,3.083117 0,3.083117 3.10441,3.083117 2.58701,0 3.10441,-0.256926 3.10441,-1.541558 z m -15.52205,-4.624677 c 0,-2.569264 0.2587,-3.083117 1.55221,-3.083117 1.0348,0 1.5522,0.513853 1.5522,1.541559 0,1.027705 0.51741,1.541558 1.55221,1.541558 1.0348,0 1.5522,-0.513853 1.5522,-1.541558 0,-1.027706 -0.5174,-1.541559 -1.5522,-1.541559 -1.0348,0 -1.55221,-0.513853 -1.55221,-1.541559 0,-1.027706 -0.5174,-1.541559 -1.5522,-1.541559 -1.0348,0 -1.55221,0.513853 -1.55221,1.541559 0,1.027706 -0.5174,1.541559 -1.5522,1.541559 -1.0348,0 -1.5522,0.513853 -1.5522,1.541559 0,1.027705 -0.51741,1.541558 -1.55221,1.541558 -1.0348,0 -1.5522,0.513854 -1.5522,1.541559 0,1.284633 0.5174,1.541559 3.10441,1.541559 3.1044,0 3.1044,0 3.1044,-3.083118 z m 6.20882,138.740289 c 0,-2.56926 0.2587,-3.08312 1.55221,-3.08312 1.2935,0 1.5522,0.51386 1.5522,3.08312 0,2.56926 -0.2587,3.08312 -1.5522,3.08312 -1.29351,0 -1.55221,-0.51386 -1.55221,-3.08312 z m -3.10441,-97.118202 c 0,-1.284632 0.51741,-1.541559 3.10441,-1.541559 2.58701,0 3.10441,0.256927 3.10441,1.541559 0,1.284633 -0.5174,1.541559 -3.10441,1.541559 -2.587,0 -3.10441,-0.256926 -3.10441,-1.541559 z M 5.6566677,58.717493 c 0,-1.027705 0.517402,-1.541559 1.552205,-1.541559 1.034803,0 1.552205,0.513854 1.552205,1.541559 0,1.027706 -0.517402,1.541559 -1.552205,1.541559 -1.034803,0 -1.552205,-0.513853 -1.552205,-1.541559 z m 99.3410923,0 c 0,-1.027705 0.5174,-1.541559 1.5522,-1.541559 1.29351,0 1.55221,-0.513853 1.55221,-3.083117 0,-2.569265 0.25869,-3.083118 1.5522,-3.083118 1.37974,0 1.55221,0.513853 1.55221,4.624677 l 0,4.624676 -3.10441,0 c -2.58701,0 -3.10441,-0.256926 -3.10441,-1.541559 z M 5.6566677,49.46814 c 0,-1.027705 0.517402,-1.541558 1.552205,-1.541558 1.034803,0 1.552205,0.513853 1.552205,1.541558 0,1.027706 -0.517402,1.541559 -1.552205,1.541559 -1.034803,0 -1.552205,-0.513853 -1.552205,-1.541559 z M 132.93744,43.301905 c 0,-1.027705 0.5174,-1.541558 1.5522,-1.541558 1.0348,0 1.55221,0.513853 1.55221,1.541558 0,1.027706 -0.51741,1.541559 -1.55221,1.541559 -1.0348,0 -1.5522,-0.513853 -1.5522,-1.541559 z m 6.20882,0 c 0,-1.027705 0.5174,-1.541558 1.5522,-1.541558 1.0348,0 1.55221,-0.513854 1.55221,-1.541559 0,-1.027706 0.5174,-1.541559 1.5522,-1.541559 1.0348,0 1.55221,0.513853 1.55221,1.541559 0,1.027705 -0.51741,1.541559 -1.55221,1.541559 -1.0348,0 -1.5522,0.513853 -1.5522,1.541558 0,1.027706 -0.51741,1.541559 -1.55221,1.541559 -1.0348,0 -1.5522,-0.513853 -1.5522,-1.541559 z M 5.6566677,40.218788 c 0,-1.027706 0.517402,-1.541559 1.552205,-1.541559 1.034803,0 1.552205,0.513853 1.552205,1.541559 0,1.027705 -0.517402,1.541559 -1.552205,1.541559 -1.034803,0 -1.552205,-0.513854 -1.552205,-1.541559 z m 145.9072223,0 c 0,-1.027706 0.51741,-1.541559 1.55221,-1.541559 1.0348,0 1.5522,0.513853 1.5522,1.541559 0,1.027705 -0.5174,1.541559 -1.5522,1.541559 -1.0348,0 -1.55221,-0.513854 -1.55221,-1.541559 z M 5.6566677,24.8032 l 0,-10.790911 10.8654323,0 10.865432,0 0,10.790911 0,10.790912 -10.865432,0 -10.8654323,0 0,-10.790912 z m 18.6264553,0 0,-7.707794 -7.761023,0 -7.7610223,0 0,7.707794 0,7.707794 7.7610223,0 7.761023,0 0,-7.707794 z m -12.417636,0 0,-4.624676 4.656613,0 4.656614,0 0,4.624676 0,4.624676 -4.656614,0 -4.656613,0 0,-4.624676 z m 18.626456,9.249353 c 0,-1.027706 0.5174,-1.541559 1.5522,-1.541559 1.03481,0 1.55221,0.513853 1.55221,1.541559 0,1.027705 -0.5174,1.541559 -1.55221,1.541559 -1.0348,0 -1.5522,-0.513854 -1.5522,-1.541559 z m 6.20882,0 c 0,-1.027706 0.5174,-1.541559 1.5522,-1.541559 1.0348,0 1.55221,0.513853 1.55221,1.541559 0,1.027705 -0.51741,1.541559 -1.55221,1.541559 -1.0348,0 -1.5522,-0.513854 -1.5522,-1.541559 z m 99.341087,-9.249353 0,-10.790911 10.86543,0 10.86543,0 0,10.790911 0,10.790912 -10.86543,0 -10.86543,0 0,-10.790912 z m 18.62645,0 0,-7.707794 -7.76102,0 -7.76102,0 0,7.707794 0,7.707794 7.76102,0 7.76102,0 0,-7.707794 z m -12.41763,0 0,-4.624676 4.65661,0 4.65661,0 0,4.624676 0,4.624676 -4.65661,0 -4.65661,0 0,-4.624676 z"
         id="path4760"
         inkscape:connector-curvature="0" />
    </g>
  </g>
</svg>
