<svg width="209" height="194" viewBox="0 0 209 194" fill="none" xmlns="http://www.w3.org/2000/svg">
<path d="M83.7 18.2C90.8 18.2 97.4 18.2 104.3 18.2C104.3 37.8 104.3 57.3 104.3 77.5C98 76 90 74.2 83.8 72.5C83.8 71.8 83.7 70.8 83.7 69.7C83.6 52.7 83.7 35.8 83.7 18.2Z" fill="#F7D200"/>
<path d="M143 52.5C143 32.1 143 22.2 143 1.60001C149.6 1.60001 156.3 1.60001 163.7 1.60001C163.7 10.3 163.6 23.1 163.7 32L143 52.5Z" fill="#F7D200"/>
<path d="M135 58.4C134.9 51.5 134.7 36 134.7 29.3C127.3 29.3 120.7 29.3 113.9 29.3C113.9 46.1 113.9 61.3 113.9 79.6L135 58.4Z" fill="#F7D200"/>
<path d="M28 116.5C28 97.4 28 79.5 28 61.2C34.9 61.2 41.5 61.2 48.7 61.2C48.7 70.5 48.7 79.6 48.7 88.7L28 116.5Z" fill="#F7D200"/>
<path d="M76.4 70.9C76.4 61 76.4 50.4 76.4 40.2C69.6 40.2 63 40.2 55.6 40.2C55.6 46.8 55.6 53.1 55.6 59.4C55.6 65.5 55.6 73.3 55.6 79.5L64 68.8C64 68.8 64.4 68.1 65.5 68.4C66.6 68.7 76.4 70.9 76.4 70.9Z" fill="#F7D200"/>
<path fill-rule="evenodd" clip-rule="evenodd" d="M189.497 52.8823C191.024 54.3282 191.524 56.4921 190.882 58.304L191.204 57.9815L191.216 57.9704C193.249 56.0646 196.357 56.2533 198.397 58.2823C200.45 60.2261 200.647 63.4677 198.707 65.4071L198.406 65.7087C200.19 65.0792 202.296 65.5897 203.797 67.0823C205.85 69.0261 206.047 72.2677 204.107 74.2071L200.877 77.4376C202.705 76.8035 204.879 77.3645 206.307 78.7929C208.333 80.8185 208.56 84.0547 206.607 86.0071L185.1 107.515L180.3 112.115L175.507 116.907C172.825 119.59 169.694 120.88 165.885 121.097C165.1 121.188 164.373 121.441 163.907 121.907L163.901 121.914L158.4 127.214C156.936 128.67 154.704 128.418 153.293 127.007L135.622 109.337C134.832 108.66 134.42 107.72 134.401 106.77C134.273 105.691 134.767 104.819 135.393 104.193L135.411 104.175L137.524 102.263C137.525 102.262 137.526 102.262 137.526 102.261C138.334 101.519 138.57 100.295 138.061 98.8433L136.967 95.9601C134.641 90.0342 135.682 83.8039 139.993 79.4929L157.393 62.0929C158.281 61.2053 159.515 60.9747 160.683 61.1772C161.851 61.3796 163.032 62.0176 164.007 62.9929C164.982 63.9681 165.62 65.1491 165.823 66.3167C166.025 67.485 165.795 68.7195 164.907 69.6071L157.814 76.7L157.9 76.7858L164.399 70.2869L182.393 52.5929C182.394 52.5918 182.395 52.5908 182.396 52.5897C184.347 50.6426 187.473 50.8692 189.497 52.8823ZM188.093 54.3071C186.717 52.9311 184.853 52.961 183.807 54.0071L183.801 54.013L165.807 71.7071L157.9 79.6142L154.986 76.7L163.493 68.1929C163.805 67.8805 163.975 67.365 163.852 66.6583C163.73 65.9508 163.318 65.1318 162.593 64.4071C161.868 63.6824 161.049 63.2704 160.342 63.1478C159.635 63.0253 159.12 63.1947 158.807 63.5071L141.407 80.9071C137.72 84.5947 136.759 89.9619 138.831 95.2343L138.835 95.2453L139.939 98.1562L139.943 98.1672C140.628 100.109 140.465 102.281 138.876 103.737L138.871 103.742L136.791 105.623C136.444 105.976 136.349 106.274 136.39 106.559L136.4 106.629V106.7C136.4 107.112 136.575 107.527 136.94 107.832L136.975 107.861L154.707 125.593C155.494 126.38 156.457 126.329 156.993 125.793L156.999 125.786L162.5 120.486C163.428 119.562 164.687 119.218 165.69 119.106L165.717 119.103L165.745 119.102C169.122 118.914 171.782 117.804 174.093 115.493L178.9 110.685L183.7 106.085L205.193 84.5929C206.241 83.5453 206.267 81.5815 204.893 80.2071C203.601 78.915 201.639 78.8754 200.607 79.9071L186.6 93.9142L184.086 91.4L202.693 72.7929C203.75 71.7358 203.751 69.7855 202.415 68.5282L202.404 68.5178L202.393 68.5071C201.017 67.1311 199.153 67.161 198.107 68.2071L179.5 86.8142L176.986 84.3L197.293 63.9929C198.35 62.9358 198.351 60.9855 197.015 59.7282L197.004 59.7178L196.993 59.7071C195.636 58.3503 193.759 58.3387 192.595 59.4193L172.3 79.7142L169.786 77.2L188.393 58.5929C189.45 57.5358 189.451 55.5855 188.115 54.3282L188.104 54.3178L188.093 54.3071Z" fill="black"/>
<path fill-rule="evenodd" clip-rule="evenodd" d="M30.4762 141.882L31.7237 140.318L93.1063 189.305L93.1216 189.315C93.1432 189.331 93.1787 189.355 93.2269 189.387C93.3235 189.45 93.4702 189.541 93.6585 189.644C94.0378 189.851 94.5704 190.096 95.1899 190.257C96.4124 190.576 97.9185 190.567 99.3492 189.341C101.075 187.862 112.721 176.89 123.975 166.248C129.594 160.936 135.103 155.718 139.207 151.827C141.26 149.882 142.961 148.269 144.149 147.142L146.01 145.377L146.011 145.375C146.011 145.375 146.012 145.375 146.7 146.1C147.388 146.825 147.388 146.825 147.388 146.826L145.525 148.593C144.337 149.72 142.636 151.333 140.583 153.279C136.478 157.17 130.969 162.389 125.349 167.702C114.129 178.31 102.425 189.338 100.651 190.859C98.5814 192.633 96.3375 192.624 94.685 192.193C93.8671 191.979 93.1808 191.662 92.7008 191.4C92.4594 191.268 92.2663 191.148 92.1305 191.059C92.0625 191.015 92.0086 190.978 91.9698 190.95C91.9505 190.937 91.9349 190.926 91.9232 190.917L91.9086 190.906L91.9035 190.903L91.9016 190.901L91.9007 190.901C91.9003 190.9 91.9 190.9 92.5 190.1L91.9007 190.901L91.8879 190.891L30.4762 141.882Z" fill="black"/>
<path fill-rule="evenodd" clip-rule="evenodd" d="M122.957 117.053L122.956 117.055L122.955 117.056L122.925 117.091L122.888 117.125L122.2 116.4C122.888 117.125 122.888 117.125 122.888 117.125L122.039 117.931C121.496 118.446 120.717 119.184 119.77 120.081C117.878 121.873 115.318 124.295 112.649 126.815C107.319 131.845 101.528 137.285 99.763 138.849C97.7528 140.629 95.7047 140.832 94.156 140.546C93.3994 140.406 92.7754 140.154 92.3402 139.937C92.1214 139.828 91.9469 139.727 91.8233 139.65C91.7614 139.611 91.712 139.578 91.6758 139.554C91.6577 139.541 91.6429 139.531 91.6315 139.523L91.617 139.513L91.6116 139.509L91.6094 139.507L91.6084 139.506C91.608 139.506 91.6075 139.506 92.1999 138.7L91.6075 139.506L91.5785 139.484L68.451 119.761L69.7488 118.239L92.8116 137.907C92.8276 137.918 92.8514 137.934 92.8824 137.953C92.9584 138.001 93.0769 138.07 93.2316 138.147C93.5432 138.302 93.988 138.481 94.5188 138.579C95.5451 138.768 96.947 138.671 98.4369 137.351C100.172 135.815 105.931 130.405 111.276 125.36C113.944 122.842 116.503 120.421 118.395 118.629C119.341 117.733 120.12 116.994 120.663 116.48L121.481 115.703C121.486 115.698 121.492 115.691 121.498 115.685C121.529 115.651 121.572 115.605 121.627 115.55C121.735 115.44 121.89 115.291 122.085 115.126C122.47 114.8 123.037 114.388 123.735 114.092C124.436 113.794 125.304 113.601 126.256 113.77C127.219 113.941 128.165 114.465 129.04 115.427L129.051 115.439L129.061 115.451C130.481 117.116 135.222 121.983 139.649 126.473C141.854 128.709 143.969 130.839 145.532 132.41C146.314 133.196 146.958 133.842 147.406 134.291L148.106 134.992C148.106 134.992 148.107 134.993 147.4 135.7C146.693 136.407 146.693 136.407 146.693 136.407L145.99 135.704C145.541 135.254 144.897 134.607 144.115 133.821C142.55 132.248 140.433 130.116 138.225 127.877C133.839 123.428 129.042 118.508 127.55 116.762C126.929 116.082 126.366 115.821 125.906 115.739C125.433 115.655 124.964 115.743 124.515 115.933C124.063 116.125 123.667 116.406 123.378 116.652C123.235 116.773 123.124 116.879 123.051 116.954C123.015 116.99 122.989 117.019 122.973 117.036L122.957 117.053Z" fill="black"/>
<path fill-rule="evenodd" clip-rule="evenodd" d="M133.454 108.957C133.454 108.957 133.454 108.957 132.81 108.212L133.454 108.957ZM133.447 108.962L133.446 108.963L133.426 108.98L133.351 109.045C133.285 109.101 133.188 109.184 133.066 109.287C132.82 109.494 132.47 109.788 132.047 110.135C131.202 110.829 130.063 111.74 128.894 112.604C128.45 112.932 128.258 113.234 128.172 113.463C128.084 113.696 128.078 113.927 128.12 114.154C128.164 114.387 128.256 114.601 128.346 114.762C128.389 114.84 128.428 114.9 128.454 114.938C128.456 114.941 128.459 114.945 128.461 114.948L148.414 135.3L146.986 136.7L126.953 116.266L126.923 116.229L127.7 115.6C126.923 116.229 126.922 116.229 126.922 116.228L126.921 116.227L126.92 116.226L126.916 116.221L126.907 116.21C126.9 116.201 126.892 116.19 126.882 116.177C126.863 116.152 126.838 116.117 126.809 116.075C126.751 115.991 126.675 115.874 126.595 115.729C126.437 115.443 126.248 115.025 126.154 114.521C126.059 114.01 126.059 113.398 126.3 112.759C126.542 112.116 127 111.518 127.706 110.996C128.837 110.16 129.948 109.271 130.778 108.59C131.192 108.249 131.536 107.962 131.775 107.76C131.894 107.659 131.988 107.579 132.051 107.525L132.123 107.463L132.145 107.444L132.146 107.443L132.15 107.44L132.161 107.431C132.169 107.424 132.179 107.415 132.191 107.406C132.215 107.387 132.245 107.363 132.282 107.336C132.355 107.283 132.457 107.214 132.583 107.142C132.832 107 133.196 106.835 133.648 106.753C134.616 106.579 135.803 106.826 136.926 108.012L136.935 108.022L136.943 108.031C137.827 109.014 138.458 109.643 138.86 110.022C139.061 110.211 139.205 110.337 139.294 110.412C139.338 110.45 139.369 110.475 139.387 110.489L139.403 110.502L139.401 110.501L139.4 110.5C139.4 110.5 139.4 110.5 138.8 111.3C138.2 112.1 138.2 112.1 138.2 112.1L138.198 112.099L138.196 112.097L138.191 112.093L138.178 112.083C138.167 112.075 138.154 112.064 138.137 112.051C138.104 112.025 138.058 111.987 138 111.938C137.883 111.838 137.714 111.689 137.49 111.478C137.043 111.058 136.377 110.391 135.466 109.379C134.793 108.673 134.282 108.671 134.002 108.722C133.829 108.753 133.68 108.819 133.573 108.88C133.521 108.909 133.484 108.935 133.463 108.951C133.455 108.956 133.45 108.96 133.447 108.962Z" fill="black"/>
<path fill-rule="evenodd" clip-rule="evenodd" d="M183.702 24.7124L118.701 88.7431C117.211 90.2109 115.064 90.7968 113.035 90.2895L70.9323 79.7638C69.3896 79.3782 67.765 79.9429 66.7941 81.2024L33.7899 124.019C32.3337 125.908 29.8967 126.755 27.5827 126.176L22.2583 124.845C20.5862 124.427 18.8343 125.127 17.9108 126.583L3.34436 149.536L1.6557 148.464L16.2222 125.511C17.6074 123.328 20.2352 122.278 22.7434 122.905L28.0677 124.236C29.6105 124.622 31.2351 124.057 32.2059 122.798L65.2101 79.9814C66.6663 78.0922 69.1033 77.245 71.4174 77.8236L113.52 88.3493C114.873 88.6874 116.304 88.2968 117.297 87.3183L182.298 23.2876L183.702 24.7124Z" fill="black"/>
<path d="M180.3 22L185.3 26.5V21.6L180.3 22Z" fill="black"/>
<path fill-rule="evenodd" clip-rule="evenodd" d="M185.8 21.0584V27.6227L179.102 21.5943L185.8 21.0584ZM181.498 22.4057L184.8 25.3773V22.1416L181.498 22.4057Z" fill="black"/>
</svg>
