<svg width="460" height="258" viewBox="0 0 460 258" fill="none" xmlns="http://www.w3.org/2000/svg">
<path fill-rule="evenodd" clip-rule="evenodd" d="M108.7 5C108.7 2.23858 110.939 0 113.7 0H213.2C215.961 0 218.2 2.23858 218.2 5C218.2 7.76142 215.961 10 213.2 10H113.7C110.939 10 108.7 7.76142 108.7 5Z" fill="black"/>
<path fill-rule="evenodd" clip-rule="evenodd" d="M208.2 5C208.2 2.23858 210.439 0 213.2 0C223.161 0 231.3 8.13857 231.3 18.1C231.3 20.8614 229.061 23.1 226.3 23.1C223.539 23.1 221.3 20.8614 221.3 18.1C221.3 13.6614 217.639 10 213.2 10C210.439 10 208.2 7.76142 208.2 5Z" fill="black"/>
<path fill-rule="evenodd" clip-rule="evenodd" d="M226.3 13.1C229.061 13.1 231.3 15.3386 231.3 18.1V200.7C231.3 203.461 229.061 205.7 226.3 205.7C223.539 205.7 221.3 203.461 221.3 200.7V18.1C221.3 15.3386 223.539 13.1 226.3 13.1Z" fill="black"/>
<path fill-rule="evenodd" clip-rule="evenodd" d="M226.3 195.7C229.061 195.7 231.3 197.939 231.3 200.7C231.3 210.661 223.161 218.8 213.2 218.8C210.439 218.8 208.2 216.561 208.2 213.8C208.2 211.039 210.439 208.8 213.2 208.8C217.639 208.8 221.3 205.139 221.3 200.7C221.3 197.939 223.539 195.7 226.3 195.7Z" fill="black"/>
<path fill-rule="evenodd" clip-rule="evenodd" d="M65 213.8C65 211.039 67.2386 208.8 70 208.8H213.2C215.961 208.8 218.2 211.039 218.2 213.8C218.2 216.561 215.961 218.8 213.2 218.8H70C67.2386 218.8 65 216.561 65 213.8Z" fill="black"/>
<path fill-rule="evenodd" clip-rule="evenodd" d="M56.9 195.7C59.6614 195.7 61.9 197.939 61.9 200.7C61.9 205.139 65.5614 208.8 70 208.8C72.7614 208.8 75 211.039 75 213.8C75 216.561 72.7614 218.8 70 218.8C60.0386 218.8 51.9 210.661 51.9 200.7C51.9 197.939 54.1386 195.7 56.9 195.7Z" fill="black"/>
<path fill-rule="evenodd" clip-rule="evenodd" d="M117.372 1.60618C119.246 3.63405 119.122 6.79743 117.094 8.67178L61.9 59.6872V200.7C61.9 203.461 59.6614 205.7 56.9 205.7C54.1386 205.7 51.9 203.461 51.9 200.7V57.5C51.9 56.1056 52.4822 54.7746 53.5062 53.8282L110.306 1.32821C112.334 -0.546145 115.497 -0.421694 117.372 1.60618Z" fill="black"/>
<path fill-rule="evenodd" clip-rule="evenodd" d="M116.3 0C119.061 0 121.3 2.23858 121.3 5V52.3C121.3 55.0614 119.061 57.3 116.3 57.3C113.539 57.3 111.3 55.0614 111.3 52.3V5C111.3 2.23858 113.539 0 116.3 0Z" fill="black"/>
<path fill-rule="evenodd" clip-rule="evenodd" d="M116.432 47.3017C119.192 47.3744 121.371 49.6711 121.298 52.4315C121.128 58.8898 115.89 64.1283 109.432 64.2983C106.671 64.3709 104.374 62.192 104.302 59.4315C104.229 56.6711 106.408 54.3744 109.168 54.3017C110.31 54.2717 111.272 53.3101 111.302 52.1685C111.374 49.408 113.671 47.2291 116.432 47.3017Z" fill="black"/>
<path fill-rule="evenodd" clip-rule="evenodd" d="M51.9 59.3C51.9 56.5386 54.1386 54.3 56.9 54.3H109.3C112.061 54.3 114.3 56.5386 114.3 59.3C114.3 62.0614 112.061 64.3 109.3 64.3H56.9C54.1386 64.3 51.9 62.0614 51.9 59.3Z" fill="black"/>
<path fill-rule="evenodd" clip-rule="evenodd" d="M254.8 124.1C254.8 121.339 257.039 119.1 259.8 119.1H435.7C438.461 119.1 440.7 121.339 440.7 124.1C440.7 126.861 438.461 129.1 435.7 129.1H259.8C257.039 129.1 254.8 126.861 254.8 124.1Z" fill="black"/>
<path fill-rule="evenodd" clip-rule="evenodd" d="M430.7 124.1C430.7 121.339 432.939 119.1 435.7 119.1C449.161 119.1 460 129.939 460 143.4C460 146.161 457.761 148.4 455 148.4C452.239 148.4 450 146.161 450 143.4C450 135.461 443.639 129.1 435.7 129.1C432.939 129.1 430.7 126.861 430.7 124.1Z" fill="black"/>
<path fill-rule="evenodd" clip-rule="evenodd" d="M455 138.4C457.761 138.4 460 140.639 460 143.4V233.4C460 236.161 457.761 238.4 455 238.4C452.239 238.4 450 236.161 450 233.4V143.4C450 140.639 452.239 138.4 455 138.4Z" fill="black"/>
<path fill-rule="evenodd" clip-rule="evenodd" d="M455 228.4C457.761 228.4 460 230.639 460 233.4C460 246.728 449.195 257.7 435.8 257.7C433.039 257.7 430.8 255.461 430.8 252.7C430.8 249.939 433.039 247.7 435.8 247.7C443.605 247.7 450 241.272 450 233.4C450 230.639 452.239 228.4 455 228.4Z" fill="black"/>
<path fill-rule="evenodd" clip-rule="evenodd" d="M19.3 252.7C19.3 249.939 21.5386 247.7 24.3 247.7H435.7C438.461 247.7 440.7 249.939 440.7 252.7C440.7 255.461 438.461 257.7 435.7 257.7H24.3C21.5386 257.7 19.3 255.461 19.3 252.7Z" fill="black"/>
<path fill-rule="evenodd" clip-rule="evenodd" d="M5 228.4C7.76142 228.4 10 230.639 10 233.4C10 241.255 16.3783 247.7 24.3 247.7C27.0614 247.7 29.3 249.939 29.3 252.7C29.3 255.461 27.0614 257.7 24.3 257.7C10.8217 257.7 0 246.745 0 233.4C0 230.639 2.23858 228.4 5 228.4Z" fill="black"/>
<path fill-rule="evenodd" clip-rule="evenodd" d="M5 138.4C7.76142 138.4 10 140.639 10 143.4V233.4C10 236.161 7.76142 238.4 5 238.4C2.23858 238.4 0 236.161 0 233.4V143.4C0 140.639 2.23858 138.4 5 138.4Z" fill="black"/>
<path fill-rule="evenodd" clip-rule="evenodd" d="M24.3 129.1C16.3614 129.1 10 135.461 10 143.4C10 146.161 7.76142 148.4 5 148.4C2.23858 148.4 0 146.161 0 143.4C0 129.939 10.8386 119.1 24.3 119.1C27.0614 119.1 29.3 121.339 29.3 124.1C29.3 126.861 27.0614 129.1 24.3 129.1Z" fill="black"/>
<path d="M299.2 164C303.3 167.4 305.4 172.7 305.4 179.9C305.4 187.1 303.3 192.3 299.1 195.6C294.9 198.9 288.5 200.6 279.8 200.6H269.3V217.9H259.3V158.8H279.6C288.6 158.8 295.1 160.6 299.2 164ZM292.2 188.4C294.2 186.3 295.2 183.2 295.2 179.1C295.2 175 293.9 172.1 291.4 170.4C288.9 168.7 284.9 167.9 279.4 167.9H269.3V191.6H280.9C286.4 191.6 290.1 190.5 292.2 188.4Z" fill="#FCD200"/>
<path d="M361.9 166.6C367.6 171.7 370.4 178.9 370.4 188.1C370.4 197.3 367.6 204.5 362.1 209.9C356.6 215.3 348.1 217.9 336.7 217.9H317.1V158.8H337.4C348 158.8 356.2 161.4 361.9 166.6ZM360.3 188.3C360.3 174.8 352.5 168 337 168H327V208.5H338.1C345.2 208.5 350.7 206.8 354.6 203.4C358.5 200 360.4 195 360.3 188.3Z" fill="#FCD200"/>
<path d="M393.2 168.1V184.4H419.4V193.6H393.2V217.9H383.3V158.8H422.6V168.1H393.2Z" fill="#FCD200"/>
<path fill-rule="evenodd" clip-rule="evenodd" d="M143.4 60.7C146.161 60.7 148.4 62.9386 148.4 65.7V182.5C148.4 185.261 146.161 187.5 143.4 187.5C140.639 187.5 138.4 185.261 138.4 182.5V65.7C138.4 62.9386 140.639 60.7 143.4 60.7Z" fill="#FCD200"/>
<path fill-rule="evenodd" clip-rule="evenodd" d="M183.831 141.96C185.786 143.91 185.79 147.075 183.84 149.031L146.94 186.031C144.99 187.986 141.825 187.99 139.869 186.04C137.914 184.09 137.91 180.925 139.86 178.969L176.76 141.969C178.71 140.014 181.875 140.01 183.831 141.96Z" fill="#FCD200"/>
<path fill-rule="evenodd" clip-rule="evenodd" d="M99.3645 138.464C101.317 136.512 104.483 136.512 106.436 138.464L146.936 178.964C148.888 180.917 148.888 184.083 146.936 186.036C144.983 187.988 141.817 187.988 139.864 186.036L99.3645 145.536C97.4118 143.583 97.4118 140.417 99.3645 138.464Z" fill="#FCD200"/>
</svg>
