<?xml version="1.0" encoding="utf-8"?><svg xmlns="http://www.w3.org/2000/svg" xmlns:xlink="http://www.w3.org/1999/xlink"><symbol fill="none" viewBox="0 0 83 121" id="builder" xmlns="http://www.w3.org/2000/svg"><path d="M78.975 112.941v-11.46a7.81 7.81 0 00-.667-3.222 7.893 7.893 0 00-1.938-2.674L63.01 83.876v26.491m-13.863 9.135l20.502-15.197m-62.683 8.304v-11.377a7.81 7.81 0 01.666-3.222 7.891 7.891 0 011.938-2.674l13.36-11.792v26.491" stroke="#003672" stroke-width="1.5" stroke-miterlimit="10"/><path d="M33.266 14.536V2.163h18.317v12.373" fill="#fff"/><path d="M33.266 14.536V2.163h18.317v12.373" stroke="#003672" stroke-width="1.5" stroke-miterlimit="10"/><path d="M1.672 42.605h79.74v-2.74a3.203 3.203 0 00-.9-2.316 3.308 3.308 0 00-2.293-1.007 5.576 5.576 0 01-3.843-1.692 5.446 5.446 0 01-1.535-3.872v-11.46a8.995 8.995 0 00-2.52-6.228L59.396 1.998a1.01 1.01 0 00-1.158-.262c-.196.083-.36.225-.47.407a.987.987 0 00-.136.602V14.62h-30.5V2.744a.987.987 0 00-.138-.602 1.02 1.02 0 00-1.627-.145l-12.1 12.456a8.995 8.995 0 00-2.52 6.228v9.965a5.446 5.446 0 01-1.535 3.872 5.576 5.576 0 01-3.843 1.692h-.504a3.31 3.31 0 00-2.293 1.007 3.205 3.205 0 00-.9 2.315v3.072z" fill="#fff" stroke="#003672" stroke-width="1.5" stroke-miterlimit="10"/><path d="M16.209 42.522H69.9v28.483a21.381 21.381 0 01-6.374 15.209 21.894 21.894 0 01-15.388 6.3H37.971a21.894 21.894 0 01-15.388-6.3 21.381 21.381 0 01-6.374-15.209V42.522z" fill="#fff" stroke="#003672" stroke-width="1.5" stroke-miterlimit="10"/><path d="M36.71 119.252l-20.502-15.279" stroke="#003672" stroke-width="1.5" stroke-miterlimit="10"/></symbol><symbol fill="none" viewBox="0 0 112 118" id="calc" xmlns="http://www.w3.org/2000/svg"><g clip-path="url(#ba)"><path d="M.68 14.125h109.64v70.88a5.871 5.871 0 01-5.86 5.872H6.54a5.854 5.854 0 01-4.144-1.72 5.877 5.877 0 01-1.717-4.151V14.125z" fill="#fff" stroke="#003672" stroke-width="1.5" stroke-miterlimit="10"/><path d="M4.076 4.34h8.238v67.647H.68V7.743c0-.902.358-1.768.995-2.406a3.394 3.394 0 012.402-.997zm106.245 67.647H98.686V4.34h8.238c.901 0 1.765.358 2.402.996.637.639.995 1.504.995 2.407v64.244zm-19.194 33.355l-74.736-1.361a6.35 6.35 0 00-4.554 1.748 6.382 6.382 0 00-1.985 4.463 6.391 6.391 0 001.985 4.464 6.366 6.366 0 004.554 1.748l74.736-1.361c3.652 0 10.276-1.362 12.399-4.851-2.038-3.403-8.747-4.85-12.399-4.85z" fill="#fff" stroke="#003672" stroke-width="1.5" stroke-miterlimit="10"/><path d="M20.128 103.981h-1.359v12.287h1.359v-12.287zm73.632 1.106H92.4v10.033h1.36v-10.033z" fill="#003672"/><path d="M79.322.68h-47.05v72.456h47.05V.68z" fill="#fff" stroke="#003672" stroke-width="1.5" stroke-miterlimit="10"/><path d="M73.123 10.296H38.557v53.216h34.566V10.296z" fill="#fff" stroke="#003672" stroke-width="1.5" stroke-miterlimit="10"/><path d="M73.123 10.296H38.557v22.098h34.566V10.296zm0 32.59H38.557v10.568h34.566V42.886zm0 10.891H38.557v10.569h34.566V53.777z" fill="#fff" stroke="#003672" stroke-width="1.5" stroke-miterlimit="10"/><path d="M58.685 32.334h-9.682v10.569h9.682V32.334zm14.437 0H58.685v10.569h14.437V32.334z" fill="#fff" stroke="#003672" stroke-width="1.5" stroke-miterlimit="10"/><path d="M61.487 42.886h-12.4v10.568h12.4V42.886zm-.085 10.891h-12.4v10.569h12.4V53.777z" fill="#fff" stroke="#003672" stroke-width="1.5" stroke-miterlimit="10"/></g><defs><clipPath id="ba"><path fill="#fff" d="M0 0h111.949v118H0z"/></clipPath></defs></symbol><symbol fill="none" viewBox="0 0 118 118" id="crane" xmlns="http://www.w3.org/2000/svg"><g clip-path="url(#ca)" stroke="#003672" stroke-width="1.5" stroke-miterlimit="10"><path d="M101.78 68.826H71.124v25.475h30.656V68.826zm-51.498-3.453H21.41v29.134h28.872V65.373zM93.021 54.6c5.758-1.644 8.029-3.535 8.029-7.976 0-5.92-7.218-10.772-16.058-10.772s-16.057 4.852-16.057 10.772c0 4.44 2.108 6.25 7.785 7.977M26.763 20.969v5.345H76.68v-5.345H26.763zm-8.678-9.375v5.674h52.31v-5.674h-52.31zm6.569 15.048L8.678 39.06l20.031 26.15 15.977-12.417-20.032-26.15z"/><path d="M113.54 94.482H4.542c-2.15 0-3.893 1.767-3.893 3.947v15.015c0 2.18 1.743 3.947 3.893 3.947H113.54c2.149 0 3.892-1.767 3.892-3.947V98.429c0-2.18-1.743-3.947-3.892-3.947z" fill="#fff"/><path d="M17.436 99.005h-5.595V112.4h5.595V99.005zm14.842 0h-5.596V112.4h5.596V99.005zm14.922 0h-5.596V112.4H47.2V99.005zm14.841 0h-5.596V112.4h5.596V99.005zm14.923 0h-5.596V112.4h5.596V99.005zm14.922 0H86.29V112.4h5.596V99.005zm14.841 0h-5.596V112.4h5.596V99.005z"/><path d="M35.846 78.612c7.973 0 14.436-6.516 14.436-14.555 0-8.038-6.463-14.555-14.436-14.555S21.41 56.02 21.41 64.057s6.463 14.555 14.436 14.555zM16.301 40.704c7.973 0 14.436-6.517 14.436-14.555S24.274 11.594 16.3 11.594 1.865 18.111 1.865 26.15s6.463 14.555 14.436 14.555zm69.016-10.032c9.047 0 16.382-6.738 16.382-15.048 0-8.311-7.335-15.048-16.382-15.048-9.048 0-16.382 6.737-16.382 15.048 0 8.31 7.334 15.048 16.382 15.048z" fill="#fff"/><path d="M93.508 27.958H76.72v8.766h16.788v-8.766z" fill="#fff"/></g><defs><clipPath id="ca"><path fill="#fff" d="M0 0h118v118H0z"/></clipPath></defs></symbol><symbol fill="none" viewBox="0 0 98 117" id="hand" xmlns="http://www.w3.org/2000/svg"><g clip-path="url(#da)"><path d="M44.019 56.13L23.463 68.04l16.14 28.054 20.556-11.91-16.14-28.055zm38.533 4.187l1.046.565s1.77 2.826 1.77 3.391c.208 1.145.262 2.313.16 3.472a3.232 3.232 0 01-1.045 1.777l-2.897 2.503-.402.403a3.622 3.622 0 01-2.541 1.16 3.61 3.61 0 01-2.608-.998l-6.276-6.056 9.253-6.056a3.291 3.291 0 013.54-.161z" fill="#fff"/><path fill-rule="evenodd" clip-rule="evenodd" d="M82.177 60.966a2.54 2.54 0 00-2.733.125l-.01.008-8.478 5.548 5.596 5.4.002.002a2.868 2.868 0 002.066.79 2.86 2.86 0 002.013-.92l.01-.01.432-.433 2.917-2.521c.398-.345.676-.808.794-1.323a12.32 12.32 0 00-.156-3.225l-.012-.066v-.026a1.186 1.186 0 00-.03-.09 4.747 4.747 0 00-.172-.395c-.155-.321-.367-.71-.585-1.093a44.238 44.238 0 00-.766-1.29l-.87-.47.357-.66-.375.65zm.74-1.304a4.039 4.039 0 00-4.326.195l-10.03 6.564 6.953 6.709.003.003a4.37 4.37 0 003.15 1.206 4.36 4.36 0 003.058-1.39l.373-.375 2.875-2.485a3.985 3.985 0 001.29-2.189l.01-.044.003-.045a13.79 13.79 0 00-.162-3.626 1.877 1.877 0 00-.118-.479 6.184 6.184 0 00-.229-.527c-.177-.367-.408-.79-.632-1.184a45.949 45.949 0 00-.823-1.385l-.058-.092-.015-.025-.005-.008-.636.397.636-.397-.105-.169-1.212-.654z" fill="#003672"/><path d="M73.38 64.677s6.195-6.46 6.195-6.783a7.05 7.05 0 00.241-2.664c-.24-.966-.62-1.89-1.127-2.745l-.402-.727a5.318 5.318 0 00-2.333-2.18l-.885-.404a2.807 2.807 0 00-2.736.242l-8.287 5.814 9.414 9.447" fill="#fff"/><path fill-rule="evenodd" clip-rule="evenodd" d="M73.603 48.19a3.558 3.558 0 011.773.3l.004.002.898.409a6.067 6.067 0 012.662 2.488l.004.005.396.718c.542.915.947 1.904 1.204 2.937l.013.052.005.053a7.799 7.799 0 01-.289 3.022.976.976 0 01-.056.123 1.628 1.628 0 01-.097.154 5.247 5.247 0 01-.23.3c-.18.22-.431.509-.724.837-.587.658-1.366 1.5-2.141 2.33a393.397 393.397 0 01-2.837 2.997l-.267.279-.5-.48-.493.49-10.043-10.078 9.025-6.331a3.56 3.56 0 011.694-.606zm-.196 15.372a473.387 473.387 0 002.522-2.668c.774-.826 1.543-1.659 2.118-2.303.288-.323.522-.592.68-.787.068-.082.115-.144.147-.186a6.3 6.3 0 00.2-2.26 9.443 9.443 0 00-1.03-2.49l-.005-.01-.406-.734a4.567 4.567 0 00-1.997-1.867l-.875-.4h-.001a2.057 2.057 0 00-2 .176l-7.554 5.299 8.201 8.23z" fill="#003672"/><path d="M20.839 13.162L10.78 2.746a1.13 1.13 0 01-.356-1.314 1.13 1.13 0 011.161-.705l7.483-.162a11.632 11.632 0 015.35 1.182 11.677 11.677 0 014.224 3.502l6.115 8.074a14.422 14.422 0 012.655 10.981v.727a5.671 5.671 0 001.61 5.007l55.356 53.857a10.527 10.527 0 013.138 7.51v1.533a8.09 8.09 0 01-2.333 5.652l-3.058 3.149a5.386 5.386 0 01-3.862 1.636 5.373 5.373 0 01-3.862-1.636L26.954 43.441l-1.77-1.615a9.001 9.001 0 00-4.104-2.18c-1.368-.323-3.299-.807-5.31-1.534a16.317 16.317 0 01-5.31-2.988l-4.99-4.118C2.172 27.454.321 23.982.643 19.541l.403-6.702a1.133 1.133 0 01.744-1.092 1.122 1.122 0 011.267.365l8.85 9.528a6.116 6.116 0 004.683 2.004 6.098 6.098 0 004.57-2.246 6.231 6.231 0 00-.321-8.236z" fill="#fff"/><path fill-rule="evenodd" clip-rule="evenodd" d="M19.084 1.315l-7.529.163-.046-.005a.373.373 0 00-.388.236.385.385 0 00.12.444l.043.033L21.38 12.644a6.982 6.982 0 01.36 9.228 6.847 6.847 0 01-10.387.276l-8.868-9.549-.019-.024a.376.376 0 00-.671.245v.032l-.404 6.743C1.092 23.733 2.785 27 5.987 30.46l4.956 4.09a15.568 15.568 0 005.066 2.851l.008.003.008.003c1.97.711 3.867 1.188 5.226 1.509a9.75 9.75 0 014.444 2.361l1.779 1.624 57.466 58.316a4.64 4.64 0 003.324 1.408 4.637 4.637 0 003.324-1.408l3.058-3.15.004-.004a7.339 7.339 0 002.117-5.126v-1.533a9.75 9.75 0 00-2.913-6.974L38.5 30.574l-.003-.002a6.404 6.404 0 01-1.833-5.604v-.727l.01-.06a13.673 13.673 0 00-2.515-10.408l-.002-.003-6.114-8.074A10.926 10.926 0 0024.09 2.42a10.883 10.883 0 00-5.006-1.105zm1.495 19.609a5.481 5.481 0 00-.281-7.243l-.002-.001L10.274 3.3a1.88 1.88 0 011.337-3.324l7.442-.16c1.97-.041 3.924.39 5.696 1.257A12.426 12.426 0 0129.244 4.8l6.116 8.075a15.172 15.172 0 012.804 11.49v.73l-.011.064a4.922 4.922 0 001.394 4.342l.001.002L94.905 83.36a11.25 11.25 0 013.362 8.045v1.535a8.839 8.839 0 01-2.548 6.174l.003-.002-.538-.523.533.528-3.052 3.144a6.147 6.147 0 01-4.4 1.863 6.126 6.126 0 01-4.4-1.862l.003.003.534-.527-.538.523-57.43-58.28.014.013.506-.554-.534.527.014.014-1.761-1.606a8.252 8.252 0 00-3.762-2h-.003c-1.375-.324-3.335-.816-5.385-1.556l.008.003.239-.711-.255.705.008.003a17.068 17.068 0 01-5.544-3.12l.003.003.478-.579-.484.574-5.02-4.145-.035-.036C1.55 27.885-.446 24.218-.105 19.49v.005l.748.045-.748-.055v.005l.4-6.67.001.036.75-.018-.749-.045-.002.027a1.883 1.883 0 011.24-1.78 1.873 1.873 0 012.09.58l-.018-.02-.55.511.59-.463a2.235 2.235 0 00-.022-.027l8.838 9.514a5.367 5.367 0 004.107 1.758 5.348 5.348 0 004.01-1.97z" fill="#003672"/><path d="M55.839 45.136a2.093 2.093 0 001.666.64 2.085 2.085 0 001.552-.882 60.099 60.099 0 003.702-5.733c.482-1.13-1.368-3.391-2.012-4.199l-.483-.403c-.965-.646-4.425-2.745-4.908-2.745-1.2.087-2.386.303-3.54.645-.241.162-1.61 2.02-2.655 3.392a2.105 2.105 0 00.241 2.745l6.437 6.54z" fill="#fff"/><path fill-rule="evenodd" clip-rule="evenodd" d="M58.005 32.295a58.938 58.938 0 012.676 1.64l.034.023.571.478.047.059.066.082c.334.417.94 1.176 1.42 1.979.256.429.497.902.637 1.37.137.45.214 1.01-.008 1.53l-.016.039-.021.037a60.868 60.868 0 01-3.744 5.8 2.843 2.843 0 01-3.335 1.012 2.84 2.84 0 01-1.031-.685l-6.427-6.53a2.853 2.853 0 01-.32-3.718l.005-.007.005-.008c.227-.297.474-.625.723-.955.314-.415.63-.833.908-1.196.252-.33.485-.628.67-.855a7.92 7.92 0 01.255-.299c.055-.06.161-.176.279-.255l.095-.063.109-.033a17.44 17.44 0 013.699-.675l.027-.002h.027c.142 0 .268.034.339.056.084.025.172.058.256.092.17.07.368.165.58.272.425.216.946.506 1.474.812zm-2.699.274l.075.03c.116.047.275.122.47.221.39.198.884.473 1.403.773a58.742 58.742 0 012.56 1.567l.394.33.013.016c.337.422.885 1.108 1.31 1.82.227.378.399.732.49 1.032.082.275.072.422.056.485a59.368 59.368 0 01-3.625 5.61l-.008.01a1.345 1.345 0 01-.995.566 1.334 1.334 0 01-1.068-.41l-6.45-6.556-.007-.006a1.353 1.353 0 01-.16-1.76c.236-.31.483-.637.728-.962.308-.407.613-.812.893-1.178.25-.326.471-.609.642-.818a7.28 7.28 0 01.179-.212 15.935 15.935 0 013.1-.558z" fill="#003672"/><path d="M59.62 48.932l3.3 3.31a2.571 2.571 0 003.299.323l1.609-1.13.16-.162 3.058-2.503c.446-.374.757-.884.885-1.453l.242-.969a2.675 2.675 0 00-.322-2.019l-.885-1.453a9.103 9.103 0 00-3.701-3.391l-1.288-.646a2.566 2.566 0 00-1.126-.242 2.567 2.567 0 00-2.253 1.291l-3.38 5.733a2.673 2.673 0 00.403 3.31z" fill="#fff"/><path fill-rule="evenodd" clip-rule="evenodd" d="M64.849 37.846c.5-.005.994.102 1.446.314l.01.004 1.294.65h.001a9.854 9.854 0 014.005 3.67l.001.002.884 1.45v.002a3.422 3.422 0 01.412 2.584l-.002.007-.24.962a3.417 3.417 0 01-1.131 1.854l-.008.006-3.028 2.479-.18.18-1.669 1.173a3.318 3.318 0 01-4.258-.414l-3.293-3.305a3.418 3.418 0 01-.517-4.23l3.374-5.723a3.33 3.33 0 012.899-1.665zM59.62 48.932l.531-.53 3.305 3.317a1.821 1.821 0 002.333.23l1.553-1.09.141-.142 3.083-2.524a1.92 1.92 0 00.633-1.041l.001-.008.243-.973a1.924 1.924 0 00-.232-1.45l-.002-.002-.884-1.451v-.001a8.354 8.354 0 00-3.396-3.111l-.002-.001-1.277-.641a1.817 1.817 0 00-.79-.168h-.017a1.818 1.818 0 00-1.596.916l-.004.007-3.383 5.74-.004.006a1.922 1.922 0 00.289 2.381l-.525.536z" fill="#003672"/><path d="M45.942 95.28l8.61-3.15 10.7-1.534 4.426-2.745L48.195 66.05l-3.781-3.876" fill="#fff"/><path fill-rule="evenodd" clip-rule="evenodd" d="M48.732 65.526l22.14 22.467-5.357 3.323-10.78 1.546-8.535 3.122-.515-1.409 8.682-3.176 10.624-1.523 3.494-2.168-20.827-21.135-3.781-3.875 1.073-1.048 3.782 3.876z" fill="#003672"/><path d="M42.644 69.28a23.378 23.378 0 002.092-4.845 25.52 25.52 0 00-.483-15.18h.08l7.644 5.813a15.172 15.172 0 008.61 3.068h.804a3.369 3.369 0 002.687-1.234 3.396 3.396 0 00.692-2.884 4.446 4.446 0 00-1.367-2.503L46.506 35.528a5.694 5.694 0 00-5.954-1.211l-9.977 3.714a5.877 5.877 0 00-2.74 2.156 5.91 5.91 0 00-1.042 3.335v12.757a19.26 19.26 0 01-4.827 12.758h-.08l24.86 26.243" fill="#fff"/><path fill-rule="evenodd" clip-rule="evenodd" d="M40.288 33.614a6.443 6.443 0 016.735 1.37v.001l16.891 15.982a5.196 5.196 0 011.592 2.907 4.154 4.154 0 01-.848 3.504 4.132 4.132 0 01-3.275 1.508h-.824a15.923 15.923 0 01-9.034-3.22h-.002l-5.915-4.5a26.273 26.273 0 01-.15 13.469l-.002.009-.003.008a24.124 24.124 0 01-2.159 5l-1.3-.746a22.63 22.63 0 002.022-4.68 24.77 24.77 0 00-.471-14.726l-.346-.996h1.387l7.844 5.966a14.425 14.425 0 008.17 2.916h.808a2.62 2.62 0 002.09-.96 2.645 2.645 0 00.54-2.247l-.004-.016-.002-.015a3.693 3.693 0 00-1.137-2.08l-.008-.008L45.99 36.072l-.002-.002a4.955 4.955 0 00-5.17-1.052l-.004.001-9.974 3.714a5.127 5.127 0 00-2.387 1.88 5.158 5.158 0 00-.91 2.91v12.756a20.01 20.01 0 01-4.606 12.777l24.355 25.707-1.09 1.032-26.06-27.508h1.482c2.85-3.343 4.42-7.6 4.42-12.008V43.52a6.658 6.658 0 011.173-3.757 6.627 6.627 0 013.09-2.432l.006-.002 9.973-3.713h.002z" fill="#003672"/><path d="M52.138 101.093l-33.15-36.012-15.85 15.018 33.069 36.013 15.93-15.019z" fill="#fff"/><path fill-rule="evenodd" clip-rule="evenodd" d="M19.025 64.013L53.19 101.13l-17.023 16.049L2.086 80.063l16.939-16.05zM4.19 80.136l32.055 34.909 14.839-13.989-32.132-34.908L4.19 80.136z" fill="#003672"/></g><defs><clipPath id="da"><path fill="#fff" d="M0 0h98v117H0z"/></clipPath></defs></symbol><symbol fill="none" viewBox="0 0 200 124" id="mech-icon-1" xmlns="http://www.w3.org/2000/svg"><g clip-path="url(#ea)" stroke="#003672" stroke-width="2" stroke-miterlimit="10"><path d="M56-1v26.23h87.975V-1m-66.13 46.798L69.703 25.23m56.498 14.706l8.738-14.706m-11.816 37.161v11.824H77.845V62.39h-8.142V48.282h63.648v13.016H89.065M101.576 123v-13.811l-12.51-9.34V74.216h25.319V99.55l-12.809 9.638"/></g><defs><clipPath id="ea"><path fill="#fff" d="M0 0h200v124H0z"/></clipPath></defs></symbol><symbol fill="none" viewBox="0 0 200 124" id="mech-icon-2" xmlns="http://www.w3.org/2000/svg"><g clip-path="url(#fa)"><path d="M169.264 101.769H31.424v23.185h137.84v-23.185z" stroke="#003672" stroke-width="2" stroke-miterlimit="10"/><path d="M169.264 101.865H31.424L51.187 43.64h101.53l16.548 58.225z" stroke="#003672" stroke-width="2" stroke-miterlimit="10"/><path d="M133.733 43.64H70.557l-7.982 48.25h78.654l-7.496-48.25zM87.69 91.89l4.38-48.25m24.142 48.25l-4.284-48.25" stroke="#003672" stroke-width="2" stroke-miterlimit="10"/><path d="M62.575 17.453h-5.452v45.15h5.452v-45.15zm84.105 0h-5.451v45.15h5.451v-45.15z" fill="#fff" stroke="#003672" stroke-width="2" stroke-miterlimit="10"/><path d="M25 .954h152.344m-20.832 16.403H120.3m-73.106 0h35.531m0 18.8V11.985H120.3v24.172H82.725z" stroke="#003672" stroke-width="2" stroke-miterlimit="10"/><path d="M101.61 61.001V54l-6.814-4.796V36.157h13.92v12.95l-7.106 4.892" fill="#fff"/><path d="M101.61 61.001V54l-6.814-4.796V36.157h13.92v12.95l-7.106 4.892" stroke="#003672" stroke-width="2" stroke-miterlimit="10"/><path d="M103.167 52.944h-2.823v8.067h2.823v-8.067z" fill="#003374"/></g><defs><clipPath id="fa"><path fill="#fff" d="M0 0h200v124H0z"/></clipPath></defs></symbol><symbol fill="none" viewBox="0 0 200 124" id="mech-icon-3" xmlns="http://www.w3.org/2000/svg"><g clip-path="url(#ga)" stroke="#003672" stroke-width="2" stroke-miterlimit="10"><path d="M114.342 89.725l-12.889 11.849m20.477 8.627c13.604 0 24.633-11.308 24.633-25.257 0-13.95-11.029-25.258-24.633-25.258-13.605 0-24.634 11.309-24.634 25.258 0 13.95 11.029 25.257 24.634 25.257z"/><path d="M121.93 126c22.1 0 40.017-18.381 40.017-41.056 0-22.675-17.917-41.056-40.017-41.056S81.913 62.269 81.913 84.944c0 22.675 17.916 41.056 40.017 41.056zM42 47.526V2h55.296v37.522h-37.21l-6.757 6.964H42"/><path d="M112.367 126H45.43V35.572h35.548L112.367 126z" fill="#fff"/><path d="M112.783 7.405h46.149v31.39h-46.149a9.251 9.251 0 01-9.251-9.25V16.551a9.253 9.253 0 019.251-9.147zm9.147 87.413c5.281 0 9.562-4.421 9.562-9.874 0-5.454-4.281-9.875-9.562-9.875-5.282 0-9.563 4.421-9.563 9.875 0 5.453 4.281 9.874 9.563 9.874zm5.405-17.982l10.705-11.121m-18.397 9.666l-2.806-15.798m-3.015 21.516l-14.551-7.172m22.555 20.787l-.624 14.76m10.082-23.803l15.072.832m-17.462 5.093l11.017 10.394M97.296 33.806h7.172m12.369 4.988V44.2m37.418-6.237v22.763"/></g><defs><clipPath id="ga"><path fill="#fff" d="M0 0h200v124H0z"/></clipPath></defs></symbol><symbol fill="none" viewBox="0 0 128 109" id="mech-icon-4" xmlns="http://www.w3.org/2000/svg"><g clip-path="url(#ha)" stroke="#003672" stroke-width="2" stroke-miterlimit="10"><path d="M56.8 1h15.6v7.4l8.5 4.3 5.5-4.8 9.9 9.8-4.2 5.7 4.2 8.9h5.7V47h-6l-4.2 9.7 4.5 4.6-10.7 10.4-3.8-4.9L71.7 70v7H56.8v-6.9l-8.2-4.5-6 5.4-10.1-10.6 5.4-4.7-4-9.7h-6.7V30.8h6.2l3.3-7.7-4.3-5.5 11.4-9.9 4.8 5 8.4-4-.2-7.7z"/><path d="M64.6 52.8c7.622 0 13.8-6.178 13.8-13.8 0-7.621-6.178-13.8-13.8-13.8-7.621 0-13.8 6.179-13.8 13.8 0 7.622 6.178 13.8 13.8 13.8zm61.7 43.7H1v11.46h125.3V96.5zm-73.7-9.1h-4.2v9h4.2v-9zm24 0h-4.2v9h4.2v-9zm25.7 0h-4.2v9h4.2v-9zm24 0h-4.2v9h4.2v-9zm-121.1 0H1v9h4.2v-9zm24 0H25v9h4.2v-9z"/></g><defs><clipPath id="ha"><path fill="#fff" d="M0 0h127.3v109H0z"/></clipPath></defs></symbol><symbol fill="none" viewBox="0 0 200 124" id="mech-icon-5" xmlns="http://www.w3.org/2000/svg"><g clip-path="url(#ia)"><path d="M82.276 86.504h-4.604L49 115.07V127h75.342l30.345-30.346v-10.15h-24.276" stroke="#003672" stroke-width="2" stroke-miterlimit="10"/><path d="M49 116.222h74.818V127m18.417-30.241H67.312m4.186 7.638l7.22-7.22m3.035 7.22l7.325-7.22m4.499 7.22l7.22-7.22m3.977 7.22l7.22-7.22m3.662 7.22l7.325-7.22m4.186 7.22l7.22-7.22m10.883-68.226l6.592-8.267L129.469 3l-25.637 32.334a17.904 17.904 0 00-3.767 13.185l3.453 11.406" stroke="#003672" stroke-width="2" stroke-miterlimit="10"/><path d="M137.945 26.335l7.639 6.07a9.42 9.42 0 013.453 6.278l.523 4.918a9.417 9.417 0 01-1.988 6.907L135.747 65.47a13.912 13.912 0 01-7.534 4.814l-9.522.314 3.767-4.081c4.186-4.29 4.918-4.081 2.825-7.22l-8.266-6.384c-3.349-2.72-7.011-4.5-9.313-1.57l-4.5 7.535" fill="#fff"/><path d="M137.945 26.335l7.639 6.07a9.42 9.42 0 013.453 6.278l.523 4.918a9.417 9.417 0 01-1.988 6.907L135.747 65.47a13.912 13.912 0 01-7.534 4.814l-9.522.314 3.767-4.081c4.186-4.29 4.918-4.081 2.825-7.22l-8.266-6.384c-3.349-2.72-7.011-4.5-9.313-1.57l-4.5 7.535" stroke="#003672" stroke-width="2" stroke-miterlimit="10"/><path d="M133.759 32.195l5.023 3.976a14.555 14.555 0 015.441 9.732l.942 8.162m-16.429-16.952l5.023 3.977a14.533 14.533 0 015.441 9.732l.942 8.161m-15.905-16.115l5.023 3.976a14.555 14.555 0 015.441 9.732l.942 8.162" stroke="#003672" stroke-width="2" stroke-miterlimit="10"/><path d="M82.75 71.125l28.95 23.277-8.261 10.275a5.758 5.758 0 01-8.092.879L75.45 89.558a5.755 5.755 0 01-.88-8.092l8.262-10.275-.081-.066zm22.128 17.367l21.242-26.474a1.569 1.569 0 00-.313-2.302l-13.29-9.523a.939.939 0 00-1.36.21L90.019 76.668l14.859 11.824z" fill="#fff" stroke="#003672" stroke-width="2" stroke-miterlimit="10"/></g><defs><clipPath id="ia"><path fill="#fff" d="M0 0h200v124H0z"/></clipPath></defs></symbol><symbol fill="none" viewBox="0 0 200 124" id="mech-icon-6" xmlns="http://www.w3.org/2000/svg"><g clip-path="url(#ja)" stroke="#003672" stroke-width="2" stroke-miterlimit="10"><path d="M130.897 53.58c14.405 0 26.083-11.547 26.083-25.79C156.98 13.547 145.302 2 130.897 2c-14.405 0-26.082 11.546-26.082 25.79 0 14.243 11.677 25.79 26.082 25.79z"/><path d="M130.897 32.742c2.766 0 5.008-2.217 5.008-4.952s-2.242-4.952-5.008-4.952-5.008 2.217-5.008 4.952 2.242 4.952 5.008 4.952zm-28.899-17.228c-5.947 11.657-2.4 26.925 11.059 36.725 13.458 9.8 30.986 9.387 39.854-.31"/><path d="M101.268 39.137l-52.479 61.174c-1.565 1.753-1.669 4.126-.417 5.158l20.449 17.227c1.252 1.032 3.547.516 5.112-1.238l54.252-61.998"/><path d="M60 115.08l-3.666-3.063L47 122.937 50.666 126l9.333-10.92z"/></g><defs><clipPath id="ja"><path fill="#fff" d="M0 0h200v124H0z"/></clipPath></defs></symbol><symbol fill="none" viewBox="0 0 200 124" id="mech-icon-7" xmlns="http://www.w3.org/2000/svg"><g clip-path="url(#ka)" stroke="#003672" stroke-width="2" stroke-miterlimit="10"><path d="M22 66.546h41.262a8.636 8.636 0 018.53 6.824l3.412 15.246a45.519 45.519 0 006.397 15.14l11.409 17.38A13.003 13.003 0 00103.885 127a13.012 13.012 0 0010.662-5.544l13.754-19.619a45.507 45.507 0 005.651-10.982l6.61-18.552a8.635 8.635 0 018.21-5.757h39.023"/><path d="M87.678 3v88.495l17.166 20.578 17.486-21.857V3"/><path d="M87.678 66.332a4.479 4.479 0 001.28 7.57l32.626 14.288a2.346 2.346 0 002.879-3.305l-2.133-3.306M87.678 46.501a4.478 4.478 0 001.28 7.57l32.626 14.287a2.347 2.347 0 002.879-3.305l-2.133-3.305M87.678 27.203a4.479 4.479 0 001.28 7.57l32.626 14.287a2.346 2.346 0 002.879-3.305l-2.133-3.305M87.678 9.078a4.478 4.478 0 001.28 7.57l32.626 14.287a2.346 2.346 0 002.879-3.305l-2.133-3.306"/></g><defs><clipPath id="ka"><path fill="#fff" d="M0 0h200v124H0z"/></clipPath></defs></symbol><symbol fill="none" viewBox="0 0 154 121" id="mechanics-icon" xmlns="http://www.w3.org/2000/svg"><g clip-path="url(#la)"><path d="M103.821 8.463H51.165v10.552h52.656V8.463z" fill="#fff" stroke="#003672" stroke-width="2" stroke-miterlimit="10"/><path d="M111.857 19.015H43.975v26.979h67.882v-26.98zM46.618 46.037h61.221v11.495c0 2.047-1.002 4.011-2.787 5.459-1.785 1.448-4.205 2.261-6.73 2.261H56.135c-2.524 0-4.944-.813-6.729-2.261-1.784-1.448-2.787-3.412-2.787-5.46V46.038zm45.678 19.215H63.113v38.465h29.183V65.252z" fill="#fff" stroke="#003672" stroke-width="2" stroke-miterlimit="10"/><path d="M16.906 62.078h-6.238v5.078h6.238v-5.078zm13.217-17.157h-6.238V50h6.238v-5.08zm10.468 23.505h-6.238v5.078h6.238v-5.078zm99.181.858h6.238v-5.079h-6.238v5.079zM126.66 52.213h6.239v-5.078h-6.239v5.078zm-10.573 23.505h6.238v-5.079h-6.238v5.079z" fill="#AE0808"/><path d="M10.668 84.296h29.606l22.522 19.473H92.19l21.042-19.816h33.624m-83.743-3.518l29.183-6.862M63.113 96.306l29.183-8.15M.2 1.857h151.943M1.257 121.097H153.2" stroke="#003672" stroke-width="2" stroke-miterlimit="10"/></g><defs><clipPath id="la"><path fill="#fff" transform="translate(.2)" d="M0 0h153v121H0z"/></clipPath></defs></symbol><symbol fill="none" viewBox="0 0 200 124" id="metal-icon-1" xmlns="http://www.w3.org/2000/svg"><path d="M95.768 119.609l-11.537-9.575V76.116l11.537 4.074v39.419zM81.99 70.106l63.178-46.244 49.624 42.373-12.21-.305-37.638-30.66-48.392 34.632v3.158L81.99 70.106zm108.322 16.806l-7.281 14.464V71.328h7.281v15.584z" stroke="#003672" stroke-width="2" stroke-miterlimit="10"/><path d="M129.486 65.42h-2.352v37.892h2.352V65.42z" fill="#003672"/><path d="M161.101 99.594l-31.702 2.421.095 1.025 31.702-2.421-.095-1.025z" fill="#003672"/><path d="M59.586 60.633l57.802-44.105M92.856 10.01L35.054 52.077v51.235m43.912-36.873L7.834 44.132m51.752 16.501v51.031m17.251 5.297L6.154 93.533m73.708-1.12L9.29 68.883m135.99-45.021L67.428 4m51.416 38.502L40.992 20.603m92.191 57.957h11.425v19.251m4.481-20.575h9.186v17.316m-22.852-25.261h9.185v5.093m4.481-6.316h9.186v4.991" stroke="#003672" stroke-width="2" stroke-miterlimit="10"/></symbol><symbol fill="none" viewBox="0 0 200 124" id="metal-icon-2" xmlns="http://www.w3.org/2000/svg"><g clip-path="url(#na)"><path d="M87.51 69.414L72.867 54.46 52.5 74.405 67.143 89.36 87.51 69.414z" fill="#fff"/><path d="M92.763 103.525l-.275 1.006a16.388 16.388 0 01-2.467 2.285 11.45 11.45 0 01-2.925.914 2.835 2.835 0 01-1.737-.549l-2.741-1.919-.457-.274a3.21 3.21 0 01-1.562-1.925 3.2 3.2 0 01.282-2.462l3.839-6.672 7.22 6.58a2.927 2.927 0 01.823 3.016z" fill="#fff" stroke="#003672" stroke-width="2" stroke-miterlimit="10"/><path d="M87.096 96.67s6.855 3.931 7.129 3.839a6.216 6.216 0 002.285-.365 8.97 8.97 0 002.102-1.554l.548-.457a4.749 4.749 0 001.371-2.468l.183-.822a2.464 2.464 0 00-.823-2.285L93.128 86.8l-6.032 9.87zM99.8 77.386a1.828 1.828 0 00.914 2.742 52.884 52.884 0 005.667 1.92c1.097.182 2.65-1.92 3.107-2.651l.274-.457a31.52 31.52 0 001.28-4.753 14.826 14.826 0 00-1.371-2.925l-3.473-1.462a1.828 1.828 0 00-2.285.731L99.8 77.386zm-2.376 4.021l-2.102 3.565a2.285 2.285 0 00.457 2.924l1.28 1.097h.182l2.833 2.102c.421.316.937.478 1.463.457h.822a2.375 2.375 0 001.645-.731l1.097-1.097a8.038 8.038 0 002.102-3.93l.274-1.188a2.274 2.274 0 000-1.005 2.282 2.282 0 00-1.553-1.645l-5.667-1.646a2.285 2.285 0 00-2.833 1.097z" fill="#fff" stroke="#003672" stroke-width="2" stroke-miterlimit="10"/><path d="M54.925 79.945l4.57 6.672 3.655 8.774 3.29 3.199 13.893-23.124 2.468-4.112" fill="#fff"/><path d="M54.925 79.945l4.57 6.672 3.655 8.774 3.29 3.199 13.893-23.124 2.468-4.112" stroke="#003672" stroke-width="2" stroke-miterlimit="10"/><path d="M101.573 46.09l11.538 7.9a2.469 2.469 0 01.642 3.43l-38.468 56.183a2.927 2.927 0 01-4.066.761l-10.709-7.332a2.925 2.925 0 01-.76-4.066l38.468-56.182a2.467 2.467 0 013.431-.642l-.076-.051zM51.36 86.434l23.306-36.193-16.268-10.236L35 76.198l16.36 10.236z" fill="#fff" stroke="#003672" stroke-width="2" stroke-miterlimit="10"/><path d="M76.311 71.354c1.491.415 3.024.66 4.57.73a22.392 22.392 0 0012.887-3.746h.091l-3.199 7.86a13.435 13.435 0 00-.73 8.043l.182.64a3.016 3.016 0 004.204 2.01 3.838 3.838 0 001.828-1.736l9.871-17.914a5.03 5.03 0 00-.274-5.301l-5.393-7.769a5.207 5.207 0 00-5.575-2.01l-10.876 2.833a16.909 16.909 0 01-11.973-1.371h-.091L55.107 80.585" fill="#fff"/><path d="M76.311 71.354c1.491.415 3.024.66 4.57.73a22.392 22.392 0 0012.887-3.746h.091l-3.199 7.86a13.435 13.435 0 00-.73 8.043l.182.64a3.016 3.016 0 004.204 2.01 3.838 3.838 0 001.828-1.736l9.871-17.914a5.03 5.03 0 00-.274-5.301l-5.393-7.769a5.207 5.207 0 00-5.575-2.01l-10.876 2.833a16.909 16.909 0 01-11.973-1.371h-.091L55.107 80.585" stroke="#003672" stroke-width="2" stroke-miterlimit="10"/><path d="M120.95 35.352l-5.203-3.563-10.358 15.127 5.203 3.563 10.358-15.127zm-13.93-3.938L87.462 21.177l26.596 5.118-6.306-17.09 11.79 13.983L127.676 5l-3.473 22.118 15.72-7.129-10.51 10.693m-5.758 19.011l29.703-28.424H164.6V89.45l-29.978 29.978h-10.967V49.693z" stroke="#003374" stroke-width="2" stroke-miterlimit="10"/><path d="M135.445 39.09h12.887v66.629" stroke="#003374" stroke-width="2" stroke-miterlimit="10"/></g><defs><clipPath id="na"><path fill="#fff" d="M0 0h200v124H0z"/></clipPath></defs></symbol><symbol fill="none" viewBox="0 0 200 124" id="metal-icon-3" xmlns="http://www.w3.org/2000/svg"><path d="M80.8 83.5h-4.4L49 110.8v11.4h72l29-29v-9.7h-23.2" stroke="#003672" stroke-width="2" stroke-miterlimit="10"/><path d="M49 111.9h71.5v10.3m17.6-28.9H66.5m4 7.3l6.9-6.9m2.9 6.9l7-6.9m4.3 6.9l6.9-6.9m3.8 6.9l6.9-6.9m3.5 6.9l7-6.9m4 6.9l6.9-6.9m-26.9-.6c10.991 0 19.9-8.91 19.9-19.9 0-10.99-8.909-19.9-19.9-19.9-10.99 0-19.9 8.91-19.9 19.9 0 10.99 8.91 19.9 19.9 19.9z" stroke="#003672" stroke-width="2" stroke-miterlimit="10"/><path d="M103.7 80.3a7.1 7.1 0 100-14.2 7.1 7.1 0 000 14.2zm3.9-68.2V2H80.4v39.4a17.101 17.101 0 005 12.1l4.9 4.9" stroke="#003672" stroke-width="2" stroke-miterlimit="10"/><path d="M100.6 14.4h9.3a9 9 0 016.3 2.6l3.3 3.3a9 9 0 012.6 6.3v18.2a13.296 13.296 0 01-2.7 8.1l-3.2 4.2v-4.9c0-3.6-3.3-6.6-7.4-6.6h-10c-4.1 0-7.4 2.9-7.4 6.6v5.4" stroke="#003672" stroke-width="2" stroke-miterlimit="10"/><path d="M100.9 21.4h6.1a13.9 13.9 0 019.8 4.1l5.6 5.6M100.1 28h6.1a13.9 13.9 0 019.8 4.1l5.6 5.6M100.1 35h6.1a13.9 13.9 0 019.8 4.1l5.6 5.6" stroke="#003672" stroke-width="2" stroke-miterlimit="10"/></symbol><symbol fill="none" viewBox="0 0 137 124" id="metal-icon-4" xmlns="http://www.w3.org/2000/svg"><path d="M8.544 18.367c4.166 0 7.544-3.888 7.544-8.684C16.088 4.888 12.71 1 8.544 1 4.378 1 1 4.888 1 9.683c0 4.796 3.378 8.684 7.544 8.684zm0 36.701c4.166 0 7.544-3.888 7.544-8.683 0-4.796-3.378-8.684-7.544-8.684C4.378 37.701 1 41.59 1 46.385s3.378 8.683 7.544 8.683zm19.313-9.028c3.389 0 6.136-3.163 6.136-7.063s-2.748-7.063-6.136-7.063c-3.389 0-6.136 3.162-6.136 7.063 0 3.9 2.747 7.062 6.136 7.062zm0-22.343c3.389 0 6.136-3.162 6.136-7.063 0-3.9-2.748-7.062-6.136-7.062-3.389 0-6.136 3.162-6.136 7.062 0 3.9 2.747 7.063 6.136 7.063zm15.088 10.881c2.666 0 4.828-2.488 4.828-5.558 0-3.069-2.162-5.557-4.828-5.557-2.667 0-4.828 2.488-4.828 5.557 0 3.07 2.161 5.558 4.828 5.558zm15.691-10.883v14.01m13.178-.004H57.53c-2.03-.003-3.981.911-5.431 2.547l-6.036 6.947c-1.42 1.67-2.216 3.915-2.213 6.252v59.743c-.003 2.337.792 4.582 2.213 6.252l.503.579c1.45 1.635 3.401 2.55 5.432 2.547h30.377c2.031.003 3.982-.912 5.432-2.547 1.421-1.67 2.216-3.915 2.213-6.253v-12.967m45.968-45.733h-16.094v42.295h16.094V55.068z" stroke="#003672" stroke-width="2" stroke-miterlimit="10"/><path d="M119.19 59.818c-1.81-1.273-6.739-3.242-9.857-6.136-9.757-9.263-11.467-17.136-17.804-26.861C83.482 14.317 68.796.19 60.347 4.128c-3.32 1.505-6.136 6.02-5.332 8.915.805 2.895 4.627 2.895 8.752 4.979 4.124 2.084 7.544 7.062 13.981 16.903 11.266 17.252 12.976 24.43 13.479 26.861 1.006 4.747 2.313 10.884-.402 13.662-2.716 2.779-6.136-.231-17-.579-10.863-.347-11.768 1.737-12.774 2.895-.993 1.265-1.667 2.817-1.95 4.49a10.724 10.724 0 00.34 5.004c.906 2.431 3.42 4.863 13.58 6.136 10.159 1.274 15.691-.695 26.756-1.042 3.923-.116 11.869-2.547 19.011-1.62" stroke="#003672" stroke-width="2" stroke-miterlimit="10"/></symbol><symbol fill="none" viewBox="0 0 200 124" id="metal-icon-5" xmlns="http://www.w3.org/2000/svg"><path d="M75.862 29.3h46v11.3a16.002 16.002 0 01-16 16h-14a16 16 0 01-16-16V29.3zm3.8 32.5h40.2a10.097 10.097 0 0110.1 10.2v17.2h-60.4V72a10.1 10.1 0 0110.1-10.2zm7.1-59.8h23.8a11.1 11.1 0 0111.1 11.1v16.2h-46V13.1A11.1 11.1 0 0186.762 2z" fill="#fff" stroke="#003672" stroke-width="2" stroke-miterlimit="10"/><path d="M93.662 19.7h10.4a2.998 2.998 0 013 3v6.6h-16.4v-6.6a3 3 0 013-3z" stroke="#003672" stroke-width="2" stroke-miterlimit="10"/><path d="M121.662 19.7h14.1a2.7 2.7 0 012.7 2.7v4.3a2.702 2.702 0 01-2.7 2.7h-14.1v-9.7z" fill="#fff" stroke="#003672" stroke-width="2" stroke-miterlimit="10"/><path d="M90.162 35h-3.8v3.77h3.8V35zm20.4 0h-3.8v3.77h3.8V35z" fill="#003672"/><path d="M92.262 45a6.45 6.45 0 0012.9 0m-15 11.4v5.4h18.4v-5.4" stroke="#003672" stroke-width="2" stroke-miterlimit="10"/><path d="M62.462 70.3l-10.8-5.1a1 1 0 010-1.8l5.7-2.3a9.6 9.6 0 018.7.8l7.1 4.4a11.9 11.9 0 015.3 7.7v.6a4.7 4.7 0 002.7 3.4l58.5 25.1a8.69 8.69 0 012.847 1.973 8.686 8.686 0 011.853 2.927l.4 1.2a6.704 6.704 0 01-.1 5.1l-1.5 3.3a4.408 4.408 0 01-2.462 2.403 4.407 4.407 0 01-3.438-.103l-61.3-28-1.9-.7a7.4 7.4 0 00-3.8-.5l-4.5.4a13.4 13.4 0 01-5-.7l-5-1.7c-3.6-1.8-6-3.9-7.1-7.4l-1.6-5.3a.9.9 0 011.3-1.1l9.6 4.7a5.1 5.1 0 007-2.9 5.2 5.2 0 00-2.5-6.4z" fill="#fff" stroke="#003672" stroke-width="2" stroke-miterlimit="10"/><path d="M137.062 71.7l10.9-4.9a1.001 1.001 0 000-1.8l-5.7-2.4a9.6 9.6 0 00-8.7.7l-7.1 4.3a11.896 11.896 0 00-5.4 7.6v.6a4.702 4.702 0 01-2.8 3.3l-59.1 24.4a8.69 8.69 0 00-4.7 4.8l-.5 1.2a6.7 6.7 0 000 5.1l1.4 3.4a4.394 4.394 0 002.436 2.463 4.388 4.388 0 003.464-.063l61.8-27.1 1.9-.7a7.4 7.4 0 013.8-.4l4.5.5a13.4 13.4 0 005-.7l5-1.7c3.6-1.7 6.1-3.8 7.2-7.3l1.7-5.2a.901.901 0 00-1.3-1.2l-9.7 4.6a5.103 5.103 0 01-5.915-1.163 5.1 5.1 0 01-1.085-1.837 5.201 5.201 0 012.9-6.5z" fill="#fff" stroke="#003672" stroke-width="2" stroke-miterlimit="10"/></symbol><symbol fill="none" viewBox="0 0 200 124" id="metal-icon-6" xmlns="http://www.w3.org/2000/svg"><g clip-path="url(#ra)"><path d="M133 5l-10.8-4-7.8 21.1 11 3.4L133 5z" stroke="#003672" stroke-width="2" stroke-miterlimit="10"/><path d="M66.3 70.7c-.1 1.4-.1 2.8-.1 4.5a37.15 37.15 0 1074.3 0 35.709 35.709 0 00-13.7-28.5" fill="#fff"/><path d="M66.3 70.7c-.1 1.4-.1 2.8-.1 4.5a37.15 37.15 0 1074.3 0 35.709 35.709 0 00-13.7-28.5" stroke="#003672" stroke-width="2" stroke-miterlimit="10"/><path d="M154.8 105.1H44v16.97h110.8V105.1z" fill="#fff" stroke="#003672" stroke-width="2" stroke-miterlimit="10"/><path d="M44.5 53c1.9-9.4 23.4-32.5 49.4-32.7 31.7-.3 55.5 16.2 53.9 22.1-.4 1.6.7 1.1-18.7 3.4-17.8 2.1-25 19.4-32.7 22-5.9 2-19.9-2.4-30.1 3.4a18.9 18.9 0 00-3.2 2.3m29-.5a10.1 10.1 0 1017.3-7" stroke="#003672" stroke-width="2" stroke-miterlimit="10"/><path d="M46.8 58.6h13.8a2.8 2.8 0 012.8 2.8v43.8H44V61.3a2.8 2.8 0 012.8-2.7z" fill="#fff" stroke="#003672" stroke-width="2" stroke-miterlimit="10"/><path d="M53.7 67.5a2.6 2.6 0 100-5.2 2.6 2.6 0 000 5.2z" fill="#003374"/><path d="M133 5l-10.8-4-1.6 4.2 10.9 3.9L133 5z" stroke="#003672" stroke-width="2" stroke-miterlimit="10"/></g><defs><clipPath id="ra"><path fill="#fff" d="M0 0h200v124H0z"/></clipPath></defs></symbol><symbol fill="none" viewBox="0 0 200 124" id="metal-icon-7" xmlns="http://www.w3.org/2000/svg"><path d="M118.735 11L19 71.402 34.655 97.25l99.735-60.402-15.655-25.85z" fill="#fff" stroke="#003672" stroke-width="2" stroke-miterlimit="10"/><path d="M70.745 64.545a5.8 5.8 0 10-6.009-9.923 5.8 5.8 0 006.01 9.923zm20.679-12.601a5.8 5.8 0 10-6.009-9.922 5.8 5.8 0 006.01 9.922zm20.765-12.553a5.8 5.8 0 001.956-7.965 5.8 5.8 0 10-1.956 7.966zM49.88 77.198a5.8 5.8 0 10-6.008-9.923 5.8 5.8 0 006.009 9.922zM163.485 26.55L63.75 86.952l15.654 25.849 99.736-60.402-15.655-25.849z" fill="#fff" stroke="#003672" stroke-width="2" stroke-miterlimit="10"/><path d="M115.495 80.095a5.8 5.8 0 10-6.01-9.923 5.8 5.8 0 006.01 9.923zm20.679-12.601a5.8 5.8 0 001.956-7.965 5.8 5.8 0 10-1.956 7.966zm20.864-12.552a5.8 5.8 0 10-6.01-9.923 5.8 5.8 0 006.01 9.923zM94.73 92.748a5.8 5.8 0 10-6.009-9.922 5.8 5.8 0 006.01 9.922z" fill="#fff" stroke="#003672" stroke-width="2" stroke-miterlimit="10"/></symbol><symbol fill="none" viewBox="0 0 143 130" id="metall-icon" xmlns="http://www.w3.org/2000/svg"><g clip-path="url(#ta)"><path d="M47.8 45.689c7.235 0 13.1-5.492 13.1-12.265 0-6.774-5.865-12.265-13.1-12.265-7.235 0-13.1 5.491-13.1 12.265 0 6.773 5.865 12.265 13.1 12.265zM87 64.32H58.1v1.59H87v-1.59z" fill="#fff" stroke="#003672" stroke-width="2" stroke-miterlimit="10"/><path d="M115.6 42.599h-88v5.383h88v-5.383z" fill="#fff" stroke="#003672" stroke-width="2" stroke-miterlimit="10"/><path d="M7.6 109.352V44.378L1 38.198V25.653h26.6v62.821l-20 20.878zm128 2.341V46.812l6.6-6.18V28.087h-26.6v62.821l20 20.785z" fill="#fff" stroke="#003672" stroke-width="2" stroke-miterlimit="10"/><path d="M3.3 129.482h134.5v-14.044l-22-33.61H28.5L3.3 116v13.482zM58.1.936h28.5v61.979a2.99 2.99 0 01-.93 2.152 3.408 3.408 0 01-2.27.938h-22a3.412 3.412 0 01-2.235-.904 2.998 2.998 0 01-.965-2.093V.936h-.1zm16.1 80.891V66.005h-3.35v15.822h3.35z" fill="#fff" stroke="#003672" stroke-width="2" stroke-miterlimit="10"/><path d="M64 76.397H41.3v1.592H64v-1.592zm39.6 0H80.9v1.592h22.7v-1.592zm-38.14 6.211L49.41 97.636l1.201 1.126 16.052-15.028-1.203-1.126zm11.688 1.141l16.051 15.028 1.202-1.126L78.35 82.624l-1.202 1.125zM73.2 104.484V88.381h-1.7v16.103h1.7z" fill="#AE0808"/></g><defs><clipPath id="ta"><path fill="#fff" d="M0 0h143v130H0z"/></clipPath></defs></symbol><symbol fill="none" viewBox="0 0 35 68" id="next" xmlns="http://www.w3.org/2000/svg"><path d="M1.04 1L33.1 33.645 1 66.415" stroke="#AE0808" stroke-width="2" stroke-miterlimit="10"/></symbol><symbol fill="none" viewBox="0 0 35 68" id="prev" xmlns="http://www.w3.org/2000/svg"><path d="M34.058 66.415L2 33.77 34.1 1" stroke="#AE0808" stroke-width="2" stroke-miterlimit="10"/></symbol></svg>