<?xml version="1.0" encoding="utf-8"?><svg xmlns="http://www.w3.org/2000/svg" xmlns:xlink="http://www.w3.org/1999/xlink"><symbol viewBox="0 0 513.32 513.32" id="arrow" xmlns="http://www.w3.org/2000/svg"><path d="M220.3 370.018l29.944 29.944L393.545 256.66 250.244 113.358 220.3 143.302l91.97 91.97H0v42.776h312.27z"/><path d="M278.048 21.388c-100.525 0-183.94 64.165-218.161 149.718h47.055c29.944-64.165 96.247-106.942 171.107-106.942 106.942 0 192.495 85.553 192.495 192.495S384.99 449.155 278.048 449.155c-74.859 0-141.163-42.777-171.107-106.942H59.887c34.221 85.553 119.775 149.718 218.161 149.718 130.469 0 235.272-104.803 235.272-235.272S408.517 21.389 278.048 21.388z"/></symbol><symbol viewBox="0 0 15 23" id="calendar" xmlns="http://www.w3.org/2000/svg"><g clip-path="url(#ba)"><path d="M11.095 1.728C10.975.853 10.452.192 9.828.192c-.143 0-.259.172-.259.384 0 .212.116.384.259.384.427 0 .775.517.775 1.152 0 .635-.348 1.152-.775 1.152-.143 0-.259.172-.259.384 0 .213.116.384.259.384.624 0 1.146-.66 1.267-1.536h3.388v3.457H.517V2.496h4.397c.143 0 .258-.171.258-.384 0-.212-.115-.384-.258-.384h-.47c.107-.446.392-.768.728-.768.428 0 .776.517.776 1.152 0 .635-.348 1.152-.776 1.152-.143 0-.258.172-.258.384 0 .213.115.384.258.384.713 0 1.294-.861 1.294-1.92S5.886.192 5.172.192c-.624 0-1.146.66-1.267 1.536H0v20.354h15V1.728h-3.905zm3.388 19.586H.517V6.721h13.966v14.593z"/><path d="M6.724.96c.428 0 .776.517.776 1.152 0 .635-.348 1.152-.776 1.152-.143 0-.258.172-.258.384 0 .213.115.384.258.384.713 0 1.293-.861 1.293-1.92S7.437.192 6.724.192c-.143 0-.258.172-.258.384 0 .212.115.384.258.384zm1.552 0c.428 0 .776.517.776 1.152 0 .635-.348 1.152-.776 1.152-.143 0-.259.172-.259.384 0 .213.116.384.259.384.713 0 1.293-.861 1.293-1.92S8.989.192 8.276.192c-.143 0-.259.172-.259.384 0 .212.116.384.259.384zM5.69 9.793c.142 0 .258-.172.258-.384 0-.212-.116-.384-.258-.384-.143 0-.259.172-.259.384 0 .212.116.384.259.384zm1.81 0c.143 0 .259-.172.259-.384 0-.212-.116-.384-.259-.384-.143 0-.259.172-.259.384 0 .212.116.384.259.384zm1.81 0c.143 0 .259-.172.259-.384 0-.212-.116-.384-.259-.384-.142 0-.258.172-.258.384 0 .212.116.384.258.384zm1.81 0c.144 0 .26-.172.26-.384 0-.212-.117-.384-.26-.384-.142 0-.258.172-.258.384 0 .212.116.384.259.384zm1.811 0c.143 0 .259-.172.259-.384 0-.212-.116-.384-.259-.384-.143 0-.259.172-.259.384 0 .212.116.384.259.384zM2.069 12.865c.143 0 .259-.172.259-.384 0-.212-.116-.384-.259-.384-.143 0-.259.172-.259.384 0 .212.116.384.259.384zm1.811 0c.142 0 .258-.172.258-.384 0-.212-.116-.384-.259-.384-.143 0-.258.172-.258.384 0 .212.115.384.258.384zm1.81 0c.142 0 .258-.172.258-.384 0-.212-.116-.384-.258-.384-.143 0-.259.172-.259.384 0 .212.116.384.259.384zm1.81 0c.143 0 .259-.172.259-.384 0-.212-.116-.384-.259-.384-.143 0-.259.172-.259.384 0 .212.116.384.259.384zm1.81 0c.143 0 .259-.172.259-.384 0-.212-.116-.384-.259-.384-.142 0-.258.172-.258.384 0 .212.116.384.258.384zm1.81 0c.144 0 .26-.172.26-.384 0-.212-.117-.384-.26-.384-.142 0-.258.172-.258.384 0 .212.116.384.259.384zm1.811 0c.143 0 .259-.172.259-.384 0-.212-.116-.384-.259-.384-.143 0-.259.172-.259.384 0 .212.116.384.259.384zM2.069 15.554c.143 0 .259-.172.259-.384 0-.213-.116-.384-.259-.384-.143 0-.259.171-.259.384 0 .212.116.384.259.384zm1.811 0c.142 0 .258-.172.258-.384 0-.213-.116-.384-.259-.384-.143 0-.258.171-.258.384 0 .212.115.384.258.384zm1.81 0c.142 0 .258-.172.258-.384 0-.213-.116-.384-.258-.384-.143 0-.259.171-.259.384 0 .212.116.384.259.384zm1.81 0c.143 0 .259-.172.259-.384 0-.213-.116-.384-.259-.384-.143 0-.259.171-.259.384 0 .212.116.384.259.384zm1.81 0c.143 0 .259-.172.259-.384 0-.213-.116-.384-.259-.384-.142 0-.258.171-.258.384 0 .212.116.384.258.384zm1.81 0c.144 0 .26-.172.26-.384 0-.213-.117-.384-.26-.384-.142 0-.258.171-.258.384 0 .212.116.384.259.384zm1.811 0c.143 0 .259-.172.259-.384 0-.213-.116-.384-.259-.384-.143 0-.259.171-.259.384 0 .212.116.384.259.384zM2.069 18.626c.143 0 .259-.172.259-.384 0-.212-.116-.384-.259-.384-.143 0-.259.172-.259.384 0 .212.116.384.259.384zm1.811 0c.142 0 .258-.172.258-.384 0-.212-.116-.384-.259-.384-.143 0-.258.172-.258.384 0 .212.115.384.258.384zm1.81 0c.142 0 .258-.172.258-.384 0-.212-.116-.384-.258-.384-.143 0-.259.172-.259.384 0 .212.116.384.259.384zm1.81 0c.143 0 .259-.172.259-.384 0-.212-.116-.384-.259-.384-.143 0-.259.172-.259.384 0 .212.116.384.259.384zm1.81 0c.143 0 .259-.172.259-.384 0-.212-.116-.384-.259-.384-.142 0-.258.172-.258.384 0 .212.116.384.258.384z"/></g><defs><clipPath id="ba"><path d="M0 0h15v22.274H0z"/></clipPath></defs></symbol><symbol viewBox="0 0 15 23" id="comment" xmlns="http://www.w3.org/2000/svg"><path d="M14 1.67H8.25c-.3 0-.566.202-.75.514-.184-.312-.45-.513-.75-.513H1c-.551 0-1 .666-1 1.484v14.479c0 .819.449 1.485 1 1.485h5.5c.29 0 .75.51.75 1.114 0 .205.112.37.25.37s.25-.165.25-.37c0-.605.46-1.114.75-1.114H14c.552 0 1-.666 1-1.485V3.155c0-.818-.448-1.484-1-1.484zM7.25 18.808c-.227-.27-.5-.43-.75-.43H1c-.276 0-.5-.334-.5-.743V3.155c0-.409.224-.742.5-.742h5.75c.276 0 .5.333.5.742v15.652zm7.25-1.173c0 .41-.224.742-.5.742H8.5c-.25 0-.523.162-.75.43V3.157c0-.41.224-.743.5-.743H14c.276 0 .5.333.5.742v14.479z"/></symbol><symbol viewBox="0 0 100 100" id="drive2" xmlns="http://www.w3.org/2000/svg"><path d="M87.11 0H12.89C5.784 0 0 5.783 0 12.89v74.22C0 94.216 5.783 100 12.89 100h74.22c7.107 0 12.89-5.783 12.89-12.89V12.89C100 5.784 94.217 0 87.11 0zm8.984 87.11c0 4.953-4.03 8.984-8.985 8.984H12.891c-4.954 0-8.985-4.03-8.985-8.985V12.891c0-4.954 4.03-8.985 8.985-8.985h74.218c4.954 0 8.985 4.03 8.985 8.985v74.218z"/><path fill-rule="evenodd" clip-rule="evenodd" d="M29.75 14.1c0-1.105.898-2 2.002-2H53.95c6.586 0 11.065 3.02 13.9 6.777 2.776 3.68 3.974 8.044 4.242 10.992l.007.084v.085c.05 8.4.121 28.155 0 39.932-.066 6.589-3.14 11.032-6.935 13.82-3.716 2.73-8.102 3.873-11.058 4.104l-.078.006H31.75a2 2 0 0 1-2-2V14.1zm6 2a2 2 0 0 0-2 2v63.8a2 2 0 0 0 2 2h18.12c2.377-.2 5.962-1.156 8.926-3.333 2.916-2.142 5.251-5.466 5.304-10.637.12-11.702.05-31.332 0-39.78-.23-2.37-1.23-5.932-3.443-8.864-2.18-2.889-5.533-5.186-10.707-5.186h-18.2zm7.4 8.6h8.45c2.936 0 4.77 1.643 5.743 3.517.897 1.73 1.109 3.697 1.057 5.013.117 9.34.281 29.266-.004 33.99-.167 2.777-1.192 4.74-2.644 5.983-1.382 1.183-2.994 1.578-4.181 1.547H43.15V24.7zm4 4v42.05h4.484l.033.001c.293.01.92-.105 1.483-.587.508-.434 1.141-1.32 1.254-3.184.274-4.547.113-24.338-.004-33.755v-.059l.002-.058c.04-.85-.116-2.098-.61-3.05-.433-.834-1.048-1.358-2.192-1.358h-4.45z"/><path d="M38.103 46.32a1.953 1.953 0 0 0-1.953 1.953v15.918a1.953 1.953 0 0 0 3.906 0V48.273a1.953 1.953 0 0 0-1.953-1.953zm0-8.886a1.953 1.953 0 0 0-1.953 1.953v.023a1.953 1.953 0 0 0 3.906 0v-.023a1.953 1.953 0 0 0-1.953-1.953z"/></symbol><symbol viewBox="0 0 100 100" id="instagram" xmlns="http://www.w3.org/2000/svg"><path d="M70.703 0H29.297C13.143 0 0 13.143 0 29.297v41.406C0 86.857 13.143 100 29.297 100h41.406C86.857 100 100 86.857 100 70.703V29.297C100 13.143 86.857 0 70.703 0zm25.39 70.703c0 14-11.39 25.39-25.39 25.39H29.297c-14 0-25.39-11.39-25.39-25.39V29.297c0-14 11.39-25.39 25.39-25.39h41.406c14 0 25.39 11.39 25.39 25.39v41.406z"/><path d="M70.703 8.594H29.297c-11.416 0-20.703 9.287-20.703 20.703v41.406c0 11.416 9.287 20.703 20.703 20.703H41.21a1.953 1.953 0 1 0 0-3.906H29.297c-9.262 0-16.797-7.535-16.797-16.797V29.297c0-9.262 7.535-16.797 16.797-16.797h41.406c9.262 0 16.797 7.535 16.797 16.797v41.406c0 9.262-7.535 16.797-16.797 16.797H58.92a1.953 1.953 0 1 0 0 3.906h11.784c11.416 0 20.703-9.287 20.703-20.703V29.297c0-11.416-9.287-20.703-20.703-20.703z"/><path d="M51.38 88.072A1.968 1.968 0 0 0 50 87.5c-.514 0-1.018.209-1.38.572a1.968 1.968 0 0 0-.573 1.381c0 .514.209 1.018.572 1.381s.867.572 1.381.572 1.018-.209 1.38-.572c.364-.363.573-.867.573-1.38 0-.514-.209-1.018-.572-1.382zm-17.038-57.66a1.953 1.953 0 0 0-2.76-.09l-.088.082a1.953 1.953 0 1 0 2.681 2.84l.077-.071a1.953 1.953 0 0 0 .09-2.76z"/><path d="M50 23.047a27.03 27.03 0 0 0-12.347 2.988 1.953 1.953 0 0 0 1.792 3.471A22.79 22.79 0 0 1 50 26.953c12.708 0 23.047 10.339 23.047 23.047S62.708 73.047 50 73.047 26.953 62.708 26.953 50c0-3.988 1.034-7.917 2.99-11.363a1.953 1.953 0 1 0-3.396-1.929A26.96 26.96 0 0 0 23.047 50c0 14.862 12.091 26.953 26.953 26.953S76.953 64.862 76.953 50 64.862 23.047 50 23.047z"/><path d="M50 32.422c-9.693 0-17.578 7.885-17.578 17.578S40.307 67.578 50 67.578 67.578 59.693 67.578 50 59.693 32.422 50 32.422zm0 31.25c-7.539 0-13.672-6.133-13.672-13.672 0-7.539 6.133-13.672 13.672-13.672 7.539 0 13.672 6.133 13.672 13.672 0 7.539-6.133 13.672-13.672 13.672zm25.635-46.729c-4.093 0-7.422 3.33-7.422 7.422 0 4.093 3.33 7.422 7.422 7.422s7.422-3.33 7.422-7.422-3.33-7.422-7.422-7.422zm0 10.938a3.52 3.52 0 0 1-3.516-3.516 3.52 3.52 0 0 1 3.516-3.515 3.52 3.52 0 0 1 3.515 3.515 3.52 3.52 0 0 1-3.515 3.516z"/></symbol><symbol viewBox="0 0 15 23" id="view" xmlns="http://www.w3.org/2000/svg"><g clip-path="url(#fa)"><path d="M12.938 8.112c-3.012-4.473-7.914-4.473-10.926 0L0 11.1l2.062 3.062c1.506 2.236 3.484 3.355 5.463 3.355s3.957-1.118 5.463-3.355L15 11.174l-2.062-3.062zm-.308 5.518c-2.815 4.18-7.395 4.18-10.21 0L.717 11.1 2.37 8.644c2.815-4.18 7.395-4.18 10.21 0l1.703 2.53-1.653 2.456z"/><path d="M7.24 8.116c-.979 0-1.774 1.181-1.774 2.633 0 .208.113.377.253.377s.254-.169.254-.377c0-1.037.568-1.88 1.267-1.88.14 0 .253-.17.253-.377 0-.208-.113-.376-.253-.376z"/><path d="M7.493 6.234c-1.816 0-3.294 2.195-3.294 4.892 0 2.697 1.478 4.891 3.294 4.891s3.294-2.194 3.294-4.891-1.478-4.891-3.294-4.891zm0 9.03c-1.537 0-2.787-1.856-2.787-4.138s1.25-4.139 2.787-4.139 2.787 1.857 2.787 4.139-1.25 4.139-2.787 4.139z"/></g><defs><clipPath id="fa"><path d="M0 0h15v22.274H0z"/></clipPath></defs></symbol><symbol viewBox="0 0 100 100" id="vk" xmlns="http://www.w3.org/2000/svg"><path d="M84.92 66.947l-.991-1.62a42.697 42.697 0 0 0-6.967-8.621L73.65 53.55a.867.867 0 0 1-.113-1.133l4.525-6.447a28.345 28.345 0 0 0 1.79-2.91l3.865-7.233a4 4 0 0 0-.096-3.972 4 4 0 0 0-3.456-1.962l-8.368-.01h-.005a4.418 4.418 0 0 0-4.045 2.643l-.886 2.02a49.942 49.942 0 0 1-9.178 13.97V33.772a3.894 3.894 0 0 0-3.89-3.89H41.941a3.533 3.533 0 0 0-3.53 3.53c0 .742.23 1.454.663 2.057l.83 1.156a6.582 6.582 0 0 1 1.242 3.861V51.26c-1.462-1.697-3.241-4.002-4.748-6.652-2.306-4.059-3.96-8.791-4.74-11.251a4.961 4.961 0 0 0-4.746-3.474h-8.475a3.758 3.758 0 0 0-3.019 1.5 3.757 3.757 0 0 0-.626 3.313l1.581 5.611a51.693 51.693 0 0 0 3.959 9.953 1.953 1.953 0 1 0 3.46-1.813 47.792 47.792 0 0 1-3.659-9.199l-1.538-5.459h8.317c.47 0 .88.3 1.022.749.827 2.606 2.585 7.63 5.069 12 2.038 3.585 4.51 6.572 6.226 8.446a3.328 3.328 0 0 0 3.684.86 3.333 3.333 0 0 0 2.14-3.126v-12.23c0-2.217-.684-4.34-1.977-6.14l-.4-.559h11.1v15.663c0 1.146.575 2.2 1.54 2.82.963.619 2.16.705 3.203.229l.805-.368c.371-.169.7-.405.98-.702a53.849 53.849 0 0 0 10.133-15.315l.886-2.02a.51.51 0 0 1 .468-.305l8.369.01c.029 0 .072 0 .108.06.037.062.017.1.004.126l-3.867 7.233c-.46.863-.98 1.706-1.542 2.508l-4.524 6.446a4.75 4.75 0 0 0 .616 6.206l3.313 3.155a38.792 38.792 0 0 1 6.33 7.832l.99 1.62a.293.293 0 0 1 .007.318c-.09.161-.23.161-.275.161h-7.224a3.476 3.476 0 0 1-2.48-1.047l-7.223-7.428a12.4 12.4 0 0 0-6.248-3.476 3.58 3.58 0 0 0-3.026.71 3.58 3.58 0 0 0-1.343 2.804v7.298a1.14 1.14 0 0 1-1.14 1.14 25.78 25.78 0 0 1-15.576-5.275 47.847 47.847 0 0 1-5.078-4.49 1.954 1.954 0 0 0-2.79 2.734 51.724 51.724 0 0 0 5.495 4.859 29.707 29.707 0 0 0 17.95 6.078 5.051 5.051 0 0 0 5.045-5.046v-6.905a8.5 8.5 0 0 1 3.91 2.293l7.224 7.428a7.405 7.405 0 0 0 5.28 2.23h7.224a4.225 4.225 0 0 0 3.683-2.159 4.226 4.226 0 0 0-.083-4.267z"/><path d="M27.355 54.21l-.022-.03a1.953 1.953 0 1 0-3.175 2.275l.014.02 1.595-1.127-1.587 1.138a1.95 1.95 0 0 0 2.725.449 1.953 1.953 0 0 0 .45-2.726zm12.658 32.509H24.095a1.953 1.953 0 0 0 0 3.906h15.918a1.953 1.953 0 1 0 0-3.906zm8.887 0h-.024a1.953 1.953 0 0 0 0 3.906h.023a1.953 1.953 0 1 0 0-3.906z"/><path d="M87.11 0H12.89C5.784 0 0 5.783 0 12.89v74.22C0 94.216 5.783 100 12.89 100h74.22c7.107 0 12.89-5.783 12.89-12.89V12.89C100 5.784 94.217 0 87.11 0zm8.984 87.11c0 4.953-4.03 8.984-8.985 8.984H12.891c-4.954 0-8.985-4.03-8.985-8.985V12.891c0-4.954 4.03-8.985 8.985-8.985h74.218c4.954 0 8.985 4.03 8.985 8.985v74.218z"/></symbol><symbol viewBox="0 0 100 100" id="youtube" xmlns="http://www.w3.org/2000/svg"><path d="M50.494 13.868h-.147c-1.076 0-1.95.87-1.953 1.947v.005c0 1.076.87 1.95 1.948 1.954h.147c1.076 0 1.95-.87 1.953-1.948v-.005c0-1.076-.87-1.95-1.948-1.953z"/><path d="M97.928 25.998c-1.282-4.876-5.066-8.716-9.872-10.022-4.956-1.35-18.773-1.847-29.492-2.026a1.96 1.96 0 0 0-1.985 1.92 1.953 1.953 0 0 0 1.92 1.986c14.836.248 24.968.919 28.532 1.89 3.463.94 6.191 3.716 7.12 7.246 1.92 7.282 1.943 22.851 1.943 23.008 0 .156-.024 15.725-1.944 23.008-.928 3.529-3.656 6.305-7.12 7.246-7.158 1.95-36.732 1.972-37.03 1.972-.298 0-29.872-.023-37.031-1.972-3.463-.94-6.191-3.717-7.12-7.247C3.93 65.725 3.907 50.156 3.907 50c0-.157.024-15.726 1.944-23.009.928-3.528 3.656-6.305 7.12-7.246 3.642-.992 14.074-1.667 29.375-1.902a1.953 1.953 0 0 0 1.923-1.983 1.96 1.96 0 0 0-1.983-1.923c-11.05.17-25.281.661-30.34 2.039-4.808 1.306-8.59 5.146-9.873 10.02C.024 33.769 0 49.342 0 50c0 .659.024 16.232 2.072 24.002 1.282 4.876 5.066 8.716 9.872 10.021C19.6 86.11 48.763 86.133 50 86.133c1.237 0 30.399-.024 38.055-2.11 4.807-1.305 8.59-5.145 9.872-10.02C99.977 66.232 100 50.659 100 50c0-.66-.024-16.232-2.072-24.002z"/><path d="M11.328 44.828a1.953 1.953 0 0 0-1.953 1.953V62.7a1.953 1.953 0 1 0 3.906 0V46.781a1.953 1.953 0 0 0-1.953-1.953zm0-8.886a1.953 1.953 0 0 0-1.953 1.953v.023a1.953 1.953 0 1 0 3.906 0v-.023a1.953 1.953 0 0 0-1.953-1.953zm54.513 12.666L41.622 34.545a1.953 1.953 0 0 0-2.934 1.69v28.124a1.953 1.953 0 0 0 2.934 1.69l24.219-14.063a1.953 1.953 0 0 0 0-3.378zM42.595 60.967v-21.34l18.376 10.67-18.377 10.67z"/></symbol></svg>