<svg width="139" height="82" viewBox="0 0 139 82" fill="none" xmlns="http://www.w3.org/2000/svg">
<path d="M72.6854 33.1182C74.2519 33.1182 75.5307 34.398 75.5307 35.9657C75.5307 37.5333 74.2519 38.8124 72.6854 38.8124C71.1189 38.8124 69.8401 37.5333 69.8401 35.9657C69.8401 34.398 71.1189 33.1182 72.6854 33.1182ZM72.6854 33.9305C71.5576 33.9305 70.6518 34.837 70.6518 35.9657C70.6518 37.0943 71.5576 38.0002 72.6854 38.0002C73.8132 38.0002 74.7191 37.0943 74.7191 35.9657C74.7191 34.837 73.8132 33.9305 72.6854 33.9305ZM71.4318 36.0444C71.4318 36.3655 71.6919 36.6259 72.0129 36.6259C72.3338 36.6259 72.594 36.3655 72.594 36.0444C72.594 35.7232 72.3338 35.4628 72.0129 35.4628C71.6919 35.4628 71.4318 35.7232 71.4318 36.0444ZM66.3146 33.1182C64.7481 33.1182 63.4692 34.398 63.4692 35.9657C63.4692 37.5333 64.7481 38.8124 66.3146 38.8124C67.8811 38.8124 69.1599 37.5333 69.1599 35.9657C69.1599 34.398 67.8811 33.1182 66.3146 33.1182ZM66.3146 33.9305C67.4424 33.9305 68.3482 34.837 68.3482 35.9657C68.3482 37.0943 67.4424 38.0002 66.3146 38.0002C65.1867 38.0002 64.2809 37.0943 64.2809 35.9657C64.2809 34.837 65.1867 33.9305 66.3146 33.9305ZM67.5682 36.0444C67.5682 36.3655 67.3081 36.6259 66.9871 36.6259C66.6662 36.6259 66.406 36.3655 66.406 36.0444C66.406 35.7232 66.6662 35.4628 66.9871 35.4628C67.3081 35.4628 67.5682 35.7232 67.5682 36.0444ZM79.0554 45.2373C78.9366 45.2357 78.8161 45.2435 78.6959 45.2631C78.6958 45.2631 78.6957 45.2631 78.6956 45.2631C75.7123 45.7491 73.7459 46.351 72.3985 47.1729L72.1166 47.345V47.6753V51.7318C72.1166 52.5141 71.5938 53.153 70.8822 53.3401L69.5059 53.702L70.7359 54.418C70.9608 54.5489 71.2074 54.6446 71.4782 54.6762C75.1719 55.1075 78.3906 55.2372 81.7161 53.3923C82.7138 52.8388 83.0243 51.6919 83.0137 50.6101C83.0032 49.5284 82.7003 48.4168 82.285 47.5734C81.9927 46.9801 81.5225 46.4299 80.9649 45.9994C80.4073 45.5689 79.7583 45.247 79.0554 45.2373V45.2373ZM79.0392 46.4138C79.3641 46.4183 79.8275 46.6076 80.2468 46.9313C80.6661 47.255 81.0372 47.7019 81.2302 48.0938C81.5592 48.7618 81.8294 49.7637 81.8377 50.6219C81.8461 51.4801 81.6208 52.0996 81.1461 52.3629C78.3915 53.8911 75.7739 53.9368 72.5796 53.6123C73.0229 53.1103 73.2926 52.4515 73.2926 51.7318V48.0173C74.4348 47.3989 76.2047 46.8615 78.8848 46.4249C78.9328 46.4171 78.9839 46.4131 79.0392 46.4138V46.4138ZM59.9446 45.2373C59.2417 45.247 58.5923 45.5689 58.0347 45.9994C57.4771 46.4299 57.0072 46.9801 56.715 47.5734C56.2997 48.4168 55.9968 49.5284 55.9863 50.6101C55.9757 51.6919 56.2858 52.8388 57.2835 53.3923C60.609 55.2372 63.8277 55.1075 67.5214 54.6762C67.7921 54.6446 68.0388 54.5488 68.2641 54.4177L69.4941 53.702L68.1178 53.3401C67.406 53.153 66.8834 52.5141 66.8834 51.7318V47.6753V47.345L66.6011 47.1729C65.2537 46.3511 63.2877 45.7491 60.3044 45.2631C60.1838 45.2434 60.0635 45.2357 59.9446 45.2373V45.2373ZM59.9608 46.4138C60.0161 46.413 60.0674 46.4171 60.1151 46.4249H60.1155C62.7954 46.8615 64.5651 47.399 65.7074 48.0173V51.7318C65.7074 52.4516 65.977 53.1103 66.4203 53.6123C63.2259 53.9368 60.6082 53.8912 57.8535 52.3629C57.3787 52.0996 57.1539 51.4801 57.1622 50.6219C57.1706 49.7637 57.4408 48.7618 57.7697 48.0938C57.9627 47.7019 58.3339 47.255 58.7531 46.9313C59.1724 46.6076 59.6359 46.4183 59.9608 46.4138H59.9608ZM69.5 22.0228C64.4339 22.0228 61.6262 23.2177 60.1673 25.2728C58.7085 27.328 58.6694 30.0208 58.6694 32.8614C58.6694 37.6575 61.8046 41.5537 66.1208 42.8957L66.4696 41.7722C62.6112 40.5725 59.8454 37.1474 59.8454 32.8614C59.8454 30.041 59.9516 27.609 61.1261 25.9543C62.3007 24.2996 64.6145 23.1997 69.5 23.1997C74.3854 23.1997 76.6992 24.2996 77.8739 25.9543C79.0485 27.609 79.155 30.041 79.155 32.8614C79.155 37.1474 76.3885 40.5723 72.53 41.7718L72.8788 42.8957C77.1951 41.5538 80.331 37.6576 80.331 32.8614C80.331 30.0208 80.2916 27.328 78.8327 25.2728C77.3737 23.2177 74.5661 22.0228 69.5 22.0228V22.0228ZM80.6856 22.986C79.4958 22.9827 78.2649 23.2152 76.796 23.7131L75.6891 24.0882L76.6501 24.7543C77.843 25.5808 78.4462 26.6675 78.7827 28.0429C79.1192 29.4183 79.155 31.069 79.155 32.8614C79.155 34.2491 78.8631 35.5431 78.3398 36.7024L78.0741 37.2913L78.6849 37.5012L84.3441 39.4468C84.6868 39.5646 85.0651 39.53 85.3705 39.3956C85.6759 39.2613 85.9233 39.0481 86.1441 38.798C86.5857 38.2979 86.9351 37.6298 87.2356 36.8996C87.8364 35.4392 88.2201 33.7818 88.2201 32.7548V27.4213C88.2201 26.3674 87.6708 25.5258 86.9809 24.9481C86.291 24.3704 85.4559 24.0057 84.7185 23.7631C83.2588 23.2828 82.0082 22.9897 80.6856 22.986V22.986ZM80.6823 24.1629C81.8343 24.1661 82.946 24.4187 84.3514 24.8811C85.0008 25.0948 85.7142 25.422 86.226 25.8506C86.7379 26.2792 87.0441 26.7584 87.0441 27.4213V32.7548C87.0441 33.4446 86.6901 35.1342 86.1481 36.4516C85.8771 37.1103 85.5539 37.689 85.2628 38.0187C85.1173 38.1835 84.9833 38.2807 84.8975 38.3184C84.8117 38.3562 84.7888 38.3551 84.7259 38.3335L79.6573 36.591C80.0924 35.4389 80.331 34.1832 80.331 32.8614C80.331 31.0561 80.3074 29.3265 79.9249 27.763C79.6278 26.5487 79.0917 25.428 78.1899 24.5178C79.1162 24.2697 79.9134 24.1607 80.6823 24.1629ZM58.314 22.986C56.9914 22.9897 55.7408 23.2828 54.2811 23.7631C53.5437 24.0057 52.7086 24.3704 52.0187 24.9481C51.3288 25.5258 50.7799 26.3674 50.7799 27.4213V32.7548C50.7799 33.7818 51.1632 35.4392 51.764 36.8996C52.0645 37.6298 52.4139 38.2979 52.8555 38.798C53.0763 39.0481 53.3237 39.2613 53.6291 39.3956C53.9345 39.53 54.3128 39.5646 54.6555 39.4468L60.3147 37.5012L60.9255 37.2913L60.6598 36.7024C60.1366 35.5431 59.8454 34.2492 59.8454 32.8614C59.8454 31.069 59.8809 29.4183 60.2173 28.0429C60.5537 26.6675 61.1567 25.5808 62.3495 24.7543L63.3105 24.0882L62.2036 23.7131C60.7347 23.2152 59.5038 22.9827 58.314 22.986V22.986ZM58.3173 24.1629C59.0861 24.1607 59.8836 24.2698 60.8097 24.5178C59.908 25.428 59.3721 26.5488 59.0751 27.763C58.6927 29.3265 58.6694 31.0562 58.6694 32.8614C58.6694 34.1831 58.9073 35.4388 59.3423 36.591L54.2737 38.3335C54.2109 38.3551 54.1883 38.3562 54.1024 38.3184C54.0166 38.2807 53.8823 38.1835 53.7368 38.0187C53.4457 37.689 53.1225 37.1103 52.8515 36.4516C52.3095 35.1342 51.9559 33.4446 51.9559 32.7548V27.4213C51.9559 26.7584 52.2617 26.2792 52.7736 25.8506C53.2854 25.422 53.9988 25.0948 54.6482 24.8811C56.0536 24.4187 57.1653 24.1661 58.3173 24.1629V24.1629ZM59.8649 33.4811L59.2783 33.5183L58.6914 33.5558C58.693 33.5811 58.6948 33.606 58.6966 33.6308L59.2831 33.5893L59.8696 33.5481C59.8696 33.5479 59.8696 33.5478 59.8696 33.5477C59.868 33.5254 59.8663 33.5033 59.8649 33.4811V33.4811ZM59.8961 33.8566L59.3114 33.9169L58.7263 33.9776C58.7302 34.0146 58.7342 34.0502 58.7381 34.0843L59.3224 34.0177L59.9064 33.9515C59.9027 33.9186 59.8992 33.8869 59.8961 33.8566V33.8566ZM59.9093 33.975L59.3254 34.0427L58.741 34.1104C58.7443 34.1384 58.7478 34.1654 58.751 34.1913L59.3346 34.1188L59.9181 34.0468C59.9151 34.022 59.912 33.9979 59.9093 33.975ZM59.9608 34.3546L59.3801 34.4462L58.7991 34.5377C58.7991 34.5379 58.7991 34.538 58.7991 34.5381C58.8028 34.5613 58.8064 34.5817 58.8094 34.5999L59.3897 34.505L59.97 34.4105C59.97 34.4104 59.97 34.4102 59.97 34.4101C59.9666 34.3896 59.9633 34.3713 59.9608 34.355C59.9608 34.3548 59.9608 34.3547 59.9608 34.3546V34.3546ZM60.0019 34.5947L59.4239 34.701L58.8454 34.8077C58.8501 34.833 58.855 34.8602 58.8605 34.889L59.4382 34.7779L60.0155 34.6672C60.0155 34.6671 60.0155 34.667 60.0155 34.6668C60.0113 34.6447 60.0067 34.6208 60.0019 34.5948V34.5947ZM60.0486 34.8305L59.4735 34.9522L58.898 35.0739C58.898 35.0741 58.898 35.0742 58.898 35.0743C58.903 35.0983 58.9085 35.1225 58.9138 35.1464L59.4882 35.0206L60.0626 34.8952C60.0579 34.8739 60.0532 34.8524 60.0486 34.8308C60.0486 34.8307 60.0486 34.8306 60.0486 34.8305V34.8305ZM60.0964 35.0431L59.5242 35.178L58.9516 35.3134C58.9598 35.348 58.9684 35.385 58.9781 35.4241H58.9784L59.5492 35.2825L60.1199 35.1413C60.1124 35.111 60.1046 35.0781 60.0964 35.0431V35.0431ZM60.4393 36.214L59.9328 36.388L56.1535 37.6873L55.8058 37.8069L55.761 38.1717C55.6914 38.7345 55.6555 39.3075 55.6555 39.8888C55.6555 42.4857 56.3712 44.9205 57.6154 46.999L57.9855 47.6168L58.5165 47.1306C59.0572 46.6359 59.729 46.3619 60.1155 46.4249C63.0253 46.8989 64.8641 47.4914 65.9893 48.1777L66.8834 48.7227V47.6749V42.3338V41.9005L66.4696 41.7722C63.8606 40.961 61.7523 39.1234 60.6598 36.7024L60.4393 36.214V36.214ZM78.5607 36.214L78.3406 36.7024C77.2479 39.1235 75.1392 40.961 72.53 41.7722L72.1166 41.9005V42.3338V47.6749V48.7227L73.0103 48.1777C74.1355 47.4914 75.9748 46.8989 78.8848 46.4249C79.2713 46.3619 79.9424 46.6357 80.4831 47.1303L81.0145 47.6165L81.3842 46.9986C82.6283 44.9202 83.3445 42.4856 83.3445 39.8888C83.3445 39.3075 83.3086 38.7345 83.239 38.1717L83.1938 37.8069L82.8465 37.6873L79.0675 36.388L78.5607 36.214V36.214ZM59.8219 37.6708C61.044 40.0387 63.1498 41.8499 65.7074 42.7574V46.7025C64.4193 46.1136 62.687 45.6512 60.3044 45.2631C59.5824 45.1455 58.8929 45.4002 58.2953 45.8067C57.3614 44.0403 56.8315 42.0288 56.8315 39.8888C56.8315 39.4807 56.8508 39.0773 56.8885 38.6792L59.8219 37.6708V37.6708ZM79.1781 37.6708L82.1111 38.6792C82.1488 39.0773 82.1685 39.4807 82.1685 39.8888C82.1685 42.0288 81.6382 44.0403 80.7043 45.8067C80.1068 45.4004 79.4178 45.1455 78.6959 45.2631C76.3135 45.6512 74.5807 46.1133 73.2926 46.7022V42.7574C75.8502 41.8499 77.9559 40.0387 79.1781 37.6708ZM75.5787 3.00366L74.9826 4.40818L72.7486 9.66917L72.5388 10.1642L73.0709 10.2381L76.0197 10.6485L76.5522 10.7225L76.4846 10.1888L75.7698 4.51741L75.5787 3.00366V3.00366ZM75.1436 6.13488L75.6008 9.75854L73.7166 9.49632L75.1436 6.13488ZM72.2878 10.7545L72.1646 11.0446L71.2547 13.1876L71.2544 13.1888L71.2537 13.1899L71.0295 13.7264L70.8237 14.22L71.3525 14.2935L76.5673 15.0192L77.0965 15.0927L77.0326 14.5617L76.9631 13.9843V13.9828L76.9628 13.9817L76.6717 11.6717L76.6324 11.3587L76.32 11.3153L72.6002 10.7979L72.2878 10.7545H72.2878ZM72.7986 11.6573L75.8944 12.088L76.1458 14.0824L76.1461 14.085L76.1513 14.1295L71.9952 13.551L72.0125 13.5098L72.0132 13.5076L72.7985 11.6573H72.7986ZM70.5767 14.811L70.4547 15.1037L69.3044 17.858L69.0986 18.3512L69.6278 18.4247L77.1005 19.4644L77.6297 19.538L77.5658 19.0073L77.2104 16.0438L77.1726 15.7286L76.8584 15.6848L70.8909 14.8548L70.5767 14.811ZM71.0915 15.7142L76.431 16.4571L76.6849 18.5751L70.2702 17.6822L71.0915 15.7142ZM68.852 18.9422L68.73 19.2349L67.5624 22.0304L67.3588 22.518L67.8811 22.5967L72.7504 23.3301L72.7548 23.3308L72.7596 23.3315L77.6441 23.9549L78.1678 24.0218L78.1049 23.4974L77.7437 20.489L77.7058 20.1738L77.392 20.1301L69.1662 18.9859L68.852 18.9422V18.9422ZM69.3669 19.8454L76.9642 20.9024L77.2248 23.0708L72.8728 22.5155L68.5256 21.8608L69.3669 19.8454Z" fill="#0000FF"/>
<path d="M78.88 4.00402C78.5734 5.88336 76.8025 7.15811 74.9245 6.85126C73.0466 6.54441 71.7728 4.77216 72.0794 2.89282C72.386 1.01349 74.157 -0.261262 76.0349 0.0455827C77.9129 0.352435 79.1867 2.12469 78.88 4.00402V4.00402Z" fill="#FF009C"/>
<path d="M10.4345 72.2521H9.33832L9.03381 69.672H1.40077L1.09626 72.2521H3.05176e-05V68.2499H1.19777C1.30604 68.1009 1.44814 67.8368 1.62408 67.4576C1.80002 67.0648 1.96919 66.5231 2.1316 65.8323C2.30753 65.128 2.45641 64.2612 2.57821 63.2319C2.71355 62.1891 2.79475 60.9498 2.82182 59.5142H8.9526V68.2499H10.4345V72.2521ZM7.32855 68.2499V60.9363H4.28346C4.25639 61.5051 4.20903 62.1281 4.14136 62.8053C4.07369 63.4689 3.97895 64.1394 3.85715 64.8165C3.74888 65.4802 3.60677 66.11 3.43084 66.7059C3.2549 67.3018 3.05189 67.8165 2.82182 68.2499H7.32855Z" fill="#FF009C"/>
<path d="M11.8762 64.5931C11.8762 62.873 12.2552 61.5593 13.013 60.6518C13.7845 59.7309 14.8875 59.2704 16.322 59.2704C17.0799 59.2704 17.7363 59.399 18.2912 59.6564C18.8596 59.9002 19.3265 60.2591 19.6919 60.7331C20.0574 61.1936 20.328 61.7557 20.504 62.4193C20.6799 63.0694 20.7679 63.794 20.7679 64.5931C20.7679 66.3131 20.3822 67.6336 19.6107 68.5546C18.8529 69.462 17.7566 69.9158 16.322 69.9158C15.5642 69.9158 14.901 69.7939 14.3326 69.5501C13.7777 69.2928 13.3176 68.9338 12.9521 68.4734C12.5867 67.9993 12.3161 67.4373 12.1401 66.7872C11.9642 66.1235 11.8762 65.3921 11.8762 64.5931ZM13.5612 64.5931C13.5612 65.1077 13.6085 65.6021 13.7033 66.0761C13.8115 66.5501 13.9739 66.9632 14.1905 67.3154C14.407 67.6675 14.6912 67.9519 15.0431 68.1686C15.395 68.3853 15.8213 68.4937 16.322 68.4937C18.1626 68.5072 19.0829 67.207 19.0829 64.5931C19.0829 64.0649 19.0288 63.5637 18.9205 63.0897C18.8258 62.6157 18.6701 62.2026 18.4536 61.8505C18.2371 61.4983 17.9529 61.2207 17.601 61.0175C17.2491 60.8008 16.8228 60.6925 16.322 60.6925C14.4815 60.6789 13.5612 61.9791 13.5612 64.5931Z" fill="#FF009C"/>
<path d="M23.3285 59.5345C23.8021 59.5074 24.2961 59.4735 24.8104 59.4329C25.3382 59.3923 25.9878 59.3719 26.7593 59.3719C28.0991 59.3719 29.06 59.5819 29.6419 60.0017C30.2239 60.408 30.5149 61.0311 30.5149 61.8708C30.5149 62.3448 30.3728 62.8121 30.0886 63.2726C29.8179 63.7195 29.3645 64.0513 28.7284 64.268V64.3493C29.5269 64.4983 30.0886 64.7759 30.4134 65.1822C30.7382 65.5885 30.9006 66.1303 30.9006 66.8075C30.9006 67.8639 30.5216 68.6291 29.7638 69.1031C29.0059 69.5772 27.869 69.8142 26.3532 69.8142C25.7848 69.8142 25.257 69.7939 24.7698 69.7532C24.2826 69.7262 23.8021 69.6923 23.3285 69.6517V59.5345ZM24.9525 68.3108C25.2096 68.3379 25.46 68.3582 25.7036 68.3718C25.9608 68.3853 26.2585 68.3921 26.5969 68.3921C27.5036 68.3921 28.1735 68.2634 28.6066 68.0061C29.0532 67.7488 29.2765 67.3086 29.2765 66.6856C29.2765 66.198 29.0871 65.8052 28.7081 65.5073C28.3427 65.1958 27.6863 65.04 26.739 65.04H24.9525V68.3108ZM26.942 63.8008C27.1856 63.8008 27.4224 63.7601 27.6525 63.6789C27.8826 63.5976 28.0856 63.4893 28.2615 63.3538C28.451 63.2048 28.5998 63.0355 28.7081 62.8459C28.8299 62.6563 28.8908 62.4532 28.8908 62.2365C28.8908 61.6947 28.7284 61.3223 28.4036 61.1191C28.0788 60.9024 27.5104 60.794 26.6984 60.794C26.2653 60.794 25.9202 60.8008 25.663 60.8144C25.4194 60.8279 25.1826 60.8414 24.9525 60.855V63.8008H26.942Z" fill="#FF009C"/>
<path d="M32.8905 64.5931C32.8905 62.873 33.2695 61.5593 34.0274 60.6518C34.7988 59.7309 35.9018 59.2704 37.3364 59.2704C38.0942 59.2704 38.7506 59.399 39.3055 59.6564C39.8739 59.9002 40.3408 60.2591 40.7063 60.7331C41.0717 61.1936 41.3423 61.7557 41.5183 62.4193C41.6942 63.0694 41.7822 63.794 41.7822 64.5931C41.7822 66.3131 41.3965 67.6336 40.6251 68.5546C39.8672 69.462 38.7709 69.9158 37.3364 69.9158C36.5785 69.9158 35.9153 69.7939 35.3469 69.5501C34.792 69.2928 34.3319 68.9338 33.9665 68.4734C33.601 67.9993 33.3304 67.4373 33.1544 66.7872C32.9785 66.1235 32.8905 65.3921 32.8905 64.5931ZM34.5755 64.5931C34.5755 65.1077 34.6228 65.6021 34.7176 66.0761C34.8258 66.5501 34.9883 66.9632 35.2048 67.3154C35.4213 67.6675 35.7055 67.9519 36.0574 68.1686C36.4093 68.3853 36.8356 68.4937 37.3364 68.4937C39.1769 68.5072 40.0972 67.207 40.0972 64.5931C40.0972 64.0649 40.0431 63.5637 39.9348 63.0897C39.8401 62.6157 39.6845 62.2026 39.4679 61.8505C39.2514 61.4983 38.9672 61.2207 38.6153 61.0175C38.2634 60.8008 37.8371 60.6925 37.3364 60.6925C35.4958 60.6789 34.5755 61.9791 34.5755 64.5931Z" fill="#FF009C"/>
<path d="M49.6847 60.9363H46.7411C46.7005 61.5051 46.6599 62.1213 46.6193 62.785C46.5787 63.4351 46.5178 64.0919 46.4366 64.7556C46.3554 65.4057 46.2471 66.0355 46.1118 66.6449C45.9764 67.2409 45.8005 67.7691 45.584 68.2296C45.381 68.6901 45.1238 69.0625 44.8125 69.3469C44.5148 69.6178 44.1561 69.7532 43.7366 69.7532C43.4795 69.7532 43.2562 69.7397 43.0667 69.7126C42.8772 69.6855 42.708 69.6381 42.5592 69.5704L42.8028 68.2093C42.9652 68.2634 43.1411 68.2905 43.3306 68.2905C43.6013 68.2905 43.8449 68.1754 44.0614 67.9451C44.2779 67.7149 44.4674 67.2815 44.6298 66.6449C44.7922 65.9948 44.9276 65.101 45.0358 63.9633C45.1441 62.8256 45.2185 61.3426 45.2591 59.5142H51.3087V69.672H49.6847V60.9363Z" fill="#FF009C"/>
<path d="M56.0576 68.2499C56.5584 68.3311 57.0388 68.3718 57.499 68.3718C58.3516 68.3718 58.9809 68.2093 59.3869 67.8842C59.793 67.5456 59.996 67.0716 59.996 66.4621C59.996 65.9204 59.7997 65.4734 59.4072 65.1213C59.0148 64.7691 58.399 64.5931 57.5599 64.5931C57.3298 64.5931 57.0794 64.5998 56.8088 64.6134C56.5381 64.6269 56.2877 64.6676 56.0576 64.7353V68.2499ZM56.0576 63.3944C56.3825 63.3403 56.6937 63.3064 56.9915 63.2929C57.2892 63.2658 57.5734 63.2522 57.8441 63.2522C58.5479 63.2522 59.1433 63.3335 59.6306 63.496C60.1178 63.645 60.5102 63.8549 60.808 64.1258C61.1193 64.3967 61.3426 64.7217 61.4779 65.101C61.6132 65.4666 61.6809 65.8594 61.6809 66.2793C61.6809 67.5117 61.3087 68.4056 60.5644 68.9609C59.8336 69.5162 58.69 69.7939 57.1336 69.7939C56.2674 69.7939 55.3674 69.7532 54.4336 69.672V59.5142H56.0576V63.3944Z" fill="#FF009C"/>
<path d="M70.0624 65.1822H65.4744V69.672H63.8504V59.5142H65.4744V63.7601H70.0624V59.5142H71.6864V69.672H70.0624V65.1822Z" fill="#FF009C"/>
<path d="M76.4376 68.2499C76.9383 68.3311 77.4188 68.3718 77.8789 68.3718C78.7315 68.3718 79.327 68.2093 79.6654 67.8842C80.0037 67.5456 80.1729 67.0716 80.1729 66.4621C80.1729 65.9204 80.0037 65.4734 79.6654 65.1213C79.3406 64.7691 78.7654 64.5931 77.9398 64.5931C77.7097 64.5931 77.4594 64.5998 77.1887 64.6134C76.918 64.6269 76.6676 64.6676 76.4376 64.7353V68.2499ZM76.4376 63.3944C76.7624 63.3403 77.0737 63.3064 77.3714 63.2929C77.6691 63.2658 77.9533 63.2522 78.224 63.2522C78.9142 63.2522 79.4894 63.3335 79.9496 63.496C80.4233 63.645 80.8022 63.8549 81.0864 64.1258C81.3706 64.3967 81.5669 64.7217 81.6751 65.101C81.7969 65.4666 81.8578 65.8594 81.8578 66.2793C81.8578 67.5117 81.5127 68.4056 80.8225 68.9609C80.1458 69.5162 79.0428 69.7939 77.5135 69.7939C76.6473 69.7939 75.7473 69.7532 74.8135 69.672V59.5142H76.4376V63.3944ZM83.4616 59.5142H85.0856V69.672H83.4616V59.5142Z" fill="#FF009C"/>
<path d="M94.5489 63.6585L94.6098 62.399H94.5489L93.7166 63.6992L89.1489 69.672H88.2151V59.5142H89.8391V65.7104L89.7782 66.9091H89.8594L90.6512 65.6495L95.2188 59.5142H96.1729V69.672H94.5489V63.6585ZM90.5497 55.4104C90.685 56.0334 90.9151 56.4668 91.2399 56.7106C91.5782 56.9544 91.9639 57.0763 92.397 57.0763C92.8301 57.0763 93.2158 56.9476 93.5542 56.6903C93.8925 56.433 94.1226 56.0131 94.2444 55.4307L95.4624 55.8167C95.3406 56.6023 94.9887 57.2049 94.4068 57.6248C93.8384 58.0447 93.1549 58.2546 92.3564 58.2546C91.991 58.2546 91.6256 58.2072 91.2602 58.1124C90.9083 58.0176 90.5903 57.8754 90.3061 57.6858C90.0219 57.4961 89.7782 57.2524 89.5752 56.9544C89.3722 56.6564 89.2369 56.3043 89.1692 55.898L90.5497 55.4104Z" fill="#FF009C"/>
<path d="M106.29 69.0015C105.884 69.2994 105.403 69.5229 104.849 69.6719C104.294 69.8344 103.712 69.9157 103.103 69.9157C102.318 69.9157 101.655 69.7938 101.113 69.55C100.572 69.2927 100.125 68.9337 99.7734 68.4733C99.435 67.9992 99.1847 67.4372 99.0223 66.7871C98.8734 66.1234 98.799 65.392 98.799 64.593C98.799 62.8729 99.1779 61.5592 99.9358 60.6517C100.694 59.7308 101.783 59.2703 103.204 59.2703C103.854 59.2703 104.402 59.3244 104.849 59.4328C105.309 59.5276 105.721 59.6698 106.087 59.8594L105.62 61.2612C105.309 61.0851 104.964 60.9497 104.585 60.8549C104.206 60.7465 103.8 60.6924 103.367 60.6924C101.445 60.6924 100.484 61.9926 100.484 64.593C100.484 65.1076 100.531 65.602 100.626 66.076C100.734 66.5365 100.903 66.9496 101.134 67.3153C101.377 67.6674 101.688 67.9518 102.067 68.1685C102.46 68.3852 102.94 68.4936 103.509 68.4936C103.996 68.4936 104.429 68.4191 104.808 68.2701C105.2 68.1211 105.518 67.9518 105.762 67.7622L106.29 69.0015Z" fill="#0000FF"/>
<path d="M113.472 60.9361H110.528C110.488 61.505 110.447 62.1212 110.406 62.7849C110.366 63.435 110.305 64.0918 110.224 64.7555C110.143 65.4056 110.034 66.0354 109.899 66.6448C109.764 67.2408 109.588 67.769 109.371 68.2295C109.168 68.69 108.911 69.0624 108.6 69.3468C108.302 69.6177 107.943 69.7531 107.524 69.7531C107.267 69.7531 107.043 69.7396 106.854 69.7125C106.664 69.6854 106.495 69.638 106.346 69.5703L106.59 68.2091C106.752 68.2633 106.928 68.2904 107.118 68.2904C107.388 68.2904 107.632 68.1753 107.849 67.945C108.065 67.7148 108.255 67.2814 108.417 66.6448C108.579 65.9947 108.715 65.1009 108.823 63.9632C108.931 62.8255 109.006 61.3425 109.046 59.5141H115.096V69.6719H113.472V60.9361Z" fill="#0000FF"/>
<path d="M117.652 64.593C117.652 62.8729 118.031 61.5592 118.789 60.6517C119.561 59.7308 120.664 59.2703 122.098 59.2703C122.856 59.2703 123.512 59.3989 124.067 59.6563C124.636 59.9 125.103 60.259 125.468 60.733C125.833 61.1935 126.104 61.7555 126.28 62.4192C126.456 63.0693 126.544 63.7939 126.544 64.593C126.544 66.313 126.158 67.6335 125.387 68.5545C124.629 69.4619 123.533 69.9157 122.098 69.9157C121.34 69.9157 120.677 69.7938 120.109 69.55C119.554 69.2927 119.094 68.9337 118.728 68.4733C118.363 67.9992 118.092 67.4372 117.916 66.7871C117.74 66.1234 117.652 65.392 117.652 64.593ZM119.337 64.593C119.337 65.1076 119.385 65.602 119.479 66.076C119.588 66.55 119.75 66.9631 119.967 67.3153C120.183 67.6674 120.467 67.9518 120.819 68.1685C121.171 68.3852 121.597 68.4936 122.098 68.4936C123.939 68.5071 124.859 67.2069 124.859 64.593C124.859 64.0648 124.805 63.5636 124.697 63.0896C124.602 62.6156 124.446 62.2025 124.23 61.8504C124.013 61.4982 123.729 61.2206 123.377 61.0174C123.025 60.8007 122.599 60.6924 122.098 60.6924C120.258 60.6788 119.337 61.979 119.337 64.593Z" fill="#0000FF"/>
<path d="M135.317 65.1821H130.729V69.6719H129.105V59.5141H130.729V63.76H135.317V59.5141H136.941V69.6719H135.317V65.1821Z" fill="#0000FF"/>
<path d="M76.0564 80.545H75.6179L75.4961 79.5129H72.4429L72.3211 80.545H71.8826V78.9441H72.3617C72.405 78.8845 72.4619 78.7789 72.5322 78.6272C72.6026 78.4701 72.6703 78.2534 72.7353 77.9771C72.8056 77.6954 72.8652 77.3486 72.9139 76.9369C72.968 76.5198 73.0005 76.0241 73.0113 75.4498H75.4637V78.9441H76.0564V80.545ZM74.814 78.9441V76.0186H73.596C73.5852 76.2462 73.5662 76.4954 73.5392 76.7663C73.5121 77.0317 73.4742 77.2999 73.4255 77.5708C73.3822 77.8362 73.3253 78.0881 73.255 78.3265C73.1846 78.5649 73.1034 78.7707 73.0113 78.9441H74.814Z" fill="#B3B3B3"/>
<path d="M79.8244 79.1879C79.662 79.3179 79.4562 79.4208 79.2072 79.4967C78.9636 79.5725 78.7038 79.6105 78.4277 79.6105C78.1191 79.6105 77.8511 79.5617 77.6238 79.4642C77.3964 79.3612 77.2096 79.2177 77.0635 79.0335C76.9173 78.8439 76.809 78.6191 76.7387 78.359C76.6683 78.099 76.6331 77.8064 76.6331 77.4814C76.6331 76.7879 76.7874 76.2597 77.096 75.8968C77.4045 75.5338 77.8457 75.3523 78.4196 75.3523C78.6036 75.3523 78.7877 75.374 78.9717 75.4173C79.1558 75.4552 79.3209 75.5311 79.4671 75.6448C79.6132 75.7586 79.7323 75.9211 79.8244 76.1324C79.9164 76.3383 79.9624 76.6119 79.9624 76.9532C79.9624 77.1319 79.9462 77.3297 79.9137 77.5464H77.3071C77.3071 77.7848 77.3314 77.996 77.3802 78.1802C77.4289 78.3644 77.5047 78.5215 77.6075 78.6516C77.7104 78.7762 77.843 78.8737 78.0054 78.9441C78.1732 79.0091 78.3762 79.0416 78.6144 79.0416C78.7985 79.0416 78.9826 79.0091 79.1666 78.9441C79.3507 78.8791 79.4887 78.8032 79.5808 78.7166L79.8244 79.1879ZM78.4277 75.9211C78.1083 75.9211 77.8511 76.0051 77.6563 76.173C77.4668 76.341 77.3531 76.6281 77.3152 77.0344H79.329C79.329 76.6227 79.2505 76.3356 79.0935 76.173C78.9365 76.0051 78.7146 75.9211 78.4277 75.9211Z" fill="#B3B3B3"/>
<path d="M83.5663 76.0186H82.2995V79.5129H81.6499V76.0186H80.3831V75.4498H83.5663V76.0186Z" fill="#B3B3B3"/>
<path d="M86.8536 79.2448C86.6912 79.364 86.4991 79.4533 86.2771 79.5129C86.0551 79.5779 85.8224 79.6105 85.5788 79.6105C85.2648 79.6105 84.9995 79.5617 84.783 79.4642C84.5664 79.3612 84.3878 79.2177 84.247 79.0335C84.1117 78.8439 84.0116 78.6191 83.9466 78.359C83.887 78.0936 83.8573 77.801 83.8573 77.4814C83.8573 76.7934 84.0088 76.2679 84.312 75.9049C84.6152 75.5365 85.0509 75.3523 85.6194 75.3523C85.8792 75.3523 86.0985 75.374 86.2771 75.4173C86.4612 75.4552 86.6263 75.5121 86.7724 75.588L86.5857 76.1487C86.4612 76.0782 86.3231 76.0241 86.1715 75.9861C86.02 75.9428 85.8576 75.9211 85.6843 75.9211C84.9156 75.9211 84.5312 76.4412 84.5312 77.4814C84.5312 77.6872 84.5502 77.885 84.5881 78.0746C84.6314 78.2588 84.6991 78.424 84.7911 78.5703C84.8885 78.7111 85.013 78.8249 85.1646 78.9116C85.3216 78.9983 85.5138 79.0416 85.7412 79.0416C85.9361 79.0416 86.1093 79.0118 86.2609 78.9522C86.4179 78.8926 86.5451 78.8249 86.6425 78.7491L86.8536 79.2448Z" fill="#B3B3B3"/>
<path d="M88.7714 77.6845H88.3979V79.5129H87.7483V75.4498H88.3979V77.2863L88.7471 77.1726L90.0463 75.4498H90.7528L89.4941 77.0832L89.1531 77.3514L89.5753 77.6764L90.9314 79.5129H90.1275L88.7714 77.6845Z" fill="#B3B3B3"/>
<path d="M94.1595 77.1076L94.1839 76.6037H94.1595L93.8266 77.1238L91.9995 79.5129H91.626V75.4498H92.2756V77.9283L92.2513 78.4078H92.2837L92.6004 77.9039L94.4275 75.4498H94.8091V79.5129H94.1595V77.1076Z" fill="#B3B3B3"/>
<path d="M99.0227 79.1879C98.8603 79.3179 98.6546 79.4208 98.4056 79.4967C98.162 79.5725 97.9021 79.6105 97.626 79.6105C97.3175 79.6105 97.0495 79.5617 96.8221 79.4642C96.5948 79.3612 96.408 79.2177 96.2618 79.0335C96.1157 78.8439 96.0074 78.6191 95.937 78.359C95.8666 78.099 95.8315 77.8064 95.8315 77.4814C95.8315 76.7879 95.9857 76.2597 96.2943 75.8968C96.6029 75.5338 97.0441 75.3523 97.6179 75.3523C97.802 75.3523 97.986 75.374 98.1701 75.4173C98.3541 75.4552 98.5193 75.5311 98.6654 75.6448C98.8116 75.7586 98.9307 75.9211 99.0227 76.1324C99.1147 76.3383 99.1608 76.6119 99.1608 76.9532C99.1608 77.1319 99.1445 77.3297 99.112 77.5464H96.5054C96.5054 77.7848 96.5298 77.996 96.5785 78.1802C96.6272 78.3644 96.703 78.5215 96.8059 78.6516C96.9087 78.7762 97.0414 78.8737 97.2038 78.9441C97.3716 79.0091 97.5746 79.0416 97.8128 79.0416C97.9969 79.0416 98.1809 79.0091 98.365 78.9441C98.549 78.8791 98.6871 78.8032 98.7791 78.7166L99.0227 79.1879ZM97.626 75.9211C97.3066 75.9211 97.0495 76.0051 96.8546 76.173C96.6651 76.341 96.5515 76.6281 96.5136 77.0344H98.5274C98.5274 76.6227 98.4489 76.3356 98.2919 76.173C98.1349 76.0051 97.9129 75.9211 97.626 75.9211Z" fill="#B3B3B3"/>
<path d="M104.791 76.0186H102.997V79.5129H102.347V75.4498H105.441V79.5129H104.791V76.0186Z" fill="#B3B3B3"/>
<path d="M106.693 75.4498H107.139L107.261 75.9374H107.294C107.418 75.7478 107.578 75.6042 107.773 75.5067C107.973 75.4038 108.201 75.3523 108.455 75.3523C108.996 75.3523 109.4 75.5121 109.665 75.8317C109.93 76.1514 110.063 76.6742 110.063 77.4001C110.063 77.7414 110.017 78.0502 109.925 78.3265C109.838 78.5974 109.714 78.8276 109.551 79.0172C109.389 79.2069 109.191 79.3531 108.958 79.4561C108.731 79.559 108.477 79.6105 108.195 79.6105C107.995 79.6105 107.835 79.5969 107.716 79.5698C107.602 79.5482 107.478 79.5075 107.342 79.4479V81.1382H106.693V75.4498ZM108.333 75.9211C108.057 75.9211 107.838 75.9943 107.675 76.1405C107.518 76.2814 107.407 76.4981 107.342 76.7906V78.806C107.44 78.8818 107.551 78.9414 107.675 78.9847C107.8 79.0227 107.965 79.0416 108.171 79.0416C108.544 79.0416 108.839 78.9035 109.056 78.6272C109.278 78.3455 109.389 77.9337 109.389 77.392C109.389 77.1699 109.37 76.9694 109.332 76.7906C109.294 76.6064 109.232 76.452 109.145 76.3274C109.064 76.1974 108.956 76.0972 108.82 76.0268C108.69 75.9563 108.528 75.9211 108.333 75.9211Z" fill="#B3B3B3"/>
<path d="M111.021 75.7505C111.227 75.6259 111.465 75.5338 111.736 75.4742C112.012 75.4146 112.299 75.3848 112.596 75.3848C112.878 75.3848 113.103 75.4227 113.27 75.4986C113.444 75.5744 113.574 75.6746 113.66 75.7992C113.752 75.9184 113.812 76.0512 113.839 76.1974C113.871 76.3437 113.888 76.49 113.888 76.6362C113.888 76.9613 113.879 77.2782 113.863 77.587C113.847 77.8958 113.839 78.1884 113.839 78.4647C113.839 78.6651 113.847 78.8547 113.863 79.0335C113.879 79.2123 113.909 79.3775 113.952 79.5292H113.473L113.303 78.9604H113.262C113.214 79.0362 113.151 79.112 113.076 79.1879C113.005 79.2583 112.919 79.3233 112.816 79.3829C112.713 79.4371 112.594 79.4831 112.458 79.5211C112.323 79.559 112.169 79.5779 111.996 79.5779C111.822 79.5779 111.66 79.5509 111.508 79.4967C111.362 79.4425 111.235 79.3667 111.127 79.2692C111.018 79.1662 110.932 79.0443 110.867 78.9035C110.807 78.7626 110.777 78.6028 110.777 78.424C110.777 78.1857 110.826 77.9879 110.924 77.8308C111.021 77.6683 111.156 77.541 111.33 77.4489C111.508 77.3514 111.719 77.2836 111.963 77.2457C112.212 77.2024 112.485 77.1807 112.783 77.1807C112.859 77.1807 112.932 77.1807 113.002 77.1807C113.078 77.1807 113.154 77.1861 113.23 77.197C113.246 77.0344 113.254 76.8882 113.254 76.7581C113.254 76.4602 113.195 76.2516 113.076 76.1324C112.956 76.0132 112.74 75.9536 112.426 75.9536C112.334 75.9536 112.234 75.9618 112.125 75.978C112.023 75.9889 111.914 76.0078 111.801 76.0349C111.692 76.0566 111.587 76.0864 111.484 76.1243C111.386 76.1568 111.3 76.1947 111.224 76.2381L111.021 75.7505ZM112.174 79.0091C112.326 79.0091 112.461 78.9902 112.58 78.9522C112.699 78.9089 112.802 78.8574 112.889 78.7978C112.975 78.7328 113.046 78.6624 113.1 78.5865C113.159 78.5107 113.203 78.4376 113.23 78.3671V77.6927C113.154 77.6872 113.076 77.6845 112.994 77.6845C112.919 77.6791 112.843 77.6764 112.767 77.6764C112.599 77.6764 112.434 77.6872 112.272 77.7089C112.115 77.7252 111.974 77.7604 111.849 77.8146C111.73 77.8633 111.633 77.9337 111.557 78.0258C111.487 78.1125 111.451 78.2236 111.451 78.359C111.451 78.5486 111.519 78.7057 111.654 78.8303C111.79 78.9495 111.963 79.0091 112.174 79.0091Z" fill="#B3B3B3"/>
<path d="M115.504 77.7008V77.1726H116.073C116.17 77.1726 116.265 77.1563 116.357 77.1238C116.454 77.0913 116.541 77.048 116.617 76.9938C116.692 76.9342 116.752 76.8665 116.795 76.7906C116.844 76.7094 116.868 76.6254 116.868 76.5387C116.868 76.3274 116.795 76.1785 116.649 76.0918C116.503 76.0051 116.284 75.9618 115.991 75.9618C115.78 75.9618 115.585 75.9943 115.407 76.0593C115.234 76.1243 115.098 76.1866 115.001 76.2462L114.814 75.7424C114.976 75.6503 115.166 75.569 115.382 75.4986C115.604 75.4281 115.867 75.3929 116.17 75.3929C117.069 75.3929 117.518 75.7261 117.518 76.3925C117.518 76.5821 117.456 76.769 117.331 76.9532C117.212 77.1319 117.039 77.2593 116.812 77.3351V77.3676C117.131 77.4272 117.353 77.541 117.477 77.7089C117.607 77.8769 117.672 78.099 117.672 78.3753C117.672 78.5486 117.637 78.7084 117.567 78.8547C117.496 79.001 117.391 79.1283 117.25 79.2366C117.109 79.345 116.931 79.4317 116.714 79.4967C116.503 79.5563 116.257 79.5861 115.975 79.5861C115.699 79.5861 115.469 79.5617 115.285 79.5129C115.106 79.4642 114.944 79.4046 114.798 79.3342L114.985 78.7978C115.109 78.8683 115.258 78.9224 115.431 78.9604C115.61 78.9983 115.802 79.0172 116.008 79.0172C116.338 79.0172 116.59 78.9604 116.763 78.8466C116.936 78.7328 117.023 78.5595 117.023 78.3265C117.023 78.1315 116.942 77.9798 116.779 77.8714C116.617 77.7577 116.349 77.7008 115.975 77.7008H115.504Z" fill="#B3B3B3"/>
<path d="M122.288 80.545H121.849L121.728 79.5129H118.674L118.553 80.545H118.114V78.9441H118.593C118.637 78.8845 118.693 78.7789 118.764 78.6272C118.834 78.4701 118.902 78.2534 118.967 77.9771C119.037 77.6954 119.097 77.3486 119.145 76.9369C119.2 76.5198 119.232 76.0241 119.243 75.4498H121.695V78.9441H122.288V80.545ZM121.046 78.9441V76.0186H119.827C119.817 76.2462 119.798 76.4954 119.771 76.7663C119.744 77.0317 119.706 77.2999 119.657 77.5708C119.614 77.8362 119.557 78.0881 119.486 78.3265C119.416 78.5649 119.335 78.7707 119.243 78.9441H121.046Z" fill="#B3B3B3"/>
<path d="M125.577 77.717H123.742V79.5129H123.092V75.4498H123.742V77.1482H125.577V75.4498H126.226V79.5129H125.577V77.717Z" fill="#B3B3B3"/>
<path d="M130.011 77.1076L130.035 76.6037H130.011L129.678 77.1238L127.851 79.5129H127.477V75.4498H128.127V77.9283L128.102 78.4078H128.135L128.452 77.9039L130.279 75.4498H130.66V79.5129H130.011V77.1076Z" fill="#B3B3B3"/>
<path d="M132.933 77.6845H132.56V79.5129H131.91V75.4498H132.56V77.2863L132.909 77.1726L134.208 75.4498H134.915L133.656 77.0832L133.315 77.3514L133.737 77.6764L135.093 79.5129H134.289L132.933 77.6845Z" fill="#B3B3B3"/>
<path d="M138.321 77.1076L138.346 76.6037H138.321L137.988 77.1238L136.161 79.5129H135.788V75.4498H136.437V77.9283L136.413 78.4078H136.446L136.762 77.9039L138.589 75.4498H138.971V79.5129H138.321V77.1076Z" fill="#B3B3B3"/>
</svg>
