<svg width="55" height="55" viewBox="0 0 55 55" fill="none" xmlns="http://www.w3.org/2000/svg">
<path d="M4.6843 14.3273L27.5 1.1547L50.3157 14.3273V40.6726L27.5 53.8453L4.6843 40.6726V14.3273Z" stroke="#FF0000" stroke-width="2"/>
<path d="M25.0645 31.7119C25.0547 31.3604 25.0498 31.0967 25.0498 30.9209C25.0498 29.8857 25.1963 28.9922 25.4893 28.2402C25.7041 27.6738 26.0508 27.1025 26.5293 26.5264C26.8809 26.1064 27.5107 25.4961 28.4189 24.6953C29.3369 23.8848 29.9326 23.2402 30.2061 22.7617C30.4795 22.2832 30.6162 21.7607 30.6162 21.1943C30.6162 20.1689 30.2158 19.2705 29.415 18.499C28.6143 17.7178 27.6328 17.3271 26.4707 17.3271C25.3477 17.3271 24.4102 17.6787 23.6582 18.3818C22.9062 19.085 22.4131 20.1836 22.1787 21.6777L19.4688 21.3555C19.7129 19.3535 20.4355 17.8203 21.6367 16.7559C22.8477 15.6914 24.4443 15.1592 26.4268 15.1592C28.5264 15.1592 30.2012 15.7305 31.4512 16.873C32.7012 18.0156 33.3262 19.3975 33.3262 21.0186C33.3262 21.9561 33.1064 22.8203 32.667 23.6113C32.2275 24.4023 31.3682 25.3643 30.0889 26.4971C29.2295 27.2588 28.668 27.8203 28.4043 28.1816C28.1406 28.543 27.9453 28.958 27.8184 29.4268C27.6914 29.8955 27.6182 30.6572 27.5986 31.7119H25.0645ZM24.9033 37V33.9971H27.9062V37H24.9033Z" fill="#FF0000"/>
</svg>
