<?xml version="1.0" encoding="UTF-8" standalone="no"?>
<!-- Created with Inkscape (http://www.inkscape.org/) -->

<svg
   xmlns:dc="http://purl.org/dc/elements/1.1/"
   xmlns:cc="http://creativecommons.org/ns#"
   xmlns:rdf="http://www.w3.org/1999/02/22-rdf-syntax-ns#"
   xmlns:svg="http://www.w3.org/2000/svg"
   xmlns="http://www.w3.org/2000/svg"
   xmlns:sodipodi="http://sodipodi.sourceforge.net/DTD/sodipodi-0.dtd"
   xmlns:inkscape="http://www.inkscape.org/namespaces/inkscape"
   width="140"
   height="140"
   id="svg3171"
   version="1.1"
   inkscape:version="0.48.4 r9939"
   sodipodi:docname="track-img.svg">
  <defs
     id="defs3173" />
  <sodipodi:namedview
     id="base"
     pagecolor="#ffffff"
     bordercolor="#666666"
     borderopacity="1.0"
     inkscape:pageopacity="0.0"
     inkscape:pageshadow="2"
     inkscape:zoom="0.35"
     inkscape:cx="54.28571"
     inkscape:cy="61.071427"
     inkscape:document-units="px"
     inkscape:current-layer="layer1"
     showgrid="false"
     fit-margin-top="0"
     fit-margin-left="0"
     fit-margin-right="0"
     fit-margin-bottom="0"
     inkscape:window-width="1192"
     inkscape:window-height="659"
     inkscape:window-x="321"
     inkscape:window-y="392"
     inkscape:window-maximized="0" />
  <metadata
     id="metadata3176">
    <rdf:RDF>
      <cc:Work
         rdf:about="">
        <dc:format>image/svg+xml</dc:format>
        <dc:type
           rdf:resource="http://purl.org/dc/dcmitype/StillImage" />
        <dc:title></dc:title>
      </cc:Work>
    </rdf:RDF>
  </metadata>
  <g
     inkscape:label="Layer 1"
     inkscape:groupmode="layer"
     id="layer1"
     transform="translate(-320.71429,-453.43361)">
    <path
       style="font-size:medium;font-style:normal;font-variant:normal;font-weight:normal;font-stretch:normal;text-indent:0;text-align:start;text-decoration:none;line-height:normal;letter-spacing:normal;word-spacing:normal;text-transform:none;direction:ltr;block-progression:tb;writing-mode:lr-tb;text-anchor:start;baseline-shift:baseline;color:#000000;fill:#ff5555;fill-opacity:1;stroke:none;stroke-width:10;marker:none;visibility:visible;display:inline;overflow:visible;enable-background:accumulate;font-family:Sans;-inkscape-font-specification:Sans"
       d="m 331.14694,453.43361 c -5.71107,0 -10.43265,4.7007 -10.43265,10.4127 l 0,119.1746 c 0,5.712 4.72158,10.4127 10.43265,10.4127 l 119.13472,0 c 5.71105,0 10.43263,-4.7007 10.43263,-10.4127 l 0,-119.1746 c 0,-5.712 -4.72158,-10.4127 -10.43263,-10.4127 l -119.13474,0 z m 0,6.8987 119.13472,0 c 2.00909,0 3.53503,1.5045 3.53503,3.514 l 0,119.1746 c 0,2.0094 -1.52594,3.5141 -3.53503,3.5141 l -119.13474,0 c -2.00908,0 -3.53501,-1.5047 -3.53501,-3.5141 l 0,-119.1746 c 0,-2.0095 1.52593,-3.514 3.53501,-3.514 z m 59.57813,7.6962 c -1.77221,0 -3.52979,0.096 -5.25943,0.2588 0.38646,0.1246 0.57668,0.4277 0.58199,0.9054 l 0,15.5437 -1.22864,0 c -0.47575,0 -0.82562,-0.1143 -1.03464,-0.3449 -0.20182,-0.2236 -0.30179,-0.595 -0.30177,-1.0996 l 0,-13.0213 -2.58661,0 0,-1.3581 c -25.90611,4.6384 -45.56736,27.2767 -45.56736,54.5212 0,30.5983 24.80278,55.405 55.39646,55.405 30.59367,0 55.3749,-24.8067 55.3749,-55.405 0,-28.1485 -20.97555,-51.3886 -48.15397,-54.9309 0.36739,0.1652 0.69802,0.3628 0.99154,0.6037 0.49013,0.3893 0.86137,0.8749 1.12087,1.4444 0.25947,0.5695 0.38798,1.2194 0.38798,1.9403 -0.0148,0.9732 -0.21438,1.8086 -0.58198,2.5223 -0.36041,0.7066 -0.95297,1.3635 -1.78907,1.9403 l -4.09546,2.7594 c -0.25229,0.1803 -0.43795,0.4016 -0.53887,0.6467 -0.0937,0.238 -0.12935,0.495 -0.12935,0.7761 l 0,1.509 7.22095,0 0,0.8626 c -2e-5,0.3532 -0.1071,0.6315 -0.30178,0.8622 -0.18742,0.238 -0.55153,0.3666 -1.09932,0.3666 l -6.68205,0 c -0.60547,0 -1.03381,-0.099 -1.29331,-0.3019 -0.25227,-0.1946 -0.38798,-0.6018 -0.38798,-1.2073 l 0,-2.242 c 0,-0.6488 0.12845,-1.1916 0.38798,-1.6385 0.25948,-0.4542 0.64507,-0.8469 1.14243,-1.1858 l 4.18168,-2.8456 c 0.59104,-0.411 0.97662,-0.8249 1.1424,-1.2503 0.173,-0.4327 0.25865,-0.9538 0.25867,-1.5738 -2e-5,-0.7643 -0.27858,-1.3712 -0.79754,-1.8326 -0.51177,-0.4613 -1.22569,-0.6898 -2.15551,-0.6898 -0.57664,0 -1.16925,0.028 -1.76751,0.1082 -0.59826,0.073 -1.29076,0.2223 -2.09083,0.4313 l 0,-2.0912 c 0.33877,-0.086 0.6529,-0.1723 0.94841,-0.2371 0.19189,-0.046 0.37518,-0.074 0.56045,-0.1083 -0.61796,-0.021 -1.23084,-0.043 -1.85374,-0.043 z m -29.61664,13.6465 26.77137,37.0373 0,-28.4787 5.66898,0 0,36.3259 5.99231,8.2784 -1.89686,1.5309 -4.09545,-5.67 0,10.0246 -5.66898,0 0,-17.8719 -28.6682,-39.6459 1.89683,-1.5306 z"
       id="rect3929"
       inkscape:connector-curvature="0"
       inkscape:export-filename="/home/smargelov/Рабочий стол/track.png"
       inkscape:export-xdpi="90"
       inkscape:export-ydpi="90" />
  </g>
</svg>
