<?xml version="1.0" encoding="UTF-8" standalone="no"?>
<!-- Created with Inkscape (http://www.inkscape.org/) -->

<svg
   xmlns:dc="http://purl.org/dc/elements/1.1/"
   xmlns:cc="http://creativecommons.org/ns#"
   xmlns:rdf="http://www.w3.org/1999/02/22-rdf-syntax-ns#"
   xmlns:svg="http://www.w3.org/2000/svg"
   xmlns="http://www.w3.org/2000/svg"
   xmlns:xlink="http://www.w3.org/1999/xlink"
   xmlns:sodipodi="http://sodipodi.sourceforge.net/DTD/sodipodi-0.dtd"
   xmlns:inkscape="http://www.inkscape.org/namespaces/inkscape"
   width="140"
   height="140"
   id="svg3171"
   version="1.1"
   inkscape:version="0.48.4 r9939"
   sodipodi:docname="vopros.svg">
  <defs
     id="defs3173">
    <radialGradient
       id="radialGradient3521"
       r="19.375"
       gradientUnits="userSpaceOnUse"
       gradientTransform="matrix(.47303,.15667,-.1319,.42436,34.98134,9.80281)"
       cy="29.93452"
       cx="60.12984">
      <stop
         id="stop3523"
         stop-color="#ededf0"
         offset="0" />
      <stop
         id="stop3525"
         stop-opacity="0"
         stop-color="#d8d8e7"
         offset="1" />
    </radialGradient>
    <marker
       id="marker3517"
       viewBox="0 0 10 10"
       refY="5"
       refX="10"
       orient="auto"
       markerWidth="4"
       markerUnits="strokeWidth"
       markerHeight="3">
      <path
         id="path3519"
         d="m10,0-10,5 10,5v-10z" />
    </marker>
    <marker
       id="marker3513"
       viewBox="0 0 10 10"
       refY="5"
       refX="0"
       orient="auto"
       markerWidth="4"
       markerUnits="strokeWidth"
       markerHeight="3">
      <path
         id="path3515"
         d="m0,0 10,5-10,5v-10z" />
    </marker>
    <linearGradient
       id="linearGradient3511"
       y2="62.19664"
       y1="62.37725"
       xlink:href="#linearGradient5950"
       x2="74.94252"
       x1="45.08966"
       gradientUnits="userSpaceOnUse" />
    <linearGradient
       id="linearGradient3509"
       xlink:href="#linearGradient5950"
       x2="69.9439"
       x1="140.14523"
       gradientUnits="userSpaceOnUse" />
    <linearGradient
       id="linearGradient3507"
       xlink:href="#linearGradient5731"
       x2="55"
       x1="93.75"
       gradientUnits="userSpaceOnUse" />
    <linearGradient
       id="linearGradient3505"
       y2="41.62819"
       y1="23.83763"
       xlink:href="#linearGradient5737"
       x2="53.07532"
       x1="95.05161"
       gradientUnits="userSpaceOnUse" />
    <linearGradient
       id="linearGradient3503"
       y2="31.69491"
       y1="31.88038"
       xlink:href="#linearGradient5737"
       x2="112.03358"
       x1="31.05663"
       gradientUnits="userSpaceOnUse" />
    <linearGradient
       id="linearGradient3501"
       xlink:href="#linearGradient5737"
       x2="53.53231"
       x1="114.99184"
       gradientUnits="userSpaceOnUse" />
    <linearGradient
       id="linearGradient3499"
       y2="62.32164"
       y1="62.50225"
       xlink:href="#linearGradient5950"
       x2="74.94252"
       x1="45.08966"
       gradientUnits="userSpaceOnUse" />
    <linearGradient
       id="linearGradient3497"
       xlink:href="#linearGradient5950"
       x2="69.9439"
       x1="140.14523"
       gradientUnits="userSpaceOnUse" />
    <linearGradient
       id="linearGradient3495"
       xlink:href="#linearGradient5731"
       x2="52.50001"
       x1="95"
       gradientUnits="userSpaceOnUse" />
    <linearGradient
       id="linearGradient3493"
       y2="40.37818"
       y1="22.58764"
       xlink:href="#linearGradient5737"
       x2="51.76322"
       x1="95.09362"
       gradientUnits="userSpaceOnUse" />
    <linearGradient
       id="linearGradient3491"
       y2="31.08526"
       y1="30.81434"
       xlink:href="#linearGradient5737"
       x2="63.86851"
       x1="76.67344"
       gradientUnits="userSpaceOnUse" />
    <linearGradient
       id="linearGradient3489"
       y2="24.84724"
       y1="24.91469"
       xlink:href="#linearGradient5737"
       x2="90.00876"
       x1="55.04785"
       gradientUnits="userSpaceOnUse" />
    <linearGradient
       id="linearGradient3487"
       xlink:href="#linearGradient5737"
       x2="65.28061"
       x1="90.25407"
       gradientUnits="userSpaceOnUse" />
    <linearGradient
       id="linearGradient3481">
      <stop
         id="stop3483"
         stop-color="#8c8ca4"
         offset="0" />
      <stop
         id="stop3485"
         stop-color="#a2a2c6"
         offset="1" />
    </linearGradient>
    <linearGradient
       id="linearGradient3475">
      <stop
         id="stop3477"
         stop-color="#fff"
         offset="0" />
      <stop
         id="stop3479"
         stop-opacity="0"
         stop-color="#a1a1a1"
         offset="1" />
    </linearGradient>
    <linearGradient
       id="linearGradient3469">
      <stop
         id="stop3471"
         stop-color="#800000"
         offset="0" />
      <stop
         id="stop3473"
         stop-color="#5e0000"
         offset="1" />
    </linearGradient>
    <linearGradient
       id="linearGradient3463">
      <stop
         id="stop3465"
         offset="0" />
      <stop
         id="stop3467"
         stop-color="#9b0000"
         offset="1" />
    </linearGradient>
    <linearGradient
       id="linearGradient3457">
      <stop
         id="stop3459"
         stop-color="#82829c"
         offset="0" />
      <stop
         id="stop3461"
         stop-color="#d8d8e7"
         offset="1" />
    </linearGradient>
    <linearGradient
       id="linearGradient3451">
      <stop
         id="stop3453"
         stop-color="#924800"
         offset="0" />
      <stop
         id="stop3455"
         stop-color="#ff9930"
         offset="1" />
    </linearGradient>
    <linearGradient
       id="linearGradient3445"
       y2="33.75448"
       y1="33.9222"
       x2="50.53068"
       x1="96.64055"
       gradientUnits="userSpaceOnUse">
      <stop
         id="stop3447"
         offset="0" />
      <stop
         id="stop3449"
         stop-opacity="0"
         offset="1" />
    </linearGradient>
    <linearGradient
       id="linearGradient3439"
       x2="113.53172"
       x1="95"
       gradientUnits="userSpaceOnUse">
      <stop
         id="stop3441"
         stop-color="#8e8ea4"
         offset="0" />
      <stop
         id="stop3443"
         stop-color="#57576c"
         offset="1" />
    </linearGradient>
    <linearGradient
       id="linearGradient3433"
       y2="72.34698"
       y1="72.5276"
       x2="50.03026"
       x1="90.4023"
       gradientUnits="userSpaceOnUse">
      <stop
         id="stop3435"
         stop-color="#212121"
         offset="0" />
      <stop
         id="stop3437"
         stop-color="#a1a1a1"
         offset="1" />
    </linearGradient>
    <linearGradient
       id="linearGradient3427"
       x2="52.5"
       x1="95.00332"
       gradientUnits="userSpaceOnUse">
      <stop
         id="stop3429"
         stop-color="#be1600"
         offset="0" />
      <stop
         id="stop3431"
         stop-color="#ffc73f"
         offset="1" />
    </linearGradient>
    <linearGradient
       id="linearGradient3421"
       x2="62.5625"
       x1="87.3125"
       gradientUnits="userSpaceOnUse">
      <stop
         id="stop3423"
         stop-color="#636381"
         offset="0" />
      <stop
         id="stop3425"
         stop-color="#9393ac"
         offset="1" />
    </linearGradient>
    <clipPath
       clipPathUnits="userSpaceOnUse"
       id="clipPath3961">
      <rect
         style="color:#000000;fill:#666666;fill-opacity:1;fill-rule:nonzero;marker:none;visibility:visible;display:inline;overflow:visible;enable-background:accumulate"
         id="rect3963"
         width="35.59483"
         height="36.63266"
         x="103.24046"
         y="418.31531"
         rx="0"
         ry="0"
         transform="matrix(0.35678968,0.93418474,-0.92046675,0.39082088,0,0)" />
    </clipPath>
    <radialGradient
       id="radialGradient4525"
       r="19.375"
       gradientUnits="userSpaceOnUse"
       gradientTransform="matrix(.47303,.15667,-.1319,.42436,34.98134,9.80281)"
       cy="29.93452"
       cx="60.12984">
      <stop
         id="stop4527"
         stop-color="#ededf0"
         offset="0" />
      <stop
         id="stop4529"
         stop-opacity="0"
         stop-color="#d8d8e7"
         offset="1" />
    </radialGradient>
    <marker
       id="marker4521"
       viewBox="0 0 10 10"
       refY="5"
       refX="10"
       orient="auto"
       markerWidth="4"
       markerUnits="strokeWidth"
       markerHeight="3">
      <path
         id="path4523"
         d="m10,0-10,5 10,5v-10z" />
    </marker>
    <marker
       id="marker4517"
       viewBox="0 0 10 10"
       refY="5"
       refX="0"
       orient="auto"
       markerWidth="4"
       markerUnits="strokeWidth"
       markerHeight="3">
      <path
         id="path4519"
         d="m0,0 10,5-10,5v-10z" />
    </marker>
    <linearGradient
       id="linearGradient4515"
       y2="62.19664"
       y1="62.37725"
       xlink:href="#linearGradient5950"
       x2="74.94252"
       x1="45.08966"
       gradientUnits="userSpaceOnUse" />
    <linearGradient
       id="linearGradient4513"
       xlink:href="#linearGradient5950"
       x2="69.9439"
       x1="140.14523"
       gradientUnits="userSpaceOnUse" />
    <linearGradient
       id="linearGradient4511"
       xlink:href="#linearGradient5731"
       x2="55"
       x1="93.75"
       gradientUnits="userSpaceOnUse" />
    <linearGradient
       id="linearGradient4509"
       y2="41.62819"
       y1="23.83763"
       xlink:href="#linearGradient5737"
       x2="53.07532"
       x1="95.05161"
       gradientUnits="userSpaceOnUse" />
    <linearGradient
       id="linearGradient4507"
       y2="31.69491"
       y1="31.88038"
       xlink:href="#linearGradient5737"
       x2="112.03358"
       x1="31.05663"
       gradientUnits="userSpaceOnUse" />
    <linearGradient
       id="linearGradient4505"
       xlink:href="#linearGradient5737"
       x2="53.53231"
       x1="114.99184"
       gradientUnits="userSpaceOnUse" />
    <linearGradient
       id="linearGradient4503"
       y2="62.32164"
       y1="62.50225"
       xlink:href="#linearGradient5950"
       x2="74.94252"
       x1="45.08966"
       gradientUnits="userSpaceOnUse" />
    <linearGradient
       id="linearGradient4501"
       xlink:href="#linearGradient5950"
       x2="69.9439"
       x1="140.14523"
       gradientUnits="userSpaceOnUse" />
    <linearGradient
       id="linearGradient4499"
       xlink:href="#linearGradient5731"
       x2="52.50001"
       x1="95"
       gradientUnits="userSpaceOnUse" />
    <linearGradient
       id="linearGradient4497"
       y2="40.37818"
       y1="22.58764"
       xlink:href="#linearGradient5737"
       x2="51.76322"
       x1="95.09362"
       gradientUnits="userSpaceOnUse" />
    <linearGradient
       id="linearGradient4495"
       y2="31.08526"
       y1="30.81434"
       xlink:href="#linearGradient5737"
       x2="63.86851"
       x1="76.67344"
       gradientUnits="userSpaceOnUse" />
    <linearGradient
       id="linearGradient4493"
       y2="24.84724"
       y1="24.91469"
       xlink:href="#linearGradient5737"
       x2="90.00876"
       x1="55.04785"
       gradientUnits="userSpaceOnUse" />
    <linearGradient
       id="linearGradient4491"
       xlink:href="#linearGradient5737"
       x2="65.28061"
       x1="90.25407"
       gradientUnits="userSpaceOnUse" />
    <linearGradient
       id="linearGradient4485">
      <stop
         id="stop4487"
         stop-color="#8c8ca4"
         offset="0" />
      <stop
         id="stop4489"
         stop-color="#a2a2c6"
         offset="1" />
    </linearGradient>
    <linearGradient
       id="linearGradient4479">
      <stop
         id="stop4481"
         stop-color="#fff"
         offset="0" />
      <stop
         id="stop4483"
         stop-opacity="0"
         stop-color="#a1a1a1"
         offset="1" />
    </linearGradient>
    <linearGradient
       id="linearGradient4473">
      <stop
         id="stop4475"
         stop-color="#800000"
         offset="0" />
      <stop
         id="stop4477"
         stop-color="#5e0000"
         offset="1" />
    </linearGradient>
    <linearGradient
       id="linearGradient4467">
      <stop
         id="stop4469"
         offset="0" />
      <stop
         id="stop4471"
         stop-color="#9b0000"
         offset="1" />
    </linearGradient>
    <linearGradient
       id="linearGradient4461">
      <stop
         id="stop4463"
         stop-color="#82829c"
         offset="0" />
      <stop
         id="stop4465"
         stop-color="#d8d8e7"
         offset="1" />
    </linearGradient>
    <linearGradient
       id="linearGradient4455">
      <stop
         id="stop4457"
         stop-color="#924800"
         offset="0" />
      <stop
         id="stop4459"
         stop-color="#ff9930"
         offset="1" />
    </linearGradient>
    <linearGradient
       id="linearGradient4449"
       y2="33.75448"
       y1="33.9222"
       x2="50.53068"
       x1="96.64055"
       gradientUnits="userSpaceOnUse">
      <stop
         id="stop4451"
         offset="0" />
      <stop
         id="stop4453"
         stop-opacity="0"
         offset="1" />
    </linearGradient>
    <linearGradient
       id="linearGradient4443"
       x2="113.53172"
       x1="95"
       gradientUnits="userSpaceOnUse">
      <stop
         id="stop4445"
         stop-color="#8e8ea4"
         offset="0" />
      <stop
         id="stop4447"
         stop-color="#57576c"
         offset="1" />
    </linearGradient>
    <linearGradient
       id="linearGradient4437"
       y2="72.34698"
       y1="72.5276"
       x2="50.03026"
       x1="90.4023"
       gradientUnits="userSpaceOnUse">
      <stop
         id="stop4439"
         stop-color="#212121"
         offset="0" />
      <stop
         id="stop4441"
         stop-color="#a1a1a1"
         offset="1" />
    </linearGradient>
    <linearGradient
       id="linearGradient4431"
       x2="52.5"
       x1="95.00332"
       gradientUnits="userSpaceOnUse">
      <stop
         id="stop4433"
         stop-color="#be1600"
         offset="0" />
      <stop
         id="stop4435"
         stop-color="#ffc73f"
         offset="1" />
    </linearGradient>
    <linearGradient
       id="linearGradient4425"
       x2="62.5625"
       x1="87.3125"
       gradientUnits="userSpaceOnUse">
      <stop
         id="stop4427"
         stop-color="#636381"
         offset="0" />
      <stop
         id="stop4429"
         stop-color="#9393ac"
         offset="1" />
    </linearGradient>
  </defs>
  <sodipodi:namedview
     id="base"
     pagecolor="#ffffff"
     bordercolor="#666666"
     borderopacity="1.0"
     inkscape:pageopacity="0.0"
     inkscape:pageshadow="2"
     inkscape:zoom="2"
     inkscape:cx="22.781275"
     inkscape:cy="44.153523"
     inkscape:document-units="px"
     inkscape:current-layer="layer1"
     showgrid="false"
     fit-margin-top="0"
     fit-margin-left="0"
     fit-margin-right="0"
     fit-margin-bottom="0"
     inkscape:window-width="1752"
     inkscape:window-height="970"
     inkscape:window-x="107"
     inkscape:window-y="64"
     inkscape:window-maximized="0" />
  <metadata
     id="metadata3176">
    <rdf:RDF>
      <cc:Work
         rdf:about="">
        <dc:format>image/svg+xml</dc:format>
        <dc:type
           rdf:resource="http://purl.org/dc/dcmitype/StillImage" />
        <dc:title></dc:title>
      </cc:Work>
    </rdf:RDF>
  </metadata>
  <g
     inkscape:label="Layer 1"
     inkscape:groupmode="layer"
     id="layer1"
     transform="translate(-320.71429,-453.43361)">
    <g
       transform="translate(-52.936299,112.04231)"
       id="g3551" />
    <path
       id="path4535"
       style="fill:#dedbe3;fill-opacity:1"
       d="m 428.88361,501.91147 c -3.7128,4.29063 -2.28204,2.52159 -3.85146,4.33591 -0.12607,0.14463 -0.14887,0.17847 -0.33912,0.39968 -0.53454,0.62068 -1.21623,1.41785 -2.5313,2.96733 l 0,10.14943 0,0.58136 c 0,0.22774 0.29757,0.41445 0.71458,0.49657 0.0474,0.0106 0.095,0.0163 0.14534,0.0242 0.0983,0.0126 0.19612,0.0243 0.30278,0.0243 l 10.29478,0 c 0.64001,0 1.1506,-0.24137 1.1506,-0.54502 l 0,-17.88869 c 0,-0.30365 -0.51059,-0.54502 -1.1506,-0.54502 l -4.7356,0 z m -0.0726,1.59871 3.93624,0 c 0.53217,0 0.96892,0.20775 0.96892,0.46024 l 0,1.62295 -6.73399,0 c 0.33369,-0.37347 0.84542,-0.94672 1.82883,-2.08319 z m -32.34981,2.08319 c -0.37334,0 -0.69876,0.1834 -0.90836,0.47235 l -28.81327,0 c -0.44051,0 -0.80998,0.30184 -0.95681,0.71457 l -31.01755,0 c -0.4653,0 -0.8478,0.38898 -0.8478,0.88414 l 0,4.51759 c 0,0.49516 0.3825,0.89625 0.8478,0.89625 l 1.00527,0 c 0.17494,0.16533 0.40173,0.35541 0.67824,0.55714 l 25.19193,18.37313 c 0.18275,0.13333 0.35764,0.2498 0.52078,0.35124 -0.38228,0.2747 -0.54078,0.79869 -0.35123,1.2596 0.17057,0.41474 0.5757,0.66188 0.99315,0.65402 -7.8e-4,0.006 -0.002,0.006 0,0.012 l 0.109,0.25434 c -0.57511,0.51754 -0.73982,1.38498 -0.33913,2.08317 0.4612,0.80362 1.48547,1.07888 2.28908,0.61769 0.2361,-0.1355 0.42936,-0.31993 0.56924,-0.53291 0.0373,0.25599 0.0715,0.51986 0.10901,0.77514 0.0689,0.46935 0.39396,0.87202 0.89625,0.87202 l 5.1716,0 c 0.59236,-3.12358 3.30919,-5.4865 6.57655,-5.4865 3.26735,0 5.98428,2.36279 6.57654,5.4865 l 20.34733,0 c 0.57857,-3.14097 3.30907,-5.52283 6.58865,-5.52283 3.27957,0 5.99797,2.38186 6.57654,5.52283 l 1.12637,0 c 0.57914,-3.14025 3.29748,-5.52283 6.57655,-5.52283 3.28358,0 6.01466,2.38824 6.58865,5.53495 2.66674,-0.0151 4.96681,-0.5822 4.78404,-4.59026 l 0,-0.26645 c 0,-1.06039 -0.86534,-1.96206 -1.92573,-1.96206 l -2.50708,0 c 0.1289,-0.15702 0.21801,-0.36764 0.21801,-0.59347 l 0,-6.29798 c 0,-0.49516 -0.3825,-0.88414 -0.84781,-0.88414 l -2.76141,0 -1.47761,-2.67664 -4.83248,0 c -0.11783,0 -0.23156,-0.01 -0.33912,-0.0242 l 1.28381,2.31328 -9.30163,-0.16955 4.80827,-7.96937 2.36173,4.27536 0,-9.94354 c 2.36431,-2.78572 3.03593,-3.54915 3.42756,-3.98468 l -28.99493,0 z m 38.44189,0 0,8.67183 11.45748,0 c 0.64,0 1.15059,-0.5543 1.15059,-1.23537 l 0,-6.2132 c 0,-0.68109 -0.51058,-1.22326 -1.15059,-1.22326 l -11.45748,0 z m -98.51494,7.4849 8.76873,0 c 0.041,0.0496 0.076,0.0951 0.12111,0.14535 l 16.37476,18.26413 -24.88913,-18.15513 c -0.1285,-0.0937 -0.25511,-0.17556 -0.37547,-0.25434 z m 9.49542,0 19.89919,0 c 0.14733,0.41165 0.51703,0.70247 0.95681,0.70247 l 28.81327,0 c 0.2096,0.29237 0.53501,0.48446 0.90836,0.48446 l 18.53059,0 -5.74085,9.50753 -3.23377,0 c -0.4653,0 -0.83569,0.38897 -0.83569,0.88414 l 0,6.29798 c 0,0.22582 0.077,0.43644 0.2059,0.59346 l -17.00455,0 c 0.0189,-0.99477 0,-5.66773 0,-6.50387 l -1.84096,0 0,-6.61288 c 0,-0.86505 -0.69733,-1.56239 -1.56238,-1.56239 l -10.22211,0 c -1.59057,0 -3.06324,0.99654 -3.62133,2.53131 l -5.59551,8.70816 c -0.47633,3.57242 -0.44542,5.62455 -0.27857,7.26691 -0.14057,0.46898 -0.36752,1.14969 -0.89625,1.29593 -0.88511,0.31087 -2.03967,-0.69857 -0.64191,-2.16796 0.093,-0.12507 -0.0639,-0.24014 -0.14533,-0.27856 l -0.0848,-0.218 c -0.002,-0.005 -0.007,-0.008 -0.0121,-0.0121 0.3027,-0.28788 0.41303,-0.74743 0.24224,-1.16271 -0.13288,-0.3231 -0.40354,-0.53901 -0.71459,-0.61768 -0.0857,-0.11924 -0.1762,-0.23571 -0.29067,-0.36335 l -16.83497,-18.77278 z m 78.39773,1.18693 9.43486,0 0,4.56604 c 0,0.25251 -0.43674,0.46023 -0.96892,0.46023 l -5.6924,0 -2.77354,-5.02626 z m -50.19005,6.28587 9.70132,0 0,6.98833 -14.18257,0 4.48125,-6.98833 z m -11.46959,12.06305 c 0.0702,0.032 0.14542,0.0601 0.19379,0.0726 0.2205,0.17098 0.40622,0.2652 0.47235,0.2059 0.0193,0.0307 0.0341,0.0621 0.0485,0.0969 0.13182,0.32053 -0.0118,0.68182 -0.327,0.81147 -0.31525,0.12964 -0.67965,-0.0186 -0.81148,-0.33912 -0.13182,-0.32054 0.0118,-0.69393 0.32702,-0.82358 0.031,-0.0128 0.0651,-0.0169 0.0969,-0.0243 z m 15.53905,1.62294 c -2.93199,0 -5.30483,2.406 -5.30483,5.36539 0,2.95941 2.37286,5.35329 5.30483,5.35329 2.932,0 5.31695,-2.39388 5.31695,-5.35329 0,-2.95939 -2.38493,-5.36539 -5.31695,-5.36539 z m 33.53675,0 c -2.932,0 -5.31695,2.406 -5.31695,5.36539 0,2.95941 2.38495,5.35329 5.31695,5.35329 2.93199,0 5.30484,-2.39388 5.30484,-5.35329 0,-2.95939 -2.37285,-5.36539 -5.30484,-5.36539 z m 14.27946,0 c -2.93201,0 -5.30485,2.406 -5.30485,5.36539 0,2.95941 2.37285,5.35329 5.30485,5.35329 2.93199,0 5.31695,-2.39388 5.31695,-5.35329 0,-2.95939 -2.38496,-5.36539 -5.31695,-5.36539 z m -94.82998,-80.80345 c -5.71107,0 -10.43265,4.7007 -10.43265,10.4127 l 0,119.1746 c 0,5.712 4.72158,10.4127 10.43265,10.4127 l 119.13472,0 c 5.71105,0 10.43263,-4.7007 10.43263,-10.4127 l 0,-119.1746 c 0,-5.712 -4.72158,-10.4127 -10.43263,-10.4127 l -119.13474,0 z m 0,6.8987 119.13472,0 c 2.00909,0 3.53503,1.5045 3.53503,3.514 l 0,119.1746 c 0,2.0094 -1.52594,3.5141 -3.53503,3.5141 l -119.13474,0 c -2.00908,0 -3.53501,-1.5047 -3.53501,-3.5141 l 0,-119.1746 c 0,-2.0095 1.52593,-3.514 3.53501,-3.514 z" />
  </g>
</svg>
