<?xml version="1.0" encoding="UTF-8" standalone="no"?>
<!-- Created with Inkscape (http://www.inkscape.org/) -->

<svg
   xmlns:dc="http://purl.org/dc/elements/1.1/"
   xmlns:cc="http://creativecommons.org/ns#"
   xmlns:rdf="http://www.w3.org/1999/02/22-rdf-syntax-ns#"
   xmlns:svg="http://www.w3.org/2000/svg"
   xmlns="http://www.w3.org/2000/svg"
   xmlns:sodipodi="http://sodipodi.sourceforge.net/DTD/sodipodi-0.dtd"
   xmlns:inkscape="http://www.inkscape.org/namespaces/inkscape"
   width="140"
   height="140"
   id="svg3171"
   version="1.1"
   inkscape:version="0.48.4 r9939"
   sodipodi:docname="map-img.svg">
  <defs
     id="defs3173" />
  <sodipodi:namedview
     id="base"
     pagecolor="#ffffff"
     bordercolor="#666666"
     borderopacity="1.0"
     inkscape:pageopacity="0.0"
     inkscape:pageshadow="2"
     inkscape:zoom="3.959798"
     inkscape:cx="142.43179"
     inkscape:cy="73.191873"
     inkscape:document-units="px"
     inkscape:current-layer="layer1"
     showgrid="false"
     fit-margin-top="0"
     fit-margin-left="0"
     fit-margin-right="0"
     fit-margin-bottom="0"
     inkscape:window-width="1734"
     inkscape:window-height="980"
     inkscape:window-x="100"
     inkscape:window-y="71"
     inkscape:window-maximized="0" />
  <metadata
     id="metadata3176">
    <rdf:RDF>
      <cc:Work
         rdf:about="">
        <dc:format>image/svg+xml</dc:format>
        <dc:type
           rdf:resource="http://purl.org/dc/dcmitype/StillImage" />
        <dc:title />
      </cc:Work>
    </rdf:RDF>
  </metadata>
  <g
     inkscape:label="Layer 1"
     inkscape:groupmode="layer"
     id="layer1"
     transform="translate(-320.71429,-453.43361)">
    <path
       style="font-size:medium;font-style:normal;font-variant:normal;font-weight:normal;font-stretch:normal;text-indent:0;text-align:start;text-decoration:none;line-height:normal;letter-spacing:normal;word-spacing:normal;text-transform:none;direction:ltr;block-progression:tb;writing-mode:lr-tb;text-anchor:start;baseline-shift:baseline;color:#000000;fill:#ff5555;fill-opacity:1;stroke:none;stroke-width:10;marker:none;visibility:visible;display:inline;overflow:visible;enable-background:accumulate;font-family:Sans;-inkscape-font-specification:Sans"
       d="M 10.40625 0 C 4.69432 0 0 4.69425 0 10.40625 L 0 129.59375 C 0 135.30575 4.69432 139.9999 10.40625 140 L 129.59375 140 C 135.3057 140 140 135.30575 140 129.59375 L 140 10.40625 C 140 4.69425 135.3057 0 129.59375 0 L 10.40625 0 z M 10.40625 6.90625 L 129.59375 6.90625 C 131.60316 6.90625 133.09375 8.39675 133.09375 10.40625 L 133.09375 129.59375 C 133.09375 131.60315 131.60316 133.09375 129.59375 133.09375 L 10.40625 133.09375 C 8.39686 133.09375 6.90625 131.60315 6.90625 129.59375 L 6.90625 10.40625 C 6.90625 8.39675 8.39686 6.90625 10.40625 6.90625 z M 71.90625 17.46875 C 71.58181 17.50655 71.24654 17.65455 71.0625 17.90625 C 70.78294 18.28857 69.87545 18.86601 69.03125 19.21875 C 68.00824 19.64619 67.5 20.13986 67.5 20.6875 C 67.5 21.13944 67.17846 22.13882 66.8125 22.90625 C 66.03607 24.53445 64.06849 25.3125 60.78125 25.3125 C 59.63126 25.3125 58.24536 25.52707 57.6875 25.78125 C 56.73567 26.21493 56.67093 26.43662 56.78125 29.25 C 56.96276 33.87848 55.99645 34.8157 52.5625 33.34375 C 50.17149 32.31884 49.26184 32.27594 48.53125 33.15625 C 48.22814 33.52147 47.11855 34.24307 46.0625 34.78125 C 45.00646 35.31943 43.95019 36.20686 43.71875 36.75 C 43.39704 37.50494 42.9214 37.77165 41.65625 37.875 C 40.74604 37.9494 39.59711 38.29433 39.125 38.625 C 38.65289 38.95568 37.7547 39.21875 37.125 39.21875 C 36.45648 39.21875 35.71977 39.57029 35.375 40.0625 C 34.83969 40.82677 34.58621 40.85254 32.5625 40.46875 C 31.33482 40.23593 30.06423 39.85453 29.75 39.59375 C 29.42993 39.32809 28.55855 39.21254 27.75 39.34375 C 26.22151 39.5918 25.61113 39.19045 25.34375 37.75 C 25.12081 36.54899 23.04533 35.60058 22.1875 36.3125 C 21.8312 36.60821 20.92776 36.80196 20.15625 36.75 C 18.38117 36.63045 18.04892 37.17836 18.84375 38.90625 C 19.54246 40.42519 19.85809 44.04718 19.34375 44.5625 C 19.16298 44.74361 18.36119 45.07898 17.53125 45.3125 C 16.41806 45.62572 15.98842 45.99635 15.9375 46.6875 C 15.8995 47.2028 15.54853 47.97279 15.15625 48.40625 C 14.72269 48.88534 14.49786 49.74537 14.5625 50.59375 C 14.6211 51.36318 14.45515 52.06704 14.1875 52.15625 C 13.56111 52.36505 9.84375 56.05211 9.84375 56.46875 C 9.84375 56.64312 10.32763 57.08963 10.90625 57.46875 C 11.48486 57.84787 11.9375 58.46146 11.9375 58.8125 C 11.9375 59.16356 12.31411 60.17808 12.78125 61.09375 C 13.46715 62.43823 13.61046 63.36799 13.46875 65.8125 C 13.34909 67.8767 13.09308 68.99307 12.65625 69.3125 C 12.12585 69.70033 12.07958 70.13433 12.4375 71.8125 C 12.74408 73.24996 12.73639 74.11908 12.40625 74.84375 C 12.15019 75.40574 11.9375 76.44645 11.9375 77.15625 C 11.9375 77.86604 11.54891 79.1658 11.0625 80.03125 C 10.22591 81.51975 10.198 81.65751 10.84375 82.90625 C 11.54454 84.26143 14.21739 85.90625 15.6875 85.90625 C 16.14185 85.90625 17.05325 85.46624 17.71875 84.90625 C 19.42696 83.46888 22.65674 83.72561 24.03125 85.40625 C 24.75149 86.28692 25.37864 86.57415 26.625 86.59375 C 27.72107 86.61105 28.88645 87.03432 30.25 87.9375 C 32.3702 89.34187 33.19061 89.57785 33.625 88.875 C 33.76804 88.64355 34.22515 88.4375 34.65625 88.4375 C 35.12595 88.4375 35.91177 87.68807 36.625 86.5625 C 37.6132 85.003 38.06351 84.669 39.15625 84.65625 C 39.88012 84.64825 40.71361 84.3521 41.03125 83.96875 C 41.55211 83.34017 41.62168 83.38112 41.8125 84.46875 C 41.98225 85.43631 42.32739 85.73531 43.46875 85.96875 C 44.25839 86.13024 45.27756 86.77456 45.78125 87.40625 C 46.5824 88.411 46.74207 88.48062 47.21875 87.90625 C 47.51572 87.54842 48.04475 87.34202 48.375 87.46875 C 49.08618 87.74165 49.16921 89.76831 48.5 90.4375 C 47.82192 91.11558 48.29447 91.58368 50.21875 92.21875 C 52.95962 93.12332 53.31292 93.88839 53.9375 99.75 C 54.21937 102.3953 54.27069 102.43081 55.9375 103.0625 C 56.86329 103.41336 58.54565 103.82158 59.6875 103.96875 C 61.61881 104.21769 61.8581 104.39731 63.25 106.46875 L 64.75 108.6875 L 67.28125 108.5625 L 69.8125 108.4375 L 70.03125 106.34375 L 70.21875 104.21875 L 72.0625 104.09375 C 74.02027 103.95289 75.0625 104.50689 75.0625 105.6875 C 75.0625 106.09371 75.35422 106.6609 75.6875 106.9375 C 76.02077 107.21409 76.33449 107.83308 76.40625 108.3125 C 76.54788 109.2588 80.77211 111.73612 81.6875 111.40625 C 82.35257 111.16658 86.87282 113.21366 87.0625 113.84375 C 87.1422 114.10844 87.30251 114.85012 87.4375 115.46875 C 87.57248 116.08739 88.18027 117.16077 88.78125 117.875 C 89.3845 118.59192 89.96939 119.94778 90.09375 120.875 C 90.24931 122.03483 90.53814 122.53125 91 122.53125 C 91.73712 122.53125 96.53125 117.98084 96.53125 117.28125 C 96.53125 117.04036 96.13379 116.61073 95.65625 116.3125 C 95.11176 115.97246 94.85483 115.42486 94.9375 114.84375 C 95.04847 114.06366 95.37458 113.89594 96.96875 113.8125 C 100.92441 113.60544 101.94301 113.46232 102.25 113.15625 C 102.42411 112.98267 103.06008 112.84375 103.6875 112.84375 C 104.31493 112.84375 105.09735 112.55971 105.40625 112.1875 C 105.88386 111.61203 105.85051 111.4139 105.15625 110.90625 C 104.03898 110.08928 104.82857 108.84375 106.46875 108.84375 C 107.51456 108.84375 107.683 108.65499 107.90625 107.375 C 108.25276 105.38824 109.3065 103.07971 110.15625 102.375 C 110.53927 102.05735 110.84375 101.4076 110.84375 100.9375 C 110.84375 100.46739 111.57363 99.42613 112.46875 98.59375 C 113.36387 97.76139 114.21301 96.64575 114.375 96.125 C 114.71126 95.04401 115.63623 94.94357 117.15625 95.8125 C 118.79984 96.75206 119.14738 96.58965 119.46875 94.6875 C 119.72685 93.15977 119.6453 92.82396 118.875 92.3125 C 117.6713 91.51326 117.75877 90.77635 119.15625 89.78125 C 120.56297 88.77959 124.97185 87.42814 125.59375 87.8125 C 126.34395 88.27614 127.98379 86.85432 128.28125 85.5 C 128.436 84.79543 128.88424 83.92827 129.25 83.5625 C 129.85618 82.95633 129.85622 82.79797 129.21875 81.71875 C 128.22315 80.03335 128.30259 78.78125 129.40625 78.78125 C 130.20491 78.78125 130.26596 78.60517 130 77.1875 C 129.66662 75.41043 129.18737 75.00931 127.59375 75 C 126.53905 74.993 126.49215 74.85864 126.3125 72.375 C 126.13323 69.89673 126.02884 69.68618 124.1875 68.0625 C 122.58553 66.6499 122.23679 66.04892 122.125 64.65625 L 122 63 L 119.46875 63.09375 C 118.09142 63.15785 116.67102 63.4769 116.3125 63.78125 C 115.95398 64.0856 114.26435 64.59658 112.5625 64.90625 C 108.9947 65.55545 108.02513 65.22764 108.21875 63.46875 C 108.33368 62.42471 108.25535 62.36346 106.34375 62.3125 C 102.78147 62.2175 102.4202 62.0812 100.90625 60.3125 C 99.2622 58.3918 98.95332 58.29901 97.25 59.1875 C 96.0928 59.7911 94.84375 59.65354 94.84375 58.9375 C 94.84375 58.73409 94.10207 58.10524 93.1875 57.5 C 90.93228 56.00757 89.8125 53.68763 89.8125 50.625 C 89.8125 48.39274 89.69629 48.13445 88.5 47.25 C 87.26918 46.34001 87.22315 46.15884 87.5 44.3125 C 87.66129 43.23686 87.9551 42.06339 88.15625 41.6875 C 88.41242 41.20879 88.2675 40.7749 87.6875 40.25 C 87.23206 39.83783 86.84375 39.14577 86.84375 38.71875 C 86.84375 38.29173 86.64951 37.9375 86.40625 37.9375 C 86.16299 37.9375 85.69067 37.26779 85.34375 36.4375 C 84.8628 35.28642 84.81769 34.78935 85.1875 34.34375 C 85.49153 33.97742 85.5647 33.00931 85.40625 31.75 C 85.26723 30.64508 85.04898 28.56525 84.90625 27.125 C 84.58069 23.84004 84.15791 23.45375 81.8125 24.28125 C 80.82497 24.62967 79.88446 24.90625 79.71875 24.90625 C 79.55304 24.90625 79.18681 24.15518 78.90625 23.21875 C 78.37484 21.44504 78.00146 21.18511 74.75 20.3125 C 73.10002 19.86967 72.69059 19.37613 72.90625 18.0625 C 72.97855 17.6219 72.44698 17.40567 71.90625 17.46875 z M 63.5625 57.375 C 64.12096 57.373 64.74118 57.58493 65.03125 57.875 C 65.53788 58.38162 65.7584 58.38009 66.40625 57.90625 C 67.28737 57.26196 68.75 57.78523 68.75 58.75 C 68.75 59.06638 69.28634 59.52301 69.9375 59.75 C 71.6975 60.36354 74.61955 63.59885 74.625 64.9375 C 74.628 65.54922 74.93408 66.17928 75.28125 66.3125 C 76.22474 66.67455 76.04373 68.17217 74.90625 69.4375 C 74.35277 70.05318 73.17462 71.36011 72.3125 72.34375 C 71.28971 73.5107 70.40553 74.125 69.75 74.125 C 68.87516 74.125 68.75075 74.3091 68.84375 75.5 C 68.93675 76.68993 68.82155 76.87086 67.90625 76.9375 C 67.32763 76.9796 66.35482 76.7018 65.71875 76.3125 C 64.491 75.56106 64.21737 74.62638 65.03125 73.8125 C 65.71548 73.12827 64.38481 71.70246 62.90625 71.53125 C 62.06373 71.43365 61.7832 71.13577 61.6875 70.3125 C 61.618 69.71409 61.817 69.0003 62.15625 68.71875 C 62.62768 68.3275 62.7027 67.90348 62.40625 66.875 C 62.016 65.52113 61.93415 63.51329 62.125 59.625 C 62.2196 57.69841 62.33256 57.5235 63.34375 57.40625 C 63.41965 57.39825 63.48272 57.3752 63.5625 57.375 z M 86.8125 74.8125 C 87.70912 74.81251 88.43422 75.11526 88.96875 75.71875 C 89.50327 76.32225 89.78124 77.09346 89.78125 78.0625 L 89.78125 79.3125 C 89.78124 80.28499 89.50327 81.0562 88.96875 81.65625 C 88.43767 82.2563 87.70912 82.5625 86.8125 82.5625 C 85.92967 82.5625 85.24638 82.2563 84.71875 81.65625 C 84.19457 81.0562 83.9375 80.28499 83.9375 79.3125 L 83.9375 78.0625 C 83.9375 77.09346 84.19457 76.32225 84.71875 75.71875 C 85.24293 75.11526 85.92967 74.81251 86.8125 74.8125 z M 93.90625 74.8125 C 94.70631 74.81251 95.34349 75.01334 95.8125 75.4375 C 96.2815 75.86168 96.52822 76.48098 96.59375 77.25 L 96.59375 77.28125 L 96.03125 77.28125 C 95.94845 76.65707 95.7233 76.17482 95.375 75.84375 C 95.03014 75.5127 94.54078 75.34376 93.90625 75.34375 C 93.24757 75.34376 92.71253 75.58337 92.3125 76.09375 C 91.91592 76.60414 91.71875 77.26589 91.71875 78.0625 L 91.71875 79.3125 C 91.71875 80.11946 91.91592 80.77087 92.3125 81.28125 C 92.71253 81.78819 93.24757 82.03125 93.90625 82.03125 C 94.54078 82.03125 95.02669 81.88666 95.375 81.5625 C 95.7233 81.23834 95.95193 80.73863 96.03125 80.09375 L 96.59375 80.09375 L 96.59375 80.125 C 96.52825 80.88023 96.28495 81.47173 95.8125 81.90625 C 95.34004 82.33732 94.69941 82.5625 93.90625 82.5625 C 93.06825 82.5625 92.38883 82.25975 91.875 81.65625 C 91.36117 81.04931 91.09375 80.27465 91.09375 79.3125 L 91.09375 78.0625 C 91.09375 77.10381 91.36117 76.3257 91.875 75.71875 C 92.38883 75.10836 93.06825 74.81251 93.90625 74.8125 z M 75.09375 74.90625 L 75.90625 74.90625 L 78.65625 81.5625 L 78.6875 81.5625 L 81.46875 74.90625 L 82.28125 74.90625 L 82.28125 82.4375 L 81.6875 82.4375 L 81.6875 79.125 L 81.71875 75.84375 L 81.6875 75.8125 L 78.90625 82.4375 L 78.46875 82.4375 L 75.6875 75.84375 L 75.65625 75.84375 L 75.6875 79.125 L 75.6875 82.4375 L 75.09375 82.4375 L 75.09375 74.90625 z M 98.1875 74.90625 L 98.8125 74.90625 L 98.8125 78.375 L 99.84375 78.375 L 102.8125 74.90625 L 103.5 74.90625 L 103.5 74.9375 L 100.40625 78.625 L 103.75 82.4375 L 103.71875 82.4375 L 103 82.4375 L 99.84375 78.90625 L 98.8125 78.90625 L 98.8125 82.4375 L 98.1875 82.4375 L 98.1875 74.90625 z M 104.96875 74.90625 L 107.15625 74.90625 C 107.93907 74.90626 108.56548 75.0752 109 75.40625 C 109.43796 75.73387 109.65624 76.24414 109.65625 76.90625 C 109.65624 77.29249 109.5332 77.62002 109.3125 77.90625 C 109.09524 78.19248 108.81339 78.38965 108.4375 78.5 C 108.89615 78.5828 109.24502 78.80795 109.53125 79.15625 C 109.81747 79.50456 109.96874 79.88854 109.96875 80.34375 C 109.96874 81.01622 109.75046 81.54415 109.3125 81.90625 C 108.87798 82.26835 108.29359 82.4375 107.5625 82.4375 L 104.96875 82.4375 L 104.96875 74.90625 z M 113.5625 74.90625 L 114.15625 74.90625 L 116.96875 82.4375 L 116.34375 82.4375 L 115.5625 80.34375 L 112.125 80.34375 L 111.34375 82.4375 L 110.6875 82.4375 L 113.5625 74.90625 z M 86.8125 75.34375 C 86.0952 75.34376 85.55628 75.59717 85.15625 76.09375 C 84.75622 76.59035 84.53125 77.24865 84.53125 78.0625 L 84.53125 79.3125 C 84.53125 80.13326 84.75622 80.78466 85.15625 81.28125 C 85.55973 81.77784 86.0952 82.03125 86.8125 82.03125 C 87.54704 82.03125 88.12432 81.77439 88.53125 81.28125 C 88.94162 80.78466 89.15624 80.13671 89.15625 79.3125 L 89.15625 78.0625 C 89.15624 77.24865 88.94507 76.59035 88.53125 76.09375 C 88.12087 75.59717 87.54359 75.34376 86.8125 75.34375 z M 105.5625 75.4375 L 105.5625 78.3125 L 107.3125 78.3125 C 107.85737 78.3125 108.26592 78.17545 108.5625 77.9375 C 108.86252 77.69611 109.03124 77.34056 109.03125 76.875 C 109.03124 76.39911 108.84851 76.05046 108.53125 75.8125 C 108.21398 75.57111 107.76319 75.43751 107.15625 75.4375 L 105.5625 75.4375 z M 113.84375 75.71875 L 112.3125 79.8125 L 115.375 79.8125 L 113.875 75.71875 L 113.84375 75.71875 z M 105.5625 78.8125 L 105.5625 81.9375 L 107.5625 81.9375 C 108.11771 81.9375 108.55773 81.80369 108.875 81.53125 C 109.19226 81.25537 109.34374 80.86814 109.34375 80.375 C 109.34374 79.92324 109.19592 79.53968 108.90625 79.25 C 108.62002 78.96033 108.20456 78.8125 107.65625 78.8125 L 105.5625 78.8125 z "
       transform="translate(320.71429,453.43361)"
       id="rect3931" />
  </g>
</svg>
