<?xml version="1.0" encoding="UTF-8" standalone="no"?>
<!-- Created with Inkscape (http://www.inkscape.org/) -->

<svg
   xmlns:dc="http://purl.org/dc/elements/1.1/"
   xmlns:cc="http://creativecommons.org/ns#"
   xmlns:rdf="http://www.w3.org/1999/02/22-rdf-syntax-ns#"
   xmlns:svg="http://www.w3.org/2000/svg"
   xmlns="http://www.w3.org/2000/svg"
   xmlns:sodipodi="http://sodipodi.sourceforge.net/DTD/sodipodi-0.dtd"
   xmlns:inkscape="http://www.inkscape.org/namespaces/inkscape"
   width="219.25"
   height="174.77271"
   id="svg3171"
   version="1.1"
   inkscape:version="0.48.4 r9939"
   sodipodi:docname="map-img.svg">
  <defs
     id="defs3173" />
  <sodipodi:namedview
     id="base"
     pagecolor="#ffffff"
     bordercolor="#666666"
     borderopacity="1.0"
     inkscape:pageopacity="0.0"
     inkscape:pageshadow="2"
     inkscape:zoom="0.35"
     inkscape:cx="-374.66072"
     inkscape:cy="8.4577774"
     inkscape:document-units="px"
     inkscape:current-layer="layer1"
     showgrid="false"
     fit-margin-top="0"
     fit-margin-left="0"
     fit-margin-right="0"
     fit-margin-bottom="0"
     inkscape:window-width="1192"
     inkscape:window-height="659"
     inkscape:window-x="335"
     inkscape:window-y="321"
     inkscape:window-maximized="0" />
  <metadata
     id="metadata3176">
    <rdf:RDF>
      <cc:Work
         rdf:about="">
        <dc:format>image/svg+xml</dc:format>
        <dc:type
           rdf:resource="http://purl.org/dc/dcmitype/StillImage" />
        <dc:title></dc:title>
      </cc:Work>
    </rdf:RDF>
  </metadata>
  <g
     inkscape:label="Layer 1"
     inkscape:groupmode="layer"
     id="layer1"
     transform="translate(-302.51786,-366.04726)">
    <path
       style="font-size:medium;font-style:normal;font-variant:normal;font-weight:normal;font-stretch:normal;text-indent:0;text-align:start;text-decoration:none;line-height:normal;letter-spacing:normal;word-spacing:normal;text-transform:none;direction:ltr;block-progression:tb;writing-mode:lr-tb;text-anchor:start;baseline-shift:baseline;color:#000000;fill:#dedbe3;fill-opacity:1;stroke:none;stroke-width:5.94390297;marker:none;visibility:visible;display:inline;overflow:visible;enable-background:accumulate;font-family:Sans;-inkscape-font-specification:Sans"
       d="m 319.9706,366.04726 c -9.59335,0 -17.45274,7.8592 -17.45274,17.4527 l 0,139.8673 c 0,9.5933 7.85939,17.4527 17.45274,17.4527 l 184.34452,0 c 9.59335,0 17.45274,-7.8594 17.45274,-17.4527 l 0,-139.8673 c 0,-9.5935 -7.85939,-17.4528 -17.45274,-17.4527 l -184.34452,0 z m 0,8.7264 184.34452,0 c 4.90989,0 8.72637,3.8164 8.72637,8.7263 l 0,139.8673 c 0,4.9099 -3.81648,8.7264 -8.72637,8.7264 l -184.34452,0 c -4.90989,0 -8.72637,-3.8165 -8.72637,-8.7264 l 0,-139.8673 c 0,-4.9099 3.81648,-8.7263 8.72637,-8.7263 z m 19.44344,7.4174 -10.49892,10.717 c 0.10387,28.0884 0.10908,81.5372 0.10908,81.537 l 9.92625,0 c 1.82908,20.0078 18.71171,35.7509 39.18684,35.7508 20.47514,0 37.33322,-15.743 39.15958,-35.7508 l 67.92932,0 c 0,0 5.22996,-5.8516 10.14441,-8.8354 0,0 -0.10908,-58.7847 -0.10908,-83.4186 -52.42172,-0.029 -103.42568,0 -155.84748,0 z m 3.62689,5.5903 56.83047,0.082 -3.81778,3.8722 -57.894,-0.082 4.88131,-3.8723 z m 64.08427,0.109 13.79857,0 -4.1723,3.8724 -13.44406,0 3.81779,-3.8724 z m 21.29779,0.027 56.88501,0.082 -4.90858,3.8724 -55.79422,-0.082 3.81779,-3.8724 z m 61.22093,3.9542 0,69.6745 -3.79052,3.5724 -0.10908,-69.7837 3.8996,-3.4632 z m -155.41117,5.8357 59.83017,0 0.0545,37.1962 c -4.88388,-2.1789 -10.29379,-3.3815 -15.98017,-3.3815 -21.16018,0 -38.45988,16.7833 -39.29592,37.7416 l -4.60862,0 0,-71.5563 z m 65.17507,0 15.43476,0 0.13635,59.3939 c -2.99619,-8.0067 -8.53613,-14.7736 -15.62565,-19.3344 l 0.0545,-40.0595 z m 20.99782,0 59.39384,0 0,71.5563 -59.39384,0 0,-71.5563 z m -42.26835,39.0505 c 18.86194,0 34.08738,15.2255 34.08738,34.0874 0,18.8621 -15.22544,34.1147 -34.08738,34.1146 -18.86193,0 -34.11464,-15.2525 -34.11464,-34.1146 0,-18.8619 15.25271,-34.0874 34.11464,-34.0874 z m 11.34428,18.7072 c -2.01487,2e-4 -3.72295,0.4394 -5.12674,1.2816 -1.40381,0.8424 -2.57146,1.9827 -3.46328,3.4361 -0.87531,1.4534 -1.52328,3.1615 -1.93616,5.1268 -0.39637,1.9652 -0.57267,4.0699 -0.57267,6.2993 0,2.2296 0.1763,4.3066 0.57267,6.272 0.39636,1.9487 1.03358,3.6842 1.90889,5.154 0.89182,1.4535 2.05947,2.5937 3.46328,3.4361 1.40379,0.8423 3.12262,1.2543 5.15401,1.2543 2.0644,0 3.78822,-0.412 5.20855,-1.2543 1.4203,-0.8424 2.58795,-1.9826 3.46328,-3.4361 0.8918,-1.4699 1.52902,-3.2052 1.90889,-5.154 0.39635,-1.9654 0.57265,-4.0424 0.57267,-6.272 -2e-5,-2.2294 -0.17632,-4.3341 -0.57267,-6.2993 -0.39638,-1.9653 -1.04436,-3.6734 -1.93616,-5.1268 -0.87533,-1.4534 -2.04298,-2.5937 -3.46328,-3.4361 -1.42033,-0.8422 -3.13339,-1.2814 -5.18128,-1.2816 z m -27.76076,0.8999 c -0.19819,0.2808 -0.58382,0.6772 -1.14533,1.1726 -0.56153,0.4791 -1.18799,0.9713 -1.88162,1.4998 -0.69366,0.5121 -1.41115,1.0103 -2.15433,1.4727 -0.72668,0.4624 -1.37464,0.8051 -1.93616,1.0361 l 0,4.8814 c 0.49546,-0.1488 1.08465,-0.3629 1.74527,-0.6273 0.66061,-0.2806 1.34084,-0.5696 2.01798,-0.8998 0.67711,-0.347 1.29781,-0.7111 1.90889,-1.0908 0.62756,-0.3965 1.17952,-0.8036 1.60892,-1.1999 l 0,25.0611 5.15401,0 0,-31.2514 -5.31763,-0.054 z m 27.76076,3.0543 c 1.18909,0 2.1474,0.3104 2.89061,0.9544 0.74317,0.6277 1.32162,1.5115 1.71801,2.6179 0.41286,1.0902 0.68595,2.3586 0.81809,3.8451 0.14862,1.4863 0.21814,3.0877 0.21816,4.7722 -2e-5,1.6847 -0.0696,3.2585 -0.21816,4.7449 -0.14865,1.4863 -0.4325,2.7932 -0.84536,3.8997 -0.4129,1.0899 -1.00211,1.9466 -1.74528,2.5906 -0.72669,0.6442 -1.6635,0.9819 -2.83607,0.9817 -1.17259,2e-4 -2.14743,-0.3375 -2.89061,-0.9817 -0.72668,-0.644 -1.27786,-1.5006 -1.69073,-2.5906 -0.41289,-1.1066 -0.69674,-2.4134 -0.84537,-3.8997 -0.13212,-1.4865 -0.21817,-3.0603 -0.21816,-4.7449 -1e-5,-1.6845 0.0968,-3.2859 0.24543,-4.7722 0.14863,-1.4864 0.40521,-2.7549 0.8181,-3.8451 0.41287,-1.1064 0.99132,-1.9902 1.718,-2.6179 0.72667,-0.644 1.69075,-0.9544 2.86334,-0.9544 z m 48.43135,17.0164 c -13.29973,0 -24.13387,10.8339 -24.13387,24.1338 0,13.2998 10.83414,24.1338 24.13387,24.1338 13.29972,0 24.13386,-10.834 24.13386,-24.1338 0,-13.2999 -10.83414,-24.1338 -24.13386,-24.1338 z m 0,5.2358 c 10.47008,0 18.89804,8.4279 18.89804,18.898 0,10.47 -8.42796,18.898 -18.89804,18.898 -10.47008,0 -18.89805,-8.4279 -18.89805,-18.898 0,-10.4701 8.42797,-18.898 18.89805,-18.898 z m -0.73629,6.9265 c -0.15148,0.2146 -0.44347,0.5214 -0.87264,0.8999 -0.42919,0.3663 -0.91515,0.7414 -1.4453,1.1454 -0.53017,0.3912 -1.06817,0.7646 -1.6362,1.118 -0.55541,0.3535 -1.0434,0.6143 -1.47257,0.7909 l 0,3.736 c 0.37868,-0.1137 0.80403,-0.2616 1.30895,-0.4637 0.50491,-0.2144 1.03684,-0.4566 1.55439,-0.709 0.51753,-0.2652 1.00552,-0.5276 1.47257,-0.8181 0.47966,-0.3028 0.87167,-0.6243 1.19988,-0.9272 l 0,19.1708 3.95413,0 0,-23.8884 -4.06321,-0.055 z"
       id="rect3965"
       inkscape:connector-curvature="0"
       inkscape:export-filename="/home/smargelov/Рабочий стол/track.png"
       inkscape:export-xdpi="90"
       inkscape:export-ydpi="90" />
  </g>
</svg>
