<?xml version="1.0" encoding="UTF-8" standalone="no"?>
<!-- Created with Inkscape (http://www.inkscape.org/) -->

<svg
   xmlns:dc="http://purl.org/dc/elements/1.1/"
   xmlns:cc="http://creativecommons.org/ns#"
   xmlns:rdf="http://www.w3.org/1999/02/22-rdf-syntax-ns#"
   xmlns:svg="http://www.w3.org/2000/svg"
   xmlns="http://www.w3.org/2000/svg"
   xmlns:sodipodi="http://sodipodi.sourceforge.net/DTD/sodipodi-0.dtd"
   xmlns:inkscape="http://www.inkscape.org/namespaces/inkscape"
   width="140.1906"
   height="202.68521"
   id="svg3171"
   version="1.1"
   inkscape:version="0.48.4 r9939"
   sodipodi:docname="money-img.svg">
  <defs
     id="defs3173" />
  <sodipodi:namedview
     id="base"
     pagecolor="#ffffff"
     bordercolor="#666666"
     borderopacity="1.0"
     inkscape:pageopacity="0.0"
     inkscape:pageshadow="2"
     inkscape:zoom="0.35"
     inkscape:cx="-393.13684"
     inkscape:cy="-4.4853337"
     inkscape:document-units="px"
     inkscape:current-layer="layer1"
     showgrid="false"
     fit-margin-top="0"
     fit-margin-left="0"
     fit-margin-right="0"
     fit-margin-bottom="0"
     inkscape:window-width="1192"
     inkscape:window-height="659"
     inkscape:window-x="335"
     inkscape:window-y="321"
     inkscape:window-maximized="0" />
  <metadata
     id="metadata3176">
    <rdf:RDF>
      <cc:Work
         rdf:about="">
        <dc:format>image/svg+xml</dc:format>
        <dc:type
           rdf:resource="http://purl.org/dc/dcmitype/StillImage" />
        <dc:title></dc:title>
      </cc:Work>
    </rdf:RDF>
  </metadata>
  <g
     inkscape:label="Layer 1"
     inkscape:groupmode="layer"
     id="layer1"
     transform="translate(-320.99398,-325.19165)">
    <g
       style="font-size:12px;fill:#ff5555;fill-opacity:1;stroke-linecap:square;stroke-miterlimit:3"
       id="g4123"
       transform="matrix(1.0556506,0,0,1.0556506,210.71787,18.650153)"
       inkscape:export-filename="/home/smargelov/Рабочий стол/track.png"
       inkscape:export-xdpi="90"
       inkscape:export-ydpi="90">
      <title
         id="title4125">SmartPhone</title>
      <g
         id="shape2-1"
         transform="translate(161.575,-137.48)"
         style="fill:#ff5555;fill-opacity:1">
        <path
           style="fill:#ff5555;fill-opacity:1;stroke:none"
           d="m 44.5,-1056.5 c -9.331514,0 -17,7.6685 -17,17 l 0,206 c 0,9.33151 7.668486,17 17,17 l 132,0 c 9.33151,0 17,-7.66849 17,-17 l 0,-206 c 0,-9.3315 -7.66849,-17 -17,-17 l -132,0 z m 0,10 132,0 c 3.96449,0 7,3.0355 7,7 l 0,206 c 0,3.96449 -3.03551,7 -7,7 l -132,0 c -3.964486,0 -7,-3.03551 -7,-7 l 0,-206 c 0,-3.9645 3.035514,-7 7,-7 z m 28.84375,14.1875 c -8.558375,0 -15.46875,6.8791 -15.46875,15.4375 l 0,160.78125 c 0,8.55838 6.910375,15.4375 15.46875,15.4375 l 74.3125,0 c 8.55838,0 15.46875,-6.87912 15.46875,-15.4375 l 0,-160.78125 c 0,-8.5584 -6.91037,-15.4375 -15.46875,-15.4375 l -74.3125,0 z m 28.0625,5.4063 18.1875,0 c 1.6047,0 2.90625,0.7192 2.90625,1.625 0,0.9058 -1.30155,1.6562 -2.90625,1.6562 l -18.1875,0 c -1.604698,0 -2.90625,-0.7504 -2.90625,-1.6562 0,-0.9058 1.301552,-1.625 2.90625,-1.625 z m -29.375,8.2187 76.9375,0 c 1.60472,0 2.875,1.3016 2.875,2.9063 l 0,148.8437 c 0,1.6047 -1.27028,2.90625 -2.875,2.90625 l -76.9375,0 c -1.604698,0 -2.875,-1.30155 -2.875,-2.90625 l 0,-148.8437 c 0,-1.6048 1.270302,-2.9063 2.875,-2.9063 z m 37.90625,160 c 0.18177,-0.0185 0.37586,0 0.5625,0 2.98626,0 5.40625,2.41999 5.40625,5.40625 0,2.98627 -2.41999,5.40625 -5.40625,5.40625 -2.98627,0 -5.40625,-2.41998 -5.40625,-5.40625 0,-2.79962 2.11716,-5.12934 4.84375,-5.40625 z"
           transform="matrix(0.80000115,0,0,0.80000115,-79.112329,1273.0628)"
           id="rect4128"
           inkscape:connector-curvature="0" />
      </g>
      <g
         id="shape3-3"
         transform="translate(194.646,-206.929)"
         style="fill:#ff5555;fill-opacity:1" />
      <g
         id="shape1-5"
         transform="translate(281.575,-676.063)"
         style="fill:#ff5555;fill-opacity:1" />
      <g
         id="shape4-7"
         transform="translate(300.472,-158.74)"
         style="fill:#ff5555;fill-opacity:1" />
    </g>
  </g>
</svg>
