<?xml version="1.0" encoding="UTF-8" standalone="no"?>
<!-- Created with Inkscape (http://www.inkscape.org/) -->

<svg
   xmlns:dc="http://purl.org/dc/elements/1.1/"
   xmlns:cc="http://creativecommons.org/ns#"
   xmlns:rdf="http://www.w3.org/1999/02/22-rdf-syntax-ns#"
   xmlns:svg="http://www.w3.org/2000/svg"
   xmlns="http://www.w3.org/2000/svg"
   xmlns:sodipodi="http://sodipodi.sourceforge.net/DTD/sodipodi-0.dtd"
   xmlns:inkscape="http://www.inkscape.org/namespaces/inkscape"
   width="140"
   height="140"
   id="svg3171"
   version="1.1"
   inkscape:version="0.48.4 r9939"
   sodipodi:docname="clock-img.svg">
  <defs
     id="defs3173" />
  <sodipodi:namedview
     id="base"
     pagecolor="#ffffff"
     bordercolor="#666666"
     borderopacity="1.0"
     inkscape:pageopacity="0.0"
     inkscape:pageshadow="2"
     inkscape:zoom="0.35"
     inkscape:cx="-392.85715"
     inkscape:cy="61.071427"
     inkscape:document-units="px"
     inkscape:current-layer="layer1"
     showgrid="false"
     fit-margin-top="0"
     fit-margin-left="0"
     fit-margin-right="0"
     fit-margin-bottom="0"
     inkscape:window-width="1192"
     inkscape:window-height="659"
     inkscape:window-x="321"
     inkscape:window-y="392"
     inkscape:window-maximized="0" />
  <metadata
     id="metadata3176">
    <rdf:RDF>
      <cc:Work
         rdf:about="">
        <dc:format>image/svg+xml</dc:format>
        <dc:type
           rdf:resource="http://purl.org/dc/dcmitype/StillImage" />
        <dc:title></dc:title>
      </cc:Work>
    </rdf:RDF>
  </metadata>
  <g
     inkscape:label="Layer 1"
     inkscape:groupmode="layer"
     id="layer1"
     transform="translate(-320.71429,-453.43361)">
    <g
       id="g3977"
       transform="matrix(0.68986757,0,0,0.68986757,117.25879,64.369859)"
       style="fill:#ff5555;fill-opacity:1"
       inkscape:export-filename="/home/smargelov/Рабочий стол/track.png"
       inkscape:export-xdpi="90"
       inkscape:export-ydpi="90">
      <path
         style="font-size:medium;font-style:normal;font-variant:normal;font-weight:normal;font-stretch:normal;text-indent:0;text-align:start;text-decoration:none;line-height:normal;letter-spacing:normal;word-spacing:normal;text-transform:none;direction:ltr;block-progression:tb;writing-mode:lr-tb;text-anchor:start;baseline-shift:baseline;color:#000000;fill:#ff5555;fill-opacity:1;stroke:none;stroke-width:10;marker:none;visibility:visible;display:inline;overflow:visible;enable-background:accumulate;font-family:Sans;-inkscape-font-specification:Sans"
         d="m 291.65625,568.96875 c -8.27976,0 -15.09375,6.81399 -15.09375,15.09375 l 0,172.75 c 0,8.27976 6.81399,15.09375 15.09375,15.09375 l 172.71875,0 c 8.27976,0 15.125,-6.81399 15.125,-15.09375 l 0,-172.75 c 0,-8.27976 -6.84524,-15.09375 -15.125,-15.09375 l -172.71875,0 z m 0,10 172.71875,0 c 2.91273,0 5.125,2.18102 5.125,5.09375 l 0,172.75 c 0,2.91273 -2.21227,5.09375 -5.125,5.09375 l -172.71875,0 c -2.91273,0 -5.09375,-2.18102 -5.09375,-5.09375 l 0,-172.75 c 0,-2.91273 2.18102,-5.09375 5.09375,-5.09375 z m 87.71875,9.9375 c -9.30254,2.61043 -11.10076,1.35803 -19.09375,7.8125 -10.31997,8.33354 -24.13944,16.90192 -28.625,28.4375 -4.65134,11.96191 0.27719,26.97088 2.1875,39.65625 l -40.96875,33.0625 0.78125,56.75 45.78125,0.875 40.9375,-33.0625 c 10.28069,3.88414 21.08268,13.91878 32,13 14.10498,-1.18703 28.24892,-14.96636 40.09375,-24.53125 7.99629,-6.45713 7.14476,-8.48677 11.65625,-17.03125 0,0 2.32346,-10.83279 -0.625,-14.78125 -3.29493,-4.4124 -15.625,-5.34375 -15.625,-5.34375 l -27.21875,23.78125 -46.03125,-16.125 -9.0625,-47.9375 29.21875,-25.5 c 0,0 2.20913,-11.37209 -1.0625,-15.3125 -3.14989,-3.79377 -14.34375,-3.75 -14.34375,-3.75 z"
         transform="translate(18.357147,-5)"
         id="rect3933"
         inkscape:connector-curvature="0" />
    </g>
  </g>
</svg>
