<?xml version="1.0" encoding="UTF-8" standalone="no"?>
<!-- Created with Inkscape (http://www.inkscape.org/) -->

<svg
   xmlns:dc="http://purl.org/dc/elements/1.1/"
   xmlns:cc="http://creativecommons.org/ns#"
   xmlns:rdf="http://www.w3.org/1999/02/22-rdf-syntax-ns#"
   xmlns:svg="http://www.w3.org/2000/svg"
   xmlns="http://www.w3.org/2000/svg"
   xmlns:sodipodi="http://sodipodi.sourceforge.net/DTD/sodipodi-0.dtd"
   xmlns:inkscape="http://www.inkscape.org/namespaces/inkscape"
   width="460"
   height="245"
   id="svg3171"
   version="1.1"
   inkscape:version="0.48.4 r9939"
   sodipodi:docname="Новый документ 2">
  <defs
     id="defs3173" />
  <sodipodi:namedview
     id="base"
     pagecolor="#ffffff"
     bordercolor="#666666"
     borderopacity="1.0"
     inkscape:pageopacity="0.0"
     inkscape:pageshadow="2"
     inkscape:zoom="0.35"
     inkscape:cx="230"
     inkscape:cy="122.5"
     inkscape:document-units="px"
     inkscape:current-layer="layer1"
     showgrid="false"
     fit-margin-top="0"
     fit-margin-left="0"
     fit-margin-right="0"
     fit-margin-bottom="0"
     inkscape:window-width="1192"
     inkscape:window-height="659"
     inkscape:window-x="242"
     inkscape:window-y="295"
     inkscape:window-maximized="0" />
  <metadata
     id="metadata3176">
    <rdf:RDF>
      <cc:Work
         rdf:about="">
        <dc:format>image/svg+xml</dc:format>
        <dc:type
           rdf:resource="http://purl.org/dc/dcmitype/StillImage" />
        <dc:title></dc:title>
      </cc:Work>
    </rdf:RDF>
  </metadata>
  <g
     inkscape:label="Layer 1"
     inkscape:groupmode="layer"
     id="layer1"
     transform="translate(-145,-409.86218)">
    <path
       style="color:#000000;fill:#dedbe3;fill-opacity:1;fill-rule:nonzero;stroke:none;stroke-width:1;marker:none;visibility:visible;display:inline;overflow:visible;enable-background:accumulate"
       d="m 159.10453,409.86218 c -7.82841,0 -14.10453,6.3188 -14.10453,14.2002 l 0,216.5996 c 0,7.8814 6.27612,14.2002 14.10453,14.2002 l 431.79094,0 c 7.8284,0 14.10453,-6.3188 14.10453,-14.2002 l 0,-216.5996 c 0,-7.8814 -6.27613,-14.2002 -14.10453,-14.2002 l -431.79094,0 z m 15.98208,15.8139 400.88003,0 c 7.26772,0 13.09707,5.5207 13.09707,12.4021 l 0,189.075 c 0,6.8815 -5.82935,12.4485 -13.09707,12.4485 l -400.88003,0 c -7.26773,0 -13.09707,-5.567 -13.09707,-12.4485 l 0,-189.075 c 0,-6.8814 5.82934,-12.4021 13.09707,-12.4021 z m 156.43205,8.7138 c -2.78029,0.1177 -5.4451,0.8778 -7.55599,2.3974 -6.7343,4.8478 -5.77004,11.3417 -5.77004,11.3417 l 28.02588,0 c 0,0 0.98666,-8.2682 -4.44202,-11.3417 -2.90811,-1.6465 -6.68318,-2.5493 -10.25783,-2.3974 z m -115.99602,8.6216 c -4.93403,0.072 -6.27377,4.1032 -6.27377,4.1032 l -1.09906,9.6819 1.74018,-0.2766 15.15778,-2.1668 -2.10652,-7.3306 c 0,0 -1.14116,-4.1017 -7.41861,-4.0111 z m 97.72424,6.9616 23.03434,55.0491 57.83773,0 -41.35192,-55.0491 -39.52015,0 z m -40.57342,0.2306 c 0,0 -42.178,4.4058 -63.10404,7.8379 -12.61692,2.0692 -12.45593,7.9299 -12.45593,7.9299 0,0 -4.93674,16.7807 -5.77004,25.081 -0.80872,8.0552 -0.82407,23.9743 -0.82429,24.297 -0.14376,0.094 -0.58431,0.5578 -1.69437,1.9825 -1.30625,1.6765 -1.8808,30.2218 -1.83177,43.0156 0.004,1.0181 -0.54356,0.9014 -1.09904,1.7521 -0.59855,0.9166 -1.41962,2.9969 -1.41962,2.9969 l 0,48.7325 c 0,0 0.28632,2.0723 0.91588,2.8584 0.66406,0.8292 2.74763,1.6137 2.74763,1.6137 l 31.68939,0 c 0,0 0.0116,-22.2028 0,-25.0349 -0.0208,-4.7611 -0.0712,-7.6741 6.45694,-14.7073 7.9268,-8.5399 14.61875,-8.6516 22.43902,-9.9125 4.35571,-0.7023 54.81534,-0.2766 54.81534,-0.2766 l 0,-13.3704 -8.24291,-11.6644 8.24291,0 0,-93.1314 -30.8651,0 z m 268.48979,17.9348 -132.39022,33.1953 0,3.1351 29.81182,0 16.21106,28.9998 95.02241,-43.7533 -8.65507,-21.5769 z m 3.38876,5.5325 7.32703,16.4593 0,1.1988 -13.32603,6.8235 0,5.0253 27.20159,0 0,-11.48 -10.34943,-18.0269 -10.85316,0 z m -329.80787,2.5358 c 14.53329,-0.082 38.83324,0.2304 38.83324,0.2304 0,0 2.9928,-0.1202 4.02987,0.784 1.17838,1.0271 1.5112,4.4259 1.5112,4.4259 l 0,26.8328 -12.59332,0.5533 c 0,0 -9.13552,0.9876 -13.41762,2.5358 -2.81855,1.0189 -7.87656,4.38 -7.87656,4.38 l -29.58287,-0.3689 -0.36635,-9.9126 c 0,0 -0.75163,-15.7118 2.56447,-22.499 1.40539,-2.8765 3.70149,-6.4054 6.86907,-6.7313 1.41229,-0.1452 5.18444,-0.2032 10.02887,-0.2304 z m 334.79941,28.9537 0.27477,2.7662 c -1.29049,0.5447 -2.38902,1.1133 -3.29717,2.2131 0,0 -1.43249,3.101 -1.83177,4.7488 -0.38472,1.5875 -0.64543,3.2591 -0.50371,4.8869 0.12299,1.4121 0.33079,2.9009 1.14483,4.0574 1.30162,1.8489 3.42196,3.0823 5.49527,3.9649 1.79645,0.7648 3.82097,1.1343 5.77004,1.0604 2.07187,-0.08 4.32339,-0.4041 6.04481,-1.5675 1.44837,-0.979 2.46452,-2.6115 3.11398,-4.2417 0.40878,-1.0261 0.36949,-2.1686 0.41214,-3.2735 0.0407,-1.0538 0.55247,-2.3873 -0.1373,-3.1811 -0.4958,-0.5704 -1.61233,-0.7814 -2.24391,-0.3688 -0.60336,0.3941 -0.15664,1.4404 -0.50374,2.0746 -0.64006,1.1697 -1.6701,2.1259 -2.74763,2.9046 -1.17291,0.8478 -2.49917,1.7263 -3.93827,1.8442 -1.44499,0.119 -3.00851,-0.2753 -4.16725,-1.1526 -1.18979,-0.9007 -2.24295,-2.3345 -2.38128,-3.8267 -0.13468,-1.4531 0.68789,-2.971 1.60278,-4.1033 1.11458,-1.3794 3.59798,-1.3427 4.442,-2.9047 0.9379,-1.7354 0,-5.9012 0,-5.9012 l -6.54852,0 z m -239.45645,2.2129 0.0915,35.9617 3.43454,0 13.87555,19.6406 -10.07467,0 -7.23542,-10.1892 0.18317,65.2381 100.2429,0 0,-21.5769 c 0,0 3.27775,-21.8308 23.62967,-25.4959 20.33857,-3.6629 32.60529,9.4053 32.60529,9.4053 l 10.71576,0 c 0,0 7.29073,-13.3339 28.66701,-10.5579 22.98115,2.9843 27.11,23.4671 27.11,23.4671 l 0,24.7583 7.556,0 8.65506,-9.4514 0,-38.7279 -22.53062,-31.9045 -72.99551,0 -16.98955,-30.5674 -126.94079,0 z m -121.94923,35.9617 10.07467,0 13.87556,19.6406 -10.07466,0 -13.87557,-19.6406 z m 17.85963,0 10.07467,0 13.87556,19.6406 -10.07466,0 -13.87557,-19.6406 z m 17.85963,0 10.07467,0 13.87556,19.6406 -10.07466,0 -13.87557,-19.6406 z m 17.85963,0 10.07466,0 13.87557,19.6406 -10.07466,0 -13.87557,-19.6406 z m 17.85963,0 10.07466,0 13.87557,19.6406 -10.07466,0 -13.87557,-19.6406 z m 17.85964,0 10.07466,0 13.87557,19.6406 -10.07467,0 -13.87556,-19.6406 z m 43.96217,0 10.07467,0 13.87555,19.6406 -10.07466,0 -13.87556,-19.6406 z m 17.85963,0 10.07468,0 13.87555,19.6406 -10.07468,0 -13.87555,-19.6406 z m 17.85964,0 10.07466,0 13.87555,19.6406 -10.07466,0 -13.87555,-19.6406 z m 17.85963,0 10.07466,0 13.87555,19.6406 -10.07466,0 -13.87555,-19.6406 z m 17.85962,0 10.07468,0 13.87555,19.6406 -10.07467,0 -13.87556,-19.6406 z m 17.85963,0 10.07468,0 13.87555,19.6406 -10.07466,0 -13.87557,-19.6406 z m 17.4017,0 10.07466,0 13.87556,19.6406 -10.07466,0 -13.87556,-19.6406 z m 17.85965,0 10.07464,0 13.87557,19.6406 -10.07466,0 -13.87555,-19.6406 z m 17.85961,0 10.07466,0 13.87557,19.6406 -10.07467,0 -13.87556,-19.6406 z m 17.85964,0 10.07465,0 13.87557,19.6406 -10.07467,0 -13.87555,-19.6406 z m 17.85963,0 10.07467,0 13.87556,19.6406 -10.07468,0 -13.87555,-19.6406 z m 17.85963,0 10.07466,0 13.87558,19.6406 -10.07469,0 -13.87555,-19.6406 z m -247.60777,30.1985 c 0,0 8.57837,6.4614 11.26531,10.9729 1.78797,3.0021 2.88501,10.0969 2.88501,10.0969 l 0.50374,23.6978 19.64559,0 0.27477,-44.7676 -34.57442,0 z m -18.27178,1.4753 c -14.61349,0 -26.46889,11.8898 -26.46889,26.6024 0,14.7127 11.8554,26.6485 26.46889,26.6485 14.61349,0 26.4689,-11.9358 26.4689,-26.6485 0,-14.7126 -11.85541,-26.6024 -26.4689,-26.6024 z m 191.28124,0 c -14.61348,0 -26.46888,11.8898 -26.46888,26.6024 0,14.7127 11.8554,26.6485 26.46888,26.6485 14.61349,0 26.4689,-11.9358 26.4689,-26.6485 0,-14.7126 -11.85541,-26.6024 -26.4689,-26.6024 z m 59.16577,0 c -14.61349,0 -26.4689,11.8898 -26.4689,26.6024 0,14.7127 11.85541,26.6485 26.4689,26.6485 14.61348,0 26.46887,-11.9358 26.46887,-26.6485 0,-14.7126 -11.85539,-26.6024 -26.46887,-26.6024 z m -250.44701,8.6217 c 9.87455,0 17.90542,8.0392 17.90542,17.9807 0,9.9416 -8.03087,18.0269 -17.90542,18.0269 -9.87454,0 -17.85964,-8.0853 -17.85964,-18.0269 0,-9.9415 7.9851,-17.9807 17.85964,-17.9807 z m 191.28124,0 c 9.87457,0 17.90543,8.0392 17.90543,17.9807 0,9.9416 -8.03086,18.0269 -17.90543,18.0269 -9.87454,0 -17.85964,-8.0853 -17.85964,-18.0269 0,-9.9415 7.9851,-17.9807 17.85964,-17.9807 z m 59.16577,0 c 9.87456,0 17.90539,8.0392 17.90539,17.9807 0,9.9416 -8.03083,18.0269 -17.90539,18.0269 -9.87457,0 -17.85964,-8.0853 -17.85964,-18.0269 0,-9.9415 7.98507,-17.9807 17.85964,-17.9807 z"
       id="path2996"
       inkscape:connector-curvature="0"
       inkscape:export-filename="/home/smargelov/Рабочий стол/track.png"
       inkscape:export-xdpi="90"
       inkscape:export-ydpi="90" />
  </g>
</svg>
