<?xml version="1.0" encoding="UTF-8" standalone="no"?>
<!-- Created with Inkscape (http://www.inkscape.org/) -->

<svg
   xmlns:dc="http://purl.org/dc/elements/1.1/"
   xmlns:cc="http://creativecommons.org/ns#"
   xmlns:rdf="http://www.w3.org/1999/02/22-rdf-syntax-ns#"
   xmlns:svg="http://www.w3.org/2000/svg"
   xmlns="http://www.w3.org/2000/svg"
   xmlns:xlink="http://www.w3.org/1999/xlink"
   xmlns:sodipodi="http://sodipodi.sourceforge.net/DTD/sodipodi-0.dtd"
   xmlns:inkscape="http://www.inkscape.org/namespaces/inkscape"
   width="140"
   height="140"
   id="svg3171"
   version="1.1"
   inkscape:version="0.48.4 r9939"
   sodipodi:docname="gazel.svg">
  <defs
     id="defs3173">
    <radialGradient
       id="radialGradient3521"
       r="19.375"
       gradientUnits="userSpaceOnUse"
       gradientTransform="matrix(.47303,.15667,-.1319,.42436,34.98134,9.80281)"
       cy="29.93452"
       cx="60.12984">
      <stop
         id="stop3523"
         stop-color="#ededf0"
         offset="0" />
      <stop
         id="stop3525"
         stop-opacity="0"
         stop-color="#d8d8e7"
         offset="1" />
    </radialGradient>
    <marker
       id="marker3517"
       viewBox="0 0 10 10"
       refY="5"
       refX="10"
       orient="auto"
       markerWidth="4"
       markerUnits="strokeWidth"
       markerHeight="3">
      <path
         id="path3519"
         d="m10,0-10,5 10,5v-10z" />
    </marker>
    <marker
       id="marker3513"
       viewBox="0 0 10 10"
       refY="5"
       refX="0"
       orient="auto"
       markerWidth="4"
       markerUnits="strokeWidth"
       markerHeight="3">
      <path
         id="path3515"
         d="m0,0 10,5-10,5v-10z" />
    </marker>
    <linearGradient
       id="linearGradient3511"
       y2="62.19664"
       y1="62.37725"
       xlink:href="#linearGradient5950"
       x2="74.94252"
       x1="45.08966"
       gradientUnits="userSpaceOnUse" />
    <linearGradient
       id="linearGradient3509"
       xlink:href="#linearGradient5950"
       x2="69.9439"
       x1="140.14523"
       gradientUnits="userSpaceOnUse" />
    <linearGradient
       id="linearGradient3507"
       xlink:href="#linearGradient5731"
       x2="55"
       x1="93.75"
       gradientUnits="userSpaceOnUse" />
    <linearGradient
       id="linearGradient3505"
       y2="41.62819"
       y1="23.83763"
       xlink:href="#linearGradient5737"
       x2="53.07532"
       x1="95.05161"
       gradientUnits="userSpaceOnUse" />
    <linearGradient
       id="linearGradient3503"
       y2="31.69491"
       y1="31.88038"
       xlink:href="#linearGradient5737"
       x2="112.03358"
       x1="31.05663"
       gradientUnits="userSpaceOnUse" />
    <linearGradient
       id="linearGradient3501"
       xlink:href="#linearGradient5737"
       x2="53.53231"
       x1="114.99184"
       gradientUnits="userSpaceOnUse" />
    <linearGradient
       id="linearGradient3499"
       y2="62.32164"
       y1="62.50225"
       xlink:href="#linearGradient5950"
       x2="74.94252"
       x1="45.08966"
       gradientUnits="userSpaceOnUse" />
    <linearGradient
       id="linearGradient3497"
       xlink:href="#linearGradient5950"
       x2="69.9439"
       x1="140.14523"
       gradientUnits="userSpaceOnUse" />
    <linearGradient
       id="linearGradient3495"
       xlink:href="#linearGradient5731"
       x2="52.50001"
       x1="95"
       gradientUnits="userSpaceOnUse" />
    <linearGradient
       id="linearGradient3493"
       y2="40.37818"
       y1="22.58764"
       xlink:href="#linearGradient5737"
       x2="51.76322"
       x1="95.09362"
       gradientUnits="userSpaceOnUse" />
    <linearGradient
       id="linearGradient3491"
       y2="31.08526"
       y1="30.81434"
       xlink:href="#linearGradient5737"
       x2="63.86851"
       x1="76.67344"
       gradientUnits="userSpaceOnUse" />
    <linearGradient
       id="linearGradient3489"
       y2="24.84724"
       y1="24.91469"
       xlink:href="#linearGradient5737"
       x2="90.00876"
       x1="55.04785"
       gradientUnits="userSpaceOnUse" />
    <linearGradient
       id="linearGradient3487"
       xlink:href="#linearGradient5737"
       x2="65.28061"
       x1="90.25407"
       gradientUnits="userSpaceOnUse" />
    <linearGradient
       id="linearGradient3481">
      <stop
         id="stop3483"
         stop-color="#8c8ca4"
         offset="0" />
      <stop
         id="stop3485"
         stop-color="#a2a2c6"
         offset="1" />
    </linearGradient>
    <linearGradient
       id="linearGradient3475">
      <stop
         id="stop3477"
         stop-color="#fff"
         offset="0" />
      <stop
         id="stop3479"
         stop-opacity="0"
         stop-color="#a1a1a1"
         offset="1" />
    </linearGradient>
    <linearGradient
       id="linearGradient3469">
      <stop
         id="stop3471"
         stop-color="#800000"
         offset="0" />
      <stop
         id="stop3473"
         stop-color="#5e0000"
         offset="1" />
    </linearGradient>
    <linearGradient
       id="linearGradient3463">
      <stop
         id="stop3465"
         offset="0" />
      <stop
         id="stop3467"
         stop-color="#9b0000"
         offset="1" />
    </linearGradient>
    <linearGradient
       id="linearGradient3457">
      <stop
         id="stop3459"
         stop-color="#82829c"
         offset="0" />
      <stop
         id="stop3461"
         stop-color="#d8d8e7"
         offset="1" />
    </linearGradient>
    <linearGradient
       id="linearGradient3451">
      <stop
         id="stop3453"
         stop-color="#924800"
         offset="0" />
      <stop
         id="stop3455"
         stop-color="#ff9930"
         offset="1" />
    </linearGradient>
    <linearGradient
       id="linearGradient3445"
       y2="33.75448"
       y1="33.9222"
       x2="50.53068"
       x1="96.64055"
       gradientUnits="userSpaceOnUse">
      <stop
         id="stop3447"
         offset="0" />
      <stop
         id="stop3449"
         stop-opacity="0"
         offset="1" />
    </linearGradient>
    <linearGradient
       id="linearGradient3439"
       x2="113.53172"
       x1="95"
       gradientUnits="userSpaceOnUse">
      <stop
         id="stop3441"
         stop-color="#8e8ea4"
         offset="0" />
      <stop
         id="stop3443"
         stop-color="#57576c"
         offset="1" />
    </linearGradient>
    <linearGradient
       id="linearGradient3433"
       y2="72.34698"
       y1="72.5276"
       x2="50.03026"
       x1="90.4023"
       gradientUnits="userSpaceOnUse">
      <stop
         id="stop3435"
         stop-color="#212121"
         offset="0" />
      <stop
         id="stop3437"
         stop-color="#a1a1a1"
         offset="1" />
    </linearGradient>
    <linearGradient
       id="linearGradient3427"
       x2="52.5"
       x1="95.00332"
       gradientUnits="userSpaceOnUse">
      <stop
         id="stop3429"
         stop-color="#be1600"
         offset="0" />
      <stop
         id="stop3431"
         stop-color="#ffc73f"
         offset="1" />
    </linearGradient>
    <linearGradient
       id="linearGradient3421"
       x2="62.5625"
       x1="87.3125"
       gradientUnits="userSpaceOnUse">
      <stop
         id="stop3423"
         stop-color="#636381"
         offset="0" />
      <stop
         id="stop3425"
         stop-color="#9393ac"
         offset="1" />
    </linearGradient>
    <clipPath
       clipPathUnits="userSpaceOnUse"
       id="clipPath3961">
      <rect
         style="color:#000000;fill:#666666;fill-opacity:1;fill-rule:nonzero;marker:none;visibility:visible;display:inline;overflow:visible;enable-background:accumulate"
         id="rect3963"
         width="35.59483"
         height="36.63266"
         x="103.24046"
         y="418.31531"
         rx="0"
         ry="0"
         transform="matrix(0.35678968,0.93418474,-0.92046675,0.39082088,0,0)" />
    </clipPath>
    <radialGradient
       id="radialGradient4525"
       r="19.375"
       gradientUnits="userSpaceOnUse"
       gradientTransform="matrix(.47303,.15667,-.1319,.42436,34.98134,9.80281)"
       cy="29.93452"
       cx="60.12984">
      <stop
         id="stop4527"
         stop-color="#ededf0"
         offset="0" />
      <stop
         id="stop4529"
         stop-opacity="0"
         stop-color="#d8d8e7"
         offset="1" />
    </radialGradient>
    <marker
       id="marker4521"
       viewBox="0 0 10 10"
       refY="5"
       refX="10"
       orient="auto"
       markerWidth="4"
       markerUnits="strokeWidth"
       markerHeight="3">
      <path
         id="path4523"
         d="m10,0-10,5 10,5v-10z" />
    </marker>
    <marker
       id="marker4517"
       viewBox="0 0 10 10"
       refY="5"
       refX="0"
       orient="auto"
       markerWidth="4"
       markerUnits="strokeWidth"
       markerHeight="3">
      <path
         id="path4519"
         d="m0,0 10,5-10,5v-10z" />
    </marker>
    <linearGradient
       id="linearGradient4515"
       y2="62.19664"
       y1="62.37725"
       xlink:href="#linearGradient5950"
       x2="74.94252"
       x1="45.08966"
       gradientUnits="userSpaceOnUse" />
    <linearGradient
       id="linearGradient4513"
       xlink:href="#linearGradient5950"
       x2="69.9439"
       x1="140.14523"
       gradientUnits="userSpaceOnUse" />
    <linearGradient
       id="linearGradient4511"
       xlink:href="#linearGradient5731"
       x2="55"
       x1="93.75"
       gradientUnits="userSpaceOnUse" />
    <linearGradient
       id="linearGradient4509"
       y2="41.62819"
       y1="23.83763"
       xlink:href="#linearGradient5737"
       x2="53.07532"
       x1="95.05161"
       gradientUnits="userSpaceOnUse" />
    <linearGradient
       id="linearGradient4507"
       y2="31.69491"
       y1="31.88038"
       xlink:href="#linearGradient5737"
       x2="112.03358"
       x1="31.05663"
       gradientUnits="userSpaceOnUse" />
    <linearGradient
       id="linearGradient4505"
       xlink:href="#linearGradient5737"
       x2="53.53231"
       x1="114.99184"
       gradientUnits="userSpaceOnUse" />
    <linearGradient
       id="linearGradient4503"
       y2="62.32164"
       y1="62.50225"
       xlink:href="#linearGradient5950"
       x2="74.94252"
       x1="45.08966"
       gradientUnits="userSpaceOnUse" />
    <linearGradient
       id="linearGradient4501"
       xlink:href="#linearGradient5950"
       x2="69.9439"
       x1="140.14523"
       gradientUnits="userSpaceOnUse" />
    <linearGradient
       id="linearGradient4499"
       xlink:href="#linearGradient5731"
       x2="52.50001"
       x1="95"
       gradientUnits="userSpaceOnUse" />
    <linearGradient
       id="linearGradient4497"
       y2="40.37818"
       y1="22.58764"
       xlink:href="#linearGradient5737"
       x2="51.76322"
       x1="95.09362"
       gradientUnits="userSpaceOnUse" />
    <linearGradient
       id="linearGradient4495"
       y2="31.08526"
       y1="30.81434"
       xlink:href="#linearGradient5737"
       x2="63.86851"
       x1="76.67344"
       gradientUnits="userSpaceOnUse" />
    <linearGradient
       id="linearGradient4493"
       y2="24.84724"
       y1="24.91469"
       xlink:href="#linearGradient5737"
       x2="90.00876"
       x1="55.04785"
       gradientUnits="userSpaceOnUse" />
    <linearGradient
       id="linearGradient4491"
       xlink:href="#linearGradient5737"
       x2="65.28061"
       x1="90.25407"
       gradientUnits="userSpaceOnUse" />
    <linearGradient
       id="linearGradient4485">
      <stop
         id="stop4487"
         stop-color="#8c8ca4"
         offset="0" />
      <stop
         id="stop4489"
         stop-color="#a2a2c6"
         offset="1" />
    </linearGradient>
    <linearGradient
       id="linearGradient4479">
      <stop
         id="stop4481"
         stop-color="#fff"
         offset="0" />
      <stop
         id="stop4483"
         stop-opacity="0"
         stop-color="#a1a1a1"
         offset="1" />
    </linearGradient>
    <linearGradient
       id="linearGradient4473">
      <stop
         id="stop4475"
         stop-color="#800000"
         offset="0" />
      <stop
         id="stop4477"
         stop-color="#5e0000"
         offset="1" />
    </linearGradient>
    <linearGradient
       id="linearGradient4467">
      <stop
         id="stop4469"
         offset="0" />
      <stop
         id="stop4471"
         stop-color="#9b0000"
         offset="1" />
    </linearGradient>
    <linearGradient
       id="linearGradient4461">
      <stop
         id="stop4463"
         stop-color="#82829c"
         offset="0" />
      <stop
         id="stop4465"
         stop-color="#d8d8e7"
         offset="1" />
    </linearGradient>
    <linearGradient
       id="linearGradient4455">
      <stop
         id="stop4457"
         stop-color="#924800"
         offset="0" />
      <stop
         id="stop4459"
         stop-color="#ff9930"
         offset="1" />
    </linearGradient>
    <linearGradient
       id="linearGradient4449"
       y2="33.75448"
       y1="33.9222"
       x2="50.53068"
       x1="96.64055"
       gradientUnits="userSpaceOnUse">
      <stop
         id="stop4451"
         offset="0" />
      <stop
         id="stop4453"
         stop-opacity="0"
         offset="1" />
    </linearGradient>
    <linearGradient
       id="linearGradient4443"
       x2="113.53172"
       x1="95"
       gradientUnits="userSpaceOnUse">
      <stop
         id="stop4445"
         stop-color="#8e8ea4"
         offset="0" />
      <stop
         id="stop4447"
         stop-color="#57576c"
         offset="1" />
    </linearGradient>
    <linearGradient
       id="linearGradient4437"
       y2="72.34698"
       y1="72.5276"
       x2="50.03026"
       x1="90.4023"
       gradientUnits="userSpaceOnUse">
      <stop
         id="stop4439"
         stop-color="#212121"
         offset="0" />
      <stop
         id="stop4441"
         stop-color="#a1a1a1"
         offset="1" />
    </linearGradient>
    <linearGradient
       id="linearGradient4431"
       x2="52.5"
       x1="95.00332"
       gradientUnits="userSpaceOnUse">
      <stop
         id="stop4433"
         stop-color="#be1600"
         offset="0" />
      <stop
         id="stop4435"
         stop-color="#ffc73f"
         offset="1" />
    </linearGradient>
    <linearGradient
       id="linearGradient4425"
       x2="62.5625"
       x1="87.3125"
       gradientUnits="userSpaceOnUse">
      <stop
         id="stop4427"
         stop-color="#636381"
         offset="0" />
      <stop
         id="stop4429"
         stop-color="#9393ac"
         offset="1" />
    </linearGradient>
  </defs>
  <sodipodi:namedview
     id="base"
     pagecolor="#ffffff"
     bordercolor="#666666"
     borderopacity="1.0"
     inkscape:pageopacity="0.0"
     inkscape:pageshadow="2"
     inkscape:zoom="1.4142136"
     inkscape:cx="-154.04044"
     inkscape:cy="122.83077"
     inkscape:document-units="px"
     inkscape:current-layer="layer1"
     showgrid="false"
     fit-margin-top="0"
     fit-margin-left="0"
     fit-margin-right="0"
     fit-margin-bottom="0"
     inkscape:window-width="1752"
     inkscape:window-height="970"
     inkscape:window-x="107"
     inkscape:window-y="64"
     inkscape:window-maximized="0" />
  <metadata
     id="metadata3176">
    <rdf:RDF>
      <cc:Work
         rdf:about="">
        <dc:format>image/svg+xml</dc:format>
        <dc:type
           rdf:resource="http://purl.org/dc/dcmitype/StillImage" />
        <dc:title></dc:title>
      </cc:Work>
    </rdf:RDF>
  </metadata>
  <g
     inkscape:label="Layer 1"
     inkscape:groupmode="layer"
     id="layer1"
     transform="translate(-320.71429,-453.43361)">
    <g
       transform="translate(-52.936299,112.04231)"
       id="g3551" />
    <path
       id="path4535"
       style="fill:#dedbe3;fill-opacity:1"
       d="m 359.90427,501.92326 0,28.99425 c 0,0 18.77472,-0.24248 31.81837,0 2.78642,0.0518 4.89513,6.77788 4.89513,6.77788 l 20.59251,0 c 0.84602,-2.5493 3.23784,-4.38915 6.04831,-4.38915 2.81047,0 5.19053,1.83985 6.03655,4.38915 l 1.0002,0 c 0.84603,-2.5493 3.23785,-4.38915 6.04832,-4.38915 2.81048,0 5.19053,1.83985 6.03655,4.38915 l 3.28303,0 0,-35.77213 -85.75897,0 z m -3.53014,0.25888 c -0.23481,-0.008 -1.457,0.13369 -5.88358,2.87118 -6.36346,3.93529 -6.31895,5.33052 -6.31895,5.33052 l 11.84951,-0.0706 0.40009,-8.11934 c 0,0 -0.0136,-0.0106 -0.0471,-0.0117 z m -11.27293,8.69592 c -1.54536,0 -2.97615,0.9682 -3.51838,2.45933 l -5.43642,15.23846 c -0.67478,5.0608 -0.30952,6.99984 0,9.10777 0.067,0.456 0.38276,0.84724 0.87077,0.84724 l 5.02457,0 c 0.57551,-3.03479 3.2151,-5.33052 6.38956,-5.33052 3.17446,0 5.81415,2.29561 6.38956,5.33052 12.71194,0.0232 15.16624,0 20.85138,0 0.56268,-3.05099 3.20373,-5.36582 6.38957,-5.36582 3.19023,0 5.84366,2.32034 6.40132,5.37758 2.59093,-0.0147 4.8256,-0.56564 4.64803,-4.45975 l 0,-0.25888 c 0,-1.03023 -0.84074,-1.90626 -1.87097,-1.90626 l -32.90095,0 c 0.0183,-0.9665 0,-5.50658 0,-6.31896 l -1.78861,0 0,-13.20274 c 0,-0.84045 -0.6775,-1.51796 -1.51796,-1.51796 l -9.93147,0 z m -0.6472,3.57721 9.42549,0 0,7.54275 -12.27313,0 2.84764,-7.54275 z m 3.95377,20.07476 c -2.84864,0 -5.15402,2.33759 -5.15402,5.21284 0,2.87526 2.30539,5.20108 5.15402,5.20108 2.84863,0 5.16578,-2.32582 5.16578,-5.20108 0,-2.87525 -2.31715,-5.21284 -5.16578,-5.21284 z m 33.71287,0 c -2.84864,0 -5.16578,2.33759 -5.16578,5.21284 0,2.87526 2.31715,5.20108 5.16578,5.20108 2.84863,0 5.15401,-2.32582 5.15401,-5.20108 0,-2.87525 -2.30537,-5.21284 -5.15401,-5.21284 z m 41.13795,0 c -2.84864,0 -5.16577,2.33759 -5.16577,5.21284 0,2.87526 2.31714,5.20108 5.16577,5.20108 2.84864,0 5.15401,-2.32582 5.15401,-5.20108 0,-2.87525 -2.30537,-5.21284 -5.15401,-5.21284 z m 13.08507,0 c -2.84864,0 -5.16577,2.33759 -5.16577,5.21284 0,2.87526 2.31713,5.20108 5.16577,5.20108 2.84864,0 5.15401,-2.32582 5.15401,-5.20108 0,-2.87525 -2.30537,-5.21284 -5.15401,-5.21284 z M 331.14694,453.43361 c -5.71107,0 -10.43265,4.7007 -10.43265,10.4127 l 0,119.1746 c 0,5.712 4.72158,10.4127 10.43265,10.4127 l 119.13472,0 c 5.71105,0 10.43263,-4.7007 10.43263,-10.4127 l 0,-119.1746 c 0,-5.712 -4.72158,-10.4127 -10.43263,-10.4127 l -119.13474,0 z m 0,6.8987 119.13472,0 c 2.00909,0 3.53503,1.5045 3.53503,3.514 l 0,119.1746 c 0,2.0094 -1.52594,3.5141 -3.53503,3.5141 l -119.13474,0 c -2.00908,0 -3.53501,-1.5047 -3.53501,-3.5141 l 0,-119.1746 c 0,-2.0095 1.52593,-3.514 3.53501,-3.514 z" />
  </g>
</svg>
